<svg xmlns="http://www.w3.org/2000/svg" width="20.71" height="23.98" viewBox="0 0 20.71 23.98">
  <g id="Group_7603" data-name="Group 7603" transform="translate(-651 -4747.776)">
    <g id="Group_7602" data-name="Group 7602" transform="translate(651 4747.776)">
      <g id="Group_7529" data-name="Group 7529" transform="translate(0 0)">
        <path id="Path_6285" data-name="Path 6285" d="M17.26,1H4.18A2.186,2.186,0,0,0,2,3.18V18.44H4.18V3.18H17.26Zm3.27,4.36H8.54A2.186,2.186,0,0,0,6.36,7.54V22.8a2.186,2.186,0,0,0,2.18,2.18H20.53a2.186,2.186,0,0,0,2.18-2.18V7.54A2.186,2.186,0,0,0,20.53,5.36Zm0,17.44H8.54V7.54H20.53Z" transform="translate(-2 -1)" fill="#297e28"/>
        <path id="Tick" d="M0,4.719,1.208,3.49,3.339,5.626,8.968,0l1.218,1.211L3.339,8.058Z" transform="translate(7.319 10.47)" fill="#297e28"/>
      </g>
    </g>
  </g>
</svg>
