<svg xmlns="http://www.w3.org/2000/svg" xmlns:xlink="http://www.w3.org/1999/xlink" width="320" height="800" viewBox="0 0 320 800">
  <defs>
    <filter id="Base" x="2" y="734.5" width="159.195" height="60" filterUnits="userSpaceOnUse">
      <feOffset dy="2" input="SourceAlpha"/>
      <feGaussianBlur stdDeviation="2" result="blur"/>
      <feFlood flood-opacity="0.302"/>
      <feComposite operator="in" in2="blur"/>
      <feComposite in="SourceGraphic"/>
    </filter>
    <filter id="Rectangle_456" x="155" y="734.5" width="163" height="60" filterUnits="userSpaceOnUse">
      <feOffset dy="2" input="SourceAlpha"/>
      <feGaussianBlur stdDeviation="2" result="blur-2"/>
      <feFlood flood-opacity="0.161"/>
      <feComposite operator="in" in2="blur-2"/>
      <feComposite in="SourceGraphic"/>
    </filter>
  </defs>
  <g id="Group_8124" data-name="Group 8124" transform="translate(0 0)">
    <path id="Path_2476" data-name="Path 2476" d="M0-356H320V-54.354H0Z" transform="translate(0 356)" fill="#e2e2e2"/>
    <text id="_H1_Checklist" data-name="&lt;H1&gt; Checklist" transform="translate(37 32)" fill="#333" font-size="32" font-family="OpenSans-Semibold, Open Sans" font-weight="600"><tspan x="0" y="34">&lt;H1&gt; Checklist</tspan></text>
    <text id="_Intro_Long_description._Suspendisse_auctor_libero_a_dui_vehicula_fermentum._Fusce_tempor_sagittis_fringilla._" data-name="&lt;Intro&gt; Long description. Suspendisse auctor libero a dui vehicula fermentum. Fusce tempor sagittis fringilla. " transform="translate(37 137)" fill="#333" font-size="16" font-family="OpenSans, Open Sans" letter-spacing="0.011em"><tspan x="0" y="17">&lt;Intro&gt; Long description. </tspan><tspan x="0" y="45">Suspendisse auctor libero a dui </tspan><tspan x="0" y="73">vehicula fermentum. Fusce </tspan><tspan x="0" y="101">tempor sagittis fringilla. </tspan></text>
    <g id="Group_3732" data-name="Group 3732" transform="translate(37 88)">
      <g id="Group">
        <text id="Last_Updated:_15_February_2021" data-name="Last Updated: 15 February 2021" transform="translate(0 4)" fill="#333" font-size="12" font-family="OpenSans-Italic, Open Sans" font-style="italic" letter-spacing="0em"><tspan x="0" y="13">Last Updated: 15 February 2021</tspan></text>
      </g>
    </g>
    <line id="Line_258" data-name="Line 258" y1="448" transform="translate(38 343.5)" fill="none" stroke="#c7c7c7" stroke-width="2"/>
    <g id="Group_8119" data-name="Group 8119" transform="translate(1 -41)">
      <path id="Path_3902" data-name="Path 3902" d="M17,0A17,17,0,1,1,0,17,17,17,0,0,1,17,0Z" transform="translate(19 373)" fill="#254f90"/>
      <text id="_1" data-name="1" transform="translate(22.4 376)" fill="#fff" font-size="21" font-family="OpenSans-Semibold, Open Sans" font-weight="600" letter-spacing="-0.06em"><tspan x="7.607" y="22">1</tspan></text>
    </g>
    <g id="Group_8120" data-name="Group 8120" transform="translate(0 -45)">
      <g id="Path_3902-2" data-name="Path 3902" transform="translate(20 690.5)" fill="#fff">
        <path d="M 17 33 C 12.72624969482422 33 8.708290100097656 31.3357105255127 5.68628978729248 28.3137092590332 C 2.664289951324463 25.29170989990234 1 21.27375030517578 1 17 C 1 12.72624969482422 2.664289951324463 8.708290100097656 5.68628978729248 5.68628978729248 C 8.708290100097656 2.664289951324463 12.72624969482422 1 17 1 C 21.27375030517578 1 25.29170989990234 2.664289951324463 28.3137092590332 5.68628978729248 C 31.3357105255127 8.708290100097656 33 12.72624969482422 33 17 C 33 21.27375030517578 31.3357105255127 25.29170989990234 28.3137092590332 28.3137092590332 C 25.29170989990234 31.3357105255127 21.27375030517578 33 17 33 Z" stroke="none"/>
        <path d="M 17 2 C 12.99336051940918 2 9.226520538330078 3.560270309448242 6.393400192260742 6.393400192260742 C 3.560270309448242 9.226520538330078 2 12.99336051940918 2 17 C 2 21.00664138793945 3.560270309448242 24.77347946166992 6.393400192260742 27.60659980773926 C 9.226520538330078 30.43972969055176 12.99336051940918 32 17 32 C 21.00664138793945 32 24.77347946166992 30.43972969055176 27.60659980773926 27.60659980773926 C 30.43972969055176 24.77347946166992 32 21.00664138793945 32 17 C 32 12.99336051940918 30.43972969055176 9.226520538330078 27.60659980773926 6.393400192260742 C 24.77347946166992 3.560270309448242 21.00664138793945 2 17 2 M 17 0 C 26.38883972167969 0 34 7.611160278320312 34 17 C 34 26.38883972167969 26.38883972167969 34 17 34 C 7.611160278320312 34 0 26.38883972167969 0 17 C 0 7.611160278320312 7.611160278320312 0 17 0 Z" stroke="none" fill="#c7c7c7"/>
      </g>
      <text id="_2" data-name="2" transform="translate(23.4 693.5)" fill="#333" font-size="21" font-family="OpenSans-Semibold, Open Sans" font-weight="600" letter-spacing="-0.06em"><tspan x="7.607" y="22">2</tspan></text>
    </g>
    <g id="Group_8121" data-name="Group 8121" transform="translate(0 62)">
      <g id="Path_3902-3" data-name="Path 3902" transform="translate(20 690.5)" fill="#fff">
        <path d="M 17 33 C 12.72624969482422 33 8.708290100097656 31.3357105255127 5.68628978729248 28.3137092590332 C 2.664289951324463 25.29170989990234 1 21.27375030517578 1 17 C 1 12.72624969482422 2.664289951324463 8.708290100097656 5.68628978729248 5.68628978729248 C 8.708290100097656 2.664289951324463 12.72624969482422 1 17 1 C 21.27375030517578 1 25.29170989990234 2.664289951324463 28.3137092590332 5.68628978729248 C 31.3357105255127 8.708290100097656 33 12.72624969482422 33 17 C 33 21.27375030517578 31.3357105255127 25.29170989990234 28.3137092590332 28.3137092590332 C 25.29170989990234 31.3357105255127 21.27375030517578 33 17 33 Z" stroke="none"/>
        <path d="M 17 2 C 12.99336051940918 2 9.226520538330078 3.560270309448242 6.393400192260742 6.393400192260742 C 3.560270309448242 9.226520538330078 2 12.99336051940918 2 17 C 2 21.00664138793945 3.560270309448242 24.77347946166992 6.393400192260742 27.60659980773926 C 9.226520538330078 30.43972969055176 12.99336051940918 32 17 32 C 21.00664138793945 32 24.77347946166992 30.43972969055176 27.60659980773926 27.60659980773926 C 30.43972969055176 24.77347946166992 32 21.00664138793945 32 17 C 32 12.99336051940918 30.43972969055176 9.226520538330078 27.60659980773926 6.393400192260742 C 24.77347946166992 3.560270309448242 21.00664138793945 2 17 2 M 17 0 C 26.38883972167969 0 34 7.611160278320312 34 17 C 34 26.38883972167969 26.38883972167969 34 17 34 C 7.611160278320312 34 0 26.38883972167969 0 17 C 0 7.611160278320312 7.611160278320312 0 17 0 Z" stroke="none" fill="#c7c7c7"/>
      </g>
      <text id="_3" data-name="3" transform="translate(23.4 693.5)" fill="#333" font-size="21" font-family="OpenSans-Semibold, Open Sans" font-weight="600" letter-spacing="-0.06em"><tspan x="7.607" y="22">3</tspan></text>
    </g>
    <text id="Lorem_ipsum_dolor_sit" data-name="Lorem ipsum dolor sit" transform="translate(74 333)" fill="#333" font-size="21" font-family="OpenSans-Semibold, Open Sans" font-weight="600" text-decoration="underline"><tspan x="0" y="22">Lorem ipsum </tspan><tspan x="0" y="50">dolor sit</tspan></text>
    <text id="Lorem_ipsum_dolor_sit-2" data-name="Lorem ipsum dolor sit" transform="translate(74 648.5)" fill="#333" font-size="21" font-family="OpenSans-Semibold, Open Sans" font-weight="600"><tspan x="0" y="22">Lorem ipsum </tspan><tspan x="0" y="50">dolor sit</tspan></text>
    <path id="Chevron_Down" data-name="Chevron / Down" d="M7.535,10,0,17.522,2.482,20,12.5,10,2.482,0,0,2.478Z" transform="translate(266 365.078) rotate(-90)" fill="#254f90"/>
    <path id="Path_3972" data-name="Path 3972" d="M0,0H228V93.215H0Z" transform="translate(73 413)" fill="#ebebeb"/>
    <text id="Tip_-_Nulla_a_dapibus_diam" data-name="Tip - Nulla a dapibus diam" transform="translate(129.469 436)" fill="#333" font-size="18" font-family="OpenSans-Semibold, Open Sans" font-weight="600"><tspan x="0" y="19">Tip - Nulla a </tspan><tspan x="0" y="41">dapibus diam</tspan></text>
    <g id="Layer_1" data-name="Layer 1" transform="translate(85.473 432)">
      <path id="Path_3937" data-name="Path 3937" d="M17,3a11.511,11.511,0,0,0-2.4.24,11.982,11.982,0,0,0-5.587,20.7,3.333,3.333,0,0,1,1.131,2.519v3.959a3.438,3.438,0,0,0,3.428,3.428h.48a3.392,3.392,0,0,0,5.9,0h.48a3.438,3.438,0,0,0,3.428-3.428V26.463a3.324,3.324,0,0,1,1.1-2.5A11.984,11.984,0,0,0,17,3Zm3.428,27.422H13.572V28.708h6.856Zm0-3.428H13.572V25.281h6.856Zm2.245-5.587c-.154.137-.274.309-.411.446H18.5V17.7l2.948-2.948a.647.647,0,0,0,0-.908L20.235,12.63a.664.664,0,0,0-.912,0L17.01,14.946l-2.333-2.334a.665.665,0,0,0-.91,0l-1.212,1.213a.643.643,0,0,0,0,.908L15.5,17.678v4.175H11.721a5.286,5.286,0,0,0-.411-.463A8.565,8.565,0,1,1,25.569,15,8.522,8.522,0,0,1,22.673,21.407Z" transform="translate(0 0)" fill="#748fb8"/>
    </g>
    <path id="Chevron_Down-2" data-name="Chevron / Down" d="M7.535,10,0,17.522,2.482,20,12.5,10,2.482,0,0,2.478Z" transform="translate(285 455) rotate(90)" fill="#254f90"/>
    <path id="Path_3977" data-name="Path 3977" d="M0,0H228V85.391H0Z" transform="translate(73 522.5)" fill="#e5edf7"/>
    <text id="Nulla_vel_hendrerit_orci" data-name="Nulla vel hendrerit orci" transform="translate(92.234 546.5)" fill="#333" font-size="18" font-family="OpenSans-Semibold, Open Sans" font-weight="600"><tspan x="0" y="19">Nulla vel hendrerit </tspan><tspan x="0" y="41">orci</tspan></text>
    <path id="Chevron_Down-3" data-name="Chevron / Down" d="M7.535,10,0,17.522,2.482,20,12.5,10,2.482,0,0,2.478Z" transform="translate(285 553.865) rotate(90)" fill="#254f90"/>
    <circle id="Ellipse_57" data-name="Ellipse 57" cx="11" cy="11" r="11" transform="translate(27 446)" fill="#c7c7c7"/>
    <circle id="Ellipse_58" data-name="Ellipse 58" cx="11" cy="11" r="11" transform="translate(27 548)" fill="#c7c7c7"/>
    <path id="Path_6292" data-name="Path 6292" d="M326-1265H553v2H326Z" transform="translate(-252 1896.566)" fill="#c7c7c7" fill-rule="evenodd"/>
    <path id="Path_6290" data-name="Path 6290" d="M326-1265H553v2H326Z" transform="translate(-252 1998.566)" fill="#c7c7c7" fill-rule="evenodd"/>
    <path id="Chevron_Down-4" data-name="Chevron / Down" d="M7.535,10,0,17.522,2.482,20,12.5,10,2.482,0,0,2.478Z" transform="translate(285 668) rotate(90)" fill="#254f90"/>
    <path id="Chevron_Down-5" data-name="Chevron / Down" d="M7.535,10,0,17.522,2.482,20,12.5,10,2.482,0,0,2.478Z" transform="translate(300 771) rotate(90)" fill="#254f90"/>
    <path id="Path_6303" data-name="Path 6303" d="M0,0H320V71.578H0Z" transform="translate(0 728.422)" fill="#ebebeb"/>
    <g id="Group_8123" data-name="Group 8123" transform="translate(-1)">
      <g transform="matrix(1, 0, 0, 1, 1, 0)" filter="url(#Base)">
        <g id="Base-2" data-name="Base" transform="translate(8 738.5)" fill="#ffd964">
          <path d="M 142.8660430908203 47 L 4.329276084899902 47 C 3.502776145935059 47 2.703596353530884 46.52322006225586 2.078956365585327 45.65752029418945 C 1.383176207542419 44.69324111938477 0.9999962449073792 43.3942985534668 0.9999962449073792 42 L 0.9999962449073792 6 C 0.9999962449073792 4.605700016021729 1.383176207542419 3.306780099868774 2.078956365585327 2.342499971389771 C 2.703616142272949 1.47678005695343 3.502796173095703 1 4.329276084899902 1 L 142.8660430908203 1 C 143.6925201416016 1 144.49169921875 1.47678005695343 145.1163635253906 2.342499971389771 C 145.8121337890625 3.306780099868774 146.1953125 4.605700016021729 146.1953125 6 L 146.1953125 42 C 146.1953125 43.3942985534668 145.8121337890625 44.69324111938477 145.1163635253906 45.65752029418945 C 144.4917144775391 46.52322006225586 143.6925354003906 47 142.8660430908203 47 Z" stroke="none"/>
          <path d="M 4.329269409179688 2 C 3.229736328125 2 2 3.710639953613281 2 6 L 2 42 C 2 44.28936004638672 3.229736328125 46 4.329269409179688 46 L 142.8660430908203 46 C 143.965576171875 46 145.1953125 44.28936004638672 145.1953125 42 L 145.1953125 6 C 145.1953125 3.710639953613281 143.965576171875 2 142.8660430908203 2 L 4.329269409179688 2 M 4.329269409179688 0 L 142.8660430908203 0 C 145.2570343017578 0 147.1953125 2.686279296875 147.1953125 6 L 147.1953125 42 C 147.1953125 45.31370162963867 145.2570343017578 48 142.8660430908203 48 L 4.329269409179688 48 C 1.938278198242188 48 0 45.31370162963867 0 42 L 0 6 C 0 2.686279296875 1.938278198242188 0 4.329269409179688 0 Z" stroke="none" fill="#f5c550"/>
        </g>
      </g>
      <text id="Button_title" data-name="Button title" transform="translate(29 768.5)" fill="#333" font-size="16" font-family="OpenSans-Semibold, Open Sans" font-weight="600"><tspan x="0" y="0">Save progress</tspan></text>
    </g>
    <g id="Group_8122" data-name="Group 8122" transform="translate(161 738.5)">
      <g transform="matrix(1, 0, 0, 1, -161, -738.5)" filter="url(#Rectangle_456)">
        <g id="Rectangle_456-2" data-name="Rectangle 456" transform="translate(161 738.5)" fill="#297e28" stroke="#134b12" stroke-width="2">
          <rect width="151" height="48" rx="6" stroke="none"/>
          <rect x="1" y="1" width="149" height="46" rx="5" fill="none"/>
        </g>
      </g>
      <path id="Oval_6_Copy" data-name="Oval 6 Copy" d="M26.444,11.2c0-6.185-5.92-11.2-13.222-11.2S0,5.014,0,11.2Z" transform="translate(21 26.8)" fill="#fff"/>
      <ellipse id="Path" cx="7.555" cy="7.467" rx="7.555" ry="7.467" transform="translate(26.666 10)" fill="#fff"/>
      <text id="Chat_now" data-name="Chat now" transform="translate(55 30)" fill="#fff" font-size="16" font-family="OpenSans-Semibold, Open Sans" font-weight="600" letter-spacing="0.013em"><tspan x="0" y="0">Chat now</tspan></text>
    </g>
  </g>
</svg>