<svg xmlns="http://www.w3.org/2000/svg" xmlns:xlink="http://www.w3.org/1999/xlink" width="440" height="252" viewBox="0 0 440 252">
  <defs>
    <clipPath id="clip-path">
      <path id="Path_5665" data-name="Path 5665" d="M2299.478,61.121h77.174a1.119,1.119,0,0,0,0-2.23h-78.2a1.074,1.074,0,0,0-1.028,1.115v64.2a1.074,1.074,0,0,0,1.028,1.115h78.05a1.119,1.119,0,0,0,0-2.23h-77.022Z" fill="#c1b8ed"/>
    </clipPath>
    <clipPath id="clip-path-2">
      <path id="Path_5667" data-name="Path 5667" d="M2293.273,54.391H2376.5a1.119,1.119,0,0,0,0-2.23h-84.254a1.074,1.074,0,0,0-1.028,1.115v77.656a1.074,1.074,0,0,0,1.028,1.115H2376.5a1.119,1.119,0,0,0,0-2.23h-83.226Z" fill="#c1b8ed"/>
    </clipPath>
    <clipPath id="clip-path-3">
      <path id="Path_5669" data-name="Path 5669" d="M2312.5,77.573h64a1.119,1.119,0,0,0,0-2.23H2311.47a1.074,1.074,0,0,0-1.028,1.115V107.75a1.074,1.074,0,0,0,1.028,1.115H2376.5a1.119,1.119,0,0,0,0-2.23h-64Z" fill="#c1b8ed"/>
    </clipPath>
    <clipPath id="clip-path-4">
      <path id="Path_5671" data-name="Path 5671" d="M2318.055,47.518a1.085,1.085,0,0,0-.066,1.575,1.193,1.193,0,0,0,1.639.064l21.811-19.35a1.086,1.086,0,0,0,.066-1.576,1.193,1.193,0,0,0-1.639-.063Z" fill="#c1b8ed"/>
    </clipPath>
    <clipPath id="clip-path-5">
      <path id="Path_5673" data-name="Path 5673" d="M2361.677,49.157a1.192,1.192,0,0,0,1.638-.064,1.084,1.084,0,0,0-.065-1.575l-21.811-19.35a1.193,1.193,0,0,0-1.639.063,1.086,1.086,0,0,0,.066,1.576Z" fill="#c1b8ed"/>
    </clipPath>
    <clipPath id="clip-path-6">
      <path id="Path_5675" data-name="Path 5675" d="M1973.628,32.793h-6.659a1.546,1.546,0,0,0-1.522,1.567V84.254a1.545,1.545,0,0,0,1.522,1.566h6.659a1.544,1.544,0,0,0,1.521-1.566V34.36A1.545,1.545,0,0,0,1973.628,32.793Zm0-2.215a3.729,3.729,0,0,1,3.673,3.782V84.254a3.73,3.73,0,0,1-3.673,3.782h-6.659a3.73,3.73,0,0,1-3.673-3.782V34.36a3.729,3.729,0,0,1,3.673-3.782Z" fill="#c1b8ed"/>
    </clipPath>
    <clipPath id="clip-path-7">
      <path id="Path_5677" data-name="Path 5677" d="M1968.13,57.876a1.108,1.108,0,0,1,0-2.215h4.337a1.108,1.108,0,0,1,0,2.215Z" fill="#c1b8ed"/>
    </clipPath>
    <clipPath id="clip-path-8">
      <path id="Path_5679" data-name="Path 5679" d="M1968.13,62.871a1.108,1.108,0,0,1,0-2.216h4.337a1.109,1.109,0,0,1,0,2.216Z" fill="#c1b8ed"/>
    </clipPath>
    <clipPath id="clip-path-9">
      <path id="Path_5681" data-name="Path 5681" d="M1991.444,32.793h-6.658a1.545,1.545,0,0,0-1.522,1.567V84.254a1.544,1.544,0,0,0,1.522,1.566h6.658a1.544,1.544,0,0,0,1.522-1.566V34.36A1.545,1.545,0,0,0,1991.444,32.793Zm0-2.215a3.728,3.728,0,0,1,3.673,3.782V84.254a3.729,3.729,0,0,1-3.673,3.782h-6.658a3.729,3.729,0,0,1-3.673-3.782V34.36a3.728,3.728,0,0,1,3.673-3.782Z" fill="#c1b8ed"/>
    </clipPath>
    <clipPath id="clip-path-10">
      <path id="Path_5683" data-name="Path 5683" d="M1985.947,57.876a1.108,1.108,0,0,1,0-2.215h4.336a1.108,1.108,0,0,1,0,2.215Z" fill="#c1b8ed"/>
    </clipPath>
    <clipPath id="clip-path-11">
      <path id="Path_5685" data-name="Path 5685" d="M1985.947,62.871a1.108,1.108,0,0,1,0-2.216h4.336a1.108,1.108,0,0,1,0,2.216Z" fill="#c1b8ed"/>
    </clipPath>
    <clipPath id="clip-path-12">
      <path id="Path_5687" data-name="Path 5687" d="M2026.169,32.793h-6.658a1.545,1.545,0,0,0-1.522,1.567V84.254a1.544,1.544,0,0,0,1.522,1.566h6.658a1.544,1.544,0,0,0,1.522-1.566V34.36A1.545,1.545,0,0,0,2026.169,32.793Zm0-2.215a3.728,3.728,0,0,1,3.673,3.782V84.254a3.729,3.729,0,0,1-3.673,3.782h-6.658a3.73,3.73,0,0,1-3.674-3.782V34.36a3.729,3.729,0,0,1,3.674-3.782Z" fill="#c1b8ed"/>
    </clipPath>
    <clipPath id="clip-path-13">
      <path id="Path_5689" data-name="Path 5689" d="M2020.672,57.876a1.108,1.108,0,0,1,0-2.215h4.336a1.108,1.108,0,0,1,0,2.215Z" fill="#c1b8ed"/>
    </clipPath>
    <clipPath id="clip-path-14">
      <path id="Path_5691" data-name="Path 5691" d="M2020.672,62.871a1.108,1.108,0,0,1,0-2.216h4.336a1.108,1.108,0,0,1,0,2.216Z" fill="#c1b8ed"/>
    </clipPath>
    <clipPath id="clip-path-15">
      <path id="Path_5693" data-name="Path 5693" d="M2043.986,32.793h-6.659a1.546,1.546,0,0,0-1.522,1.567V84.254a1.545,1.545,0,0,0,1.522,1.566h6.659a1.544,1.544,0,0,0,1.521-1.566V34.36A1.545,1.545,0,0,0,2043.986,32.793Zm0-2.215a3.729,3.729,0,0,1,3.673,3.782V84.254a3.73,3.73,0,0,1-3.673,3.782h-6.659a3.729,3.729,0,0,1-3.673-3.782V34.36a3.729,3.729,0,0,1,3.673-3.782Z" fill="#c1b8ed"/>
    </clipPath>
    <clipPath id="clip-path-16">
      <path id="Path_5695" data-name="Path 5695" d="M2038.488,57.876a1.108,1.108,0,0,1,0-2.215h4.337a1.108,1.108,0,0,1,0,2.215Z" fill="#c1b8ed"/>
    </clipPath>
    <clipPath id="clip-path-17">
      <path id="Path_5697" data-name="Path 5697" d="M2038.488,62.871a1.109,1.109,0,0,1,0-2.216h4.337a1.109,1.109,0,0,1,0,2.216Z" fill="#c1b8ed"/>
    </clipPath>
    <clipPath id="clip-path-18">
      <path id="Path_5699" data-name="Path 5699" d="M2062.749,32.793h-6.659a1.546,1.546,0,0,0-1.522,1.567V84.254a1.545,1.545,0,0,0,1.522,1.566h6.659a1.544,1.544,0,0,0,1.521-1.566V34.36A1.545,1.545,0,0,0,2062.749,32.793Zm0-2.215a3.729,3.729,0,0,1,3.673,3.782V84.254a3.73,3.73,0,0,1-3.673,3.782h-6.659a3.73,3.73,0,0,1-3.673-3.782V34.36a3.729,3.729,0,0,1,3.673-3.782Z" fill="#c1b8ed"/>
    </clipPath>
    <clipPath id="clip-path-19">
      <path id="Path_5701" data-name="Path 5701" d="M2057.251,57.876a1.108,1.108,0,0,1,0-2.215h4.337a1.108,1.108,0,0,1,0,2.215Z" fill="#c1b8ed"/>
    </clipPath>
    <clipPath id="clip-path-20">
      <path id="Path_5703" data-name="Path 5703" d="M2057.251,62.871a1.108,1.108,0,0,1,0-2.216h4.337a1.109,1.109,0,0,1,0,2.216Z" fill="#c1b8ed"/>
    </clipPath>
    <clipPath id="clip-path-21">
      <path id="Path_5705" data-name="Path 5705" d="M1973.628,118.919h-6.659a1.546,1.546,0,0,0-1.522,1.567v49.893a1.545,1.545,0,0,0,1.522,1.567h6.659a1.544,1.544,0,0,0,1.521-1.567V120.486A1.545,1.545,0,0,0,1973.628,118.919Zm0-2.215a3.729,3.729,0,0,1,3.673,3.782v49.893a3.729,3.729,0,0,1-3.673,3.782h-6.659a3.729,3.729,0,0,1-3.673-3.782V120.486a3.729,3.729,0,0,1,3.673-3.782Z" fill="#c1b8ed"/>
    </clipPath>
    <clipPath id="clip-path-22">
      <path id="Path_5707" data-name="Path 5707" d="M1968.13,144a1.108,1.108,0,0,1,0-2.215h4.337a1.108,1.108,0,0,1,0,2.215Z" fill="#c1b8ed"/>
    </clipPath>
    <clipPath id="clip-path-23">
      <path id="Path_5709" data-name="Path 5709" d="M1968.13,149a1.108,1.108,0,0,1,0-2.215h4.337a1.108,1.108,0,0,1,0,2.215Z" fill="#c1b8ed"/>
    </clipPath>
    <clipPath id="clip-path-24">
      <path id="Path_5711" data-name="Path 5711" d="M1991.444,118.919h-6.658a1.545,1.545,0,0,0-1.522,1.567v49.893a1.544,1.544,0,0,0,1.522,1.567h6.658a1.544,1.544,0,0,0,1.522-1.567V120.486A1.545,1.545,0,0,0,1991.444,118.919Zm0-2.215a3.728,3.728,0,0,1,3.673,3.782v49.893a3.728,3.728,0,0,1-3.673,3.782h-6.658a3.728,3.728,0,0,1-3.673-3.782V120.486a3.728,3.728,0,0,1,3.673-3.782Z" fill="#c1b8ed"/>
    </clipPath>
    <clipPath id="clip-path-25">
      <path id="Path_5713" data-name="Path 5713" d="M1985.947,144a1.108,1.108,0,0,1,0-2.215h4.336a1.108,1.108,0,0,1,0,2.215Z" fill="#c1b8ed"/>
    </clipPath>
    <clipPath id="clip-path-26">
      <path id="Path_5715" data-name="Path 5715" d="M1985.947,149a1.108,1.108,0,0,1,0-2.215h4.336a1.108,1.108,0,0,1,0,2.215Z" fill="#c1b8ed"/>
    </clipPath>
    <clipPath id="clip-path-27">
      <path id="Path_5717" data-name="Path 5717" d="M2026.169,118.919h-6.658a1.545,1.545,0,0,0-1.522,1.567v49.893a1.544,1.544,0,0,0,1.522,1.567h6.658a1.544,1.544,0,0,0,1.522-1.567V120.486A1.545,1.545,0,0,0,2026.169,118.919Zm0-2.215a3.728,3.728,0,0,1,3.673,3.782v49.893a3.728,3.728,0,0,1-3.673,3.782h-6.658a3.729,3.729,0,0,1-3.674-3.782V120.486a3.729,3.729,0,0,1,3.674-3.782Z" fill="#c1b8ed"/>
    </clipPath>
    <clipPath id="clip-path-28">
      <path id="Path_5719" data-name="Path 5719" d="M2020.672,144a1.108,1.108,0,0,1,0-2.215h4.336a1.108,1.108,0,0,1,0,2.215Z" fill="#c1b8ed"/>
    </clipPath>
    <clipPath id="clip-path-29">
      <path id="Path_5721" data-name="Path 5721" d="M2020.672,149a1.108,1.108,0,0,1,0-2.215h4.336a1.108,1.108,0,0,1,0,2.215Z" fill="#c1b8ed"/>
    </clipPath>
    <clipPath id="clip-path-30">
      <path id="Path_5723" data-name="Path 5723" d="M2043.986,118.919h-6.659a1.546,1.546,0,0,0-1.522,1.567v49.893a1.545,1.545,0,0,0,1.522,1.567h6.659a1.544,1.544,0,0,0,1.521-1.567V120.486A1.545,1.545,0,0,0,2043.986,118.919Zm0-2.215a3.729,3.729,0,0,1,3.673,3.782v49.893a3.729,3.729,0,0,1-3.673,3.782h-6.659a3.729,3.729,0,0,1-3.673-3.782V120.486a3.729,3.729,0,0,1,3.673-3.782Z" fill="#c1b8ed"/>
    </clipPath>
    <clipPath id="clip-path-31">
      <path id="Path_5725" data-name="Path 5725" d="M2038.488,144a1.108,1.108,0,0,1,0-2.215h4.337a1.108,1.108,0,0,1,0,2.215Z" fill="#c1b8ed"/>
    </clipPath>
    <clipPath id="clip-path-32">
      <path id="Path_5727" data-name="Path 5727" d="M2038.488,149a1.108,1.108,0,0,1,0-2.215h4.337a1.108,1.108,0,0,1,0,2.215Z" fill="#c1b8ed"/>
    </clipPath>
    <clipPath id="clip-path-33">
      <path id="Path_5729" data-name="Path 5729" d="M2062.749,118.919h-6.659a1.546,1.546,0,0,0-1.522,1.567v49.893a1.545,1.545,0,0,0,1.522,1.567h6.659a1.544,1.544,0,0,0,1.521-1.567V120.486A1.545,1.545,0,0,0,2062.749,118.919Zm0-2.215a3.729,3.729,0,0,1,3.673,3.782v49.893a3.729,3.729,0,0,1-3.673,3.782h-6.659a3.729,3.729,0,0,1-3.673-3.782V120.486a3.729,3.729,0,0,1,3.673-3.782Z" fill="#c1b8ed"/>
    </clipPath>
    <clipPath id="clip-path-34">
      <path id="Path_5731" data-name="Path 5731" d="M2057.251,144a1.108,1.108,0,0,1,0-2.215h4.337a1.108,1.108,0,0,1,0,2.215Z" fill="#c1b8ed"/>
    </clipPath>
    <clipPath id="clip-path-35">
      <path id="Path_5733" data-name="Path 5733" d="M2057.251,149a1.108,1.108,0,0,1,0-2.215h4.337a1.108,1.108,0,0,1,0,2.215Z" fill="#c1b8ed"/>
    </clipPath>
  </defs>
  <g id="Group_6984" data-name="Group 6984" transform="translate(-1950.341 -1.197)">
    <g id="Background">
      <rect id="Rectangle_715" data-name="Rectangle 715" width="440" height="252" transform="translate(1950.341 1.197)" fill="#f1eefa"/>
      <g id="Group_6946" data-name="Group 6946">
        <g id="Group_6806" data-name="Group 6806">
          <path id="Path_5664" data-name="Path 5664" d="M2299.478,61.121h77.174a1.119,1.119,0,0,0,0-2.23h-78.2a1.074,1.074,0,0,0-1.028,1.115v64.2a1.074,1.074,0,0,0,1.028,1.115h78.05a1.119,1.119,0,0,0,0-2.23h-77.022Z" fill="#c1b8ed"/>
          <g id="Group_6805" data-name="Group 6805" clip-path="url(#clip-path)">
            <g id="Group_6804" data-name="Group 6804">
              <rect id="Rectangle_716" data-name="Rectangle 716" width="88.548" height="75.418" transform="translate(2293.277 54.395)" fill="#c1b8ed"/>
            </g>
          </g>
        </g>
        <g id="Group_6809" data-name="Group 6809">
          <path id="Path_5666" data-name="Path 5666" d="M2293.273,54.391H2376.5a1.119,1.119,0,0,0,0-2.23h-84.254a1.074,1.074,0,0,0-1.028,1.115v77.656a1.074,1.074,0,0,0,1.028,1.115H2376.5a1.119,1.119,0,0,0,0-2.23h-83.226Z" fill="#c1b8ed"/>
          <g id="Group_6808" data-name="Group 6808" clip-path="url(#clip-path-2)">
            <g id="Group_6807" data-name="Group 6807">
              <rect id="Rectangle_717" data-name="Rectangle 717" width="94.601" height="88.878" transform="translate(2287.072 47.665)" fill="#c1b8ed"/>
            </g>
          </g>
        </g>
        <g id="Group_6812" data-name="Group 6812">
          <path id="Path_5668" data-name="Path 5668" d="M2312.5,77.573h64a1.119,1.119,0,0,0,0-2.23H2311.47a1.074,1.074,0,0,0-1.028,1.115V107.75a1.074,1.074,0,0,0,1.028,1.115H2376.5a1.119,1.119,0,0,0,0-2.23h-64Z" fill="#c1b8ed"/>
          <g id="Group_6811" data-name="Group 6811" clip-path="url(#clip-path-3)">
            <g id="Group_6810" data-name="Group 6810">
              <rect id="Rectangle_718" data-name="Rectangle 718" width="75.377" height="42.513" transform="translate(2306.297 70.847)" fill="#c1b8ed"/>
            </g>
          </g>
        </g>
        <g id="Group_6815" data-name="Group 6815">
          <path id="Path_5670" data-name="Path 5670" d="M2318.055,47.518a1.085,1.085,0,0,0-.066,1.575,1.193,1.193,0,0,0,1.639.064l21.811-19.35a1.086,1.086,0,0,0,.066-1.576,1.193,1.193,0,0,0-1.639-.063Z" fill="#c1b8ed"/>
          <g id="Group_6814" data-name="Group 6814" clip-path="url(#clip-path-4)">
            <g id="Group_6813" data-name="Group 6813">
              <rect id="Rectangle_719" data-name="Rectangle 719" width="33.481" height="30.572" transform="translate(2313.007 23.376)" fill="#c1b8ed"/>
            </g>
          </g>
        </g>
        <g id="Group_6818" data-name="Group 6818">
          <path id="Path_5672" data-name="Path 5672" d="M2361.677,49.157a1.192,1.192,0,0,0,1.638-.064,1.084,1.084,0,0,0-.065-1.575l-21.811-19.35a1.193,1.193,0,0,0-1.639.063,1.086,1.086,0,0,0,.066,1.576Z" fill="#c1b8ed"/>
          <g id="Group_6817" data-name="Group 6817" clip-path="url(#clip-path-5)">
            <g id="Group_6816" data-name="Group 6816">
              <rect id="Rectangle_720" data-name="Rectangle 720" width="33.481" height="30.572" transform="translate(2334.817 23.376)" fill="#c1b8ed"/>
            </g>
          </g>
        </g>
        <g id="Group_6828" data-name="Group 6828">
          <g id="Group_6821" data-name="Group 6821">
            <path id="Path_5674" data-name="Path 5674" d="M1973.628,32.793h-6.659a1.546,1.546,0,0,0-1.522,1.567V84.254a1.545,1.545,0,0,0,1.522,1.566h6.659a1.544,1.544,0,0,0,1.521-1.566V34.36A1.545,1.545,0,0,0,1973.628,32.793Zm0-2.215a3.729,3.729,0,0,1,3.673,3.782V84.254a3.73,3.73,0,0,1-3.673,3.782h-6.659a3.73,3.73,0,0,1-3.673-3.782V34.36a3.729,3.729,0,0,1,3.673-3.782Z" fill="#c1b8ed"/>
            <g id="Group_6820" data-name="Group 6820" clip-path="url(#clip-path-6)">
              <g id="Group_6819" data-name="Group 6819">
                <rect id="Rectangle_721" data-name="Rectangle 721" width="22.678" height="66.389" transform="translate(1958.959 26.112)" fill="#c1b8ed"/>
              </g>
            </g>
          </g>
          <g id="Group_6824" data-name="Group 6824">
            <path id="Path_5676" data-name="Path 5676" d="M1968.13,57.876a1.108,1.108,0,0,1,0-2.215h4.337a1.108,1.108,0,0,1,0,2.215Z" fill="#c1b8ed"/>
            <g id="Group_6823" data-name="Group 6823" clip-path="url(#clip-path-7)">
              <g id="Group_6822" data-name="Group 6822">
                <rect id="Rectangle_722" data-name="Rectangle 722" width="15.161" height="11.147" transform="translate(1962.718 51.195)" fill="#c1b8ed"/>
              </g>
            </g>
          </g>
          <g id="Group_6827" data-name="Group 6827">
            <path id="Path_5678" data-name="Path 5678" d="M1968.13,62.871a1.108,1.108,0,0,1,0-2.216h4.337a1.109,1.109,0,0,1,0,2.216Z" fill="#c1b8ed"/>
            <g id="Group_6826" data-name="Group 6826" clip-path="url(#clip-path-8)">
              <g id="Group_6825" data-name="Group 6825">
                <rect id="Rectangle_723" data-name="Rectangle 723" width="15.161" height="11.147" transform="translate(1962.718 56.19)" fill="#c1b8ed"/>
              </g>
            </g>
          </g>
        </g>
        <g id="Group_6838" data-name="Group 6838">
          <g id="Group_6831" data-name="Group 6831">
            <path id="Path_5680" data-name="Path 5680" d="M1991.444,32.793h-6.658a1.545,1.545,0,0,0-1.522,1.567V84.254a1.544,1.544,0,0,0,1.522,1.566h6.658a1.544,1.544,0,0,0,1.522-1.566V34.36A1.545,1.545,0,0,0,1991.444,32.793Zm0-2.215a3.728,3.728,0,0,1,3.673,3.782V84.254a3.729,3.729,0,0,1-3.673,3.782h-6.658a3.729,3.729,0,0,1-3.673-3.782V34.36a3.728,3.728,0,0,1,3.673-3.782Z" fill="#c1b8ed"/>
            <g id="Group_6830" data-name="Group 6830" clip-path="url(#clip-path-9)">
              <g id="Group_6829" data-name="Group 6829">
                <rect id="Rectangle_724" data-name="Rectangle 724" width="22.678" height="66.389" transform="translate(1976.776 26.112)" fill="#c1b8ed"/>
              </g>
            </g>
          </g>
          <g id="Group_6834" data-name="Group 6834">
            <path id="Path_5682" data-name="Path 5682" d="M1985.947,57.876a1.108,1.108,0,0,1,0-2.215h4.336a1.108,1.108,0,0,1,0,2.215Z" fill="#c1b8ed"/>
            <g id="Group_6833" data-name="Group 6833" clip-path="url(#clip-path-10)">
              <g id="Group_6832" data-name="Group 6832">
                <rect id="Rectangle_725" data-name="Rectangle 725" width="15.161" height="11.147" transform="translate(1980.534 51.195)" fill="#c1b8ed"/>
              </g>
            </g>
          </g>
          <g id="Group_6837" data-name="Group 6837">
            <path id="Path_5684" data-name="Path 5684" d="M1985.947,62.871a1.108,1.108,0,0,1,0-2.216h4.336a1.108,1.108,0,0,1,0,2.216Z" fill="#c1b8ed"/>
            <g id="Group_6836" data-name="Group 6836" clip-path="url(#clip-path-11)">
              <g id="Group_6835" data-name="Group 6835">
                <rect id="Rectangle_726" data-name="Rectangle 726" width="15.161" height="11.147" transform="translate(1980.534 56.19)" fill="#c1b8ed"/>
              </g>
            </g>
          </g>
        </g>
        <g id="Group_6848" data-name="Group 6848">
          <g id="Group_6841" data-name="Group 6841">
            <path id="Path_5686" data-name="Path 5686" d="M2026.169,32.793h-6.658a1.545,1.545,0,0,0-1.522,1.567V84.254a1.544,1.544,0,0,0,1.522,1.566h6.658a1.544,1.544,0,0,0,1.522-1.566V34.36A1.545,1.545,0,0,0,2026.169,32.793Zm0-2.215a3.728,3.728,0,0,1,3.673,3.782V84.254a3.729,3.729,0,0,1-3.673,3.782h-6.658a3.73,3.73,0,0,1-3.674-3.782V34.36a3.729,3.729,0,0,1,3.674-3.782Z" fill="#c1b8ed"/>
            <g id="Group_6840" data-name="Group 6840" clip-path="url(#clip-path-12)">
              <g id="Group_6839" data-name="Group 6839">
                <rect id="Rectangle_727" data-name="Rectangle 727" width="22.678" height="66.389" transform="translate(2011.501 26.112)" fill="#c1b8ed"/>
              </g>
            </g>
          </g>
          <g id="Group_6844" data-name="Group 6844">
            <path id="Path_5688" data-name="Path 5688" d="M2020.672,57.876a1.108,1.108,0,0,1,0-2.215h4.336a1.108,1.108,0,0,1,0,2.215Z" fill="#c1b8ed"/>
            <g id="Group_6843" data-name="Group 6843" clip-path="url(#clip-path-13)">
              <g id="Group_6842" data-name="Group 6842">
                <rect id="Rectangle_728" data-name="Rectangle 728" width="15.161" height="11.147" transform="translate(2015.259 51.195)" fill="#c1b8ed"/>
              </g>
            </g>
          </g>
          <g id="Group_6847" data-name="Group 6847">
            <path id="Path_5690" data-name="Path 5690" d="M2020.672,62.871a1.108,1.108,0,0,1,0-2.216h4.336a1.108,1.108,0,0,1,0,2.216Z" fill="#c1b8ed"/>
            <g id="Group_6846" data-name="Group 6846" clip-path="url(#clip-path-14)">
              <g id="Group_6845" data-name="Group 6845">
                <rect id="Rectangle_729" data-name="Rectangle 729" width="15.161" height="11.147" transform="translate(2015.259 56.19)" fill="#c1b8ed"/>
              </g>
            </g>
          </g>
        </g>
        <g id="Group_6858" data-name="Group 6858">
          <g id="Group_6851" data-name="Group 6851">
            <path id="Path_5692" data-name="Path 5692" d="M2043.986,32.793h-6.659a1.546,1.546,0,0,0-1.522,1.567V84.254a1.545,1.545,0,0,0,1.522,1.566h6.659a1.544,1.544,0,0,0,1.521-1.566V34.36A1.545,1.545,0,0,0,2043.986,32.793Zm0-2.215a3.729,3.729,0,0,1,3.673,3.782V84.254a3.73,3.73,0,0,1-3.673,3.782h-6.659a3.729,3.729,0,0,1-3.673-3.782V34.36a3.729,3.729,0,0,1,3.673-3.782Z" fill="#c1b8ed"/>
            <g id="Group_6850" data-name="Group 6850" clip-path="url(#clip-path-15)">
              <g id="Group_6849" data-name="Group 6849">
                <rect id="Rectangle_730" data-name="Rectangle 730" width="22.678" height="66.389" transform="translate(2029.317 26.112)" fill="#c1b8ed"/>
              </g>
            </g>
          </g>
          <g id="Group_6854" data-name="Group 6854">
            <path id="Path_5694" data-name="Path 5694" d="M2038.488,57.876a1.108,1.108,0,0,1,0-2.215h4.337a1.108,1.108,0,0,1,0,2.215Z" fill="#c1b8ed"/>
            <g id="Group_6853" data-name="Group 6853" clip-path="url(#clip-path-16)">
              <g id="Group_6852" data-name="Group 6852">
                <rect id="Rectangle_731" data-name="Rectangle 731" width="15.161" height="11.147" transform="translate(2033.076 51.195)" fill="#c1b8ed"/>
              </g>
            </g>
          </g>
          <g id="Group_6857" data-name="Group 6857">
            <path id="Path_5696" data-name="Path 5696" d="M2038.488,62.871a1.109,1.109,0,0,1,0-2.216h4.337a1.109,1.109,0,0,1,0,2.216Z" fill="#c1b8ed"/>
            <g id="Group_6856" data-name="Group 6856" clip-path="url(#clip-path-17)">
              <g id="Group_6855" data-name="Group 6855">
                <rect id="Rectangle_732" data-name="Rectangle 732" width="15.161" height="11.147" transform="translate(2033.076 56.19)" fill="#c1b8ed"/>
              </g>
            </g>
          </g>
        </g>
        <g id="Group_6868" data-name="Group 6868">
          <g id="Group_6861" data-name="Group 6861">
            <path id="Path_5698" data-name="Path 5698" d="M2062.749,32.793h-6.659a1.546,1.546,0,0,0-1.522,1.567V84.254a1.545,1.545,0,0,0,1.522,1.566h6.659a1.544,1.544,0,0,0,1.521-1.566V34.36A1.545,1.545,0,0,0,2062.749,32.793Zm0-2.215a3.729,3.729,0,0,1,3.673,3.782V84.254a3.73,3.73,0,0,1-3.673,3.782h-6.659a3.73,3.73,0,0,1-3.673-3.782V34.36a3.729,3.729,0,0,1,3.673-3.782Z" fill="#c1b8ed"/>
            <g id="Group_6860" data-name="Group 6860" clip-path="url(#clip-path-18)">
              <g id="Group_6859" data-name="Group 6859">
                <rect id="Rectangle_733" data-name="Rectangle 733" width="22.678" height="66.389" transform="translate(2048.08 26.112)" fill="#c1b8ed"/>
              </g>
            </g>
          </g>
          <g id="Group_6864" data-name="Group 6864">
            <path id="Path_5700" data-name="Path 5700" d="M2057.251,57.876a1.108,1.108,0,0,1,0-2.215h4.337a1.108,1.108,0,0,1,0,2.215Z" fill="#c1b8ed"/>
            <g id="Group_6863" data-name="Group 6863" clip-path="url(#clip-path-19)">
              <g id="Group_6862" data-name="Group 6862">
                <rect id="Rectangle_734" data-name="Rectangle 734" width="15.161" height="11.147" transform="translate(2051.839 51.195)" fill="#c1b8ed"/>
              </g>
            </g>
          </g>
          <g id="Group_6867" data-name="Group 6867">
            <path id="Path_5702" data-name="Path 5702" d="M2057.251,62.871a1.108,1.108,0,0,1,0-2.216h4.337a1.109,1.109,0,0,1,0,2.216Z" fill="#c1b8ed"/>
            <g id="Group_6866" data-name="Group 6866" clip-path="url(#clip-path-20)">
              <g id="Group_6865" data-name="Group 6865">
                <rect id="Rectangle_735" data-name="Rectangle 735" width="15.161" height="11.147" transform="translate(2051.839 56.19)" fill="#c1b8ed"/>
              </g>
            </g>
          </g>
        </g>
        <g id="Group_6878" data-name="Group 6878">
          <g id="Group_6871" data-name="Group 6871">
            <path id="Path_5704" data-name="Path 5704" d="M1973.628,118.919h-6.659a1.546,1.546,0,0,0-1.522,1.567v49.893a1.545,1.545,0,0,0,1.522,1.567h6.659a1.544,1.544,0,0,0,1.521-1.567V120.486A1.545,1.545,0,0,0,1973.628,118.919Zm0-2.215a3.729,3.729,0,0,1,3.673,3.782v49.893a3.729,3.729,0,0,1-3.673,3.782h-6.659a3.729,3.729,0,0,1-3.673-3.782V120.486a3.729,3.729,0,0,1,3.673-3.782Z" fill="#c1b8ed"/>
            <g id="Group_6870" data-name="Group 6870" clip-path="url(#clip-path-21)">
              <g id="Group_6869" data-name="Group 6869">
                <rect id="Rectangle_736" data-name="Rectangle 736" width="22.678" height="66.389" transform="translate(1958.959 112.238)" fill="#c1b8ed"/>
              </g>
            </g>
          </g>
          <g id="Group_6874" data-name="Group 6874">
            <path id="Path_5706" data-name="Path 5706" d="M1968.13,144a1.108,1.108,0,0,1,0-2.215h4.337a1.108,1.108,0,0,1,0,2.215Z" fill="#c1b8ed"/>
            <g id="Group_6873" data-name="Group 6873" clip-path="url(#clip-path-22)">
              <g id="Group_6872" data-name="Group 6872">
                <rect id="Rectangle_737" data-name="Rectangle 737" width="15.161" height="11.147" transform="translate(1962.718 137.321)" fill="#c1b8ed"/>
              </g>
            </g>
          </g>
          <g id="Group_6877" data-name="Group 6877">
            <path id="Path_5708" data-name="Path 5708" d="M1968.13,149a1.108,1.108,0,0,1,0-2.215h4.337a1.108,1.108,0,0,1,0,2.215Z" fill="#c1b8ed"/>
            <g id="Group_6876" data-name="Group 6876" clip-path="url(#clip-path-23)">
              <g id="Group_6875" data-name="Group 6875">
                <rect id="Rectangle_738" data-name="Rectangle 738" width="15.161" height="11.147" transform="translate(1962.718 142.315)" fill="#c1b8ed"/>
              </g>
            </g>
          </g>
        </g>
        <g id="Group_6888" data-name="Group 6888">
          <g id="Group_6881" data-name="Group 6881">
            <path id="Path_5710" data-name="Path 5710" d="M1991.444,118.919h-6.658a1.545,1.545,0,0,0-1.522,1.567v49.893a1.544,1.544,0,0,0,1.522,1.567h6.658a1.544,1.544,0,0,0,1.522-1.567V120.486A1.545,1.545,0,0,0,1991.444,118.919Zm0-2.215a3.728,3.728,0,0,1,3.673,3.782v49.893a3.728,3.728,0,0,1-3.673,3.782h-6.658a3.728,3.728,0,0,1-3.673-3.782V120.486a3.728,3.728,0,0,1,3.673-3.782Z" fill="#c1b8ed"/>
            <g id="Group_6880" data-name="Group 6880" clip-path="url(#clip-path-24)">
              <g id="Group_6879" data-name="Group 6879">
                <rect id="Rectangle_739" data-name="Rectangle 739" width="22.678" height="66.389" transform="translate(1976.776 112.238)" fill="#c1b8ed"/>
              </g>
            </g>
          </g>
          <g id="Group_6884" data-name="Group 6884">
            <path id="Path_5712" data-name="Path 5712" d="M1985.947,144a1.108,1.108,0,0,1,0-2.215h4.336a1.108,1.108,0,0,1,0,2.215Z" fill="#c1b8ed"/>
            <g id="Group_6883" data-name="Group 6883" clip-path="url(#clip-path-25)">
              <g id="Group_6882" data-name="Group 6882">
                <rect id="Rectangle_740" data-name="Rectangle 740" width="15.161" height="11.147" transform="translate(1980.534 137.321)" fill="#c1b8ed"/>
              </g>
            </g>
          </g>
          <g id="Group_6887" data-name="Group 6887">
            <path id="Path_5714" data-name="Path 5714" d="M1985.947,149a1.108,1.108,0,0,1,0-2.215h4.336a1.108,1.108,0,0,1,0,2.215Z" fill="#c1b8ed"/>
            <g id="Group_6886" data-name="Group 6886" clip-path="url(#clip-path-26)">
              <g id="Group_6885" data-name="Group 6885">
                <rect id="Rectangle_741" data-name="Rectangle 741" width="15.161" height="11.147" transform="translate(1980.534 142.315)" fill="#c1b8ed"/>
              </g>
            </g>
          </g>
        </g>
        <g id="Group_6898" data-name="Group 6898">
          <g id="Group_6891" data-name="Group 6891">
            <path id="Path_5716" data-name="Path 5716" d="M2026.169,118.919h-6.658a1.545,1.545,0,0,0-1.522,1.567v49.893a1.544,1.544,0,0,0,1.522,1.567h6.658a1.544,1.544,0,0,0,1.522-1.567V120.486A1.545,1.545,0,0,0,2026.169,118.919Zm0-2.215a3.728,3.728,0,0,1,3.673,3.782v49.893a3.728,3.728,0,0,1-3.673,3.782h-6.658a3.729,3.729,0,0,1-3.674-3.782V120.486a3.729,3.729,0,0,1,3.674-3.782Z" fill="#c1b8ed"/>
            <g id="Group_6890" data-name="Group 6890" clip-path="url(#clip-path-27)">
              <g id="Group_6889" data-name="Group 6889">
                <rect id="Rectangle_742" data-name="Rectangle 742" width="22.678" height="66.389" transform="translate(2011.501 112.238)" fill="#c1b8ed"/>
              </g>
            </g>
          </g>
          <g id="Group_6894" data-name="Group 6894">
            <path id="Path_5718" data-name="Path 5718" d="M2020.672,144a1.108,1.108,0,0,1,0-2.215h4.336a1.108,1.108,0,0,1,0,2.215Z" fill="#c1b8ed"/>
            <g id="Group_6893" data-name="Group 6893" clip-path="url(#clip-path-28)">
              <g id="Group_6892" data-name="Group 6892">
                <rect id="Rectangle_743" data-name="Rectangle 743" width="15.161" height="11.147" transform="translate(2015.259 137.321)" fill="#c1b8ed"/>
              </g>
            </g>
          </g>
          <g id="Group_6897" data-name="Group 6897">
            <path id="Path_5720" data-name="Path 5720" d="M2020.672,149a1.108,1.108,0,0,1,0-2.215h4.336a1.108,1.108,0,0,1,0,2.215Z" fill="#c1b8ed"/>
            <g id="Group_6896" data-name="Group 6896" clip-path="url(#clip-path-29)">
              <g id="Group_6895" data-name="Group 6895">
                <rect id="Rectangle_744" data-name="Rectangle 744" width="15.161" height="11.147" transform="translate(2015.259 142.315)" fill="#c1b8ed"/>
              </g>
            </g>
          </g>
        </g>
        <g id="Group_6908" data-name="Group 6908">
          <g id="Group_6901" data-name="Group 6901">
            <path id="Path_5722" data-name="Path 5722" d="M2043.986,118.919h-6.659a1.546,1.546,0,0,0-1.522,1.567v49.893a1.545,1.545,0,0,0,1.522,1.567h6.659a1.544,1.544,0,0,0,1.521-1.567V120.486A1.545,1.545,0,0,0,2043.986,118.919Zm0-2.215a3.729,3.729,0,0,1,3.673,3.782v49.893a3.729,3.729,0,0,1-3.673,3.782h-6.659a3.729,3.729,0,0,1-3.673-3.782V120.486a3.729,3.729,0,0,1,3.673-3.782Z" fill="#c1b8ed"/>
            <g id="Group_6900" data-name="Group 6900" clip-path="url(#clip-path-30)">
              <g id="Group_6899" data-name="Group 6899">
                <rect id="Rectangle_745" data-name="Rectangle 745" width="22.678" height="66.389" transform="translate(2029.317 112.238)" fill="#c1b8ed"/>
              </g>
            </g>
          </g>
          <g id="Group_6904" data-name="Group 6904">
            <path id="Path_5724" data-name="Path 5724" d="M2038.488,144a1.108,1.108,0,0,1,0-2.215h4.337a1.108,1.108,0,0,1,0,2.215Z" fill="#c1b8ed"/>
            <g id="Group_6903" data-name="Group 6903" clip-path="url(#clip-path-31)">
              <g id="Group_6902" data-name="Group 6902">
                <rect id="Rectangle_746" data-name="Rectangle 746" width="15.161" height="11.147" transform="translate(2033.076 137.321)" fill="#c1b8ed"/>
              </g>
            </g>
          </g>
          <g id="Group_6907" data-name="Group 6907">
            <path id="Path_5726" data-name="Path 5726" d="M2038.488,149a1.108,1.108,0,0,1,0-2.215h4.337a1.108,1.108,0,0,1,0,2.215Z" fill="#c1b8ed"/>
            <g id="Group_6906" data-name="Group 6906" clip-path="url(#clip-path-32)">
              <g id="Group_6905" data-name="Group 6905">
                <rect id="Rectangle_747" data-name="Rectangle 747" width="15.161" height="11.147" transform="translate(2033.076 142.315)" fill="#c1b8ed"/>
              </g>
            </g>
          </g>
        </g>
        <g id="Group_6918" data-name="Group 6918">
          <g id="Group_6911" data-name="Group 6911">
            <path id="Path_5728" data-name="Path 5728" d="M2062.749,118.919h-6.659a1.546,1.546,0,0,0-1.522,1.567v49.893a1.545,1.545,0,0,0,1.522,1.567h6.659a1.544,1.544,0,0,0,1.521-1.567V120.486A1.545,1.545,0,0,0,2062.749,118.919Zm0-2.215a3.729,3.729,0,0,1,3.673,3.782v49.893a3.729,3.729,0,0,1-3.673,3.782h-6.659a3.729,3.729,0,0,1-3.673-3.782V120.486a3.729,3.729,0,0,1,3.673-3.782Z" fill="#c1b8ed"/>
            <g id="Group_6910" data-name="Group 6910" clip-path="url(#clip-path-33)">
              <g id="Group_6909" data-name="Group 6909">
                <rect id="Rectangle_748" data-name="Rectangle 748" width="22.678" height="66.389" transform="translate(2048.08 112.238)" fill="#c1b8ed"/>
              </g>
            </g>
          </g>
          <g id="Group_6914" data-name="Group 6914">
            <path id="Path_5730" data-name="Path 5730" d="M2057.251,144a1.108,1.108,0,0,1,0-2.215h4.337a1.108,1.108,0,0,1,0,2.215Z" fill="#c1b8ed"/>
            <g id="Group_6913" data-name="Group 6913" clip-path="url(#clip-path-34)">
              <g id="Group_6912" data-name="Group 6912">
                <rect id="Rectangle_749" data-name="Rectangle 749" width="15.161" height="11.147" transform="translate(2051.839 137.321)" fill="#c1b8ed"/>
              </g>
            </g>
          </g>
          <g id="Group_6917" data-name="Group 6917">
            <path id="Path_5732" data-name="Path 5732" d="M2057.251,149a1.108,1.108,0,0,1,0-2.215h4.337a1.108,1.108,0,0,1,0,2.215Z" fill="#c1b8ed"/>
            <g id="Group_6916" data-name="Group 6916" clip-path="url(#clip-path-35)">
              <g id="Group_6915" data-name="Group 6915">
                <rect id="Rectangle_750" data-name="Rectangle 750" width="15.161" height="11.147" transform="translate(2051.839 142.315)" fill="#c1b8ed"/>
              </g>
            </g>
          </g>
        </g>
        <g id="Group_6919" data-name="Group 6919">
          <path id="Path_5734" data-name="Path 5734" d="M2199.775,49.161a26.715,26.715,0,1,1,45.147,19.327h3.44a29.195,29.195,0,1,0-43.743,0h3.439A26.631,26.631,0,0,1,2199.775,49.161Z" fill="#c1b8ed"/>
        </g>
        <g id="Group_6920" data-name="Group 6920">
          <path id="Path_5735" data-name="Path 5735" d="M2193.427,49.161a33.063,33.063,0,1,1,59.882,19.327h3a35.542,35.542,0,1,0-59.643,0h3A32.905,32.905,0,0,1,2193.427,49.161Z" fill="#c1b8ed"/>
        </g>
        <g id="Group_6921" data-name="Group 6921">
          <path id="Path_5736" data-name="Path 5736" d="M2244,49.2h-17.957a1,1,0,0,1-1-1V25.922a1,1,0,1,1,2,0V47.2H2244a1,1,0,0,1,0,2Z" fill="#c1b8ed"/>
        </g>
        <g id="Group_6922" data-name="Group 6922">
          <path id="Path_5737" data-name="Path 5737" d="M2375.685,233.43H1964.662a1,1,0,0,1,0-2h411.023a1,1,0,0,1,0,2Z" fill="#c1b8ed"/>
        </g>
        <g id="Group_6923" data-name="Group 6923">
          <path id="Path_5738" data-name="Path 5738" d="M2150.222,182.219h-185.56a1,1,0,0,1,0-2h185.56a1,1,0,0,1,0,2Z" fill="#c1b8ed"/>
        </g>
        <g id="Group_6924" data-name="Group 6924">
          <path id="Path_5739" data-name="Path 5739" d="M2375.685,182.219H2189.794a1,1,0,0,1,0-2h185.891a1,1,0,0,1,0,2Z" fill="#c1b8ed"/>
        </g>
        <g id="Group_6925" data-name="Group 6925">
          <path id="Path_5740" data-name="Path 5740" d="M1999.914,175.125a1,1,0,0,1-1-1V13.4a1,1,0,1,1,2,0V174.125A1,1,0,0,1,1999.914,175.125Z" fill="#c1b8ed"/>
        </g>
        <g id="Group_6926" data-name="Group 6926">
          <path id="Path_5741" data-name="Path 5741" d="M2010.776,175.125a1,1,0,0,1-1-1V13.4a1,1,0,1,1,2,0V174.125A1,1,0,0,1,2010.776,175.125Z" fill="#c1b8ed"/>
        </g>
        <g id="Group_6927" data-name="Group 6927">
          <path id="Path_5742" data-name="Path 5742" d="M2138.694,71.15a1,1,0,0,1-1-1V13.4a1,1,0,1,1,2,0V70.15A1,1,0,0,1,2138.694,71.15Z" fill="#c1b8ed"/>
        </g>
        <g id="Group_6928" data-name="Group 6928">
          <path id="Path_5743" data-name="Path 5743" d="M2149.557,71.15a1,1,0,0,1-1-1V13.4a1,1,0,1,1,2,0V70.15A1,1,0,0,1,2149.557,71.15Z" fill="#c1b8ed"/>
        </g>
        <g id="Group_6929" data-name="Group 6929">
          <path id="Path_5744" data-name="Path 5744" d="M2138.694,175.125a1,1,0,0,1-1-1V91.655a1,1,0,0,1,2,0v82.47A1,1,0,0,1,2138.694,175.125Z" fill="#c1b8ed"/>
        </g>
        <g id="Group_6930" data-name="Group 6930">
          <path id="Path_5745" data-name="Path 5745" d="M2149.557,175.125a1,1,0,0,1-1-1V91.655a1,1,0,0,1,2,0v82.47A1,1,0,0,1,2149.557,175.125Z" fill="#c1b8ed"/>
        </g>
        <g id="Group_6931" data-name="Group 6931">
          <path id="Path_5746" data-name="Path 5746" d="M1995.257,104.072h-30.593a1,1,0,0,1,0-2h30.593a1,1,0,0,1,0,2Z" fill="#c1b8ed"/>
        </g>
        <g id="Group_6932" data-name="Group 6932">
          <path id="Path_5747" data-name="Path 5747" d="M1995.257,93.209h-30.593a1,1,0,0,1,0-2h30.593a1,1,0,0,1,0,2Z" fill="#c1b8ed"/>
        </g>
        <g id="Group_6933" data-name="Group 6933">
          <path id="Path_5748" data-name="Path 5748" d="M2089.478,104.072h-74.046a1,1,0,0,1,0-2h74.046a1,1,0,0,1,0,2Z" fill="#c1b8ed"/>
        </g>
        <g id="Group_6934" data-name="Group 6934">
          <path id="Path_5749" data-name="Path 5749" d="M2093.468,93.209h-78.036a1,1,0,0,1,0-2h78.036a1,1,0,0,1,0,2Z" fill="#c1b8ed"/>
        </g>
        <g id="Group_6935" data-name="Group 6935">
          <path id="Path_5750" data-name="Path 5750" d="M2133.927,104.072h-21.172a1,1,0,0,1,0-2h21.172a1,1,0,0,1,0,2Z" fill="#c1b8ed"/>
        </g>
        <g id="Group_6936" data-name="Group 6936">
          <path id="Path_5751" data-name="Path 5751" d="M2133.927,93.209h-24.94a1,1,0,0,1,0-2h24.94a1,1,0,0,1,0,2Z" fill="#c1b8ed"/>
        </g>
        <g id="Group_6937" data-name="Group 6937">
          <path id="Path_5752" data-name="Path 5752" d="M2072.385,70.022V34.36a1.545,1.545,0,0,1,1.522-1.567h6.658a1.545,1.545,0,0,1,1.522,1.567V70.022h2.151V34.36a3.728,3.728,0,0,0-3.673-3.782h-6.658a3.729,3.729,0,0,0-3.674,3.782V84.254a3.787,3.787,0,0,0,1.842,3.26l.443-.071Z" fill="#c1b8ed"/>
        </g>
        <g id="Group_6938" data-name="Group 6938">
          <path id="Path_5753" data-name="Path 5753" d="M2075.068,57.876h4.336a1.108,1.108,0,0,0,0-2.215h-4.336a1.108,1.108,0,0,0,0,2.215Z" fill="#c1b8ed"/>
        </g>
        <g id="Group_6939" data-name="Group 6939">
          <path id="Path_5754" data-name="Path 5754" d="M2075.068,62.871h4.336a1.108,1.108,0,0,0,0-2.216h-4.336a1.108,1.108,0,0,0,0,2.216Z" fill="#c1b8ed"/>
        </g>
        <g id="Group_6940" data-name="Group 6940">
          <path id="Path_5755" data-name="Path 5755" d="M2090.009,70.022V34.36a1.546,1.546,0,0,1,1.522-1.567h6.659a1.545,1.545,0,0,1,1.521,1.567V70.022h2.152V34.36a3.729,3.729,0,0,0-3.673-3.782h-6.659a3.729,3.729,0,0,0-3.673,3.782V70.022Z" fill="#c1b8ed"/>
        </g>
        <g id="Group_6941" data-name="Group 6941">
          <path id="Path_5756" data-name="Path 5756" d="M2092.692,57.876h4.337a1.108,1.108,0,0,0,0-2.215h-4.337a1.108,1.108,0,0,0,0,2.215Z" fill="#c1b8ed"/>
        </g>
        <g id="Group_6942" data-name="Group 6942">
          <path id="Path_5757" data-name="Path 5757" d="M2092.692,62.871h4.337a1.108,1.108,0,0,0,0-2.216h-4.337a1.109,1.109,0,0,0,0,2.216Z" fill="#c1b8ed"/>
        </g>
        <g id="Group_6943" data-name="Group 6943">
          <path id="Path_5758" data-name="Path 5758" d="M2108.715,37a1.546,1.546,0,0,1,.976-1.955l6.346-2.015a1.545,1.545,0,0,1,1.925,1.032l11.422,35.96h2.257l-11.629-36.611a3.729,3.729,0,0,0-4.646-2.493l-6.345,2.016a3.728,3.728,0,0,0-2.356,4.717l10.282,32.371h2.257Z" fill="#c1b8ed"/>
        </g>
        <g id="Group_6944" data-name="Group 6944">
          <path id="Path_5759" data-name="Path 5759" d="M2118.391,58.6l4.133-1.313a1.108,1.108,0,0,0-.67-2.111l-4.134,1.313a1.108,1.108,0,0,0,.671,2.111Z" fill="#c1b8ed"/>
        </g>
        <g id="Group_6945" data-name="Group 6945">
          <path id="Path_5760" data-name="Path 5760" d="M2119.9,63.36l4.133-1.313a1.108,1.108,0,0,0-.67-2.111l-4.134,1.313a1.108,1.108,0,0,0,.671,2.111Z" fill="#c1b8ed"/>
        </g>
      </g>
    </g>
    <g id="Fill">
      <g id="Group_6948" data-name="Group 6948">
        <path id="Path_5761" data-name="Path 5761" d="M2086.54,124.687v19.121s2.328,5.82,2.494,6.817,5.487,3.658,5.487,3.658l2.993,1.829s16.793,2.827,23.777-1c-4.656,3.99-5.653,4.655-5.653,4.655s-25.44,11.639-38.409-10.641a147.224,147.224,0,0,1,1.33-24.608Z" fill="#745fd7"/>
        <path id="Path_5762" data-name="Path 5762" d="M2222.381,124.687v19.121s2.328,5.82,2.494,6.817,5.487,3.658,5.487,3.658l2.993,1.829s16.793,2.827,23.776-1c-4.655,3.99-5.653,4.655-5.653,4.655s-25.439,11.639-38.408-10.641a147.114,147.114,0,0,1,1.33-24.608Z" fill="#745fd7"/>
        <path id="Path_5763" data-name="Path 5763" d="M2107.878,205.162s-.665,5.1,3.326,5.542,115.946,0,115.946,0,9.335.384,5.1-6.207c-3.991-6.207-17.071-12.415-17.071-12.415l9.755,9.311,3.325,3.547s-1.552,2.217-2.217,2.217-98.21-.443-98.21-.443Z" fill="#745fd7"/>
        <g id="Group_6947" data-name="Group 6947">
          <path id="Path_5764" data-name="Path 5764" d="M2169.066,66.667v-26s1.108-.222-2.882.222-5.764,6.429-5.764,6.429.033,9.276.049,22.9A14.3,14.3,0,0,1,2169.066,66.667Z" fill="#745fd7"/>
          <path id="Path_5765" data-name="Path 5765" d="M2177.269,92.542l-8.2,2.79-8.589-3.539c-.022,36.7-.234,83.351-1.166,87.209-1.551,6.429-10.863,12.858-10.863,12.858l20.618.222V101.789a13.464,13.464,0,0,0,8.2-2.375A66.826,66.826,0,0,1,2177.269,92.542Z" fill="#745fd7"/>
        </g>
      </g>
    </g>
    <g id="Outlines">
      <g id="Group_6983" data-name="Group 6983">
        <g id="Group_6951" data-name="Group 6951">
          <g id="Group_6950" data-name="Group 6950">
            <g id="Group_6949" data-name="Group 6949">
              <path id="Path_5766" data-name="Path 5766" d="M2081.99,86.973a6,6,0,0,1-3.942-1.39,6.464,6.464,0,0,1-1.986-5.124,6.8,6.8,0,0,1,1.96-5.2,6.408,6.408,0,0,1,4.487-1.62h66.05a1.5,1.5,0,0,1,0,3h-66.09c-.034,0-.067,0-.1,0h0a3.53,3.53,0,0,0-2.316.832,3.989,3.989,0,0,0-.99,2.992,3.662,3.662,0,0,0,.96,2.865,3.243,3.243,0,0,0,2.246.637,1.5,1.5,0,0,1,.2-.014h66.09a1.5,1.5,0,0,1,0,3h-66.007C2082.431,86.959,2082.237,86.973,2081.99,86.973Z" fill="#333"/>
            </g>
          </g>
        </g>
        <g id="Group_6958" data-name="Group 6958">
          <g id="Group_6953" data-name="Group 6953">
            <g id="Group_6952" data-name="Group 6952">
              <path id="Path_5767" data-name="Path 5767" d="M2115.638,120.424a1.5,1.5,0,0,1-1.319-.785L2101.63,96.275l-13.514,23.4a1.5,1.5,0,1,1-2.6-1.5l14.854-25.717a1.466,1.466,0,0,1,1.318-.75,1.5,1.5,0,0,1,1.3.785l13.967,25.716a1.5,1.5,0,0,1-1.318,2.217Z" fill="#333"/>
            </g>
          </g>
          <g id="Group_6955" data-name="Group 6955">
            <g id="Group_6954" data-name="Group 6954">
              <path id="Path_5768" data-name="Path 5768" d="M2101.617,164.54c-14.061,0-25.5-8.349-25.5-18.613,0-.421.025-.837.063-1.251V124.687a1.5,1.5,0,0,1,1.5-1.5h48a1.5,1.5,0,0,1,1.5,1.5v20.756a1.5,1.5,0,0,1-.063.433v.051C2127.117,156.191,2115.677,164.54,2101.617,164.54Zm-22.437-38.353v18.56a1.363,1.363,0,0,1-.007.141c-.032.344-.056.69-.056,1.039,0,8.61,10.093,15.613,22.5,15.613s22.5-7,22.5-15.613c0-.089,0-.177-.009-.264l-.007-.165a1.5,1.5,0,0,1,.079-.539V126.187Z" fill="#333"/>
            </g>
          </g>
          <g id="Group_6957" data-name="Group 6957">
            <g id="Group_6956" data-name="Group 6956">
              <path id="Path_5769" data-name="Path 5769" d="M2101.629,157.224c-9.011,0-16.343-5.421-16.343-12.084,0-.269.014-.536.039-.8V132a1.5,1.5,0,0,1,3,0V144.41c0,.048,0,.1-.007.145-.019.193-.032.388-.032.585,0,5.009,5.986,9.084,13.343,9.084a1.5,1.5,0,0,1,0,3Z" fill="#333"/>
            </g>
          </g>
        </g>
        <g id="Group_6961" data-name="Group 6961">
          <g id="Group_6960" data-name="Group 6960">
            <g id="Group_6959" data-name="Group 6959">
              <path id="Path_5770" data-name="Path 5770" d="M2257.92,86.973a6,6,0,0,0,3.941-1.39,6.462,6.462,0,0,0,1.987-5.124,6.8,6.8,0,0,0-1.96-5.2,6.409,6.409,0,0,0-4.487-1.62h-66.05a1.5,1.5,0,0,0,0,3h66.09c.034,0,.067,0,.1,0h0a3.528,3.528,0,0,1,2.316.832,3.989,3.989,0,0,1,.99,2.992,3.662,3.662,0,0,1-.96,2.865,3.244,3.244,0,0,1-2.246.637,1.512,1.512,0,0,0-.2-.014h-66.09a1.5,1.5,0,0,0,0,3h66.007C2257.479,86.959,2257.673,86.973,2257.92,86.973Z" fill="#333"/>
            </g>
          </g>
        </g>
        <g id="Group_6968" data-name="Group 6968">
          <g id="Group_6963" data-name="Group 6963">
            <g id="Group_6962" data-name="Group 6962">
              <path id="Path_5771" data-name="Path 5771" d="M2251.428,120.424a1.5,1.5,0,0,1-1.319-.785L2237.42,96.275l-13.514,23.4a1.5,1.5,0,1,1-2.6-1.5l14.854-25.717a1.5,1.5,0,0,1,1.3-.75h.02a1.5,1.5,0,0,1,1.3.785l13.967,25.716a1.5,1.5,0,0,1-1.318,2.217Z" fill="#333"/>
            </g>
          </g>
          <g id="Group_6965" data-name="Group 6965">
            <g id="Group_6964" data-name="Group 6964">
              <path id="Path_5772" data-name="Path 5772" d="M2237.407,164.54c-14.061,0-25.5-8.349-25.5-18.613,0-.421.025-.837.063-1.251V124.687a1.5,1.5,0,0,1,1.5-1.5h48a1.5,1.5,0,0,1,1.5,1.5v20.756a1.5,1.5,0,0,1-.063.433v.051C2262.907,156.191,2251.467,164.54,2237.407,164.54Zm-22.437-38.353v18.56a1.3,1.3,0,0,1-.007.141c-.032.344-.056.69-.056,1.039,0,8.61,10.094,15.613,22.5,15.613s22.5-7,22.5-15.613c0-.089,0-.177-.009-.264l-.007-.165a1.5,1.5,0,0,1,.079-.539V126.187Z" fill="#333"/>
            </g>
          </g>
          <g id="Group_6967" data-name="Group 6967">
            <g id="Group_6966" data-name="Group 6966">
              <path id="Path_5773" data-name="Path 5773" d="M2237.419,157.224c-9.011,0-16.343-5.421-16.343-12.084,0-.269.014-.536.039-.8V132a1.5,1.5,0,0,1,3,0V144.41a1.386,1.386,0,0,1-.007.145c-.019.193-.032.388-.032.585,0,5.009,5.986,9.084,13.343,9.084a1.5,1.5,0,0,1,0,3Z" fill="#333"/>
            </g>
          </g>
        </g>
        <g id="Group_6980" data-name="Group 6980">
          <g id="Group_6970" data-name="Group 6970">
            <g id="Group_6969" data-name="Group 6969">
              <path id="Path_5774" data-name="Path 5774" d="M2170.006,96.605a15.5,15.5,0,1,1,15.5-15.5A15.517,15.517,0,0,1,2170.006,96.605Zm0-28a12.5,12.5,0,1,0,12.5,12.5A12.515,12.515,0,0,0,2170.006,68.605Z" fill="#333"/>
            </g>
          </g>
          <g id="Group_6972" data-name="Group 6972">
            <g id="Group_6971" data-name="Group 6971">
              <path id="Path_5775" data-name="Path 5775" d="M2170.006,89.5a8.393,8.393,0,1,1,0-16.786,1.5,1.5,0,0,1,0,3,5.393,5.393,0,1,0,0,10.786,1.5,1.5,0,0,1,0,3Z" fill="#333"/>
            </g>
          </g>
          <g id="Group_6979" data-name="Group 6979">
            <g id="Group_6974" data-name="Group 6974">
              <g id="Group_6973" data-name="Group 6973">
                <path id="Path_5776" data-name="Path 5776" d="M2177.712,63.669a1.5,1.5,0,0,1-1.5-1.5V47.211a7.785,7.785,0,0,0-7.368-4.824,6.992,6.992,0,0,0-6.925,4.771V61.752a1.5,1.5,0,0,1-3,0V46.938a1.513,1.513,0,0,1,.047-.373,9.981,9.981,0,0,1,9.878-7.178,10.814,10.814,0,0,1,10.293,7.081,1.5,1.5,0,0,1,.075.47V62.169A1.5,1.5,0,0,1,2177.712,63.669Z" fill="#333"/>
              </g>
            </g>
            <g id="Group_6976" data-name="Group 6976">
              <g id="Group_6975" data-name="Group 6975">
                <path id="Path_5777" data-name="Path 5777" d="M2156.652,186.266a1.5,1.5,0,0,1-.851-2.736c3.246-2.232,3.34-7.483,3.34-8.074V98.749a1.5,1.5,0,0,1,3,0v76.707c0,1.228-.223,7.509-4.64,10.546A1.5,1.5,0,0,1,2156.652,186.266Z" fill="#333"/>
              </g>
            </g>
            <g id="Group_6978" data-name="Group 6978">
              <g id="Group_6977" data-name="Group 6977">
                <path id="Path_5778" data-name="Path 5778" d="M2181.265,186.266a1.486,1.486,0,0,1-.848-.264c-4.417-3.037-4.641-9.318-4.641-10.546V98.749a1.5,1.5,0,0,1,3,0v76.707c0,.591.094,5.842,3.34,8.074a1.5,1.5,0,0,1-.851,2.736Z" fill="#333"/>
              </g>
            </g>
          </g>
        </g>
        <g id="Group_6982" data-name="Group 6982">
          <g id="Group_6981" data-name="Group 6981">
            <path id="Path_5779" data-name="Path 5779" d="M2227.033,207.993H2110.209a2.643,2.643,0,0,1-1.767-.582,2.269,2.269,0,0,1-.776-1.765c0-3.911,11.16-14.842,16.288-14.842h89.334c3.351,0,8.142,4.147,10.046,5.93,1.465,1.37,6.242,6.063,6.242,8.912a2.27,2.27,0,0,1-.777,1.765A2.642,2.642,0,0,1,2227.033,207.993Zm-.457-2.344h0Zm-115.681-.66,115.481,0c-1.4-3-9.814-11.189-13.088-11.189h-89.334c-1.207,0-4.2,1.583-7.933,5.06A25.059,25.059,0,0,0,2110.9,204.989Z" fill="#333"/>
          </g>
        </g>
      </g>
    </g>
  </g>
</svg>
