<svg xmlns="http://www.w3.org/2000/svg" width="400" height="211.042" viewBox="0 0 400 211.042">
  <g data-name="Group 6101" transform="translate(0 -9)">
    <g data-name="Group 6100" transform="translate(-10.89 -8.351)">
      <g transform="translate(10.89 27.271)">
        <g data-name="Group 6035">
          <g data-name="Group 6005" transform="translate(0 153.174)">
            <g data-name="Group 6003" transform="translate(0 18.179)">
              <path data-name="Path 6468" d="M177.163,208.956H11.89a1,1,0,0,1,0-2H177.163a1,1,0,0,1,0,2Z" transform="translate(-10.89 -206.956)" fill="#ffb7a7"></path>
            </g>
            <g data-name="Group 6004">
              <path data-name="Path 6469" d="M184.922,190.777H11.89a1,1,0,0,1,0-2H184.922a1,1,0,0,1,0,2Z" transform="translate(-10.89 -188.777)" fill="#ffb7a7"></path>
            </g>
          </g>
          <g data-name="Group 6006" transform="translate(2.661 57.238)">
            <path data-name="Path 6470" d="M177.273,169.938a7.416,7.416,0,0,1-4.7-2.067l-77.77-68.9a29.923,29.923,0,0,0-17.355-7.288c-12.074-.727-20.341,8.28-20.423,8.371L15.239,139.734a1,1,0,1,1-1.377-1.451L55.6,98.656c.3-.343,8.9-9.77,21.976-8.974A31.392,31.392,0,0,1,96.164,97.5l77.782,68.917a5.482,5.482,0,0,0,3.327,1.522,1,1,0,0,1,0,2Z" transform="translate(-13.551 -89.634)" fill="#ffb7a7"></path>
          </g>
          <g data-name="Group 6007" transform="translate(30.593 80.641)">
            <path data-name="Path 6471" d="M50.3,123.177a3.376,3.376,0,0,1-.4-.024c-4.137-.486-8.048-5.489-8.212-5.7a1,1,0,0,1,1.582-1.223c.036.045,3.562,4.55,6.865,4.939,1.354.17,3.265-1.951,4.942-3.814,2.141-2.379,4.354-4.839,6.912-4.839,2.43,0,4.691,1.986,7.084,4.09,2.178,1.913,4.43,3.891,6.44,3.891,1.817,0,3.71-1.849,5.713-3.807,2.456-2.4,4.975-4.892,8.119-4.613,3.1.269,5.668,2.953,7.932,5.321,1.6,1.669,3.2,3.384,4.328,3.323,2.89-.193,6.179-3.643,6.212-3.678a1,1,0,0,1,1.456,1.371c-.156.166-3.859,4.058-7.535,4.3-2.011.141-3.817-1.752-5.906-3.936-2.021-2.112-4.31-4.507-6.661-4.711-2.216-.2-4.412,1.965-6.546,4.051-2.2,2.152-4.48,4.377-7.112,4.377-2.764,0-5.3-2.231-7.759-4.389-2.01-1.766-4.088-3.592-5.765-3.592s-3.664,2.219-5.426,4.176C54.495,120.994,52.53,123.177,50.3,123.177Z" transform="translate(-41.483 -112.054)" fill="#ffb7a7"></path>
          </g>
          <g data-name="Group 6008" transform="translate(53.088)">
            <path data-name="Path 6472" d="M98.9,51.662H73.07a9.092,9.092,0,0,1,0-18.184h6.946a9.192,9.192,0,0,1,17.387,0h1.5a9.092,9.092,0,1,1,0,18.184ZM73.07,35.478a7.092,7.092,0,1,0,0,14.184H98.9a7.092,7.092,0,1,0,0-14.184H96.657a1,1,0,0,1-.97-.757,7.192,7.192,0,0,0-13.956,0,1,1,0,0,1-.969.757Z" transform="translate(-63.978 -27.271)" fill="#ffb7a7"></path>
          </g>
          <g data-name="Group 6009" transform="translate(2.218 64.75)">
            <path data-name="Path 6473" d="M38.716,109.859a1,1,0,0,1-.854-.478C29.872,96.342,14.342,97.43,14.188,97.44a.987.987,0,0,1-1.077-.915,1,1,0,0,1,.914-1.078c.17-.015,16.9-1.218,25.542,12.889a1,1,0,0,1-.33,1.375A.987.987,0,0,1,38.716,109.859Z" transform="translate(-13.108 -95.416)" fill="#ffb7a7"></path>
          </g>
          <g data-name="Group 6010" transform="translate(102.644 65.371)">
            <path data-name="Path 6474" d="M114.534,110.967a1,1,0,0,1-.755-1.655c.492-.566,12.154-13.831,21.813-13.206,8.841-.629,17.075,9.917,17.423,10.369a1,1,0,0,1-1.584,1.221c-.079-.1-8.021-10.229-15.756-9.59a.952.952,0,0,1-.151,0c-8.761-.625-20.121,12.386-20.235,12.517A1,1,0,0,1,114.534,110.967Z" transform="translate(-113.534 -96.079)" fill="#ffb7a7"></path>
          </g>
          <g data-name="Group 6018" transform="translate(17.708 92.734)">
            <g data-name="Group 6014">
              <g data-name="Group 6011" transform="translate(5.487)">
                <path data-name="Path 6475" d="M53.2,150.263H38.085a4,4,0,0,1-4-4v-.818c0-1.709,6.786-11.2,10.832-16.7a1,1,0,0,1,.806-.407.969.969,0,0,1,.81.414c3.984,5.505,10.668,14.993,10.668,16.691v.818A4,4,0,0,1,53.2,150.263Zm-7.484-19.222c-4.688,6.429-9.4,13.345-9.638,14.482l.006.74a2,2,0,0,0,2,2H53.2a2,2,0,0,0,2-2v-.818C54.976,144.387,50.335,137.475,45.717,131.041Z" transform="translate(-34.085 -128.337)" fill="#ffb7a7"></path>
              </g>
              <g data-name="Group 6012" transform="translate(2.744 23.194)">
                <path data-name="Path 6476" d="M55.165,163.065H36.121c-2.636,0-4.779-1.794-4.779-4v-.817c0-1.157,2.045-4.418,3.52-6.327a1,1,0,1,1,1.582,1.223,21.066,21.066,0,0,0-3.107,5.173l0,.748c0,1.084,1.272,2,2.779,2H55.165c1.507,0,2.779-.916,2.779-2v-.749a33.262,33.262,0,0,0-3.165-5.22,1,1,0,0,1,1.653-1.127c3.512,5.153,3.512,5.971,3.512,6.279v.817C59.944,161.271,57.8,163.065,55.165,163.065Zm2.788-4.715Z" transform="translate(-31.342 -151.532)" fill="#ffb7a7"></path>
              </g>
              <g data-name="Group 6013" transform="translate(0 36.053)">
                <path data-name="Path 6477" d="M57.129,176.034H34.157c-3.117,0-5.559-1.757-5.559-4v-.817c0-.692.523-1.823,3.383-6.091a1,1,0,0,1,1.662,1.113c-2.4,3.575-2.982,4.722-3.051,5.054l.006.741c0,.946,1.462,2,3.559,2H57.129c2.1,0,3.559-1.054,3.559-2v-.743a49.914,49.914,0,0,0-3.324-5.346,1,1,0,0,1,1.664-1.109c2.88,4.32,3.66,5.6,3.66,6.381v.817C62.688,174.277,60.246,176.034,57.129,176.034Z" transform="translate(-28.598 -164.39)" fill="#ffb7a7"></path>
              </g>
            </g>
            <g data-name="Group 6017" transform="translate(13.052 48.136)">
              <g data-name="Group 6015">
                <path data-name="Path 6478" d="M42.65,184.459a1,1,0,0,1-1-1v-5.986a1,1,0,0,1,2,0v5.986A1,1,0,0,1,42.65,184.459Z" transform="translate(-41.65 -176.473)" fill="#ffb7a7"></path>
              </g>
              <g data-name="Group 6016" transform="translate(5.986)">
                <path data-name="Path 6479" d="M48.636,184.459a1,1,0,0,1-1-1v-5.986a1,1,0,0,1,2,0v5.986A1,1,0,0,1,48.636,184.459Z" transform="translate(-47.636 -176.473)" fill="#ffb7a7"></path>
              </g>
            </g>
          </g>
          <g data-name="Group 6026" transform="translate(58.058 97.083)">
            <g data-name="Group 6022">
              <g data-name="Group 6019" transform="translate(5.047)">
                <path data-name="Path 6480" d="M91.656,152.665h-13.9A3.738,3.738,0,0,1,74,148.958v-.737c0-1.495,5.429-9.056,9.982-15.135a1,1,0,0,1,.8-.4,1.12,1.12,0,0,1,.805.406c4.485,6.081,9.832,13.642,9.832,15.129v.737A3.738,3.738,0,0,1,91.656,152.665Zm-6.884-17.3c-4.261,5.739-8.541,11.9-8.785,12.95l.008.642a1.736,1.736,0,0,0,1.759,1.707h13.9a1.736,1.736,0,0,0,1.759-1.707v-.737C93.184,147.265,88.971,141.109,84.772,135.366Z" transform="translate(-73.995 -132.686)" fill="#ffb7a7"></path>
              </g>
              <g data-name="Group 6020" transform="translate(2.524 20.93)">
                <path data-name="Path 6481" d="M93.463,164.22H75.947c-2.468,0-4.475-1.663-4.475-3.708v-.738c0-1.116,1.945-4.107,3.26-5.777a1,1,0,0,1,1.571,1.238,19.224,19.224,0,0,0-2.838,4.624l.007.653c0,.926,1.133,1.708,2.475,1.708H93.463c1.342,0,2.475-.782,2.475-1.708v-.658a30.934,30.934,0,0,0-2.892-4.667,1,1,0,1,1,1.642-1.141c3.25,4.678,3.25,5.414,3.25,5.728v.738C97.938,162.557,95.931,164.22,93.463,164.22Zm2.487-4.326Z" transform="translate(-71.472 -153.616)" fill="#ffb7a7"></path>
              </g>
              <g data-name="Group 6021" transform="translate(0 32.534)">
                <path data-name="Path 6482" d="M95.268,175.924H74.142c-2.913,0-5.194-1.629-5.194-3.708v-.737c0-.661.469-1.662,3.131-5.559a1,1,0,1,1,1.652,1.129c-2.177,3.186-2.719,4.219-2.791,4.522l.008.645c0,.806,1.365,1.708,3.194,1.708H95.268c1.829,0,3.194-.9,3.194-1.708v-.651a47.856,47.856,0,0,0-3.039-4.782,1,1,0,0,1,1.654-1.125c2.663,3.918,3.385,5.084,3.385,5.821v.737C100.462,174.295,98.181,175.924,95.268,175.924Z" transform="translate(-68.948 -165.22)" fill="#ffb7a7"></path>
              </g>
            </g>
            <g data-name="Group 6025" transform="translate(12.004 44.268)">
              <g data-name="Group 6023">
                <path data-name="Path 6483" d="M81.952,184.459a1,1,0,0,1-1-1v-5.505a1,1,0,1,1,2,0v5.505A1,1,0,0,1,81.952,184.459Z" transform="translate(-80.952 -176.954)" fill="#ffb7a7"></path>
              </g>
              <g data-name="Group 6024" transform="translate(5.506)">
                <path data-name="Path 6484" d="M87.458,184.459a1,1,0,0,1-1-1v-5.505a1,1,0,1,1,2,0v5.505A1,1,0,0,1,87.458,184.459Z" transform="translate(-86.458 -176.954)" fill="#ffb7a7"></path>
              </g>
            </g>
          </g>
          <g data-name="Group 6034" transform="translate(95.527 101.386)">
            <g data-name="Group 6030">
              <g data-name="Group 6027" transform="translate(4.61)">
                <path data-name="Path 6485" d="M127.248,155.044h-12.7a3.474,3.474,0,0,1-3.521-3.417v-.658c0-1.1,3.076-5.672,9.144-13.588a.948.948,0,0,1,.8-.392,1,1,0,0,1,.794.4c5.975,7.919,9.005,12.489,9.005,13.582v.658A3.474,3.474,0,0,1,127.248,155.044Zm-14.221-4v.581a1.473,1.473,0,0,0,1.521,1.417h12.7a1.473,1.473,0,0,0,1.52-1.417v-.583c-.328-1.051-4.073-6.4-7.809-11.4C117.167,144.642,113.364,149.988,113.027,151.046Zm-.011.039Zm15.763,0Z" transform="translate(-111.027 -136.989)" fill="#ffb7a7"></path>
              </g>
              <g data-name="Group 6028" transform="translate(2.306 18.69)">
                <path data-name="Path 6486" d="M128.9,165.361h-16c-2.3,0-4.174-1.533-4.174-3.417v-.659c0-1.028,1.792-3.73,3-5.233a1,1,0,1,1,1.556,1.256,17.879,17.879,0,0,0-2.56,4.046v.59c0,.755,1.016,1.417,2.174,1.417h16c1.159,0,2.175-.662,2.175-1.417v-.564a28.846,28.846,0,0,0-2.62-4.12,1,1,0,1,1,1.629-1.159c2.991,4.2,2.991,4.866,2.991,5.184v.659C133.073,163.828,131.2,165.361,128.9,165.361Zm2.19-3.936Z" transform="translate(-108.723 -155.679)" fill="#ffb7a7"></path>
              </g>
              <g data-name="Group 6029" transform="translate(0 29.288)">
                <path data-name="Path 6487" d="M130.548,175.813h-19.3c-2.709,0-4.831-1.5-4.831-3.417v-.66c0-.628.416-1.5,2.882-5.032a1,1,0,1,1,1.638,1.145,25.51,25.51,0,0,0-2.52,3.964v.583c0,.578,1.1,1.417,2.831,1.417h19.3c1.728,0,2.831-.839,2.831-1.417v-.558a44.4,44.4,0,0,0-2.748-4.217l1.636-1.15c2.488,3.583,3.112,4.574,3.112,5.265v.66C135.379,174.312,133.257,175.813,130.548,175.813Zm2.848-3.924Zm-24.99-.038Z" transform="translate(-106.417 -166.276)" fill="#ffb7a7"></path>
              </g>
            </g>
            <g data-name="Group 6033" transform="translate(10.967 40.441)">
              <g data-name="Group 6031">
                <path data-name="Path 6488" d="M118.384,184.459a1,1,0,0,1-1-1V178.43a1,1,0,0,1,2,0v5.029A1,1,0,0,1,118.384,184.459Z" transform="translate(-117.384 -177.43)" fill="#ffb7a7"></path>
              </g>
              <g data-name="Group 6032" transform="translate(5.028)">
                <path data-name="Path 6489" d="M123.412,184.459a1,1,0,0,1-1-1V178.43a1,1,0,0,1,2,0v5.029A1,1,0,0,1,123.412,184.459Z" transform="translate(-122.412 -177.43)" fill="#ffb7a7"></path>
              </g>
            </g>
          </g>
        </g>
        <g data-name="Group 6068" transform="translate(224.967)">
          <g data-name="Group 6038" transform="translate(0 153.174)">
            <g data-name="Group 6036" transform="translate(7.76 18.179)">
              <path data-name="Path 6490" d="M425.682,208.956H260.409a1,1,0,0,1,0-2H425.682a1,1,0,0,1,0,2Z" transform="translate(-259.409 -206.956)" fill="#ffb7a7"></path>
            </g>
            <g data-name="Group 6037">
              <path data-name="Path 6491" d="M425.682,190.777H252.649a1,1,0,0,1,0-2H425.682a1,1,0,0,1,0,2Z" transform="translate(-251.649 -188.777)" fill="#ffb7a7"></path>
            </g>
          </g>
          <g data-name="Group 6039" transform="translate(7.649 57.238)">
            <path data-name="Path 6492" d="M260.3,169.938a1,1,0,0,1,0-2,5.461,5.461,0,0,0,3.284-1.481L341.44,97.469A31.384,31.384,0,0,1,360,89.682c13.106-.795,21.675,8.631,22.033,9.032l41.677,39.569a1,1,0,1,1-1.377,1.451L380.6,100.106c-.139-.148-8.393-9.166-20.479-8.428A29.91,29.91,0,0,0,342.8,98.937l-77.846,68.975A7.378,7.378,0,0,1,260.3,169.938Z" transform="translate(-259.298 -89.634)" fill="#ffb7a7"></path>
          </g>
          <g data-name="Group 6040" transform="translate(76.375 80.641)">
            <path data-name="Path 6493" d="M387.269,123.177c-2.227,0-4.192-2.183-6.265-4.487-1.762-1.958-3.759-4.176-5.425-4.176s-3.755,1.826-5.765,3.592c-2.456,2.158-5,4.389-7.758,4.389-2.633,0-4.911-2.225-7.113-4.377-2.133-2.086-4.345-4.246-6.546-4.051-2.351.2-4.64,2.6-6.661,4.71-2.089,2.185-3.914,4.078-5.907,3.937-3.676-.244-7.378-4.136-7.534-4.3a1,1,0,0,1,1.456-1.371c.033.035,3.322,3.485,6.211,3.678,1.059.057,2.732-1.654,4.329-3.324,2.265-2.367,4.831-5.051,7.933-5.32,3.131-.279,5.661,2.212,8.118,4.613,2,1.958,3.9,3.807,5.714,3.807,2.008,0,4.26-1.978,6.438-3.891,2.394-2.1,4.655-4.09,7.085-4.09,2.557,0,4.771,2.46,6.911,4.838,1.678,1.864,3.589,3.987,4.944,3.815,2.749-.323,5.886-3.675,6.863-4.938a1,1,0,1,1,1.582,1.222c-.164.213-4.073,5.216-8.211,5.7A3.363,3.363,0,0,1,387.269,123.177Z" transform="translate(-328.024 -112.054)" fill="#ffb7a7"></path>
          </g>
          <g data-name="Group 6041" transform="translate(97.927)">
            <path data-name="Path 6494" d="M384.5,51.662H358.668a9.092,9.092,0,1,1,0-18.184h1.5a9.192,9.192,0,0,1,17.388,0H384.5a9.092,9.092,0,1,1,0,18.184ZM358.668,35.478a7.092,7.092,0,1,0,0,14.184H384.5a7.092,7.092,0,1,0,0-14.184h-7.692a1,1,0,0,1-.969-.757,7.192,7.192,0,0,0-13.956,0,1,1,0,0,1-.97.757Z" transform="translate(-349.576 -27.271)" fill="#ffb7a7"></path>
          </g>
          <g data-name="Group 6042" transform="translate(146.208 64.751)">
            <path data-name="Path 6495" d="M398.856,109.859a.987.987,0,0,1-.521-.148,1,1,0,0,1-.33-1.375c8.644-14.1,25.374-12.9,25.542-12.889a1,1,0,0,1,.914,1.078.988.988,0,0,1-1.077.915c-.154-.011-15.684-1.1-23.674,11.941A1,1,0,0,1,398.856,109.859Z" transform="translate(-397.857 -95.417)" fill="#ffb7a7"></path>
          </g>
          <g data-name="Group 6043" transform="translate(32.701 65.37)">
            <path data-name="Path 6496" d="M323.038,110.967a1,1,0,0,1-.755-.343c-.114-.132-11.534-13.137-20.235-12.518a.952.952,0,0,1-.151,0c-7.754-.631-15.677,9.487-15.755,9.589a1,1,0,1,1-1.584-1.22c.347-.452,8.582-11,17.422-10.369,9.7-.618,21.321,12.64,21.813,13.206a1,1,0,0,1-.755,1.655Z" transform="translate(-284.35 -96.079)" fill="#ffb7a7"></path>
          </g>
          <g data-name="Group 6051" transform="translate(123.235 92.737)">
            <g data-name="Group 6047">
              <g data-name="Group 6044" transform="translate(5.487)">
                <path data-name="Path 6497" d="M399.487,150.263H384.371a4,4,0,0,1-4-4v-.818c0-1.7,6.685-11.186,10.668-16.691a1,1,0,0,1,.807-.414h0a1,1,0,0,1,.8.407c4.046,5.5,10.832,14.989,10.832,16.7v.818A4,4,0,0,1,399.487,150.263Zm-7.632-19.222c-4.618,6.434-9.258,13.35-9.49,14.481l.006.741a2,2,0,0,0,2,2h15.116a2,2,0,0,0,2-2v-.818C401.256,144.382,396.543,137.47,391.855,131.041Z" transform="translate(-380.371 -128.34)" fill="#ffb7a7"></path>
              </g>
              <g data-name="Group 6045" transform="translate(2.743 23.192)">
                <path data-name="Path 6498" d="M401.451,163.065H382.407c-2.636,0-4.78-1.794-4.78-4v-.817c0-.309,0-1.127,3.514-6.279a1,1,0,1,1,1.652,1.127,33.211,33.211,0,0,0-3.166,5.22v.749c0,1.084,1.273,2,2.78,2h19.044c1.507,0,2.779-.916,2.779-2v-.817a22.4,22.4,0,0,0-3.1-5.1,1,1,0,1,1,1.582-1.223c1.475,1.909,3.52,5.17,3.52,6.327v.817C406.23,161.271,404.087,163.065,401.451,163.065Zm-21.833-4.715Z" transform="translate(-377.627 -151.532)" fill="#ffb7a7"></path>
              </g>
              <g data-name="Group 6046" transform="translate(0 36.05)">
                <path data-name="Path 6499" d="M403.415,176.034H380.443c-3.117,0-5.559-1.757-5.559-4v-.817c0-.78.78-2.061,3.66-6.381a1,1,0,0,1,1.664,1.109,50.248,50.248,0,0,0-3.324,5.346v.743c0,.946,1.462,2,3.559,2h22.972c2.1,0,3.56-1.054,3.56-2v-.817a32.392,32.392,0,0,0-3.046-4.978,1,1,0,0,1,1.662-1.113c2.86,4.27,3.384,5.4,3.384,6.091v.817C408.975,174.277,406.532,176.034,403.415,176.034Z" transform="translate(-374.884 -164.39)" fill="#ffb7a7"></path>
              </g>
            </g>
            <g data-name="Group 6050" transform="translate(13.052 48.133)">
              <g data-name="Group 6048" transform="translate(5.986)">
                <path data-name="Path 6500" d="M394.922,184.459a1,1,0,0,1-1-1v-5.986a1,1,0,0,1,2,0v5.986A1,1,0,0,1,394.922,184.459Z" transform="translate(-393.922 -176.473)" fill="#ffb7a7"></path>
              </g>
              <g data-name="Group 6049">
                <path data-name="Path 6501" d="M388.936,184.459a1,1,0,0,1-1-1v-5.986a1,1,0,0,1,2,0v5.986A1,1,0,0,1,388.936,184.459Z" transform="translate(-387.936 -176.473)" fill="#ffb7a7"></path>
              </g>
            </g>
          </g>
          <g data-name="Group 6059" transform="translate(85.461 97.083)">
            <g data-name="Group 6055">
              <g data-name="Group 6052" transform="translate(5.046)">
                <path data-name="Path 6502" d="M359.818,152.665h-13.9a3.738,3.738,0,0,1-3.76-3.707v-.737c0-1.487,5.348-9.048,9.833-15.129a1,1,0,0,1,.8-.406h0a1,1,0,0,1,.8.4c4.553,6.079,9.982,13.64,9.982,15.135v.737A3.737,3.737,0,0,1,359.818,152.665Zm-7.018-17.3c-4.2,5.743-8.413,11.9-8.652,12.948l.008.644a1.736,1.736,0,0,0,1.76,1.707h13.9a1.736,1.736,0,0,0,1.759-1.707v-.737C361.341,147.262,357.061,141.1,352.8,135.366Z" transform="translate(-342.156 -132.686)" fill="#ffb7a7"></path>
              </g>
              <g data-name="Group 6053" transform="translate(2.524 20.929)">
                <path data-name="Path 6503" d="M361.624,164.22H344.109c-2.467,0-4.475-1.663-4.475-3.708v-.738c0-.314,0-1.05,3.25-5.728a1,1,0,1,1,1.642,1.141,31.032,31.032,0,0,0-2.892,4.667v.658c0,.926,1.134,1.708,2.475,1.708h17.515c1.343,0,2.477-.782,2.477-1.708v-.738a21.066,21.066,0,0,0-2.832-4.539A1,1,0,0,1,362.84,154c1.315,1.67,3.261,4.661,3.261,5.777v.738C366.1,162.557,364.093,164.22,361.624,164.22Zm-20-4.326Z" transform="translate(-339.634 -153.615)" fill="#ffb7a7"></path>
              </g>
              <g data-name="Group 6054" transform="translate(0 32.535)">
                <path data-name="Path 6504" d="M363.431,175.924H342.3c-2.912,0-5.194-1.629-5.194-3.708v-.737c0-.736.721-1.9,3.384-5.82a1,1,0,0,1,1.654,1.123,48.071,48.071,0,0,0-3.038,4.783v.651c0,.806,1.366,1.708,3.194,1.708h21.127c1.827,0,3.192-.9,3.192-1.708v-.737a31.784,31.784,0,0,0-2.782-4.43,1,1,0,1,1,1.652-1.129c2.661,3.9,3.13,4.9,3.13,5.559v.737C368.623,174.295,366.342,175.924,363.431,175.924ZM339.1,171.608Z" transform="translate(-337.11 -165.221)" fill="#ffb7a7"></path>
              </g>
            </g>
            <g data-name="Group 6058" transform="translate(12.004 44.268)">
              <g data-name="Group 6056" transform="translate(5.505)">
                <path data-name="Path 6505" d="M355.619,184.459a1,1,0,0,1-1-1v-5.505a1,1,0,1,1,2,0v5.505A1,1,0,0,1,355.619,184.459Z" transform="translate(-354.619 -176.954)" fill="#ffb7a7"></path>
              </g>
              <g data-name="Group 6057">
                <path data-name="Path 6506" d="M350.114,184.459a1,1,0,0,1-1-1v-5.505a1,1,0,1,1,2,0v5.505A1,1,0,0,1,350.114,184.459Z" transform="translate(-349.114 -176.954)" fill="#ffb7a7"></path>
              </g>
            </g>
          </g>
          <g data-name="Group 6067" transform="translate(50.544 101.386)">
            <g data-name="Group 6063">
              <g data-name="Group 6060" transform="translate(4.611)">
                <path data-name="Path 6507" d="M323.024,155.044h-12.7a3.474,3.474,0,0,1-3.52-3.417v-.658c0-1.093,3.03-5.663,9.006-13.582a1,1,0,0,1,.793-.4h0a1,1,0,0,1,.794.392c6.068,7.916,9.144,12.488,9.144,13.588v.658A3.474,3.474,0,0,1,323.024,155.044Zm-14.22-4v.583a1.473,1.473,0,0,0,1.52,1.417h12.7a1.473,1.473,0,0,0,1.521-1.417v-.581c-.337-1.058-4.14-6.4-7.932-11.4C312.877,144.646,309.132,149.993,308.8,151.044Zm15.753.041Zm-15.764,0Z" transform="translate(-306.804 -136.989)" fill="#ffb7a7"></path>
              </g>
              <g data-name="Group 6061" transform="translate(2.305 18.689)">
                <path data-name="Path 6508" d="M324.674,165.361h-16c-2.3,0-4.176-1.533-4.176-3.417v-.659c0-.317,0-.977,2.99-5.184a1,1,0,1,1,1.631,1.158,28.519,28.519,0,0,0-2.621,4.121v.564c0,.755,1.017,1.417,2.176,1.417h16c1.159,0,2.176-.662,2.176-1.417v-.59a17.964,17.964,0,0,0-2.561-4.047,1,1,0,1,1,1.557-1.254c1.212,1.5,3,4.206,3,5.232v.659C328.85,163.828,326.977,165.361,324.674,165.361Zm-18.191-3.936Zm20.375-.037h0Z" transform="translate(-304.498 -155.678)" fill="#ffb7a7"></path>
              </g>
              <g data-name="Group 6062" transform="translate(0 29.051)">
                <path data-name="Path 6509" d="M326.324,175.813h-19.3c-2.709,0-4.831-1.5-4.831-3.417v-.66c0-.694.626-1.687,3.113-5.265a1,1,0,0,1,1.642,1.14,44.924,44.924,0,0,0-2.755,4.227v.558c0,.578,1.1,1.417,2.831,1.417h19.3c1.728,0,2.83-.839,2.83-1.417v-.583a25.055,25.055,0,0,0-2.519-3.964,1,1,0,1,1,1.638-1.145c2.451,3.505,2.881,4.416,2.881,5.032v.66C331.154,174.312,329.032,175.813,326.324,175.813Zm-22.148-3.925Zm24.989-.038h0Z" transform="translate(-302.193 -166.04)" fill="#ffb7a7"></path>
              </g>
            </g>
            <g data-name="Group 6066" transform="translate(10.966 40.441)">
              <g data-name="Group 6064" transform="translate(5.029)">
                <path data-name="Path 6510" d="M319.188,184.459a1,1,0,0,1-1-1V178.43a1,1,0,0,1,2,0v5.029A1,1,0,0,1,319.188,184.459Z" transform="translate(-318.188 -177.43)" fill="#ffb7a7"></path>
              </g>
              <g data-name="Group 6065">
                <path data-name="Path 6511" d="M314.159,184.459a1,1,0,0,1-1-1V178.43a1,1,0,0,1,2,0v5.029A1,1,0,0,1,314.159,184.459Z" transform="translate(-313.159 -177.43)" fill="#ffb7a7"></path>
              </g>
            </g>
          </g>
        </g>
      </g>
      <g transform="translate(135.467 24.391)">
        <g data-name="Group 6069">
          <path data-name="Path 6512" d="M219.991,63.816a1,1,0,0,0-.99-.325l-3.547.831a1.009,1.009,0,0,0-.451.24l-72.938,67.505a1,1,0,0,0,.029,1.494l35.636,30.593a1,1,0,0,0,.652.242.969.969,0,0,0,.232-.028,1,1,0,0,0,.692-.591l40.847-98.931A1,1,0,0,0,219.991,63.816Z" transform="translate(-141.745 -27.713)" fill="#fe704f"></path>
          <path data-name="Path 6513" d="M227.846,29.274l-8.979-4.767a1,1,0,0,0-1.469.889l.111,23.389a1,1,0,0,0,1.5.861l8.868-5.1a1,1,0,0,0,.5-.866V30.157A1,1,0,0,0,227.846,29.274Z" transform="translate(-141.745 -24.391)" fill="#fe704f"></path>
          <path data-name="Path 6514" d="M226,150.438c-.371-.063-9.175-1.567-16.715.5-8.618,3.3-11.453,7.636-16.15,14.814l-1.259,1.918c-2.228,3.375-2.271,17.122-2.136,29.743.027,2.452.047,4.389,0,4.913-.12,1.316-3.381,3.328-5.547,4.274a1,1,0,0,0-.3,1.629c.35.346,8.666,8.511,14.526,10.8,5.329,2.084,18.545,4.3,20.353,4.3a.863.863,0,0,0,.159-.011,1.009,1.009,0,0,0,.8-.875c.085-.766-.169-.879-2.141-1.753-10.671-4.727-16.865-8.572-18.457-11.45,4.152-1.307,6.136-8.236,6.188-11.02.015-.8.065-2.067.13-3.745.172-4.414.46-11.8.535-21.317.1-13.139,19.99-20.722,20.19-20.8a1,1,0,0,0-.177-1.922Z" transform="translate(-141.745 -32.723)" fill="#fe704f"></path>
        </g>
      </g>
      <g transform="translate(132.369 17.351)">
        <g data-name="Group 6099">
          <g data-name="Group 6070" transform="translate(0 43.031)">
            <path data-name="Path 6515" d="M295.714,135.133a1.5,1.5,0,0,1-1.032-.412L224.443,68.047h0a8.98,8.98,0,0,0-5.214-2.083,9.619,9.619,0,0,0-5.438,2.21L143.771,133.9a1.5,1.5,0,0,1-2.052-2.188l70.058-65.757a12.581,12.581,0,0,1,7.452-2.987,11.935,11.935,0,0,1,7.253,2.883l70.264,66.7a1.5,1.5,0,0,1-1.032,2.588Z" transform="translate(-141.245 -62.964)" fill="#333"></path>
          </g>
          <g data-name="Group 6071" transform="translate(75.985)">
            <path data-name="Path 6516" d="M218.73,60.478a1.5,1.5,0,0,1-1.5-1.5V18.851a1.5,1.5,0,0,1,3,0V58.978A1.5,1.5,0,0,1,218.73,60.478Z" transform="translate(-217.23 -17.351)" fill="#333"></path>
          </g>
          <g data-name="Group 6072" transform="translate(81.75 9.532)">
            <path data-name="Path 6517" d="M224.5,47.62a1.5,1.5,0,0,1-.691-2.832l15.258-7.913-15.205-7.133a1.5,1.5,0,1,1,1.274-2.716l17.957,8.424a1.5,1.5,0,0,1,.054,2.69l-17.958,9.311A1.5,1.5,0,0,1,224.5,47.62Z" transform="translate(-222.995 -26.883)" fill="#333"></path>
          </g>
          <g data-name="Group 6073" transform="translate(147.15 15.74)">
            <path data-name="Path 6518" d="M300.2,56.708A11.809,11.809,0,1,1,312.013,44.9,11.822,11.822,0,0,1,300.2,56.708Zm0-20.617a8.809,8.809,0,1,0,8.809,8.809A8.819,8.819,0,0,0,300.2,36.091Z" transform="translate(-288.395 -33.091)" fill="#333"></path>
          </g>
          <g data-name="Group 6089" transform="translate(134.07 2.66)">
            <g data-name="Group 6078">
              <g data-name="Group 6074" transform="translate(23.389)">
                <path data-name="Path 6519" d="M300.2,29.884a1.5,1.5,0,0,1-1.5-1.5V21.511a1.5,1.5,0,0,1,3,0v6.873A1.5,1.5,0,0,1,300.2,29.884Z" transform="translate(-298.704 -20.011)" fill="#333"></path>
              </g>
              <g data-name="Group 6075" transform="translate(23.389 39.905)">
                <path data-name="Path 6520" d="M300.2,69.789a1.5,1.5,0,0,1-1.5-1.5V61.416a1.5,1.5,0,0,1,3,0v6.873A1.5,1.5,0,0,1,300.2,69.789Z" transform="translate(-298.704 -59.916)" fill="#333"></path>
              </g>
              <g data-name="Group 6076" transform="translate(0 23.389)">
                <path data-name="Path 6521" d="M283.688,46.4h-6.873a1.5,1.5,0,0,1,0-3h6.873a1.5,1.5,0,0,1,0,3Z" transform="translate(-275.315 -43.4)" fill="#333"></path>
              </g>
              <g data-name="Group 6077" transform="translate(39.906 23.389)">
                <path data-name="Path 6522" d="M323.593,46.4h-6.872a1.5,1.5,0,0,1,0-3h6.872a1.5,1.5,0,0,1,0,3Z" transform="translate(-315.221 -43.4)" fill="#333"></path>
              </g>
            </g>
            <g data-name="Group 6083" transform="translate(3.145 3.145)">
              <g data-name="Group 6079" transform="translate(34.54 8.53)">
                <path data-name="Path 6523" d="M314.5,38.128a1.5,1.5,0,0,1-.752-2.8l5.948-3.442a1.5,1.5,0,0,1,1.5,2.6l-5.948,3.442A1.491,1.491,0,0,1,314.5,38.128Z" transform="translate(-313 -31.686)" fill="#333"></path>
              </g>
              <g data-name="Group 6080" transform="translate(0 28.515)">
                <path data-name="Path 6524" d="M279.961,58.114a1.5,1.5,0,0,1-.752-2.8l5.949-3.441a1.5,1.5,0,1,1,1.5,2.6l-5.949,3.442A1.491,1.491,0,0,1,279.961,58.114Z" transform="translate(-278.46 -51.671)" fill="#333"></path>
              </g>
              <g data-name="Group 6081" transform="translate(8.53)">
                <path data-name="Path 6525" d="M291.934,32.1a1.5,1.5,0,0,1-1.3-.749l-3.443-5.949a1.5,1.5,0,1,1,2.6-1.5l3.442,5.949a1.5,1.5,0,0,1-1.3,2.252Z" transform="translate(-286.99 -23.156)" fill="#333"></path>
              </g>
              <g data-name="Group 6082" transform="translate(28.517 34.539)">
                <path data-name="Path 6526" d="M311.919,66.645a1.5,1.5,0,0,1-1.3-.75l-3.441-5.949a1.5,1.5,0,0,1,2.6-1.5l3.442,5.949a1.5,1.5,0,0,1-1.3,2.252Z" transform="translate(-306.977 -57.695)" fill="#333"></path>
              </g>
            </g>
            <g data-name="Group 6088" transform="translate(3.398 3.397)">
              <g data-name="Group 6084" transform="translate(28.564)">
                <path data-name="Path 6527" d="M308.776,32.283A1.5,1.5,0,0,1,307.495,30l3.566-5.874a1.5,1.5,0,1,1,2.565,1.557l-3.566,5.874A1.5,1.5,0,0,1,308.776,32.283Z" transform="translate(-307.277 -23.408)" fill="#333"></path>
              </g>
              <g data-name="Group 6085" transform="translate(7.851 34.109)">
                <path data-name="Path 6528" d="M288.063,66.392a1.5,1.5,0,0,1-1.281-2.279l3.568-5.875a1.5,1.5,0,0,1,2.564,1.558l-3.567,5.874A1.5,1.5,0,0,1,288.063,66.392Z" transform="translate(-286.564 -57.518)" fill="#333"></path>
              </g>
              <g data-name="Group 6086" transform="translate(0 7.852)">
                <path data-name="Path 6529" d="M286.086,37.827a1.487,1.487,0,0,1-.777-.218l-5.874-3.567a1.5,1.5,0,0,1,1.556-2.564l5.874,3.567a1.5,1.5,0,0,1-.779,2.782Z" transform="translate(-278.713 -31.26)" fill="#333"></path>
              </g>
              <g data-name="Group 6087" transform="translate(34.108 28.564)">
                <path data-name="Path 6530" d="M320.2,58.54a1.5,1.5,0,0,1-.777-.218l-5.875-3.567A1.5,1.5,0,0,1,315.1,52.19l5.875,3.567a1.5,1.5,0,0,1-.78,2.783Z" transform="translate(-312.821 -51.973)" fill="#333"></path>
              </g>
            </g>
          </g>
          <g data-name="Group 6090" transform="translate(11.916 90.693)">
            <path data-name="Path 6531" d="M154.661,132.75a1.5,1.5,0,0,1-1.009-2.61L173.161,112.4a1.5,1.5,0,0,1,2.018,2.22L155.67,132.36A1.5,1.5,0,0,1,154.661,132.75Z" transform="translate(-153.161 -112.015)" fill="#333"></path>
          </g>
          <g data-name="Group 6091" transform="translate(50.934 60.599)">
            <path data-name="Path 6532" d="M193.679,96.17a1.5,1.5,0,0,1-1.016-2.6l13.745-12.637a1.5,1.5,0,0,1,2.031,2.209L194.694,95.775A1.493,1.493,0,0,1,193.679,96.17Z" transform="translate(-192.179 -80.534)" fill="#333"></path>
          </g>
          <g data-name="Group 6092" transform="translate(44.283 71.062)">
            <path data-name="Path 6533" d="M243.624,103.762c-2.245,0-5.111-2.474-9.041-6.1a42.277,42.277,0,0,0-3.365-2.922c-.794.539-2.458,2.045-3.719,3.185-3.858,3.489-6.327,5.619-8.076,5.778-1.812.17-3.806-1.729-7.133-5.1-1.464-1.481-3.893-3.937-4.781-4.2-.78.235-3.131,2.28-4.7,3.642-3.933,3.421-6.678,5.663-8.91,5.663a1.511,1.511,0,0,1-.212-.015c-1.762-.252-5.9-3.4-7.59-4.743a1.5,1.5,0,1,1,1.861-2.352,35.964,35.964,0,0,0,6.072,4.1c1.373-.188,4.761-3.134,6.812-4.917,3.111-2.706,4.944-4.243,6.445-4.379,1.821-.163,3.808,1.729,7.135,5.1,1.465,1.481,3.9,3.94,4.782,4.2,1.063-.284,4.448-3.345,6.281-5,3.2-2.892,4.41-3.918,5.448-4.066,1.268-.186,2.452.841,5.683,3.824,1.886,1.74,5.826,5.372,7,5.306a35.026,35.026,0,0,0,6.208-3.353,1.5,1.5,0,1,1,1.656,2.5,37.794,37.794,0,0,1-7.037,3.731A2.784,2.784,0,0,1,243.624,103.762Zm-24.363-3.046Zm12.257-6.152-24.068-.175Z" transform="translate(-185.528 -91.393)" fill="#333"></path>
          </g>
          <g data-name="Group 6098" transform="translate(27.498 123.354)">
            <g data-name="Group 6093" transform="translate(13.839)">
              <path data-name="Path 6534" d="M219.176,223.853c-14.618,0-28.164-5.747-36.243-15.376a1.5,1.5,0,0,1,.963-2.453c2.122-.265,4.371-2.775,5.337-4.086V178.146c0-5.979,5.064-28.439,29.837-29.108h.252c24.814.67,29.877,23.13,29.877,29.109v23.792c.967,1.311,3.215,3.821,5.337,4.086a1.5,1.5,0,0,1,.965,2.451c-8.035,9.615-21.6,15.364-36.272,15.378ZM186.718,208.2c7.636,7.958,19.585,12.649,32.458,12.649h.051c12.926-.013,24.887-4.705,32.491-12.648a16.285,16.285,0,0,1-5.267-4.96,1.5,1.5,0,0,1-.252-.832V178.146c0-5.362-4.568-25.5-26.917-26.11h-.172c-22.308.6-26.877,20.747-26.877,26.109v24.267a1.5,1.5,0,0,1-.252.832A16.29,16.29,0,0,1,186.718,208.2Zm60.981-5.791h0Z" transform="translate(-182.582 -149.037)" fill="#333"></path>
            </g>
            <g data-name="Group 6096" transform="translate(0 69.39)">
              <g data-name="Group 6094" transform="translate(0 0.001)">
                <path data-name="Path 6535" d="M170.243,236.725a1.5,1.5,0,0,1-1.5-1.5c0-.22.088-5.4,7.7-6.89,1.894-.372,4.119-.736,6.474-1.123,5.147-.843,11.553-1.893,13.31-2.983a13.5,13.5,0,0,0,4.093-4.949,1.5,1.5,0,0,1,2.707,1.295c-.083.172-2.055,4.243-5.219,6.2-2.107,1.307-7.072,2.192-14.406,3.394-2.332.382-4.534.743-6.38,1.1-5.13,1.009-5.274,3.917-5.274,3.947A1.5,1.5,0,0,1,170.243,236.725Z" transform="translate(-168.743 -218.428)" fill="#333"></path>
              </g>
              <g data-name="Group 6095" transform="translate(66.52)">
                <path data-name="Path 6536" d="M268.188,236.725a1.5,1.5,0,0,1-1.5-1.473c-.008-.173-.24-2.984-5.273-3.974-1.847-.363-4.05-.723-6.382-1.1-7.333-1.2-12.3-2.087-14.4-3.4-3.163-1.96-5.136-6.031-5.219-6.2a1.5,1.5,0,0,1,2.707-1.295c.016.033,1.684,3.456,4.092,4.949,1.759,1.09,8.163,2.14,13.309,2.983,2.357.386,4.582.751,6.475,1.123,7.608,1.495,7.695,6.67,7.695,6.89A1.5,1.5,0,0,1,268.188,236.725Z" transform="translate(-235.263 -218.427)" fill="#333"></path>
              </g>
            </g>
            <g data-name="Group 6097" transform="translate(26.77 74.966)">
              <path data-name="Path 6537" d="M219.48,235.492c-13.66,0-23.342-8.754-23.487-8.888a1.5,1.5,0,0,1,2.037-2.2c.811.745,20.079,18.065,42.445-.063a1.5,1.5,0,0,1,1.888,2.33C234.2,233.284,226.34,235.492,219.48,235.492Z" transform="translate(-195.513 -224.003)" fill="#333"></path>
            </g>
          </g>
        </g>
      </g>
    </g>
  </g>
</svg>