<svg xmlns="http://www.w3.org/2000/svg" xmlns:xlink="http://www.w3.org/1999/xlink" width="440" height="252" viewBox="0 0 440 252">
  <defs>
    <clipPath id="clip-path">
      <path id="SVGID" d="M494.48,366.066a1.2,1.2,0,0,1,0-2.4H599.59a10.469,10.469,0,0,1,10.469,10.469v88.123a10.47,10.47,0,0,1-10.469,10.47H494.48a1.2,1.2,0,0,1,0-2.4H599.59a8.071,8.071,0,0,0,8.07-8.071V374.136a8.07,8.07,0,0,0-8.07-8.07Z" fill="#b4bbc9"/>
    </clipPath>
    <clipPath id="clip-path-2">
      <path id="SVGID-2" data-name="SVGID" d="M494.48,359.619a1.2,1.2,0,0,1,0-2.4H608.86a1.2,1.2,0,0,1,0,2.4Z" fill="#b4bbc9"/>
    </clipPath>
    <clipPath id="clip-path-3">
      <path id="SVGID-3" data-name="SVGID" d="M577.185,374.634a1.2,1.2,0,0,1,2.4,0V418.2a1.2,1.2,0,0,1-2.4,0Z" fill="#b4bbc9"/>
    </clipPath>
    <clipPath id="clip-path-4">
      <path id="SVGID-4" data-name="SVGID" d="M565.2,374.634a1.2,1.2,0,0,1,2.4,0V418.2a1.2,1.2,0,0,1-2.4,0Z" fill="#b4bbc9"/>
    </clipPath>
    <clipPath id="clip-path-5">
      <path id="SVGID-5" data-name="SVGID" d="M553.212,374.634a1.2,1.2,0,0,1,2.4,0V418.2a1.2,1.2,0,0,1-2.4,0Z" fill="#b4bbc9"/>
    </clipPath>
    <clipPath id="clip-path-6">
      <path id="SVGID-6" data-name="SVGID" d="M541.226,374.634a1.2,1.2,0,0,1,2.4,0V418.2a1.2,1.2,0,0,1-2.4,0Z" fill="#b4bbc9"/>
    </clipPath>
    <clipPath id="clip-path-7">
      <path id="SVGID-7" data-name="SVGID" d="M529.24,374.634a1.2,1.2,0,0,1,2.4,0V418.2a1.2,1.2,0,0,1-2.4,0Z" fill="#b4bbc9"/>
    </clipPath>
    <clipPath id="clip-path-8">
      <path id="SVGID-8" data-name="SVGID" d="M517.253,374.634a1.2,1.2,0,0,1,2.4,0V418.2a1.2,1.2,0,0,1-2.4,0Z" fill="#b4bbc9"/>
    </clipPath>
    <clipPath id="clip-path-9">
      <path id="SVGID-9" data-name="SVGID" d="M505.267,374.634a1.2,1.2,0,0,1,2.4,0V418.2a1.2,1.2,0,0,1-2.4,0Z" fill="#b4bbc9"/>
    </clipPath>
    <clipPath id="clip-path-10">
      <path id="SVGID-10" data-name="SVGID" d="M589.52,407.929a1.2,1.2,0,0,1,0,2.4H494.48a1.2,1.2,0,0,1,0-2.4Z" fill="#b4bbc9"/>
    </clipPath>
    <clipPath id="clip-path-11">
      <path id="SVGID-11" data-name="SVGID" d="M589.52,399.454a1.2,1.2,0,0,1,0,2.4H494.48a1.2,1.2,0,0,1,0-2.4Z" fill="#b4bbc9"/>
    </clipPath>
    <clipPath id="clip-path-12">
      <path id="SVGID-12" data-name="SVGID" d="M589.52,390.979a1.2,1.2,0,0,1,0,2.4H494.48a1.2,1.2,0,0,1,0-2.4Z" fill="#b4bbc9"/>
    </clipPath>
    <clipPath id="clip-path-13">
      <path id="SVGID-13" data-name="SVGID" d="M589.52,382.5a1.2,1.2,0,0,1,0,2.4H494.48a1.2,1.2,0,0,1,0-2.4Z" fill="#b4bbc9"/>
    </clipPath>
    <clipPath id="clip-path-14">
      <path id="SVGID-14" data-name="SVGID" d="M588.32,375.834H494.48a1.2,1.2,0,0,1,0-2.4h95.04a1.2,1.2,0,0,1,1.2,1.2V418.2a1.2,1.2,0,0,1-1.2,1.2H494.48a1.2,1.2,0,0,1,0-2.4h93.84Z" fill="#b4bbc9"/>
    </clipPath>
    <clipPath id="clip-path-15">
      <path id="SVGID-15" data-name="SVGID" d="M494.48,431.306a1.2,1.2,0,0,1,0-2.4h35.959a1.2,1.2,0,0,1,1.2,1.2v28.725a1.2,1.2,0,0,1-1.2,1.2H494.48a1.2,1.2,0,0,1,0-2.4h34.76V431.306Z" fill="#b4bbc9"/>
    </clipPath>
    <clipPath id="clip-path-16">
      <path id="SVGID-16" data-name="SVGID" d="M552.336,545.886a22.262,22.262,0,1,1-25.327-18.7A22.263,22.263,0,0,1,552.336,545.886Zm-2.373.357a19.863,19.863,0,1,0-16.686,22.6A19.863,19.863,0,0,0,549.963,546.243Z" fill="#b4bbc9"/>
    </clipPath>
    <clipPath id="clip-path-17">
      <path id="SVGID-17" data-name="SVGID" d="M551.212,544.127a1.2,1.2,0,1,1-.357-2.372l13.959-2.1a4.529,4.529,0,1,1,1.348,8.957l-13.959,2.1a1.2,1.2,0,1,1-.357-2.373l13.959-2.1a2.13,2.13,0,0,0-.634-4.212Z" fill="#b4bbc9"/>
    </clipPath>
    <clipPath id="clip-path-18">
      <path id="SVGID-18" data-name="SVGID" d="M559.294,554.834a1.2,1.2,0,1,1,2.372-.357l1.566,10.405a9.8,9.8,0,0,1-8.237,11.154l-40.358,6.073a9.805,9.805,0,0,1-11.154-8.237l-6.072-40.358a9.8,9.8,0,0,1,8.236-11.154l40.358-6.072a9.8,9.8,0,0,1,11.154,8.236l1.675,11.131a1.2,1.2,0,0,1-2.372.357l-1.675-11.131a7.406,7.406,0,0,0-8.425-6.221L506,524.733a7.4,7.4,0,0,0-6.221,8.425l6.073,40.357a7.4,7.4,0,0,0,8.424,6.221l40.358-6.072a7.407,7.407,0,0,0,6.222-8.425Z" fill="#b4bbc9"/>
    </clipPath>
    <clipPath id="clip-path-19">
      <path id="SVGID-19" data-name="SVGID" d="M589.889,496.983a10.726,10.726,0,1,1-.107-1.525A10.887,10.887,0,0,1,589.889,496.983Zm-2.4,0a8.347,8.347,0,1,0-8.341,8.342A8.37,8.37,0,0,0,587.49,496.983Z" fill="#b4bbc9"/>
    </clipPath>
    <clipPath id="clip-path-20">
      <path id="SVGID-20" data-name="SVGID" d="M593.354,499.892a1.2,1.2,0,0,1,1.9-1.467,10.741,10.741,0,0,1-16.067,14.188,1.2,1.2,0,1,1,1.689-1.7,8.342,8.342,0,0,0,12.479-11.018Z" fill="#b4bbc9"/>
    </clipPath>
    <clipPath id="clip-path-21">
      <path id="SVGID-21" data-name="SVGID" d="M620.583,492.19a10.741,10.741,0,1,1-10.741-10.74A10.741,10.741,0,0,1,620.583,492.19Zm-2.4,0a8.342,8.342,0,1,0-8.342,8.342A8.342,8.342,0,0,0,618.184,492.19Z" fill="#b4bbc9"/>
    </clipPath>
    <clipPath id="clip-path-22">
      <path id="SVGID-22" data-name="SVGID" d="M620.583,524.192a10.741,10.741,0,1,1-10.741-10.741A10.74,10.74,0,0,1,620.583,524.192Zm-2.4,0a8.342,8.342,0,1,0-8.342,8.341A8.341,8.341,0,0,0,618.184,524.192Z" fill="#b4bbc9"/>
    </clipPath>
    <clipPath id="clip-path-23">
      <path id="SVGID-23" data-name="SVGID" d="M824.716,560.09,800.7,550.16a8.837,8.837,0,0,1-4.792-11.543l23.738-57.428a8.838,8.838,0,0,1,11.544-4.792l24.021,9.929A8.837,8.837,0,0,1,860,497.87L836.26,555.3A8.839,8.839,0,0,1,824.716,560.09Zm.921-2.227a6.428,6.428,0,0,0,8.4-3.485l23.738-57.429a6.429,6.429,0,0,0-3.485-8.4l-24.022-9.929a6.428,6.428,0,0,0-8.4,3.486L798.13,539.537a6.429,6.429,0,0,0,3.485,8.4Z" fill="#b4bbc9"/>
    </clipPath>
    <clipPath id="clip-path-24">
      <path id="SVGID-24" data-name="SVGID" d="M814.486,550.818a5.075,5.075,0,1,1,6.629-2.751A5.074,5.074,0,0,1,814.486,550.818Zm2.957-7.154a2.666,2.666,0,1,0,1.445,3.483A2.666,2.666,0,0,0,817.443,543.664Z" fill="#b4bbc9"/>
    </clipPath>
    <clipPath id="clip-path-25">
      <path id="SVGID-25" data-name="SVGID" d="M835.985,488.51a1.2,1.2,0,1,1,.92-2.226l7.269,3.005a1.2,1.2,0,0,1-.92,2.226Z" fill="#b4bbc9"/>
    </clipPath>
    <clipPath id="clip-path-26">
      <path id="SVGID-26" data-name="SVGID" d="M800.184,531.414a1.2,1.2,0,1,1,.92-2.226l38.13,15.76a1.2,1.2,0,0,1-.92,2.227Z" fill="#b4bbc9"/>
    </clipPath>
    <clipPath id="clip-path-27">
      <path id="SVGID-27" data-name="SVGID" d="M817.824,488.737a1.2,1.2,0,1,1,.921-2.226l38.129,15.76a1.2,1.2,0,0,1-.92,2.227Z" fill="#b4bbc9"/>
    </clipPath>
    <clipPath id="clip-path-28">
      <path id="SVGID-28" data-name="SVGID" d="M923.346,580.589a1.2,1.2,0,0,1,.469,2.363l-29.2,5.8a11.345,11.345,0,0,1-13.351-8.928l-5.9-29.735-5.95-29.974-.152-.767a11.357,11.357,0,0,1,8.928-13.351l40.9-8.119a11.323,11.323,0,0,1,4.511.016,1.2,1.2,0,1,1-.489,2.359,8.909,8.909,0,0,0-3.553-.012l-40.9,8.119a8.948,8.948,0,0,0-7.034,10.519l.152.767,5.95,29.974,5.9,29.735a8.935,8.935,0,0,0,10.519,7.034Z" fill="#b4bbc9"/>
    </clipPath>
    <clipPath id="clip-path-29">
      <path id="SVGID-29" data-name="SVGID" d="M868.921,527.269a1.205,1.205,0,0,1-.469-2.364l6.034-1.2a1.2,1.2,0,0,1,.469,2.363Z" fill="#b4bbc9"/>
    </clipPath>
    <clipPath id="clip-path-30">
      <path id="SVGID-30" data-name="SVGID" d="M870.969,537.588a1.2,1.2,0,1,1-.469-2.363l6.034-1.2A1.2,1.2,0,0,1,877,536.39Z" fill="#b4bbc9"/>
    </clipPath>
    <clipPath id="clip-path-31">
      <path id="SVGID-31" data-name="SVGID" d="M873.017,547.907a1.2,1.2,0,0,1-.468-2.363l6.034-1.2a1.2,1.2,0,1,1,.469,2.363Z" fill="#b4bbc9"/>
    </clipPath>
    <clipPath id="clip-path-32">
      <path id="SVGID-32" data-name="SVGID" d="M875.066,558.226a1.2,1.2,0,0,1-.469-2.363l6.034-1.2a1.2,1.2,0,1,1,.469,2.363Z" fill="#b4bbc9"/>
    </clipPath>
    <clipPath id="clip-path-33">
      <path id="SVGID-33" data-name="SVGID" d="M877.114,568.546a1.2,1.2,0,1,1-.469-2.363l6.034-1.2a1.2,1.2,0,0,1,.469,2.363Z" fill="#b4bbc9"/>
    </clipPath>
    <clipPath id="clip-path-34">
      <path id="SVGID-34" data-name="SVGID" d="M879.163,578.865a1.2,1.2,0,0,1-.469-2.363l6.034-1.2a1.2,1.2,0,0,1,.469,2.363Z" fill="#b4bbc9"/>
    </clipPath>
    <clipPath id="clip-path-35">
      <path id="SVGID-35" data-name="SVGID" d="M897.189,542.88a1.2,1.2,0,0,1-.469-2.363l15.4-3.058a1.2,1.2,0,0,1,.469,2.363Z" fill="#b4bbc9"/>
    </clipPath>
    <clipPath id="clip-path-36">
      <path id="SVGID-36" data-name="SVGID" d="M893.792,550.708a1.2,1.2,0,1,1-.469-2.363l24.93-4.949a1.2,1.2,0,1,1,.469,2.363Z" fill="#b4bbc9"/>
    </clipPath>
    <clipPath id="clip-path-37">
      <path id="SVGID-37" data-name="SVGID" d="M923.244,427.354a1,1,0,1,1,.591,1.908l-89.123,27.615a1,1,0,0,1-1.249-.658l-18.407-59.4a1,1,0,0,1,1.258-1.246l64.841,20.787,41.726-53.808a1,1,0,0,1,1.578,1.223L882.3,418.131a1,1,0,0,1-1.093.339l-63.68-20.415,17.544,56.619Z" fill="#b4bbc9"/>
    </clipPath>
    <clipPath id="clip-path-38">
      <path id="SVGID-38" data-name="SVGID" d="M911.319,357.955a1,1,0,0,1,1.908-.591l1.616,5.216a1,1,0,0,1-1.907.591Z" fill="#b4bbc9"/>
    </clipPath>
    <clipPath id="clip-path-39">
      <path id="SVGID-39" data-name="SVGID" d="M824.87,390.459a1,1,0,1,1-1.907.591l-7.969-25.718a1,1,0,0,1,.658-1.249l23.811-7.378a1,1,0,0,1,.591,1.907L817.2,365.7Z" fill="#b4bbc9"/>
    </clipPath>
    <clipPath id="clip-path-40">
      <path id="SVGID-40" data-name="SVGID" d="M830.527,372.051a1,1,0,0,1-.591-1.907l43.373-13.44a1,1,0,0,1,.591,1.908Z" fill="#b4bbc9"/>
    </clipPath>
    <clipPath id="clip-path-41">
      <path id="SVGID-41" data-name="SVGID" d="M833.823,382.689a1,1,0,1,1-.591-1.907l67.335-20.864a1,1,0,0,1,.591,1.907Z" fill="#b4bbc9"/>
    </clipPath>
    <clipPath id="clip-path-42">
      <path id="SVGID-42" data-name="SVGID" d="M837.119,393.327a1,1,0,1,1-.591-1.907l67.335-20.864a1,1,0,1,1,.591,1.907Z" fill="#b4bbc9"/>
    </clipPath>
    <clipPath id="clip-path-43">
      <path id="SVGID-43" data-name="SVGID" d="M855.8,399.2a1,1,0,1,1-.591-1.908l36.574-11.333a1,1,0,1,1,.591,1.907Z" fill="#b4bbc9"/>
    </clipPath>
    <clipPath id="clip-path-44">
      <path id="SVGID-44" data-name="SVGID" d="M676.322,430.6a5.031,5.031,0,0,0-4.08.109l-16.993,8.981-.139-49.524,13.109.013Zm75.038-4.433.139.255.547-.329Zm-3.062.33-4.6.494,5.319-7.619,3.34,6.532,47.446-28.569,5.886-3.544-1.508-2.767,1.044-.628a1.585,1.585,0,0,1,1.258-.169,1.673,1.673,0,0,1,1,.815l3.371,6.188a1.821,1.821,0,0,1,.162,1.323,1.734,1.734,0,0,1-.776,1.055l-4.515,2.719,1.966,3.609a1.825,1.825,0,0,1,.161,1.323,1.731,1.731,0,0,1-.776,1.055L789.7,418.788a1.587,1.587,0,0,1-.824.23,1.643,1.643,0,0,1-1.438-.876,1.793,1.793,0,0,1,.614-2.379l15.95-9.6-1.142-2.1-26.713,16.084-.151,128.891h.152l-.009,8.752h-.154l-8.561-8.762.145-123.715-11.511,6.93c-.011.007-.023.012-.034.018-.035.02-.07.037-.105.054s-.058.028-.088.04-.072.026-.108.038-.062.021-.094.029-.073.016-.11.023-.065.012-.1.016l-.027.005-8.623.871c-.054.005-.108.008-.161.008a1.647,1.647,0,0,1-1.451-.9,1.817,1.817,0,0,1,.147-1.912l2.8-3.758Zm-81.48,111.207,10.785-5.45-9.545,4.7s-4.6,2.356-7.085-3L624.488,459.78s-2.3-4.444,2.324-6.677l14.541-7.06,41.182,83.722,27.511-13.9s6.624-2.221,3.7-8.447l-36.65-77.882a9.5,9.5,0,0,1,8.344,5.544l33.592,71.373a10.042,10.042,0,0,1-4.388,13.2l-19.853,10.032,3.993,20.486-43.672-.047.023-21.323,3.692,7.443a4.881,4.881,0,0,0,6.473,2.192Z" fill="#526680" clip-rule="evenodd"/>
    </clipPath>
    <clipPath id="clip-path-45">
      <rect id="SVGID-45" data-name="SVGID" width="199.644" height="199.681" transform="translate(616.429 372.698)" fill="#526680"/>
    </clipPath>
    <clipPath id="clip-path-46">
      <path id="SVGID-46" data-name="SVGID" d="M693.842,497.107a1.659,1.659,0,0,1,2.272.824,1.838,1.838,0,0,1-.782,2.4l-7.831,4.033a1.659,1.659,0,0,1-2.272-.824,1.838,1.838,0,0,1,.781-2.4Zm1.247,3.809a1.661,1.661,0,0,1,2.273.824,1.839,1.839,0,0,1-.782,2.4l-7.831,4.034a1.66,1.66,0,0,1-2.272-.824,1.837,1.837,0,0,1,.781-2.4ZM686.355,480.6a1.659,1.659,0,0,1,2.272.824,1.838,1.838,0,0,1-.781,2.4l-7.831,4.033a1.66,1.66,0,0,1-2.273-.824,1.839,1.839,0,0,1,.782-2.4Zm27.47,35.222-47.225,23.6a6.486,6.486,0,0,1-8.76-3.074l-35.753-74.76a6.761,6.761,0,0,1,3.007-8.953l29.376-14.678,17.849-8.919a6.485,6.485,0,0,1,8.759,3.074l35.754,74.76A6.761,6.761,0,0,1,713.825,515.821Zm.011-7.456-35.754-74.76a3.182,3.182,0,0,0-4.3-1.508l-17.849,8.918-29.375,14.678a3.318,3.318,0,0,0-1.476,4.394l35.754,74.76a3.181,3.181,0,0,0,4.3,1.508l47.225-23.6A3.319,3.319,0,0,0,713.836,508.365Zm-32.213-48.731-38.639,19.338a1.653,1.653,0,0,1-2.236-.786l-7.928-16.6a1.73,1.73,0,0,1,.768-2.289l38.639-19.338a1.653,1.653,0,0,1,2.236.785l7.928,16.6A1.731,1.731,0,0,1,681.623,459.634Zm-2.97-2.323-6.459-13.529-35.636,17.835,6.459,13.529Zm76.009,51.541a1.565,1.565,0,0,1,2.291,0,1.762,1.762,0,0,1,0,2.406l-8.85,9.295a1.565,1.565,0,0,1-2.291,0l-2.884-3.029a1.764,1.764,0,0,1,0-2.407,1.566,1.566,0,0,1,2.291,0l1.738,1.826Zm0-21.588a1.566,1.566,0,0,1,2.291,0,1.762,1.762,0,0,1,0,2.406l-8.85,9.3a1.566,1.566,0,0,1-2.291,0l-2.883-3.029a1.763,1.763,0,0,1,0-2.407,1.566,1.566,0,0,1,2.291,0l1.738,1.826Zm0-24.127a1.565,1.565,0,0,1,2.291,0,1.762,1.762,0,0,1,0,2.406l-8.85,9.3a1.566,1.566,0,0,1-2.291,0l-2.883-3.029a1.763,1.763,0,0,1,0-2.407,1.566,1.566,0,0,1,2.291,0l1.738,1.826Zm0-22.857a1.565,1.565,0,0,1,2.291,0,1.762,1.762,0,0,1,0,2.406l-8.85,9.295a1.565,1.565,0,0,1-2.291,0l-2.883-3.029a1.762,1.762,0,0,1,0-2.406,1.565,1.565,0,0,1,2.291,0l1.738,1.826Zm-50.506,87.077a1.294,1.294,0,1,1,.007-2.5l27.926.045a1.293,1.293,0,1,1-.007,2.495Zm15.072-11.429c-.959,0-1.734-.564-1.729-1.253s.785-1.245,1.745-1.242l13.994.044c.959,0,1.734.564,1.729,1.253s-.785,1.245-1.745,1.242Zm-.07-12.708c-.922,0-1.665-.563-1.659-1.25s.756-1.24,1.678-1.236l12.883.054c.922,0,1.665.563,1.66,1.25s-.757,1.24-1.679,1.236Zm-4.906-8.889c-.967,0-1.748-.561-1.745-1.248s.792-1.241,1.759-1.238l18.956.054c.968,0,1.749.561,1.745,1.248s-.791,1.241-1.759,1.238Zm-5.111-12.7a1.289,1.289,0,1,1,.01-2.486l22.943.053a1.289,1.289,0,1,1-.009,2.486Zm-6.2-11.429c-.922,0-1.668-.559-1.666-1.246s.752-1.242,1.674-1.24l29.1.053c.922,0,1.668.56,1.666,1.247s-.752,1.241-1.674,1.24Zm-4.958-11.429c-.94,0-1.7-.559-1.7-1.245s.766-1.242,1.706-1.241l35.277.054c.94,0,1.7.559,1.7,1.245s-.765,1.242-1.7,1.241Zm-5.008-10.158c-.93,0-1.683-.559-1.682-1.246s.758-1.242,1.688-1.24l40.3.053c.93,0,1.683.559,1.681,1.245s-.757,1.242-1.688,1.241Zm79.831-30a1.668,1.668,0,1,1,3.336,0L776,556.188a1.68,1.68,0,0,1-1.67,1.689l-112.56-.123a1.692,1.692,0,0,1,0-3.383l110.893.121Zm-7.487,5.076a1.668,1.668,0,1,1,3.336,0l-.133,124.877a1.679,1.679,0,0,1-1.67,1.687l-112.574-.123a1.679,1.679,0,0,1-1.666-1.694l.025-9.018a1.668,1.668,0,1,1,3.336.01l-.02,7.326,109.235.12ZM655.96,391.046l.134,38.177a1.67,1.67,0,0,1-3.339.011l-.141-39.847a1.668,1.668,0,0,1,1.672-1.67l112.7.122a1.668,1.668,0,0,1,1.668,1.665l-.009,8.205a1.67,1.67,0,0,1-3.339,0l.007-6.541Zm40.846,23.323c-.977,0-1.769-.566-1.767-1.263s.794-1.262,1.771-1.262l18.921.015c.977,0,1.769.567,1.768,1.264s-.8,1.262-1.772,1.261Zm0-8.889c-.977,0-1.769-.566-1.767-1.263s.794-1.262,1.771-1.261l18.921.014c.977,0,1.769.567,1.768,1.264s-.8,1.262-1.772,1.261Zm0,19.048c-.977,0-1.768-.566-1.767-1.264S695.833,422,696.81,422l18.921.015c.977,0,1.769.567,1.768,1.264s-.8,1.262-1.772,1.261Zm-9.7,1.285-19.095-.021a1.687,1.687,0,0,1-1.67-1.7l.02-19.432a1.688,1.688,0,0,1,1.675-1.7l19.094.021a1.687,1.687,0,0,1,1.671,1.7l-.021,19.433A1.687,1.687,0,0,1,687.1,425.813Zm-1.652-19.434-15.75-.018-.017,16.029,15.75.017Zm118.78-17.242-2.987,1.741,1.711,3.039,2.987-1.741ZM749.418,423.23l-.526-.93-.854,1.058Zm48.367-34.1a1.7,1.7,0,0,1,.4-.325l5.841-3.4a1.63,1.63,0,0,1,2.245.621l3.346,5.945a1.69,1.69,0,0,1-.61,2.285l-5.213,3.038,2.073,3.5a1.613,1.613,0,0,1-.63,2.241L787.421,412.9a1.73,1.73,0,0,1-2.318-.609,1.613,1.613,0,0,1,.63-2.241l16.341-9.052-1.031-1.741-47.622,27.6a1.68,1.68,0,0,1-2.169-.424l-6.9.642a1.68,1.68,0,0,1-1.53-2.705l5.486-6.8a1.742,1.742,0,0,1,1.492-.639l47.815-27.715A1.625,1.625,0,0,1,797.785,389.129ZM685.047,518.446l-17.515,8.779a1.669,1.669,0,0,1-2.259-.8l-8.041-16.863a1.68,1.68,0,0,1-1.95-.908,1.739,1.739,0,0,1,.5-2.129l-7.989-16.755a1.751,1.751,0,0,1,.776-2.316l39.037-19.564a1.67,1.67,0,0,1,2.259.795l17.477,36.655a1.751,1.751,0,0,1-.775,2.316l-20.935,10.492a1.724,1.724,0,0,1-.3.186A1.744,1.744,0,0,1,685.047,518.446Zm.29-4,18.231-9.136-7.227-15.158-18.466,9.184Zm-3.088,1.548-7.468-15.12-14.5,7.21,7.28,15.269Zm-13.364-34.862,7.472,15.131,18.509-9.2-7.292-15.293ZM665.8,482.68l-14.225,7.129,7.239,15.181,14.454-7.188Zm-1.312,8.416.659-.339a1.66,1.66,0,0,1,2.272.825,1.837,1.837,0,0,1-.781,2.4l-.57.294,1.345,2.7a1.715,1.715,0,0,1-.81,2.312,1.776,1.776,0,0,1-2.356-.795l-1.3-2.614-4.141,2.133a1.66,1.66,0,0,1-2.272-.824,1.838,1.838,0,0,1,.781-2.4l4.053-2.087-1.084-2.18a1.716,1.716,0,0,1,.81-2.313,1.776,1.776,0,0,1,2.355.8Zm7.281,18.986,3.45,1.252a1.756,1.756,0,0,1,1.017,2.2,1.619,1.619,0,0,1-2.083,1.074l-3.523-1.279-.977,2.787a1.708,1.708,0,0,1-2.161,1.035,1.661,1.661,0,0,1-1.055-2.12l1-2.861-1.237-.449a1.756,1.756,0,0,1-1.018-2.2,1.62,1.62,0,0,1,2.083-1.074l1.31.475.7-1.983a1.709,1.709,0,0,1,2.162-1.035,1.66,1.66,0,0,1,1.055,2.119ZM797.832,393.037l-46.384,26.886,1.76,3.109,46.384-26.885Z" fill="#333" clip-rule="evenodd"/>
    </clipPath>
  </defs>
  <g id="Group_6696" data-name="Group 6696" transform="translate(-489.46 -346.003)">
    <g id="Background">
      <rect id="Rectangle_669" data-name="Rectangle 669" width="440" height="252" transform="translate(489.46 346.003)" fill="#dfe2ee"/>
      <g id="Group_6601" data-name="Group 6601">
        <path id="SVGID-47" data-name="SVGID" d="M494.48,366.066a1.2,1.2,0,0,1,0-2.4H599.59a10.469,10.469,0,0,1,10.469,10.469v88.123a10.47,10.47,0,0,1-10.469,10.47H494.48a1.2,1.2,0,0,1,0-2.4H599.59a8.071,8.071,0,0,0,8.07-8.071V374.136a8.07,8.07,0,0,0-8.07-8.07Z" fill="#b4bbc9"/>
        <g id="Group_6600" data-name="Group 6600" clip-path="url(#clip-path)">
          <rect id="Rectangle_670" data-name="Rectangle 670" width="126.451" height="118.735" transform="translate(488.444 358.83)" fill="#b4bbc9"/>
        </g>
      </g>
      <g id="Group_6603" data-name="Group 6603">
        <path id="SVGID-48" data-name="SVGID" d="M494.48,359.619a1.2,1.2,0,0,1,0-2.4H608.86a1.2,1.2,0,0,1,0,2.4Z" fill="#b4bbc9"/>
        <g id="Group_6602" data-name="Group 6602" clip-path="url(#clip-path-2)">
          <rect id="Rectangle_671" data-name="Rectangle 671" width="126.451" height="12.072" transform="translate(488.444 352.384)" fill="#b4bbc9"/>
        </g>
      </g>
      <g id="Group_6605" data-name="Group 6605">
        <path id="SVGID-49" data-name="SVGID" d="M577.185,374.634a1.2,1.2,0,0,1,2.4,0V418.2a1.2,1.2,0,0,1-2.4,0Z" fill="#b4bbc9"/>
        <g id="Group_6604" data-name="Group 6604" clip-path="url(#clip-path-3)">
          <rect id="Rectangle_672" data-name="Rectangle 672" width="12.072" height="55.635" transform="translate(572.349 368.598)" fill="#b4bbc9"/>
        </g>
      </g>
      <g id="Group_6607" data-name="Group 6607">
        <path id="SVGID-50" data-name="SVGID" d="M565.2,374.634a1.2,1.2,0,0,1,2.4,0V418.2a1.2,1.2,0,0,1-2.4,0Z" fill="#b4bbc9"/>
        <g id="Group_6606" data-name="Group 6606" clip-path="url(#clip-path-4)">
          <rect id="Rectangle_673" data-name="Rectangle 673" width="12.072" height="55.635" transform="translate(560.362 368.598)" fill="#b4bbc9"/>
        </g>
      </g>
      <g id="Group_6609" data-name="Group 6609">
        <path id="SVGID-51" data-name="SVGID" d="M553.212,374.634a1.2,1.2,0,0,1,2.4,0V418.2a1.2,1.2,0,0,1-2.4,0Z" fill="#b4bbc9"/>
        <g id="Group_6608" data-name="Group 6608" clip-path="url(#clip-path-5)">
          <rect id="Rectangle_674" data-name="Rectangle 674" width="12.072" height="55.635" transform="translate(548.376 368.598)" fill="#b4bbc9"/>
        </g>
      </g>
      <g id="Group_6611" data-name="Group 6611">
        <path id="SVGID-52" data-name="SVGID" d="M541.226,374.634a1.2,1.2,0,0,1,2.4,0V418.2a1.2,1.2,0,0,1-2.4,0Z" fill="#b4bbc9"/>
        <g id="Group_6610" data-name="Group 6610" clip-path="url(#clip-path-6)">
          <rect id="Rectangle_675" data-name="Rectangle 675" width="12.072" height="55.635" transform="translate(536.39 368.598)" fill="#b4bbc9"/>
        </g>
      </g>
      <g id="Group_6613" data-name="Group 6613">
        <path id="SVGID-53" data-name="SVGID" d="M529.24,374.634a1.2,1.2,0,0,1,2.4,0V418.2a1.2,1.2,0,0,1-2.4,0Z" fill="#b4bbc9"/>
        <g id="Group_6612" data-name="Group 6612" clip-path="url(#clip-path-7)">
          <rect id="Rectangle_676" data-name="Rectangle 676" width="12.072" height="55.635" transform="translate(524.403 368.598)" fill="#b4bbc9"/>
        </g>
      </g>
      <g id="Group_6615" data-name="Group 6615">
        <path id="SVGID-54" data-name="SVGID" d="M517.253,374.634a1.2,1.2,0,0,1,2.4,0V418.2a1.2,1.2,0,0,1-2.4,0Z" fill="#b4bbc9"/>
        <g id="Group_6614" data-name="Group 6614" clip-path="url(#clip-path-8)">
          <rect id="Rectangle_677" data-name="Rectangle 677" width="12.072" height="55.635" transform="translate(512.417 368.598)" fill="#b4bbc9"/>
        </g>
      </g>
      <g id="Group_6617" data-name="Group 6617">
        <path id="SVGID-55" data-name="SVGID" d="M505.267,374.634a1.2,1.2,0,0,1,2.4,0V418.2a1.2,1.2,0,0,1-2.4,0Z" fill="#b4bbc9"/>
        <g id="Group_6616" data-name="Group 6616" clip-path="url(#clip-path-9)">
          <rect id="Rectangle_678" data-name="Rectangle 678" width="12.072" height="55.635" transform="translate(500.431 368.598)" fill="#b4bbc9"/>
        </g>
      </g>
      <g id="Group_6619" data-name="Group 6619">
        <path id="SVGID-56" data-name="SVGID" d="M589.52,407.929a1.2,1.2,0,0,1,0,2.4H494.48a1.2,1.2,0,0,1,0-2.4Z" fill="#b4bbc9"/>
        <g id="Group_6618" data-name="Group 6618" clip-path="url(#clip-path-10)">
          <rect id="Rectangle_679" data-name="Rectangle 679" width="107.111" height="12.072" transform="translate(488.444 403.093)" fill="#b4bbc9"/>
        </g>
      </g>
      <g id="Group_6621" data-name="Group 6621">
        <path id="SVGID-57" data-name="SVGID" d="M589.52,399.454a1.2,1.2,0,0,1,0,2.4H494.48a1.2,1.2,0,0,1,0-2.4Z" fill="#b4bbc9"/>
        <g id="Group_6620" data-name="Group 6620" clip-path="url(#clip-path-11)">
          <rect id="Rectangle_680" data-name="Rectangle 680" width="107.111" height="12.072" transform="translate(488.444 394.618)" fill="#b4bbc9"/>
        </g>
      </g>
      <g id="Group_6623" data-name="Group 6623">
        <path id="SVGID-58" data-name="SVGID" d="M589.52,390.979a1.2,1.2,0,0,1,0,2.4H494.48a1.2,1.2,0,0,1,0-2.4Z" fill="#b4bbc9"/>
        <g id="Group_6622" data-name="Group 6622" clip-path="url(#clip-path-12)">
          <rect id="Rectangle_681" data-name="Rectangle 681" width="107.111" height="12.072" transform="translate(488.444 386.142)" fill="#b4bbc9"/>
        </g>
      </g>
      <g id="Group_6625" data-name="Group 6625">
        <path id="SVGID-59" data-name="SVGID" d="M589.52,382.5a1.2,1.2,0,0,1,0,2.4H494.48a1.2,1.2,0,0,1,0-2.4Z" fill="#b4bbc9"/>
        <g id="Group_6624" data-name="Group 6624" clip-path="url(#clip-path-13)">
          <rect id="Rectangle_682" data-name="Rectangle 682" width="107.111" height="12.072" transform="translate(488.444 377.667)" fill="#b4bbc9"/>
        </g>
      </g>
      <g id="Group_6627" data-name="Group 6627">
        <path id="SVGID-60" data-name="SVGID" d="M588.32,375.834H494.48a1.2,1.2,0,0,1,0-2.4h95.04a1.2,1.2,0,0,1,1.2,1.2V418.2a1.2,1.2,0,0,1-1.2,1.2H494.48a1.2,1.2,0,0,1,0-2.4h93.84Z" fill="#b4bbc9"/>
        <g id="Group_6626" data-name="Group 6626" clip-path="url(#clip-path-14)">
          <rect id="Rectangle_683" data-name="Rectangle 683" width="107.111" height="55.635" transform="translate(488.444 368.598)" fill="#b4bbc9"/>
        </g>
      </g>
      <g id="Group_6629" data-name="Group 6629">
        <path id="SVGID-61" data-name="SVGID" d="M494.48,431.306a1.2,1.2,0,0,1,0-2.4h35.959a1.2,1.2,0,0,1,1.2,1.2v28.725a1.2,1.2,0,0,1-1.2,1.2H494.48a1.2,1.2,0,0,1,0-2.4h34.76V431.306Z" fill="#b4bbc9"/>
        <g id="Group_6628" data-name="Group 6628" clip-path="url(#clip-path-15)">
          <rect id="Rectangle_684" data-name="Rectangle 684" width="48.031" height="40.797" transform="translate(488.444 424.07)" fill="#b4bbc9"/>
        </g>
      </g>
      <g id="Group_6631" data-name="Group 6631">
        <path id="SVGID-62" data-name="SVGID" d="M552.336,545.886a22.262,22.262,0,1,1-25.327-18.7A22.263,22.263,0,0,1,552.336,545.886Zm-2.373.357a19.863,19.863,0,1,0-16.686,22.6A19.863,19.863,0,0,0,549.963,546.243Z" fill="#b4bbc9"/>
        <g id="Group_6630" data-name="Group 6630" clip-path="url(#clip-path-16)">
          <rect id="Rectangle_685" data-name="Rectangle 685" width="54.204" height="54.204" transform="translate(503.219 522.096)" fill="#b4bbc9"/>
        </g>
      </g>
      <g id="Group_6633" data-name="Group 6633">
        <path id="SVGID-63" data-name="SVGID" d="M551.212,544.127a1.2,1.2,0,1,1-.357-2.372l13.959-2.1a4.529,4.529,0,1,1,1.348,8.957l-13.959,2.1a1.2,1.2,0,1,1-.357-2.373l13.959-2.1a2.13,2.13,0,0,0-.634-4.212Z" fill="#b4bbc9"/>
        <g id="Group_6632" data-name="Group 6632" clip-path="url(#clip-path-17)">
          <rect id="Rectangle_686" data-name="Rectangle 686" width="29.857" height="20.795" transform="translate(544.997 534.767)" fill="#b4bbc9"/>
        </g>
      </g>
      <g id="Group_6635" data-name="Group 6635">
        <path id="SVGID-64" data-name="SVGID" d="M559.294,554.834a1.2,1.2,0,1,1,2.372-.357l1.566,10.405a9.8,9.8,0,0,1-8.237,11.154l-40.358,6.073a9.805,9.805,0,0,1-11.154-8.237l-6.072-40.358a9.8,9.8,0,0,1,8.236-11.154l40.358-6.072a9.8,9.8,0,0,1,11.154,8.236l1.675,11.131a1.2,1.2,0,0,1-2.372.357l-1.675-11.131a7.406,7.406,0,0,0-8.425-6.221L506,524.733a7.4,7.4,0,0,0-6.221,8.425l6.073,40.357a7.4,7.4,0,0,0,8.424,6.221l40.358-6.072a7.407,7.407,0,0,0,6.222-8.425Z" fill="#b4bbc9"/>
        <g id="Group_6634" data-name="Group 6634" clip-path="url(#clip-path-18)">
          <rect id="Rectangle_687" data-name="Rectangle 687" width="75.715" height="75.715" transform="translate(492.464 511.341)" fill="#b4bbc9"/>
        </g>
      </g>
      <g id="Group_6637" data-name="Group 6637">
        <path id="SVGID-65" data-name="SVGID" d="M589.889,496.983a10.726,10.726,0,1,1-.107-1.525A10.887,10.887,0,0,1,589.889,496.983Zm-2.4,0a8.347,8.347,0,1,0-8.341,8.342A8.37,8.37,0,0,0,587.49,496.983Z" fill="#b4bbc9"/>
        <g id="Group_6636" data-name="Group 6636" clip-path="url(#clip-path-19)">
          <rect id="Rectangle_688" data-name="Rectangle 688" width="31.154" height="31.154" transform="translate(563.572 481.406)" fill="#b4bbc9"/>
        </g>
      </g>
      <g id="Group_6639" data-name="Group 6639">
        <path id="SVGID-66" data-name="SVGID" d="M593.354,499.892a1.2,1.2,0,0,1,1.9-1.467,10.741,10.741,0,0,1-16.067,14.188,1.2,1.2,0,1,1,1.689-1.7,8.342,8.342,0,0,0,12.479-11.018Z" fill="#b4bbc9"/>
        <g id="Group_6638" data-name="Group 6638" clip-path="url(#clip-path-20)">
          <rect id="Rectangle_689" data-name="Rectangle 689" width="28.332" height="27.442" transform="translate(573.995 493.123)" fill="#b4bbc9"/>
        </g>
      </g>
      <g id="Group_6641" data-name="Group 6641">
        <path id="SVGID-67" data-name="SVGID" d="M620.583,492.19a10.741,10.741,0,1,1-10.741-10.74A10.741,10.741,0,0,1,620.583,492.19Zm-2.4,0a8.342,8.342,0,1,0-8.342,8.342A8.342,8.342,0,0,0,618.184,492.19Z" fill="#b4bbc9"/>
        <g id="Group_6640" data-name="Group 6640" clip-path="url(#clip-path-21)">
          <rect id="Rectangle_690" data-name="Rectangle 690" width="31.154" height="31.154" transform="translate(594.265 476.614)" fill="#b4bbc9"/>
        </g>
      </g>
      <g id="Group_6643" data-name="Group 6643">
        <path id="SVGID-68" data-name="SVGID" d="M620.583,524.192a10.741,10.741,0,1,1-10.741-10.741A10.74,10.74,0,0,1,620.583,524.192Zm-2.4,0a8.342,8.342,0,1,0-8.342,8.341A8.341,8.341,0,0,0,618.184,524.192Z" fill="#b4bbc9"/>
        <g id="Group_6642" data-name="Group 6642" clip-path="url(#clip-path-22)">
          <rect id="Rectangle_691" data-name="Rectangle 691" width="31.154" height="31.154" transform="translate(594.265 508.615)" fill="#b4bbc9"/>
        </g>
      </g>
      <g id="Group_6686" data-name="Group 6686">
        <g id="Group_6645" data-name="Group 6645">
          <path id="SVGID-69" data-name="SVGID" d="M824.716,560.09,800.7,550.16a8.837,8.837,0,0,1-4.792-11.543l23.738-57.428a8.838,8.838,0,0,1,11.544-4.792l24.021,9.929A8.837,8.837,0,0,1,860,497.87L836.26,555.3A8.839,8.839,0,0,1,824.716,560.09Zm.921-2.227a6.428,6.428,0,0,0,8.4-3.485l23.738-57.429a6.429,6.429,0,0,0-3.485-8.4l-24.022-9.929a6.428,6.428,0,0,0-8.4,3.486L798.13,539.537a6.429,6.429,0,0,0,3.485,8.4Z" fill="#b4bbc9"/>
          <g id="Group_6644" data-name="Group 6644" clip-path="url(#clip-path-23)">
            <rect id="Rectangle_692" data-name="Rectangle 692" width="75.152" height="94.751" transform="translate(790.374 470.868)" fill="#b4bbc9"/>
          </g>
        </g>
        <g id="Group_6647" data-name="Group 6647">
          <path id="SVGID-70" data-name="SVGID" d="M814.486,550.818a5.075,5.075,0,1,1,6.629-2.751A5.074,5.074,0,0,1,814.486,550.818Zm2.957-7.154a2.666,2.666,0,1,0,1.445,3.483A2.666,2.666,0,0,0,817.443,543.664Z" fill="#b4bbc9"/>
          <g id="Group_6646" data-name="Group 6646" clip-path="url(#clip-path-24)">
            <rect id="Rectangle_693" data-name="Rectangle 693" width="19.866" height="19.866" transform="translate(806.491 536.195)" fill="#b4bbc9"/>
          </g>
        </g>
        <g id="Group_6649" data-name="Group 6649">
          <path id="SVGID-71" data-name="SVGID" d="M835.985,488.51a1.2,1.2,0,1,1,.92-2.226l7.269,3.005a1.2,1.2,0,0,1-.92,2.226Z" fill="#b4bbc9"/>
          <g id="Group_6648" data-name="Group 6648" clip-path="url(#clip-path-25)">
            <rect id="Rectangle_694" data-name="Rectangle 694" width="19.392" height="15.128" transform="translate(830.383 481.336)" fill="#b4bbc9"/>
          </g>
        </g>
        <g id="Group_6651" data-name="Group 6651">
          <path id="SVGID-72" data-name="SVGID" d="M800.184,531.414a1.2,1.2,0,1,1,.92-2.226l38.13,15.76a1.2,1.2,0,0,1-.92,2.227Z" fill="#b4bbc9"/>
          <g id="Group_6650" data-name="Group 6650" clip-path="url(#clip-path-26)">
            <rect id="Rectangle_695" data-name="Rectangle 695" width="50.253" height="27.884" transform="translate(794.583 524.239)" fill="#b4bbc9"/>
          </g>
        </g>
        <g id="Group_6653" data-name="Group 6653">
          <path id="SVGID-73" data-name="SVGID" d="M817.824,488.737a1.2,1.2,0,1,1,.921-2.226l38.129,15.76a1.2,1.2,0,0,1-.92,2.227Z" fill="#b4bbc9"/>
          <g id="Group_6652" data-name="Group 6652" clip-path="url(#clip-path-27)">
            <rect id="Rectangle_696" data-name="Rectangle 696" width="50.253" height="27.883" transform="translate(812.223 481.563)" fill="#b4bbc9"/>
          </g>
        </g>
        <g id="Group_6655" data-name="Group 6655">
          <path id="SVGID-74" data-name="SVGID" d="M923.346,580.589a1.2,1.2,0,0,1,.469,2.363l-29.2,5.8a11.345,11.345,0,0,1-13.351-8.928l-5.9-29.735-5.95-29.974-.152-.767a11.357,11.357,0,0,1,8.928-13.351l40.9-8.119a11.323,11.323,0,0,1,4.511.016,1.2,1.2,0,1,1-.489,2.359,8.909,8.909,0,0,0-3.553-.012l-40.9,8.119a8.948,8.948,0,0,0-7.034,10.519l.152.767,5.95,29.974,5.9,29.735a8.935,8.935,0,0,0,10.519,7.034Z" fill="#b4bbc9"/>
          <g id="Group_6654" data-name="Group 6654" clip-path="url(#clip-path-28)">
            <rect id="Rectangle_697" data-name="Rectangle 697" width="65.462" height="101.025" transform="translate(864.18 492.799)" fill="#b4bbc9"/>
          </g>
        </g>
        <g id="Group_6657" data-name="Group 6657">
          <path id="SVGID-75" data-name="SVGID" d="M868.921,527.269a1.205,1.205,0,0,1-.469-2.364l6.034-1.2a1.2,1.2,0,0,1,.469,2.363Z" fill="#b4bbc9"/>
          <g id="Group_6656" data-name="Group 6656" clip-path="url(#clip-path-29)">
            <rect id="Rectangle_698" data-name="Rectangle 698" width="18.157" height="13.321" transform="translate(862.625 518.828)" fill="#b4bbc9"/>
          </g>
        </g>
        <g id="Group_6659" data-name="Group 6659">
          <path id="SVGID-76" data-name="SVGID" d="M870.969,537.588a1.2,1.2,0,1,1-.469-2.363l6.034-1.2A1.2,1.2,0,0,1,877,536.39Z" fill="#b4bbc9"/>
          <g id="Group_6658" data-name="Group 6658" clip-path="url(#clip-path-30)">
            <rect id="Rectangle_699" data-name="Rectangle 699" width="18.157" height="13.32" transform="translate(864.673 529.147)" fill="#b4bbc9"/>
          </g>
        </g>
        <g id="Group_6661" data-name="Group 6661">
          <path id="SVGID-77" data-name="SVGID" d="M873.017,547.907a1.2,1.2,0,0,1-.468-2.363l6.034-1.2a1.2,1.2,0,1,1,.469,2.363Z" fill="#b4bbc9"/>
          <g id="Group_6660" data-name="Group 6660" clip-path="url(#clip-path-31)">
            <rect id="Rectangle_700" data-name="Rectangle 700" width="18.157" height="13.32" transform="translate(866.722 539.466)" fill="#b4bbc9"/>
          </g>
        </g>
        <g id="Group_6663" data-name="Group 6663">
          <path id="SVGID-78" data-name="SVGID" d="M875.066,558.226a1.2,1.2,0,0,1-.469-2.363l6.034-1.2a1.2,1.2,0,1,1,.469,2.363Z" fill="#b4bbc9"/>
          <g id="Group_6662" data-name="Group 6662" clip-path="url(#clip-path-32)">
            <rect id="Rectangle_701" data-name="Rectangle 701" width="18.157" height="13.321" transform="translate(868.77 549.786)" fill="#b4bbc9"/>
          </g>
        </g>
        <g id="Group_6665" data-name="Group 6665">
          <path id="SVGID-79" data-name="SVGID" d="M877.114,568.546a1.2,1.2,0,1,1-.469-2.363l6.034-1.2a1.2,1.2,0,0,1,.469,2.363Z" fill="#b4bbc9"/>
          <g id="Group_6664" data-name="Group 6664" clip-path="url(#clip-path-33)">
            <rect id="Rectangle_702" data-name="Rectangle 702" width="18.157" height="13.321" transform="translate(870.818 560.105)" fill="#b4bbc9"/>
          </g>
        </g>
        <g id="Group_6667" data-name="Group 6667">
          <path id="SVGID-80" data-name="SVGID" d="M879.163,578.865a1.2,1.2,0,0,1-.469-2.363l6.034-1.2a1.2,1.2,0,0,1,.469,2.363Z" fill="#b4bbc9"/>
          <g id="Group_6666" data-name="Group 6666" clip-path="url(#clip-path-34)">
            <rect id="Rectangle_703" data-name="Rectangle 703" width="18.157" height="13.321" transform="translate(872.867 570.424)" fill="#b4bbc9"/>
          </g>
        </g>
        <g id="Group_6669" data-name="Group 6669">
          <path id="SVGID-81" data-name="SVGID" d="M897.189,542.88a1.2,1.2,0,0,1-.469-2.363l15.4-3.058a1.2,1.2,0,0,1,.469,2.363Z" fill="#b4bbc9"/>
          <g id="Group_6668" data-name="Group 6668" clip-path="url(#clip-path-35)">
            <rect id="Rectangle_704" data-name="Rectangle 704" width="27.525" height="15.18" transform="translate(890.893 532.579)" fill="#b4bbc9"/>
          </g>
        </g>
        <g id="Group_6671" data-name="Group 6671">
          <path id="SVGID-82" data-name="SVGID" d="M893.792,550.708a1.2,1.2,0,1,1-.469-2.363l24.93-4.949a1.2,1.2,0,1,1,.469,2.363Z" fill="#b4bbc9"/>
          <g id="Group_6670" data-name="Group 6670" clip-path="url(#clip-path-36)">
            <rect id="Rectangle_705" data-name="Rectangle 705" width="37.053" height="17.072" transform="translate(887.496 538.517)" fill="#b4bbc9"/>
          </g>
        </g>
        <g id="Group_6673" data-name="Group 6673">
          <path id="SVGID-83" data-name="SVGID" d="M923.244,427.354a1,1,0,1,1,.591,1.908l-89.123,27.615a1,1,0,0,1-1.249-.658l-18.407-59.4a1,1,0,0,1,1.258-1.246l64.841,20.787,41.726-53.808a1,1,0,0,1,1.578,1.223L882.3,418.131a1,1,0,0,1-1.093.339l-63.68-20.415,17.544,56.619Z" fill="#b4bbc9"/>
          <g id="Group_6672" data-name="Group 6672" clip-path="url(#clip-path-37)">
            <rect id="Rectangle_706" data-name="Rectangle 706" width="119.372" height="104.475" transform="translate(810.153 357.304)" fill="#b4bbc9"/>
          </g>
        </g>
        <g id="Group_6675" data-name="Group 6675">
          <path id="SVGID-84" data-name="SVGID" d="M911.319,357.955a1,1,0,0,1,1.908-.591l1.616,5.216a1,1,0,0,1-1.907.591Z" fill="#b4bbc9"/>
          <g id="Group_6674" data-name="Group 6674" clip-path="url(#clip-path-38)">
            <rect id="Rectangle_707" data-name="Rectangle 707" width="13.327" height="16.927" transform="translate(906.418 351.804)" fill="#b4bbc9"/>
          </g>
        </g>
        <g id="Group_6677" data-name="Group 6677">
          <path id="SVGID-85" data-name="SVGID" d="M824.87,390.459a1,1,0,1,1-1.907.591l-7.969-25.718a1,1,0,0,1,.658-1.249l23.811-7.378a1,1,0,0,1,.591,1.907L817.2,365.7Z" fill="#b4bbc9"/>
          <g id="Group_6676" data-name="Group 6676" clip-path="url(#clip-path-39)">
            <rect id="Rectangle_708" data-name="Rectangle 708" width="35.522" height="44.807" transform="translate(810.092 351.803)" fill="#b4bbc9"/>
          </g>
        </g>
        <g id="Group_6679" data-name="Group 6679">
          <path id="SVGID-86" data-name="SVGID" d="M830.527,372.051a1,1,0,0,1-.591-1.907l43.373-13.44a1,1,0,0,1,.591,1.908Z" fill="#b4bbc9"/>
          <g id="Group_6678" data-name="Group 6678" clip-path="url(#clip-path-40)">
            <rect id="Rectangle_709" data-name="Rectangle 709" width="55.084" height="25.15" transform="translate(824.376 351.803)" fill="#b4bbc9"/>
          </g>
        </g>
        <g id="Group_6681" data-name="Group 6681">
          <path id="SVGID-87" data-name="SVGID" d="M833.823,382.689a1,1,0,1,1-.591-1.907l67.335-20.864a1,1,0,0,1,.591,1.907Z" fill="#b4bbc9"/>
          <g id="Group_6680" data-name="Group 6680" clip-path="url(#clip-path-41)">
            <rect id="Rectangle_710" data-name="Rectangle 710" width="79.045" height="32.575" transform="translate(827.672 355.016)" fill="#b4bbc9"/>
          </g>
        </g>
        <g id="Group_6683" data-name="Group 6683">
          <path id="SVGID-88" data-name="SVGID" d="M837.119,393.327a1,1,0,1,1-.591-1.907l67.335-20.864a1,1,0,1,1,.591,1.907Z" fill="#b4bbc9"/>
          <g id="Group_6682" data-name="Group 6682" clip-path="url(#clip-path-42)">
            <rect id="Rectangle_711" data-name="Rectangle 711" width="79.045" height="32.575" transform="translate(830.969 365.654)" fill="#b4bbc9"/>
          </g>
        </g>
        <g id="Group_6685" data-name="Group 6685">
          <path id="SVGID-89" data-name="SVGID" d="M855.8,399.2a1,1,0,1,1-.591-1.908l36.574-11.333a1,1,0,1,1,.591,1.907Z" fill="#b4bbc9"/>
          <g id="Group_6684" data-name="Group 6684" clip-path="url(#clip-path-43)">
            <rect id="Rectangle_712" data-name="Rectangle 712" width="48.285" height="23.044" transform="translate(849.645 381.057)" fill="#b4bbc9"/>
          </g>
        </g>
      </g>
    </g>
    <g id="Fill">
      <g id="Group_6691" data-name="Group 6691">
        <g id="Group_6690" data-name="Group 6690">
          <path id="SVGID-90" data-name="SVGID" d="M676.322,430.6a5.031,5.031,0,0,0-4.08.109l-16.993,8.981-.139-49.524,13.109.013Zm75.038-4.433.139.255.547-.329Zm-3.062.33-4.6.494,5.319-7.619,3.34,6.532,47.446-28.569,5.886-3.544-1.508-2.767,1.044-.628a1.585,1.585,0,0,1,1.258-.169,1.673,1.673,0,0,1,1,.815l3.371,6.188a1.821,1.821,0,0,1,.162,1.323,1.734,1.734,0,0,1-.776,1.055l-4.515,2.719,1.966,3.609a1.825,1.825,0,0,1,.161,1.323,1.731,1.731,0,0,1-.776,1.055L789.7,418.788a1.587,1.587,0,0,1-.824.23,1.643,1.643,0,0,1-1.438-.876,1.793,1.793,0,0,1,.614-2.379l15.95-9.6-1.142-2.1-26.713,16.084-.151,128.891h.152l-.009,8.752h-.154l-8.561-8.762.145-123.715-11.511,6.93c-.011.007-.023.012-.034.018-.035.02-.07.037-.105.054s-.058.028-.088.04-.072.026-.108.038-.062.021-.094.029-.073.016-.11.023-.065.012-.1.016l-.027.005-8.623.871c-.054.005-.108.008-.161.008a1.647,1.647,0,0,1-1.451-.9,1.817,1.817,0,0,1,.147-1.912l2.8-3.758Zm-81.48,111.207,10.785-5.45-9.545,4.7s-4.6,2.356-7.085-3L624.488,459.78s-2.3-4.444,2.324-6.677l14.541-7.06,41.182,83.722,27.511-13.9s6.624-2.221,3.7-8.447l-36.65-77.882a9.5,9.5,0,0,1,8.344,5.544l33.592,71.373a10.042,10.042,0,0,1-4.388,13.2l-19.853,10.032,3.993,20.486-43.672-.047.023-21.323,3.692,7.443a4.881,4.881,0,0,0,6.473,2.192Z" fill="#526680" fill-rule="evenodd"/>
          <g id="Group_6689" data-name="Group 6689" clip-path="url(#clip-path-44)">
            <g id="Group_6688" data-name="Group 6688">
              <rect id="SVGID-91" data-name="SVGID" width="199.644" height="199.681" transform="translate(616.429 372.698)" fill="#526680"/>
              <g id="Group_6687" data-name="Group 6687" clip-path="url(#clip-path-45)">
                <rect id="Rectangle_713" data-name="Rectangle 713" width="199.644" height="180.1" transform="translate(617.677 383.93)" fill="#526680"/>
              </g>
            </g>
          </g>
        </g>
      </g>
    </g>
    <g id="Outlines">
      <g id="Group_6695" data-name="Group 6695">
        <g id="Group_6694" data-name="Group 6694">
          <path id="SVGID-92" data-name="SVGID" d="M693.842,497.107a1.659,1.659,0,0,1,2.272.824,1.838,1.838,0,0,1-.782,2.4l-7.831,4.033a1.659,1.659,0,0,1-2.272-.824,1.838,1.838,0,0,1,.781-2.4Zm1.247,3.809a1.661,1.661,0,0,1,2.273.824,1.839,1.839,0,0,1-.782,2.4l-7.831,4.034a1.66,1.66,0,0,1-2.272-.824,1.837,1.837,0,0,1,.781-2.4ZM686.355,480.6a1.659,1.659,0,0,1,2.272.824,1.838,1.838,0,0,1-.781,2.4l-7.831,4.033a1.66,1.66,0,0,1-2.273-.824,1.839,1.839,0,0,1,.782-2.4Zm27.47,35.222-47.225,23.6a6.486,6.486,0,0,1-8.76-3.074l-35.753-74.76a6.761,6.761,0,0,1,3.007-8.953l29.376-14.678,17.849-8.919a6.485,6.485,0,0,1,8.759,3.074l35.754,74.76A6.761,6.761,0,0,1,713.825,515.821Zm.011-7.456-35.754-74.76a3.182,3.182,0,0,0-4.3-1.508l-17.849,8.918-29.375,14.678a3.318,3.318,0,0,0-1.476,4.394l35.754,74.76a3.181,3.181,0,0,0,4.3,1.508l47.225-23.6A3.319,3.319,0,0,0,713.836,508.365Zm-32.213-48.731-38.639,19.338a1.653,1.653,0,0,1-2.236-.786l-7.928-16.6a1.73,1.73,0,0,1,.768-2.289l38.639-19.338a1.653,1.653,0,0,1,2.236.785l7.928,16.6A1.731,1.731,0,0,1,681.623,459.634Zm-2.97-2.323-6.459-13.529-35.636,17.835,6.459,13.529Zm76.009,51.541a1.565,1.565,0,0,1,2.291,0,1.762,1.762,0,0,1,0,2.406l-8.85,9.295a1.565,1.565,0,0,1-2.291,0l-2.884-3.029a1.764,1.764,0,0,1,0-2.407,1.566,1.566,0,0,1,2.291,0l1.738,1.826Zm0-21.588a1.566,1.566,0,0,1,2.291,0,1.762,1.762,0,0,1,0,2.406l-8.85,9.3a1.566,1.566,0,0,1-2.291,0l-2.883-3.029a1.763,1.763,0,0,1,0-2.407,1.566,1.566,0,0,1,2.291,0l1.738,1.826Zm0-24.127a1.565,1.565,0,0,1,2.291,0,1.762,1.762,0,0,1,0,2.406l-8.85,9.3a1.566,1.566,0,0,1-2.291,0l-2.883-3.029a1.763,1.763,0,0,1,0-2.407,1.566,1.566,0,0,1,2.291,0l1.738,1.826Zm0-22.857a1.565,1.565,0,0,1,2.291,0,1.762,1.762,0,0,1,0,2.406l-8.85,9.295a1.565,1.565,0,0,1-2.291,0l-2.883-3.029a1.762,1.762,0,0,1,0-2.406,1.565,1.565,0,0,1,2.291,0l1.738,1.826Zm-50.506,87.077a1.294,1.294,0,1,1,.007-2.5l27.926.045a1.293,1.293,0,1,1-.007,2.495Zm15.072-11.429c-.959,0-1.734-.564-1.729-1.253s.785-1.245,1.745-1.242l13.994.044c.959,0,1.734.564,1.729,1.253s-.785,1.245-1.745,1.242Zm-.07-12.708c-.922,0-1.665-.563-1.659-1.25s.756-1.24,1.678-1.236l12.883.054c.922,0,1.665.563,1.66,1.25s-.757,1.24-1.679,1.236Zm-4.906-8.889c-.967,0-1.748-.561-1.745-1.248s.792-1.241,1.759-1.238l18.956.054c.968,0,1.749.561,1.745,1.248s-.791,1.241-1.759,1.238Zm-5.111-12.7a1.289,1.289,0,1,1,.01-2.486l22.943.053a1.289,1.289,0,1,1-.009,2.486Zm-6.2-11.429c-.922,0-1.668-.559-1.666-1.246s.752-1.242,1.674-1.24l29.1.053c.922,0,1.668.56,1.666,1.247s-.752,1.241-1.674,1.24Zm-4.958-11.429c-.94,0-1.7-.559-1.7-1.245s.766-1.242,1.706-1.241l35.277.054c.94,0,1.7.559,1.7,1.245s-.765,1.242-1.7,1.241Zm-5.008-10.158c-.93,0-1.683-.559-1.682-1.246s.758-1.242,1.688-1.24l40.3.053c.93,0,1.683.559,1.681,1.245s-.757,1.242-1.688,1.241Zm79.831-30a1.668,1.668,0,1,1,3.336,0L776,556.188a1.68,1.68,0,0,1-1.67,1.689l-112.56-.123a1.692,1.692,0,0,1,0-3.383l110.893.121Zm-7.487,5.076a1.668,1.668,0,1,1,3.336,0l-.133,124.877a1.679,1.679,0,0,1-1.67,1.687l-112.574-.123a1.679,1.679,0,0,1-1.666-1.694l.025-9.018a1.668,1.668,0,1,1,3.336.01l-.02,7.326,109.235.12ZM655.96,391.046l.134,38.177a1.67,1.67,0,0,1-3.339.011l-.141-39.847a1.668,1.668,0,0,1,1.672-1.67l112.7.122a1.668,1.668,0,0,1,1.668,1.665l-.009,8.205a1.67,1.67,0,0,1-3.339,0l.007-6.541Zm40.846,23.323c-.977,0-1.769-.566-1.767-1.263s.794-1.262,1.771-1.262l18.921.015c.977,0,1.769.567,1.768,1.264s-.8,1.262-1.772,1.261Zm0-8.889c-.977,0-1.769-.566-1.767-1.263s.794-1.262,1.771-1.261l18.921.014c.977,0,1.769.567,1.768,1.264s-.8,1.262-1.772,1.261Zm0,19.048c-.977,0-1.768-.566-1.767-1.264S695.833,422,696.81,422l18.921.015c.977,0,1.769.567,1.768,1.264s-.8,1.262-1.772,1.261Zm-9.7,1.285-19.095-.021a1.687,1.687,0,0,1-1.67-1.7l.02-19.432a1.688,1.688,0,0,1,1.675-1.7l19.094.021a1.687,1.687,0,0,1,1.671,1.7l-.021,19.433A1.687,1.687,0,0,1,687.1,425.813Zm-1.652-19.434-15.75-.018-.017,16.029,15.75.017Zm118.78-17.242-2.987,1.741,1.711,3.039,2.987-1.741ZM749.418,423.23l-.526-.93-.854,1.058Zm48.367-34.1a1.7,1.7,0,0,1,.4-.325l5.841-3.4a1.63,1.63,0,0,1,2.245.621l3.346,5.945a1.69,1.69,0,0,1-.61,2.285l-5.213,3.038,2.073,3.5a1.613,1.613,0,0,1-.63,2.241L787.421,412.9a1.73,1.73,0,0,1-2.318-.609,1.613,1.613,0,0,1,.63-2.241l16.341-9.052-1.031-1.741-47.622,27.6a1.68,1.68,0,0,1-2.169-.424l-6.9.642a1.68,1.68,0,0,1-1.53-2.705l5.486-6.8a1.742,1.742,0,0,1,1.492-.639l47.815-27.715A1.625,1.625,0,0,1,797.785,389.129ZM685.047,518.446l-17.515,8.779a1.669,1.669,0,0,1-2.259-.8l-8.041-16.863a1.68,1.68,0,0,1-1.95-.908,1.739,1.739,0,0,1,.5-2.129l-7.989-16.755a1.751,1.751,0,0,1,.776-2.316l39.037-19.564a1.67,1.67,0,0,1,2.259.795l17.477,36.655a1.751,1.751,0,0,1-.775,2.316l-20.935,10.492a1.724,1.724,0,0,1-.3.186A1.744,1.744,0,0,1,685.047,518.446Zm.29-4,18.231-9.136-7.227-15.158-18.466,9.184Zm-3.088,1.548-7.468-15.12-14.5,7.21,7.28,15.269Zm-13.364-34.862,7.472,15.131,18.509-9.2-7.292-15.293ZM665.8,482.68l-14.225,7.129,7.239,15.181,14.454-7.188Zm-1.312,8.416.659-.339a1.66,1.66,0,0,1,2.272.825,1.837,1.837,0,0,1-.781,2.4l-.57.294,1.345,2.7a1.715,1.715,0,0,1-.81,2.312,1.776,1.776,0,0,1-2.356-.795l-1.3-2.614-4.141,2.133a1.66,1.66,0,0,1-2.272-.824,1.838,1.838,0,0,1,.781-2.4l4.053-2.087-1.084-2.18a1.716,1.716,0,0,1,.81-2.313,1.776,1.776,0,0,1,2.355.8Zm7.281,18.986,3.45,1.252a1.756,1.756,0,0,1,1.017,2.2,1.619,1.619,0,0,1-2.083,1.074l-3.523-1.279-.977,2.787a1.708,1.708,0,0,1-2.161,1.035,1.661,1.661,0,0,1-1.055-2.12l1-2.861-1.237-.449a1.756,1.756,0,0,1-1.018-2.2,1.62,1.62,0,0,1,2.083-1.074l1.31.475.7-1.983a1.709,1.709,0,0,1,2.162-1.035,1.66,1.66,0,0,1,1.055,2.119ZM797.832,393.037l-46.384,26.886,1.76,3.109,46.384-26.885Z" fill="#333" fill-rule="evenodd"/>
          <g id="Group_6693" data-name="Group 6693" clip-path="url(#clip-path-46)">
            <g id="Group_6692" data-name="Group 6692">
              <rect id="SVGID-93" data-name="SVGID" width="199.644" height="199.681" transform="translate(616.429 372.698)" fill="#333"/>
            </g>
          </g>
        </g>
      </g>
    </g>
  </g>
</svg>
