<svg xmlns="http://www.w3.org/2000/svg" width="440" height="252" viewBox="0 0 440 252">
  <g id="Group_6489" data-name="Group 6489" transform="translate(-968.936 -1.197)">
    <g id="Background">
      <rect id="Rectangle_667" data-name="Rectangle 667" width="440" height="252" transform="translate(968.936 1.197)" fill="#fcf4e3"/>
      <g id="Group_6411" data-name="Group 6411">
        <g id="Group_6370" data-name="Group 6370">
          <path id="Path_5458" data-name="Path 5458" d="M1167.231,189.459H1031.637a1,1,0,0,1,0-2h135.594a1,1,0,0,1,0,2Z" fill="#f5e2b5"/>
        </g>
        <g id="Group_6371" data-name="Group 6371">
          <path id="Path_5459" data-name="Path 5459" d="M1308.893,189.459H1215.85a1,1,0,0,1,0-2h93.043a1,1,0,0,1,0,2Z" fill="#f5e2b5"/>
        </g>
        <g id="Group_6372" data-name="Group 6372">
          <path id="Path_5460" data-name="Path 5460" d="M1397.127,189.458h-30.783a1,1,0,0,1,0-2h30.783a1,1,0,0,1,0,2Z" fill="#f5e2b5"/>
        </g>
        <g id="Group_6373" data-name="Group 6373">
          <path id="Path_5461" data-name="Path 5461" d="M1068.982,99.25a1,1,0,0,1-1-1V50.374H979.511a1,1,0,0,1,0-2h89.471a1,1,0,0,1,1,1V98.25A1,1,0,0,1,1068.982,99.25Z" fill="#f5e2b5"/>
        </g>
        <g id="Group_6374" data-name="Group 6374">
          <path id="Path_5462" data-name="Path 5462" d="M1020.913,113.419h-41.4a1,1,0,0,1,0-2h41.4a1,1,0,0,1,0,2Z" fill="#f5e2b5"/>
        </g>
        <g id="Group_6375" data-name="Group 6375">
          <path id="Path_5463" data-name="Path 5463" d="M1018.329,120.7H979.512a1,1,0,0,1,0-2h38.817a1,1,0,0,1,0,2Z" fill="#f5e2b5"/>
        </g>
        <g id="Group_6376" data-name="Group 6376">
          <path id="Path_5464" data-name="Path 5464" d="M1076.336,101.412a1,1,0,0,1-1-1V43.1H979.692a1,1,0,0,1,0-2h96.644a1,1,0,0,1,1,1v58.315A1,1,0,0,1,1076.336,101.412Z" fill="#f5e2b5"/>
        </g>
        <g id="Group_6377" data-name="Group 6377">
          <path id="Path_5465" data-name="Path 5465" d="M1053.549,96.257H979.69a1,1,0,0,1,0-2h72.859V66.828H979.69a1,1,0,0,1,0-2h73.859a1,1,0,0,1,1,1V95.257A1,1,0,0,1,1053.549,96.257Z" fill="#f5e2b5"/>
        </g>
        <g id="Group_6380" data-name="Group 6380">
          <g id="Group_6378" data-name="Group 6378">
            <path id="Path_5466" data-name="Path 5466" d="M1035.211,37.757a1,1,0,0,1-.7-.287l-21.282-20.922a1,1,0,1,1,1.4-1.425l21.283,20.921a1,1,0,0,1-.7,1.713Z" fill="#f5e2b5"/>
          </g>
          <g id="Group_6379" data-name="Group 6379">
            <path id="Path_5467" data-name="Path 5467" d="M992.647,37.757a1,1,0,0,1-.7-1.713l21.282-20.921a1,1,0,1,1,1.4,1.425L993.348,37.47A1,1,0,0,1,992.647,37.757Z" fill="#f5e2b5"/>
          </g>
        </g>
        <g id="Group_6381" data-name="Group 6381">
          <path id="Path_5468" data-name="Path 5468" d="M1056.993,223.122H994.475a1,1,0,0,1-1-1v-1.5a11.174,11.174,0,0,1,11.161-11.161h42.2a11.174,11.174,0,0,1,11.16,11.161v1.5A1,1,0,0,1,1056.993,223.122Zm-61.518-2h60.518v-.5a9.172,9.172,0,0,0-9.16-9.161h-42.2a9.171,9.171,0,0,0-9.161,9.161Z" fill="#f5e2b5"/>
        </g>
        <g id="Group_6384" data-name="Group 6384">
          <g id="Group_6382" data-name="Group 6382">
            <path id="Path_5469" data-name="Path 5469" d="M1029.388,208.268a1,1,0,0,1-.95-.689l-12.94-39.656a1,1,0,0,1,1.9-.621l12.94,39.655a1,1,0,0,1-.95,1.311Z" fill="#f5e2b5"/>
          </g>
          <g id="Group_6383" data-name="Group 6383">
            <path id="Path_5470" data-name="Path 5470" d="M1021.985,208.268a1,1,0,0,1-.951-.69l-12.359-37.906a1,1,0,0,1,1.9-.619l12.358,37.9a1,1,0,0,1-.951,1.31Z" fill="#f5e2b5"/>
          </g>
        </g>
        <g id="Group_6387" data-name="Group 6387">
          <g id="Group_6385" data-name="Group 6385">
            <path id="Path_5471" data-name="Path 5471" d="M1016.767,155.616a1.015,1.015,0,0,1-.344-.061,1,1,0,0,1-.595-1.283l13.809-37.742a1,1,0,0,1,.94-.657h4.029a1,1,0,0,1,0,2h-3.33l-13.569,37.086A1,1,0,0,1,1016.767,155.616Z" fill="#f5e2b5"/>
          </g>
          <g id="Group_6386" data-name="Group 6386">
            <path id="Path_5472" data-name="Path 5472" d="M1009.975,153.709a.986.986,0,0,1-.356-.065,1,1,0,0,1-.578-1.291l16.03-41.989a1,1,0,0,1,.934-.643h11.008a1,1,0,0,1,0,2h-10.319l-15.784,41.345A1,1,0,0,1,1009.975,153.709Z" fill="#f5e2b5"/>
          </g>
        </g>
        <g id="Group_6388" data-name="Group 6388">
          <path id="Path_5473" data-name="Path 5473" d="M1011.269,166.922a5.449,5.449,0,1,1,5.71-5.443A5.588,5.588,0,0,1,1011.269,166.922Zm0-8.886a3.453,3.453,0,1,0,3.71,3.443A3.589,3.589,0,0,0,1011.269,158.036Z" fill="#f5e2b5"/>
        </g>
        <g id="Group_6391" data-name="Group 6391">
          <g id="Group_6389" data-name="Group 6389">
            <path id="Path_5474" data-name="Path 5474" d="M1047.808,147.38a.994.994,0,0,1-.538-.157,24.95,24.95,0,0,1-10.993-16.66c-1.316-6.976.132-14.209,3.871-19.348,8.571-11.781,25.9-14.748,38.621-6.611a1,1,0,0,1,.264,1.439l-30.421,40.934A1,1,0,0,1,1047.808,147.38ZM1062.927,102a26.042,26.042,0,0,0-21.162,10.388c-3.421,4.7-4.737,11.356-3.522,17.8a23.044,23.044,0,0,0,9.331,14.828l29.2-39.292A27.435,27.435,0,0,0,1062.927,102Z" fill="#f5e2b5"/>
          </g>
          <g id="Group_6390" data-name="Group 6390">
            <path id="Path_5475" data-name="Path 5475" d="M1061.414,134.31a10.556,10.556,0,0,1-3.783-.7,1,1,0,0,1,.719-1.867,8.5,8.5,0,0,0,9.761-2.661,6.981,6.981,0,0,0-.81-9.271,1,1,0,1,1,1.389-1.439,8.962,8.962,0,0,1,1.026,11.9A10.355,10.355,0,0,1,1061.414,134.31Z" fill="#f5e2b5"/>
          </g>
        </g>
        <g id="Group_6392" data-name="Group 6392">
          <path id="Path_5476" data-name="Path 5476" d="M1007.012,189.459H979.345a1,1,0,0,1,0-2h27.667a1,1,0,0,1,0,2Z" fill="#f5e2b5"/>
        </g>
        <g id="Group_6393" data-name="Group 6393">
          <path id="Path_5477" data-name="Path 5477" d="M1396.906,242H979.346a1,1,0,0,1,0-2h417.56a1,1,0,0,1,0,2Z" fill="#f5e2b5"/>
        </g>
        <g id="Group_6394" data-name="Group 6394">
          <path id="Path_5478" data-name="Path 5478" d="M1075.8,207.732l.726.32,0-.611Z" fill="#f5e2b5"/>
        </g>
        <g id="Group_6395" data-name="Group 6395">
          <path id="Path_5479" data-name="Path 5479" d="M1078.455,206.964l.014,2.044,30.668-.524-.014-2.044Z" fill="#f5e2b5"/>
        </g>
        <g id="Group_6396" data-name="Group 6396">
          <path id="Path_5480" data-name="Path 5480" d="M1111.431,206.311l.009,2,1.978-.039-.009-2Z" fill="#f5e2b5"/>
        </g>
        <g id="Group_6397" data-name="Group 6397">
          <path id="Path_5481" data-name="Path 5481" d="M1110.043,214.5h0l-11.651-.029a2,2,0,0,1-1.987-1.923,1.906,1.906,0,0,1,.192-.891l-19.065.325h-.034a1.972,1.972,0,0,1-1.747-1.074l-3.231-1.425a2,2,0,0,1-1.2-1.856,1.912,1.912,0,0,1,1.216-1.765l4.635-1.871a1.992,1.992,0,0,1,1.533.018l31.361-.535h0a1.984,1.984,0,0,1,.393-.048l3.868-.075a1.931,1.931,0,0,1,1.968,1.929v0l.017,3.9a1.971,1.971,0,0,1-1.922,1.976l-2.444.048.035,1.319a1.894,1.894,0,0,1-.542,1.387A1.929,1.929,0,0,1,1110.043,214.5Zm0-2Zm-.574,0h.509l-.015-.545a.976.976,0,0,1-.219.345A1.017,1.017,0,0,1,1109.469,212.5Zm-.471-3.055a.607.607,0,1,0,1.2.093,1,1,0,0,1,.7-.31l.138,0a1,1,0,0,1-.6-.911l-.008-1.995a1,1,0,0,1,.567-.9l-.5.012a.882.882,0,0,1-.419.046l-31.594.541a1.185,1.185,0,0,1-.564-.163l-1.481.6a1,1,0,0,1,1.078.99l0,.611a1,1,0,0,1-.451.843,1.017,1.017,0,0,1-.592.163l.471.2a1,1,0,0,1,.585.76l31.447-.567Zm5.345-.795a1,1,0,0,1-.486.52l.494-.009Zm-39.177-1.69-1.883.757,1.864.781a1,1,0,0,1,.019-1.538Zm38.6-1.617a1,1,0,0,1,.536.487l-.007-.5Zm.528-.051h0Z" fill="#f5e2b5"/>
        </g>
        <g id="Group_6398" data-name="Group 6398">
          <path id="Path_5482" data-name="Path 5482" d="M1191.05,30.22a1.207,1.207,0,1,0-2.413,0v11h2.413Z" fill="#f5e2b5"/>
        </g>
        <g id="Group_6399" data-name="Group 6399">
          <path id="Path_5483" data-name="Path 5483" d="M1189.843,25.08a26.009,26.009,0,0,1,24.062,16.137h2.593a28.425,28.425,0,0,0-53.309,0h2.593A26.009,26.009,0,0,1,1189.843,25.08Z" fill="#f5e2b5"/>
        </g>
        <g id="Group_6400" data-name="Group 6400">
          <path id="Path_5484" data-name="Path 5484" d="M1189.843,18.9a32.193,32.193,0,0,1,30.637,22.316H1223a34.6,34.6,0,0,0-66.321,0h2.524A32.193,32.193,0,0,1,1189.843,18.9Z" fill="#f5e2b5"/>
        </g>
        <g id="Group_6401" data-name="Group 6401">
          <path id="Path_5485" data-name="Path 5485" d="M1340.186,218.677h-18.614a9.476,9.476,0,0,1-9.466-9.466V179.479a1,1,0,0,1,1-1h35.546a1,1,0,0,1,1,1v29.732A9.476,9.476,0,0,1,1340.186,218.677Zm-26.08-38.2v28.732a7.475,7.475,0,0,0,7.466,7.466h18.614a7.475,7.475,0,0,0,7.466-7.466V180.479Z" fill="#f5e2b5"/>
        </g>
        <g id="Group_6402" data-name="Group 6402">
          <path id="Path_5486" data-name="Path 5486" d="M1356.182,206.319h-2.77a1,1,0,0,1,0-2h2.77a7.9,7.9,0,0,0,0-15.792h-2.77a1,1,0,0,1,0-2h2.77a9.9,9.9,0,0,1,0,19.792Z" fill="#f5e2b5"/>
        </g>
        <g id="Group_6403" data-name="Group 6403">
          <path id="Path_5487" data-name="Path 5487" d="M1348.652,223.563h-35.546a1,1,0,0,1,0-2h35.546a1,1,0,0,1,0,2Z" fill="#f5e2b5"/>
        </g>
        <g id="Group_6404" data-name="Group 6404">
          <path id="Path_5488" data-name="Path 5488" d="M1396.906,150.074H1299.36a1,1,0,0,1-1-1v-8.2a1,1,0,0,1,1-1h97.767a1,1,0,0,1,0,2H1300.36v6.2h96.546a1,1,0,0,1,0,2Z" fill="#f5e2b5"/>
        </g>
        <g id="Group_6405" data-name="Group 6405">
          <path id="Path_5489" data-name="Path 5489" d="M1397.127,154.507h-93.333a1,1,0,0,1,0-2h93.333a1,1,0,0,1,0,2Z" fill="#f5e2b5"/>
        </g>
        <g id="Group_6406" data-name="Group 6406">
          <path id="Path_5490" data-name="Path 5490" d="M1397.127,76.249h-69.612a1,1,0,0,1,0-2h69.612a1,1,0,0,1,0,2Z" fill="#f5e2b5"/>
        </g>
        <g id="Group_6407" data-name="Group 6407">
          <path id="Path_5491" data-name="Path 5491" d="M1397.127,64.943h-69.612a1,1,0,0,1,0-2h69.612a1,1,0,0,1,0,2Z" fill="#f5e2b5"/>
        </g>
        <g id="Group_6408" data-name="Group 6408">
          <path id="Path_5492" data-name="Path 5492" d="M1321.086,137.215a1,1,0,0,1-1-1V15.614a1,1,0,0,1,2,0v120.6A1,1,0,0,1,1321.086,137.215Z" fill="#f5e2b5"/>
        </g>
        <g id="Group_6409" data-name="Group 6409">
          <path id="Path_5493" data-name="Path 5493" d="M1310.332,137.215a1,1,0,0,1-1-1V15.614a1,1,0,0,1,2,0v120.6A1,1,0,0,1,1310.332,137.215Z" fill="#f5e2b5"/>
        </g>
        <g id="Group_6410" data-name="Group 6410">
          <path id="Path_5494" data-name="Path 5494" d="M1304.9,137.215a1,1,0,0,1-1-1V15.614a1,1,0,0,1,2,0v120.6A1,1,0,0,1,1304.9,137.215Z" fill="#f5e2b5"/>
        </g>
      </g>
    </g>
    <g id="Fill">
      <g id="Group_6413" data-name="Group 6413">
        <path id="Path_5495" data-name="Path 5495" d="M1127.282,48.082,1146.946,174.9h-44.721s-6.38-.437-6.38-7.985V56.067s-.082-7.985,6.38-7.985Z" fill="#edca73"/>
        <path id="Path_5496" data-name="Path 5496" d="M1256.627,224.167l-6.18-6.736,2.312,5.318H1126.415l.255-5.379-4.178,6.8a1.967,1.967,0,0,0,1.449,3.3h131.236A1.967,1.967,0,0,0,1256.627,224.167Z" fill="#edca73"/>
        <path id="Path_5497" data-name="Path 5497" d="M1203.668,174.9h-28.9l-.443,8.366h29.785Z" fill="#edca73"/>
        <g id="Group_6412" data-name="Group 6412">
          <path id="Path_5498" data-name="Path 5498" d="M1275.751,212.718c-6.836,0-12.616-3.94-14.519-7.68a4.264,4.264,0,0,0-.665,2.238c0,4.214,6.8,10.143,15.184,10.143s15.185-5.929,15.185-10.143a4.272,4.272,0,0,0-.665-2.238C1288.368,208.778,1282.588,212.718,1275.751,212.718Z" fill="#edca73"/>
        </g>
      </g>
    </g>
    <g id="Outlines">
      <g id="Group_6488" data-name="Group 6488">
        <g id="Group_6415" data-name="Group 6415">
          <g id="Group_6414" data-name="Group 6414">
            <path id="Path_5499" data-name="Path 5499" d="M1173.889,230.657" fill="#333" stroke="#231f20" stroke-linecap="round" stroke-linejoin="round" stroke-width="3"/>
          </g>
        </g>
        <g id="Group_6417" data-name="Group 6417">
          <g id="Group_6416" data-name="Group 6416">
            <path id="Path_5500" data-name="Path 5500" d="M1275.751,214.685c-8.4,0-15.595-6-15.595-10.916,0-4.813,6.85-8.583,15.595-8.583s15.6,3.77,15.6,8.583C1291.347,208.683,1284.151,214.685,1275.751,214.685Zm0-16.5c-7.422,0-12.595,2.942-12.595,5.583,0,1.455,1.379,3.4,3.513,4.964a15.448,15.448,0,0,0,18.165,0c2.134-1.561,3.513-3.509,3.513-4.964C1288.347,201.128,1283.174,198.186,1275.751,198.186Z" fill="#333"/>
          </g>
        </g>
        <g id="Group_6419" data-name="Group 6419">
          <g id="Group_6418" data-name="Group 6418">
            <path id="Path_5501" data-name="Path 5501" d="M1252.474,223.684h-126.5a1.5,1.5,0,0,1-1.5-1.5v-5.606a1.5,1.5,0,0,1,1.5-1.5h126.5a1.5,1.5,0,0,1,1.5,1.5v5.606A1.5,1.5,0,0,1,1252.474,223.684Zm-125-3h123.5v-2.606h-123.5Z" fill="#333"/>
          </g>
        </g>
        <g id="Group_6421" data-name="Group 6421">
          <g id="Group_6420" data-name="Group 6420">
            <path id="Path_5502" data-name="Path 5502" d="M1172.328,192.194a1.5,1.5,0,0,1-1.353-2.148,27.848,27.848,0,0,0,2.13-9.483,1.48,1.48,0,0,1,1.611-1.379,1.5,1.5,0,0,1,1.379,1.611,30.318,30.318,0,0,1-2.413,10.546A1.5,1.5,0,0,1,1172.328,192.194Z" fill="#333"/>
          </g>
        </g>
        <g id="Group_6423" data-name="Group 6423">
          <g id="Group_6422" data-name="Group 6422">
            <path id="Path_5503" data-name="Path 5503" d="M1206.122,192.194a1.5,1.5,0,0,1-1.354-.853,30.277,30.277,0,0,1-2.414-10.545,1.5,1.5,0,1,1,2.99-.232,27.843,27.843,0,0,0,2.129,9.482,1.5,1.5,0,0,1-.705,2A1.482,1.482,0,0,1,1206.122,192.194Z" fill="#333"/>
          </g>
        </g>
        <g id="Group_6425" data-name="Group 6425">
          <g id="Group_6424" data-name="Group 6424">
            <path id="Path_5504" data-name="Path 5504" d="M1189.224,168.891a6.106,6.106,0,1,1,6.107-6.106A6.113,6.113,0,0,1,1189.224,168.891Zm0-9.212a3.106,3.106,0,1,0,3.107,3.106A3.109,3.109,0,0,0,1189.224,159.679Z" fill="#333"/>
          </g>
        </g>
        <g id="Group_6427" data-name="Group 6427">
          <g id="Group_6426" data-name="Group 6426">
            <path id="Path_5505" data-name="Path 5505" d="M1252.474,218.078h-126.5a1.5,1.5,0,0,1-1.123-2.5l17.7-19.986a1.5,1.5,0,0,1,1.123-.5h91.089a1.5,1.5,0,0,1,1.123.5l17.705,19.986a1.5,1.5,0,0,1-1.123,2.5Zm-123.166-3h119.833l-15.047-16.987h-89.739Z" fill="#333"/>
          </g>
        </g>
        <g id="Group_6429" data-name="Group 6429">
          <g id="Group_6428" data-name="Group 6428">
            <path id="Path_5506" data-name="Path 5506" d="M1197.846,211.4h-17.768a1.5,1.5,0,0,1,0-3h17.768a1.5,1.5,0,0,1,0,3Z" fill="#333"/>
          </g>
        </g>
        <g id="Group_6459" data-name="Group 6459">
          <g id="Group_6446" data-name="Group 6446">
            <g id="Group_6431" data-name="Group 6431">
              <g id="Group_6430" data-name="Group 6430">
                <path id="Path_5507" data-name="Path 5507" d="M1152.22,204.786h-4.913a1.5,1.5,0,0,1,0-3h4.913a1.5,1.5,0,0,1,0,3Z" fill="#333"/>
              </g>
            </g>
            <g id="Group_6433" data-name="Group 6433">
              <g id="Group_6432" data-name="Group 6432">
                <path id="Path_5508" data-name="Path 5508" d="M1163.495,204.786h-4.913a1.5,1.5,0,0,1,0-3h4.913a1.5,1.5,0,0,1,0,3Z" fill="#333"/>
              </g>
            </g>
            <g id="Group_6435" data-name="Group 6435">
              <g id="Group_6434" data-name="Group 6434">
                <path id="Path_5509" data-name="Path 5509" d="M1174.769,204.786h-4.913a1.5,1.5,0,0,1,0-3h4.913a1.5,1.5,0,0,1,0,3Z" fill="#333"/>
              </g>
            </g>
            <g id="Group_6437" data-name="Group 6437">
              <g id="Group_6436" data-name="Group 6436">
                <path id="Path_5510" data-name="Path 5510" d="M1186.044,204.786h-4.914a1.5,1.5,0,0,1,0-3h4.914a1.5,1.5,0,0,1,0,3Z" fill="#333"/>
              </g>
            </g>
            <g id="Group_6439" data-name="Group 6439">
              <g id="Group_6438" data-name="Group 6438">
                <path id="Path_5511" data-name="Path 5511" d="M1197.319,204.786h-4.914a1.5,1.5,0,0,1,0-3h4.914a1.5,1.5,0,0,1,0,3Z" fill="#333"/>
              </g>
            </g>
            <g id="Group_6441" data-name="Group 6441">
              <g id="Group_6440" data-name="Group 6440">
                <path id="Path_5512" data-name="Path 5512" d="M1208.593,204.786h-4.914a1.5,1.5,0,0,1,0-3h4.914a1.5,1.5,0,0,1,0,3Z" fill="#333"/>
              </g>
            </g>
            <g id="Group_6443" data-name="Group 6443">
              <g id="Group_6442" data-name="Group 6442">
                <path id="Path_5513" data-name="Path 5513" d="M1219.868,204.786h-4.913a1.5,1.5,0,0,1,0-3h4.913a1.5,1.5,0,0,1,0,3Z" fill="#333"/>
              </g>
            </g>
            <g id="Group_6445" data-name="Group 6445">
              <g id="Group_6444" data-name="Group 6444">
                <path id="Path_5514" data-name="Path 5514" d="M1231.142,204.786h-4.913a1.5,1.5,0,0,1,0-3h4.913a1.5,1.5,0,0,1,0,3Z" fill="#333"/>
              </g>
            </g>
          </g>
          <g id="Group_6448" data-name="Group 6448">
            <g id="Group_6447" data-name="Group 6447">
              <path id="Path_5515" data-name="Path 5515" d="M1147.405,211.4h-5.553a1.5,1.5,0,0,1,0-3h5.553a1.5,1.5,0,0,1,0,3Z" fill="#333"/>
            </g>
          </g>
          <g id="Group_6450" data-name="Group 6450">
            <g id="Group_6449" data-name="Group 6449">
              <path id="Path_5516" data-name="Path 5516" d="M1160.147,211.4h-5.554a1.5,1.5,0,0,1,0-3h5.554a1.5,1.5,0,0,1,0,3Z" fill="#333"/>
            </g>
          </g>
          <g id="Group_6452" data-name="Group 6452">
            <g id="Group_6451" data-name="Group 6451">
              <path id="Path_5517" data-name="Path 5517" d="M1172.888,211.4h-5.553a1.5,1.5,0,0,1,0-3h5.553a1.5,1.5,0,0,1,0,3Z" fill="#333"/>
            </g>
          </g>
          <g id="Group_6454" data-name="Group 6454">
            <g id="Group_6453" data-name="Group 6453">
              <path id="Path_5518" data-name="Path 5518" d="M1211.114,211.4h-5.553a1.5,1.5,0,0,1,0-3h5.553a1.5,1.5,0,0,1,0,3Z" fill="#333"/>
            </g>
          </g>
          <g id="Group_6456" data-name="Group 6456">
            <g id="Group_6455" data-name="Group 6455">
              <path id="Path_5519" data-name="Path 5519" d="M1223.855,211.4H1218.3a1.5,1.5,0,0,1,0-3h5.553a1.5,1.5,0,0,1,0,3Z" fill="#333"/>
            </g>
          </g>
          <g id="Group_6458" data-name="Group 6458">
            <g id="Group_6457" data-name="Group 6457">
              <path id="Path_5520" data-name="Path 5520" d="M1236.6,211.4h-5.553a1.5,1.5,0,0,1,0-3h5.553a1.5,1.5,0,0,1,0,3Z" fill="#333"/>
            </g>
          </g>
        </g>
        <g id="Group_6461" data-name="Group 6461">
          <g id="Group_6460" data-name="Group 6460">
            <path id="Path_5521" data-name="Path 5521" d="M1252.474,223.917h-126.5a1.5,1.5,0,0,1,0-3h126.5a1.5,1.5,0,0,1,0,3Z" fill="#333"/>
          </g>
        </g>
        <g id="Group_6463" data-name="Group 6463">
          <g id="Group_6462" data-name="Group 6462">
            <path id="Path_5522" data-name="Path 5522" d="M1275.724,176.4h-173a8.377,8.377,0,0,1-8.367-8.367V54.5a8.377,8.377,0,0,1,8.367-8.367h173a8.377,8.377,0,0,1,8.367,8.367V168.033A8.377,8.377,0,0,1,1275.724,176.4Zm-173-127.267a5.372,5.372,0,0,0-5.367,5.367V168.033a5.372,5.372,0,0,0,5.367,5.367h173a5.372,5.372,0,0,0,5.367-5.367V54.5a5.372,5.372,0,0,0-5.367-5.367Z" fill="#333"/>
          </g>
        </g>
        <g id="Group_6465" data-name="Group 6465">
          <g id="Group_6464" data-name="Group 6464">
            <path id="Path_5523" data-name="Path 5523" d="M1273.193,152.582H1104.746a1.5,1.5,0,0,1,0-3h168.447a1.5,1.5,0,0,1,0,3Z" fill="#333"/>
          </g>
        </g>
        <g id="Group_6467" data-name="Group 6467">
          <g id="Group_6466" data-name="Group 6466">
            <path id="Path_5524" data-name="Path 5524" d="M1273.7,145.054H1104.746a1.5,1.5,0,0,1-1.5-1.5V56.56a1.5,1.5,0,0,1,1.5-1.5H1273.7a1.5,1.5,0,0,1,1.5,1.5v86.994A1.5,1.5,0,0,1,1273.7,145.054Zm-167.458-3H1272.2V58.06H1106.246Z" fill="#333"/>
          </g>
        </g>
        <g id="Group_6469" data-name="Group 6469">
          <g id="Group_6468" data-name="Group 6468">
            <path id="Path_5525" data-name="Path 5525" d="M1247.309,136.5H1131.14a1.5,1.5,0,0,1-1.5-1.5V65.828a1.5,1.5,0,0,1,1.5-1.5h116.169a1.5,1.5,0,0,1,1.5,1.5V135A1.5,1.5,0,0,1,1247.309,136.5Zm-114.669-3h113.169V67.328H1132.64Z" fill="#333"/>
          </g>
        </g>
        <g id="Group_6471" data-name="Group 6471">
          <g id="Group_6470" data-name="Group 6470">
            <path id="Path_5526" data-name="Path 5526" d="M1180.2,96.591h-31.26a1.5,1.5,0,0,1-1.5-1.5V87.276a1.5,1.5,0,0,1,1.5-1.5h31.26a1.5,1.5,0,0,1,1.5,1.5v7.815A1.5,1.5,0,0,1,1180.2,96.591Zm-29.76-3h28.26V88.776h-28.26Z" fill="#333"/>
          </g>
        </g>
        <g id="Group_6473" data-name="Group 6473">
          <g id="Group_6472" data-name="Group 6472">
            <path id="Path_5527" data-name="Path 5527" d="M1227.347,126.776h-38a1.5,1.5,0,0,1-1.5-1.5v-38a1.5,1.5,0,0,1,1.5-1.5h38a1.5,1.5,0,0,1,1.5,1.5v38A1.5,1.5,0,0,1,1227.347,126.776Zm-36.5-3h35v-35h-35Z" fill="#333"/>
          </g>
        </g>
        <g id="Group_6475" data-name="Group 6475">
          <g id="Group_6474" data-name="Group 6474">
            <path id="Path_5528" data-name="Path 5528" d="M1180.2,111.472h-31.26a1.5,1.5,0,0,1-1.5-1.5v-7.814a1.5,1.5,0,0,1,1.5-1.5h31.26a1.5,1.5,0,0,1,1.5,1.5v7.814A1.5,1.5,0,0,1,1180.2,111.472Zm-29.76-3h28.26v-4.814h-28.26Z" fill="#333"/>
          </g>
        </g>
        <g id="Group_6477" data-name="Group 6477">
          <g id="Group_6476" data-name="Group 6476">
            <path id="Path_5529" data-name="Path 5529" d="M1180.2,126.353h-31.26a1.5,1.5,0,0,1-1.5-1.5v-7.814a1.5,1.5,0,0,1,1.5-1.5h31.26a1.5,1.5,0,0,1,1.5,1.5v7.814A1.5,1.5,0,0,1,1180.2,126.353Zm-29.76-3h28.26v-4.814h-28.26Z" fill="#333"/>
          </g>
        </g>
        <g id="Group_6479" data-name="Group 6479">
          <g id="Group_6478" data-name="Group 6478">
            <path id="Path_5530" data-name="Path 5530" d="M1246.708,80.629H1130.984a1.5,1.5,0,0,1,0-3h115.724a1.5,1.5,0,0,1,0,3Z" fill="#333"/>
          </g>
        </g>
        <g id="Group_6481" data-name="Group 6481">
          <g id="Group_6480" data-name="Group 6480">
            <path id="Path_5531" data-name="Path 5531" d="M1229.416,74.311h-80.974a1.5,1.5,0,0,1,0-3h80.974a1.5,1.5,0,0,1,0,3Z" fill="#333"/>
          </g>
        </g>
        <g id="Group_6483" data-name="Group 6483">
          <g id="Group_6482" data-name="Group 6482">
            <circle id="Ellipse_64" data-name="Ellipse 64" cx="1.496" cy="1.496" r="1.496" transform="translate(1141.569 71.315)" fill="#333"/>
          </g>
        </g>
        <g id="Group_6485" data-name="Group 6485">
          <g id="Group_6484" data-name="Group 6484">
            <circle id="Ellipse_65" data-name="Ellipse 65" cx="1.496" cy="1.496" r="1.496" transform="translate(1137.246 71.315)" fill="#333"/>
          </g>
        </g>
        <g id="Group_6487" data-name="Group 6487">
          <g id="Group_6486" data-name="Group 6486">
            <path id="Path_5532" data-name="Path 5532" d="M1203.81,114.216a1.5,1.5,0,0,1-1.037-.416l-3.824-3.658a1.5,1.5,0,1,1,2.074-2.168l2.777,2.657L1215.732,99a1.5,1.5,0,0,1,2.094,2.148l-12.969,12.637A1.5,1.5,0,0,1,1203.81,114.216Z" fill="#333"/>
          </g>
        </g>
      </g>
    </g>
  </g>
</svg>
