<svg xmlns="http://www.w3.org/2000/svg" width="125.041" height="160" viewBox="0 0 125.041 160">
  <g id="Group_7510" data-name="Group 7510" transform="translate(-17.452 -0.751)">
    <path id="Path_6249" data-name="Path 6249" d="M28.811,43.259" transform="translate(0 0.525)" fill="none" stroke="#3d619c" stroke-linecap="round" stroke-linejoin="round" stroke-width="3"/>
    <path id="Path_6250" data-name="Path 6250" d="M46.934,63.208" transform="translate(0.364 0.771)" fill="none" stroke="#3d619c" stroke-linecap="round" stroke-linejoin="round" stroke-width="3"/>
    <path id="Path_6251" data-name="Path 6251" d="M39.355,54.656" transform="translate(0 0.665)" fill="none" stroke="#3d619c" stroke-linecap="round" stroke-linejoin="round" stroke-width="3"/>
    <path id="Path_6252" data-name="Path 6252" d="M39.979,76.828" transform="translate(0 0.939)" fill="none" stroke="#3d619c" stroke-linecap="round" stroke-linejoin="round" stroke-width="3"/>
    <path id="Path_6253" data-name="Path 6253" d="M25.8,135.281l-4.212-6.453a10.186,10.186,0,0,1-.66-9.962l2.907-6.077Z" transform="translate(0 1.951)" fill="#42669f"/>
    <path id="Path_6254" data-name="Path 6254" d="M132.618,135.281l4.212-6.453a10.186,10.186,0,0,0,.66-9.962l-2.907-6.077Z" transform="translate(1.525 1.951)" fill="#42669f"/>
    <path id="Path_6255" data-name="Path 6255" d="M46.42,92.006l22.337,57.568H31.987L27.539,96.567s-1.193-4.561,3.4-4.561H46.42" transform="translate(0 1.951)" fill="#42669f"/>
    <path id="Path_6256" data-name="Path 6256" d="M34.673,149.187H33.387l-6.41,7a1.558,1.558,0,0,0,1.146,2.611H131.861a1.558,1.558,0,0,0,1.145-2.611l-5.764-6.517h-1.249" transform="translate(0 1.951)" fill="#42669f"/>
    <path id="Path_6257" data-name="Path 6257" d="M70.068,66.254a37.659,37.659,0,0,1-3.254-13.086V29.751c0-18.315,15.251-27.907,15.251-27.907C47.847,1.549,48.23,33.46,48.23,33.46V53.788c0,16,14.49,14.4,14.49,14.4v2.783c0,9.6-14.382,12.983-14.382,12.983a97.089,97.089,0,0,0,19.994-2.435,5.31,5.31,0,0,0,4.182-5.051V75.348a33.657,33.657,0,0,0-.457-3.34,21.342,21.342,0,0,0,18.64-5.98C78.483,71.521,71.524,67.31,70.068,66.254ZM59.216,24.635Z" transform="translate(0.579)" fill="#42669f"/>
    <g id="Group_7509" data-name="Group 7509" transform="translate(17.452 0.751)">
      <g id="Group_7482" data-name="Group 7482" transform="translate(0 112.489)">
        <path id="Path_6258" data-name="Path 6258" d="M24.813,136.781a1.5,1.5,0,0,1-1.257-.679l-4.213-6.454a11.756,11.756,0,0,1-.757-11.429l2.906-6.077a1.5,1.5,0,1,1,2.707,1.294l-2.906,6.078a8.737,8.737,0,0,0,.562,8.5l4.213,6.452a1.5,1.5,0,0,1-1.255,2.32Z" transform="translate(-17.452 -111.289)" fill="#3c619c"/>
      </g>
      <g id="Group_7483" data-name="Group 7483" transform="translate(116.182 112.488)">
        <path id="Path_6259" data-name="Path 6259" d="M133.609,136.781a1.5,1.5,0,0,1-1.255-2.32l4.212-6.453a8.735,8.735,0,0,0,.562-8.494l-2.907-6.078a1.5,1.5,0,1,1,2.707-1.294l2.907,6.077a11.753,11.753,0,0,1-.758,11.429l-4.211,6.454A1.5,1.5,0,0,1,133.609,136.781Z" transform="translate(-132.11 -111.288)" fill="#3c619c"/>
      </g>
      <g id="Group_7484" data-name="Group 7484" transform="translate(8.472 38.305)">
        <path id="Path_6260" data-name="Path 6260" d="M25.924,38.582h0Z" transform="translate(-25.924 -38.582)" fill="#3c619c"/>
      </g>
      <g id="Group_7508" data-name="Group 7508" transform="translate(8.508)">
        <g id="Group_7485" data-name="Group 7485" transform="translate(49.607 117.182)">
          <path id="Path_6261" data-name="Path 6261" d="M80.886,128.574a6.107,6.107,0,1,1,6.106-6.106A6.114,6.114,0,0,1,80.886,128.574Zm0-9.213a3.106,3.106,0,1,0,3.106,3.107A3.11,3.11,0,0,0,80.886,119.361Z" transform="translate(-74.779 -116.361)" fill="#3c619c"/>
        </g>
        <g id="Group_7504" data-name="Group 7504" transform="translate(19.721)">
          <g id="Group_7486" data-name="Group 7486" transform="translate(9.529 39.749)">
            <path id="Path_6262" data-name="Path 6262" d="M54.449,40.5h0Z" transform="translate(-54.449 -40.5)" fill="#3c619c"/>
          </g>
          <g id="Group_7500" data-name="Group 7500">
            <g id="Group_7499" data-name="Group 7499">
              <g id="Group_7487" data-name="Group 7487" transform="translate(35.966 40.177)">
                <path id="Path_6263" data-name="Path 6263" d="M80.886,40.928" transform="translate(-80.886 -40.928)" fill="#3c619c"/>
              </g>
              <g id="Group_7488" data-name="Group 7488" transform="translate(54.088 60.127)">
                <path id="Path_6264" data-name="Path 6264" d="M99.008,60.878" transform="translate(-99.008 -60.878)" fill="#3c619c"/>
              </g>
              <g id="Group_7489" data-name="Group 7489" transform="translate(46.51 51.574)">
                <path id="Path_6265" data-name="Path 6265" d="M91.43,52.325" transform="translate(-91.43 -52.325)" fill="#3c619c"/>
              </g>
              <g id="Group_7490" data-name="Group 7490" transform="translate(47.134 73.746)">
                <path id="Path_6266" data-name="Path 6266" d="M92.054,74.5" transform="translate(-92.054 -74.497)" fill="#3c619c"/>
              </g>
              <g id="Group_7491" data-name="Group 7491" transform="translate(15.301 55.904)">
                <path id="Path_6267" data-name="Path 6267" d="M80.106,70.178H78.2a17.951,17.951,0,0,1-7.239-1.543,23.5,23.5,0,0,1-10.524-9.71,1.5,1.5,0,1,1,2.574-1.539,20.542,20.542,0,0,0,9.155,8.5,14.975,14.975,0,0,0,6.034,1.29h1.909a14.955,14.955,0,0,0,6.033-1.291,20.534,20.534,0,0,0,9.155-8.5,1.5,1.5,0,1,1,2.574,1.539,23.491,23.491,0,0,1-10.524,9.709A17.931,17.931,0,0,1,80.106,70.178Z" transform="translate(-60.221 -56.655)" fill="#3c619c"/>
              </g>
              <g id="Group_7492" data-name="Group 7492" transform="translate(11.942 22.721)">
                <path id="Path_6268" data-name="Path 6268" d="M61.722,59.655a1.5,1.5,0,0,1-1.288-.729,25.825,25.825,0,0,1-3.572-13.271l.1-14.033a1.5,1.5,0,0,1,1.9-1.435c.145.04,14.53,3.85,18.919-5.834a1.5,1.5,0,0,1,2.733,1.239c-3.934,8.681-14.279,9.108-20.564,7.922l-.091,12.153a22.8,22.8,0,0,0,3.146,11.718,1.5,1.5,0,0,1-1.286,2.27Z" transform="translate(-56.862 -23.472)" fill="#3c619c"/>
              </g>
              <g id="Group_7493" data-name="Group 7493" transform="translate(1.809)">
                <path id="Path_6269" data-name="Path 6269" d="M56.393,68.972a1.524,1.524,0,0,1-.41-.057A12.772,12.772,0,0,1,46.731,56.67v-24.7c-.012-.511-.188-13.383,8.757-22.524,5.645-5.77,13.606-8.7,23.663-8.7a1.5,1.5,0,1,1,0,3c-9.207,0-16.441,2.615-21.5,7.773-8.063,8.221-7.924,20.294-7.921,20.415V56.67a9.759,9.759,0,0,0,7.07,9.358,1.5,1.5,0,0,1-.408,2.944Z" transform="translate(-46.729 -0.751)" fill="#3c619c"/>
              </g>
              <g id="Group_7494" data-name="Group 7494" transform="translate(0 65.305)">
                <path id="Path_6270" data-name="Path 6270" d="M46.421,87.052a1.5,1.5,0,0,1-.7-2.828,38.836,38.836,0,0,1,3.908-1.776c3.485-1.364,11.59-5.087,11.59-10.17V67.556a1.5,1.5,0,0,1,3,0v4.722c0,6.682-8.456,10.99-13.5,12.963a35.92,35.92,0,0,0-3.606,1.639A1.5,1.5,0,0,1,46.421,87.052Z" transform="translate(-44.92 -66.056)" fill="#3c619c"/>
              </g>
              <g id="Group_7495" data-name="Group 7495" transform="translate(49.48 65.305)">
                <path id="Path_6271" data-name="Path 6271" d="M112.038,86.969a1.49,1.49,0,0,1-.69-.169,36.264,36.264,0,0,0-3.453-1.559C102.856,83.268,94.4,78.96,94.4,72.278V67.556a1.5,1.5,0,0,1,3,0v4.722c0,5.083,8.1,8.806,11.59,10.17a39,39,0,0,1,3.741,1.69,1.5,1.5,0,0,1-.693,2.831Z" transform="translate(-94.4 -66.056)" fill="#3c619c"/>
              </g>
              <g id="Group_7496" data-name="Group 7496" transform="translate(19.049 78.475)">
                <path id="Path_6272" data-name="Path 6272" d="M78.84,85.1c-6.168,0-11.635-1.215-14.266-3.173a1.5,1.5,0,1,1,1.791-2.407c1.726,1.285,6.253,2.58,12.475,2.58,6.158,0,10.682-1.279,12.433-2.547a1.5,1.5,0,0,1,1.76,2.429C90.376,83.908,84.939,85.1,78.84,85.1Z" transform="translate(-63.969 -79.226)" fill="#3c619c"/>
              </g>
              <g id="Group_7497" data-name="Group 7497" transform="translate(32.729)">
                <path id="Path_6273" data-name="Path 6273" d="M101.9,68.972a1.5,1.5,0,0,1-.408-2.944,9.759,9.759,0,0,0,7.072-9.358v-24.7c0-.153.141-12.226-7.921-20.447-5.059-5.158-12.292-7.773-21.5-7.773a1.5,1.5,0,1,1,0-3c10.056,0,18.017,2.926,23.663,8.7,8.944,9.141,8.768,22.013,8.757,22.557V56.67a12.771,12.771,0,0,1-9.255,12.245A1.489,1.489,0,0,1,101.9,68.972Z" transform="translate(-77.649 -0.751)" fill="#3c619c"/>
              </g>
              <g id="Group_7498" data-name="Group 7498" transform="translate(32.731 22.721)">
                <path id="Path_6274" data-name="Path 6274" d="M96.58,59.655a1.5,1.5,0,0,1-1.286-2.27,22.817,22.817,0,0,0,3.147-11.73l-.092-12.141c-6.283,1.185-16.629.76-20.565-7.922a1.5,1.5,0,0,1,2.733-1.239c4.391,9.686,18.774,5.874,18.921,5.834a1.5,1.5,0,0,1,1.9,1.435l.106,14.021a25.837,25.837,0,0,1-3.573,13.283A1.5,1.5,0,0,1,96.58,59.655Z" transform="translate(-77.65 -23.472)" fill="#3c619c"/>
              </g>
            </g>
          </g>
          <g id="Group_7503" data-name="Group 7503" transform="translate(9.529 39.749)">
            <g id="Group_7501" data-name="Group 7501">
              <path id="Path_6275" data-name="Path 6275" d="M54.449,40.5h0Z" transform="translate(-54.449 -40.5)" fill="#3c619c"/>
            </g>
            <g id="Group_7502" data-name="Group 7502">
              <path id="Path_6276" data-name="Path 6276" d="M54.449,40.5h0Z" transform="translate(-54.449 -40.5)" fill="#3c619c"/>
            </g>
          </g>
        </g>
        <g id="Group_7507" data-name="Group 7507" transform="translate(0 91.706)">
          <g id="Group_7505" data-name="Group 7505">
            <path id="Path_6277" data-name="Path 6277" d="M127.911,151.074H32.073a1.514,1.514,0,0,1-1.517-1.375L25.967,95.776a4.927,4.927,0,0,1,1.388-3.727,5.042,5.042,0,0,1,3.656-1.543h97.963a5.035,5.035,0,0,1,3.656,1.544,4.889,4.889,0,0,1,1.39,3.673L129.428,149.7A1.513,1.513,0,0,1,127.911,151.074Zm-94.439-3h93.04l4.471-52.548a1.923,1.923,0,0,0-.556-1.406,2,2,0,0,0-1.454-.614H31.01a2.009,2.009,0,0,0-1.454.613A1.953,1.953,0,0,0,29,95.581Z" transform="translate(-25.961 -90.506)" fill="#3c619c"/>
          </g>
          <g id="Group_7506" data-name="Group 7506" transform="translate(4.526 62.959)">
            <path id="Path_6278" data-name="Path 6278" d="M127.974,156.465H32.01a1.5,1.5,0,1,1,0-3h95.964a1.5,1.5,0,1,1,0,3Z" transform="translate(-30.487 -153.465)" fill="#3c619c"/>
          </g>
        </g>
      </g>
    </g>
  </g>
</svg>
