<svg xmlns="http://www.w3.org/2000/svg" width="159.978" height="147.22" viewBox="0 0 159.978 147.22">
  <g id="Group_7226" data-name="Group 7226" transform="translate(-1199.78 318.504)">
    <g id="Fill">
      <g id="Group_7223" data-name="Group 7223">
        <path id="Path_5991" data-name="Path 5991" d="M1224.183-258.952l1.088,5.959,9.527,18.441,2.984.715,3.456-2.257,2.63,2.037h2.324l2.587-2.862,3.963,2.862,2.753-.881-.055-4.4,4.348-.441,1.927-3.082-12.495-16.569,5.064,1.046c5.364.04,3.946-3.625,3.249-4.965l.894.407a4.59,4.59,0,0,1,2.709,4.1,4.594,4.594,0,0,1-2.519,4.224,4.639,4.639,0,0,1-3.117.4,4.664,4.664,0,0,1-.693-.214l-1.505-.6,10.055,12.114c.048.057.093.115.135.176a4.6,4.6,0,0,1,.836,2.837,4.548,4.548,0,0,1-1.931,3.545,4.589,4.589,0,0,1-3.646.729l-.033-.007a4.563,4.563,0,0,1,.108,1.2,4.55,4.55,0,0,1-1.932,3.546,4.588,4.588,0,0,1-3.645.728,4.57,4.57,0,0,1-2.737-1.824l-.345-.5a4.56,4.56,0,0,1-1.543,1.876,4.588,4.588,0,0,1-3.646.729,4.57,4.57,0,0,1-2.674-1.739,4.65,4.65,0,0,1-.968.919,4.593,4.593,0,0,1-3.646.729,4.578,4.578,0,0,1-2.737-1.825,2.99,2.99,0,0,1-.235-.4l-7.543-15.461a2.888,2.888,0,0,1-.347-.859l-3.425-9.844Z" fill="#f1dcb4"/>
      </g>
      <g id="Group_7224" data-name="Group 7224">
        <path id="Path_5992" data-name="Path 5992" d="M1335.922-258.952l-1.088,5.959-9.526,18.441-2.984.715-3.456-2.257-2.63,2.037h-2.324l-2.588-2.862-3.963,2.862-2.752-.881.055-4.4-4.349-.441-1.926-3.082,12.495-16.569-5.064,1.046c-5.364.04-3.946-3.625-3.249-4.965l-.894.407a4.59,4.59,0,0,0-2.709,4.1,4.591,4.591,0,0,0,2.518,4.224,4.642,4.642,0,0,0,3.118.4,4.7,4.7,0,0,0,.693-.214l1.505-.6-10.056,12.114c-.047.057-.092.115-.134.176a4.6,4.6,0,0,0-.837,2.837,4.551,4.551,0,0,0,1.931,3.545,4.59,4.59,0,0,0,3.646.729l.034-.007a4.6,4.6,0,0,0-.109,1.2,4.552,4.552,0,0,0,1.932,3.547,4.59,4.59,0,0,0,3.645.728,4.567,4.567,0,0,0,2.737-1.824l.346-.5a4.561,4.561,0,0,0,1.543,1.876,4.586,4.586,0,0,0,3.645.729,4.569,4.569,0,0,0,2.675-1.739,4.642,4.642,0,0,0,.967.919,4.593,4.593,0,0,0,3.646.729,4.572,4.572,0,0,0,2.737-1.825,2.9,2.9,0,0,0,.236-.4l7.543-15.461a2.887,2.887,0,0,0,.347-.859l3.425-9.844Z" fill="#f1dcb4"/>
      </g>
      <rect id="Rectangle_859" data-name="Rectangle 859" width="25.22" height="25.22" transform="translate(1267.054 -288.594)" fill="#f1dcb4"/>
      <rect id="Rectangle_860" data-name="Rectangle 860" width="25.22" height="25.22" transform="translate(1267.054 -198.507)" fill="#f1dcb4"/>
      <path id="Path_5993" data-name="Path 5993" d="M1346.861-316.346l-15.53,26.915h-15.413l17.071-26.915Z" fill="#f1dcb4"/>
      <path id="Path_5994" data-name="Path 5994" d="M1358.258-292.668l-18.688,20.787a4.673,4.673,0,0,1-6.034.786l-8.779-5.743-2.224,3.974,14.927,10.888,20.8-22.195Z" fill="#f1dcb4"/>
      <path id="Path_5995" data-name="Path 5995" d="M1212.677-316.346l15.53,26.915h15.413l-17.071-26.915Z" fill="#f1dcb4"/>
      <path id="Path_5996" data-name="Path 5996" d="M1201.28-292.668l18.688,20.787a4.673,4.673,0,0,0,6.034.786l8.779-5.743,2.223,3.974-14.926,10.888-20.8-22.195Z" fill="#f1dcb4"/>
    </g>
    <g id="Outlines">
      <g id="Group_7225" data-name="Group 7225">
        <path id="Path_5997" data-name="Path 5997" d="M1359.289-285.26a1.5,1.5,0,0,0-2.121.058l-20.1,21.236-12.785-9.326,24.045-42.979a1.5,1.5,0,0,0-.576-2.042,1.5,1.5,0,0,0-2.041.577l-15.458,27.629h-12.881l17.031-26.076a1.5,1.5,0,0,0-.436-2.077,1.5,1.5,0,0,0-2.076.436l-18.1,27.717h-68.31l-18.1-27.717a1.5,1.5,0,0,0-2.077-.436,1.5,1.5,0,0,0-.435,2.077l17.031,26.076h-12.819l-15.458-27.629a1.5,1.5,0,0,0-2.041-.577,1.5,1.5,0,0,0-.576,2.042l24.045,42.979-12.78,9.322L1202.375-285.2a1.5,1.5,0,0,0-2.121-.068,1.5,1.5,0,0,0-.069,2.12l20.8,22.195a1.5,1.5,0,0,0,.493.346l3.314,9.527a2.912,2.912,0,0,0,.347.859l1.115,2.285v75.149a1.5,1.5,0,0,0,1.5,1.5h103.823a1.5,1.5,0,0,0,1.5-1.5v-75.149l1.115-2.285a2.909,2.909,0,0,0,.347-.859l3.314-9.527a1.477,1.477,0,0,0,.488-.341l21.008-22.194A1.5,1.5,0,0,0,1359.289-285.26Zm-90.735,20.387v-22.234h22.22v22.234Zm-44.4,3.24,13.011-9.491,6.89,3.154,11.15,5.073a1.76,1.76,0,0,1,.072,3.169,1.759,1.759,0,0,1-1.187.151,1.773,1.773,0,0,1-.263-.082l-4.437-1.758a3.868,3.868,0,0,0-.647-.211,1.813,1.813,0,0,0-1.533.238c-.018.015-.037.029-.054.045a1.965,1.965,0,0,0-.18.186c-.048.056-.095.114-.137.174-.026.037-.052.074-.075.112s-.044.08-.066.121a1.79,1.79,0,0,0-.183.733,3.694,3.694,0,0,0,.741,2.082l11.861,14.288a1.7,1.7,0,0,1,.313,1.061,1.709,1.709,0,0,1-.723,1.328,1.709,1.709,0,0,1-1.365.273,1.7,1.7,0,0,1-1.024-.683l-10.709-12.569a1.248,1.248,0,0,0-.5-.435,1.292,1.292,0,0,0-.27-.094,1.258,1.258,0,0,0-1.408.685,1.26,1.26,0,0,0-.123.492,1.266,1.266,0,0,0,.219.768l10.088,14.643a1.7,1.7,0,0,1,.313,1.061,1.709,1.709,0,0,1-.723,1.328,1.7,1.7,0,0,1-1.365.273,1.7,1.7,0,0,1-1.024-.683L1240.692-250.9l-.166-.241-.005-.007a1.38,1.38,0,0,0-.436-.328,1.216,1.216,0,0,0-.254-.088,1.509,1.509,0,0,0-.366-.033,1.368,1.368,0,0,0-1.219.769c-.011.023-.012.048-.022.072a1.4,1.4,0,0,0-.1.474,1.366,1.366,0,0,0,.306.923l6.918,11.453a1.7,1.7,0,0,1,.313,1.061,1.712,1.712,0,0,1-.723,1.328,1.709,1.709,0,0,1-1.365.273,1.708,1.708,0,0,1-1.024-.683l-6.954-11.5a1.24,1.24,0,0,0-.5-.437,1.253,1.253,0,0,0-.27-.093,1.263,1.263,0,0,0-1.415.687,1.256,1.256,0,0,0-.124.493,1.271,1.271,0,0,0,.222.772l4.556,8.011a1.71,1.71,0,0,1,.312,1.061,1.71,1.71,0,0,1-.723,1.329,1.708,1.708,0,0,1-1.365.272,1.7,1.7,0,0,1-1.024-.683l-7.623-15.624c-.018-.023-.044-.057-.044-.059h0a.284.284,0,0,1,.033.036Zm5.1,19.848,3.428,7.028a2.944,2.944,0,0,0,.236.4,4.573,4.573,0,0,0,2.737,1.825,4.586,4.586,0,0,0,3.645-.729,4.588,4.588,0,0,0,.967-.918,4.575,4.575,0,0,0,2.675,1.739,4.592,4.592,0,0,0,3.646-.729,4.561,4.561,0,0,0,1.543-1.876l.345.5a4.573,4.573,0,0,0,2.737,1.825,4.585,4.585,0,0,0,3.645-.729A4.554,4.554,0,0,0,1256.79-237a4.613,4.613,0,0,0-.109-1.2l.033.008a4.588,4.588,0,0,0,3.646-.73,4.546,4.546,0,0,0,1.932-3.545,4.607,4.607,0,0,0-.837-2.837c-.042-.06-.087-.119-.135-.176l-10.055-12.113,1.505.6a4.582,4.582,0,0,0,.693.213,4.633,4.633,0,0,0,3.117-.395,4.59,4.59,0,0,0,2.518-4.223,4.59,4.59,0,0,0-2.708-4.105l-11.143-5.07-6.915-3.165-.07.052-7.508-13.419h13.813c.037,0,.072.013.108.013s.062-.011.092-.013h20.787v23.734a1.5,1.5,0,0,0,1.5,1.5h11.11v61.865h-11.11a1.5,1.5,0,0,0-1.5,1.5v24.224h-36.3Zm61.521,67.5h-22.22v-22.724h22.22Zm39.3,0h-36.3v-24.224a1.5,1.5,0,0,0-1.5-1.5h-11.11v-61.865h11.11a1.5,1.5,0,0,0,1.5-1.5v-23.734H1314.5c.031,0,.062.013.092.013s.072-.01.108-.013h13.876l-7.508,13.419-.07-.052-6.915,3.165-11.143,5.07a4.59,4.59,0,0,0-2.708,4.105,4.59,4.59,0,0,0,2.518,4.223,4.633,4.633,0,0,0,3.117.395,4.548,4.548,0,0,0,.693-.213l1.506-.6-10.056,12.113c-.048.057-.093.116-.135.176a4.607,4.607,0,0,0-.837,2.837,4.546,4.546,0,0,0,1.932,3.545,4.588,4.588,0,0,0,3.646.73l.033-.008a4.57,4.57,0,0,0-.108,1.2,4.55,4.55,0,0,0,1.932,3.546,4.586,4.586,0,0,0,3.645.729,4.573,4.573,0,0,0,2.737-1.825l.345-.5a4.561,4.561,0,0,0,1.543,1.876,4.592,4.592,0,0,0,3.646.729,4.575,4.575,0,0,0,2.675-1.739,4.588,4.588,0,0,0,.967.918,4.589,4.589,0,0,0,3.646.729,4.573,4.573,0,0,0,2.736-1.825,2.944,2.944,0,0,0,.236-.4l3.429-7.028Zm1.63-77.377a.429.429,0,0,1,.033-.036h0s-.026.036-.044.059l-7.623,15.624a1.7,1.7,0,0,1-1.024.683,1.708,1.708,0,0,1-1.365-.272,1.71,1.71,0,0,1-.723-1.329,1.7,1.7,0,0,1,.313-1.061l4.555-8.011a1.271,1.271,0,0,0,.222-.772,1.271,1.271,0,0,0-.123-.493,1.265,1.265,0,0,0-1.416-.687,1.253,1.253,0,0,0-.27.093,1.247,1.247,0,0,0-.5.437l-6.954,11.5a1.708,1.708,0,0,1-1.024.683,1.709,1.709,0,0,1-1.365-.273,1.712,1.712,0,0,1-.723-1.328,1.7,1.7,0,0,1,.313-1.061l6.918-11.453a1.366,1.366,0,0,0,.306-.923,1.4,1.4,0,0,0-.1-.474c-.009-.024-.011-.049-.022-.072a1.368,1.368,0,0,0-1.219-.769,1.509,1.509,0,0,0-.366.033,1.216,1.216,0,0,0-.254.088,1.38,1.38,0,0,0-.436.328l-.005.007-.166.241L1308.513-236.2a1.7,1.7,0,0,1-1.024.683,1.7,1.7,0,0,1-1.365-.273,1.709,1.709,0,0,1-.723-1.328,1.7,1.7,0,0,1,.313-1.061l10.088-14.643a1.274,1.274,0,0,0,.22-.768,1.262,1.262,0,0,0-.124-.492,1.258,1.258,0,0,0-1.408-.685,1.314,1.314,0,0,0-.27.094,1.246,1.246,0,0,0-.5.435l-10.71,12.569a1.7,1.7,0,0,1-1.024.683,1.709,1.709,0,0,1-1.365-.273,1.709,1.709,0,0,1-.723-1.328,1.7,1.7,0,0,1,.313-1.061l11.861-14.288a3.694,3.694,0,0,0,.741-2.082,1.79,1.79,0,0,0-.183-.733c-.022-.041-.042-.082-.066-.121s-.049-.075-.075-.112c-.042-.06-.089-.118-.137-.174a1.965,1.965,0,0,0-.18-.186c-.017-.016-.036-.03-.054-.045a1.813,1.813,0,0,0-1.533-.238,3.9,3.9,0,0,0-.647.211l-4.437,1.758a1.773,1.773,0,0,1-.263.082,1.759,1.759,0,0,1-1.187-.151,1.76,1.76,0,0,1,.073-3.169l11.149-5.073,6.89-3.154,13.012,9.491Z" fill="#e7bd4f"/>
        <path id="Path_5998" data-name="Path 5998" d="M1258.243-200.008h-21.8a1.5,1.5,0,0,0-1.5,1.5,1.5,1.5,0,0,0,1.5,1.5h21.8a1.5,1.5,0,0,0,1.5-1.5A1.5,1.5,0,0,0,1258.243-200.008Z" fill="#e7bd4f"/>
        <path id="Path_5999" data-name="Path 5999" d="M1258.243-191.057h-21.8a1.5,1.5,0,0,0-1.5,1.5,1.5,1.5,0,0,0,1.5,1.5h21.8a1.5,1.5,0,0,0,1.5-1.5A1.5,1.5,0,0,0,1258.243-191.057Z" fill="#e7bd4f"/>
      </g>
    </g>
  </g>
</svg>
