<svg xmlns="http://www.w3.org/2000/svg" width="440" height="252" viewBox="0 0 440 252">
  <g id="Group_7479" data-name="Group 7479" transform="translate(-472 -2867)">
    <rect id="Rectangle_491" data-name="Rectangle 491" width="440" height="252" transform="translate(472 2867)" fill="#fff"/>
    <g id="Group_7478" data-name="Group 7478" transform="translate(471.71 2867.375)">
      <g id="Background">
        <g id="Group_7356" data-name="Group 7356">
          <path id="Path_6155" data-name="Path 6155" d="M394.716,98.664h-31.9a1.136,1.136,0,0,1,0-2.271H393.58V87.856H363.129a1.136,1.136,0,1,1,0-2.271h31.587a1.135,1.135,0,0,1,1.136,1.136V97.528A1.135,1.135,0,0,1,394.716,98.664Z" fill="#dce9fd"/>
        </g>
        <g id="Group_7357" data-name="Group 7357">
          <path id="Path_6156" data-name="Path 6156" d="M386.785,197.03a1.135,1.135,0,0,1-1.136-1.135V97.528a1.136,1.136,0,0,1,2.272,0V195.9A1.135,1.135,0,0,1,386.785,197.03Z" fill="#dce9fd"/>
        </g>
        <g id="Group_7359" data-name="Group 7359">
          <g id="Group_7358" data-name="Group 7358">
            <path id="Path_6157" data-name="Path 6157" d="M323.056,173.8" fill="#dce9fd"/>
          </g>
        </g>
        <g id="Group_7363" data-name="Group 7363">
          <g id="Group_7361" data-name="Group 7361">
            <g id="Group_7360" data-name="Group 7360">
              <path id="Path_6158" data-name="Path 6158" d="M379.353,123.449H365.729a1.135,1.135,0,0,1-1.136-1.136V110.931a7.948,7.948,0,1,1,15.9,0v11.382A1.134,1.134,0,0,1,379.353,123.449Zm-12.489-2.271h11.353V110.931a5.676,5.676,0,1,0-11.353,0Z" fill="#dce9fd"/>
            </g>
          </g>
          <g id="Group_7362" data-name="Group 7362">
            <path id="Path_6159" data-name="Path 6159" d="M322.617,104.118" fill="#dce9fd"/>
          </g>
        </g>
        <g id="Group_7364" data-name="Group 7364">
          <path id="Path_6160" data-name="Path 6160" d="M386.785,166.729h-9.269a1.136,1.136,0,1,1,0-2.271h9.269a1.136,1.136,0,1,1,0,2.271Z" fill="#dce9fd"/>
        </g>
        <g id="Group_7365" data-name="Group 7365">
          <path id="Path_6161" data-name="Path 6161" d="M386.785,131.6H360.506a1.136,1.136,0,1,1,0-2.271h26.279a1.136,1.136,0,1,1,0,2.271Z" fill="#dce9fd"/>
        </g>
        <g id="Group_7366" data-name="Group 7366">
          <path id="Path_6162" data-name="Path 6162" d="M367.774,81.484a1.134,1.134,0,0,1-1.136-1.135V69.07a1.134,1.134,0,0,1,1.136-1.135h62.165a1.136,1.136,0,0,1,0,2.271h-61.03V80.349A1.134,1.134,0,0,1,367.774,81.484Z" fill="#dce9fd"/>
        </g>
        <g id="Group_7367" data-name="Group 7367">
          <path id="Path_6163" data-name="Path 6163" d="M398.215,70.206a1.135,1.135,0,0,1-1.136-1.136c0-11.816,14.74-21.429,32.86-21.429a1.136,1.136,0,0,1,0,2.271c-16.867,0-30.588,8.6-30.588,19.158A1.135,1.135,0,0,1,398.215,70.206Z" fill="#dce9fd"/>
        </g>
        <g id="Group_7368" data-name="Group 7368">
          <path id="Path_6164" data-name="Path 6164" d="M429.939,76.078H367.774a1.136,1.136,0,1,1,0-2.271h62.165a1.136,1.136,0,0,1,0,2.271Z" fill="#dce9fd"/>
        </g>
        <g id="Group_7394" data-name="Group 7394">
          <g id="Group_7370" data-name="Group 7370">
            <g id="Group_7369" data-name="Group 7369">
              <path id="Path_6165" data-name="Path 6165" d="M163.492,197.03a1.134,1.134,0,0,1-1.135-1.135V168.547a1.136,1.136,0,1,1,2.271,0V195.9A1.135,1.135,0,0,1,163.492,197.03Z" fill="#dce9fd"/>
            </g>
          </g>
          <g id="Group_7393" data-name="Group 7393">
            <g id="Group_7375" data-name="Group 7375">
              <g id="Group_7371" data-name="Group 7371">
                <path id="Path_6166" data-name="Path 6166" d="M55.442,224.455H10.061a1.135,1.135,0,1,1,0-2.271H55.442a1.135,1.135,0,1,1,0,2.271Z" fill="#dce9fd"/>
              </g>
              <g id="Group_7372" data-name="Group 7372">
                <path id="Path_6167" data-name="Path 6167" d="M55.442,202.949H10.061a1.136,1.136,0,1,1,0-2.271H55.442a1.136,1.136,0,1,1,0,2.271Z" fill="#dce9fd"/>
              </g>
              <g id="Group_7373" data-name="Group 7373">
                <path id="Path_6168" data-name="Path 6168" d="M429.939,202.949H385.276a1.136,1.136,0,0,1,0-2.271h44.663a1.136,1.136,0,0,1,0,2.271Z" fill="#dce9fd"/>
              </g>
              <g id="Group_7374" data-name="Group 7374">
                <path id="Path_6169" data-name="Path 6169" d="M429.939,221.933H385.276a1.136,1.136,0,0,1,0-2.272h44.663a1.136,1.136,0,0,1,0,2.272Z" fill="#dce9fd"/>
              </g>
            </g>
            <g id="Group_7376" data-name="Group 7376">
              <path id="Path_6170" data-name="Path 6170" d="M73.562,89.878h-63.5a1.136,1.136,0,1,1,0-2.272H72.127l-1.8-7.657H10.061a1.135,1.135,0,1,1,0-2.271H71.229a1.136,1.136,0,0,1,1.106.876l2.333,9.928a1.137,1.137,0,0,1-1.106,1.4Z" fill="#dce9fd"/>
            </g>
            <g id="Group_7377" data-name="Group 7377">
              <path id="Path_6171" data-name="Path 6171" d="M71.229,156.059a1.135,1.135,0,0,1-1.136-1.136V88.742a1.135,1.135,0,1,1,2.271,0v66.181A1.134,1.134,0,0,1,71.229,156.059Z" fill="#dce9fd"/>
            </g>
            <g id="Group_7378" data-name="Group 7378">
              <path id="Path_6172" data-name="Path 6172" d="M83.4,146.288a1.134,1.134,0,0,1-1.135-1.136V57.9L37.711,38.985V73.191a1.136,1.136,0,1,1-2.271,0V37.269a1.135,1.135,0,0,1,1.58-1.046L83.85,56.106a1.137,1.137,0,0,1,.691,1.046v88A1.135,1.135,0,0,1,83.4,146.288Z" fill="#dce9fd"/>
            </g>
            <g id="Group_7379" data-name="Group 7379">
              <path id="Path_6173" data-name="Path 6173" d="M83.4,66.862H37.058a1.135,1.135,0,1,1,0-2.271H83.4a1.135,1.135,0,1,1,0,2.271Z" fill="#dce9fd"/>
            </g>
            <g id="Group_7392" data-name="Group 7392">
              <g id="Group_7383" data-name="Group 7383">
                <g id="Group_7380" data-name="Group 7380">
                  <path id="Path_6174" data-name="Path 6174" d="M20.441,117.244H10.061a1.135,1.135,0,0,1-1.136-1.136V102.347a1.135,1.135,0,0,1,1.136-1.136h10.38a1.135,1.135,0,0,1,1.136,1.136v13.761A1.135,1.135,0,0,1,20.441,117.244ZM11.2,114.973h8.11V103.482H11.2Z" fill="#dce9fd"/>
                </g>
                <g id="Group_7381" data-name="Group 7381">
                  <path id="Path_6175" data-name="Path 6175" d="M41.766,117.244H31.385a1.135,1.135,0,0,1-1.136-1.136V102.347a1.135,1.135,0,0,1,1.136-1.136H41.766a1.134,1.134,0,0,1,1.135,1.136v13.761A1.134,1.134,0,0,1,41.766,117.244Zm-9.245-2.271H40.63V103.482H32.521Z" fill="#dce9fd"/>
                </g>
                <g id="Group_7382" data-name="Group 7382">
                  <path id="Path_6176" data-name="Path 6176" d="M63.09,117.244H52.71a1.135,1.135,0,0,1-1.136-1.136V102.347a1.135,1.135,0,0,1,1.136-1.136H63.09a1.135,1.135,0,0,1,1.136,1.136v13.761A1.135,1.135,0,0,1,63.09,117.244Zm-9.244-2.271h8.108V103.482H53.846Z" fill="#dce9fd"/>
                </g>
              </g>
              <g id="Group_7387" data-name="Group 7387">
                <g id="Group_7384" data-name="Group 7384">
                  <path id="Path_6177" data-name="Path 6177" d="M20.441,145.641H10.061a1.135,1.135,0,0,1-1.136-1.136V130.742a1.135,1.135,0,0,1,1.136-1.136h10.38a1.135,1.135,0,0,1,1.136,1.136v13.763A1.135,1.135,0,0,1,20.441,145.641ZM11.2,143.369h8.11V131.878H11.2Z" fill="#dce9fd"/>
                </g>
                <g id="Group_7385" data-name="Group 7385">
                  <path id="Path_6178" data-name="Path 6178" d="M41.766,145.641H31.385a1.135,1.135,0,0,1-1.136-1.136V130.742a1.135,1.135,0,0,1,1.136-1.136H41.766a1.134,1.134,0,0,1,1.135,1.136v13.763A1.134,1.134,0,0,1,41.766,145.641Zm-9.245-2.272H40.63V131.878H32.521Z" fill="#dce9fd"/>
                </g>
                <g id="Group_7386" data-name="Group 7386">
                  <path id="Path_6179" data-name="Path 6179" d="M63.09,145.641H52.71a1.135,1.135,0,0,1-1.136-1.136V130.742a1.135,1.135,0,0,1,1.136-1.136H63.09a1.135,1.135,0,0,1,1.136,1.136v13.763A1.135,1.135,0,0,1,63.09,145.641Zm-9.244-2.272h8.108V131.878H53.846Z" fill="#dce9fd"/>
                </g>
              </g>
              <g id="Group_7391" data-name="Group 7391">
                <g id="Group_7388" data-name="Group 7388">
                  <path id="Path_6180" data-name="Path 6180" d="M20.441,174.036H10.061A1.135,1.135,0,0,1,8.925,172.9V159.138A1.135,1.135,0,0,1,10.061,158h10.38a1.135,1.135,0,0,1,1.136,1.136V172.9A1.135,1.135,0,0,1,20.441,174.036ZM11.2,171.765h8.11V160.273H11.2Z" fill="#dce9fd"/>
                </g>
                <g id="Group_7389" data-name="Group 7389">
                  <path id="Path_6181" data-name="Path 6181" d="M41.766,174.036H31.385a1.135,1.135,0,0,1-1.136-1.136V159.138A1.135,1.135,0,0,1,31.385,158H41.766a1.134,1.134,0,0,1,1.135,1.136V172.9A1.134,1.134,0,0,1,41.766,174.036Zm-9.245-2.271H40.63V160.273H32.521Z" fill="#dce9fd"/>
                </g>
                <g id="Group_7390" data-name="Group 7390">
                  <path id="Path_6182" data-name="Path 6182" d="M52.71,174.036a1.135,1.135,0,0,1-1.136-1.136V159.138A1.135,1.135,0,0,1,52.71,158H63.09a1.135,1.135,0,1,1,0,2.271H53.846V172.9A1.135,1.135,0,0,1,52.71,174.036Z" fill="#dce9fd"/>
                </g>
              </g>
            </g>
          </g>
        </g>
        <g id="Group_7407" data-name="Group 7407">
          <g id="Group_7397" data-name="Group 7397">
            <g id="Group_7395" data-name="Group 7395">
              <path id="Path_6183" data-name="Path 6183" d="M429.255,127.477a1.135,1.135,0,0,1-1.136-1.136V87.028a1.136,1.136,0,0,1,2.272,0v39.313A1.135,1.135,0,0,1,429.255,127.477Z" fill="#dce9fd"/>
            </g>
            <g id="Group_7396" data-name="Group 7396">
              <path id="Path_6184" data-name="Path 6184" d="M429.255,184.964a1.135,1.135,0,0,1-1.136-1.136V144.516a1.136,1.136,0,1,1,2.272,0v39.312A1.135,1.135,0,0,1,429.255,184.964Z" fill="#dce9fd"/>
            </g>
          </g>
          <g id="Group_7400" data-name="Group 7400">
            <g id="Group_7398" data-name="Group 7398">
              <path id="Path_6185" data-name="Path 6185" d="M418.706,127.477a1.135,1.135,0,0,1-1.136-1.136V87.028a1.136,1.136,0,0,1,2.272,0v39.313A1.135,1.135,0,0,1,418.706,127.477Z" fill="#dce9fd"/>
            </g>
            <g id="Group_7399" data-name="Group 7399">
              <path id="Path_6186" data-name="Path 6186" d="M418.706,184.964a1.135,1.135,0,0,1-1.136-1.136V144.516a1.136,1.136,0,1,1,2.272,0v39.312A1.135,1.135,0,0,1,418.706,184.964Z" fill="#dce9fd"/>
            </g>
          </g>
          <g id="Group_7403" data-name="Group 7403">
            <g id="Group_7401" data-name="Group 7401">
              <path id="Path_6187" data-name="Path 6187" d="M408.157,127.477a1.134,1.134,0,0,1-1.135-1.136V87.028a1.135,1.135,0,0,1,2.271,0v39.313A1.135,1.135,0,0,1,408.157,127.477Z" fill="#dce9fd"/>
            </g>
            <g id="Group_7402" data-name="Group 7402">
              <path id="Path_6188" data-name="Path 6188" d="M408.157,184.964a1.134,1.134,0,0,1-1.135-1.136V144.516a1.135,1.135,0,1,1,2.271,0v39.312A1.135,1.135,0,0,1,408.157,184.964Z" fill="#dce9fd"/>
            </g>
          </g>
          <g id="Group_7406" data-name="Group 7406">
            <g id="Group_7404" data-name="Group 7404">
              <path id="Path_6189" data-name="Path 6189" d="M397.608,127.477a1.135,1.135,0,0,1-1.135-1.136V108.085a1.135,1.135,0,1,1,2.271,0v18.256A1.135,1.135,0,0,1,397.608,127.477Z" fill="#dce9fd"/>
            </g>
            <g id="Group_7405" data-name="Group 7405">
              <path id="Path_6190" data-name="Path 6190" d="M397.608,184.964a1.135,1.135,0,0,1-1.135-1.136V144.516a1.135,1.135,0,1,1,2.271,0v39.312A1.135,1.135,0,0,1,397.608,184.964Z" fill="#dce9fd"/>
            </g>
          </g>
        </g>
        <g id="Group_7408" data-name="Group 7408">
          <path id="Path_6191" data-name="Path 6191" d="M236.174,110.169" fill="#dce9fd"/>
        </g>
        <g id="Group_7409" data-name="Group 7409">
          <path id="Path_6192" data-name="Path 6192" d="M193.629,72.785h0Z" fill="#dce9fd"/>
        </g>
        <g id="Group_7410" data-name="Group 7410">
          <circle id="Ellipse_67" data-name="Ellipse 67" cx="2.852" cy="2.852" r="2.852" transform="translate(317.704 199.83)" fill="#dce9fd"/>
        </g>
        <g id="Group_7411" data-name="Group 7411">
          <circle id="Ellipse_68" data-name="Ellipse 68" cx="2.852" cy="2.852" r="2.852" transform="translate(317.704 212.876)" fill="#dce9fd"/>
        </g>
        <g id="Group_7438" data-name="Group 7438">
          <g id="Group_7420" data-name="Group 7420">
            <g id="Group_7412" data-name="Group 7412">
              <path id="Path_6193" data-name="Path 6193" d="M138.262,116.644" fill="#dce9fd"/>
            </g>
            <g id="Group_7414" data-name="Group 7414">
              <g id="Group_7413" data-name="Group 7413">
                <path id="Path_6194" data-name="Path 6194" d="M96.486,101.61a1.136,1.136,0,0,1-1.1-.863A39.053,39.053,0,0,1,94.357,93.6a1.136,1.136,0,1,1,2.271-.067,37.38,37.38,0,0,0,.962,6.668,1.135,1.135,0,0,1-.83,1.376A1.117,1.117,0,0,1,96.486,101.61Z" fill="#dce9fd"/>
              </g>
            </g>
            <g id="Group_7416" data-name="Group 7416">
              <g id="Group_7415" data-name="Group 7415">
                <path id="Path_6195" data-name="Path 6195" d="M152.228,101.61a1.117,1.117,0,0,1-.274-.034,1.136,1.136,0,0,1-.83-1.376,37.378,37.378,0,0,0,.962-6.668,1.136,1.136,0,0,1,2.272.067,39.109,39.109,0,0,1-1.029,7.148A1.136,1.136,0,0,1,152.228,101.61Z" fill="#dce9fd"/>
              </g>
            </g>
            <g id="Group_7418" data-name="Group 7418">
              <g id="Group_7417" data-name="Group 7417">
                <path id="Path_6196" data-name="Path 6196" d="M124.9,137.689H123.38a22.692,22.692,0,0,1-7.895-1.42,24.95,24.95,0,0,1-11.652-9.086l-3.8-5.352c-2.779-3.918-4.4-9.873-4.989-14.14-.007-.059-.016-.118-.026-.17-3.267-.328-5.7-4-6.39-9.7-.058-.274-1.681-8.723,1.509-12.582a5.167,5.167,0,0,1,3.26-1.864c.055-.616.156-1.485.342-2.556l.54-3.1c1.442-8.276,6.344-14.192,14.987-18.087a36.815,36.815,0,0,1,14.109-2.775H124.9A36.819,36.819,0,0,1,139,59.618c.316.143.622.285.923.43l2.475-1.7a1.135,1.135,0,0,1,1.609.338l1.374,2.213,3.139.718a1.136,1.136,0,0,1,.767,1.608l-1.228,2.506A22.076,22.076,0,0,1,154,77.712l.54,3.105c.187,1.07.287,1.939.342,2.555a5.171,5.171,0,0,1,3.261,1.864c3.189,3.859,1.566,12.308,1.495,12.665-.679,5.629-3.111,9.293-6.378,9.62-.009.042-.015.081-.017.1-.6,4.336-2.218,10.291-5,14.209l-3.8,5.352a24.95,24.95,0,0,1-11.652,9.086A22.692,22.692,0,0,1,124.9,137.689ZM94.438,85.564a3.1,3.1,0,0,0-2.544,1.119c-2.08,2.513-1.441,8.632-1.02,10.779.568,4.66,2.4,7.766,4.576,7.809a2.1,2.1,0,0,1,1.856,2.179c.52,3.747,2.04,9.478,4.585,13.067l3.8,5.351a22.68,22.68,0,0,0,10.587,8.27,20.43,20.43,0,0,0,7.106,1.28H124.9a20.43,20.43,0,0,0,7.106-1.28,22.688,22.688,0,0,0,10.588-8.27l3.8-5.351c2.545-3.589,4.064-9.32,4.592-13.136a2.065,2.065,0,0,1,1.847-2.11c2.175-.043,4.009-3.149,4.564-7.726.434-2.23,1.074-8.349-1.006-10.862a3.246,3.246,0,0,0-2.574-1.119h-.006a1.137,1.137,0,0,1-1.136-1.118,23.73,23.73,0,0,0-.372-3.239l-.54-3.105a19.84,19.84,0,0,0-5.872-11.321,1.137,1.137,0,0,1-.234-1.319l.955-1.95-2.2-.5a1.141,1.141,0,0,1-.713-.509l-1-1.6-2.042,1.4a1.137,1.137,0,0,1-1.156.077q-.7-.351-1.421-.677A34.457,34.457,0,0,0,124.9,59.122H123.38a34.448,34.448,0,0,0-13.194,2.584c-8,3.6-12.343,8.816-13.664,16.4l-.54,3.1a23.879,23.879,0,0,0-.373,3.24,1.136,1.136,0,0,1-1.135,1.118A.216.216,0,0,1,94.438,85.564Z" fill="#dce9fd"/>
              </g>
            </g>
            <g id="Group_7419" data-name="Group 7419">
              <path id="Path_6197" data-name="Path 6197" d="M145.376,93.5q-.129,0-.261-.006a1.136,1.136,0,0,1-1.088-1.105,87.282,87.282,0,0,0-.964-12.168c-2.955-.028-7.619-1.169-9.762-5.287a26.672,26.672,0,0,1-6.595,4.386c-4.564,2.151-11.982,4.038-21.58,1.007-.489,1.582-.607,6.734-.393,11.116a1.14,1.14,0,0,1-.331.858,1.1,1.1,0,0,1-.855.333,7.321,7.321,0,0,1-7.294-6.01,13.107,13.107,0,0,1-2.437-1.273A1.136,1.136,0,0,1,95.129,83.5h0a12.157,12.157,0,0,0,2.551,1.242,1.135,1.135,0,0,1,.745,1,4.959,4.959,0,0,0,3.979,4.472c-.19-5.119-.048-10.863,1.433-11.986a1.53,1.53,0,0,1,1.431-.239c17.443,5.823,27.168-5.331,27.574-5.807a1.137,1.137,0,0,1,1.957.413c1.7,5.771,8.672,5.357,8.973,5.339a1.177,1.177,0,0,1,1.068.572c.944,1.664,1.3,9,1.423,12.6,2.667-.778,3.19-4.94,3.214-5.137a1.139,1.139,0,0,1,.879-.978c2.386-.537,3.022-1.242,3.028-1.249a1.1,1.1,0,0,1,1.553-.29,1.167,1.167,0,0,1,.3,1.605c-.195.295-1,1.248-3.625,1.964C151.091,89.644,149.319,93.5,145.376,93.5Z" fill="#dce9fd"/>
            </g>
          </g>
          <g id="Group_7437" data-name="Group 7437">
            <g id="Group_7421" data-name="Group 7421">
              <path id="Path_6198" data-name="Path 6198" d="M140.538,140.7" fill="#dce9fd"/>
            </g>
            <g id="Group_7425" data-name="Group 7425">
              <g id="Group_7422" data-name="Group 7422">
                <path id="Path_6199" data-name="Path 6199" d="M132.863,194.4a1.136,1.136,0,0,1-.743-2l19.863-17.132A1.136,1.136,0,0,1,153.467,177L133.6,194.13A1.133,1.133,0,0,1,132.863,194.4Z" fill="#dce9fd"/>
              </g>
              <g id="Group_7423" data-name="Group 7423">
                <path id="Path_6200" data-name="Path 6200" d="M157.793,163.842a1.134,1.134,0,0,1-.943-.5l-3.1-4.609a1.136,1.136,0,1,1,1.885-1.269l3.1,4.608a1.137,1.137,0,0,1-.941,1.772Z" fill="#dce9fd"/>
              </g>
              <g id="Group_7424" data-name="Group 7424">
                <path id="Path_6201" data-name="Path 6201" d="M115.42,194.4a1.13,1.13,0,0,1-.741-.275L85.889,169.3a1.135,1.135,0,0,1-.2-1.5l6.963-10.341a1.136,1.136,0,1,1,1.885,1.269l-6.4,9.5,28.026,24.174a1.136,1.136,0,0,1-.743,2Z" fill="#dce9fd"/>
              </g>
            </g>
            <g id="Group_7426" data-name="Group 7426">
              <path id="Path_6202" data-name="Path 6202" d="M61.271,224.455a1.135,1.135,0,0,1-1.136-1.136V188.026c0-11.8,5.444-22.581,15.332-30.359a41.669,41.669,0,0,1,10.778-6c4.635-1.815,15.415-6.8,15.415-13.824v-5.509a1.136,1.136,0,1,1,2.272,0v5.509c0,8.125-10.562,13.474-16.859,15.939a39.537,39.537,0,0,0-10.2,5.672c-9.328,7.34-14.466,17.487-14.466,28.574v35.293A1.134,1.134,0,0,1,61.271,224.455Z" fill="#dce9fd"/>
            </g>
            <g id="Group_7427" data-name="Group 7427">
              <path id="Path_6203" data-name="Path 6203" d="M85.271,224.455a1.135,1.135,0,0,1-1.136-1.136V192.766a1.135,1.135,0,1,1,2.271,0v30.553A1.134,1.134,0,0,1,85.271,224.455Z" fill="#dce9fd"/>
            </g>
            <g id="Group_7428" data-name="Group 7428">
              <path id="Path_6204" data-name="Path 6204" d="M161.624,153.859a1.118,1.118,0,0,1-.414-.079c-6.3-2.465-16.858-7.814-16.858-15.939v-5.509a1.135,1.135,0,1,1,2.271,0v5.509c0,7.028,10.78,12.009,15.415,13.824a1.136,1.136,0,0,1-.414,2.194Z" fill="#dce9fd"/>
            </g>
            <g id="Group_7429" data-name="Group 7429">
              <path id="Path_6205" data-name="Path 6205" d="M123.934,190.776a1.135,1.135,0,0,1-.971-.545l-21.138-34.717a1.137,1.137,0,1,1,1.942-1.182l20.167,33.124L144.1,154.332a1.136,1.136,0,1,1,1.941,1.182L124.9,190.231A1.135,1.135,0,0,1,123.934,190.776Z" fill="#dce9fd"/>
            </g>
            <g id="Group_7430" data-name="Group 7430">
              <path id="Path_6206" data-name="Path 6206" d="M123.538,149.547c-7.774,0-14.626-1.5-17.882-3.927a1.136,1.136,0,1,1,1.356-1.822c2.84,2.112,9.327,3.477,16.526,3.477,7.123,0,13.585-1.346,16.462-3.429a1.136,1.136,0,0,1,1.332,1.84C138.044,148.067,131.225,149.547,123.538,149.547Z" fill="#dce9fd"/>
            </g>
            <g id="Group_7431" data-name="Group 7431">
              <path id="Path_6207" data-name="Path 6207" d="M112.622,161.847a1.136,1.136,0,0,1-.822-1.92l11.311-11.856a1.137,1.137,0,0,1,1.645,1.569l-11.312,11.855A1.132,1.132,0,0,1,112.622,161.847Z" fill="#dce9fd"/>
            </g>
            <g id="Group_7432" data-name="Group 7432">
              <path id="Path_6208" data-name="Path 6208" d="M135.245,161.847a1.133,1.133,0,0,1-.822-.352L123.111,149.64a1.137,1.137,0,0,1,1.645-1.569l11.311,11.856a1.136,1.136,0,0,1-.822,1.92Z" fill="#dce9fd"/>
            </g>
            <g id="Group_7433" data-name="Group 7433">
              <path id="Path_6209" data-name="Path 6209" d="M123.934,224.455a1.135,1.135,0,0,1-1.136-1.136V197.707a1.136,1.136,0,1,1,2.271,0v25.612A1.134,1.134,0,0,1,123.934,224.455Z" fill="#dce9fd"/>
            </g>
            <g id="Group_7434" data-name="Group 7434">
              <circle id="Ellipse_69" data-name="Ellipse 69" cx="1.435" cy="1.435" r="1.435" transform="translate(122.065 156.662)" fill="#dce9fd"/>
            </g>
            <g id="Group_7435" data-name="Group 7435">
              <circle id="Ellipse_70" data-name="Ellipse 70" cx="1.435" cy="1.435" r="1.435" transform="translate(122.065 165.25)" fill="#dce9fd"/>
            </g>
            <g id="Group_7436" data-name="Group 7436">
              <circle id="Ellipse_71" data-name="Ellipse 71" cx="1.435" cy="1.435" r="1.435" transform="translate(122.065 173.837)" fill="#dce9fd"/>
            </g>
          </g>
        </g>
        <g id="Group_7439" data-name="Group 7439">
          <path id="Path_6210" data-name="Path 6210" d="M344.121,127.79" fill="#dce9fd"/>
        </g>
        <g id="Group_7440" data-name="Group 7440">
          <path id="Path_6211" data-name="Path 6211" d="M335.128,117.641" fill="#dce9fd"/>
        </g>
        <g id="Group_7441" data-name="Group 7441">
          <path id="Path_6212" data-name="Path 6212" d="M335.869,143.95" fill="#dce9fd"/>
        </g>
        <g id="Group_7442" data-name="Group 7442">
          <path id="Path_6213" data-name="Path 6213" d="M321.692,138.18h-2.265A20.621,20.621,0,0,1,311.1,136.4,27.237,27.237,0,0,1,298.9,125.143a1.136,1.136,0,1,1,1.95-1.166,25,25,0,0,0,11.157,10.345,18.372,18.372,0,0,0,7.418,1.586h2.265a18.379,18.379,0,0,0,7.418-1.586,24.978,24.978,0,0,0,11.156-10.345,1.136,1.136,0,1,1,1.951,1.166A27.243,27.243,0,0,1,330.023,136.4,20.628,20.628,0,0,1,321.692,138.18Z" fill="#dce9fd"/>
        </g>
        <g id="Group_7443" data-name="Group 7443">
          <path id="Path_6214" data-name="Path 6214" d="M299.878,125.7a1.133,1.133,0,0,1-.976-.553,30.01,30.01,0,0,1-4.146-15.416l.124-16.646a1.136,1.136,0,0,1,1.437-1.087c.176.05,17.768,4.723,23.207-7.277a1.137,1.137,0,1,1,2.071.937c-5.247,11.576-19.827,9.758-24.453,8.85l-.115,15.231a27.735,27.735,0,0,0,3.825,14.242,1.137,1.137,0,0,1-.974,1.719Z" fill="#dce9fd"/>
        </g>
        <g id="Group_7444" data-name="Group 7444">
          <path id="Path_6215" data-name="Path 6215" d="M296.387,137.228c-.023,0-.046,0-.069,0a14.467,14.467,0,0,1-13.584-14.43V93.489c-.013-.609-.218-15.621,10.207-26.275,6.573-6.719,15.866-10.125,27.619-10.125a1.136,1.136,0,0,1,0,2.271c-11.11,0-19.851,3.172-25.98,9.427-9.758,9.957-9.577,24.532-9.574,24.679V122.8a12.192,12.192,0,0,0,11.447,12.162,1.136,1.136,0,0,1-.066,2.27Z" fill="#dce9fd"/>
        </g>
        <g id="Group_7447" data-name="Group 7447">
          <g id="Group_7445" data-name="Group 7445">
            <path id="Path_6216" data-name="Path 6216" d="M328.791,193.571a1.136,1.136,0,0,1-.743-2l25.788-22.243-5.859-8.7a1.136,1.136,0,0,1,1.884-1.27l6.423,9.536a1.136,1.136,0,0,1-.2,1.5l-26.552,22.9A1.131,1.131,0,0,1,328.791,193.571Z" fill="#dce9fd"/>
          </g>
          <g id="Group_7446" data-name="Group 7446">
            <path id="Path_6217" data-name="Path 6217" d="M312.7,193.571a1.13,1.13,0,0,1-.741-.275l-26.552-22.9a1.138,1.138,0,0,1-.2-1.5l6.423-9.536a1.136,1.136,0,0,1,1.885,1.27l-5.86,8.7,25.788,22.243a1.135,1.135,0,0,1-.743,2Z" fill="#dce9fd"/>
          </g>
        </g>
        <g id="Group_7448" data-name="Group 7448">
          <path id="Path_6218" data-name="Path 6218" d="M281.724,158.2a1.136,1.136,0,0,1-.531-2.142,45.132,45.132,0,0,1,4.573-2.079c4.258-1.667,14.161-6.236,14.161-12.667v-8.079a1.135,1.135,0,0,1,2.271,0v8.079c0,7.549-9.776,12.5-15.6,14.783a42.734,42.734,0,0,0-4.342,1.974A1.13,1.13,0,0,1,281.724,158.2Z" fill="#dce9fd"/>
        </g>
        <g id="Group_7449" data-name="Group 7449">
          <path id="Path_6219" data-name="Path 6219" d="M356.377,222.594a1.135,1.135,0,0,1-1.136-1.136V191.971a1.136,1.136,0,0,1,2.272,0v29.487A1.135,1.135,0,0,1,356.377,222.594Z" fill="#dce9fd"/>
        </g>
        <g id="Group_7450" data-name="Group 7450">
          <path id="Path_6220" data-name="Path 6220" d="M378.73,222.594a1.135,1.135,0,0,1-1.136-1.136V187.6c0-10.2-4.726-19.531-13.307-26.284A36.415,36.415,0,0,0,354.9,156.1c-5.828-2.281-15.6-7.234-15.6-14.783v-8.079a1.135,1.135,0,0,1,2.271,0v8.079c0,6.431,9.9,11,14.162,12.667a38.633,38.633,0,0,1,9.962,5.548c9.14,7.193,14.173,17.161,14.173,28.069v33.858A1.134,1.134,0,0,1,378.73,222.594Z" fill="#dce9fd"/>
        </g>
        <g id="Group_7451" data-name="Group 7451">
          <path id="Path_6221" data-name="Path 6221" d="M320.556,190.225a1.135,1.135,0,0,1-.971-.545l-19.493-32.019a1.136,1.136,0,0,1,1.941-1.182L320.556,186.9l18.523-30.425a1.137,1.137,0,0,1,1.942,1.182L321.526,189.68A1.135,1.135,0,0,1,320.556,190.225Z" fill="#dce9fd"/>
        </g>
        <g id="Group_7452" data-name="Group 7452">
          <path id="Path_6222" data-name="Path 6222" d="M320.191,155.89c-7.187,0-13.526-1.394-16.544-3.637A1.136,1.136,0,1,1,305,150.429c2.566,1.907,8.67,3.189,15.189,3.189,6.551,0,12.49-1.235,15.129-3.145a1.135,1.135,0,1,1,1.332,1.839C333.606,154.52,327.3,155.89,320.191,155.89Z" fill="#dce9fd"/>
        </g>
        <g id="Group_7453" data-name="Group 7453">
          <path id="Path_6223" data-name="Path 6223" d="M344.729,137.228a1.136,1.136,0,0,1-.067-2.27A12.192,12.192,0,0,0,356.108,122.8V93.489c0-.17.184-14.745-9.573-24.7-6.129-6.255-14.87-9.427-25.979-9.427a1.136,1.136,0,1,1,0-2.271c11.753,0,21.046,3.406,27.619,10.125,10.425,10.654,10.219,25.666,10.205,26.3V122.8a14.466,14.466,0,0,1-13.583,14.43C344.774,137.228,344.751,137.228,344.729,137.228Z" fill="#dce9fd"/>
        </g>
        <g id="Group_7454" data-name="Group 7454">
          <path id="Path_6224" data-name="Path 6224" d="M341.24,125.7a1.136,1.136,0,0,1-.973-1.719,27.742,27.742,0,0,0,3.824-14.25L343.977,94.5c-4.63.908-19.2,2.726-24.453-8.85a1.137,1.137,0,0,1,2.071-.937c5.438,12,23.03,7.326,23.206,7.277a1.136,1.136,0,0,1,1.437,1.087l.124,16.637a30.01,30.01,0,0,1-4.146,15.425A1.133,1.133,0,0,1,341.24,125.7Z" fill="#dce9fd"/>
        </g>
        <g id="Group_7456" data-name="Group 7456">
          <g id="Group_7455" data-name="Group 7455">
            <path id="Path_6225" data-name="Path 6225" d="M379.353,157.348H365.729a1.135,1.135,0,0,1-1.136-1.136V144.829a7.948,7.948,0,1,1,15.9,0v11.383A1.134,1.134,0,0,1,379.353,157.348Zm-12.489-2.272h11.353V144.829a5.676,5.676,0,1,0-11.353,0Z" fill="#dce9fd"/>
          </g>
        </g>
        <g id="Group_7461" data-name="Group 7461">
          <g id="Group_7457" data-name="Group 7457">
            <path id="Path_6226" data-name="Path 6226" d="M46.119,74.048a1.135,1.135,0,0,1-1.136-1.136V65.727a1.136,1.136,0,0,1,2.272,0v7.185A1.135,1.135,0,0,1,46.119,74.048Z" fill="#dce9fd"/>
          </g>
          <g id="Group_7458" data-name="Group 7458">
            <path id="Path_6227" data-name="Path 6227" d="M55.367,74.048a1.134,1.134,0,0,1-1.135-1.136V65.727a1.136,1.136,0,1,1,2.271,0v7.185A1.135,1.135,0,0,1,55.367,74.048Z" fill="#dce9fd"/>
          </g>
          <g id="Group_7459" data-name="Group 7459">
            <path id="Path_6228" data-name="Path 6228" d="M64.614,74.048a1.134,1.134,0,0,1-1.135-1.136V65.727a1.136,1.136,0,1,1,2.271,0v7.185A1.135,1.135,0,0,1,64.614,74.048Z" fill="#dce9fd"/>
          </g>
          <g id="Group_7460" data-name="Group 7460">
            <path id="Path_6229" data-name="Path 6229" d="M73.862,74.048a1.134,1.134,0,0,1-1.135-1.136V65.727a1.136,1.136,0,1,1,2.271,0v7.185A1.135,1.135,0,0,1,73.862,74.048Z" fill="#dce9fd"/>
          </g>
        </g>
      </g>
      <g id="Core_shadow" data-name="Core shadow">
        <path id="Path_6230" data-name="Path 6230" d="M213.021,130.174a12.319,12.319,0,0,0,5.837,1.408A26.057,26.057,0,0,1,213.021,130.174Z" fill="#c4dbfc"/>
        <path id="Path_6231" data-name="Path 6231" d="M166.925,204.85V185.126s-1.578-20.639,18.037-34.925c0,0-27.461,9.162-27.461,33.768V204.85Z" fill="#c4dbfc"/>
        <g id="Group_7462" data-name="Group 7462">
          <path id="Path_6232" data-name="Path 6232" d="M186.112,160.872l-5.884,8.682a1.5,1.5,0,0,0,.484,2.139l29.757,20.974-26.236-26.375Z" fill="#c4dbfc"/>
          <path id="Path_6233" data-name="Path 6233" d="M254.469,160.872l5.883,8.682a1.5,1.5,0,0,1-.483,2.139l-29.758,20.974,26.237-26.375Z" fill="#c4dbfc"/>
        </g>
        <path id="Path_6234" data-name="Path 6234" d="M241.753,152.512l-20.006,23.316a1.919,1.919,0,0,1-2.913,0l-20.007-23.316,21.137,35.5.326-.535.326.535Z" fill="#c4dbfc"/>
        <path id="Path_6235" data-name="Path 6235" d="M220.29,131.266l-10.149-3.185c-7.157-6.775-7.787-21.065-7.787-21.065V79.23c0-21.731,18.1-33.114,18.1-33.114-40.6-.35-40.149,37.515-40.149,37.515V142.65a3.2,3.2,0,0,0,.128.893,115.254,115.254,0,0,0,23.725-2.89,6.3,6.3,0,0,0,4.962-5.992v-1.327a24.105,24.105,0,0,0,11.172,2.626,23.7,23.7,0,0,0,20.4-11.094ZM193.338,73.159Zm.066,32.593c1.913,11.2,7.565,17.566,13.06,21.175l-.706-.221-6.813-5.034v-1.635C194.618,114.925,193.629,108.583,193.4,105.752Z" fill="#c4dbfc"/>
        <path id="Path_6236" data-name="Path 6236" d="M183.962,206.635a1.783,1.783,0,0,1-1.785-1.785V191.14a1.785,1.785,0,1,1,3.57,0v13.71A1.784,1.784,0,0,1,183.962,206.635Z" fill="#c4dbfc"/>
        <path id="Path_6237" data-name="Path 6237" d="M256.219,206.635a1.784,1.784,0,0,1-1.786-1.785V191.14a1.785,1.785,0,0,1,3.571,0v13.71A1.784,1.784,0,0,1,256.219,206.635Z" fill="#c4dbfc"/>
        <circle id="Ellipse_72" data-name="Ellipse 72" cx="4.033" cy="4.033" r="4.033" transform="translate(216.049 197.129)" fill="#c4dbfc"/>
      </g>
      <g id="Core">
        <g id="Group_7477" data-name="Group 7477">
          <g id="Group_7463" data-name="Group 7463">
            <path id="Path_6238" data-name="Path 6238" d="M236.687,139.07" fill="#6ea4f8"/>
          </g>
          <g id="Group_7467" data-name="Group 7467">
            <g id="Group_7464" data-name="Group 7464">
              <path id="Path_6239" data-name="Path 6239" d="M222.326,133.082h-3.468a22.632,22.632,0,0,1-9.14-1.95,29.792,29.792,0,0,1-13.345-12.318,32.785,32.785,0,0,1-4.534-16.854V73.16a1.5,1.5,0,0,1,2.65-.963c.111.131,12.168,13.667,53.356,13.667a1.5,1.5,0,0,1,1.5,1.5v14.6a32.785,32.785,0,0,1-4.534,16.854h0a29.79,29.79,0,0,1-13.344,12.318A22.64,22.64,0,0,1,222.326,133.082ZM194.839,76.5V101.96a29.808,29.808,0,0,0,4.108,15.315,26.823,26.823,0,0,0,11.976,11.109,19.643,19.643,0,0,0,7.935,1.7h3.468a19.651,19.651,0,0,0,7.936-1.7,26.826,26.826,0,0,0,11.975-11.109h0a29.8,29.8,0,0,0,4.108-15.315v-13.1C214.812,88.612,200.256,80.618,194.839,76.5Z" fill="#6ea4f8"/>
            </g>
            <g id="Group_7466" data-name="Group 7466">
              <g id="Group_7465" data-name="Group 7465">
                <path id="Path_6240" data-name="Path 6240" d="M260.277,145a1.5,1.5,0,0,1-1.5-1.5V84.354c0-.187.175-15.888-10.339-26.6-6.6-6.726-16.017-10.137-27.987-10.137h-.365c-11.969,0-21.381,3.41-27.975,10.136C181.61,68.465,181.8,84.165,181.8,84.323V143.5a1.5,1.5,0,0,1-3,0V84.354c-.015-.659-.24-17.046,11.143-28.679,7.18-7.339,17.319-11.059,30.139-11.059h.365c12.818,0,22.963,3.72,30.15,11.058,11.4,11.633,11.19,28.019,11.176,28.711V143.5A1.5,1.5,0,0,1,260.277,145Z" fill="#6ea4f8"/>
              </g>
            </g>
          </g>
          <g id="Group_7470" data-name="Group 7470">
            <g id="Group_7468" data-name="Group 7468">
              <path id="Path_6241" data-name="Path 6241" d="M229.012,193.144a1.5,1.5,0,0,1-.981-2.636l27.782-23.963-6.22-9.236a1.5,1.5,0,1,1,2.488-1.676l6.965,10.341a1.5,1.5,0,0,1-.265,1.974L229.99,192.78A1.5,1.5,0,0,1,229.012,193.144Z" fill="#6ea4f8"/>
            </g>
            <g id="Group_7469" data-name="Group 7469">
              <path id="Path_6242" data-name="Path 6242" d="M211.569,193.144a1.493,1.493,0,0,1-.978-.364L181.8,167.948a1.5,1.5,0,0,1-.265-1.974l6.964-10.341a1.5,1.5,0,0,1,2.488,1.676l-6.22,9.236,27.783,23.963a1.5,1.5,0,0,1-.981,2.636Z" fill="#6ea4f8"/>
            </g>
          </g>
          <g id="Group_7471" data-name="Group 7471">
            <path id="Path_6243" data-name="Path 6243" d="M157.419,206.35a1.5,1.5,0,0,1-1.5-1.5V186.4c0-11.913,5.494-22.8,15.47-30.646a42.154,42.154,0,0,1,10.872-6.054c4.565-1.788,15.184-6.682,15.184-13.486v-5.508a1.5,1.5,0,0,1,3,0v5.508c0,8.34-10.708,13.78-17.091,16.279a39.16,39.16,0,0,0-10.109,5.619c-9.238,7.268-14.326,17.315-14.326,28.288V204.85A1.5,1.5,0,0,1,157.419,206.35Z" fill="#6ea4f8"/>
          </g>
          <g id="Group_7472" data-name="Group 7472">
            <path id="Path_6244" data-name="Path 6244" d="M181.419,206.35a1.5,1.5,0,0,1-1.5-1.5V191.14a1.5,1.5,0,1,1,3,0v13.71A1.5,1.5,0,0,1,181.419,206.35Z" fill="#6ea4f8"/>
          </g>
          <g id="Group_7473" data-name="Group 7473">
            <path id="Path_6245" data-name="Path 6245" d="M258.925,206.35a1.5,1.5,0,0,1-1.5-1.5V191.14a1.5,1.5,0,1,1,3,0v13.71A1.5,1.5,0,0,1,258.925,206.35Z" fill="#6ea4f8"/>
          </g>
          <g id="Group_7474" data-name="Group 7474">
            <path id="Path_6246" data-name="Path 6246" d="M283.162,206.35a1.5,1.5,0,0,1-1.5-1.5V186.4c0-10.973-5.088-21.02-14.326-28.288a39.15,39.15,0,0,0-10.11-5.619c-6.382-2.5-17.09-7.937-17.09-16.279v-5.508a1.5,1.5,0,0,1,3,0v5.508c0,6.805,10.619,11.7,15.184,13.486a42.131,42.131,0,0,1,10.871,6.054c9.977,7.85,15.471,18.733,15.471,30.646V204.85A1.5,1.5,0,0,1,283.162,206.35Z" fill="#6ea4f8"/>
          </g>
          <g id="Group_7475" data-name="Group 7475">
            <path id="Path_6247" data-name="Path 6247" d="M220.083,189.515a1.5,1.5,0,0,1-1.281-.72l-21.138-34.717a1.5,1.5,0,1,1,2.562-1.561l19.857,32.613,19.855-32.613a1.5,1.5,0,0,1,2.563,1.561l-21.137,34.717A1.5,1.5,0,0,1,220.083,189.515Z" fill="#6ea4f8"/>
          </g>
          <g id="Group_7476" data-name="Group 7476">
            <path id="Path_6248" data-name="Path 6248" d="M219.686,152.286c-7.848,0-14.784-1.533-18.1-4a1.5,1.5,0,0,1,1.791-2.407c2.278,1.695,8.2,3.406,16.308,3.406,6.945,0,13.474-1.351,16.248-3.361a1.5,1.5,0,1,1,1.76,2.43C234.347,150.78,227.447,152.286,219.686,152.286Z" fill="#6ea4f8"/>
          </g>
        </g>
      </g>
    </g>
  </g>
</svg>
