<svg xmlns="http://www.w3.org/2000/svg" xmlns:xlink="http://www.w3.org/1999/xlink" width="440" height="250" viewBox="0 0 440 250">
  <defs>
    <clipPath id="clip-path">
      <path id="Path_4021" data-name="Path 4021" d="M-485.2,170.5a1.2,1.2,0,0,1,1.191-1.2,1.2,1.2,0,0,1,1.19,1.2v21.393a1.2,1.2,0,0,1-1.19,1.2,1.2,1.2,0,0,1-1.191-1.2Zm12.124,0a1.2,1.2,0,0,1,1.191-1.2,1.2,1.2,0,0,1,1.19,1.2v21.393a1.2,1.2,0,0,1-1.19,1.2,1.2,1.2,0,0,1-1.191-1.2Zm12.124,0a1.2,1.2,0,0,1,1.191-1.2,1.2,1.2,0,0,1,1.19,1.2v21.393a1.2,1.2,0,0,1-1.19,1.2,1.2,1.2,0,0,1-1.191-1.2Zm12.124,0a1.2,1.2,0,0,1,1.191-1.2,1.2,1.2,0,0,1,1.191,1.2v21.393a1.2,1.2,0,0,1-1.191,1.2,1.2,1.2,0,0,1-1.191-1.2Zm12.125,0a1.2,1.2,0,0,1,1.19-1.2,1.2,1.2,0,0,1,1.191,1.2v21.393a1.2,1.2,0,0,1-1.191,1.2,1.2,1.2,0,0,1-1.19-1.2Zm-48.5-35.409a1.2,1.2,0,0,1,1.191-1.2,1.2,1.2,0,0,1,1.19,1.2v21.393a1.2,1.2,0,0,1-1.19,1.2,1.2,1.2,0,0,1-1.191-1.2Zm12.124,0a1.2,1.2,0,0,1,1.191-1.2,1.2,1.2,0,0,1,1.19,1.2v21.393a1.2,1.2,0,0,1-1.19,1.2,1.2,1.2,0,0,1-1.191-1.2Zm12.124,0a1.2,1.2,0,0,1,1.191-1.2,1.2,1.2,0,0,1,1.19,1.2v21.393a1.2,1.2,0,0,1-1.19,1.2,1.2,1.2,0,0,1-1.191-1.2Zm12.124,0a1.2,1.2,0,0,1,1.191-1.2,1.2,1.2,0,0,1,1.191,1.2v21.393a1.2,1.2,0,0,1-1.191,1.2,1.2,1.2,0,0,1-1.191-1.2Zm12.125,0a1.2,1.2,0,0,1,1.19-1.2,1.2,1.2,0,0,1,1.191,1.2v21.393a1.2,1.2,0,0,1-1.191,1.2,1.2,1.2,0,0,1-1.19-1.2Zm-48.5-35.409a1.2,1.2,0,0,1,1.191-1.2,1.2,1.2,0,0,1,1.19,1.2v21.393a1.2,1.2,0,0,1-1.19,1.2,1.2,1.2,0,0,1-1.191-1.2Zm12.124,0a1.2,1.2,0,0,1,1.191-1.2,1.2,1.2,0,0,1,1.19,1.2v21.393a1.2,1.2,0,0,1-1.19,1.2,1.2,1.2,0,0,1-1.191-1.2Zm12.124,0a1.2,1.2,0,0,1,1.191-1.2,1.2,1.2,0,0,1,1.19,1.2v21.393a1.2,1.2,0,0,1-1.19,1.2,1.2,1.2,0,0,1-1.191-1.2Zm12.124,0a1.2,1.2,0,0,1,1.191-1.2,1.2,1.2,0,0,1,1.191,1.2v21.393a1.2,1.2,0,0,1-1.191,1.2,1.2,1.2,0,0,1-1.191-1.2Zm12.125,0a1.2,1.2,0,0,1,1.19-1.2,1.2,1.2,0,0,1,1.191,1.2v21.393a1.2,1.2,0,0,1-1.191,1.2,1.2,1.2,0,0,1-1.19-1.2Zm350.24,43.085a1.2,1.2,0,0,1,1.19-1.2,1.2,1.2,0,0,1,1.191,1.2v40.845a1.2,1.2,0,0,1-1.191,1.2,1.2,1.2,0,0,1-1.19-1.2Zm0-37.849a1.2,1.2,0,0,1,1.19-1.2,1.2,1.2,0,0,1,1.191,1.2v18.967a1.2,1.2,0,0,1-1.191,1.2,1.2,1.2,0,0,1-1.19-1.2Zm10.853,37.849a1.2,1.2,0,0,1,1.19-1.2,1.2,1.2,0,0,1,1.191,1.2v40.845a1.2,1.2,0,0,1-1.191,1.2,1.2,1.2,0,0,1-1.19-1.2Zm0-59.727a1.2,1.2,0,0,1,1.19-1.2,1.2,1.2,0,0,1,1.191,1.2v40.845a1.2,1.2,0,0,1-1.191,1.2,1.2,1.2,0,0,1-1.19-1.2Zm10.853,59.727a1.2,1.2,0,0,1,1.191-1.2,1.2,1.2,0,0,1,1.19,1.2v40.845a1.2,1.2,0,0,1-1.19,1.2,1.2,1.2,0,0,1-1.191-1.2Zm0-59.727a1.2,1.2,0,0,1,1.191-1.2,1.2,1.2,0,0,1,1.19,1.2v40.845a1.2,1.2,0,0,1-1.19,1.2,1.2,1.2,0,0,1-1.191-1.2ZM-53.9,142.768a1.2,1.2,0,0,1,1.191-1.2,1.2,1.2,0,0,1,1.191,1.2v40.845a1.2,1.2,0,0,1-1.191,1.2,1.2,1.2,0,0,1-1.191-1.2Zm0-59.727a1.2,1.2,0,0,1,1.191-1.2,1.2,1.2,0,0,1,1.191,1.2v40.845a1.2,1.2,0,0,1-1.191,1.2,1.2,1.2,0,0,1-1.191-1.2ZM-413.209,192.058a1.2,1.2,0,0,1-1.191-1.2,1.2,1.2,0,0,1,1.191-1.2h48.827a1.2,1.2,0,0,1,1.19,1.2,1.2,1.2,0,0,1-1.19,1.2Zm0-11.606a1.2,1.2,0,0,1-1.191-1.2,1.2,1.2,0,0,1,1.191-1.2h48.827a1.2,1.2,0,0,1,1.19,1.2,1.2,1.2,0,0,1-1.19,1.2Zm0-11.6a1.2,1.2,0,0,1-1.191-1.2,1.2,1.2,0,0,1,1.191-1.2h48.827a1.2,1.2,0,0,1,1.19,1.2,1.2,1.2,0,0,1-1.19,1.2Zm0-11.6a1.2,1.2,0,0,1-1.191-1.2,1.2,1.2,0,0,1,1.191-1.2h48.827a1.2,1.2,0,0,1,1.19,1.2,1.2,1.2,0,0,1-1.19,1.2Zm0-11.605a1.2,1.2,0,0,1-1.191-1.2,1.2,1.2,0,0,1,1.191-1.2h48.827a1.2,1.2,0,0,1,1.19,1.2,1.2,1.2,0,0,1-1.19,1.2Zm0-11.6a1.2,1.2,0,0,1-1.191-1.2,1.2,1.2,0,0,1,1.191-1.2h48.827a1.2,1.2,0,0,1,1.19,1.2,1.2,1.2,0,0,1-1.19,1.2Zm0-11.6a1.2,1.2,0,0,1-1.191-1.2,1.2,1.2,0,0,1,1.191-1.2h48.827a1.2,1.2,0,0,1,1.19,1.2,1.2,1.2,0,0,1-1.19,1.2Zm0-11.605a1.2,1.2,0,0,1-1.191-1.2,1.2,1.2,0,0,1,1.191-1.2h48.827a1.2,1.2,0,0,1,1.19,1.2,1.2,1.2,0,0,1-1.19,1.2ZM-309.04,90.474a1.2,1.2,0,0,1,1.191-1.2,1.2,1.2,0,0,1,1.19,1.2V130.3a1.2,1.2,0,0,1-1.19,1.2,1.2,1.2,0,0,1-1.191-1.2Zm-9.6-20.035a1.2,1.2,0,0,1,1.191-1.2,1.2,1.2,0,0,1,1.19,1.2v61.8a1.2,1.2,0,0,1-1.19,1.2,1.2,1.2,0,0,1-1.191-1.2ZM-328,68.015a1.2,1.2,0,0,1,1.191-1.2,1.2,1.2,0,0,1,1.19,1.2v60.831a1.2,1.2,0,0,1-1.19,1.2,1.2,1.2,0,0,1-1.191-1.2Zm-9.36,0a1.2,1.2,0,0,1,1.191-1.2,1.2,1.2,0,0,1,1.19,1.2v57.438a1.2,1.2,0,0,1-1.19,1.2,1.2,1.2,0,0,1-1.191-1.2Zm-9.36,0a1.2,1.2,0,0,1,1.191-1.2,1.2,1.2,0,0,1,1.19,1.2v65.921a1.2,1.2,0,0,1-1.19,1.2,1.2,1.2,0,0,1-1.191-1.2Zm-9.36,0a1.2,1.2,0,0,1,1.191-1.2,1.2,1.2,0,0,1,1.19,1.2v8a1.2,1.2,0,0,1-1.19,1.2,1.2,1.2,0,0,1-1.191-1.2Zm-5.9,8a1.2,1.2,0,0,1-1.19,1.2,1.2,1.2,0,0,1-1.191-1.2V61.229a1.2,1.2,0,0,1,1.191-1.2h44.039a1.2,1.2,0,0,1,1.19,1.2,1.2,1.2,0,0,1-1.19,1.2h-42.849Zm180.609,147.531a1.2,1.2,0,0,1-1.191-1.2,1.2,1.2,0,0,1,1.191-1.2h129.36a1.2,1.2,0,0,1,1.19,1.2,1.2,1.2,0,0,1-1.19,1.2Zm9.973-19.723a1.2,1.2,0,0,1-1.191-1.2,1.2,1.2,0,0,1,1.191-1.2H-52.009a1.2,1.2,0,0,1,1.19,1.2,1.2,1.2,0,0,1-1.19,1.2Zm-312.613,0a1.2,1.2,0,0,1-1.191-1.2,1.2,1.2,0,0,1,1.191-1.2h119.627a1.2,1.2,0,0,1,1.19,1.2,1.2,1.2,0,0,1-1.19,1.2Zm0,19.723a1.2,1.2,0,0,1-1.191-1.2,1.2,1.2,0,0,1,1.191-1.2h129.947a1.2,1.2,0,0,1,1.19,1.2,1.2,1.2,0,0,1-1.19,1.2Zm379.2-27.075a1.2,1.2,0,0,1-1.191,1.2,1.2,1.2,0,0,1-1.19-1.2V171.838a11.063,11.063,0,0,0-11.009-11.117,11.064,11.064,0,0,0-11.01,11.117v24.631a1.2,1.2,0,0,1-1.19,1.2,1.2,1.2,0,0,1-1.191-1.2V171.838a13.457,13.457,0,0,1,13.391-13.521,13.456,13.456,0,0,1,13.39,13.521Zm-35.955,0a1.2,1.2,0,0,1-1.19,1.2,1.2,1.2,0,0,1-1.191-1.2V171.838a11.063,11.063,0,0,0-11.009-11.117,11.063,11.063,0,0,0-11.009,11.117v24.631a1.2,1.2,0,0,1-1.191,1.2,1.2,1.2,0,0,1-1.19-1.2V171.838a13.456,13.456,0,0,1,13.39-13.521,13.456,13.456,0,0,1,13.39,13.521Zm35.514-59.073a5.848,5.848,0,0,0-5.819-5.876,5.847,5.847,0,0,0-5.818,5.876V148.02h11.637Zm-5.819-8.28a8.24,8.24,0,0,1,8.2,8.28v11.826a1.2,1.2,0,0,1-1.191,1.2h-14.018a1.2,1.2,0,0,1-1.19-1.2V137.4A8.24,8.24,0,0,1-111.065,129.116ZM-130.7,137.4a5.847,5.847,0,0,0-5.818-5.876,5.848,5.848,0,0,0-5.819,5.876V148.02H-130.7Zm2.381,11.826a1.2,1.2,0,0,1-1.191,1.2H-143.53a1.2,1.2,0,0,1-1.191-1.2V137.4a8.24,8.24,0,0,1,8.2-8.28,8.24,8.24,0,0,1,8.2,8.28ZM-156.16,137.4a5.847,5.847,0,0,0-5.818-5.876A5.848,5.848,0,0,0-167.8,137.4V148.02h11.637Zm-5.818-8.28a8.24,8.24,0,0,1,8.2,8.28v11.826a1.2,1.2,0,0,1-1.19,1.2h-14.018a1.2,1.2,0,0,1-1.191-1.2V137.4A8.24,8.24,0,0,1-161.978,129.116Zm56.732-20.921a5.848,5.848,0,0,0-5.819-5.876,5.847,5.847,0,0,0-5.818,5.876v10.624h11.637Zm-5.819-8.28a8.24,8.24,0,0,1,8.2,8.28v11.826a1.2,1.2,0,0,1-1.191,1.2h-14.018a1.2,1.2,0,0,1-1.19-1.2V108.195A8.24,8.24,0,0,1-111.065,99.915Zm-19.638,8.28a5.847,5.847,0,0,0-5.818-5.876,5.848,5.848,0,0,0-5.819,5.876v10.624H-130.7Zm2.381,11.826a1.2,1.2,0,0,1-1.191,1.2H-143.53a1.2,1.2,0,0,1-1.191-1.2V108.195a8.24,8.24,0,0,1,8.2-8.28,8.24,8.24,0,0,1,8.2,8.28Zm-27.838-11.826a5.847,5.847,0,0,0-5.818-5.876,5.848,5.848,0,0,0-5.819,5.876v10.624h11.637Zm-5.818-8.28a8.24,8.24,0,0,1,8.2,8.28v11.826a1.2,1.2,0,0,1-1.19,1.2h-14.018a1.2,1.2,0,0,1-1.191-1.2V108.195A8.24,8.24,0,0,1-161.978,99.915Zm-21.191,64.561a1.2,1.2,0,0,1,1.19,1.2,1.2,1.2,0,0,1-1.19,1.2H-187.8a1.2,1.2,0,0,1-1.191-1.2,1.2,1.2,0,0,1,1.191-1.2Zm0-11.224a1.2,1.2,0,0,1,1.19,1.2,1.2,1.2,0,0,1-1.19,1.2H-187.8a1.2,1.2,0,0,1-1.191-1.2,1.2,1.2,0,0,1,1.191-1.2Zm0-11.248a1.2,1.2,0,0,1,1.19,1.2,1.2,1.2,0,0,1-1.19,1.2H-187.8a1.2,1.2,0,0,1-1.191-1.2A1.2,1.2,0,0,1-187.8,142Zm0-11.218a1.2,1.2,0,0,1,1.19,1.2,1.2,1.2,0,0,1-1.19,1.2H-195a1.2,1.2,0,0,1-1.191-1.2,1.2,1.2,0,0,1,1.191-1.2Zm-29.67,0a1.2,1.2,0,0,1,1.19,1.2,1.2,1.2,0,0,1-1.19,1.2h-12.308a1.2,1.2,0,0,1-1.191-1.2,1.2,1.2,0,0,1,1.191-1.2Zm29.67-11.139a1.2,1.2,0,0,1,1.19,1.2,1.2,1.2,0,0,1-1.19,1.2h-41.978a1.2,1.2,0,0,1-1.191-1.2,1.2,1.2,0,0,1,1.191-1.2Zm.36-11.23a1.2,1.2,0,0,1,1.19,1.2,1.2,1.2,0,0,1-1.19,1.2h-42.338a1.2,1.2,0,0,1-1.191-1.2,1.2,1.2,0,0,1,1.191-1.2Zm0-11.229a1.2,1.2,0,0,1,1.19,1.2,1.2,1.2,0,0,1-1.19,1.2h-42.338a1.2,1.2,0,0,1-1.191-1.2,1.2,1.2,0,0,1,1.191-1.2Zm0-11.229a1.2,1.2,0,0,1,1.19,1.2,1.2,1.2,0,0,1-1.19,1.2h-42.338a1.2,1.2,0,0,1-1.191-1.2,1.2,1.2,0,0,1,1.191-1.2Zm0-11.229a1.2,1.2,0,0,1,1.19,1.2,1.2,1.2,0,0,1-1.19,1.2h-36.578a1.2,1.2,0,0,1-1.191-1.2,1.2,1.2,0,0,1,1.191-1.2Zm-50.15,28.508a1.2,1.2,0,0,1,1.191-1.2,1.2,1.2,0,0,1,1.19,1.2v24.639a1.2,1.2,0,0,1-1.19,1.2,1.2,1.2,0,0,1-1.191-1.2Zm137.74-7.765v101a1.2,1.2,0,0,1-1.19,1.2,1.2,1.2,0,0,1-1.191-1.2v-101h-71.154a1.2,1.2,0,0,1-1.191-1.2,1.2,1.2,0,0,1,1.191-1.2H-90.6l-6.412-8.824h-71.742a1.2,1.2,0,0,1-1.191-1.2,1.2,1.2,0,0,1,1.191-1.2h72.345a1.187,1.187,0,0,1,.959.491l8.16,11.229a1.2,1.2,0,0,1-.959,1.914Zm-324.666-9.129V195.252a1.2,1.2,0,0,1-1.191,1.2,1.2,1.2,0,0,1-1.19-1.2V86.344h-61.743a1.2,1.2,0,0,1-1.191-1.2,1.2,1.2,0,0,1,1.191-1.2h63.831l-1.841-7.912h-61.99a1.2,1.2,0,0,1-1.191-1.2,1.2,1.2,0,0,1,1.191-1.2h62.933a1.192,1.192,0,0,1,1.159.927l2.4,10.316a1.2,1.2,0,0,1-1.159,1.477Zm63.805,11.41V83.92h-57.129a1.2,1.2,0,0,1-1.191-1.2,1.2,1.2,0,0,1,1.191-1.2h58.32a1.2,1.2,0,0,1,1.19,1.2v84.936a1.2,1.2,0,0,1-1.19,1.2,1.2,1.2,0,0,1-1.191-1.2v-67.5h-57.129a1.2,1.2,0,0,1-1.191-1.2,1.2,1.2,0,0,1,1.191-1.2Zm-84.6-37.727V54.82h-14.859v5.207Zm2.381-5.394v5.394h49.339V33.478Zm-19.621,2.586v-3.6a1.2,1.2,0,0,1,1.191-1.2h17.24a1.16,1.16,0,0,1,.222.021l51.033-21.881a1.192,1.192,0,0,1,1.655,1.107V77.29a1.2,1.2,0,0,1-1.19,1.2,1.2,1.2,0,0,1-1.191-1.2V62.431H-438.3v6.8a1.2,1.2,0,0,1-1.19,1.2,1.2,1.2,0,0,1-1.191-1.2v-6.8h-14.859v6.8a1.2,1.2,0,0,1-1.19,1.2,1.2,1.2,0,0,1-1.191-1.2V57.219ZM-203.714,40.8l-17.324,18.339a1.183,1.183,0,0,1-1.683.04,1.211,1.211,0,0,1-.039-1.7l17.739-18.778a1.2,1.2,0,0,1,.34-.636,1.181,1.181,0,0,1,.959-.331,1.18,1.18,0,0,1,.953.325,1.2,1.2,0,0,1,.345.63l27.343,28.485a1.212,1.212,0,0,1,.335.837V172.283a1.2,1.2,0,0,1-1.19,1.2,1.2,1.2,0,0,1-1.191-1.2V68.5ZM-84.082,63.5h32.073a1.2,1.2,0,0,1,1.19,1.2,1.2,1.2,0,0,1-1.19,1.2h-62.77v3.7h62.77a1.2,1.2,0,0,1,1.19,1.2,1.2,1.2,0,0,1-1.19,1.2h-62.77v4.414a1.2,1.2,0,0,1-1.19,1.2,1.2,1.2,0,0,1-1.191-1.2V64.7a1.2,1.2,0,0,1,1.191-1.2h29.506V48.623a1.2,1.2,0,0,1,1.19-1.2h32.56a1.2,1.2,0,0,1,1.191,1.2,1.2,1.2,0,0,1-1.191,1.2H-84.082Z" fill="#d0dbe9" clip-rule="evenodd"/>
    </clipPath>
    <clipPath id="clip-path-2">
      <rect id="Rectangle_480" data-name="Rectangle 480" width="435" height="194" transform="translate(-485.2 29.966)" fill="#d0dbe9"/>
    </clipPath>
    <clipPath id="clip-path-3">
      <path id="Path_4023" data-name="Path 4023" d="M-330.222,157.342s.04-5.453,4.24-4.552v27.463c-2.035-.465-4.24-1.881-4.24-5.835Zm118.738,22.665a10.1,10.1,0,0,1-8.338-1.8l-.045-.037a10.289,10.289,0,0,1-2.691-3.552,13.773,13.773,0,0,1-1.295-4.066c-.02-.1-.04-.2-.058-.3,0,0-1.445-8.479,2.062-12.04a4.379,4.379,0,0,1,2.109-1.283v15.111A7.944,7.944,0,0,0-211.484,180.007ZM-314.32,124.065l46.647,17.118v.9l-46.647-13.833Zm36.732-16.871a20.191,20.191,0,0,0,9.426,7.259,18.618,18.618,0,0,0,3.67.929,18.363,18.363,0,0,1-2.688.2h-1.291a18.508,18.508,0,0,1-6.358-1.131,20.191,20.191,0,0,1-9.426-7.259l-3.217-4.477c-2.142-2.982-3.539-7.676-4.062-11.41,0,0-.072-.933-.631-.944-2.467-.049-4.282-3.046-4.8-7.3,0,0-2.226-11.124,4-11.088a20.007,20.007,0,0,1,.329-2.858l.459-2.6c1.294-7.334,5.9-11.646,12.15-14.428a30.6,30.6,0,0,1,11.565-2.238h1.291c.935,0,1.833.044,2.688.118a30.023,30.023,0,0,0-8.877,2.12c-6.253,2.782-10.857,7.094-12.151,14.428l-.16.908a57.587,57.587,0,0,0-.552,7.967c.126,4.378.449,11.823,1.229,15.37h0a1.87,1.87,0,0,1,.136.541c.523,3.734,1.919,8.428,4.061,11.41Zm-10.228,98.353-31.8.15V184.391a14.252,14.252,0,0,0,6.139-4.24,17.435,17.435,0,0,0,4.036-11.364v-4.28a13.172,13.172,0,0,0-1.756-6.627,11.059,11.059,0,0,0-5.094-4.639l-3.325-1.46v-20.3l18.634,5.735Zm8.335-93.006s1.668,11.621-6.247,17.071a4.606,4.606,0,0,1-4.251.513l-1.105-.422a1.5,1.5,0,0,1-.259-2.675c3.645-2.29,9.253-7.557,7.8-17.805Zm21.35,30.771,8.481-2.285V160.49l-4.227-1.89-4.254,4.691Z" fill="#d0dbe8" clip-rule="evenodd"/>
    </clipPath>
    <clipPath id="clip-path-4">
      <path id="Path_4024" data-name="Path 4024" d="M-244.1,87.023a1.2,1.2,0,0,1-1.457.958,1.325,1.325,0,0,1-.878-1.589l.03-.137q.038-.177.084-.408c.088-.442.176-.929.259-1.443.16-1,.277-1.98.334-2.888q.022-.363.032-.7a1.254,1.254,0,0,1,1.238-1.273,1.268,1.268,0,0,1,1.167,1.349c-.007.262-.019.532-.036.808-.064,1.008-.192,2.075-.365,3.159-.088.552-.183,1.073-.278,1.549C-244.026,86.692-244.071,86.9-244.1,87.023Zm-46.933-.631a1.324,1.324,0,0,1-.879,1.589,1.2,1.2,0,0,1-1.457-.958c-.027-.12-.072-.331-.129-.619-.1-.476-.19-1-.278-1.55-.173-1.083-.3-2.15-.365-3.158-.017-.276-.029-.546-.036-.808a1.268,1.268,0,0,1,1.167-1.349,1.254,1.254,0,0,1,1.238,1.273q.009.341.032.7c.057.908.174,1.888.334,2.888.083.514.171,1,.259,1.443.031.154.059.291.084.408Zm47.958-19.982.449,2.58c.12.688.206,1.322.263,1.894a4.728,4.728,0,0,1,3.067,2.189,9.547,9.547,0,0,1,1.252,4.382,22.776,22.776,0,0,1-.146,4.524c-.044.35-.09.671-.138.956-.023.141-.042.25-.057.325-.56,4.546-2.492,7.819-5.339,8.281-.616,4.347-2.151,8.91-4.186,11.782l-3.152,4.447a21.1,21.1,0,0,1-9.836,7.671,19.188,19.188,0,0,1-6.673,1.2h-1.265a19.189,19.189,0,0,1-6.674-1.2,21.1,21.1,0,0,1-9.836-7.671l-3.152-4.447c-2.035-2.872-3.57-7.435-4.186-11.782-2.846-.462-4.779-3.735-5.339-8.281-.014-.075-.034-.184-.057-.325-.047-.285-.094-.606-.138-.956a22.777,22.777,0,0,1-.146-4.524,9.548,9.548,0,0,1,1.253-4.382,4.724,4.724,0,0,1,3.066-2.189c.057-.572.143-1.206.263-1.894l.449-2.58c1.256-7.218,5.542-12.079,12.64-15.28a30.306,30.306,0,0,1,11.857-2.337h1.266a30.291,30.291,0,0,1,11.835,2.328c.216.1.41.187.6.278l1.892-1.3a1.284,1.284,0,0,1,1.819.381l1.067,1.719,2.468.564a1.286,1.286,0,0,1,.867,1.819l-.915,1.869A18.822,18.822,0,0,1-243.074,66.41ZM-327.26,179.057c5.509,2.557,11.465-2.725,11.465-10.537V164.1c0-2.935-1.421-5.514-3.478-6.469l-6.89-3.2c-1.2-.556-2.584.675-2.584,2.66V176.2A3.108,3.108,0,0,0-327.26,179.057Zm-1.029,2.422a5.725,5.725,0,0,1-2.994-5.278V157.089c0-3.744,3.1-6.5,6.149-5.083l6.89,3.2c3.025,1.4,4.984,4.96,4.984,8.892v4.424C-313.26,178.091-320.931,184.894-328.289,181.479Zm117.023-2.422a3.108,3.108,0,0,0,1.487-2.856V157.089c0-1.985-1.388-3.216-2.584-2.66l-6.89,3.2c-2.057.954-3.478,3.534-3.478,6.469v4.424C-222.731,176.332-216.775,181.614-211.266,179.057Zm1.029,2.422c-7.358,3.415-15.029-3.388-15.029-12.959V164.1c0-3.932,1.959-7.488,4.984-8.892l6.89-3.2c3.045-1.413,6.148,1.339,6.148,5.083V176.2A5.724,5.724,0,0,1-210.237,181.479Zm-56.376-29.621a1.192,1.192,0,0,1,1.06-1.289,1.192,1.192,0,0,1,1.061,1.289v53.611a1.191,1.191,0,0,1-1.061,1.288,1.191,1.191,0,0,1-1.06-1.288Zm-6.361,0a1.192,1.192,0,0,1,1.061-1.289,1.192,1.192,0,0,1,1.06,1.289v53.611a1.191,1.191,0,0,1-1.06,1.288,1.191,1.191,0,0,1-1.061-1.288Zm22.855,38.938a1.268,1.268,0,0,1-1.593-.845,1.291,1.291,0,0,1,.834-1.613l18.66-5.9a1.269,1.269,0,0,1,1.593.844,1.291,1.291,0,0,1-.835,1.613Zm-8.421-5.3a1.335,1.335,0,0,1-1.651-.812,1.225,1.225,0,0,1,.865-1.551l31.288-9.185a1.336,1.336,0,0,1,1.651.813,1.226,1.226,0,0,1-.865,1.551Zm-.011-8.48a1.328,1.328,0,0,1-1.641-.809,1.218,1.218,0,0,1,.86-1.542l31.3-9.2a1.326,1.326,0,0,1,1.641.808,1.219,1.219,0,0,1-.859,1.542Zm-17.465,9.21a1.278,1.278,0,0,1,.863,1.6,1.316,1.316,0,0,1-1.64.845l-33.424-10.157a1.277,1.277,0,0,1-.863-1.605,1.315,1.315,0,0,1,1.64-.844Zm-.008-11.53a1.2,1.2,0,0,1,.87,1.521,1.346,1.346,0,0,1-1.654.8l-32.341-9.231a1.2,1.2,0,0,1-.871-1.521,1.347,1.347,0,0,1,1.655-.8Zm.008-10.733a1.278,1.278,0,0,1,.863,1.6,1.316,1.316,0,0,1-1.64.844l-33.424-10.156a1.278,1.278,0,0,1-.863-1.605,1.316,1.316,0,0,1,1.64-.845Zm58.171,21.821a1.192,1.192,0,0,1,1.06-1.291,1.193,1.193,0,0,1,1.06,1.291v20.741a1.194,1.194,0,0,1-1.06,1.292,1.193,1.193,0,0,1-1.06-1.292Zm-103.9-.142a1.107,1.107,0,0,1,1.06-1.149,1.107,1.107,0,0,1,1.06,1.149v19.965a1.107,1.107,0,0,1-1.06,1.149,1.107,1.107,0,0,1-1.06-1.149Zm51.891-46.069,46.049-16.493a1.278,1.278,0,0,1,1.715,1.191v2.435a1.273,1.273,0,0,1-1.279,1.266,1.273,1.273,0,0,1-1.28-1.266v-.631l-44.493,15.936a1.3,1.3,0,0,1-.654.057,1.307,1.307,0,0,1-.664-.059l-44.485-15.974v.928a1.263,1.263,0,0,1-1.28,1.245,1.262,1.262,0,0,1-1.279-1.245V124.25a1.275,1.275,0,0,1,1.722-1.167Zm12.779,21.522,2.247-2.661a1.226,1.226,0,0,1,1.473-.324l2.641,1.267V143.035l-6.361,1.955Zm-.969,4.31a.685.685,0,0,1-.091,0,1.176,1.176,0,0,1-1.061-1.265v-18.5l-8.945,2.751a1.291,1.291,0,0,1-1.126-.18,1.291,1.291,0,0,1-1.126.18l-48.8-15.005v16.986a1.266,1.266,0,0,1-1.276,1.255,1.265,1.265,0,0,1-1.275-1.255V131.681a1.272,1.272,0,0,1,1.656-1.2L-269.628,146a1.267,1.267,0,0,1,.365.179A1.267,1.267,0,0,1-268.9,146l18.541-5.7a.958.958,0,0,1,.707-.33.9.9,0,0,1,.249.036l30.96-9.519a1.272,1.272,0,0,1,1.656,1.2v18.693a1.265,1.265,0,0,1-1.275,1.255,1.266,1.266,0,0,1-1.276-1.255V133.388l-29.254,8.995v18.553c0,.053,0,.1-.008.156a1.351,1.351,0,0,1-.108.692,1.239,1.239,0,0,1-1.671.641l-3.176-1.525-3.434,4.066A1.23,1.23,0,0,1-258.04,165.406Zm6.086-43.366c-3.517,3.961-9.451,6.265-16.261,6.265-6.931,0-12.9-2.34-16.384-6.4a17.073,17.073,0,0,1-4,3.973c-.042.031-.118.085-.224.158-.173.121-.369.255-.585.4-.617.412-1.272.824-1.938,1.209-.307.178-.61.347-.908.5a1.318,1.318,0,0,1-1.764-.508,1.251,1.251,0,0,1,.522-1.719q.4-.213.821-.456c.615-.356,1.223-.739,1.8-1.121.2-.134.382-.258.541-.369l.144-.1.041-.03c3.208-2.335,4.965-5.12,5.037-8.086a1.286,1.286,0,0,1,1.331-1.237,1.282,1.282,0,0,1,1.27,1.3,10.451,10.451,0,0,1-.748,3.627c2.792,3.934,8.351,6.319,15.048,6.319,6.4,0,11.826-2.231,14.731-5.9a10.913,10.913,0,0,1-1.467-5.123,1.275,1.275,0,0,1,1.27-1.282,1.28,1.28,0,0,1,1.331,1.222c.073,2.976,1.879,5.881,5.033,8.15l.045.032c.04.029.088.062.143.1.159.11.341.232.541.364.574.379,1.183.757,1.8,1.108.279.16.554.311.822.451a1.23,1.23,0,0,1,.522,1.7,1.327,1.327,0,0,1-1.764.5c-.3-.156-.6-.323-.909-.5-.666-.382-1.32-.788-1.937-1.195-.216-.143-.412-.275-.586-.4-.1-.072-.181-.125-.227-.159A17.4,17.4,0,0,1-251.954,122.04Zm-39.551-50.721c.3.151.633.3,1,.445.12.047.243.092.368.136a1.243,1.243,0,0,1,.838,1.084s0,.038.012.1a3.942,3.942,0,0,0,.081.392,4.132,4.132,0,0,0,.525,1.211,3.447,3.447,0,0,0,1.983,1.471c-.031-1.192-.04-2.407-.013-3.553a24.77,24.77,0,0,1,.309-3.752,4.79,4.79,0,0,1,.48-1.483,1.68,1.68,0,0,1,2.042-.871,24.16,24.16,0,0,0,11.244,1.058,20.534,20.534,0,0,0,7.473-2.706,19.175,19.175,0,0,0,2.789-2.027c.27-.238.5-.458.692-.652.109-.11.177-.184.2-.214a1.3,1.3,0,0,1,2.2.448,5.162,5.162,0,0,0,3.267,3.413,9.186,9.186,0,0,0,2.33.561,9.671,9.671,0,0,0,1.4.062,1.32,1.32,0,0,1,1.269.619c.482.821.751,2.709.975,5.744.088,1.2.158,2.476.213,3.755l.01.26a3.275,3.275,0,0,0,1.353-1.551,7.275,7.275,0,0,0,.521-1.475c.043-.177.076-.342.1-.487.014-.081.022-.134.024-.153a1.252,1.252,0,0,1,.989-1.067,10.049,10.049,0,0,0,1.294-.365,5.042,5.042,0,0,0,.643-.279l0-.039c-.049-.575-.134-1.236-.262-1.971l-.449-2.58a16.181,16.181,0,0,0-4.776-9.218,1.286,1.286,0,0,1-.263-1.493l.6-1.233-1.409-.323a1.281,1.281,0,0,1-.806-.575l-.639-1.03-1.4.964a1.285,1.285,0,0,1-1.3.088q-.562-.283-1.159-.552a27.735,27.735,0,0,0-10.81-2.115h-1.264a27.747,27.747,0,0,0-10.813,2.115c-6.362,2.872-10.056,7.063-11.154,13.372l-.449,2.58C-291.372,70.131-291.454,70.763-291.505,71.319Zm-1.511,2.019c-1.7.081-2.57,1.539-2.785,4.316a20.232,20.232,0,0,0,.134,4.006c.039.316.081.6.123.856.014.087.028.163.039.227.485,3.936,1.954,6.251,3.485,6.282a1.8,1.8,0,0,1,1.691,1.3,3.078,3.078,0,0,1,.148.55c.015.086.024.161.031.222.556,4,1.971,8.226,3.749,10.735l3.152,4.447a18.539,18.539,0,0,0,8.632,6.747,16.627,16.627,0,0,0,5.782,1.043h1.265a16.625,16.625,0,0,0,5.781-1.043,18.539,18.539,0,0,0,8.632-6.747l3.152-4.447c1.778-2.509,3.193-6.737,3.749-10.735.007-.061.017-.136.032-.222a3.072,3.072,0,0,1,.147-.55,1.8,1.8,0,0,1,1.691-1.3c1.532-.031,3-2.346,3.457-6.119.04-.227.053-.3.067-.39.042-.253.084-.54.123-.855a20.238,20.238,0,0,0,.134-4.006c-.208-2.682-1.028-4.134-2.612-4.3a6.88,6.88,0,0,1-1.415.684q-.375.136-.806.258l-.015.063a9.592,9.592,0,0,1-.7,1.97,5.094,5.094,0,0,1-4.941,3.207,1.256,1.256,0,0,1-1.223-1.2l0-.117c0-.1-.006-.211-.01-.339-.013-.366-.028-.774-.047-1.214-.053-1.256-.122-2.511-.208-3.68-.091-1.237-.2-2.3-.316-3.141-.052-.364-.107-.68-.159-.932-.283-.012-.589-.035-.911-.072a11.767,11.767,0,0,1-3-.727,7.862,7.862,0,0,1-3.96-3.214,21.944,21.944,0,0,1-2.881,2.057A23.149,23.149,0,0,1-272.229,70a26.438,26.438,0,0,1-11.619-.9c-.013.06-.025.123-.038.189a22.851,22.851,0,0,0-.268,3.369c-.029,1.235-.016,2.564.025,3.852.009.281.018.537.028.763q0,.118.009.207l0,.069a1.257,1.257,0,0,1-1.332,1.3A6.42,6.42,0,0,1-290.846,76a6.565,6.565,0,0,1-.837-1.921c-.01-.04-.02-.079-.029-.118A13.008,13.008,0,0,1-293.016,73.338Z" fill="none" clip-rule="evenodd"/>
    </clipPath>
  </defs>
  <g id="Group_7227" data-name="Group 7227" transform="translate(-472 -1911)">
    <rect id="Rectangle_475" data-name="Rectangle 475" width="440" height="250" transform="translate(472 1911)" fill="#fff"/>
    <g id="Group_4449" data-name="Group 4449" transform="translate(960.2 1910.542)">
      <g id="Background">
        <g id="Group_4444" data-name="Group 4444">
          <g id="Group_4443" data-name="Group 4443">
            <g id="Group_4442" data-name="Group 4442">
              <path id="Path_4020" data-name="Path 4020" d="M-485.2,170.5a1.2,1.2,0,0,1,1.191-1.2,1.2,1.2,0,0,1,1.19,1.2v21.393a1.2,1.2,0,0,1-1.19,1.2,1.2,1.2,0,0,1-1.191-1.2Zm12.124,0a1.2,1.2,0,0,1,1.191-1.2,1.2,1.2,0,0,1,1.19,1.2v21.393a1.2,1.2,0,0,1-1.19,1.2,1.2,1.2,0,0,1-1.191-1.2Zm12.124,0a1.2,1.2,0,0,1,1.191-1.2,1.2,1.2,0,0,1,1.19,1.2v21.393a1.2,1.2,0,0,1-1.19,1.2,1.2,1.2,0,0,1-1.191-1.2Zm12.124,0a1.2,1.2,0,0,1,1.191-1.2,1.2,1.2,0,0,1,1.191,1.2v21.393a1.2,1.2,0,0,1-1.191,1.2,1.2,1.2,0,0,1-1.191-1.2Zm12.125,0a1.2,1.2,0,0,1,1.19-1.2,1.2,1.2,0,0,1,1.191,1.2v21.393a1.2,1.2,0,0,1-1.191,1.2,1.2,1.2,0,0,1-1.19-1.2Zm-48.5-35.409a1.2,1.2,0,0,1,1.191-1.2,1.2,1.2,0,0,1,1.19,1.2v21.393a1.2,1.2,0,0,1-1.19,1.2,1.2,1.2,0,0,1-1.191-1.2Zm12.124,0a1.2,1.2,0,0,1,1.191-1.2,1.2,1.2,0,0,1,1.19,1.2v21.393a1.2,1.2,0,0,1-1.19,1.2,1.2,1.2,0,0,1-1.191-1.2Zm12.124,0a1.2,1.2,0,0,1,1.191-1.2,1.2,1.2,0,0,1,1.19,1.2v21.393a1.2,1.2,0,0,1-1.19,1.2,1.2,1.2,0,0,1-1.191-1.2Zm12.124,0a1.2,1.2,0,0,1,1.191-1.2,1.2,1.2,0,0,1,1.191,1.2v21.393a1.2,1.2,0,0,1-1.191,1.2,1.2,1.2,0,0,1-1.191-1.2Zm12.125,0a1.2,1.2,0,0,1,1.19-1.2,1.2,1.2,0,0,1,1.191,1.2v21.393a1.2,1.2,0,0,1-1.191,1.2,1.2,1.2,0,0,1-1.19-1.2Zm-48.5-35.409a1.2,1.2,0,0,1,1.191-1.2,1.2,1.2,0,0,1,1.19,1.2v21.393a1.2,1.2,0,0,1-1.19,1.2,1.2,1.2,0,0,1-1.191-1.2Zm12.124,0a1.2,1.2,0,0,1,1.191-1.2,1.2,1.2,0,0,1,1.19,1.2v21.393a1.2,1.2,0,0,1-1.19,1.2,1.2,1.2,0,0,1-1.191-1.2Zm12.124,0a1.2,1.2,0,0,1,1.191-1.2,1.2,1.2,0,0,1,1.19,1.2v21.393a1.2,1.2,0,0,1-1.19,1.2,1.2,1.2,0,0,1-1.191-1.2Zm12.124,0a1.2,1.2,0,0,1,1.191-1.2,1.2,1.2,0,0,1,1.191,1.2v21.393a1.2,1.2,0,0,1-1.191,1.2,1.2,1.2,0,0,1-1.191-1.2Zm12.125,0a1.2,1.2,0,0,1,1.19-1.2,1.2,1.2,0,0,1,1.191,1.2v21.393a1.2,1.2,0,0,1-1.191,1.2,1.2,1.2,0,0,1-1.19-1.2Zm350.24,43.085a1.2,1.2,0,0,1,1.19-1.2,1.2,1.2,0,0,1,1.191,1.2v40.845a1.2,1.2,0,0,1-1.191,1.2,1.2,1.2,0,0,1-1.19-1.2Zm0-37.849a1.2,1.2,0,0,1,1.19-1.2,1.2,1.2,0,0,1,1.191,1.2v18.967a1.2,1.2,0,0,1-1.191,1.2,1.2,1.2,0,0,1-1.19-1.2Zm10.853,37.849a1.2,1.2,0,0,1,1.19-1.2,1.2,1.2,0,0,1,1.191,1.2v40.845a1.2,1.2,0,0,1-1.191,1.2,1.2,1.2,0,0,1-1.19-1.2Zm0-59.727a1.2,1.2,0,0,1,1.19-1.2,1.2,1.2,0,0,1,1.191,1.2v40.845a1.2,1.2,0,0,1-1.191,1.2,1.2,1.2,0,0,1-1.19-1.2Zm10.853,59.727a1.2,1.2,0,0,1,1.191-1.2,1.2,1.2,0,0,1,1.19,1.2v40.845a1.2,1.2,0,0,1-1.19,1.2,1.2,1.2,0,0,1-1.191-1.2Zm0-59.727a1.2,1.2,0,0,1,1.191-1.2,1.2,1.2,0,0,1,1.19,1.2v40.845a1.2,1.2,0,0,1-1.19,1.2,1.2,1.2,0,0,1-1.191-1.2ZM-53.9,142.768a1.2,1.2,0,0,1,1.191-1.2,1.2,1.2,0,0,1,1.191,1.2v40.845a1.2,1.2,0,0,1-1.191,1.2,1.2,1.2,0,0,1-1.191-1.2Zm0-59.727a1.2,1.2,0,0,1,1.191-1.2,1.2,1.2,0,0,1,1.191,1.2v40.845a1.2,1.2,0,0,1-1.191,1.2,1.2,1.2,0,0,1-1.191-1.2ZM-413.209,192.058a1.2,1.2,0,0,1-1.191-1.2,1.2,1.2,0,0,1,1.191-1.2h48.827a1.2,1.2,0,0,1,1.19,1.2,1.2,1.2,0,0,1-1.19,1.2Zm0-11.606a1.2,1.2,0,0,1-1.191-1.2,1.2,1.2,0,0,1,1.191-1.2h48.827a1.2,1.2,0,0,1,1.19,1.2,1.2,1.2,0,0,1-1.19,1.2Zm0-11.6a1.2,1.2,0,0,1-1.191-1.2,1.2,1.2,0,0,1,1.191-1.2h48.827a1.2,1.2,0,0,1,1.19,1.2,1.2,1.2,0,0,1-1.19,1.2Zm0-11.6a1.2,1.2,0,0,1-1.191-1.2,1.2,1.2,0,0,1,1.191-1.2h48.827a1.2,1.2,0,0,1,1.19,1.2,1.2,1.2,0,0,1-1.19,1.2Zm0-11.605a1.2,1.2,0,0,1-1.191-1.2,1.2,1.2,0,0,1,1.191-1.2h48.827a1.2,1.2,0,0,1,1.19,1.2,1.2,1.2,0,0,1-1.19,1.2Zm0-11.6a1.2,1.2,0,0,1-1.191-1.2,1.2,1.2,0,0,1,1.191-1.2h48.827a1.2,1.2,0,0,1,1.19,1.2,1.2,1.2,0,0,1-1.19,1.2Zm0-11.6a1.2,1.2,0,0,1-1.191-1.2,1.2,1.2,0,0,1,1.191-1.2h48.827a1.2,1.2,0,0,1,1.19,1.2,1.2,1.2,0,0,1-1.19,1.2Zm0-11.605a1.2,1.2,0,0,1-1.191-1.2,1.2,1.2,0,0,1,1.191-1.2h48.827a1.2,1.2,0,0,1,1.19,1.2,1.2,1.2,0,0,1-1.19,1.2ZM-309.04,90.474a1.2,1.2,0,0,1,1.191-1.2,1.2,1.2,0,0,1,1.19,1.2V130.3a1.2,1.2,0,0,1-1.19,1.2,1.2,1.2,0,0,1-1.191-1.2Zm-9.6-20.035a1.2,1.2,0,0,1,1.191-1.2,1.2,1.2,0,0,1,1.19,1.2v61.8a1.2,1.2,0,0,1-1.19,1.2,1.2,1.2,0,0,1-1.191-1.2ZM-328,68.015a1.2,1.2,0,0,1,1.191-1.2,1.2,1.2,0,0,1,1.19,1.2v60.831a1.2,1.2,0,0,1-1.19,1.2,1.2,1.2,0,0,1-1.191-1.2Zm-9.36,0a1.2,1.2,0,0,1,1.191-1.2,1.2,1.2,0,0,1,1.19,1.2v57.438a1.2,1.2,0,0,1-1.19,1.2,1.2,1.2,0,0,1-1.191-1.2Zm-9.36,0a1.2,1.2,0,0,1,1.191-1.2,1.2,1.2,0,0,1,1.19,1.2v65.921a1.2,1.2,0,0,1-1.19,1.2,1.2,1.2,0,0,1-1.191-1.2Zm-9.36,0a1.2,1.2,0,0,1,1.191-1.2,1.2,1.2,0,0,1,1.19,1.2v8a1.2,1.2,0,0,1-1.19,1.2,1.2,1.2,0,0,1-1.191-1.2Zm-5.9,8a1.2,1.2,0,0,1-1.19,1.2,1.2,1.2,0,0,1-1.191-1.2V61.229a1.2,1.2,0,0,1,1.191-1.2h44.039a1.2,1.2,0,0,1,1.19,1.2,1.2,1.2,0,0,1-1.19,1.2h-42.849Zm180.609,147.531a1.2,1.2,0,0,1-1.191-1.2,1.2,1.2,0,0,1,1.191-1.2h129.36a1.2,1.2,0,0,1,1.19,1.2,1.2,1.2,0,0,1-1.19,1.2Zm9.973-19.723a1.2,1.2,0,0,1-1.191-1.2,1.2,1.2,0,0,1,1.191-1.2H-52.009a1.2,1.2,0,0,1,1.19,1.2,1.2,1.2,0,0,1-1.19,1.2Zm-312.613,0a1.2,1.2,0,0,1-1.191-1.2,1.2,1.2,0,0,1,1.191-1.2h119.627a1.2,1.2,0,0,1,1.19,1.2,1.2,1.2,0,0,1-1.19,1.2Zm0,19.723a1.2,1.2,0,0,1-1.191-1.2,1.2,1.2,0,0,1,1.191-1.2h129.947a1.2,1.2,0,0,1,1.19,1.2,1.2,1.2,0,0,1-1.19,1.2Zm379.2-27.075a1.2,1.2,0,0,1-1.191,1.2,1.2,1.2,0,0,1-1.19-1.2V171.838a11.063,11.063,0,0,0-11.009-11.117,11.064,11.064,0,0,0-11.01,11.117v24.631a1.2,1.2,0,0,1-1.19,1.2,1.2,1.2,0,0,1-1.191-1.2V171.838a13.457,13.457,0,0,1,13.391-13.521,13.456,13.456,0,0,1,13.39,13.521Zm-35.955,0a1.2,1.2,0,0,1-1.19,1.2,1.2,1.2,0,0,1-1.191-1.2V171.838a11.063,11.063,0,0,0-11.009-11.117,11.063,11.063,0,0,0-11.009,11.117v24.631a1.2,1.2,0,0,1-1.191,1.2,1.2,1.2,0,0,1-1.19-1.2V171.838a13.456,13.456,0,0,1,13.39-13.521,13.456,13.456,0,0,1,13.39,13.521Zm35.514-59.073a5.848,5.848,0,0,0-5.819-5.876,5.847,5.847,0,0,0-5.818,5.876V148.02h11.637Zm-5.819-8.28a8.24,8.24,0,0,1,8.2,8.28v11.826a1.2,1.2,0,0,1-1.191,1.2h-14.018a1.2,1.2,0,0,1-1.19-1.2V137.4A8.24,8.24,0,0,1-111.065,129.116ZM-130.7,137.4a5.847,5.847,0,0,0-5.818-5.876,5.848,5.848,0,0,0-5.819,5.876V148.02H-130.7Zm2.381,11.826a1.2,1.2,0,0,1-1.191,1.2H-143.53a1.2,1.2,0,0,1-1.191-1.2V137.4a8.24,8.24,0,0,1,8.2-8.28,8.24,8.24,0,0,1,8.2,8.28ZM-156.16,137.4a5.847,5.847,0,0,0-5.818-5.876A5.848,5.848,0,0,0-167.8,137.4V148.02h11.637Zm-5.818-8.28a8.24,8.24,0,0,1,8.2,8.28v11.826a1.2,1.2,0,0,1-1.19,1.2h-14.018a1.2,1.2,0,0,1-1.191-1.2V137.4A8.24,8.24,0,0,1-161.978,129.116Zm56.732-20.921a5.848,5.848,0,0,0-5.819-5.876,5.847,5.847,0,0,0-5.818,5.876v10.624h11.637Zm-5.819-8.28a8.24,8.24,0,0,1,8.2,8.28v11.826a1.2,1.2,0,0,1-1.191,1.2h-14.018a1.2,1.2,0,0,1-1.19-1.2V108.195A8.24,8.24,0,0,1-111.065,99.915Zm-19.638,8.28a5.847,5.847,0,0,0-5.818-5.876,5.848,5.848,0,0,0-5.819,5.876v10.624H-130.7Zm2.381,11.826a1.2,1.2,0,0,1-1.191,1.2H-143.53a1.2,1.2,0,0,1-1.191-1.2V108.195a8.24,8.24,0,0,1,8.2-8.28,8.24,8.24,0,0,1,8.2,8.28Zm-27.838-11.826a5.847,5.847,0,0,0-5.818-5.876,5.848,5.848,0,0,0-5.819,5.876v10.624h11.637Zm-5.818-8.28a8.24,8.24,0,0,1,8.2,8.28v11.826a1.2,1.2,0,0,1-1.19,1.2h-14.018a1.2,1.2,0,0,1-1.191-1.2V108.195A8.24,8.24,0,0,1-161.978,99.915Zm-21.191,64.561a1.2,1.2,0,0,1,1.19,1.2,1.2,1.2,0,0,1-1.19,1.2H-187.8a1.2,1.2,0,0,1-1.191-1.2,1.2,1.2,0,0,1,1.191-1.2Zm0-11.224a1.2,1.2,0,0,1,1.19,1.2,1.2,1.2,0,0,1-1.19,1.2H-187.8a1.2,1.2,0,0,1-1.191-1.2,1.2,1.2,0,0,1,1.191-1.2Zm0-11.248a1.2,1.2,0,0,1,1.19,1.2,1.2,1.2,0,0,1-1.19,1.2H-187.8a1.2,1.2,0,0,1-1.191-1.2A1.2,1.2,0,0,1-187.8,142Zm0-11.218a1.2,1.2,0,0,1,1.19,1.2,1.2,1.2,0,0,1-1.19,1.2H-195a1.2,1.2,0,0,1-1.191-1.2,1.2,1.2,0,0,1,1.191-1.2Zm-29.67,0a1.2,1.2,0,0,1,1.19,1.2,1.2,1.2,0,0,1-1.19,1.2h-12.308a1.2,1.2,0,0,1-1.191-1.2,1.2,1.2,0,0,1,1.191-1.2Zm29.67-11.139a1.2,1.2,0,0,1,1.19,1.2,1.2,1.2,0,0,1-1.19,1.2h-41.978a1.2,1.2,0,0,1-1.191-1.2,1.2,1.2,0,0,1,1.191-1.2Zm.36-11.23a1.2,1.2,0,0,1,1.19,1.2,1.2,1.2,0,0,1-1.19,1.2h-42.338a1.2,1.2,0,0,1-1.191-1.2,1.2,1.2,0,0,1,1.191-1.2Zm0-11.229a1.2,1.2,0,0,1,1.19,1.2,1.2,1.2,0,0,1-1.19,1.2h-42.338a1.2,1.2,0,0,1-1.191-1.2,1.2,1.2,0,0,1,1.191-1.2Zm0-11.229a1.2,1.2,0,0,1,1.19,1.2,1.2,1.2,0,0,1-1.19,1.2h-42.338a1.2,1.2,0,0,1-1.191-1.2,1.2,1.2,0,0,1,1.191-1.2Zm0-11.229a1.2,1.2,0,0,1,1.19,1.2,1.2,1.2,0,0,1-1.19,1.2h-36.578a1.2,1.2,0,0,1-1.191-1.2,1.2,1.2,0,0,1,1.191-1.2Zm-50.15,28.508a1.2,1.2,0,0,1,1.191-1.2,1.2,1.2,0,0,1,1.19,1.2v24.639a1.2,1.2,0,0,1-1.19,1.2,1.2,1.2,0,0,1-1.191-1.2Zm137.74-7.765v101a1.2,1.2,0,0,1-1.19,1.2,1.2,1.2,0,0,1-1.191-1.2v-101h-71.154a1.2,1.2,0,0,1-1.191-1.2,1.2,1.2,0,0,1,1.191-1.2H-90.6l-6.412-8.824h-71.742a1.2,1.2,0,0,1-1.191-1.2,1.2,1.2,0,0,1,1.191-1.2h72.345a1.187,1.187,0,0,1,.959.491l8.16,11.229a1.2,1.2,0,0,1-.959,1.914Zm-324.666-9.129V195.252a1.2,1.2,0,0,1-1.191,1.2,1.2,1.2,0,0,1-1.19-1.2V86.344h-61.743a1.2,1.2,0,0,1-1.191-1.2,1.2,1.2,0,0,1,1.191-1.2h63.831l-1.841-7.912h-61.99a1.2,1.2,0,0,1-1.191-1.2,1.2,1.2,0,0,1,1.191-1.2h62.933a1.192,1.192,0,0,1,1.159.927l2.4,10.316a1.2,1.2,0,0,1-1.159,1.477Zm63.805,11.41V83.92h-57.129a1.2,1.2,0,0,1-1.191-1.2,1.2,1.2,0,0,1,1.191-1.2h58.32a1.2,1.2,0,0,1,1.19,1.2v84.936a1.2,1.2,0,0,1-1.19,1.2,1.2,1.2,0,0,1-1.191-1.2v-67.5h-57.129a1.2,1.2,0,0,1-1.191-1.2,1.2,1.2,0,0,1,1.191-1.2Zm-84.6-37.727V54.82h-14.859v5.207Zm2.381-5.394v5.394h49.339V33.478Zm-19.621,2.586v-3.6a1.2,1.2,0,0,1,1.191-1.2h17.24a1.16,1.16,0,0,1,.222.021l51.033-21.881a1.192,1.192,0,0,1,1.655,1.107V77.29a1.2,1.2,0,0,1-1.19,1.2,1.2,1.2,0,0,1-1.191-1.2V62.431H-438.3v6.8a1.2,1.2,0,0,1-1.19,1.2,1.2,1.2,0,0,1-1.191-1.2v-6.8h-14.859v6.8a1.2,1.2,0,0,1-1.19,1.2,1.2,1.2,0,0,1-1.191-1.2V57.219ZM-203.714,40.8l-17.324,18.339a1.183,1.183,0,0,1-1.683.04,1.211,1.211,0,0,1-.039-1.7l17.739-18.778a1.2,1.2,0,0,1,.34-.636,1.181,1.181,0,0,1,.959-.331,1.18,1.18,0,0,1,.953.325,1.2,1.2,0,0,1,.345.63l27.343,28.485a1.212,1.212,0,0,1,.335.837V172.283a1.2,1.2,0,0,1-1.19,1.2,1.2,1.2,0,0,1-1.191-1.2V68.5ZM-84.082,63.5h32.073a1.2,1.2,0,0,1,1.19,1.2,1.2,1.2,0,0,1-1.19,1.2h-62.77v3.7h62.77a1.2,1.2,0,0,1,1.19,1.2,1.2,1.2,0,0,1-1.19,1.2h-62.77v4.414a1.2,1.2,0,0,1-1.19,1.2,1.2,1.2,0,0,1-1.191-1.2V64.7a1.2,1.2,0,0,1,1.191-1.2h29.506V48.623a1.2,1.2,0,0,1,1.19-1.2h32.56a1.2,1.2,0,0,1,1.191,1.2,1.2,1.2,0,0,1-1.191,1.2H-84.082Z" fill="#d0dbe9" fill-rule="evenodd"/>
              <g id="Group_4441" data-name="Group 4441" clip-path="url(#clip-path)">
                <g id="Group_4440" data-name="Group 4440">
                  <rect id="Rectangle_478" data-name="Rectangle 478" width="435" height="194" transform="translate(-485.2 29.966)" fill="#d0dbe9"/>
                  <g id="Group_4439" data-name="Group 4439" clip-path="url(#clip-path-2)">
                    <g id="Group_4438" data-name="Group 4438">
                      <rect id="Rectangle_479" data-name="Rectangle 479" width="444.381" height="203.086" transform="translate(-490.2 25.458)" fill="#d0dbe9"/>
                    </g>
                  </g>
                </g>
              </g>
            </g>
          </g>
        </g>
      </g>
      <g id="Core_shadow" data-name="Core shadow">
        <g id="Group_4446" data-name="Group 4446">
          <path id="Path_4022" data-name="Path 4022" d="M-330.222,157.342s.04-5.453,4.24-4.552v27.463c-2.035-.465-4.24-1.881-4.24-5.835Zm118.738,22.665a10.1,10.1,0,0,1-8.338-1.8l-.045-.037a10.289,10.289,0,0,1-2.691-3.552,13.773,13.773,0,0,1-1.295-4.066c-.02-.1-.04-.2-.058-.3,0,0-1.445-8.479,2.062-12.04a4.379,4.379,0,0,1,2.109-1.283v15.111A7.944,7.944,0,0,0-211.484,180.007ZM-314.32,124.065l46.647,17.118v.9l-46.647-13.833Zm36.732-16.871a20.191,20.191,0,0,0,9.426,7.259,18.618,18.618,0,0,0,3.67.929,18.363,18.363,0,0,1-2.688.2h-1.291a18.508,18.508,0,0,1-6.358-1.131,20.191,20.191,0,0,1-9.426-7.259l-3.217-4.477c-2.142-2.982-3.539-7.676-4.062-11.41,0,0-.072-.933-.631-.944-2.467-.049-4.282-3.046-4.8-7.3,0,0-2.226-11.124,4-11.088a20.007,20.007,0,0,1,.329-2.858l.459-2.6c1.294-7.334,5.9-11.646,12.15-14.428a30.6,30.6,0,0,1,11.565-2.238h1.291c.935,0,1.833.044,2.688.118a30.023,30.023,0,0,0-8.877,2.12c-6.253,2.782-10.857,7.094-12.151,14.428l-.16.908a57.587,57.587,0,0,0-.552,7.967c.126,4.378.449,11.823,1.229,15.37h0a1.87,1.87,0,0,1,.136.541c.523,3.734,1.919,8.428,4.061,11.41Zm-10.228,98.353-31.8.15V184.391a14.252,14.252,0,0,0,6.139-4.24,17.435,17.435,0,0,0,4.036-11.364v-4.28a13.172,13.172,0,0,0-1.756-6.627,11.059,11.059,0,0,0-5.094-4.639l-3.325-1.46v-20.3l18.634,5.735Zm8.335-93.006s1.668,11.621-6.247,17.071a4.606,4.606,0,0,1-4.251.513l-1.105-.422a1.5,1.5,0,0,1-.259-2.675c3.645-2.29,9.253-7.557,7.8-17.805Zm21.35,30.771,8.481-2.285V160.49l-4.227-1.89-4.254,4.691Z" fill="#d0dbe8" fill-rule="evenodd"/>
          <g id="Group_4445" data-name="Group 4445" clip-path="url(#clip-path-3)">
            <rect id="Rectangle_481" data-name="Rectangle 481" width="129.34" height="166.445" transform="translate(-335.523 44.553)" fill="#d0dbe8"/>
          </g>
        </g>
      </g>
      <g id="Core">
        <g id="Group_4448" data-name="Group 4448">
          <g id="Group_4447" data-name="Group 4447" clip-path="url(#clip-path-4)">
            <rect id="Rectangle_482" data-name="Rectangle 482" width="134.641" height="169.626" transform="translate(-336.583 43.493)" fill="#5b7dab"/>
          </g>
        </g>
      </g>
    </g>
  </g>
</svg>
