<svg xmlns="http://www.w3.org/2000/svg" xmlns:xlink="http://www.w3.org/1999/xlink" width="124.039" height="159.024" viewBox="0 0 124.039 159.024">
  <defs>
    <clipPath id="clip-path">
      <path id="Path_4026" data-name="Path 4026" d="M158.041,158.539s.041-5.453,4.241-4.553V181.45c-2.036-.465-4.241-1.881-4.241-5.836ZM276.779,181.2a10.1,10.1,0,0,1-8.338-1.8l-.045-.038a10.3,10.3,0,0,1-2.69-3.551,13.744,13.744,0,0,1-1.3-4.066c-.02-.1-.04-.2-.058-.3,0,0-1.445-8.48,2.062-12.04a4.379,4.379,0,0,1,2.109-1.283v15.111A7.945,7.945,0,0,0,276.779,181.2ZM173.943,125.262,220.59,142.38v.9l-46.647-13.832Zm36.732-16.871a20.2,20.2,0,0,0,9.427,7.259,18.7,18.7,0,0,0,3.669.929,18.5,18.5,0,0,1-2.688.2h-1.291a18.5,18.5,0,0,1-6.357-1.13,20.192,20.192,0,0,1-9.426-7.259l-3.218-4.478c-2.142-2.981-3.538-7.675-4.061-11.409,0,0-.073-.933-.632-.944-2.466-.05-4.282-3.046-4.805-7.3,0,0-2.226-11.124,4-11.088a19.993,19.993,0,0,1,.329-2.858l.459-2.6c1.294-7.333,5.9-11.646,12.15-14.427a30.6,30.6,0,0,1,11.565-2.239h1.291c.936,0,1.833.045,2.688.119a30.032,30.032,0,0,0-8.877,2.12c-6.252,2.781-10.856,7.094-12.15,14.427l-.161.909a57.758,57.758,0,0,0-.552,7.967c.127,4.378.449,11.822,1.229,15.37h0a1.88,1.88,0,0,1,.136.542c.523,3.734,1.92,8.428,4.062,11.409Zm-10.228,98.353-31.8.15V185.588a14.248,14.248,0,0,0,6.138-4.241,17.425,17.425,0,0,0,4.036-11.363V165.7a13.166,13.166,0,0,0-1.756-6.628,11.062,11.062,0,0,0-5.094-4.638l-3.324-1.46V132.683l18.633,5.735Zm8.335-93.006s1.668,11.621-6.247,17.071a4.609,4.609,0,0,1-4.251.513l-1.1-.422a1.5,1.5,0,0,1-.26-2.675c3.645-2.291,9.253-7.557,7.8-17.806Zm21.35,30.771,8.481-2.285v19.463l-4.227-1.89-4.254,4.691Z" fill="#d0dbe8" clip-rule="evenodd"/>
    </clipPath>
    <clipPath id="clip-path-2">
      <path id="Path_4027" data-name="Path 4027" d="M244.165,88.219a1.2,1.2,0,0,1-1.457.958,1.323,1.323,0,0,1-.879-1.588l.03-.137c.025-.118.054-.255.084-.408.088-.443.177-.929.259-1.444.16-1,.277-1.979.335-2.887.015-.242.025-.478.032-.7a1.253,1.253,0,0,1,1.237-1.273,1.27,1.27,0,0,1,1.168,1.35c-.007.262-.02.531-.037.807-.063,1.009-.191,2.076-.365,3.159-.088.552-.183,1.074-.277,1.55C244.237,87.889,244.192,88.1,244.165,88.219Zm-46.934-.63a1.322,1.322,0,0,1-.878,1.588,1.2,1.2,0,0,1-1.457-.958c-.027-.119-.073-.33-.13-.618-.1-.476-.19-1-.278-1.55-.173-1.083-.3-2.15-.364-3.159q-.027-.414-.037-.807a1.269,1.269,0,0,1,1.168-1.35,1.253,1.253,0,0,1,1.237,1.273c.006.227.017.463.032.7.057.908.175,1.888.335,2.887.082.515.17,1,.258,1.444.031.153.059.29.085.408C197.216,87.521,197.226,87.567,197.231,87.589ZM245.19,67.607l.449,2.58c.119.688.2,1.322.263,1.894a4.725,4.725,0,0,1,3.066,2.189,9.547,9.547,0,0,1,1.252,4.382,22.781,22.781,0,0,1-.146,4.524c-.043.35-.09.671-.137.956-.024.14-.043.25-.057.325-.561,4.546-2.493,7.819-5.339,8.28-.617,4.348-2.152,8.911-4.187,11.783l-3.152,4.447a21.107,21.107,0,0,1-9.836,7.671,19.182,19.182,0,0,1-6.673,1.2h-1.265a19.178,19.178,0,0,1-6.673-1.2,21.1,21.1,0,0,1-9.836-7.671l-3.152-4.447c-2.036-2.872-3.57-7.435-4.187-11.783-2.846-.461-4.778-3.734-5.339-8.28-.014-.075-.034-.185-.057-.325-.047-.285-.094-.606-.138-.956a22.78,22.78,0,0,1-.146-4.524,9.56,9.56,0,0,1,1.253-4.382,4.723,4.723,0,0,1,3.066-2.189c.057-.573.143-1.206.263-1.894l.449-2.58c1.256-7.219,5.542-12.079,12.64-15.28a30.27,30.27,0,0,1,11.857-2.337h1.266a30.255,30.255,0,0,1,11.835,2.328c.217.1.41.187.6.278l1.892-1.3a1.286,1.286,0,0,1,1.82.382l1.066,1.718,2.468.565a1.285,1.285,0,0,1,.867,1.819l-.915,1.869A18.831,18.831,0,0,1,245.19,67.607ZM161,180.253c5.509,2.557,11.465-2.725,11.465-10.536v-4.424c0-2.935-1.421-5.515-3.478-6.469l-6.89-3.2c-1.2-.555-2.584.676-2.584,2.661V177.4A3.105,3.105,0,0,0,161,180.253Zm-1.028,2.423a5.723,5.723,0,0,1-2.994-5.278V158.286c0-3.745,3.1-6.5,6.148-5.083l6.89,3.2c3.026,1.4,4.984,4.96,4.984,8.892v4.424C175,179.288,167.332,186.091,159.975,182.676ZM277,180.253a3.106,3.106,0,0,0,1.488-2.855V158.286c0-1.985-1.389-3.216-2.585-2.661l-6.89,3.2c-2.057.955-3.478,3.535-3.478,6.47v4.424C265.532,177.528,271.488,182.81,277,180.253Zm1.029,2.423C270.668,186.091,263,179.288,263,169.717v-4.424c0-3.932,1.959-7.488,4.985-8.892l6.889-3.2c3.045-1.414,6.149,1.338,6.149,5.083V177.4A5.725,5.725,0,0,1,278.026,182.676Zm-56.375-29.622a1.08,1.08,0,1,1,2.12,0v53.611a1.08,1.08,0,1,1-2.12,0Zm-6.361,0a1.08,1.08,0,1,1,2.12,0v53.611a1.08,1.08,0,1,1-2.12,0Zm22.854,38.939a1.269,1.269,0,0,1-1.593-.845,1.291,1.291,0,0,1,.834-1.613l18.66-5.906a1.269,1.269,0,0,1,1.593.845,1.291,1.291,0,0,1-.834,1.613Zm-8.42-5.3a1.337,1.337,0,0,1-1.652-.812,1.226,1.226,0,0,1,.865-1.551l31.288-9.185a1.336,1.336,0,0,1,1.651.812,1.225,1.225,0,0,1-.865,1.551Zm-.011-8.481a1.327,1.327,0,0,1-1.641-.808,1.22,1.22,0,0,1,.859-1.543l31.3-9.2a1.328,1.328,0,0,1,1.641.808,1.219,1.219,0,0,1-.86,1.543Zm-17.466,9.211a1.277,1.277,0,0,1,.863,1.605,1.316,1.316,0,0,1-1.64.844l-33.424-10.156a1.278,1.278,0,0,1-.863-1.6,1.317,1.317,0,0,1,1.64-.845Zm-.008-11.53a1.2,1.2,0,0,1,.871,1.52,1.347,1.347,0,0,1-1.655.8l-32.341-9.231a1.2,1.2,0,0,1-.87-1.521,1.346,1.346,0,0,1,1.654-.8Zm.008-10.734a1.278,1.278,0,0,1,.863,1.6,1.315,1.315,0,0,1-1.64.845l-33.424-10.156a1.278,1.278,0,0,1-.863-1.6,1.316,1.316,0,0,1,1.64-.845Zm58.171,21.822a1.081,1.081,0,1,1,2.12,0v20.741a1.081,1.081,0,1,1-2.12,0Zm-103.9-.142a1.064,1.064,0,1,1,2.121,0V206.8a1.064,1.064,0,1,1-2.121,0Zm51.891-46.069,46.049-16.493a1.278,1.278,0,0,1,1.715,1.19V127.9a1.28,1.28,0,0,1-2.559,0v-.631l-44.493,15.935a1.291,1.291,0,0,1-.654.058,1.319,1.319,0,0,1-.664-.059l-44.485-15.974v.928a1.28,1.28,0,0,1-2.559,0v-2.714a1.275,1.275,0,0,1,1.722-1.167Zm12.779,21.522,2.248-2.661a1.223,1.223,0,0,1,1.472-.325l2.641,1.268V144.231l-6.361,1.956Zm-.968,4.31c-.031,0-.061.005-.092.005a1.176,1.176,0,0,1-1.06-1.265v-18.5l-8.946,2.75a3.622,3.622,0,0,0-2.252,0l-48.8-15v16.986a1.276,1.276,0,0,1-2.551,0V132.878a1.272,1.272,0,0,1,1.656-1.2L218.635,147.2a.462.462,0,0,0,.73,0l18.541-5.7a.96.96,0,0,1,.707-.33.862.862,0,0,1,.249.036l30.96-9.519a1.271,1.271,0,0,1,1.656,1.2v18.693a1.276,1.276,0,0,1-2.551,0V134.585l-29.254,8.994v18.554c0,.052,0,.105-.007.156a1.346,1.346,0,0,1-.109.691,1.238,1.238,0,0,1-1.67.642l-3.176-1.525-3.435,4.066A1.232,1.232,0,0,1,230.224,166.6Zm6.085-43.366c-3.516,3.96-9.451,6.265-16.26,6.265-6.932,0-12.9-2.34-16.384-6.4a17.1,17.1,0,0,1-4,3.973c-.042.031-.118.084-.223.158-.174.121-.37.255-.586.4-.617.412-1.271.823-1.938,1.209-.306.178-.61.346-.908.5a1.319,1.319,0,0,1-1.764-.508,1.251,1.251,0,0,1,.522-1.719c.268-.142.542-.3.822-.456.614-.356,1.223-.739,1.8-1.122.2-.134.383-.258.542-.368l.143-.1.041-.029c3.209-2.336,4.965-5.12,5.037-8.086a1.3,1.3,0,0,1,2.6.06,10.474,10.474,0,0,1-.747,3.627c2.791,3.934,8.35,6.318,15.048,6.318,6.4,0,11.825-2.23,14.73-5.9a10.9,10.9,0,0,1-1.466-5.124,1.3,1.3,0,0,1,2.6-.059c.074,2.976,1.879,5.881,5.033,8.15l.045.032.144.1c.159.109.34.232.541.364.573.378,1.182.757,1.8,1.108q.42.24.822.451a1.23,1.23,0,0,1,.522,1.7,1.327,1.327,0,0,1-1.764.5c-.3-.156-.6-.323-.909-.5-.666-.381-1.32-.788-1.937-1.194-.216-.143-.412-.275-.585-.395l-.228-.159A17.431,17.431,0,0,1,236.309,123.237Zm-39.55-50.722a10.9,10.9,0,0,0,1,.445c.121.047.243.093.368.137a1.243,1.243,0,0,1,.838,1.084s0,.038.013.1a3.84,3.84,0,0,0,.08.391,4.163,4.163,0,0,0,.525,1.212,3.452,3.452,0,0,0,1.984,1.47c-.032-1.192-.041-2.406-.014-3.553a24.923,24.923,0,0,1,.309-3.752,4.756,4.756,0,0,1,.481-1.482,1.678,1.678,0,0,1,2.042-.871,24.155,24.155,0,0,0,11.243,1.058,20.552,20.552,0,0,0,7.473-2.706,19.05,19.05,0,0,0,2.789-2.028c.27-.238.5-.457.692-.651.109-.111.177-.184.2-.214a1.294,1.294,0,0,1,2.2.447,5.166,5.166,0,0,0,3.267,3.414,9.153,9.153,0,0,0,2.33.56,9.391,9.391,0,0,0,1.4.062,1.325,1.325,0,0,1,1.27.62c.481.821.751,2.709.974,5.744.089,1.2.159,2.476.213,3.754l.011.261a3.272,3.272,0,0,0,1.352-1.552,7.245,7.245,0,0,0,.521-1.474c.043-.178.077-.342.1-.487.014-.082.022-.135.024-.154a1.252,1.252,0,0,1,.989-1.066,10,10,0,0,0,1.294-.365,5.344,5.344,0,0,0,.643-.279l0-.039c-.049-.575-.134-1.236-.262-1.971l-.449-2.58a16.192,16.192,0,0,0-4.775-9.219,1.285,1.285,0,0,1-.264-1.492l.6-1.233-1.41-.323a1.279,1.279,0,0,1-.805-.575l-.639-1.03-1.4.963a1.284,1.284,0,0,1-1.306.089q-.562-.283-1.158-.553a27.763,27.763,0,0,0-10.811-2.114h-1.264a27.761,27.761,0,0,0-10.812,2.114c-6.363,2.873-10.057,7.064-11.155,13.373l-.449,2.58C196.892,71.327,196.809,71.96,196.759,72.515Zm-1.512,2.02c-1.7.08-2.569,1.539-2.785,4.316a20.309,20.309,0,0,0,.134,4.006c.039.315.081.6.123.855l.039.228c.485,3.936,1.954,6.251,3.486,6.282a1.8,1.8,0,0,1,1.69,1.3,3.077,3.077,0,0,1,.148.55c.015.086.025.16.031.221.556,4,1.972,8.227,3.75,10.735l3.152,4.447a18.528,18.528,0,0,0,8.631,6.748,16.63,16.63,0,0,0,5.782,1.042h1.265a16.63,16.63,0,0,0,5.782-1.042,18.537,18.537,0,0,0,8.631-6.748l3.152-4.447c1.778-2.508,3.194-6.736,3.75-10.734.006-.062.016-.136.031-.222a3.158,3.158,0,0,1,.147-.55,1.8,1.8,0,0,1,1.691-1.3c1.532-.031,3-2.346,3.457-6.119.04-.227.053-.3.068-.391.041-.252.083-.539.123-.855a20.385,20.385,0,0,0,.134-4.006c-.209-2.681-1.029-4.133-2.612-4.3a6.894,6.894,0,0,1-1.416.683q-.375.138-.806.259l-.015.063a9.609,9.609,0,0,1-.7,1.97,5.1,5.1,0,0,1-4.942,3.207,1.257,1.257,0,0,1-1.223-1.2l0-.117c0-.1-.007-.211-.011-.339-.012-.366-.028-.775-.046-1.215-.053-1.255-.122-2.51-.208-3.679-.092-1.238-.2-2.3-.317-3.141-.052-.364-.107-.68-.159-.932-.283-.013-.588-.036-.911-.072a11.778,11.778,0,0,1-3-.727,7.862,7.862,0,0,1-3.96-3.214,21.931,21.931,0,0,1-2.88,2.057,23.174,23.174,0,0,1-8.416,3.047,26.451,26.451,0,0,1-11.619-.9c-.013.06-.026.123-.038.189a22.813,22.813,0,0,0-.269,3.368c-.029,1.236-.015,2.565.025,3.852.009.282.019.538.028.764,0,.078.007.147.009.206l0,.07a1.257,1.257,0,0,1-1.333,1.295,6.418,6.418,0,0,1-5.425-2.85,6.564,6.564,0,0,1-.837-1.921c-.01-.04-.02-.079-.029-.118A13.118,13.118,0,0,1,195.247,74.535Z" fill="none" clip-rule="evenodd"/>
    </clipPath>
  </defs>
  <g id="Group_4454" data-name="Group 4454" transform="translate(-156.981 -49.99)">
    <g id="Core_shadow" data-name="Core shadow">
      <g id="Group_4451" data-name="Group 4451">
        <path id="Path_4025" data-name="Path 4025" d="M158.041,158.539s.041-5.453,4.241-4.553V181.45c-2.036-.465-4.241-1.881-4.241-5.836ZM276.779,181.2a10.1,10.1,0,0,1-8.338-1.8l-.045-.038a10.3,10.3,0,0,1-2.69-3.551,13.744,13.744,0,0,1-1.3-4.066c-.02-.1-.04-.2-.058-.3,0,0-1.445-8.48,2.062-12.04a4.379,4.379,0,0,1,2.109-1.283v15.111A7.945,7.945,0,0,0,276.779,181.2ZM173.943,125.262,220.59,142.38v.9l-46.647-13.832Zm36.732-16.871a20.2,20.2,0,0,0,9.427,7.259,18.7,18.7,0,0,0,3.669.929,18.5,18.5,0,0,1-2.688.2h-1.291a18.5,18.5,0,0,1-6.357-1.13,20.192,20.192,0,0,1-9.426-7.259l-3.218-4.478c-2.142-2.981-3.538-7.675-4.061-11.409,0,0-.073-.933-.632-.944-2.466-.05-4.282-3.046-4.805-7.3,0,0-2.226-11.124,4-11.088a19.993,19.993,0,0,1,.329-2.858l.459-2.6c1.294-7.333,5.9-11.646,12.15-14.427a30.6,30.6,0,0,1,11.565-2.239h1.291c.936,0,1.833.045,2.688.119a30.032,30.032,0,0,0-8.877,2.12c-6.252,2.781-10.856,7.094-12.15,14.427l-.161.909a57.758,57.758,0,0,0-.552,7.967c.127,4.378.449,11.822,1.229,15.37h0a1.88,1.88,0,0,1,.136.542c.523,3.734,1.92,8.428,4.062,11.409Zm-10.228,98.353-31.8.15V185.588a14.248,14.248,0,0,0,6.138-4.241,17.425,17.425,0,0,0,4.036-11.363V165.7a13.166,13.166,0,0,0-1.756-6.628,11.062,11.062,0,0,0-5.094-4.638l-3.324-1.46V132.683l18.633,5.735Zm8.335-93.006s1.668,11.621-6.247,17.071a4.609,4.609,0,0,1-4.251.513l-1.1-.422a1.5,1.5,0,0,1-.26-2.675c3.645-2.291,9.253-7.557,7.8-17.806Zm21.35,30.771,8.481-2.285v19.463l-4.227-1.89-4.254,4.691Z" fill="#d0dbe8" fill-rule="evenodd"/>
        <g id="Group_4450" data-name="Group 4450" clip-path="url(#clip-path)">
          <rect id="Rectangle_483" data-name="Rectangle 483" width="129.34" height="166.445" transform="translate(152.74 45.749)" fill="#d0dbe8"/>
        </g>
      </g>
    </g>
    <g id="Core">
      <g id="Group_4453" data-name="Group 4453">
        <g id="Group_4452" data-name="Group 4452" clip-path="url(#clip-path-2)">
          <rect id="Rectangle_484" data-name="Rectangle 484" width="134.641" height="169.626" transform="translate(151.68 44.689)" fill="#5b7dab"/>
        </g>
      </g>
    </g>
  </g>
</svg>
