<svg xmlns="http://www.w3.org/2000/svg" width="157.24" height="158.777" viewBox="0 0 157.24 158.777">
  <g id="Group_4633" data-name="Group 4633" transform="translate(-147.164 562.489)">
    <path id="Path_4129" data-name="Path 4129" d="M290.738-506.221l9.547-9.547v-45.222h-58.4v54.769h42.122" fill="#fff"/>
    <g id="Group_4632" data-name="Group 4632">
      <path id="Path_4130" data-name="Path 4130" d="M283.523-407.283H220.414V-496.46h82.339v76.677l-12.5,12.5" fill="#fff"/>
      <g id="Group_4578" data-name="Group 4578">
        <path id="Path_4131" data-name="Path 4131" d="M290.679-506.129H240.171v2a1.157,1.157,0,0,0,1.156,1.157h49.939a2.388,2.388,0,0,0,1.689-.7l8.3-8.3a2.348,2.348,0,0,0,.688-1.661v-3.76Z" fill="#dfb1cf"/>
      </g>
      <g id="Group_4579" data-name="Group 4579">
        <path id="Path_4132" data-name="Path 4132" d="M284.007-504.721H241.885a1.5,1.5,0,0,1-1.5-1.5v-54.768a1.5,1.5,0,0,1,1.5-1.5h58.4a1.5,1.5,0,0,1,1.5,1.5v45.221a1.5,1.5,0,0,1-.439,1.061L291.8-505.16a1.5,1.5,0,0,1-2.121,0,1.5,1.5,0,0,1,0-2.121l9.107-9.108v-43.1h-55.4v51.768h40.622a1.5,1.5,0,0,1,1.5,1.5A1.5,1.5,0,0,1,284.007-504.721Z" fill="#b74d94"/>
      </g>
      <g id="Group_4580" data-name="Group 4580">
        <path id="Path_4133" data-name="Path 4133" d="M290.737-504.721a1.5,1.5,0,0,1-1.5-1.5v-9.547a1.5,1.5,0,0,1,1.5-1.5h9.547a1.5,1.5,0,0,1,1.5,1.5,1.5,1.5,0,0,1-1.5,1.5h-8.047v8.047A1.5,1.5,0,0,1,290.737-504.721Z" fill="#b74d94"/>
      </g>
      <g id="Group_4581" data-name="Group 4581">
        <path id="Path_4134" data-name="Path 4134" d="M217.4-507.359H147.217v2.78a1.607,1.607,0,0,0,1.607,1.607h69.387a3.318,3.318,0,0,0,2.346-.972l11.534-11.533a3.267,3.267,0,0,0,.955-2.308v-5.225Z" fill="#dfb1cf"/>
      </g>
      <path id="Path_4135" data-name="Path 4135" d="M231.256-519.953v-41.037H148.917v54.5h62.148" fill="#fff"/>
      <g id="Group_4582" data-name="Group 4582">
        <path id="Path_4136" data-name="Path 4136" d="M211.066-504.992H148.917a1.5,1.5,0,0,1-1.5-1.5v-54.5a1.5,1.5,0,0,1,1.5-1.5h82.339a1.5,1.5,0,0,1,1.5,1.5v41.036a1.5,1.5,0,0,1-1.5,1.5,1.5,1.5,0,0,1-1.5-1.5v-39.536H150.417v51.5h60.649a1.5,1.5,0,0,1,1.5,1.5A1.5,1.5,0,0,1,211.066-504.992Z" fill="#b74d94"/>
      </g>
      <g id="Group_4583" data-name="Group 4583">
        <path id="Path_4137" data-name="Path 4137" d="M217.795-504.992a1.5,1.5,0,0,1-1.061-.439,1.5,1.5,0,0,1,0-2.121L230.2-521.013a1.5,1.5,0,0,1,2.121,0,1.5,1.5,0,0,1,0,2.121l-13.46,13.461A1.5,1.5,0,0,1,217.795-504.992Z" fill="#b74d94"/>
      </g>
      <g id="Group_4584" data-name="Group 4584">
        <path id="Path_4138" data-name="Path 4138" d="M217.795-504.992a1.5,1.5,0,0,1-1.5-1.5v-13.461a1.5,1.5,0,0,1,1.5-1.5h13.461a1.5,1.5,0,0,1,1.5,1.5,1.5,1.5,0,0,1-1.5,1.5H219.295v11.961A1.5,1.5,0,0,1,217.795-504.992Z" fill="#b74d94"/>
      </g>
      <g id="Group_4585" data-name="Group 4585">
        <path id="Path_4139" data-name="Path 4139" d="M288.842-408.1H218.705v2.779a1.606,1.606,0,0,0,1.606,1.6h70.308a3.315,3.315,0,0,0,2.344-.971l10.555-10.554a3.029,3.029,0,0,0,.886-2.14v-5.38Z" fill="#dfb1cf"/>
      </g>
      <g id="Group_4586" data-name="Group 4586">
        <path id="Path_4140" data-name="Path 4140" d="M157.851-404.683a3.313,3.313,0,0,0,2.344.971h50.188a1.6,1.6,0,0,0,1.605-1.6V-408.1H161.972l-14.808-13.95v5.191a3.521,3.521,0,0,0,1.029,2.488Z" fill="#dfb1cf"/>
      </g>
      <path id="Path_4141" data-name="Path 4141" d="M167.185-407.147h43.094V-496.46H148.917v77.639l11.538,11.674" fill="#fff"/>
      <g id="Group_4587" data-name="Group 4587">
        <path id="Path_4142" data-name="Path 4142" d="M160.455-405.647a1.492,1.492,0,0,1-1.066-.446l-11.538-11.674a1.494,1.494,0,0,1-.434-1.054V-496.46a1.5,1.5,0,0,1,1.5-1.5h61.362a1.5,1.5,0,0,1,1.5,1.5v89.313a1.5,1.5,0,0,1-1.5,1.5H167.186a1.5,1.5,0,0,1-1.5-1.5,1.5,1.5,0,0,1,1.5-1.5h41.593V-494.96H150.417v75.522l11.1,11.236a1.5,1.5,0,0,1-.012,2.121A1.5,1.5,0,0,1,160.455-405.647Z" fill="#b74d94"/>
      </g>
      <g id="Group_4588" data-name="Group 4588">
        <path id="Path_4143" data-name="Path 4143" d="M217.795-515.562H160.342a1.5,1.5,0,0,1-1.5-1.5v-33.651a1.5,1.5,0,0,1,1.5-1.5,1.5,1.5,0,0,1,1.5,1.5v32.151h55.953a1.5,1.5,0,0,1,1.5,1.5A1.5,1.5,0,0,1,217.795-515.562Z" fill="#b74d94"/>
      </g>
      <g id="Group_4589" data-name="Group 4589">
        <path id="Path_4144" data-name="Path 4144" d="M167.328-522.442a1.5,1.5,0,0,1-1.5-1.5v-13.337a1.5,1.5,0,0,1,1.5-1.5,1.5,1.5,0,0,1,1.5,1.5v13.337A1.5,1.5,0,0,1,167.328-522.442Z" fill="#dfb1cf"/>
      </g>
      <g id="Group_4590" data-name="Group 4590">
        <path id="Path_4145" data-name="Path 4145" d="M174.738-522.442a1.5,1.5,0,0,1-1.5-1.5v-21.7a1.5,1.5,0,0,1,1.5-1.5,1.5,1.5,0,0,1,1.5,1.5v21.7A1.5,1.5,0,0,1,174.738-522.442Z" fill="#dfb1cf"/>
      </g>
      <g id="Group_4591" data-name="Group 4591">
        <path id="Path_4146" data-name="Path 4146" d="M182.148-522.442a1.5,1.5,0,0,1-1.5-1.5V-532.3a1.5,1.5,0,0,1,1.5-1.5,1.5,1.5,0,0,1,1.5,1.5v8.362A1.5,1.5,0,0,1,182.148-522.442Z" fill="#dfb1cf"/>
      </g>
      <g id="Group_4592" data-name="Group 4592">
        <path id="Path_4147" data-name="Path 4147" d="M189.557-522.442a1.5,1.5,0,0,1-1.5-1.5v-13.337a1.5,1.5,0,0,1,1.5-1.5,1.5,1.5,0,0,1,1.5,1.5v13.337A1.5,1.5,0,0,1,189.557-522.442Z" fill="#dfb1cf"/>
      </g>
      <g id="Group_4593" data-name="Group 4593">
        <path id="Path_4148" data-name="Path 4148" d="M196.967-522.442a1.5,1.5,0,0,1-1.5-1.5v-22.017a1.5,1.5,0,0,1,1.5-1.5,1.5,1.5,0,0,1,1.5,1.5v22.017A1.5,1.5,0,0,1,196.967-522.442Z" fill="#dfb1cf"/>
      </g>
      <g id="Group_4594" data-name="Group 4594">
        <path id="Path_4149" data-name="Path 4149" d="M204.376-522.442a1.5,1.5,0,0,1-1.5-1.5v-13.337a1.5,1.5,0,0,1,1.5-1.5,1.5,1.5,0,0,1,1.5,1.5v13.337A1.5,1.5,0,0,1,204.376-522.442Z" fill="#dfb1cf"/>
      </g>
      <g id="Group_4595" data-name="Group 4595">
        <path id="Path_4150" data-name="Path 4150" d="M211.785-522.442a1.5,1.5,0,0,1-1.5-1.5v-17.721a1.5,1.5,0,0,1,1.5-1.5,1.5,1.5,0,0,1,1.5,1.5v17.721A1.5,1.5,0,0,1,211.785-522.442Z" fill="#dfb1cf"/>
      </g>
      <path id="Path_4151" data-name="Path 4151" d="M260.446-551.013v10.723l7.582,7.581s-15.041,10.3-18.305-7.581C249.723-540.29,249.061-550.35,260.446-551.013Z" fill="#dfb1cf"/>
      <g id="Group_4601" data-name="Group 4601">
        <g id="Group_4596" data-name="Group 4596">
          <path id="Path_4152" data-name="Path 4152" d="M292.337-548.487h-11.4a1.5,1.5,0,0,1-1.5-1.5,1.5,1.5,0,0,1,1.5-1.5h11.4a1.5,1.5,0,0,1,1.5,1.5A1.5,1.5,0,0,1,292.337-548.487Z" fill="#dfb1cf"/>
        </g>
        <g id="Group_4597" data-name="Group 4597">
          <path id="Path_4153" data-name="Path 4153" d="M288.941-541.68h-8.009a1.5,1.5,0,0,1-1.5-1.5,1.5,1.5,0,0,1,1.5-1.5h8.009a1.5,1.5,0,0,1,1.5,1.5A1.5,1.5,0,0,1,288.941-541.68Z" fill="#dfb1cf"/>
        </g>
        <g id="Group_4598" data-name="Group 4598">
          <path id="Path_4154" data-name="Path 4154" d="M290.987-534.874H280.932a1.5,1.5,0,0,1-1.5-1.5,1.5,1.5,0,0,1,1.5-1.5h10.055a1.5,1.5,0,0,1,1.5,1.5A1.5,1.5,0,0,1,290.987-534.874Z" fill="#dfb1cf"/>
        </g>
        <g id="Group_4599" data-name="Group 4599">
          <path id="Path_4155" data-name="Path 4155" d="M290.987-528.067H280.932a1.5,1.5,0,0,1-1.5-1.5,1.5,1.5,0,0,1,1.5-1.5h10.055a1.5,1.5,0,0,1,1.5,1.5A1.5,1.5,0,0,1,290.987-528.067Z" fill="#dfb1cf"/>
        </g>
        <g id="Group_4600" data-name="Group 4600">
          <path id="Path_4156" data-name="Path 4156" d="M283.633-514.454H249.716a1.5,1.5,0,0,1-1.5-1.5,1.5,1.5,0,0,1,1.5-1.5h33.917a1.5,1.5,0,0,1,1.5,1.5A1.5,1.5,0,0,1,283.633-514.454Z" fill="#dfb1cf"/>
        </g>
      </g>
      <g id="Group_4606" data-name="Group 4606">
        <g id="Group_4602" data-name="Group 4602">
          <path id="Path_4157" data-name="Path 4157" d="M295.357-450.689H283.951a1.5,1.5,0,0,1-1.5-1.5,1.5,1.5,0,0,1,1.5-1.5h11.406a1.5,1.5,0,0,1,1.5,1.5A1.5,1.5,0,0,1,295.357-450.689Z" fill="#dfb1cf"/>
        </g>
        <g id="Group_4603" data-name="Group 4603">
          <path id="Path_4158" data-name="Path 4158" d="M291.96-443.882h-8.009a1.5,1.5,0,0,1-1.5-1.5,1.5,1.5,0,0,1,1.5-1.5h8.009a1.5,1.5,0,0,1,1.5,1.5A1.5,1.5,0,0,1,291.96-443.882Z" fill="#dfb1cf"/>
        </g>
        <g id="Group_4604" data-name="Group 4604">
          <path id="Path_4159" data-name="Path 4159" d="M294.007-437.076H283.951a1.5,1.5,0,0,1-1.5-1.5,1.5,1.5,0,0,1,1.5-1.5h10.056a1.5,1.5,0,0,1,1.5,1.5A1.5,1.5,0,0,1,294.007-437.076Z" fill="#dfb1cf"/>
        </g>
        <g id="Group_4605" data-name="Group 4605">
          <path id="Path_4160" data-name="Path 4160" d="M294.007-430.269H283.951a1.5,1.5,0,0,1-1.5-1.5,1.5,1.5,0,0,1,1.5-1.5h10.056a1.5,1.5,0,0,1,1.5,1.5A1.5,1.5,0,0,1,294.007-430.269Z" fill="#dfb1cf"/>
        </g>
      </g>
      <g id="Group_4610" data-name="Group 4610">
        <g id="Group_4607" data-name="Group 4607">
          <path id="Path_4161" data-name="Path 4161" d="M239.444-414.546h-10.43a1.5,1.5,0,0,1-1.5-1.5v-11.879a1.5,1.5,0,0,1,1.5-1.5h10.43a1.5,1.5,0,0,1,1.5,1.5v11.879A1.5,1.5,0,0,1,239.444-414.546Zm-8.93-3h7.43v-8.879h-7.43Z" fill="#b74d94"/>
        </g>
        <g id="Group_4608" data-name="Group 4608">
          <path id="Path_4162" data-name="Path 4162" d="M258.11-414.546H247.681a1.5,1.5,0,0,1-1.5-1.5v-22.926a1.5,1.5,0,0,1,1.5-1.5H258.11a1.5,1.5,0,0,1,1.5,1.5v22.926A1.5,1.5,0,0,1,258.11-414.546Zm-8.929-3h7.429v-19.926h-7.429Z" fill="#b74d94"/>
        </g>
        <g id="Group_4609" data-name="Group 4609">
          <path id="Path_4163" data-name="Path 4163" d="M276.777-414.546h-10.43a1.5,1.5,0,0,1-1.5-1.5v-36.143a1.5,1.5,0,0,1,1.5-1.5h10.43a1.5,1.5,0,0,1,1.5,1.5v36.143A1.5,1.5,0,0,1,276.777-414.546Zm-8.93-3h7.43v-33.143h-7.43Z" fill="#b74d94"/>
        </g>
      </g>
      <g id="Group_4611" data-name="Group 4611">
        <path id="Path_4164" data-name="Path 4164" d="M160.7-463.4a1.493,1.493,0,0,1-1.057-.436,1.5,1.5,0,0,1-.007-2.121l11.634-11.708a1.5,1.5,0,0,1,1.6-.345l12.622,4.79L197.4-485.832a1.5,1.5,0,0,1,2.122-.061,1.5,1.5,0,0,1,.06,2.121l-12.6,13.34a1.5,1.5,0,0,1-1.623.372l-12.647-4.8-10.948,11.017A1.494,1.494,0,0,1,160.7-463.4Z" fill="#b74d94"/>
      </g>
      <g id="Group_4612" data-name="Group 4612">
        <circle id="Ellipse_38" data-name="Ellipse 38" cx="5.145" cy="5.145" r="5.145" transform="translate(155.559 -470.044)" fill="#dfb1cf"/>
        <circle id="Ellipse_39" data-name="Ellipse 39" cx="5.145" cy="5.145" r="5.145" transform="translate(167.193 -481.752)" fill="#dfb1cf"/>
        <circle id="Ellipse_40" data-name="Ellipse 40" cx="5.145" cy="5.145" r="5.145" transform="translate(180.751 -476.607)" fill="#dfb1cf"/>
        <circle id="Ellipse_41" data-name="Ellipse 41" cx="5.145" cy="5.145" r="5.145" transform="translate(193.347 -489.948)" fill="#dfb1cf"/>
      </g>
      <g id="Group_4613" data-name="Group 4613">
        <path id="Path_4165" data-name="Path 4165" d="M191.833-448.665H160.122a1.5,1.5,0,0,1-1.5-1.5,1.5,1.5,0,0,1,1.5-1.5h31.711a1.5,1.5,0,0,1,1.5,1.5A1.5,1.5,0,0,1,191.833-448.665Z" fill="#dfb1cf"/>
      </g>
      <g id="Group_4614" data-name="Group 4614">
        <path id="Path_4166" data-name="Path 4166" d="M194.056-441.467H160.122a1.5,1.5,0,0,1-1.5-1.5,1.5,1.5,0,0,1,1.5-1.5h33.934a1.5,1.5,0,0,1,1.5,1.5A1.5,1.5,0,0,1,194.056-441.467Z" fill="#dfb1cf"/>
      </g>
      <g id="Group_4615" data-name="Group 4615">
        <path id="Path_4167" data-name="Path 4167" d="M189.557-434.269H160.122a1.5,1.5,0,0,1-1.5-1.5,1.5,1.5,0,0,1,1.5-1.5h29.435a1.5,1.5,0,0,1,1.5,1.5A1.5,1.5,0,0,1,189.557-434.269Z" fill="#dfb1cf"/>
      </g>
      <g id="Group_4616" data-name="Group 4616">
        <path id="Path_4168" data-name="Path 4168" d="M196.119-427.071h-36a1.5,1.5,0,0,1-1.5-1.5,1.5,1.5,0,0,1,1.5-1.5h36a1.5,1.5,0,0,1,1.5,1.5A1.5,1.5,0,0,1,196.119-427.071Z" fill="#dfb1cf"/>
      </g>
      <g id="Group_4617" data-name="Group 4617">
        <path id="Path_4169" data-name="Path 4169" d="M260.446-528.067a12.236,12.236,0,0,1-12.222-12.223,12.236,12.236,0,0,1,12.222-12.223A12.237,12.237,0,0,1,272.67-540.29,12.237,12.237,0,0,1,260.446-528.067Zm0-21.446a9.233,9.233,0,0,0-9.222,9.223,9.233,9.233,0,0,0,9.222,9.223,9.234,9.234,0,0,0,9.224-9.223A9.234,9.234,0,0,0,260.446-549.513Z" fill="#b74d94"/>
      </g>
      <g id="Group_4627" data-name="Group 4627">
        <g id="Group_4625" data-name="Group 4625">
          <g id="Group_4618" data-name="Group 4618">
            <path id="Path_4170" data-name="Path 4170" d="M240.112-460.851a1.5,1.5,0,0,1-1.5-1.5v-7.894a1.5,1.5,0,0,1,1.5-1.5,1.5,1.5,0,0,1,1.5,1.5v7.894A1.5,1.5,0,0,1,240.112-460.851Z" fill="#dfb1cf"/>
          </g>
          <g id="Group_4619" data-name="Group 4619">
            <path id="Path_4171" data-name="Path 4171" d="M248.816-460.851a1.5,1.5,0,0,1-1.5-1.5v-10.683a1.5,1.5,0,0,1,1.5-1.5,1.5,1.5,0,0,1,1.5,1.5v10.683A1.5,1.5,0,0,1,248.816-460.851Z" fill="#dfb1cf"/>
          </g>
          <g id="Group_4620" data-name="Group 4620">
            <path id="Path_4172" data-name="Path 4172" d="M257.521-460.851a1.5,1.5,0,0,1-1.5-1.5V-475.2a1.5,1.5,0,0,1,1.5-1.5,1.5,1.5,0,0,1,1.5,1.5v12.847A1.5,1.5,0,0,1,257.521-460.851Z" fill="#dfb1cf"/>
          </g>
          <g id="Group_4621" data-name="Group 4621">
            <path id="Path_4173" data-name="Path 4173" d="M266.225-460.851a1.5,1.5,0,0,1-1.5-1.5V-481.4a1.5,1.5,0,0,1,1.5-1.5,1.5,1.5,0,0,1,1.5,1.5v19.049A1.5,1.5,0,0,1,266.225-460.851Z" fill="#dfb1cf"/>
          </g>
          <g id="Group_4622" data-name="Group 4622">
            <path id="Path_4174" data-name="Path 4174" d="M274.929-460.851a1.5,1.5,0,0,1-1.5-1.5v-21.5a1.5,1.5,0,0,1,1.5-1.5,1.5,1.5,0,0,1,1.5,1.5v21.5A1.5,1.5,0,0,1,274.929-460.851Z" fill="#dfb1cf"/>
          </g>
          <g id="Group_4623" data-name="Group 4623">
            <path id="Path_4175" data-name="Path 4175" d="M283.633-460.851a1.5,1.5,0,0,1-1.5-1.5V-484.8a1.5,1.5,0,0,1,1.5-1.5,1.5,1.5,0,0,1,1.5,1.5v22.449A1.5,1.5,0,0,1,283.633-460.851Z" fill="#dfb1cf"/>
          </g>
          <g id="Group_4624" data-name="Group 4624">
            <path id="Path_4176" data-name="Path 4176" d="M292.337-460.851a1.5,1.5,0,0,1-1.5-1.5v-24.627a1.5,1.5,0,0,1,1.5-1.5,1.5,1.5,0,0,1,1.5,1.5v24.627A1.5,1.5,0,0,1,292.337-460.851Z" fill="#dfb1cf"/>
          </g>
        </g>
        <g id="Group_4626" data-name="Group 4626">
          <path id="Path_4177" data-name="Path 4177" d="M228.644-461.812a1.5,1.5,0,0,1-1.237-.649,1.5,1.5,0,0,1,.385-2.086l14.95-10.291a1.5,1.5,0,0,1,.693-.256l6.071-.646,7.852-1.475,4.679-4.9a1.492,1.492,0,0,1,.644-.4L273-485.691a1.507,1.507,0,0,1,.441-.066h8.33l10.722-3.6a1.5,1.5,0,0,1,1.9.944,1.5,1.5,0,0,1-.945,1.9l-10.955,3.682a1.514,1.514,0,0,1-.477.078h-8.349l-9.73,2.994L259.2-474.8a1.5,1.5,0,0,1-.807.439L250-472.78c-.039.007-.079.013-.119.017l-5.752.612-14.637,10.074A1.483,1.483,0,0,1,228.644-461.812Z" fill="#b74d94"/>
        </g>
      </g>
      <g id="Group_4628" data-name="Group 4628">
        <path id="Path_4178" data-name="Path 4178" d="M160.455-405.647a1.5,1.5,0,0,1-1.5-1.5v-10.174H148.917a1.5,1.5,0,0,1-1.5-1.5,1.5,1.5,0,0,1,1.5-1.5h11.538a1.5,1.5,0,0,1,1.5,1.5v11.674A1.5,1.5,0,0,1,160.455-405.647Z" fill="#b74d94"/>
      </g>
      <g id="Group_4629" data-name="Group 4629">
        <path id="Path_4179" data-name="Path 4179" d="M290.254-405.784a1.5,1.5,0,0,1-1.5-1.5v-12.5a1.5,1.5,0,0,1,1.5-1.5h12.5a1.5,1.5,0,0,1,1.5,1.5,1.5,1.5,0,0,1-1.5,1.5h-11v11A1.5,1.5,0,0,1,290.254-405.784Z" fill="#b74d94"/>
      </g>
      <g id="Group_4630" data-name="Group 4630">
        <path id="Path_4180" data-name="Path 4180" d="M290.254-405.784a1.5,1.5,0,0,1-1.061-.439,1.5,1.5,0,0,1,0-2.121l12.06-12.06V-494.96H221.914v86.176h61.61a1.5,1.5,0,0,1,1.5,1.5,1.5,1.5,0,0,1-1.5,1.5h-63.11a1.5,1.5,0,0,1-1.5-1.5V-496.46a1.5,1.5,0,0,1,1.5-1.5h82.339a1.5,1.5,0,0,1,1.5,1.5v76.677a1.5,1.5,0,0,1-.439,1.061l-12.5,12.5A1.5,1.5,0,0,1,290.254-405.784Z" fill="#b74d94"/>
      </g>
      <g id="Group_4631" data-name="Group 4631">
        <path id="Path_4181" data-name="Path 4181" d="M290.987-521.26H249.716a1.5,1.5,0,0,1-1.5-1.5,1.5,1.5,0,0,1,1.5-1.5h41.271a1.5,1.5,0,0,1,1.5,1.5A1.5,1.5,0,0,1,290.987-521.26Z" fill="#dfb1cf"/>
      </g>
    </g>
  </g>
</svg>
