<svg xmlns="http://www.w3.org/2000/svg" width="163" height="156.3" viewBox="0 0 163 156.3">
  <g id="Group_7354" data-name="Group 7354" transform="translate(-1072 -2584)">
    <g id="Group_6121" data-name="Group 6121" transform="translate(933.5 2536.4)">
      <g id="Core_shadow" data-name="Core shadow">
        <path id="Path_5235" data-name="Path 5235" d="M172.085,193.6h-1.358l-6.77,7.5a1.672,1.672,0,0,0,1.21,2.8H274.723a1.672,1.672,0,0,0,1.21-2.8l-6.087-6.983h-1.32" fill="#d7d7d7"/>
        <g id="Group_6082" data-name="Group 6082">
          <path id="Path_5236" data-name="Path 5236" d="M203.813,137.921v16.187h9.527a6.66,6.66,0,1,1,13.32,0h9.527V137.921Z" fill="#d7d7d7"/>
        </g>
        <g id="Group_6083" data-name="Group 6083">
          <path id="Path_5237" data-name="Path 5237" d="M288.541,196.014c-4.712,0-8.7-2.716-10.007-5.293a2.934,2.934,0,0,0-.458,1.542c0,2.9,4.685,6.991,10.465,6.991s10.465-4.087,10.465-6.991a2.943,2.943,0,0,0-.458-1.542C297.236,193.3,293.253,196.014,288.541,196.014Z" fill="#d7d7d7"/>
        </g>
        <path id="Path_5238" data-name="Path 5238" d="M167.353,49.232l17.212,88.689H145.422s-5.585-.306-5.585-5.585V54.816s-.072-5.584,5.585-5.584Z" fill="#d7d7d7"/>
        <rect id="Rectangle_659" data-name="Rectangle 659" width="160" height="9.66" transform="translate(140 49.44)" fill="#d7d7d7"/>
        <rect id="Rectangle_660" data-name="Rectangle 660" width="160" height="9.66" transform="translate(140 128.091)" fill="#d7d7d7"/>
        <path id="Path_5239" data-name="Path 5239" d="M210.183,108.924V95.163a2.808,2.808,0,0,0-.824-1.988L206.883,90.7a4.019,4.019,0,0,0-1.181,2.851v17.537a4.032,4.032,0,0,0,4.032,4.031h20.484a4.022,4.022,0,0,0,2.851-1.18l-2.477-2.477a2.811,2.811,0,0,0-1.988-.823H211.9A1.713,1.713,0,0,1,210.183,108.924Z" fill="#d7d7d7"/>
      </g>
      <g id="Core">
        <g id="Group_6120" data-name="Group 6120">
          <g id="Group_6084" data-name="Group 6084">
            <path id="Path_5240" data-name="Path 5240" d="M257.461,177.879a1.5,1.5,0,0,1-1.5-1.5v-4.584H184.1v4.584a1.5,1.5,0,0,1-3,0v-6.084a1.5,1.5,0,0,1,1.5-1.5h74.862a1.5,1.5,0,0,1,1.5,1.5v6.084A1.5,1.5,0,0,1,257.461,177.879Z" fill="#8e8e8e"/>
          </g>
          <g id="Group_6085" data-name="Group 6085">
            <path id="Path_5241" data-name="Path 5241" d="M203.813,165.795a1.5,1.5,0,0,1-1.5-1.5V143.921a1.5,1.5,0,0,1,3,0v20.374A1.5,1.5,0,0,1,203.813,165.795Z" fill="#8e8e8e"/>
          </g>
          <g id="Group_6086" data-name="Group 6086">
            <path id="Path_5242" data-name="Path 5242" d="M236.187,165.795a1.5,1.5,0,0,1-1.5-1.5V143.921a1.5,1.5,0,0,1,3,0v20.374A1.5,1.5,0,0,1,236.187,165.795Z" fill="#8e8e8e"/>
          </g>
          <g id="Group_6087" data-name="Group 6087">
            <path id="Path_5243" data-name="Path 5243" d="M220,162.162a8.054,8.054,0,1,1,8.055-8.054A8.064,8.064,0,0,1,220,162.162Zm0-13.108a5.054,5.054,0,1,0,5.055,5.054A5.06,5.06,0,0,0,220,149.054Z" fill="#8e8e8e"/>
          </g>
          <g id="Group_6088" data-name="Group 6088">
            <path id="Path_5244" data-name="Path 5244" d="M288.541,196.836c-6.212,0-11.215-4.371-11.215-7.99,0-3.639,4.821-6.382,11.215-6.382s11.215,2.743,11.215,6.382C299.756,192.465,294.753,196.836,288.541,196.836Zm0-11.372c-5.015,0-8.215,2-8.215,3.382,0,1.664,3.552,4.99,8.215,4.99s8.215-3.326,8.215-4.99C296.756,187.467,293.556,185.464,288.541,185.464Z" fill="#8e8e8e"/>
          </g>
          <g id="Group_6090" data-name="Group 6090">
            <g id="Group_6089" data-name="Group 6089">
              <path id="Path_5245" data-name="Path 5245" d="M272.046,194.324H167.954a1.5,1.5,0,0,1-1.123-2.5L181.4,175.384a1.5,1.5,0,0,1,1.123-.505h74.954a1.5,1.5,0,0,1,1.123.505l14.569,16.445a1.5,1.5,0,0,1-1.123,2.5Zm-100.759-3h97.426L256.8,177.879H183.2Z" fill="#8e8e8e"/>
            </g>
          </g>
          <g id="Group_6108" data-name="Group 6108">
            <g id="Group_6091" data-name="Group 6091">
              <path id="Path_5246" data-name="Path 5246" d="M227.094,188.834H212.473a1.5,1.5,0,0,1,0-3h14.621a1.5,1.5,0,0,1,0,3Z" fill="#8e8e8e"/>
            </g>
            <g id="Group_6107" data-name="Group 6107">
              <g id="Group_6100" data-name="Group 6100">
                <g id="Group_6092" data-name="Group 6092">
                  <path id="Path_5247" data-name="Path 5247" d="M189.551,183.388h-4.044a1.5,1.5,0,0,1,0-3h4.044a1.5,1.5,0,1,1,0,3Z" fill="#8e8e8e"/>
                </g>
                <g id="Group_6093" data-name="Group 6093">
                  <path id="Path_5248" data-name="Path 5248" d="M198.828,183.388h-4.043a1.5,1.5,0,0,1,0-3h4.043a1.5,1.5,0,0,1,0,3Z" fill="#8e8e8e"/>
                </g>
                <g id="Group_6094" data-name="Group 6094">
                  <path id="Path_5249" data-name="Path 5249" d="M208.1,183.388h-4.043a1.5,1.5,0,1,1,0-3H208.1a1.5,1.5,0,1,1,0,3Z" fill="#8e8e8e"/>
                </g>
                <g id="Group_6095" data-name="Group 6095">
                  <path id="Path_5250" data-name="Path 5250" d="M217.383,183.388H213.34a1.5,1.5,0,1,1,0-3h4.043a1.5,1.5,0,0,1,0,3Z" fill="#8e8e8e"/>
                </g>
                <g id="Group_6096" data-name="Group 6096">
                  <path id="Path_5251" data-name="Path 5251" d="M226.66,183.388h-4.043a1.5,1.5,0,0,1,0-3h4.043a1.5,1.5,0,1,1,0,3Z" fill="#8e8e8e"/>
                </g>
                <g id="Group_6097" data-name="Group 6097">
                  <path id="Path_5252" data-name="Path 5252" d="M235.937,183.388H231.9a1.5,1.5,0,1,1,0-3h4.042a1.5,1.5,0,0,1,0,3Z" fill="#8e8e8e"/>
                </g>
                <g id="Group_6098" data-name="Group 6098">
                  <path id="Path_5253" data-name="Path 5253" d="M245.215,183.388h-4.043a1.5,1.5,0,0,1,0-3h4.043a1.5,1.5,0,0,1,0,3Z" fill="#8e8e8e"/>
                </g>
                <g id="Group_6099" data-name="Group 6099">
                  <path id="Path_5254" data-name="Path 5254" d="M254.493,183.388h-4.044a1.5,1.5,0,1,1,0-3h4.044a1.5,1.5,0,0,1,0,3Z" fill="#8e8e8e"/>
                </g>
              </g>
              <g id="Group_6101" data-name="Group 6101">
                <path id="Path_5255" data-name="Path 5255" d="M185.588,188.834h-4.569a1.5,1.5,0,0,1,0-3h4.569a1.5,1.5,0,0,1,0,3Z" fill="#8e8e8e"/>
              </g>
              <g id="Group_6102" data-name="Group 6102">
                <path id="Path_5256" data-name="Path 5256" d="M196.073,188.834H191.5a1.5,1.5,0,0,1,0-3h4.57a1.5,1.5,0,0,1,0,3Z" fill="#8e8e8e"/>
              </g>
              <g id="Group_6103" data-name="Group 6103">
                <path id="Path_5257" data-name="Path 5257" d="M206.558,188.834h-4.57a1.5,1.5,0,0,1,0-3h4.57a1.5,1.5,0,0,1,0,3Z" fill="#8e8e8e"/>
              </g>
              <g id="Group_6104" data-name="Group 6104">
                <path id="Path_5258" data-name="Path 5258" d="M238.012,188.834h-4.57a1.5,1.5,0,0,1,0-3h4.57a1.5,1.5,0,0,1,0,3Z" fill="#8e8e8e"/>
              </g>
              <g id="Group_6105" data-name="Group 6105">
                <path id="Path_5259" data-name="Path 5259" d="M248.5,188.834h-4.569a1.5,1.5,0,0,1,0-3H248.5a1.5,1.5,0,0,1,0,3Z" fill="#8e8e8e"/>
              </g>
              <g id="Group_6106" data-name="Group 6106">
                <path id="Path_5260" data-name="Path 5260" d="M258.981,188.834h-4.569a1.5,1.5,0,0,1,0-3h4.569a1.5,1.5,0,0,1,0,3Z" fill="#8e8e8e"/>
              </g>
            </g>
          </g>
          <g id="Group_6109" data-name="Group 6109">
            <path id="Path_5261" data-name="Path 5261" d="M273.663,199.9l-.754-1.734h-105.7l-.745,1.734Z" fill="#8e8e8e"/>
          </g>
          <g id="Group_6110" data-name="Group 6110">
            <path id="Path_5262" data-name="Path 5262" d="M272.046,200.13H167.954a1.5,1.5,0,1,1,0-3H272.046a1.5,1.5,0,0,1,0,3Z" fill="#8e8e8e"/>
          </g>
          <g id="Group_6111" data-name="Group 6111">
            <path id="Path_5263" data-name="Path 5263" d="M296.816,139.421H143.184a4.689,4.689,0,0,1-4.684-4.684V52.283a4.688,4.688,0,0,1,4.684-4.683H296.816a4.688,4.688,0,0,1,4.684,4.683v82.454A4.689,4.689,0,0,1,296.816,139.421ZM143.184,50.6a1.684,1.684,0,0,0-1.684,1.683v82.454a1.685,1.685,0,0,0,1.684,1.684H296.816a1.685,1.685,0,0,0,1.684-1.684V52.283a1.684,1.684,0,0,0-1.684-1.683Z" fill="#8e8e8e"/>
          </g>
          <g id="Group_6112" data-name="Group 6112">
            <path id="Path_5264" data-name="Path 5264" d="M294,129.421H146a1.5,1.5,0,0,1,0-3H294a1.5,1.5,0,0,1,0,3Z" fill="#8e8e8e"/>
          </g>
          <g id="Group_6113" data-name="Group 6113">
            <path id="Path_5265" data-name="Path 5265" d="M294,60.6H146a1.5,1.5,0,0,1,0-3H294a1.5,1.5,0,0,1,0,3Z" fill="#8e8e8e"/>
          </g>
          <g id="Group_6116" data-name="Group 6116">
            <g id="Group_6114" data-name="Group 6114">
              <circle id="Ellipse_56" data-name="Ellipse 56" cx="3.274" cy="3.274" r="3.274" transform="translate(216.601 95.434)" fill="#8e8e8e"/>
            </g>
            <g id="Group_6115" data-name="Group 6115">
              <path id="Path_5266" data-name="Path 5266" d="M219.876,107.292a1.5,1.5,0,0,1-1.5-1.5V98.709a1.5,1.5,0,0,1,3,0v7.083A1.5,1.5,0,0,1,219.876,107.292Z" fill="#8e8e8e"/>
            </g>
          </g>
          <g id="Group_6119" data-name="Group 6119">
            <g id="Group_6117" data-name="Group 6117">
              <path id="Path_5267" data-name="Path 5267" d="M228.9,85.323a1.5,1.5,0,0,1-1.5-1.5v-5.46a7.4,7.4,0,0,0-14.806,0v5.46a1.5,1.5,0,0,1-3,0v-5.46a10.4,10.4,0,0,1,20.806,0v5.46A1.5,1.5,0,0,1,228.9,85.323Z" fill="#8e8e8e"/>
            </g>
            <g id="Group_6118" data-name="Group 6118">
              <path id="Path_5268" data-name="Path 5268" d="M230.77,116.617H209.23a5.091,5.091,0,0,1-5.085-5.085V93.408a5.091,5.091,0,0,1,5.085-5.085h21.54a5.09,5.09,0,0,1,5.084,5.085v18.124A5.09,5.09,0,0,1,230.77,116.617ZM209.23,91.323a2.088,2.088,0,0,0-2.085,2.085v18.124a2.088,2.088,0,0,0,2.085,2.085h21.54a2.087,2.087,0,0,0,2.084-2.085V93.408a2.087,2.087,0,0,0-2.084-2.085Z" fill="#8e8e8e"/>
            </g>
          </g>
        </g>
      </g>
    </g>
  </g>
</svg>
