<svg xmlns="http://www.w3.org/2000/svg" width="440" height="250" viewBox="0 0 440 250">
  <g id="Group_7353" data-name="Group 7353" transform="translate(-472 -2536)">
    <rect id="Rectangle_486" data-name="Rectangle 486" width="440" height="250" transform="translate(472 2536)" fill="#fff"/>
    <g id="Group_7352" data-name="Group 7352" transform="translate(472 2536.125)">
      <g id="Background">
        <g id="Group_7240" data-name="Group 7240">
          <g id="Group_7237" data-name="Group 7237">
            <path id="Path_6072" data-name="Path 6072" d="M8.106,80.612" fill="#f8f0d6"/>
          </g>
          <g id="Group_7238" data-name="Group 7238">
            <path id="Path_6073" data-name="Path 6073" d="M71.6,81.748H8.106a1.136,1.136,0,0,1,0-2.271H71.6a1.136,1.136,0,0,1,0,2.271Z" fill="#f8f0d6"/>
          </g>
          <g id="Group_7239" data-name="Group 7239">
            <path id="Path_6074" data-name="Path 6074" d="M100.97,76.752a1.135,1.135,0,0,1-1.136-1.136V71.648H8.106a1.136,1.136,0,0,1,0-2.271H100.97a1.134,1.134,0,0,1,1.135,1.136v5.1A1.134,1.134,0,0,1,100.97,76.752Z" fill="#f8f0d6"/>
          </g>
        </g>
        <g id="Group_7245" data-name="Group 7245">
          <g id="Group_7241" data-name="Group 7241">
            <path id="Path_6075" data-name="Path 6075" d="M45.476,66.567H38.442a3.884,3.884,0,0,1-3.879-3.88V11.511a3.884,3.884,0,0,1,3.879-3.879h7.034a3.883,3.883,0,0,1,3.879,3.879V62.687A3.883,3.883,0,0,1,45.476,66.567ZM38.442,9.9a1.61,1.61,0,0,0-1.607,1.608V62.687A1.611,1.611,0,0,0,38.442,64.3h7.034a1.611,1.611,0,0,0,1.608-1.609V11.511A1.611,1.611,0,0,0,45.476,9.9Z" fill="#f8f0d6"/>
          </g>
          <g id="Group_7244" data-name="Group 7244">
            <g id="Group_7242" data-name="Group 7242">
              <path id="Path_6076" data-name="Path 6076" d="M44.249,35.632h-4.58a1.136,1.136,0,0,1,0-2.272h4.58a1.136,1.136,0,0,1,0,2.272Z" fill="#f8f0d6"/>
            </g>
            <g id="Group_7243" data-name="Group 7243">
              <path id="Path_6077" data-name="Path 6077" d="M44.249,40.755h-4.58a1.136,1.136,0,0,1,0-2.272h4.58a1.136,1.136,0,0,1,0,2.272Z" fill="#f8f0d6"/>
            </g>
          </g>
        </g>
        <g id="Group_7250" data-name="Group 7250">
          <g id="Group_7246" data-name="Group 7246">
            <path id="Path_6078" data-name="Path 6078" d="M12.159,66.477a3.848,3.848,0,0,1-1.134-.171l-3.252-1a1.136,1.136,0,1,1,.666-2.172l3.252,1A1.615,1.615,0,0,0,13.7,63.066L28.684,14.133a1.609,1.609,0,0,0-1.067-2.008l-6.725-2.06a1.607,1.607,0,0,0-2.007,1.067l-9.7,30.689a1.136,1.136,0,0,1-2.166-.683l9.692-30.68a3.876,3.876,0,0,1,4.843-2.564l6.725,2.059A3.878,3.878,0,0,1,30.855,14.8L15.871,63.732A3.889,3.889,0,0,1,12.159,66.477Z" fill="#f8f0d6"/>
          </g>
          <g id="Group_7249" data-name="Group 7249">
            <g id="Group_7247" data-name="Group 7247">
              <path id="Path_6079" data-name="Path 6079" d="M19.244,36.417a1.142,1.142,0,0,1-.333-.051l-4.38-1.341a1.135,1.135,0,1,1,.666-2.171l4.38,1.34a1.137,1.137,0,0,1-.333,2.223Z" fill="#f8f0d6"/>
            </g>
            <g id="Group_7248" data-name="Group 7248">
              <path id="Path_6080" data-name="Path 6080" d="M17.744,41.315a1.129,1.129,0,0,1-.332-.05l-4.381-1.341a1.136,1.136,0,0,1,.664-2.172l4.381,1.341a1.136,1.136,0,0,1-.332,2.222Z" fill="#f8f0d6"/>
            </g>
          </g>
        </g>
        <g id="Group_7255" data-name="Group 7255">
          <g id="Group_7251" data-name="Group 7251">
            <path id="Path_6081" data-name="Path 6081" d="M62.766,66.567H55.732a3.883,3.883,0,0,1-3.879-3.88V11.511a3.883,3.883,0,0,1,3.879-3.879h7.034a3.883,3.883,0,0,1,3.879,3.879V62.687A3.883,3.883,0,0,1,62.766,66.567ZM55.732,9.9a1.611,1.611,0,0,0-1.608,1.608V62.687A1.611,1.611,0,0,0,55.732,64.3h7.034a1.611,1.611,0,0,0,1.608-1.609V11.511A1.611,1.611,0,0,0,62.766,9.9Z" fill="#f8f0d6"/>
          </g>
          <g id="Group_7254" data-name="Group 7254">
            <g id="Group_7252" data-name="Group 7252">
              <path id="Path_6082" data-name="Path 6082" d="M61.539,35.632h-4.58a1.136,1.136,0,0,1,0-2.272h4.58a1.136,1.136,0,0,1,0,2.272Z" fill="#f8f0d6"/>
            </g>
            <g id="Group_7253" data-name="Group 7253">
              <path id="Path_6083" data-name="Path 6083" d="M61.539,40.755h-4.58a1.136,1.136,0,0,1,0-2.272h4.58a1.136,1.136,0,0,1,0,2.272Z" fill="#f8f0d6"/>
            </g>
          </g>
        </g>
        <g id="Group_7264" data-name="Group 7264">
          <g id="Group_7256" data-name="Group 7256">
            <path id="Path_6084" data-name="Path 6084" d="M98.226,66.567H91.192a3.884,3.884,0,0,1-3.88-3.88V11.511a3.884,3.884,0,0,1,3.88-3.879h7.034a3.883,3.883,0,0,1,3.879,3.879V62.687A3.883,3.883,0,0,1,98.226,66.567ZM91.192,9.9a1.611,1.611,0,0,0-1.608,1.608V62.687A1.611,1.611,0,0,0,91.192,64.3h7.034a1.611,1.611,0,0,0,1.608-1.609V11.511A1.611,1.611,0,0,0,98.226,9.9Z" fill="#f8f0d6"/>
          </g>
          <g id="Group_7257" data-name="Group 7257">
            <path id="Path_6085" data-name="Path 6085" d="M80.056,66.567H73.022a3.883,3.883,0,0,1-3.879-3.88V11.511a3.883,3.883,0,0,1,3.879-3.879h7.034a3.884,3.884,0,0,1,3.879,3.879V62.687A3.884,3.884,0,0,1,80.056,66.567ZM73.022,9.9a1.611,1.611,0,0,0-1.608,1.608V62.687A1.611,1.611,0,0,0,73.022,64.3h7.034a1.611,1.611,0,0,0,1.607-1.609V11.511A1.61,1.61,0,0,0,80.056,9.9Z" fill="#f8f0d6"/>
          </g>
          <g id="Group_7260" data-name="Group 7260">
            <g id="Group_7258" data-name="Group 7258">
              <path id="Path_6086" data-name="Path 6086" d="M97,35.632h-4.58a1.136,1.136,0,1,1,0-2.272H97a1.136,1.136,0,1,1,0,2.272Z" fill="#f8f0d6"/>
            </g>
            <g id="Group_7259" data-name="Group 7259">
              <path id="Path_6087" data-name="Path 6087" d="M97,40.755h-4.58a1.136,1.136,0,1,1,0-2.272H97a1.136,1.136,0,1,1,0,2.272Z" fill="#f8f0d6"/>
            </g>
          </g>
          <g id="Group_7263" data-name="Group 7263">
            <g id="Group_7261" data-name="Group 7261">
              <path id="Path_6088" data-name="Path 6088" d="M78.829,35.632H74.248a1.136,1.136,0,1,1,0-2.272h4.581a1.136,1.136,0,0,1,0,2.272Z" fill="#f8f0d6"/>
            </g>
            <g id="Group_7262" data-name="Group 7262">
              <path id="Path_6089" data-name="Path 6089" d="M78.829,40.755H74.248a1.136,1.136,0,1,1,0-2.272h4.581a1.136,1.136,0,0,1,0,2.272Z" fill="#f8f0d6"/>
            </g>
          </g>
        </g>
        <g id="Group_7267" data-name="Group 7267">
          <g id="Group_7265" data-name="Group 7265">
            <path id="Path_6090" data-name="Path 6090" d="M332.322,177.261h-66.7a1.136,1.136,0,1,1,0-2.272h66.7a1.136,1.136,0,1,1,0,2.272Z" fill="#f8f0d6"/>
          </g>
          <g id="Group_7266" data-name="Group 7266">
            <path id="Path_6091" data-name="Path 6091" d="M173.892,177.261H53.119a1.136,1.136,0,0,1,0-2.272H173.892a1.136,1.136,0,0,1,0,2.272Z" fill="#f8f0d6"/>
          </g>
        </g>
        <g id="Group_7269" data-name="Group 7269">
          <g id="Group_7268" data-name="Group 7268">
            <path id="Path_6092" data-name="Path 6092" d="M32.782,177.261H8.106a1.136,1.136,0,0,1,0-2.272H32.782a1.136,1.136,0,0,1,0,2.272Z" fill="#f8f0d6"/>
          </g>
        </g>
        <g id="Group_7281" data-name="Group 7281">
          <g id="Group_7270" data-name="Group 7270">
            <path id="Path_6093" data-name="Path 6093" d="M80.09,216.043H21.549a1.135,1.135,0,0,1-1.136-1.136,12.519,12.519,0,0,1,12.5-12.505h35.8a12.52,12.52,0,0,1,12.5,12.505A1.135,1.135,0,0,1,80.09,216.043Zm-57.342-2.272H78.891a10.248,10.248,0,0,0-10.17-9.1h-35.8A10.246,10.246,0,0,0,22.748,213.771Z" fill="#f8f0d6"/>
          </g>
          <g id="Group_7273" data-name="Group 7273">
            <g id="Group_7271" data-name="Group 7271">
              <path id="Path_6094" data-name="Path 6094" d="M54.119,200.546a1.139,1.139,0,0,1-1.086-.8L39.6,156.1a1.136,1.136,0,1,1,2.171-.668l13.432,43.639a1.139,1.139,0,0,1-1.086,1.471Z" fill="#f8f0d6"/>
            </g>
            <g id="Group_7272" data-name="Group 7272">
              <path id="Path_6095" data-name="Path 6095" d="M46.435,200.546a1.137,1.137,0,0,1-1.086-.8L32.521,158.029a1.136,1.136,0,1,1,2.172-.668L47.52,199.075a1.136,1.136,0,0,1-.751,1.42A1.148,1.148,0,0,1,46.435,200.546Z" fill="#f8f0d6"/>
            </g>
          </g>
          <g id="Group_7276" data-name="Group 7276">
            <g id="Group_7274" data-name="Group 7274">
              <path id="Path_6096" data-name="Path 6096" d="M41.019,140.453a1.137,1.137,0,0,1-1.069-1.522L54.284,99.246a1.136,1.136,0,0,1,1.069-.75h4.182a1.136,1.136,0,1,1,0,2.272H56.15L42.087,139.7A1.137,1.137,0,0,1,41.019,140.453Z" fill="#f8f0d6"/>
            </g>
            <g id="Group_7275" data-name="Group 7275">
              <path id="Path_6097" data-name="Path 6097" d="M33.97,138.448a1.137,1.137,0,0,1-1.064-1.537l16.639-44.15a1.137,1.137,0,0,1,1.063-.736H62.034a1.136,1.136,0,1,1,0,2.272H51.4L35.033,137.712A1.137,1.137,0,0,1,33.97,138.448Z" fill="#f8f0d6"/>
            </g>
          </g>
          <g id="Group_7277" data-name="Group 7277">
            <path id="Path_6098" data-name="Path 6098" d="M34.375,153.392a6.025,6.025,0,1,1,6.025-6.026A6.033,6.033,0,0,1,34.375,153.392Zm0-9.779a3.753,3.753,0,1,0,3.754,3.753A3.759,3.759,0,0,0,34.375,143.613Z" fill="#f8f0d6"/>
          </g>
          <g id="Group_7280" data-name="Group 7280">
            <g id="Group_7278" data-name="Group 7278">
              <path id="Path_6099" data-name="Path 6099" d="M76.353,131.3a1.133,1.133,0,0,1-.644-.2,28.951,28.951,0,1,1,32.864-47.672,1.135,1.135,0,0,1,.291,1.58L77.289,130.8A1.135,1.135,0,0,1,76.353,131.3ZM92.2,80.573a27.006,27.006,0,0,0-4.88.448,26.68,26.68,0,0,0-11.241,47.54l30.259-43.892A26.464,26.464,0,0,0,92.2,80.573Z" fill="#f8f0d6"/>
            </g>
            <g id="Group_7279" data-name="Group 7279">
              <path id="Path_6100" data-name="Path 6100" d="M90.481,116.675a10.427,10.427,0,0,1-4-.794,1.137,1.137,0,0,1,.871-2.1,8.269,8.269,0,0,0,9.13-13.362,1.136,1.136,0,1,1,1.639-1.574,10.537,10.537,0,0,1-7.645,17.83Z" fill="#f8f0d6"/>
            </g>
          </g>
        </g>
        <g id="Group_7285" data-name="Group 7285">
          <g id="Group_7282" data-name="Group 7282">
            <path id="Path_6101" data-name="Path 6101" d="M115.793,221.731H105.7a9.612,9.612,0,0,1-9.6-9.6V192.607a1.134,1.134,0,0,1,1.135-1.135h27.027a1.134,1.134,0,0,1,1.136,1.135v19.522A9.612,9.612,0,0,1,115.793,221.731ZM98.368,193.743v18.386a7.34,7.34,0,0,0,7.331,7.331h10.094a7.339,7.339,0,0,0,7.33-7.331V193.743Z" fill="#f8f0d6"/>
          </g>
          <g id="Group_7283" data-name="Group 7283">
            <path id="Path_6102" data-name="Path 6102" d="M131.505,212.676H129.4a1.136,1.136,0,0,1,0-2.272h2.107a5.382,5.382,0,1,0,0-10.764H129.4a1.136,1.136,0,0,1,0-2.272h2.107a7.654,7.654,0,0,1,0,15.308Z" fill="#f8f0d6"/>
          </g>
          <g id="Group_7284" data-name="Group 7284">
            <path id="Path_6103" data-name="Path 6103" d="M124.259,226.043H97.232a1.136,1.136,0,0,1,0-2.272h27.027a1.136,1.136,0,0,1,0,2.272Z" fill="#f8f0d6"/>
          </g>
        </g>
        <g id="Group_7286" data-name="Group 7286">
          <path id="Path_6104" data-name="Path 6104" d="M364.248,209.245H338.6a1.135,1.135,0,0,1-1.136-1.136V125.246a1.135,1.135,0,0,1,1.136-1.136h25.649a1.135,1.135,0,0,1,1.136,1.136v82.863A1.135,1.135,0,0,1,364.248,209.245Zm-24.514-2.271h23.378V126.382H339.734Z" fill="#f8f0d6"/>
        </g>
        <g id="Group_7287" data-name="Group 7287">
          <path id="Path_6105" data-name="Path 6105" d="M351.424,201.106a5.4,5.4,0,1,1,5.4-5.4A5.4,5.4,0,0,1,351.424,201.106Zm0-8.526a3.128,3.128,0,1,0,3.127,3.127A3.131,3.131,0,0,0,351.424,192.58Z" fill="#f8f0d6"/>
        </g>
        <g id="Group_7290" data-name="Group 7290">
          <g id="Group_7288" data-name="Group 7288">
            <path id="Path_6106" data-name="Path 6106" d="M357.531,180.192H345.315a1.135,1.135,0,0,1,0-2.271h12.216a1.135,1.135,0,1,1,0,2.271Z" fill="#f8f0d6"/>
          </g>
          <g id="Group_7289" data-name="Group 7289">
            <path id="Path_6107" data-name="Path 6107" d="M355.241,184.7h-7.635a1.135,1.135,0,0,1,0-2.271h7.635a1.135,1.135,0,1,1,0,2.271Z" fill="#f8f0d6"/>
          </g>
        </g>
        <g id="Group_7296" data-name="Group 7296">
          <g id="Group_7291" data-name="Group 7291">
            <path id="Path_6108" data-name="Path 6108" d="M397.815,209.245H372.166a1.135,1.135,0,0,1-1.136-1.136V125.246a1.135,1.135,0,0,1,1.136-1.136h25.649a1.135,1.135,0,0,1,1.136,1.136v82.863A1.135,1.135,0,0,1,397.815,209.245ZM373.3,206.974H396.68V126.382H373.3Z" fill="#f8f0d6"/>
          </g>
          <g id="Group_7292" data-name="Group 7292">
            <path id="Path_6109" data-name="Path 6109" d="M384.99,201.106a5.4,5.4,0,1,1,5.4-5.4A5.4,5.4,0,0,1,384.99,201.106Zm0-8.526a3.128,3.128,0,1,0,3.128,3.127A3.131,3.131,0,0,0,384.99,192.58Z" fill="#f8f0d6"/>
          </g>
          <g id="Group_7295" data-name="Group 7295">
            <g id="Group_7293" data-name="Group 7293">
              <path id="Path_6110" data-name="Path 6110" d="M391.1,180.192H378.883a1.135,1.135,0,1,1,0-2.271H391.1a1.135,1.135,0,0,1,0,2.271Z" fill="#f8f0d6"/>
            </g>
            <g id="Group_7294" data-name="Group 7294">
              <path id="Path_6111" data-name="Path 6111" d="M388.808,184.7h-7.635a1.135,1.135,0,1,1,0-2.271h7.635a1.135,1.135,0,0,1,0,2.271Z" fill="#f8f0d6"/>
            </g>
          </g>
        </g>
        <g id="Group_7302" data-name="Group 7302">
          <g id="Group_7297" data-name="Group 7297">
            <path id="Path_6112" data-name="Path 6112" d="M431.382,209.245H405.733a1.134,1.134,0,0,1-1.135-1.136V125.246a1.134,1.134,0,0,1,1.135-1.136h25.649a1.135,1.135,0,0,1,1.136,1.136v82.863A1.135,1.135,0,0,1,431.382,209.245Zm-24.513-2.271h23.377V126.382H406.869Z" fill="#f8f0d6"/>
          </g>
          <g id="Group_7298" data-name="Group 7298">
            <path id="Path_6113" data-name="Path 6113" d="M418.558,201.106a5.4,5.4,0,1,1,5.4-5.4A5.4,5.4,0,0,1,418.558,201.106Zm0-8.526a3.128,3.128,0,1,0,3.128,3.127A3.131,3.131,0,0,0,418.558,192.58Z" fill="#f8f0d6"/>
          </g>
          <g id="Group_7301" data-name="Group 7301">
            <g id="Group_7299" data-name="Group 7299">
              <path id="Path_6114" data-name="Path 6114" d="M424.665,180.192H412.45a1.135,1.135,0,1,1,0-2.271h12.215a1.135,1.135,0,1,1,0,2.271Z" fill="#f8f0d6"/>
            </g>
            <g id="Group_7300" data-name="Group 7300">
              <path id="Path_6115" data-name="Path 6115" d="M422.375,184.7H414.74a1.135,1.135,0,1,1,0-2.271h7.635a1.135,1.135,0,1,1,0,2.271Z" fill="#f8f0d6"/>
            </g>
          </g>
        </g>
        <g id="Group_7310" data-name="Group 7310">
          <g id="Group_7306" data-name="Group 7306">
            <g id="Group_7303" data-name="Group 7303">
              <path id="Path_6116" data-name="Path 6116" d="M428.97,100.177H345.715a1.135,1.135,0,0,1-1.136-1.136V39.631a1.135,1.135,0,0,1,1.136-1.136h83.422a1.136,1.136,0,0,1,0,2.272H346.851V97.9H428.97a1.136,1.136,0,0,1,0,2.272Z" fill="#f8f0d6"/>
            </g>
            <g id="Group_7304" data-name="Group 7304">
              <path id="Path_6117" data-name="Path 6117" d="M428.969,107.033H338.858a1.134,1.134,0,0,1-1.135-1.136V32.773a1.134,1.134,0,0,1,1.135-1.135h90.111a1.136,1.136,0,0,1,0,2.271H339.994v70.853h88.975a1.135,1.135,0,0,1,0,2.271Z" fill="#f8f0d6"/>
            </g>
            <g id="Group_7305" data-name="Group 7305">
              <path id="Path_6118" data-name="Path 6118" d="M428.97,83.413H360.1a1.135,1.135,0,0,1-1.136-1.136V56.4a1.135,1.135,0,0,1,1.136-1.136H428.97a1.136,1.136,0,0,1,0,2.271H361.239V81.142H428.97a1.136,1.136,0,0,1,0,2.271Z" fill="#f8f0d6"/>
            </g>
          </g>
          <g id="Group_7309" data-name="Group 7309">
            <g id="Group_7307" data-name="Group 7307">
              <path id="Path_6119" data-name="Path 6119" d="M376.017,28.877a1.136,1.136,0,0,1-.771-1.971L396.614,7.19a1.136,1.136,0,1,1,1.541,1.67L376.787,28.576A1.136,1.136,0,0,1,376.017,28.877Z" fill="#f8f0d6"/>
            </g>
            <g id="Group_7308" data-name="Group 7308">
              <path id="Path_6120" data-name="Path 6120" d="M418.753,28.877a1.138,1.138,0,0,1-.771-.3L396.614,8.86a1.136,1.136,0,0,1,1.541-1.67l21.368,19.716a1.136,1.136,0,0,1-.77,1.971Z" fill="#f8f0d6"/>
            </g>
          </g>
        </g>
      </g>
      <g id="Core">
        <g id="Group_7351" data-name="Group 7351">
          <g id="Group_7313" data-name="Group 7313">
            <path id="Path_6121" data-name="Path 6121" d="M172.085,193.726h-1.358l-6.77,7.5a1.672,1.672,0,0,0,1.21,2.8H274.723a1.672,1.672,0,0,0,1.21-2.8l-6.087-6.983h-1.32" fill="#d7d7d7"/>
            <g id="Group_7311" data-name="Group 7311">
              <path id="Path_6122" data-name="Path 6122" d="M203.813,138.046v16.187h9.527a6.66,6.66,0,1,1,13.32,0h9.527V138.046Z" fill="#d7d7d7"/>
            </g>
            <g id="Group_7312" data-name="Group 7312">
              <path id="Path_6123" data-name="Path 6123" d="M288.541,196.139c-4.712,0-8.7-2.716-10.007-5.293a2.934,2.934,0,0,0-.458,1.542c0,2.9,4.685,6.991,10.465,6.991s10.465-4.087,10.465-6.991a2.943,2.943,0,0,0-.458-1.542C297.236,193.423,293.253,196.139,288.541,196.139Z" fill="#d7d7d7"/>
            </g>
            <path id="Path_6124" data-name="Path 6124" d="M167.353,49.357l17.212,88.689H145.422s-5.585-.306-5.585-5.584V54.941s-.072-5.584,5.585-5.584Z" fill="#d7d7d7"/>
            <rect id="Rectangle_868" data-name="Rectangle 868" width="160" height="9.66" transform="translate(140 49.565)" fill="#d7d7d7"/>
            <rect id="Rectangle_869" data-name="Rectangle 869" width="160" height="9.66" transform="translate(140 128.216)" fill="#d7d7d7"/>
            <path id="Path_6125" data-name="Path 6125" d="M210.183,109.049V95.288a2.808,2.808,0,0,0-.824-1.988l-2.476-2.477a4.019,4.019,0,0,0-1.181,2.851v17.537a4.032,4.032,0,0,0,4.032,4.032h20.484a4.023,4.023,0,0,0,2.851-1.181l-2.477-2.477a2.811,2.811,0,0,0-1.988-.823H211.9A1.713,1.713,0,0,1,210.183,109.049Z" fill="#d7d7d7"/>
          </g>
          <g id="Group_7350" data-name="Group 7350">
            <g id="Group_7314" data-name="Group 7314">
              <path id="Path_6126" data-name="Path 6126" d="M257.461,178a1.5,1.5,0,0,1-1.5-1.5V171.92H184.1V176.5a1.5,1.5,0,0,1-3,0V170.42a1.5,1.5,0,0,1,1.5-1.5h74.862a1.5,1.5,0,0,1,1.5,1.5V176.5A1.5,1.5,0,0,1,257.461,178Z" fill="#8e8e8e"/>
            </g>
            <g id="Group_7315" data-name="Group 7315">
              <path id="Path_6127" data-name="Path 6127" d="M203.813,165.92a1.5,1.5,0,0,1-1.5-1.5V144.046a1.5,1.5,0,0,1,3,0V164.42A1.5,1.5,0,0,1,203.813,165.92Z" fill="#8e8e8e"/>
            </g>
            <g id="Group_7316" data-name="Group 7316">
              <path id="Path_6128" data-name="Path 6128" d="M236.187,165.92a1.5,1.5,0,0,1-1.5-1.5V144.046a1.5,1.5,0,0,1,3,0V164.42A1.5,1.5,0,0,1,236.187,165.92Z" fill="#8e8e8e"/>
            </g>
            <g id="Group_7317" data-name="Group 7317">
              <path id="Path_6129" data-name="Path 6129" d="M220,162.287a8.054,8.054,0,1,1,8.055-8.054A8.064,8.064,0,0,1,220,162.287Zm0-13.108a5.054,5.054,0,1,0,5.055,5.054A5.06,5.06,0,0,0,220,149.179Z" fill="#8e8e8e"/>
            </g>
            <g id="Group_7318" data-name="Group 7318">
              <path id="Path_6130" data-name="Path 6130" d="M288.541,196.961c-6.212,0-11.215-4.371-11.215-7.99,0-3.639,4.821-6.382,11.215-6.382s11.215,2.743,11.215,6.382C299.756,192.59,294.753,196.961,288.541,196.961Zm0-11.372c-5.015,0-8.215,2-8.215,3.382,0,1.664,3.552,4.99,8.215,4.99s8.215-3.326,8.215-4.99C296.756,187.592,293.556,185.589,288.541,185.589Z" fill="#8e8e8e"/>
            </g>
            <g id="Group_7320" data-name="Group 7320">
              <g id="Group_7319" data-name="Group 7319">
                <path id="Path_6131" data-name="Path 6131" d="M272.046,194.449H167.954a1.5,1.5,0,0,1-1.123-2.5L181.4,175.509a1.5,1.5,0,0,1,1.123-.505h74.954a1.5,1.5,0,0,1,1.123.505l14.569,16.445a1.5,1.5,0,0,1-1.123,2.5Zm-100.759-3h97.426L256.8,178H183.2Z" fill="#8e8e8e"/>
              </g>
            </g>
            <g id="Group_7338" data-name="Group 7338">
              <g id="Group_7321" data-name="Group 7321">
                <path id="Path_6132" data-name="Path 6132" d="M227.094,188.959H212.473a1.5,1.5,0,0,1,0-3h14.621a1.5,1.5,0,0,1,0,3Z" fill="#8e8e8e"/>
              </g>
              <g id="Group_7337" data-name="Group 7337">
                <g id="Group_7330" data-name="Group 7330">
                  <g id="Group_7322" data-name="Group 7322">
                    <path id="Path_6133" data-name="Path 6133" d="M189.551,183.513h-4.044a1.5,1.5,0,0,1,0-3h4.044a1.5,1.5,0,1,1,0,3Z" fill="#8e8e8e"/>
                  </g>
                  <g id="Group_7323" data-name="Group 7323">
                    <path id="Path_6134" data-name="Path 6134" d="M198.828,183.513h-4.043a1.5,1.5,0,0,1,0-3h4.043a1.5,1.5,0,0,1,0,3Z" fill="#8e8e8e"/>
                  </g>
                  <g id="Group_7324" data-name="Group 7324">
                    <path id="Path_6135" data-name="Path 6135" d="M208.1,183.513h-4.043a1.5,1.5,0,1,1,0-3H208.1a1.5,1.5,0,1,1,0,3Z" fill="#8e8e8e"/>
                  </g>
                  <g id="Group_7325" data-name="Group 7325">
                    <path id="Path_6136" data-name="Path 6136" d="M217.383,183.513H213.34a1.5,1.5,0,1,1,0-3h4.043a1.5,1.5,0,0,1,0,3Z" fill="#8e8e8e"/>
                  </g>
                  <g id="Group_7326" data-name="Group 7326">
                    <path id="Path_6137" data-name="Path 6137" d="M226.66,183.513h-4.043a1.5,1.5,0,0,1,0-3h4.043a1.5,1.5,0,1,1,0,3Z" fill="#8e8e8e"/>
                  </g>
                  <g id="Group_7327" data-name="Group 7327">
                    <path id="Path_6138" data-name="Path 6138" d="M235.937,183.513H231.9a1.5,1.5,0,1,1,0-3h4.042a1.5,1.5,0,0,1,0,3Z" fill="#8e8e8e"/>
                  </g>
                  <g id="Group_7328" data-name="Group 7328">
                    <path id="Path_6139" data-name="Path 6139" d="M245.215,183.513h-4.043a1.5,1.5,0,0,1,0-3h4.043a1.5,1.5,0,0,1,0,3Z" fill="#8e8e8e"/>
                  </g>
                  <g id="Group_7329" data-name="Group 7329">
                    <path id="Path_6140" data-name="Path 6140" d="M254.493,183.513h-4.044a1.5,1.5,0,1,1,0-3h4.044a1.5,1.5,0,0,1,0,3Z" fill="#8e8e8e"/>
                  </g>
                </g>
                <g id="Group_7331" data-name="Group 7331">
                  <path id="Path_6141" data-name="Path 6141" d="M185.588,188.959h-4.569a1.5,1.5,0,0,1,0-3h4.569a1.5,1.5,0,0,1,0,3Z" fill="#8e8e8e"/>
                </g>
                <g id="Group_7332" data-name="Group 7332">
                  <path id="Path_6142" data-name="Path 6142" d="M196.073,188.959H191.5a1.5,1.5,0,0,1,0-3h4.57a1.5,1.5,0,0,1,0,3Z" fill="#8e8e8e"/>
                </g>
                <g id="Group_7333" data-name="Group 7333">
                  <path id="Path_6143" data-name="Path 6143" d="M206.558,188.959h-4.57a1.5,1.5,0,0,1,0-3h4.57a1.5,1.5,0,0,1,0,3Z" fill="#8e8e8e"/>
                </g>
                <g id="Group_7334" data-name="Group 7334">
                  <path id="Path_6144" data-name="Path 6144" d="M238.012,188.959h-4.57a1.5,1.5,0,0,1,0-3h4.57a1.5,1.5,0,0,1,0,3Z" fill="#8e8e8e"/>
                </g>
                <g id="Group_7335" data-name="Group 7335">
                  <path id="Path_6145" data-name="Path 6145" d="M248.5,188.959h-4.569a1.5,1.5,0,0,1,0-3H248.5a1.5,1.5,0,0,1,0,3Z" fill="#8e8e8e"/>
                </g>
                <g id="Group_7336" data-name="Group 7336">
                  <path id="Path_6146" data-name="Path 6146" d="M258.981,188.959h-4.569a1.5,1.5,0,0,1,0-3h4.569a1.5,1.5,0,0,1,0,3Z" fill="#8e8e8e"/>
                </g>
              </g>
            </g>
            <g id="Group_7339" data-name="Group 7339">
              <path id="Path_6147" data-name="Path 6147" d="M273.663,200.025l-.754-1.734h-105.7l-.745,1.734Z" fill="#8e8e8e"/>
            </g>
            <g id="Group_7340" data-name="Group 7340">
              <path id="Path_6148" data-name="Path 6148" d="M272.046,200.255H167.954a1.5,1.5,0,1,1,0-3H272.046a1.5,1.5,0,0,1,0,3Z" fill="#8e8e8e"/>
            </g>
            <g id="Group_7341" data-name="Group 7341">
              <path id="Path_6149" data-name="Path 6149" d="M296.816,139.546H143.184a4.689,4.689,0,0,1-4.684-4.684V52.408a4.688,4.688,0,0,1,4.684-4.683H296.816a4.688,4.688,0,0,1,4.684,4.683v82.454A4.689,4.689,0,0,1,296.816,139.546ZM143.184,50.725a1.685,1.685,0,0,0-1.684,1.683v82.454a1.685,1.685,0,0,0,1.684,1.684H296.816a1.685,1.685,0,0,0,1.684-1.684V52.408a1.685,1.685,0,0,0-1.684-1.683Z" fill="#8e8e8e"/>
            </g>
            <g id="Group_7342" data-name="Group 7342">
              <path id="Path_6150" data-name="Path 6150" d="M294,129.546H146a1.5,1.5,0,0,1,0-3H294a1.5,1.5,0,0,1,0,3Z" fill="#8e8e8e"/>
            </g>
            <g id="Group_7343" data-name="Group 7343">
              <path id="Path_6151" data-name="Path 6151" d="M294,60.725H146a1.5,1.5,0,0,1,0-3H294a1.5,1.5,0,0,1,0,3Z" fill="#8e8e8e"/>
            </g>
            <g id="Group_7346" data-name="Group 7346">
              <g id="Group_7344" data-name="Group 7344">
                <circle id="Ellipse_66" data-name="Ellipse 66" cx="3.274" cy="3.274" r="3.274" transform="translate(216.601 95.559)" fill="#8e8e8e"/>
              </g>
              <g id="Group_7345" data-name="Group 7345">
                <path id="Path_6152" data-name="Path 6152" d="M219.876,107.417a1.5,1.5,0,0,1-1.5-1.5V98.834a1.5,1.5,0,0,1,3,0v7.083A1.5,1.5,0,0,1,219.876,107.417Z" fill="#8e8e8e"/>
              </g>
            </g>
            <g id="Group_7349" data-name="Group 7349">
              <g id="Group_7347" data-name="Group 7347">
                <path id="Path_6153" data-name="Path 6153" d="M228.9,85.448a1.5,1.5,0,0,1-1.5-1.5v-5.46a7.4,7.4,0,0,0-14.806,0v5.46a1.5,1.5,0,0,1-3,0v-5.46a10.4,10.4,0,0,1,20.806,0v5.46A1.5,1.5,0,0,1,228.9,85.448Z" fill="#8e8e8e"/>
              </g>
              <g id="Group_7348" data-name="Group 7348">
                <path id="Path_6154" data-name="Path 6154" d="M230.77,116.742H209.23a5.09,5.09,0,0,1-5.084-5.085V93.533a5.091,5.091,0,0,1,5.084-5.085h21.54a5.091,5.091,0,0,1,5.084,5.085v18.124A5.09,5.09,0,0,1,230.77,116.742ZM209.23,91.448a2.087,2.087,0,0,0-2.084,2.085v18.124a2.087,2.087,0,0,0,2.084,2.085h21.54a2.087,2.087,0,0,0,2.084-2.085V93.533a2.087,2.087,0,0,0-2.084-2.085Z" fill="#8e8e8e"/>
              </g>
            </g>
          </g>
        </g>
      </g>
    </g>
  </g>
</svg>
