<svg xmlns="http://www.w3.org/2000/svg" width="55" height="55" viewBox="0 0 55 55">
  <g transform="translate(-3603 -787)">
    <g transform="translate(-375 -478.5)">
      <g transform="translate(3978 1265.5)">
        <g >
          <circle cx="27.5" cy="27.5" r="27.5" fill="#e1aa21"/>
        </g>
      </g>
      <g transform="translate(3992.009 1282.036)">
        <g >
          <path d="M25.545,5.114a14.488,14.488,0,0,0-4.3-.614A11.414,11.414,0,0,0,14.5,6.341,11.414,11.414,0,0,0,7.75,4.5,11.414,11.414,0,0,0,1,6.341V24.32a.66.66,0,0,0,.614.614c.123,0,.184-.061.307-.061a14.979,14.979,0,0,1,5.83-1.35,11.414,11.414,0,0,1,6.75,1.841,14.783,14.783,0,0,1,6.75-1.841,12.492,12.492,0,0,1,5.83,1.289.553.553,0,0,0,.307.061A.66.66,0,0,0,28,24.259V6.341A8.371,8.371,0,0,0,25.545,5.114Zm0,16.568a14.261,14.261,0,0,0-4.3-.614,14.783,14.783,0,0,0-6.75,1.841V8.8a14.783,14.783,0,0,1,6.75-1.841,14.261,14.261,0,0,1,4.3.614Z" transform="translate(-1 -4.5)" fill="#fff"/>
          <g transform="translate(15.516 5.825)">
            <path d="M18.168,10.723a13.43,13.43,0,0,1,2.871.3V9.276A15.507,15.507,0,0,0,18.168,9,13.215,13.215,0,0,0,13,9.953V11.86A10.661,10.661,0,0,1,18.168,10.723Z" transform="translate(-13 -9)" fill="#fff"/>
            <path d="M13,12.613V14.52a10.661,10.661,0,0,1,5.168-1.137,13.43,13.43,0,0,1,2.871.3V11.936a15.507,15.507,0,0,0-2.871-.276A13.426,13.426,0,0,0,13,12.613Z" transform="translate(-13 -8.605)" fill="#fff"/>
            <path d="M18.168,14.33A13.215,13.215,0,0,0,13,15.283V17.19a10.661,10.661,0,0,1,5.168-1.137,13.43,13.43,0,0,1,2.871.3V14.606A14.582,14.582,0,0,0,18.168,14.33Z" transform="translate(-13 -8.209)" fill="#fff"/>
          </g>
        </g>
      </g>
    </g>
  </g>
</svg>
