<svg id="Icon_youTube" data-name="Icon / youTube" xmlns="http://www.w3.org/2000/svg" width="29.092" height="20" viewBox="0 0 29.092 20">
  <path id="Mask" d="M14.546,20c-.091,0-9.123-.007-11.366-.6A3.6,3.6,0,0,1,.609,16.878,36.693,36.693,0,0,1,0,10,36.67,36.67,0,0,1,.609,3.124,3.608,3.608,0,0,1,3.18.6C5.423.007,14.455,0,14.546,0s9.123.007,11.366.6a3.61,3.61,0,0,1,2.571,2.527A36.67,36.67,0,0,1,29.092,10a36.694,36.694,0,0,1-.609,6.878A3.605,3.605,0,0,1,25.912,19.4C23.669,19.993,14.637,20,14.546,20ZM10.91,5.454v9.092L18.182,10Z" transform="translate(0 0)" fill="#4569a0"/>
</svg>
