<svg xmlns="http://www.w3.org/2000/svg" viewBox="0 0 280.4 202.98"><defs><style>.cls-1{fill:#218080;}.cls-2,.cls-3,.cls-5,.cls-6{fill:none;}.cls-2,.cls-5{stroke:#333;}.cls-2,.cls-3{stroke-linejoin:round;stroke-width:0.75px;}.cls-3{stroke:#fff;}.cls-4{fill:#a0d3d3;}.cls-5{stroke-linecap:square;stroke-width:0.5px;}.cls-6{stroke:#ebebeb;stroke-miterlimit:10;}.cls-7{fill:#333;}.cls-8{fill:#fff;}</style></defs><g id="Layer_2" data-name="Layer 2"><g id="Layer_2-2" data-name="Layer 2"><g id="patch_6" data-name="patch 6"><rect class="cls-1" x="165.43" y="148.08" width="39.69" height="36.02"/></g><path class="cls-2" d="M186.28,148V136.22" transform="translate(-1.01)"/><path class="cls-3" d="M186.28,159.94V148" transform="translate(-1.01)"/><g id="patch_3" data-name="patch 3"><path class="cls-4" d="M93.71,184.1h39.68V18.25H93.71Z" transform="translate(-1.01)"/></g><path class="cls-2" d="M113.55,32V4.5" transform="translate(-1.01)"/><rect class="cls-1" x="48.5" y="43.45" width="39.69" height="140.65"/><path class="cls-2" d="M69.35,43.41V31.59" transform="translate(-1.01)"/><path class="cls-3" d="M69.35,55.31V43.41" transform="translate(-1.01)"/><path class="cls-2" d="M119,4.5H107.7" transform="translate(-1.01)"/><path class="cls-2" d="M119,32.47H107.7" transform="translate(-1.01)"/><path class="cls-2" d="M235.82,159.62H224.48" transform="translate(-1.01)"/><path class="cls-3" d="M75.2,55H63.86" transform="translate(-1.01)"/><path class="cls-2" d="M75.2,31.22H63.86" transform="translate(-1.01)"/><path class="cls-2" d="M192,136.22H180.61" transform="translate(-1.01)"/><path class="cls-3" d="M192,159.94H180.61" transform="translate(-1.01)"/><path class="cls-5" d="M18.91,184.41h261" transform="translate(-1.01)"/><g id="patch_4" data-name="patch 4"><path class="cls-4" d="M210,184.1h39.69V173.29H210Z" transform="translate(-1.01)"/></g><path class="cls-2" d="M229.87,184.5v-25" transform="translate(-1.01)"/><rect class="cls-6" x="191.4" y="0.5" width="88.5" height="59"/><g id="patch_12" data-name="patch 12"><path class="cls-4" d="M203.09,50.57h22.68v-17H203.09Z" transform="translate(-1.01)"/></g><g id="patch_13" data-name="patch 13"><rect class="cls-1" x="202.08" y="8.71" width="22.68" height="17.01"/></g><path class="cls-7" d="M73.56,200.74a2,2,0,0,1-.76,1.65,3.33,3.33,0,0,1-2.09.59,5.11,5.11,0,0,1-2.18-.41v-1.21a6,6,0,0,0,1.15.39,4.61,4.61,0,0,0,1.12.15,1.84,1.84,0,0,0,1.13-.29,1,1,0,0,0,.36-.78,1,1,0,0,0-.33-.75,5.28,5.28,0,0,0-1.38-.72,3.5,3.5,0,0,1-1.51-1,2.07,2.07,0,0,1-.45-1.34,1.92,1.92,0,0,1,.7-1.55,2.94,2.94,0,0,1,1.88-.56,5.46,5.46,0,0,1,2.24.49l-.4,1a5,5,0,0,0-1.87-.44,1.45,1.45,0,0,0-1,.27.9.9,0,0,0-.32.72,1,1,0,0,0,.13.52,1.18,1.18,0,0,0,.42.41,6.87,6.87,0,0,0,1.07.51,5.78,5.78,0,0,1,1.26.68,1.85,1.85,0,0,1,.59.7A2,2,0,0,1,73.56,200.74Z" transform="translate(-1.01)"/><path class="cls-7" d="M79.14,202.88,79,202.1h-.07a1.81,1.81,0,0,1-.74.65A2.65,2.65,0,0,1,77,203a2.2,2.2,0,0,1-1.61-.53,2.23,2.23,0,0,1-.54-1.63v-3.89h1.28v3.67a1.57,1.57,0,0,0,.28,1,1,1,0,0,0,.87.34,1.42,1.42,0,0,0,1.17-.47,2.64,2.64,0,0,0,.37-1.6v-3h1.27v5.95Z" transform="translate(-1.01)"/><path class="cls-7" d="M84.33,203a2.6,2.6,0,0,1-2-.78,4,4,0,0,1,0-4.57,2.74,2.74,0,0,1,2.12-.8,3.87,3.87,0,0,1,1.69.35l-.38,1a3.82,3.82,0,0,0-1.32-.31c-1,0-1.54.68-1.54,2.05a2.44,2.44,0,0,0,.38,1.5,1.34,1.34,0,0,0,1.12.5,3.21,3.21,0,0,0,1.6-.42v1.1a2.79,2.79,0,0,1-.72.29A5,5,0,0,1,84.33,203Z" transform="translate(-1.01)"/><path class="cls-7" d="M89.77,203a2.62,2.62,0,0,1-2-.78,3.29,3.29,0,0,1-.7-2.26,3.37,3.37,0,0,1,.73-2.31,2.75,2.75,0,0,1,2.12-.8,3.92,3.92,0,0,1,1.7.35l-.39,1a3.73,3.73,0,0,0-1.32-.31c-1,0-1.54.68-1.54,2.05a2.44,2.44,0,0,0,.39,1.5,1.33,1.33,0,0,0,1.12.5,3.27,3.27,0,0,0,1.6-.42v1.1a2.72,2.72,0,0,1-.73.29A4.8,4.8,0,0,1,89.77,203Z" transform="translate(-1.01)"/><path class="cls-7" d="M95.42,203a2.87,2.87,0,0,1-2.17-.81,3.05,3.05,0,0,1-.78-2.22,3.38,3.38,0,0,1,.72-2.29,2.5,2.5,0,0,1,2-.83,2.45,2.45,0,0,1,1.85.71,2.72,2.72,0,0,1,.69,2v.68h-4a2,2,0,0,0,.46,1.33,1.65,1.65,0,0,0,1.25.46,4.4,4.4,0,0,0,1-.1,4.45,4.45,0,0,0,1-.33v1a3.77,3.77,0,0,1-.93.31A5.89,5.89,0,0,1,95.42,203Zm-.23-5.2a1.27,1.27,0,0,0-1,.39,1.82,1.82,0,0,0-.43,1.11h2.7a1.67,1.67,0,0,0-.36-1.12A1.21,1.21,0,0,0,95.19,197.78Z" transform="translate(-1.01)"/><path class="cls-7" d="M103.15,201.18a1.57,1.57,0,0,1-.63,1.34,3.06,3.06,0,0,1-1.82.46,4.34,4.34,0,0,1-1.91-.36v-1.09a4.75,4.75,0,0,0,1.95.49c.78,0,1.17-.24,1.17-.71a.52.52,0,0,0-.13-.37,1.38,1.38,0,0,0-.42-.31,7.74,7.74,0,0,0-.82-.37,3.74,3.74,0,0,1-1.39-.8,1.46,1.46,0,0,1-.37-1,1.35,1.35,0,0,1,.62-1.18,2.93,2.93,0,0,1,1.67-.42,4.75,4.75,0,0,1,2,.42l-.4.95a4.57,4.57,0,0,0-1.62-.4c-.67,0-1,.2-1,.57a.59.59,0,0,0,.26.48,5.73,5.73,0,0,0,1.14.53,5.33,5.33,0,0,1,1.07.52,1.65,1.65,0,0,1,.49.54A1.58,1.58,0,0,1,103.15,201.18Z" transform="translate(-1.01)"/><path class="cls-7" d="M108.51,201.18a1.58,1.58,0,0,1-.64,1.34,3,3,0,0,1-1.81.46,4.31,4.31,0,0,1-1.91-.36v-1.09a4.75,4.75,0,0,0,1.95.49c.78,0,1.17-.24,1.17-.71a.57.57,0,0,0-.13-.37,1.45,1.45,0,0,0-.43-.31,6.9,6.9,0,0,0-.82-.37,3.83,3.83,0,0,1-1.39-.8,1.45,1.45,0,0,1-.36-1,1.34,1.34,0,0,1,.61-1.18,2.94,2.94,0,0,1,1.68-.42,4.79,4.79,0,0,1,2,.42l-.41.95a4.52,4.52,0,0,0-1.62-.4c-.66,0-1,.2-1,.57a.58.58,0,0,0,.27.48,5.85,5.85,0,0,0,1.13.53,5.07,5.07,0,0,1,1.07.52,1.55,1.55,0,0,1,.49.54A1.58,1.58,0,0,1,108.51,201.18Z" transform="translate(-1.01)"/><path class="cls-7" d="M3,137.05a5,5,0,0,1,1.27.18,4.27,4.27,0,0,1,1.17.44,2.25,2.25,0,0,1,.74.65,1.46,1.46,0,0,1,.26.84,1.1,1.1,0,0,1-.4.91,1.82,1.82,0,0,1-1.18.33,5.37,5.37,0,0,1-1.71-.27,2.79,2.79,0,0,1-1.23-.73,1.6,1.6,0,0,1-.41-1.08,1.15,1.15,0,0,1,.39-.94A1.64,1.64,0,0,1,3,137.05Zm-1.38-3.63,7.86,5.83v.81l-7.86-5.83Zm.56,5a.87.87,0,0,0,.34.64,2.65,2.65,0,0,0,1,.45,5,5,0,0,0,1.31.17c.61,0,.92-.19.92-.57a.73.73,0,0,0-.21-.51,1.74,1.74,0,0,0-.62-.39,4.92,4.92,0,0,0-.93-.27,4.93,4.93,0,0,0-.93-.1C2.43,137.81,2.13,138,2.13,138.39Zm4-5.32a5.56,5.56,0,0,1,1.27.17,4.94,4.94,0,0,1,1.17.44,2.36,2.36,0,0,1,.74.65,1.44,1.44,0,0,1,.26.84,1.11,1.11,0,0,1-.4.92,1.79,1.79,0,0,1-1.17.33,5.48,5.48,0,0,1-1.72-.27A2.81,2.81,0,0,1,5,135.42a1.55,1.55,0,0,1-.41-1.08A1.17,1.17,0,0,1,5,133.4,1.66,1.66,0,0,1,6.09,133.07Zm-.81,1.34a.8.8,0,0,0,.35.64,2.57,2.57,0,0,0,1,.45,5.32,5.32,0,0,0,1.29.17q.93,0,.93-.57a.82.82,0,0,0-.35-.63A2.76,2.76,0,0,0,7.44,134a4.89,4.89,0,0,0-1.27-.19C5.58,133.82,5.28,134,5.28,134.41Z" transform="translate(-1.01)"/><path class="cls-7" d="M3.46,126.27a2.16,2.16,0,0,1,.61-1.61,2.25,2.25,0,0,1,1.66-.59,4.93,4.93,0,0,1,1.91.38,3.26,3.26,0,0,1,1.38,1A2.42,2.42,0,0,1,9.51,127a2.16,2.16,0,0,1-.6,1.62,2.31,2.31,0,0,1-1.66.59,4.78,4.78,0,0,1-1.92-.4A3.26,3.26,0,0,1,4,127.75,2.44,2.44,0,0,1,3.46,126.27ZM5.61,125a1.43,1.43,0,0,0-1,.34,1.12,1.12,0,0,0-.39.91,1.55,1.55,0,0,0,.4,1,2.52,2.52,0,0,0,1.1.72,4.62,4.62,0,0,0,1.57.25,1.58,1.58,0,0,0,1.09-.34,1.23,1.23,0,0,0,.39-1,1.48,1.48,0,0,0-.4-1,2.56,2.56,0,0,0-1.11-.7A4.93,4.93,0,0,0,5.61,125Z" transform="translate(-1.01)"/><path class="cls-7" d="M12.07,124.11a2,2,0,0,1-.11.67H11.2a1.87,1.87,0,0,0,.12-.6.71.71,0,0,0-.34-.63,2.71,2.71,0,0,0-1-.35L4.22,122v1l-.36-.07-.35-1.1L3,121.71A3.17,3.17,0,0,1,1.45,121a1.78,1.78,0,0,1-.44-1.3,2.76,2.76,0,0,1,.06-.52,2.49,2.49,0,0,1,.14-.49l.69.23a2.16,2.16,0,0,0-.15.74.94.94,0,0,0,.26.72,2.08,2.08,0,0,0,1,.4l.58.14v-1.28l.68.13v1.27l5.9,1.25a3.15,3.15,0,0,1,1.48.64A1.53,1.53,0,0,1,12.07,124.11Z" transform="translate(-1.01)"/><path class="cls-7" d="M9.53,114.32a1.68,1.68,0,0,1-.26.92,1.7,1.7,0,0,1-.76.6v.06l.21,0,.37,0,3,.62v.89l-8.53-1.8v-.75l1.12.14v0a2.65,2.65,0,0,1-1.22-2A1.41,1.41,0,0,1,4,111.87a2.28,2.28,0,0,1,1.47-.43,5.88,5.88,0,0,1,2.09.37,3.45,3.45,0,0,1,1.47,1A2.26,2.26,0,0,1,9.53,114.32Zm-5.34-1a1.57,1.57,0,0,0,.51,1.06,3.75,3.75,0,0,0,1.28.84,4.22,4.22,0,0,0,1.59.32,1.25,1.25,0,0,0,.9-.3,1.14,1.14,0,0,0,.32-.86,1.4,1.4,0,0,0-.44-1,2.93,2.93,0,0,0-1.24-.74,5,5,0,0,0-1.7-.28C4.6,112.37,4.19,112.69,4.19,113.32Z" transform="translate(-1.01)"/><path class="cls-7" d="M3.43,107.47a1.5,1.5,0,0,1,.27-.88,1.7,1.7,0,0,1,.76-.6v-.06l-.92-.36v-.68l5.89,1.25v.71l-1.13-.14v.05a2.64,2.64,0,0,1,1.23,2A1.39,1.39,0,0,1,9,110a2.28,2.28,0,0,1-1.45.43A5.46,5.46,0,0,1,5.47,110a3.62,3.62,0,0,1-1.5-1A2.3,2.3,0,0,1,3.43,107.47Zm5.36,1a1.54,1.54,0,0,0-.5-1A3.64,3.64,0,0,0,7,106.62a4.21,4.21,0,0,0-1.6-.33,1.25,1.25,0,0,0-.88.3,1,1,0,0,0-.33.79,1.46,1.46,0,0,0,.46,1,3.15,3.15,0,0,0,1.25.76,5.13,5.13,0,0,0,1.67.27,1.37,1.37,0,0,0,.91-.25A.86.86,0,0,0,8.79,108.49Z" transform="translate(-1.01)"/><path class="cls-7" d="M3.43,100.65a2.51,2.51,0,0,1,.08-.65l.8.2a2.77,2.77,0,0,0-.07.56,1.48,1.48,0,0,0,.33.92,2.77,2.77,0,0,0,.89.74,4.28,4.28,0,0,0,1.27.47l2.7.58v.9l-5.89-1.26v-.74l1.09.12v-.06a4.78,4.78,0,0,1-.73-.64,2,2,0,0,1-.35-.53A1.51,1.51,0,0,1,3.43,100.65Z" transform="translate(-1.01)"/><path class="cls-7" d="M8.8,98.21a3,3,0,0,0-.14-.77h.69a2.77,2.77,0,0,1,.13.45,2,2,0,0,1,0,.43,1.46,1.46,0,0,1-.32,1,1.23,1.23,0,0,1-1,.35,4.08,4.08,0,0,1-.8-.09l-3.24-.69v.93l-.39-.08-.42-1-1.22-.67v-.53l1.35.3V96.41l.68.13V98l3.25.69a3.38,3.38,0,0,0,.7.1.62.62,0,0,0,.47-.16A.58.58,0,0,0,8.8,98.21Z" transform="translate(-1.01)"/><path class="cls-7" d="M2,94.94a.74.74,0,0,1-.5-.17.62.62,0,0,1-.19-.45c0-.31.16-.47.49-.47a.75.75,0,0,1,.5.18.56.56,0,0,1,.2.42.48.48,0,0,1-.13.35A.5.5,0,0,1,2,94.94Zm7.39.61v.9L3.54,95.19v-.9Z" transform="translate(-1.01)"/><path class="cls-7" d="M9.53,91.25A2.19,2.19,0,0,1,9,92.87a2.2,2.2,0,0,1-1.62.58,4.93,4.93,0,0,1-2-.4A3.38,3.38,0,0,1,3.94,92a2.62,2.62,0,0,1-.51-1.58,3.8,3.8,0,0,1,.28-1.44l.75.26a3.07,3.07,0,0,0-.27,1.17,1.71,1.71,0,0,0,.41,1.1,2.82,2.82,0,0,0,1.14.78,4.37,4.37,0,0,0,1.6.28,1.52,1.52,0,0,0,1.07-.36,1.27,1.27,0,0,0,.38-1,2.48,2.48,0,0,0-.11-.73c-.07-.23-.16-.46-.25-.68H9.2A3.31,3.31,0,0,1,9.53,91.25Z" transform="translate(-1.01)"/><path class="cls-7" d="M2,87.19a.69.69,0,0,1-.5-.17.58.58,0,0,1-.19-.44.43.43,0,0,1,.49-.48.75.75,0,0,1,.5.18.56.56,0,0,1,.2.42.48.48,0,0,1-.13.35A.46.46,0,0,1,2,87.19Zm7.39.61v.9L3.54,87.45v-.91Z" transform="translate(-1.01)"/><path class="cls-7" d="M9.53,83.3a1.62,1.62,0,0,1-.26.91,1.72,1.72,0,0,1-.76.61v.05l.21,0,.37.06c.16,0,1.16.23,3,.62v.89L3.54,84.65v-.74l1.12.14v0a2.63,2.63,0,0,1-1.22-2A1.4,1.4,0,0,1,4,80.85a2.22,2.22,0,0,1,1.47-.43,5.67,5.67,0,0,1,2.09.37,3.45,3.45,0,0,1,1.47,1A2.24,2.24,0,0,1,9.53,83.3Zm-5.34-1a1.57,1.57,0,0,0,.51,1A3.63,3.63,0,0,0,6,84.2a4.21,4.21,0,0,0,1.59.31,1.25,1.25,0,0,0,.9-.3,1.11,1.11,0,0,0,.32-.86,1.44,1.44,0,0,0-.44-1,3.14,3.14,0,0,0-1.24-.74,5.27,5.27,0,0,0-1.7-.28C4.6,81.34,4.19,81.66,4.19,82.3Z" transform="translate(-1.01)"/><path class="cls-7" d="M3.43,76.45a1.48,1.48,0,0,1,.27-.88A1.79,1.79,0,0,1,4.46,75V74.9l-.92-.36v-.68l5.89,1.25v.72L8.3,75.69v0a2.65,2.65,0,0,1,1.23,2A1.42,1.42,0,0,1,9,78.93a2.27,2.27,0,0,1-1.45.42A5.66,5.66,0,0,1,5.47,79a3.62,3.62,0,0,1-1.5-1A2.3,2.3,0,0,1,3.43,76.45Zm5.36,1a1.52,1.52,0,0,0-.5-1A3.8,3.8,0,0,0,7,75.59a4.39,4.39,0,0,0-1.6-.32,1.25,1.25,0,0,0-.88.3,1,1,0,0,0-.33.79,1.47,1.47,0,0,0,.46,1,3.14,3.14,0,0,0,1.25.75,4.88,4.88,0,0,0,1.67.28,1.43,1.43,0,0,0,.91-.25A.86.86,0,0,0,8.79,77.47Z" transform="translate(-1.01)"/><path class="cls-7" d="M9.43,69.75,5.71,69a4.79,4.79,0,0,0-.77-.1.77.77,0,0,0-.55.19.81.81,0,0,0-.2.61,1.63,1.63,0,0,0,.32.93,2.92,2.92,0,0,0,.92.8,4.93,4.93,0,0,0,1.45.52l2.55.55v.9L3.54,72.09v-.75l1.09.12v0a3.65,3.65,0,0,1-.93-1,2,2,0,0,1-.27-1,1.54,1.54,0,0,1,.37-1.08,1.39,1.39,0,0,1,1-.4,4.06,4.06,0,0,1,1,.13l3.61.77Z" transform="translate(-1.01)"/><path class="cls-7" d="M8.8,65.19a3.08,3.08,0,0,0-.14-.77h.69a2.77,2.77,0,0,1,.13.45,2,2,0,0,1,0,.43,1.46,1.46,0,0,1-.32,1,1.2,1.2,0,0,1-1,.36,4.15,4.15,0,0,1-.8-.1l-3.24-.68v.92l-.39-.07-.42-1-1.22-.67v-.52l1.35.29V63.39l.68.14V65l3.25.69a4.25,4.25,0,0,0,.7.1.67.67,0,0,0,.47-.16A.61.61,0,0,0,8.8,65.19Z" transform="translate(-1.01)"/><path class="cls-7" d="M7.76,59.8a1.58,1.58,0,0,1,1.3.59,2.62,2.62,0,0,1,.47,1.68,3.56,3.56,0,0,1-.37,1.64H8.31a3.17,3.17,0,0,0,.35-.82,2.62,2.62,0,0,0,.13-.8,1.63,1.63,0,0,0-.27-1,.84.84,0,0,0-.69-.35.76.76,0,0,0-.51.19,3.88,3.88,0,0,0-.58.81,3.17,3.17,0,0,1-.77,1,1.38,1.38,0,0,1-.89.29,1.48,1.48,0,0,1-1.19-.54A2.12,2.12,0,0,1,3.43,61a4.08,4.08,0,0,1,.4-1.77l.74.29-.14.3A3.06,3.06,0,0,0,4.2,61a1.26,1.26,0,0,0,.23.79A.75.75,0,0,0,5,62.1a.72.72,0,0,0,.51-.19,3.31,3.31,0,0,0,.56-.79,4.36,4.36,0,0,1,.55-.82,1.62,1.62,0,0,1,.5-.38A1.4,1.4,0,0,1,7.76,59.8Z" transform="translate(-1.01)"/><path class="cls-7" d="M237.74,16.48a3.59,3.59,0,0,1-1,2.7,3.81,3.81,0,0,1-2.76.94h-2V13h2.18a3.48,3.48,0,0,1,2.59.92A3.46,3.46,0,0,1,237.74,16.48Zm-.88,0a2.93,2.93,0,0,0-.7-2.11,2.83,2.83,0,0,0-2.09-.71h-1.2V19.4h1a3.1,3.1,0,0,0,2.23-.73A2.89,2.89,0,0,0,236.86,16.51Z" transform="translate(-1.01)"/><path class="cls-7" d="M241.47,20.21a2.49,2.49,0,0,1-1.88-.72,2.83,2.83,0,0,1-.68-2,3.12,3.12,0,0,1,.63-2.05,2.13,2.13,0,0,1,1.72-.76,2,2,0,0,1,1.59.66,2.52,2.52,0,0,1,.58,1.74v.52h-3.68a2.12,2.12,0,0,0,.47,1.43,1.69,1.69,0,0,0,1.28.48,4.38,4.38,0,0,0,1.71-.36v.73a4.28,4.28,0,0,1-.82.26A4.09,4.09,0,0,1,241.47,20.21Zm-.22-4.87a1.35,1.35,0,0,0-1,.42,1.89,1.89,0,0,0-.45,1.17h2.79a1.79,1.79,0,0,0-.34-1.18A1.19,1.19,0,0,0,241.25,15.34Z" transform="translate(-1.01)"/><path class="cls-7" d="M248.27,18.66a1.35,1.35,0,0,1-.56,1.15,2.61,2.61,0,0,1-1.56.4,3.46,3.46,0,0,1-1.66-.33v-.76a3.74,3.74,0,0,0,.83.31,3.15,3.15,0,0,0,.85.11,1.85,1.85,0,0,0,1-.2.67.67,0,0,0,.35-.62.68.68,0,0,0-.27-.53,4.57,4.57,0,0,0-1.06-.53,5.26,5.26,0,0,1-1.06-.48,1.5,1.5,0,0,1-.47-.47,1.28,1.28,0,0,1-.16-.63,1.21,1.21,0,0,1,.54-1,2.48,2.48,0,0,1,1.46-.37,4.2,4.2,0,0,1,1.69.35l-.29.66a4,4,0,0,0-1.46-.34,1.65,1.65,0,0,0-.87.19.54.54,0,0,0-.29.49.56.56,0,0,0,.11.37,1.06,1.06,0,0,0,.35.29,7.28,7.28,0,0,0,.94.39,3.52,3.52,0,0,1,1.28.7A1.22,1.22,0,0,1,248.27,18.66Z" transform="translate(-1.01)"/><path class="cls-7" d="M250.39,17.38a9.72,9.72,0,0,1,.64-.79l1.73-1.83h1L251.55,17l2.32,3.08h-1L251,17.59l-.61.52v2h-.8v-7.6h.8v4c0,.18,0,.45,0,.83Z" transform="translate(-1.01)"/><path class="cls-7" d="M256.56,19.54a2.77,2.77,0,0,0,.42,0l.32-.06v.62a1.8,1.8,0,0,1-.39.1,2.68,2.68,0,0,1-.46,0c-1,0-1.56-.54-1.56-1.63V15.39h-.76V15l.76-.33.35-1.15h.47v1.24h1.55v.63h-1.55v3.15a1.12,1.12,0,0,0,.22.75A.82.82,0,0,0,256.56,19.54Z" transform="translate(-1.01)"/><path class="cls-7" d="M263,17.43a3,3,0,0,1-.65,2.05,2.33,2.33,0,0,1-1.83.73,2.45,2.45,0,0,1-1.27-.33,2.26,2.26,0,0,1-.86-1,3.4,3.4,0,0,1-.3-1.48,3,3,0,0,1,.65-2,2.31,2.31,0,0,1,1.82-.73,2.27,2.27,0,0,1,1.78.74A2.94,2.94,0,0,1,263,17.43Zm-4.07,0a2.51,2.51,0,0,0,.41,1.57,1.4,1.4,0,0,0,1.2.53,1.42,1.42,0,0,0,1.21-.53,2.51,2.51,0,0,0,.41-1.57,2.47,2.47,0,0,0-.41-1.55,1.45,1.45,0,0,0-1.22-.53,1.43,1.43,0,0,0-1.2.53A2.52,2.52,0,0,0,258.91,17.43Z" transform="translate(-1.01)"/><path class="cls-7" d="M266.9,20.21a2.32,2.32,0,0,1-1-.19,1.79,1.79,0,0,1-.72-.59h-.06a7,7,0,0,1,.06.89v2.2h-.81V14.76h.65l.12.74h0a1.81,1.81,0,0,1,.72-.64,2.25,2.25,0,0,1,1-.19,2,2,0,0,1,1.64.72,3.26,3.26,0,0,1,.58,2,3.19,3.19,0,0,1-.59,2.05A2,2,0,0,1,266.9,20.21Zm-.12-4.86a1.46,1.46,0,0,0-1.19.46,2.3,2.3,0,0,0-.37,1.44v.18a2.71,2.71,0,0,0,.37,1.62,1.45,1.45,0,0,0,1.21.48,1.23,1.23,0,0,0,1.08-.56,2.6,2.6,0,0,0,.4-1.55,2.51,2.51,0,0,0-.4-1.53A1.28,1.28,0,0,0,266.78,15.35Z" transform="translate(-1.01)"/><path class="cls-7" d="M235.2,45.12l-2.42-6.33h0c0,.5.06,1.09.06,1.78v4.55H232V38h1.25l2.26,5.89h0L237.87,38h1.24v7.14h-.83v-4.6c0-.53,0-1.1.07-1.72h0l-2.44,6.32Z" transform="translate(-1.01)"/><path class="cls-7" d="M245.56,42.43a3,3,0,0,1-.66,2,2.31,2.31,0,0,1-1.82.73,2.43,2.43,0,0,1-1.27-.33,2.26,2.26,0,0,1-.86-1,3.4,3.4,0,0,1-.3-1.48,2.9,2.9,0,0,1,.65-2,2.31,2.31,0,0,1,1.82-.73,2.27,2.27,0,0,1,1.78.74A2.94,2.94,0,0,1,245.56,42.43Zm-4.07,0A2.51,2.51,0,0,0,241.9,44a1.4,1.4,0,0,0,1.2.53,1.42,1.42,0,0,0,1.21-.53,2.51,2.51,0,0,0,.41-1.57,2.47,2.47,0,0,0-.41-1.55,1.45,1.45,0,0,0-1.22-.53,1.43,1.43,0,0,0-1.2.53A2.52,2.52,0,0,0,241.49,42.43Z" transform="translate(-1.01)"/><path class="cls-7" d="M249.47,39.68a2,2,0,0,1,1.64.72,3.15,3.15,0,0,1,.59,2,3.19,3.19,0,0,1-.59,2,2,2,0,0,1-1.64.73,2.3,2.3,0,0,1-.95-.19,1.89,1.89,0,0,1-.73-.59h0l-.18.69H247v-7.6h.81v1.84c0,.42,0,.79,0,1.12h0A1.92,1.92,0,0,1,249.47,39.68Zm-.11.67a1.4,1.4,0,0,0-1.2.48,2.71,2.71,0,0,0-.37,1.6,2.7,2.7,0,0,0,.38,1.62,1.44,1.44,0,0,0,1.21.48,1.24,1.24,0,0,0,1.11-.54,2.82,2.82,0,0,0,.37-1.57,2.7,2.7,0,0,0-.37-1.55A1.3,1.3,0,0,0,249.36,40.35Z" transform="translate(-1.01)"/><path class="cls-7" d="M253,38.31a.52.52,0,0,1,.14-.4.45.45,0,0,1,.34-.13.48.48,0,0,1,.34.13.54.54,0,0,1,.14.4.55.55,0,0,1-.14.41.49.49,0,0,1-.34.14.46.46,0,0,1-.34-.14A.55.55,0,0,1,253,38.31Zm.88,6.81h-.81V39.76h.81Z" transform="translate(-1.01)"/><path class="cls-7" d="M256.45,45.12h-.81v-7.6h.81Z" transform="translate(-1.01)"/><path class="cls-7" d="M260.43,45.21a2.46,2.46,0,0,1-1.87-.72,2.79,2.79,0,0,1-.69-2,3.07,3.07,0,0,1,.64-2,2.09,2.09,0,0,1,1.71-.76,2,2,0,0,1,1.59.66,2.53,2.53,0,0,1,.59,1.74v.52h-3.69a2.17,2.17,0,0,0,.48,1.43,1.65,1.65,0,0,0,1.27.48,4.3,4.3,0,0,0,1.71-.36v.73a4.43,4.43,0,0,1-.81.26A4.24,4.24,0,0,1,260.43,45.21Zm-.22-4.87a1.37,1.37,0,0,0-1,.42,2,2,0,0,0-.45,1.17h2.8a1.79,1.79,0,0,0-.34-1.18A1.22,1.22,0,0,0,260.21,40.34Z" transform="translate(-1.01)"/><path class="cls-7" d="M207.61,202.88h-1.28V195h4.44v1.09h-3.16v2.45h3v1.09h-3Z" transform="translate(-1.01)"/><path class="cls-7" d="M215.77,202.88l-.25-.83h0a2.49,2.49,0,0,1-.87.74,2.75,2.75,0,0,1-1.12.19,1.86,1.86,0,0,1-1.36-.47,1.76,1.76,0,0,1-.5-1.34,1.56,1.56,0,0,1,.69-1.38,3.93,3.93,0,0,1,2.08-.51l1,0v-.31a1.22,1.22,0,0,0-.26-.85,1.1,1.1,0,0,0-.83-.29,2.83,2.83,0,0,0-.87.14,5.68,5.68,0,0,0-.81.32l-.41-.91a4.44,4.44,0,0,1,1.06-.38,4.67,4.67,0,0,1,1.08-.13,2.59,2.59,0,0,1,1.72.49,2,2,0,0,1,.57,1.55v4Zm-1.88-.86a1.52,1.52,0,0,0,1.1-.39,1.37,1.37,0,0,0,.42-1.08V200l-.76,0a2.56,2.56,0,0,0-1.3.3.9.9,0,0,0-.4.81.79.79,0,0,0,.23.62A1.06,1.06,0,0,0,213.89,202Z" transform="translate(-1.01)"/><path class="cls-7" d="M218.36,195.36a.71.71,0,0,1,.18-.52.76.76,0,0,1,.53-.18.7.7,0,0,1,.52.18.68.68,0,0,1,.19.52.66.66,0,0,1-.19.51.7.7,0,0,1-.52.18.76.76,0,0,1-.53-.18A.69.69,0,0,1,218.36,195.36Zm1.34,7.52h-1.26v-5.95h1.26Z" transform="translate(-1.01)"/><path class="cls-7" d="M222.76,202.88H221.5v-8.36h1.26Z" transform="translate(-1.01)"/><path class="cls-8" d="M60.81,77a3,3,0,0,1,1.93.56A1.81,1.81,0,0,1,63.45,79a2.36,2.36,0,0,1-1.59,2.1,4.16,4.16,0,0,1,1.44,1.06,2,2,0,0,1,.42,1.25,2.07,2.07,0,0,1-.78,1.69,3.2,3.2,0,0,1-2.11.64,3.49,3.49,0,0,1-2.16-.59,2,2,0,0,1-.77-1.7,2.23,2.23,0,0,1,.4-1.28,3.35,3.35,0,0,1,1.32-1,3.27,3.27,0,0,1-1.12-1A2.15,2.15,0,0,1,58.17,79a1.77,1.77,0,0,1,.73-1.49A3.07,3.07,0,0,1,60.81,77Zm-1.59,6.46a1.11,1.11,0,0,0,.43.94,2.14,2.14,0,0,0,2.33,0,1.17,1.17,0,0,0,.42-.95,1.23,1.23,0,0,0-.38-.86,3.47,3.47,0,0,0-1.18-.73l-.17-.08a3.14,3.14,0,0,0-1.11.75A1.4,1.4,0,0,0,59.22,83.42ZM60.8,78a1.49,1.49,0,0,0-.95.29,1,1,0,0,0-.35.79,1.19,1.19,0,0,0,.12.54,1.56,1.56,0,0,0,.38.44,4.22,4.22,0,0,0,.83.47,2.87,2.87,0,0,0,1-.65,1.23,1.23,0,0,0,.29-.8,1,1,0,0,0-.36-.79A1.5,1.5,0,0,0,60.8,78Z" transform="translate(-1.01)"/><path class="cls-8" d="M70.57,81.35a6.08,6.08,0,0,1-.72,3.32,2.71,2.71,0,0,1-4.36,0,6,6,0,0,1-.74-3.28A6.11,6.11,0,0,1,65.47,78a2.45,2.45,0,0,1,2.19-1.08,2.43,2.43,0,0,1,2.17,1.13A6,6,0,0,1,70.57,81.35Zm-4.42,0a6.23,6.23,0,0,0,.36,2.5,1.2,1.2,0,0,0,1.15.75,1.21,1.21,0,0,0,1.16-.76,8.79,8.79,0,0,0,0-5,1.22,1.22,0,0,0-1.16-.77,1.2,1.2,0,0,0-1.15.75A6.32,6.32,0,0,0,66.15,81.35Z" transform="translate(-1.01)"/><path class="cls-8" d="M75.36,79.62a3.52,3.52,0,0,1-.48,2,1.66,1.66,0,0,1-1.43.68,1.59,1.59,0,0,1-1.38-.7,3.47,3.47,0,0,1-.49-2c0-1.78.62-2.67,1.87-2.67a1.63,1.63,0,0,1,1.41.69A3.36,3.36,0,0,1,75.36,79.62Zm-2.64,0a3.84,3.84,0,0,0,.17,1.3.58.58,0,0,0,.56.42c.51,0,.77-.57.77-1.72s-.26-1.73-.77-1.73a.58.58,0,0,0-.56.42A3.87,3.87,0,0,0,72.72,79.64Zm6.48-2.57-4.76,8.57H73.31l4.75-8.57Zm1.74,6a3.48,3.48,0,0,1-.49,2,1.65,1.65,0,0,1-1.42.67,1.6,1.6,0,0,1-1.38-.69,3.42,3.42,0,0,1-.49-2c0-1.79.62-2.68,1.87-2.68a1.66,1.66,0,0,1,1.41.69A3.38,3.38,0,0,1,80.94,83.06Zm-2.64,0a3.8,3.8,0,0,0,.17,1.3.59.59,0,0,0,.56.44c.51,0,.77-.58.77-1.74s-.26-1.72-.77-1.72a.59.59,0,0,0-.56.42A3.8,3.8,0,0,0,78.3,83.06Z" transform="translate(-1.01)"/><path class="cls-7" d="M107.71,57.73a5.87,5.87,0,0,1-1,3.77,3.71,3.71,0,0,1-3.07,1.25,4.9,4.9,0,0,1-1.12-.09V61.5a3.81,3.81,0,0,0,1,.15,2.69,2.69,0,0,0,2.08-.75,3.59,3.59,0,0,0,.75-2.35h-.07a2.09,2.09,0,0,1-.84.76,2.66,2.66,0,0,1-1.14.23,2.28,2.28,0,0,1-1.79-.71,2.77,2.77,0,0,1-.65-1.94,3,3,0,0,1,.75-2.14A2.71,2.71,0,0,1,104.7,54a2.87,2.87,0,0,1,1.59.44,2.92,2.92,0,0,1,1,1.3A5,5,0,0,1,107.71,57.73Zm-3-2.63a1.35,1.35,0,0,0-1.1.47,2,2,0,0,0-.38,1.31A1.72,1.72,0,0,0,103.6,58a1.32,1.32,0,0,0,1.07.42,1.72,1.72,0,0,0,1.18-.42,1.28,1.28,0,0,0,.47-1,2.45,2.45,0,0,0-.2-1,1.87,1.87,0,0,0-.57-.72A1.41,1.41,0,0,0,104.72,55.1Z" transform="translate(-1.01)"/><path class="cls-7" d="M114.88,60.77h-1.16v1.87h-1.34V60.77h-3.92V59.71l3.92-5.66h1.34v5.57h1.16Zm-2.5-1.15V57.47c0-.76,0-1.39.06-1.88h0a7.12,7.12,0,0,1-.51.94l-2.13,3.09Z" transform="translate(-1.01)"/><path class="cls-7" d="M119.36,56.62a3.52,3.52,0,0,1-.48,2,1.66,1.66,0,0,1-1.43.68,1.59,1.59,0,0,1-1.38-.7,3.47,3.47,0,0,1-.49-2c0-1.78.62-2.67,1.87-2.67a1.63,1.63,0,0,1,1.41.69A3.36,3.36,0,0,1,119.36,56.62Zm-2.64,0a3.84,3.84,0,0,0,.17,1.3.58.58,0,0,0,.56.42c.51,0,.77-.57.77-1.72s-.26-1.73-.77-1.73a.58.58,0,0,0-.56.42A3.87,3.87,0,0,0,116.72,56.64Zm6.48-2.57-4.76,8.57h-1.13l4.75-8.57Zm1.74,6a3.48,3.48,0,0,1-.49,2,1.65,1.65,0,0,1-1.42.67,1.6,1.6,0,0,1-1.38-.69,3.42,3.42,0,0,1-.49-2c0-1.79.62-2.68,1.87-2.68a1.66,1.66,0,0,1,1.41.69A3.38,3.38,0,0,1,124.94,60.06Zm-2.64,0a3.8,3.8,0,0,0,.17,1.3.59.59,0,0,0,.56.44c.51,0,.77-.58.77-1.74s-.26-1.72-.77-1.72a.59.59,0,0,0-.56.42A3.8,3.8,0,0,0,122.3,60.06Z" transform="translate(-1.01)"/><path class="cls-7" d="M180.59,127.64h-5.8v-1l2.2-2.22a17.08,17.08,0,0,0,1.3-1.42,3.56,3.56,0,0,0,.47-.79,2.05,2.05,0,0,0,.14-.79,1.18,1.18,0,0,0-.35-.91,1.34,1.34,0,0,0-1-.34,2.41,2.41,0,0,0-1,.19,4.46,4.46,0,0,0-1.06.65l-.75-.91a4.91,4.91,0,0,1,1.39-.85,4,4,0,0,1,1.44-.25,2.8,2.8,0,0,1,1.91.62,2.12,2.12,0,0,1,.72,1.68,2.91,2.91,0,0,1-.21,1.1,4.37,4.37,0,0,1-.63,1.08,16.27,16.27,0,0,1-1.44,1.49l-1.48,1.44v.06h4.06Z" transform="translate(-1.01)"/><path class="cls-7" d="M187.44,123.35a6.08,6.08,0,0,1-.72,3.32,2.71,2.71,0,0,1-4.36,0,6,6,0,0,1-.74-3.28,6.11,6.11,0,0,1,.72-3.34,2.45,2.45,0,0,1,2.19-1.08,2.43,2.43,0,0,1,2.17,1.13A6,6,0,0,1,187.44,123.35Zm-4.42,0a6.23,6.23,0,0,0,.36,2.5,1.2,1.2,0,0,0,1.15.75,1.21,1.21,0,0,0,1.16-.76,8.79,8.79,0,0,0,0-5,1.22,1.22,0,0,0-1.16-.77,1.2,1.2,0,0,0-1.15.75A6.32,6.32,0,0,0,183,123.35Z" transform="translate(-1.01)"/><path class="cls-7" d="M192.23,121.62a3.43,3.43,0,0,1-.49,2,1.63,1.63,0,0,1-1.42.68,1.59,1.59,0,0,1-1.38-.7,3.47,3.47,0,0,1-.49-2c0-1.78.62-2.67,1.87-2.67a1.63,1.63,0,0,1,1.41.69A3.36,3.36,0,0,1,192.23,121.62Zm-2.64,0a3.84,3.84,0,0,0,.17,1.3.59.59,0,0,0,.56.42c.51,0,.77-.57.77-1.72s-.26-1.73-.77-1.73a.59.59,0,0,0-.56.42A3.87,3.87,0,0,0,189.59,121.64Zm6.48-2.57-4.76,8.57h-1.13l4.75-8.57Zm1.74,6a3.48,3.48,0,0,1-.49,2,1.63,1.63,0,0,1-1.42.67,1.6,1.6,0,0,1-1.38-.69,3.42,3.42,0,0,1-.49-2c0-1.79.62-2.68,1.87-2.68a1.63,1.63,0,0,1,1.4.69A3.3,3.3,0,0,1,197.81,125.06Zm-2.64,0a3.8,3.8,0,0,0,.17,1.3.59.59,0,0,0,.56.44c.51,0,.77-.58.77-1.74s-.26-1.72-.77-1.72a.59.59,0,0,0-.56.42A3.8,3.8,0,0,0,195.17,125.06Z" transform="translate(-1.01)"/><path class="cls-7" d="M222.36,150c0-3.36,1.37-5,4.1-5a4.88,4.88,0,0,1,1.09.1v1.15a3.58,3.58,0,0,0-1-.13,2.67,2.67,0,0,0-2.07.74,3.58,3.58,0,0,0-.75,2.36h.07a1.87,1.87,0,0,1,.77-.73,2.41,2.41,0,0,1,1.17-.26,2.32,2.32,0,0,1,1.82.71,2.79,2.79,0,0,1,.65,1.94,2.94,2.94,0,0,1-.75,2.13,2.73,2.73,0,0,1-2.06.78,2.85,2.85,0,0,1-1.6-.44,2.76,2.76,0,0,1-1-1.29A5,5,0,0,1,222.36,150Zm3,2.63a1.35,1.35,0,0,0,1.09-.46,2,2,0,0,0,.39-1.31,1.73,1.73,0,0,0-.36-1.16,1.34,1.34,0,0,0-1.08-.42,1.74,1.74,0,0,0-.82.19,1.6,1.6,0,0,0-.6.52,1.26,1.26,0,0,0-.21.68,2.17,2.17,0,0,0,.45,1.39A1.38,1.38,0,0,0,225.35,152.62Z" transform="translate(-1.01)"/><path class="cls-7" d="M232.93,147.62a3.52,3.52,0,0,1-.48,2,1.65,1.65,0,0,1-1.43.68,1.61,1.61,0,0,1-1.38-.7,3.55,3.55,0,0,1-.49-2c0-1.78.63-2.67,1.87-2.67a1.64,1.64,0,0,1,1.42.69A3.37,3.37,0,0,1,232.93,147.62Zm-2.63,0a3.6,3.6,0,0,0,.17,1.3.57.57,0,0,0,.55.42c.52,0,.78-.57.78-1.72s-.26-1.73-.78-1.73a.57.57,0,0,0-.55.42A3.63,3.63,0,0,0,230.3,147.64Zm6.47-2.57L232,153.64h-1.14l4.75-8.57Zm1.74,6a3.4,3.4,0,0,1-.49,2,1.78,1.78,0,0,1-2.8,0,3.49,3.49,0,0,1-.49-2c0-1.79.63-2.68,1.88-2.68a1.63,1.63,0,0,1,1.4.69A3.38,3.38,0,0,1,238.51,151.06Zm-2.64,0a3.53,3.53,0,0,0,.18,1.3.59.59,0,0,0,.56.44c.51,0,.76-.58.76-1.74s-.25-1.72-.76-1.72a.58.58,0,0,0-.56.42A3.53,3.53,0,0,0,235.87,151.06Z" transform="translate(-1.01)"/></g></g></svg>