<?xml version="1.0" encoding="utf-8"?>
<!-- Generator: Adobe Illustrator 24.2.0, SVG Export Plug-In . SVG Version: 6.00 Build 0)  -->
<svg version="1.1" id="Layer_1" xmlns="http://www.w3.org/2000/svg" xmlns:xlink="http://www.w3.org/1999/xlink" x="0px" y="0px"
	 viewBox="0 0 947.9 167.4" style="enable-background:new 0 0 947.9 167.4;" xml:space="preserve">
<style type="text/css">
	.st0{fill:#4569A0;}
	.st1{fill:#FFD964;}
	.st2{fill:#99ADCB;}
	.st3{enable-background:new    ;}
	.st4{fill:#333333;}
	.st5{fill:none;stroke:#4569A0;stroke-width:2;stroke-linecap:round;stroke-linejoin:round;}
	.st6{fill:none;stroke:#FFD964;stroke-width:2;stroke-linecap:round;stroke-linejoin:round;}
</style>
<g id="Group_4732" transform="translate(-282.597 -1202.131)">
	<g id="Group_4235" transform="translate(2774 374.984)">
		<circle id="Ellipse_37" class="st0" cx="-2363.4" cy="872.2" r="4"/>
	</g>
	<g id="Group_4236" transform="translate(2774 374.984)">
		<path id="Person-2" class="st0" d="M-2327.5,875.3c0-4.7,4.5-8.5,10-8.5s10.1,3.8,10.1,8.5L-2327.5,875.3z M-2323.2,859.6
			c0-3.2,2.6-5.7,5.8-5.7c3.1,0,5.7,2.6,5.7,5.7c0,3.2-2.6,5.7-5.8,5.7C-2320.6,865.3-2323.1,862.8-2323.2,859.6L-2323.2,859.6z"/>
		<path id="Person-2-2" class="st0" d="M-2352.7,875.3c0-4.7,4.5-8.5,10-8.5s10.1,3.8,10.1,8.5L-2352.7,875.3z M-2348.4,859.7
			c0-3.2,2.6-5.7,5.8-5.7c3.1,0,5.7,2.6,5.7,5.7c0,3.2-2.6,5.7-5.8,5.7c0,0,0,0,0,0C-2345.8,865.3-2348.4,862.8-2348.4,859.7
			L-2348.4,859.7z"/>
	</g>
	<path id="Person-2-3" class="st1" d="M749.7,1320c0-4.7,4.5-8.5,10-8.5c5.6,0,10.1,3.8,10.1,8.5L749.7,1320z M754,1304.4
		c0-3.2,2.6-5.7,5.8-5.7c3.1,0,5.7,2.6,5.7,5.7c0,3.2-2.6,5.7-5.8,5.7C756.5,1310.1,754,1307.5,754,1304.4z"/>
	<g id="Group_4237" transform="translate(2774 374.984)">
		<path id="Person-2-4" class="st2" d="M-2276.9,875.2c0-4.7,4.5-8.5,10-8.5s10.1,3.8,10.1,8.5L-2276.9,875.2z M-2272.7,859.6
			c0-3.2,2.6-5.7,5.8-5.7c3.1,0,5.7,2.6,5.7,5.7c0,3.2-2.6,5.7-5.8,5.7C-2270.1,865.2-2272.6,862.7-2272.7,859.6L-2272.7,859.6z"/>
		<path id="Person-2-5" class="st2" d="M-2302.2,875.2c0-4.7,4.5-8.5,10-8.5s10.1,3.8,10.1,8.5L-2302.2,875.2z M-2297.9,859.6
			c0-3.2,2.6-5.7,5.8-5.7c3.1,0,5.7,2.6,5.7,5.7c0,3.2-2.6,5.7-5.8,5.7C-2295.3,865.3-2297.9,862.7-2297.9,859.6L-2297.9,859.6z"/>
		<path id="Person-2-6" class="st2" d="M-2251.7,875.2c0-4.7,4.5-8.5,10-8.5s10.1,3.8,10.1,8.5L-2251.7,875.2z M-2247.4,859.5
			c0-3.2,2.6-5.7,5.8-5.7c3.1,0,5.7,2.6,5.7,5.7c0,3.2-2.6,5.7-5.8,5.7C-2244.8,865.2-2247.4,862.7-2247.4,859.5L-2247.4,859.5z"/>
		<path id="Person-2-7" class="st2" d="M-2150.7,875c0-4.7,4.5-8.5,10-8.5s10.1,3.8,10.1,8.5L-2150.7,875z M-2146.4,859.4
			c0-3.2,2.6-5.7,5.8-5.7c3.1,0,5.7,2.6,5.7,5.7c0,3.2-2.6,5.7-5.8,5.7C-2143.8,865-2146.4,862.5-2146.4,859.4L-2146.4,859.4z"/>
		<path id="Person-2-8" class="st2" d="M-2175.9,875c0-4.7,4.5-8.5,10-8.5s10.1,3.8,10.1,8.5L-2175.9,875z M-2171.6,859.4
			c0-3.2,2.6-5.7,5.8-5.7c3.1,0,5.7,2.6,5.7,5.7c0,3.2-2.6,5.7-5.8,5.7c0,0,0,0,0,0C-2169.1,865.1-2171.6,862.6-2171.6,859.4
			L-2171.6,859.4z"/>
		<path id="Person-2-9" class="st2" d="M-2201.2,875.1c0-4.7,4.5-8.5,10-8.5s10.1,3.8,10.1,8.5L-2201.2,875.1z M-2196.9,859.5
			c0-3.2,2.6-5.7,5.8-5.7c3.1,0,5.7,2.6,5.7,5.7c0,3.2-2.6,5.7-5.8,5.7c0,0,0,0,0,0C-2194.3,865.1-2196.9,862.6-2196.9,859.5
			L-2196.9,859.5z"/>
		<path id="Person-2-10" class="st2" d="M-2226.4,875.1c0-4.7,4.5-8.5,10-8.5s10.1,3.8,10.1,8.5L-2226.4,875.1z M-2222.2,859.5
			c0-3.2,2.6-5.7,5.8-5.7c3.1,0,5.7,2.6,5.7,5.7c0,3.2-2.6,5.7-5.8,5.7C-2219.6,865.1-2222.1,862.6-2222.2,859.5L-2222.2,859.5z"/>
		<path id="Person-2-11" class="st2" d="M-2125.4,875c0-4.7,4.5-8.5,10-8.5s10.1,3.8,10.1,8.5L-2125.4,875z M-2121.1,859.4
			c0-3.2,2.6-5.7,5.8-5.7c3.1,0,5.7,2.6,5.7,5.7c0,3.2-2.6,5.7-5.8,5.7C-2118.6,865-2121.1,862.5-2121.1,859.4z"/>
		<path id="Person-2-12" class="st2" d="M-2024.4,874.8c0-4.7,4.5-8.5,10-8.5s10.1,3.8,10.1,8.5L-2024.4,874.8z M-2020.1,859.2
			c0-3.2,2.6-5.7,5.8-5.7c3.1,0,5.7,2.6,5.7,5.7c0,3.2-2.6,5.7-5.8,5.7c0,0,0,0,0,0C-2017.6,864.8-2020.1,862.3-2020.1,859.2z"/>
		<path id="Person-2-13" class="st2" d="M-2049.7,874.9c0-4.7,4.5-8.5,10-8.5s10.1,3.8,10.1,8.5L-2049.7,874.9z M-2045.4,859.2
			c0-3.2,2.6-5.7,5.8-5.7c3.1,0,5.7,2.6,5.7,5.7c0,3.2-2.6,5.7-5.8,5.7c0,0,0,0,0,0C-2042.8,864.9-2045.3,862.4-2045.4,859.2
			L-2045.4,859.2z"/>
		<path id="Person-2-14" class="st2" d="M-2074.9,874.9c0-4.7,4.5-8.5,10-8.5s10.1,3.8,10.1,8.5L-2074.9,874.9z M-2070.6,859.3
			c0-3.2,2.6-5.7,5.8-5.7c3.1,0,5.7,2.6,5.7,5.7c0,3.2-2.6,5.7-5.8,5.7C-2068.1,864.9-2070.6,862.4-2070.6,859.3L-2070.6,859.3z"/>
		<path id="Person-2-15" class="st2" d="M-2100.2,874.9c0-4.7,4.5-8.5,10-8.5s10.1,3.8,10.1,8.5L-2100.2,874.9z M-2095.9,859.3
			c0-3.2,2.6-5.7,5.8-5.7c0,0,0,0,0,0c3.1,0,5.7,2.6,5.7,5.7c0,3.2-2.6,5.7-5.8,5.7C-2093.3,865-2095.9,862.4-2095.9,859.3
			L-2095.9,859.3z"/>
		<path id="Person-2-16" class="st2" d="M-1999.2,874.8c0-4.7,4.5-8.5,10-8.5s10.1,3.8,10.1,8.5L-1999.2,874.8z M-1994.9,859.2
			c0-3.2,2.6-5.7,5.8-5.7c3.1,0,5.7,2.6,5.7,5.7c0,3.2-2.6,5.7-5.8,5.7C-1992.3,864.8-1994.8,862.3-1994.9,859.2z"/>
		<path id="Person-2-17" class="st2" d="M-1898.2,874.6c0-4.7,4.5-8.5,10-8.5s10.1,3.8,10.1,8.5L-1898.2,874.6z M-1893.9,859
			c0-3.2,2.6-5.7,5.8-5.7c3.1,0,5.7,2.6,5.7,5.7c0,3.2-2.6,5.7-5.8,5.7c0,0,0,0,0,0C-1891.3,864.7-1893.8,862.1-1893.9,859z"/>
		<path id="Person-2-18" class="st2" d="M-1923.4,874.7c0-4.7,4.5-8.5,10-8.5s10.1,3.8,10.1,8.5L-1923.4,874.7z M-1919.1,859.1
			c0-3.2,2.6-5.7,5.8-5.7c3.1,0,5.7,2.5,5.7,5.7c0,3.2-2.6,5.7-5.8,5.7C-1916.6,864.7-1919.1,862.2-1919.1,859.1z"/>
		<path id="Person-2-19" class="st2" d="M-1948.7,874.7c0-4.7,4.5-8.5,10-8.5s10.1,3.8,10.1,8.5L-1948.7,874.7z M-1944.4,859.1
			c0-3.2,2.6-5.7,5.8-5.7c3.1,0,5.7,2.5,5.7,5.7c0,3.2-2.6,5.7-5.8,5.7C-1941.8,864.7-1944.3,862.2-1944.4,859.1L-1944.4,859.1z"/>
		<path id="Person-2-20" class="st2" d="M-1973.9,874.8c0-4.7,4.5-8.5,10-8.5s10.1,3.8,10.1,8.5L-1973.9,874.8z M-1969.6,859.1
			c0-3.2,2.6-5.7,5.8-5.7c3.1,0,5.7,2.5,5.7,5.7c0,3.2-2.6,5.7-5.8,5.7C-1967.1,864.8-1969.6,862.3-1969.6,859.1z"/>
		<path id="Person-2-21" class="st2" d="M-1872.9,874.6c0-4.7,4.5-8.5,10-8.5s10.1,3.8,10.1,8.5L-1872.9,874.6z M-1868.6,859
			c0-3.2,2.6-5.7,5.8-5.7c3.1,0,5.7,2.6,5.7,5.7c0,3.2-2.6,5.7-5.8,5.7c0,0,0,0,0,0C-1866,864.6-1868.6,862.1-1868.6,859
			L-1868.6,859z"/>
		<path id="Person-2-22" class="st2" d="M-1771.9,874.5c0-4.7,4.5-8.5,10-8.5s10.1,3.8,10.1,8.5L-1771.9,874.5z M-1767.6,858.8
			c0-3.2,2.6-5.7,5.8-5.7c0,0,0,0,0,0c3.1,0,5.7,2.6,5.7,5.7c0,3.2-2.6,5.7-5.8,5.7C-1765,864.5-1767.6,862-1767.6,858.8
			L-1767.6,858.8z"/>
		<path id="Person-2-23" class="st2" d="M-1797.1,874.5c0-4.7,4.5-8.5,10-8.5s10.1,3.8,10.1,8.5L-1797.1,874.5z M-1792.9,858.9
			c0-3.2,2.6-5.7,5.8-5.7c0,0,0,0,0,0c3.1,0,5.7,2.5,5.7,5.7c0,3.2-2.6,5.7-5.8,5.7C-1790.3,864.5-1792.8,862-1792.9,858.9
			L-1792.9,858.9z"/>
		<path id="Person-2-24" class="st2" d="M-1822.4,874.5c0-4.7,4.5-8.5,10-8.5s10.1,3.8,10.1,8.5L-1822.4,874.5z M-1818.1,858.9
			c0-3.2,2.6-5.7,5.8-5.7c3.1,0,5.7,2.5,5.7,5.7c0,3.2-2.6,5.7-5.8,5.7C-1815.5,864.6-1818.1,862-1818.1,858.9L-1818.1,858.9z"/>
		<path id="Person-2-25" class="st2" d="M-1847.6,874.6c0-4.7,4.5-8.5,10-8.5s10.1,3.8,10.1,8.5L-1847.6,874.6z M-1843.4,858.9
			c0-3.2,2.6-5.7,5.8-5.7c3.1,0,5.7,2.6,5.7,5.7c0,3.2-2.6,5.7-5.8,5.7c0,0,0,0,0,0C-1840.8,864.6-1843.3,862.1-1843.4,858.9
			L-1843.4,858.9z"/>
		<path id="Person-2-26" class="st2" d="M-1746.6,874.4c0-4.7,4.5-8.5,10-8.5s10.1,3.8,10.1,8.5L-1746.6,874.4z M-1742.3,858.8
			c0-3.2,2.6-5.7,5.8-5.7c3.1,0,5.7,2.6,5.7,5.7c0,3.2-2.6,5.7-5.8,5.7c0,0,0,0,0,0C-1739.8,864.4-1742.3,861.9-1742.3,858.8
			L-1742.3,858.8z"/>
		<path id="Person-2-27" class="st2" d="M-2276.9,910.3c0-4.7,4.5-8.5,10-8.5s10.1,3.8,10.1,8.5L-2276.9,910.3z M-2272.6,894.7
			c0-3.2,2.6-5.7,5.8-5.7c3.1,0,5.7,2.6,5.7,5.7c0,3.2-2.6,5.7-5.8,5.7C-2270,900.3-2272.6,897.8-2272.6,894.7L-2272.6,894.7z"/>
		<path id="Person-2-28" class="st2" d="M-2302.2,910.3c0-4.7,4.5-8.5,10-8.5s10.1,3.8,10.1,8.5L-2302.2,910.3z M-2297.9,894.7
			c0-3.2,2.6-5.7,5.8-5.7c3.1,0,5.7,2.6,5.7,5.7c0,3.2-2.6,5.7-5.8,5.7C-2295.3,900.4-2297.8,897.8-2297.9,894.7L-2297.9,894.7z"/>
		<path id="Person-2-29" class="st2" d="M-2327.4,910.4c0-4.7,4.5-8.5,10-8.5s10.1,3.8,10.1,8.5L-2327.4,910.4z M-2323.1,894.8
			c0-3.2,2.6-5.7,5.8-5.7c3.1,0,5.7,2.6,5.7,5.7c0,3.2-2.6,5.7-5.8,5.7c0,0,0,0,0,0C-2320.6,900.4-2323.1,897.9-2323.1,894.8
			L-2323.1,894.8z"/>
		<path id="Person-2-30" class="st2" d="M-2352.7,910.4c0-4.7,4.5-8.5,10-8.5s10.1,3.8,10.1,8.5L-2352.7,910.4z M-2348.4,894.8
			c0-3.2,2.6-5.7,5.8-5.7c3.1,0,5.7,2.6,5.7,5.7c0,3.2-2.6,5.7-5.8,5.7c0,0,0,0,0,0C-2345.8,900.4-2348.3,897.9-2348.4,894.8
			L-2348.4,894.8z"/>
		<path id="Person-2-31" class="st2" d="M-2251.6,910.3c0-4.7,4.5-8.5,10-8.5s10.1,3.8,10.1,8.5L-2251.6,910.3z M-2247.4,894.6
			c0-3.2,2.6-5.7,5.8-5.7c0,0,0,0,0,0c3.1,0,5.7,2.6,5.7,5.7c0,3.2-2.6,5.7-5.8,5.7C-2244.8,900.3-2247.3,897.8-2247.4,894.6z"/>
		<path id="Person-2-32" class="st2" d="M-2150.6,910.1c0-4.7,4.5-8.5,10-8.5s10.1,3.8,10.1,8.5L-2150.6,910.1z M-2146.4,894.5
			c0-3.2,2.6-5.7,5.8-5.7c3.1,0,5.7,2.6,5.7,5.7c0,3.2-2.6,5.7-5.8,5.7C-2143.8,900.1-2146.3,897.6-2146.4,894.5L-2146.4,894.5z"/>
		<path id="Person-2-33" class="st2" d="M-2175.9,910.2c0-4.7,4.5-8.5,10-8.5s10.1,3.8,10.1,8.5L-2175.9,910.2z M-2171.6,894.5
			c0-3.2,2.6-5.7,5.8-5.7c3.1,0,5.7,2.6,5.7,5.7c0,3.2-2.6,5.7-5.8,5.7c0,0,0,0,0,0C-2169,900.2-2171.6,897.7-2171.6,894.5
			L-2171.6,894.5z"/>
		<path id="Person-2-34" class="st2" d="M-2201.1,910.2c0-4.7,4.5-8.5,10-8.5s10.1,3.8,10.1,8.5L-2201.1,910.2z M-2196.9,894.6
			c0-3.2,2.6-5.7,5.8-5.7c3.1,0,5.7,2.6,5.7,5.7c0,3.2-2.6,5.7-5.8,5.7c0,0,0,0,0,0C-2194.3,900.2-2196.8,897.7-2196.9,894.6
			L-2196.9,894.6z"/>
		<path id="Person-2-35" class="st2" d="M-2226.4,910.2c0-4.7,4.5-8.5,10-8.5s10.1,3.8,10.1,8.5L-2226.4,910.2z M-2222.1,894.6
			c0-3.2,2.6-5.7,5.8-5.7c3.1,0,5.7,2.6,5.7,5.7c0,3.2-2.6,5.7-5.8,5.7c0,0,0,0,0,0C-2219.5,900.3-2222.1,897.7-2222.1,894.6
			L-2222.1,894.6z"/>
		<path id="Person-2-36" class="st2" d="M-2125.4,910.1c0-4.7,4.5-8.5,10-8.5s10.1,3.8,10.1,8.5L-2125.4,910.1z M-2121.1,894.5
			c0-3.2,2.6-5.7,5.8-5.7c0,0,0,0,0,0c3.1,0,5.7,2.6,5.7,5.7c0,3.2-2.6,5.7-5.8,5.7C-2118.5,900.1-2121.1,897.6-2121.1,894.5
			L-2121.1,894.5z"/>
		<path id="Person-2-37" class="st2" d="M-2024.4,909.9c0-4.7,4.5-8.5,10-8.5s10.1,3.8,10.1,8.5L-2024.4,909.9z M-2020.1,894.3
			c0-3.2,2.6-5.7,5.8-5.7c3.1,0,5.7,2.6,5.7,5.7c0,3.2-2.6,5.7-5.8,5.7C-2017.5,900-2020,897.4-2020.1,894.3z"/>
		<path id="Person-2-38" class="st2" d="M-2049.6,910c0-4.7,4.5-8.5,10-8.5s10.1,3.8,10.1,8.5L-2049.6,910z M-2045.3,894.4
			c0-3.2,2.6-5.7,5.8-5.7c3.1,0,5.7,2.5,5.7,5.7c0,3.2-2.6,5.7-5.8,5.7c0,0,0,0,0,0C-2042.8,900-2045.3,897.5-2045.3,894.4z"/>
		<path id="Person-2-39" class="st2" d="M-2074.9,910c0-4.7,4.5-8.5,10-8.5s10.1,3.8,10.1,8.5L-2074.9,910z M-2070.6,894.4
			c0-3.2,2.6-5.7,5.8-5.7c0,0,0,0,0,0c3.1,0,5.7,2.6,5.7,5.7c0,3.2-2.6,5.7-5.8,5.7C-2068,900-2070.6,897.5-2070.6,894.4z"/>
		<path id="Person-2-40" class="st2" d="M-2100.1,910c0-4.7,4.5-8.5,10-8.5s10.1,3.8,10.1,8.5L-2100.1,910z M-2095.8,894.4
			c0-3.2,2.6-5.7,5.8-5.7c0,0,0,0,0,0c3.1,0,5.7,2.6,5.7,5.7c0,3.2-2.6,5.7-5.8,5.7C-2093.3,900.1-2095.8,897.6-2095.8,894.4
			L-2095.8,894.4z"/>
		<path id="Person-2-41" class="st2" d="M-1999.1,909.9c0-4.7,4.5-8.5,10-8.5s10.1,3.8,10.1,8.5L-1999.1,909.9z M-1994.8,894.3
			c0-3.2,2.6-5.7,5.8-5.7c3.1,0,5.7,2.6,5.7,5.7c0,3.2-2.6,5.7-5.8,5.7C-1992.3,899.9-1994.8,897.4-1994.8,894.3L-1994.8,894.3z"/>
		<path id="Person-2-42" class="st2" d="M-1898.1,909.8c0-4.7,4.5-8.5,10-8.5s10.1,3.8,10.1,8.5L-1898.1,909.8z M-1893.8,894.1
			c0-3.2,2.6-5.7,5.8-5.7c3.1,0,5.7,2.5,5.7,5.7c0,3.2-2.6,5.7-5.8,5.7c0,0,0,0,0,0C-1891.3,899.8-1893.8,897.3-1893.8,894.1z"/>
		<path id="Person-2-43" class="st2" d="M-1923.4,909.8c0-4.7,4.5-8.5,10-8.5s10.1,3.8,10.1,8.5L-1923.4,909.8z M-1919.1,894.2
			c0-3.2,2.6-5.7,5.8-5.7c0,0,0,0,0,0c3.1,0,5.7,2.6,5.7,5.7c0,3.2-2.6,5.7-5.8,5.7C-1916.5,899.8-1919,897.3-1919.1,894.2z"/>
		<path id="Person-2-44" class="st2" d="M-1948.6,909.8c0-4.7,4.5-8.5,10-8.5s10.1,3.8,10.1,8.5L-1948.6,909.8z M-1944.3,894.2
			c0-3.2,2.6-5.7,5.8-5.7c0,0,0,0,0,0c3.1,0,5.7,2.6,5.7,5.7c0,3.2-2.6,5.7-5.8,5.7C-1941.8,899.9-1944.3,897.3-1944.3,894.2z"/>
		<path id="Person-2-45" class="st2" d="M-1973.9,909.9c0-4.7,4.5-8.5,10-8.5s10.1,3.8,10.1,8.5L-1973.9,909.9z M-1969.6,894.2
			c0-3.2,2.6-5.7,5.8-5.7c3.1,0,5.7,2.5,5.7,5.7c0,3.2-2.6,5.7-5.8,5.7C-1967,899.9-1969.5,897.4-1969.6,894.2L-1969.6,894.2z"/>
		<path id="Person-2-46" class="st2" d="M-1872.9,909.7c0-4.7,4.5-8.5,10-8.5s10.1,3.8,10.1,8.5L-1872.9,909.7z M-1868.6,894.1
			c0-3.2,2.6-5.7,5.8-5.7c3.1,0,5.7,2.6,5.7,5.7c0,3.2-2.6,5.7-5.8,5.7C-1866,899.7-1868.5,897.2-1868.6,894.1L-1868.6,894.1z"/>
		<path id="Person-2-47" class="st2" d="M-1771.8,909.6c0-4.7,4.5-8.5,10-8.5s10.1,3.8,10.1,8.5L-1771.8,909.6z M-1767.6,893.9
			c0-3.2,2.6-5.7,5.8-5.7c3.1,0,5.7,2.6,5.7,5.7c0,3.2-2.6,5.7-5.8,5.7C-1765,899.6-1767.5,897.1-1767.6,893.9z"/>
		<path id="Person-2-48" class="st2" d="M-1797.1,909.6c0-4.7,4.5-8.5,10-8.5s10.1,3.8,10.1,8.5L-1797.1,909.6z M-1792.8,894
			c0-3.2,2.6-5.7,5.8-5.7c0,0,0,0,0,0c3.1,0,5.7,2.6,5.7,5.7c0,3.2-2.6,5.7-5.8,5.7C-1790.2,899.6-1792.8,897.1-1792.8,894
			L-1792.8,894z"/>
		<path id="Person-2-49" class="st2" d="M-1822.3,909.6c0-4.7,4.5-8.5,10-8.5s10.1,3.8,10.1,8.5L-1822.3,909.6z M-1818.1,894
			c0-3.2,2.6-5.7,5.8-5.7c0,0,0,0,0,0c3.1,0,5.7,2.5,5.7,5.7c0,3.2-2.6,5.7-5.8,5.7C-1815.5,899.7-1818,897.1-1818.1,894
			L-1818.1,894z"/>
		<path id="Person-2-50" class="st2" d="M-1847.6,909.7c0-4.7,4.5-8.5,10-8.5s10.1,3.8,10.1,8.5L-1847.6,909.7z M-1843.3,894.1
			c0-3.2,2.6-5.7,5.8-5.7c3.1,0,5.7,2.6,5.7,5.7c0,3.2-2.6,5.7-5.8,5.7C-1840.7,899.7-1843.3,897.2-1843.3,894.1L-1843.3,894.1z"/>
		<path id="Person-2-51" class="st2" d="M-1746.6,909.5c0-4.7,4.5-8.5,10-8.5s10.1,3.8,10.1,8.5L-1746.6,909.5z M-1742.3,893.9
			c0-3.2,2.6-5.7,5.8-5.7c3.1,0,5.7,2.5,5.7,5.7c0,3.2-2.6,5.7-5.8,5.7C-1739.7,899.6-1742.3,897-1742.3,893.9z"/>
		<path id="Person-2-52" class="st2" d="M-2276.9,945.4c0-4.7,4.5-8.5,10-8.5s10.1,3.8,10.1,8.5L-2276.9,945.4z M-2272.6,929.8
			c0-3.2,2.6-5.7,5.8-5.7c0,0,0,0,0,0c3.1,0,5.7,2.6,5.7,5.7c0,3.2-2.6,5.7-5.8,5.7C-2270,935.4-2272.5,932.9-2272.6,929.8
			L-2272.6,929.8z"/>
		<path id="Person-2-53" class="st2" d="M-2302.1,945.5c0-4.7,4.5-8.5,10-8.5s10.1,3.8,10.1,8.5L-2302.1,945.5z M-2297.8,929.8
			c0-3.2,2.6-5.7,5.8-5.7c0,0,0,0,0,0c3.1,0,5.7,2.6,5.7,5.7c0,3.2-2.6,5.7-5.8,5.7C-2295.3,935.5-2297.8,933-2297.8,929.8
			L-2297.8,929.8z"/>
		<path id="Person-2-54" class="st2" d="M-2327.4,945.5c0-4.7,4.5-8.5,10-8.5s10.1,3.8,10.1,8.5L-2327.4,945.5z M-2323.1,929.9
			c0-3.2,2.6-5.7,5.8-5.7c3.1,0,5.7,2.6,5.7,5.7c0,3.2-2.6,5.7-5.8,5.7C-2320.5,935.5-2323,933-2323.1,929.9L-2323.1,929.9z"/>
		<path id="Person-2-55" class="st2" d="M-2352.6,945.5c0-4.7,4.5-8.5,10-8.5s10.1,3.8,10.1,8.5L-2352.6,945.5z M-2348.3,929.9
			c0-3.2,2.6-5.7,5.8-5.7c3.1,0,5.7,2.6,5.7,5.7c0,3.2-2.6,5.7-5.8,5.7C-2345.8,935.6-2348.3,933-2348.3,929.9z"/>
		<path id="Person-2-56" class="st2" d="M-2251.6,945.4c0-4.7,4.5-8.5,10-8.5s10.1,3.8,10.1,8.5L-2251.6,945.4z M-2247.3,929.8
			c0-3.2,2.6-5.7,5.8-5.7c0,0,0,0,0,0c3.1,0,5.7,2.6,5.7,5.7c0,3.2-2.6,5.7-5.8,5.7C-2244.7,935.4-2247.3,932.9-2247.3,929.8
			L-2247.3,929.8z"/>
		<path id="Person-2-57" class="st2" d="M-2150.6,945.2c0-4.7,4.5-8.5,10-8.5s10.1,3.8,10.1,8.5L-2150.6,945.2z M-2146.3,929.6
			c0-3.2,2.6-5.7,5.8-5.7c0,0,0,0,0,0c3.1,0,5.7,2.6,5.7,5.7c0,3.2-2.6,5.7-5.8,5.7C-2143.7,935.3-2146.3,932.7-2146.3,929.6
			L-2146.3,929.6z"/>
		<path id="Person-2-58" class="st2" d="M-2175.8,945.3c0-4.7,4.5-8.5,10-8.5s10.1,3.8,10.1,8.5L-2175.8,945.3z M-2171.6,929.6
			c0-3.2,2.6-5.7,5.8-5.7c3.1,0,5.7,2.6,5.7,5.7c0,3.2-2.6,5.7-5.8,5.7C-2169,935.3-2171.5,932.8-2171.6,929.6z"/>
		<path id="Person-2-59" class="st2" d="M-2201.1,945.3c0-4.7,4.5-8.5,10-8.5s10.1,3.8,10.1,8.5L-2201.1,945.3z M-2196.8,929.7
			c0-3.2,2.6-5.7,5.8-5.7c3.1,0,5.7,2.6,5.7,5.7c0,3.2-2.6,5.7-5.8,5.7c0,0,0,0,0,0C-2194.2,935.3-2196.8,932.8-2196.8,929.7
			L-2196.8,929.7z"/>
		<path id="Person-2-60" class="st2" d="M-2226.4,945.3c0-4.7,4.5-8.5,10-8.5s10.1,3.8,10.1,8.5L-2226.4,945.3z M-2222.1,929.7
			c0-3.2,2.6-5.7,5.8-5.7c3.1,0,5.7,2.6,5.7,5.7c0,3.2-2.6,5.7-5.8,5.7c0,0,0,0,0,0C-2219.5,935.4-2222,932.8-2222.1,929.7
			L-2222.1,929.7z"/>
		<path id="Person-2-61" class="st2" d="M-2125.3,945.2c0-4.7,4.5-8.5,10-8.5s10.1,3.8,10.1,8.5L-2125.3,945.2z M-2121.1,929.6
			c0-3.2,2.6-5.7,5.8-5.7c0,0,0,0,0,0c3.1,0,5.7,2.6,5.7,5.7c0,3.2-2.6,5.7-5.8,5.7C-2118.5,935.2-2121,932.7-2121.1,929.6
			L-2121.1,929.6z"/>
		<path id="Person-2-62" class="st2" d="M-2049.6,945.1c0-4.7,4.5-8.5,10-8.5s10.1,3.8,10.1,8.5L-2049.6,945.1z M-2045.3,929.5
			c0-3.2,2.6-5.7,5.8-5.7c3.1,0,5.7,2.5,5.7,5.7c0,3.2-2.6,5.7-5.8,5.7C-2042.7,935.1-2045.3,932.6-2045.3,929.5L-2045.3,929.5z"/>
		<path id="Person-2-63" class="st2" d="M-2074.8,945.1c0-4.7,4.5-8.5,10-8.5s10.1,3.8,10.1,8.5L-2074.8,945.1z M-2070.5,929.5
			c0-3.2,2.6-5.7,5.8-5.7c3.1,0,5.7,2.6,5.7,5.7c0,3.2-2.6,5.7-5.8,5.7C-2068,935.1-2070.5,932.6-2070.5,929.5L-2070.5,929.5z"/>
		<path id="Person-2-64" class="st2" d="M-2100.1,945.2c0-4.7,4.5-8.5,10-8.5s10.1,3.8,10.1,8.5L-2100.1,945.2z M-2095.8,929.5
			c0-3.2,2.6-5.7,5.8-5.7c3.1,0,5.7,2.6,5.7,5.7c0,3.2-2.6,5.7-5.8,5.7C-2093.2,935.2-2095.8,932.7-2095.8,929.5L-2095.8,929.5z"/>
	</g>
	<path id="Person-2-65" class="st1" d="M774.9,1320c0-4.7,4.5-8.5,10-8.5s10.1,3.8,10.1,8.5L774.9,1320z M779.2,1304.4
		c0-3.2,2.6-5.7,5.8-5.7c3.1,0,5.7,2.6,5.7,5.7c0,3.2-2.6,5.7-5.8,5.7C781.8,1310,779.2,1307.5,779.2,1304.4z"/>
	<path id="Person-2-66" class="st1" d="M875.9,1319.8c0-4.7,4.5-8.5,10-8.5c5.6,0,10.1,3.8,10.1,8.5L875.9,1319.8z M880.2,1304.2
		c0-3.2,2.6-5.7,5.8-5.7c3.1,0,5.7,2.6,5.7,5.7c0,3.2-2.6,5.7-5.8,5.7C882.8,1309.9,880.3,1307.4,880.2,1304.2L880.2,1304.2z"/>
	<path id="Person-2-67" class="st1" d="M850.7,1319.9c0-4.7,4.5-8.5,10-8.5c5.6,0,10.1,3.8,10.1,8.5L850.7,1319.9z M855,1304.3
		c0-3.2,2.6-5.7,5.8-5.7c3.1,0,5.7,2.5,5.7,5.7c0,3.2-2.6,5.7-5.8,5.7C857.5,1309.9,855,1307.4,855,1304.3L855,1304.3z"/>
	<path id="Person-2-68" class="st1" d="M825.4,1319.9c0-4.7,4.5-8.5,10-8.5c5.6,0,10.1,3.8,10.1,8.5L825.4,1319.9z M829.7,1304.3
		c0-3.2,2.6-5.7,5.8-5.7c3.1,0,5.7,2.6,5.7,5.7c0,3.2-2.6,5.7-5.8,5.7C832.3,1309.9,829.8,1307.4,829.7,1304.3z"/>
	<path id="Person-2-69" class="st1" d="M800.2,1320c0-4.7,4.5-8.5,10-8.5c5.6,0,10.1,3.8,10.1,8.5L800.2,1320z M804.5,1304.3
		c0-3.2,2.6-5.7,5.8-5.7c0,0,0,0,0,0c3.1,0,5.7,2.6,5.7,5.7c0,3.2-2.6,5.7-5.8,5.7C807,1310,804.5,1307.5,804.5,1304.3z"/>
	<path id="Person-2-70" class="st1" d="M901.2,1319.8c0-4.7,4.5-8.5,10-8.5c5.6,0,10.1,3.8,10.1,8.5L901.2,1319.8z M905.5,1304.2
		c0-3.2,2.6-5.7,5.8-5.7c3.1,0,5.7,2.5,5.7,5.7c0,3.2-2.6,5.7-5.8,5.7C908,1309.8,905.5,1307.3,905.5,1304.2z"/>
	<path id="Person-2-71" class="st1" d="M1002.2,1319.7c0-4.7,4.5-8.5,10-8.5c5.6,0,10.1,3.8,10.1,8.5L1002.2,1319.7z M1006.5,1304
		c0-3.2,2.6-5.7,5.8-5.7c3.1,0,5.7,2.5,5.7,5.7c0,3.2-2.6,5.7-5.8,5.7C1009.1,1309.7,1006.5,1307.2,1006.5,1304L1006.5,1304z"/>
	<path id="Person-2-72" class="st1" d="M976.9,1319.7c0-4.7,4.5-8.5,10-8.5c5.6,0,10.1,3.8,10.1,8.5L976.9,1319.7z M981.2,1304.1
		c0-3.2,2.6-5.7,5.8-5.7c3.1,0,5.7,2.5,5.7,5.7c0,3.2-2.6,5.7-5.8,5.7C983.8,1309.7,981.3,1307.2,981.2,1304.1L981.2,1304.1z"/>
	<path id="Person-2-73" class="st1" d="M951.7,1319.7c0-4.7,4.5-8.5,10-8.5c5.6,0,10.1,3.8,10.1,8.5L951.7,1319.7z M956,1304.1
		c0-3.2,2.6-5.7,5.8-5.7c0,0,0,0,0,0c3.1,0,5.7,2.6,5.7,5.7c0,3.2-2.6,5.7-5.8,5.7C958.5,1309.8,956,1307.2,956,1304.1z"/>
	<path id="Person-2-74" class="st1" d="M926.4,1319.8c0-4.7,4.5-8.5,10-8.5c5.6,0,10.1,3.8,10.1,8.5L926.4,1319.8z M930.7,1304.2
		c0-3.2,2.6-5.7,5.8-5.7c3.1,0,5.7,2.6,5.7,5.7c0,3.2-2.6,5.7-5.8,5.7C933.3,1309.8,930.8,1307.3,930.7,1304.2L930.7,1304.2z"/>
	<path id="Person-2-75" class="st1" d="M1027.5,1319.6c0-4.7,4.5-8.5,10-8.5c5.6,0,10.1,3.8,10.1,8.5L1027.5,1319.6z M1031.7,1304
		c0-3.2,2.6-5.7,5.8-5.7c3.1,0,5.7,2.5,5.7,5.7c0,3.2-2.6,5.7-5.8,5.7C1034.3,1309.7,1031.8,1307.1,1031.7,1304z"/>
	<g id="Group_4238" transform="translate(2774 374.984)">
		<path id="Person-2-76" class="st1" d="M-2276.8,980.5c0-4.7,4.5-8.5,10-8.5s10.1,3.8,10.1,8.5L-2276.8,980.5z M-2272.5,964.9
			c0-3.2,2.6-5.7,5.8-5.7c3.1,0,5.7,2.6,5.7,5.7c0,3.2-2.6,5.7-5.8,5.7C-2270,970.6-2272.5,968-2272.5,964.9z"/>
		<path id="Person-2-77" class="st1" d="M-2302.1,980.6c0-4.7,4.5-8.5,10-8.5s10.1,3.8,10.1,8.5L-2302.1,980.6z M-2297.8,964.9
			c0-3.2,2.6-5.7,5.8-5.7c0,0,0,0,0,0c3.1,0,5.7,2.6,5.7,5.7c0,3.2-2.6,5.7-5.8,5.7C-2295.2,970.6-2297.7,968.1-2297.8,964.9
			L-2297.8,964.9z"/>
		<path id="Person-2-78" class="st1" d="M-2327.3,980.6c0-4.7,4.5-8.5,10-8.5s10.1,3.8,10.1,8.5L-2327.3,980.6z M-2323,965
			c0-3.2,2.6-5.7,5.8-5.7c3.1,0,5.7,2.6,5.7,5.7c0,3.2-2.6,5.7-5.8,5.7C-2320.5,970.6-2323,968.1-2323,965L-2323,965z"/>
		<path id="Person-2-79" class="st1" d="M-2352.6,980.6c0-4.7,4.5-8.5,10-8.5s10.1,3.8,10.1,8.5L-2352.6,980.6z M-2348.3,965
			c0-3.2,2.6-5.7,5.8-5.7c3.1,0,5.7,2.6,5.7,5.7c0,3.2-2.6,5.7-5.8,5.7C-2345.7,970.7-2348.2,968.1-2348.3,965L-2348.3,965z"/>
		<path id="Person-2-80" class="st1" d="M-2251.6,980.5c0-4.7,4.5-8.5,10-8.5s10.1,3.8,10.1,8.5L-2251.6,980.5z M-2247.3,964.9
			c0-3.2,2.6-5.7,5.8-5.7c3.1,0,5.7,2.6,5.7,5.7c0,3.2-2.6,5.7-5.8,5.7C-2244.7,970.5-2247.2,968-2247.3,964.9L-2247.3,964.9z"/>
		<path id="Person-2-81" class="st1" d="M-2150.5,980.3c0-4.7,4.5-8.5,10-8.5s10.1,3.8,10.1,8.5L-2150.5,980.3z M-2146.3,964.7
			c0-3.2,2.6-5.7,5.8-5.7c3.1,0,5.7,2.6,5.7,5.7c0,3.2-2.6,5.7-5.8,5.7C-2143.7,970.4-2146.2,967.8-2146.3,964.7L-2146.3,964.7z"/>
		<path id="Person-2-82" class="st1" d="M-2175.8,980.4c0-4.7,4.5-8.5,10-8.5s10.1,3.8,10.1,8.5L-2175.8,980.4z M-2171.5,964.8
			c0-3.2,2.6-5.7,5.8-5.7c3.1,0,5.7,2.6,5.7,5.7c0,3.2-2.6,5.7-5.8,5.7C-2168.9,970.4-2171.5,967.9-2171.5,964.8L-2171.5,964.8z"/>
		<path id="Person-2-83" class="st1" d="M-2201.1,980.4c0-4.7,4.5-8.5,10-8.5s10.1,3.8,10.1,8.5L-2201.1,980.4z M-2196.8,964.8
			c0-3.2,2.6-5.7,5.8-5.7c3.1,0,5.7,2.6,5.7,5.7c0,3.2-2.6,5.7-5.8,5.7C-2194.2,970.4-2196.7,967.9-2196.8,964.8L-2196.8,964.8z"/>
		<path id="Person-2-84" class="st1" d="M-2226.3,980.5c0-4.7,4.5-8.5,10-8.5s10.1,3.8,10.1,8.5L-2226.3,980.5z M-2222,964.8
			c0-3.2,2.6-5.7,5.8-5.7c3.1,0,5.7,2.6,5.7,5.7c0,3.2-2.6,5.7-5.8,5.7C-2219.5,970.5-2222,968-2222,964.8z"/>
		<path id="Person-2-85" class="st1" d="M-2125.3,980.3c0-4.7,4.5-8.5,10-8.5s10.1,3.8,10.1,8.5L-2125.3,980.3z M-2121,964.7
			c0-3.2,2.6-5.7,5.8-5.7c3.1,0,5.7,2.6,5.7,5.7c0,3.2-2.6,5.7-5.8,5.7C-2118.4,970.3-2121,967.8-2121,964.7L-2121,964.7z"/>
		<path id="Person-2-86" class="st1" d="M-2024.3,980.2c0-4.7,4.5-8.5,10-8.5s10.1,3.8,10.1,8.5L-2024.3,980.2z M-2020,964.5
			c0-3.2,2.6-5.7,5.8-5.7c3.1,0,5.7,2.6,5.7,5.7c0,3.2-2.6,5.7-5.8,5.7C-2017.4,970.2-2020,967.7-2020,964.5L-2020,964.5z"/>
		<path id="Person-2-87" class="st1" d="M-2049.5,980.2c0-4.7,4.5-8.5,10-8.5s10.1,3.8,10.1,8.5L-2049.5,980.2z M-2045.3,964.6
			c0-3.2,2.6-5.7,5.8-5.7c3.1,0,5.7,2.5,5.7,5.7c0,3.2-2.6,5.7-5.8,5.7C-2042.7,970.2-2045.2,967.7-2045.3,964.6L-2045.3,964.6z"/>
		<path id="Person-2-88" class="st1" d="M-2074.8,980.2c0-4.7,4.5-8.5,10-8.5s10.1,3.8,10.1,8.5L-2074.8,980.2z M-2070.5,964.6
			c0-3.2,2.6-5.7,5.8-5.7c3.1,0,5.7,2.6,5.7,5.7c0,3.2-2.6,5.7-5.8,5.7C-2067.9,970.3-2070.5,967.7-2070.5,964.6L-2070.5,964.6z"/>
		<path id="Person-2-89" class="st1" d="M-2100,980.3c0-4.7,4.5-8.5,10-8.5s10.1,3.8,10.1,8.5L-2100,980.3z M-2095.8,964.6
			c0-3.2,2.6-5.7,5.8-5.7c3.1,0,5.7,2.6,5.7,5.7c0,3.2-2.6,5.7-5.8,5.7C-2093.2,970.3-2095.7,967.8-2095.8,964.6L-2095.8,964.6z"/>
		<path id="Person-2-90" class="st1" d="M-1999,980.1c0-4.7,4.5-8.5,10-8.5s10.1,3.8,10.1,8.5L-1999,980.1z M-1994.7,964.5
			c0-3.2,2.6-5.7,5.8-5.7c3.1,0,5.7,2.6,5.7,5.7c0,3.2-2.6,5.7-5.8,5.7c0,0,0,0,0,0C-1992.2,970.1-1994.7,967.6-1994.7,964.5
			L-1994.7,964.5z"/>
		<path id="Person-2-91" class="st1" d="M-1898,980c0-4.7,4.5-8.5,10-8.5s10.1,3.8,10.1,8.5L-1898,980z M-1893.7,964.4
			c0-3.2,2.6-5.7,5.8-5.7c3.1,0,5.7,2.5,5.7,5.7c0,3.2-2.6,5.7-5.8,5.7C-1891.2,970-1893.7,967.5-1893.7,964.4z"/>
		<path id="Person-2-92" class="st1" d="M-1923.3,980c0-4.7,4.5-8.5,10-8.5s10.1,3.8,10.1,8.5L-1923.3,980z M-1919,964.4
			c0-3.2,2.6-5.7,5.8-5.7c3.1,0,5.7,2.5,5.7,5.7c0,3.2-2.6,5.7-5.8,5.7C-1916.4,970-1918.9,967.5-1919,964.4L-1919,964.4z"/>
		<path id="Person-2-93" class="st1" d="M-1948.5,980.1c0-4.7,4.5-8.5,10-8.5s10.1,3.8,10.1,8.5L-1948.5,980.1z M-1944.2,964.4
			c0-3.2,2.6-5.7,5.8-5.7c3.1,0,5.7,2.5,5.7,5.7c0,3.2-2.6,5.7-5.8,5.7C-1941.7,970.1-1944.2,967.6-1944.2,964.4z"/>
		<path id="Person-2-94" class="st1" d="M-1973.8,980.1c0-4.7,4.5-8.5,10-8.5s10.1,3.8,10.1,8.5L-1973.8,980.1z M-1969.5,964.5
			c0-3.2,2.6-5.7,5.8-5.7c3.1,0,5.7,2.5,5.7,5.7c0,3.2-2.6,5.7-5.8,5.7C-1966.9,970.1-1969.5,967.6-1969.5,964.5z"/>
		<path id="Person-2-95" class="st1" d="M-1872.8,979.9c0-4.7,4.5-8.5,10-8.5s10.1,3.8,10.1,8.5L-1872.8,979.9z M-1868.5,964.3
			c0-3.2,2.6-5.7,5.8-5.7c3.1,0,5.7,2.6,5.7,5.7c0,3.2-2.6,5.7-5.8,5.7c0,0,0,0,0,0C-1865.9,970-1868.4,967.4-1868.5,964.3z"/>
		<path id="Person-2-96" class="st1" d="M-1771.8,979.8c0-4.7,4.5-8.5,10-8.5s10.1,3.8,10.1,8.5L-1771.8,979.8z M-1767.5,964.2
			c0-3.2,2.6-5.7,5.8-5.7c3.1,0,5.7,2.5,5.7,5.7c0,3.2-2.6,5.7-5.8,5.7C-1764.9,969.8-1767.4,967.3-1767.5,964.2z"/>
		<path id="Person-2-97" class="st1" d="M-1797,979.8c0-4.7,4.5-8.5,10-8.5s10.1,3.8,10.1,8.5L-1797,979.8z M-1792.7,964.2
			c0-3.2,2.6-5.7,5.8-5.7c3.1,0,5.7,2.5,5.7,5.7c0,3.2-2.6,5.7-5.8,5.7C-1790.2,969.9-1792.7,967.3-1792.7,964.2z"/>
		<path id="Person-2-98" class="st1" d="M-1822.3,979.9c0-4.7,4.5-8.5,10-8.5s10.1,3.8,10.1,8.5L-1822.3,979.9z M-1818,964.2
			c0-3.2,2.6-5.7,5.8-5.7c3.1,0,5.7,2.6,5.7,5.7c0,3.2-2.6,5.7-5.8,5.7C-1815.4,969.9-1817.9,967.4-1818,964.2z"/>
		<path id="Person-2-99" class="st1" d="M-1847.5,979.9c0-4.7,4.5-8.5,10-8.5s10.1,3.8,10.1,8.5L-1847.5,979.9z M-1843.2,964.3
			c0-3.2,2.6-5.7,5.8-5.7c3.1,0,5.7,2.6,5.7,5.7c0,3.2-2.6,5.7-5.8,5.7c0,0,0,0,0,0C-1840.7,969.9-1843.2,967.4-1843.2,964.3
			L-1843.2,964.3z"/>
		<path id="Person-2-100" class="st1" d="M-1746.5,979.8c0-4.7,4.5-8.5,10-8.5s10.1,3.8,10.1,8.5L-1746.5,979.8z M-1742.2,964.1
			c0-3.2,2.6-5.7,5.8-5.7c3.1,0,5.7,2.5,5.7,5.7c0,3.2-2.6,5.7-5.8,5.7C-1739.6,969.8-1742.2,967.3-1742.2,964.1L-1742.2,964.1z"/>
	</g>
	<g class="st3">
		<path class="st0" d="M321.4,1279.1h-35.9v-7.6l12.9-13c3.8-3.9,6.3-6.6,7.5-8.1c1.2-1.5,2-2.9,2.5-4.2c0.5-1.3,0.8-2.6,0.8-4
			c0-2.1-0.6-3.6-1.7-4.6c-1.1-1-2.7-1.5-4.6-1.5c-2,0-3.9,0.5-5.8,1.4c-1.9,0.9-3.8,2.2-5.9,3.9l-5.9-7c2.5-2.2,4.6-3.7,6.3-4.6
			c1.7-0.9,3.5-1.6,5.4-2.1s4.2-0.7,6.6-0.7c3.2,0,6,0.6,8.5,1.8s4.4,2.8,5.7,4.9c1.4,2.1,2,4.5,2,7.2c0,2.4-0.4,4.6-1.2,6.7
			c-0.8,2.1-2.1,4.2-3.9,6.4c-1.7,2.2-4.8,5.3-9.2,9.3l-6.6,6.2v0.5h22.4V1279.1z"/>
		<path class="st0" d="M350.3,1243.1c0,5.4-1,9.4-3.1,12.1c-2.1,2.7-5.1,4.1-9.2,4.1c-3.9,0-6.9-1.4-9-4.2s-3.2-6.8-3.2-12
			c0-10.7,4-16.1,12.1-16.1c4,0,7,1.4,9.1,4.2C349.3,1233.9,350.3,1237.9,350.3,1243.1z M334.8,1243.1c0,3,0.3,5.2,0.8,6.7
			s1.4,2.2,2.5,2.2c2.2,0,3.4-3,3.4-8.9c0-5.9-1.1-8.8-3.4-8.8c-1.2,0-2,0.7-2.5,2.2S334.8,1240.2,334.8,1243.1z M374.5,1227.7
			l-28.5,51.4h-8.4l28.5-51.4H374.5z M386.3,1263.6c0,5.4-1,9.4-3.1,12.1c-2.1,2.7-5.1,4.1-9.2,4.1c-3.9,0-6.9-1.4-9-4.2
			s-3.2-6.8-3.2-12c0-10.7,4-16.1,12.1-16.1c4,0,7,1.4,9.1,4.2C385.3,1254.5,386.3,1258.4,386.3,1263.6z M370.8,1263.7
			c0,3,0.3,5.2,0.8,6.7s1.4,2.2,2.5,2.2c2.2,0,3.4-3,3.4-8.9c0-5.9-1.1-8.8-3.4-8.8c-1.2,0-2,0.7-2.5,2.2S370.8,1260.7,370.8,1263.7
			z"/>
	</g>
	<g class="st3">
		<path class="st4" d="M292.8,1307c0,1.5-0.4,2.6-1.1,3.5s-1.8,1.2-3.1,1.2c-0.8,0-1.5-0.2-2.2-0.6c-0.6-0.4-1.1-0.9-1.5-1.6
			c-0.3-0.7-0.5-1.5-0.5-2.5c0-1.5,0.4-2.6,1.1-3.5s1.8-1.2,3.1-1.2c1.3,0,2.3,0.4,3,1.3C292.4,1304.4,292.8,1305.6,292.8,1307z
			 M285.9,1307c0,1.2,0.2,2,0.7,2.7c0.5,0.6,1.1,0.9,2.1,0.9s1.6-0.3,2.1-0.9c0.5-0.6,0.7-1.5,0.7-2.7c0-1.2-0.2-2-0.7-2.6
			c-0.5-0.6-1.2-0.9-2.1-0.9c-0.9,0-1.6,0.3-2,0.9S285.9,1305.8,285.9,1307z"/>
		<path class="st4" d="M299.3,1303.5H297v8h-1.4v-8H294v-0.6l1.6-0.5v-0.5c0-2.2,1-3.4,2.9-3.4c0.5,0,1,0.1,1.7,0.3l-0.4,1.1
			c-0.5-0.2-1-0.3-1.4-0.3c-0.5,0-0.9,0.2-1.2,0.5s-0.4,0.9-0.4,1.7v0.6h2.3V1303.5z"/>
		<path class="st4" d="M306.7,1302.5v5.9c0,0.7,0.2,1.3,0.5,1.7s0.9,0.5,1.6,0.5c1,0,1.6-0.3,2.1-0.8c0.4-0.5,0.7-1.4,0.7-2.5v-4.8
			h1.4v9.1h-1.1l-0.2-1.2h-0.1c-0.3,0.4-0.7,0.8-1.2,1c-0.5,0.2-1.1,0.4-1.7,0.4c-1.1,0-1.9-0.3-2.5-0.8c-0.6-0.5-0.8-1.4-0.8-2.5
			v-6H306.7z"/>
		<path class="st4" d="M321.7,1309.1c0,0.8-0.3,1.5-0.9,2c-0.6,0.5-1.5,0.7-2.7,0.7c-1.2,0-2.1-0.2-2.8-0.6v-1.3
			c0.4,0.2,0.9,0.4,1.4,0.5c0.5,0.1,1,0.2,1.4,0.2c0.7,0,1.3-0.1,1.7-0.3s0.6-0.6,0.6-1c0-0.4-0.2-0.7-0.5-0.9
			c-0.3-0.3-0.9-0.5-1.8-0.9c-0.8-0.3-1.4-0.6-1.8-0.8c-0.4-0.2-0.6-0.5-0.8-0.8c-0.2-0.3-0.3-0.7-0.3-1.1c0-0.7,0.3-1.3,0.9-1.8
			s1.4-0.6,2.5-0.6c1,0,1.9,0.2,2.9,0.6l-0.5,1.1c-0.9-0.4-1.7-0.6-2.5-0.6c-0.7,0-1.1,0.1-1.5,0.3s-0.5,0.5-0.5,0.8
			c0,0.2,0.1,0.5,0.2,0.6c0.1,0.2,0.3,0.3,0.6,0.5s0.8,0.4,1.6,0.7c1.1,0.4,1.8,0.8,2.2,1.2C321.5,1308,321.7,1308.5,321.7,1309.1z"
			/>
		<path class="st4" d="M327.8,1311.7c-1.3,0-2.4-0.4-3.2-1.2c-0.8-0.8-1.2-2-1.2-3.4c0-1.5,0.4-2.6,1.1-3.5c0.7-0.9,1.7-1.3,2.9-1.3
			c1.1,0,2,0.4,2.7,1.1s1,1.7,1,3v0.9h-6.3c0,1.1,0.3,1.9,0.8,2.4c0.5,0.6,1.2,0.8,2.2,0.8c1,0,1.9-0.2,2.9-0.6v1.2
			c-0.5,0.2-0.9,0.4-1.4,0.5C328.9,1311.7,328.4,1311.7,327.8,1311.7z M327.4,1303.4c-0.7,0-1.3,0.2-1.7,0.7c-0.4,0.5-0.7,1.1-0.8,2
			h4.8c0-0.9-0.2-1.5-0.6-2S328.1,1303.4,327.4,1303.4z"/>
		<path class="st4" d="M337.6,1302.3c0.4,0,0.8,0,1.1,0.1l-0.2,1.3c-0.4-0.1-0.7-0.1-1-0.1c-0.7,0-1.4,0.3-1.9,0.9
			c-0.5,0.6-0.8,1.3-0.8,2.2v4.9h-1.4v-9.1h1.1l0.2,1.7h0.1c0.3-0.6,0.7-1,1.2-1.4S337.1,1302.3,337.6,1302.3z"/>
		<path class="st4" d="M346.3,1309.1c0,0.8-0.3,1.5-0.9,2c-0.6,0.5-1.5,0.7-2.7,0.7c-1.2,0-2.1-0.2-2.8-0.6v-1.3
			c0.4,0.2,0.9,0.4,1.4,0.5c0.5,0.1,1,0.2,1.4,0.2c0.7,0,1.3-0.1,1.7-0.3s0.6-0.6,0.6-1c0-0.4-0.2-0.7-0.5-0.9
			c-0.3-0.3-0.9-0.5-1.8-0.9c-0.8-0.3-1.4-0.6-1.8-0.8c-0.4-0.2-0.6-0.5-0.8-0.8c-0.2-0.3-0.3-0.7-0.3-1.1c0-0.7,0.3-1.3,0.9-1.8
			s1.4-0.6,2.5-0.6c1,0,1.9,0.2,2.9,0.6l-0.5,1.1c-0.9-0.4-1.7-0.6-2.5-0.6c-0.7,0-1.1,0.1-1.5,0.3s-0.5,0.5-0.5,0.8
			c0,0.2,0.1,0.5,0.2,0.6c0.1,0.2,0.3,0.3,0.6,0.5s0.8,0.4,1.6,0.7c1.1,0.4,1.8,0.8,2.2,1.2C346.1,1308,346.3,1308.5,346.3,1309.1z"
			/>
		<path class="st4" d="M357.1,1303.5h-2.3v8h-1.4v-8h-1.6v-0.6l1.6-0.5v-0.5c0-2.2,1-3.4,2.9-3.4c0.5,0,1,0.1,1.7,0.3l-0.4,1.1
			c-0.5-0.2-1-0.3-1.4-0.3c-0.5,0-0.9,0.2-1.2,0.5s-0.4,0.9-0.4,1.7v0.6h2.3V1303.5z M358.6,1300c0-0.3,0.1-0.5,0.2-0.7
			s0.3-0.2,0.6-0.2c0.2,0,0.4,0.1,0.6,0.2s0.2,0.4,0.2,0.7c0,0.3-0.1,0.5-0.2,0.7s-0.4,0.2-0.6,0.2c-0.2,0-0.4-0.1-0.6-0.2
			S358.6,1300.3,358.6,1300z M360.1,1311.6h-1.4v-9.1h1.4V1311.6z"/>
		<path class="st4" d="M369.2,1311.6v-5.9c0-0.7-0.2-1.3-0.5-1.7s-0.9-0.5-1.6-0.5c-1,0-1.6,0.3-2.1,0.8s-0.7,1.4-0.7,2.5v4.8H363
			v-9.1h1.1l0.2,1.2h0.1c0.3-0.4,0.7-0.8,1.2-1s1.1-0.4,1.7-0.4c1.1,0,1.9,0.3,2.5,0.8s0.8,1.4,0.8,2.5v5.9H369.2z"/>
		<path class="st4" d="M379.6,1310.3L379.6,1310.3c-0.7,0.9-1.7,1.4-2.9,1.4c-1.2,0-2.1-0.4-2.8-1.2c-0.7-0.8-1-2-1-3.5
			c0-1.5,0.3-2.7,1-3.5s1.6-1.2,2.8-1.2c1.2,0,2.2,0.4,2.8,1.3h0.1l-0.1-0.7l0-0.6v-3.7h1.4v12.9h-1.1L379.6,1310.3z M376.9,1310.6
			c0.9,0,1.6-0.3,2-0.8c0.4-0.5,0.6-1.3,0.6-2.5v-0.3c0-1.3-0.2-2.2-0.6-2.8c-0.4-0.6-1.1-0.8-2.1-0.8c-0.8,0-1.4,0.3-1.9,0.9
			c-0.4,0.6-0.6,1.5-0.6,2.7c0,1.2,0.2,2,0.6,2.6S376.1,1310.6,376.9,1310.6z"/>
	</g>
	<g class="st3">
		<path class="st4" d="M287.9,1332.6c0.2,0,0.5,0,0.7-0.1s0.4-0.1,0.5-0.1v1.1c-0.1,0.1-0.4,0.1-0.7,0.2c-0.3,0-0.6,0.1-0.8,0.1
			c-1.8,0-2.6-0.9-2.6-2.8v-5.4h-1.3v-0.7l1.3-0.6l0.6-1.9h0.8v2.1h2.6v1.1h-2.6v5.4c0,0.5,0.1,1,0.4,1.3S287.4,1332.6,287.9,1332.6
			z"/>
		<path class="st4" d="M297.2,1333.6v-5.9c0-0.7-0.2-1.3-0.5-1.7s-0.9-0.5-1.6-0.5c-1,0-1.7,0.3-2.1,0.8c-0.4,0.5-0.7,1.4-0.7,2.6
			v4.8H291v-12.9h1.4v3.9c0,0.5,0,0.9-0.1,1.2h0.1c0.3-0.4,0.7-0.8,1.2-1c0.5-0.3,1.1-0.4,1.7-0.4c1.1,0,1.9,0.3,2.5,0.8
			c0.6,0.5,0.8,1.4,0.8,2.5v5.9H297.2z"/>
		<path class="st4" d="M305.2,1333.7c-1.3,0-2.4-0.4-3.2-1.2c-0.8-0.8-1.2-2-1.2-3.4c0-1.5,0.4-2.6,1.1-3.5c0.7-0.9,1.7-1.3,2.9-1.3
			c1.1,0,2,0.4,2.7,1.1s1,1.7,1,3v0.9h-6.3c0,1.1,0.3,1.9,0.8,2.4c0.5,0.6,1.2,0.8,2.2,0.8c1,0,1.9-0.2,2.9-0.6v1.2
			c-0.5,0.2-0.9,0.4-1.4,0.5C306.4,1333.7,305.9,1333.7,305.2,1333.7z M304.9,1325.4c-0.7,0-1.3,0.2-1.7,0.7c-0.4,0.5-0.7,1.1-0.8,2
			h4.8c0-0.9-0.2-1.5-0.6-2S305.6,1325.4,304.9,1325.4z"/>
		<path class="st4" d="M321.2,1331.1c0,0.8-0.3,1.5-0.9,2c-0.6,0.5-1.5,0.7-2.7,0.7c-1.2,0-2.1-0.2-2.8-0.6v-1.3
			c0.4,0.2,0.9,0.4,1.4,0.5c0.5,0.1,1,0.2,1.4,0.2c0.7,0,1.3-0.1,1.7-0.3s0.6-0.6,0.6-1c0-0.4-0.2-0.7-0.5-0.9
			c-0.3-0.3-0.9-0.5-1.8-0.9c-0.8-0.3-1.4-0.6-1.8-0.8c-0.4-0.2-0.6-0.5-0.8-0.8c-0.2-0.3-0.3-0.7-0.3-1.1c0-0.7,0.3-1.3,0.9-1.8
			s1.4-0.6,2.5-0.6c1,0,1.9,0.2,2.9,0.6l-0.5,1.1c-0.9-0.4-1.7-0.6-2.5-0.6c-0.7,0-1.1,0.1-1.5,0.3s-0.5,0.5-0.5,0.8
			c0,0.2,0.1,0.5,0.2,0.6c0.1,0.2,0.3,0.3,0.6,0.5s0.8,0.4,1.6,0.7c1.1,0.4,1.8,0.8,2.2,1.2C321,1330,321.2,1330.5,321.2,1331.1z"/>
		<path class="st4" d="M323.3,1322c0-0.3,0.1-0.5,0.2-0.7s0.3-0.2,0.6-0.2c0.2,0,0.4,0.1,0.6,0.2s0.2,0.4,0.2,0.7
			c0,0.3-0.1,0.5-0.2,0.7s-0.4,0.2-0.6,0.2c-0.2,0-0.4-0.1-0.6-0.2S323.3,1322.3,323.3,1322z M324.8,1333.6h-1.4v-9.1h1.4V1333.6z"
			/>
		<path class="st4" d="M330.7,1332.6c0.2,0,0.5,0,0.7-0.1s0.4-0.1,0.5-0.1v1.1c-0.1,0.1-0.4,0.1-0.7,0.2c-0.3,0-0.6,0.1-0.8,0.1
			c-1.8,0-2.6-0.9-2.6-2.8v-5.4h-1.3v-0.7l1.3-0.6l0.6-1.9h0.8v2.1h2.6v1.1h-2.6v5.4c0,0.5,0.1,1,0.4,1.3S330.2,1332.6,330.7,1332.6
			z"/>
		<path class="st4" d="M337.6,1333.7c-1.3,0-2.4-0.4-3.2-1.2c-0.8-0.8-1.2-2-1.2-3.4c0-1.5,0.4-2.6,1.1-3.5c0.7-0.9,1.7-1.3,2.9-1.3
			c1.1,0,2,0.4,2.7,1.1s1,1.7,1,3v0.9h-6.3c0,1.1,0.3,1.9,0.8,2.4c0.5,0.6,1.2,0.8,2.2,0.8c1,0,1.9-0.2,2.9-0.6v1.2
			c-0.5,0.2-0.9,0.4-1.4,0.5C338.7,1333.7,338.2,1333.7,337.6,1333.7z M337.2,1325.4c-0.7,0-1.3,0.2-1.7,0.7c-0.4,0.5-0.7,1.1-0.8,2
			h4.8c0-0.9-0.2-1.5-0.6-2S337.9,1325.4,337.2,1325.4z"/>
		<path class="st4" d="M353.9,1333.6v-5.9c0-0.7-0.2-1.3-0.5-1.7s-0.9-0.5-1.6-0.5c-1,0-1.7,0.3-2.1,0.8c-0.4,0.5-0.7,1.4-0.7,2.6
			v4.8h-1.4v-12.9h1.4v3.9c0,0.5,0,0.9-0.1,1.2h0.1c0.3-0.4,0.7-0.8,1.2-1c0.5-0.3,1.1-0.4,1.7-0.4c1.1,0,1.9,0.3,2.5,0.8
			c0.6,0.5,0.8,1.4,0.8,2.5v5.9H353.9z"/>
		<path class="st4" d="M363.7,1333.6l-0.3-1.3h-0.1c-0.5,0.6-0.9,1-1.4,1.2c-0.5,0.2-1,0.3-1.7,0.3c-0.9,0-1.6-0.2-2.1-0.7
			c-0.5-0.5-0.8-1.1-0.8-2c0-1.8,1.5-2.8,4.4-2.9l1.5,0v-0.6c0-0.7-0.2-1.2-0.5-1.6c-0.3-0.3-0.8-0.5-1.5-0.5
			c-0.8,0-1.6,0.2-2.6,0.7l-0.4-1.1c0.4-0.2,0.9-0.4,1.5-0.6c0.5-0.1,1.1-0.2,1.6-0.2c1.1,0,1.9,0.2,2.4,0.7
			c0.5,0.5,0.8,1.3,0.8,2.3v6.2H363.7z M360.6,1332.6c0.9,0,1.5-0.2,2-0.7c0.5-0.5,0.7-1.1,0.7-2v-0.8l-1.4,0.1
			c-1.1,0-1.9,0.2-2.4,0.5c-0.5,0.3-0.7,0.8-0.7,1.4c0,0.5,0.2,0.9,0.5,1.1C359.7,1332.5,360.1,1332.6,360.6,1332.6z"/>
		<path class="st4" d="M371.8,1324.3c0.4,0,0.8,0,1.1,0.1l-0.2,1.3c-0.4-0.1-0.7-0.1-1-0.1c-0.7,0-1.4,0.3-1.9,0.9
			c-0.5,0.6-0.8,1.3-0.8,2.2v4.9h-1.4v-9.1h1.1l0.2,1.7h0.1c0.3-0.6,0.7-1,1.2-1.4S371.2,1324.3,371.8,1324.3z"/>
		<path class="st4" d="M380.7,1332.3L380.7,1332.3c-0.7,0.9-1.7,1.4-2.9,1.4c-1.2,0-2.1-0.4-2.8-1.2c-0.7-0.8-1-2-1-3.5
			c0-1.5,0.3-2.7,1-3.5s1.6-1.2,2.8-1.2c1.2,0,2.2,0.4,2.8,1.3h0.1l-0.1-0.7l0-0.6v-3.7h1.4v12.9h-1.1L380.7,1332.3z M378,1332.6
			c0.9,0,1.6-0.3,2-0.8c0.4-0.5,0.6-1.3,0.6-2.5v-0.3c0-1.3-0.2-2.2-0.6-2.8c-0.4-0.6-1.1-0.8-2.1-0.8c-0.8,0-1.4,0.3-1.9,0.9
			c-0.4,0.6-0.6,1.5-0.6,2.7c0,1.2,0.2,2,0.6,2.6S377.2,1332.6,378,1332.6z"/>
	</g>
	<g class="st3">
		<path class="st4" d="M287.9,1354.6c0.2,0,0.5,0,0.7-0.1s0.4-0.1,0.5-0.1v1.1c-0.1,0.1-0.4,0.1-0.7,0.2c-0.3,0-0.6,0.1-0.8,0.1
			c-1.8,0-2.6-0.9-2.6-2.8v-5.4h-1.3v-0.7l1.3-0.6l0.6-1.9h0.8v2.1h2.6v1.1h-2.6v5.4c0,0.5,0.1,1,0.4,1.3S287.4,1354.6,287.9,1354.6
			z"/>
		<path class="st4" d="M298.8,1351c0,1.5-0.4,2.6-1.1,3.5s-1.8,1.2-3.1,1.2c-0.8,0-1.5-0.2-2.2-0.6c-0.6-0.4-1.1-0.9-1.5-1.6
			c-0.3-0.7-0.5-1.5-0.5-2.5c0-1.5,0.4-2.6,1.1-3.5s1.8-1.2,3.1-1.2c1.3,0,2.3,0.4,3,1.3C298.4,1348.4,298.8,1349.6,298.8,1351z
			 M291.9,1351c0,1.2,0.2,2,0.7,2.7c0.5,0.6,1.1,0.9,2.1,0.9s1.6-0.3,2.1-0.9c0.5-0.6,0.7-1.5,0.7-2.7c0-1.2-0.2-2-0.7-2.6
			c-0.5-0.6-1.2-0.9-2.1-0.9c-0.9,0-1.6,0.3-2,0.9S291.9,1349.8,291.9,1351z"/>
		<path class="st4" d="M311.9,1355.6v-5.9c0-0.7-0.2-1.3-0.5-1.7s-0.9-0.5-1.6-0.5c-1,0-1.6,0.3-2.1,0.8s-0.7,1.4-0.7,2.5v4.8h-1.4
			v-9.1h1.1l0.2,1.2h0.1c0.3-0.4,0.7-0.8,1.2-1s1.1-0.4,1.7-0.4c1.1,0,1.9,0.3,2.5,0.8s0.8,1.4,0.8,2.5v5.9H311.9z"/>
		<path class="st4" d="M321.7,1355.6l-0.3-1.3h-0.1c-0.5,0.6-0.9,1-1.4,1.2c-0.5,0.2-1,0.3-1.7,0.3c-0.9,0-1.6-0.2-2.1-0.7
			c-0.5-0.5-0.8-1.1-0.8-2c0-1.8,1.5-2.8,4.4-2.9l1.5,0v-0.6c0-0.7-0.2-1.2-0.5-1.6c-0.3-0.3-0.8-0.5-1.5-0.5
			c-0.8,0-1.6,0.2-2.6,0.7l-0.4-1.1c0.4-0.2,0.9-0.4,1.5-0.6c0.5-0.1,1.1-0.2,1.6-0.2c1.1,0,1.9,0.2,2.4,0.7
			c0.5,0.5,0.8,1.3,0.8,2.3v6.2H321.7z M318.6,1354.6c0.9,0,1.5-0.2,2-0.7c0.5-0.5,0.7-1.1,0.7-2v-0.8l-1.4,0.1
			c-1.1,0-1.9,0.2-2.4,0.5c-0.5,0.3-0.7,0.8-0.7,1.4c0,0.5,0.2,0.9,0.5,1.1C317.6,1354.5,318,1354.6,318.6,1354.6z"/>
		<path class="st4" d="M327.5,1355.6l-3.5-9.1h1.5l2,5.4c0.4,1.3,0.7,2.1,0.8,2.5h0.1c0.1-0.3,0.3-0.9,0.6-1.8c0.3-0.9,1-2.9,2.2-6
			h1.5l-3.5,9.1H327.5z"/>
		<path class="st4" d="M333.9,1344c0-0.3,0.1-0.5,0.2-0.7s0.3-0.2,0.6-0.2c0.2,0,0.4,0.1,0.6,0.2s0.2,0.4,0.2,0.7
			c0,0.3-0.1,0.5-0.2,0.7s-0.4,0.2-0.6,0.2c-0.2,0-0.4-0.1-0.6-0.2S333.9,1344.3,333.9,1344z M335.4,1355.6H334v-9.1h1.4V1355.6z"/>
		<path class="st4" d="M345.8,1346.5v0.9l-1.7,0.2c0.2,0.2,0.3,0.4,0.4,0.8s0.2,0.7,0.2,1.1c0,0.9-0.3,1.6-0.9,2.1s-1.4,0.8-2.5,0.8
			c-0.3,0-0.5,0-0.8-0.1c-0.6,0.3-0.9,0.7-0.9,1.2c0,0.2,0.1,0.4,0.3,0.6s0.6,0.2,1.1,0.2h1.6c1,0,1.7,0.2,2.3,0.6
			c0.5,0.4,0.8,1,0.8,1.8c0,1-0.4,1.8-1.2,2.3s-2,0.8-3.5,0.8c-1.2,0-2.1-0.2-2.8-0.7c-0.6-0.4-1-1.1-1-1.9c0-0.6,0.2-1,0.5-1.4
			c0.4-0.4,0.9-0.7,1.5-0.8c-0.2-0.1-0.4-0.3-0.6-0.5c-0.2-0.2-0.2-0.5-0.2-0.8c0-0.3,0.1-0.6,0.3-0.9c0.2-0.2,0.5-0.5,0.8-0.7
			c-0.5-0.2-0.9-0.5-1.1-1c-0.3-0.5-0.4-1-0.4-1.6c0-1,0.3-1.8,0.9-2.3c0.6-0.5,1.4-0.8,2.5-0.8c0.5,0,0.9,0.1,1.3,0.2H345.8z
			 M338.5,1357.1c0,0.5,0.2,0.9,0.6,1.1c0.4,0.3,1,0.4,1.8,0.4c1.2,0,2-0.2,2.6-0.5c0.6-0.3,0.8-0.8,0.8-1.4c0-0.5-0.2-0.8-0.5-1
			c-0.3-0.2-0.9-0.3-1.7-0.3h-1.7c-0.6,0-1.1,0.1-1.5,0.4S338.5,1356.5,338.5,1357.1z M339.3,1349.4c0,0.6,0.2,1.1,0.5,1.4
			c0.4,0.3,0.9,0.5,1.5,0.5c1.3,0,2-0.7,2-2c0-1.4-0.7-2.1-2-2.1c-0.6,0-1.1,0.2-1.5,0.5S339.3,1348.7,339.3,1349.4z"/>
		<path class="st4" d="M353.3,1355.6l-0.3-1.3h-0.1c-0.5,0.6-0.9,1-1.4,1.2c-0.5,0.2-1,0.3-1.7,0.3c-0.9,0-1.6-0.2-2.1-0.7
			c-0.5-0.5-0.8-1.1-0.8-2c0-1.8,1.5-2.8,4.4-2.9l1.5,0v-0.6c0-0.7-0.2-1.2-0.5-1.6c-0.3-0.3-0.8-0.5-1.5-0.5
			c-0.8,0-1.6,0.2-2.6,0.7l-0.4-1.1c0.4-0.2,0.9-0.4,1.5-0.6c0.5-0.1,1.1-0.2,1.6-0.2c1.1,0,1.9,0.2,2.4,0.7
			c0.5,0.5,0.8,1.3,0.8,2.3v6.2H353.3z M350.1,1354.6c0.9,0,1.5-0.2,2-0.7c0.5-0.5,0.7-1.1,0.7-2v-0.8l-1.4,0.1
			c-1.1,0-1.9,0.2-2.4,0.5c-0.5,0.3-0.7,0.8-0.7,1.4c0,0.5,0.2,0.9,0.5,1.1C349.2,1354.5,349.6,1354.6,350.1,1354.6z"/>
		<path class="st4" d="M360.1,1354.6c0.2,0,0.5,0,0.7-0.1s0.4-0.1,0.5-0.1v1.1c-0.1,0.1-0.4,0.1-0.7,0.2c-0.3,0-0.6,0.1-0.8,0.1
			c-1.8,0-2.6-0.9-2.6-2.8v-5.4h-1.3v-0.7l1.3-0.6l0.6-1.9h0.8v2.1h2.6v1.1h-2.6v5.4c0,0.5,0.1,1,0.4,1.3S359.6,1354.6,360.1,1354.6
			z"/>
		<path class="st4" d="M367,1355.7c-1.3,0-2.4-0.4-3.2-1.2c-0.8-0.8-1.2-2-1.2-3.4c0-1.5,0.4-2.6,1.1-3.5c0.7-0.9,1.7-1.3,2.9-1.3
			c1.1,0,2,0.4,2.7,1.1s1,1.7,1,3v0.9H364c0,1.1,0.3,1.9,0.8,2.4c0.5,0.6,1.2,0.8,2.2,0.8c1,0,1.9-0.2,2.9-0.6v1.2
			c-0.5,0.2-0.9,0.4-1.4,0.5C368.1,1355.7,367.6,1355.7,367,1355.7z M366.6,1347.4c-0.7,0-1.3,0.2-1.7,0.7c-0.4,0.5-0.7,1.1-0.8,2
			h4.8c0-0.9-0.2-1.5-0.6-2S367.3,1347.4,366.6,1347.4z"/>
	</g>
	<g class="st3">
		<path class="st0" d="M1118.3,1239.5c0,3.2-1,5.9-2.9,8.2s-4.7,3.8-8.2,4.6v0.2c4.1,0.5,7.3,1.8,9.4,3.8s3.2,4.7,3.2,8.1
			c0,4.9-1.8,8.8-5.4,11.5s-8.7,4.1-15.4,4.1c-5.6,0-10.5-0.9-14.8-2.8v-9.2c2,1,4.2,1.8,6.6,2.5s4.8,0.9,7.1,0.9
			c3.6,0,6.2-0.6,7.9-1.8s2.6-3.2,2.6-5.9c0-2.4-1-4.1-3-5.1s-5.1-1.5-9.4-1.5h-3.9v-8.3h4c4,0,6.9-0.5,8.7-1.6s2.8-2.8,2.8-5.4
			c0-3.9-2.4-5.8-7.3-5.8c-1.7,0-3.4,0.3-5.2,0.8s-3.7,1.5-5.8,2.9l-5-7.5c4.7-3.4,10.3-5.1,16.8-5.1c5.3,0,9.5,1.1,12.6,3.2
			S1118.3,1235.6,1118.3,1239.5z"/>
		<path class="st0" d="M1130.6,1279.4l19.3-42.2h-25.3v-9.1h36.9v6.8l-19.4,44.5H1130.6z"/>
		<path class="st0" d="M1190.4,1243.3c0,5.4-1,9.4-3.1,12.1s-5.1,4.1-9.2,4.1c-3.9,0-6.9-1.4-9-4.2s-3.2-6.8-3.2-12
			c0-10.7,4-16.1,12.1-16.1c4,0,7,1.4,9.1,4.2S1190.4,1238.1,1190.4,1243.3z M1174.8,1243.4c0,3,0.3,5.2,0.8,6.7s1.4,2.2,2.5,2.2
			c2.2,0,3.4-3,3.4-8.9c0-5.9-1.1-8.8-3.4-8.8c-1.2,0-2,0.7-2.5,2.2S1174.8,1240.4,1174.8,1243.4z M1214.5,1228l-28.5,51.4h-8.4
			l28.5-51.4H1214.5z M1226.4,1263.8c0,5.4-1,9.4-3.1,12.1s-5.1,4.1-9.2,4.1c-3.9,0-6.9-1.4-9-4.2s-3.2-6.8-3.2-12
			c0-10.7,4-16.1,12.1-16.1c4,0,7,1.4,9.1,4.2S1226.4,1258.7,1226.4,1263.8z M1210.8,1263.9c0,3,0.3,5.2,0.8,6.7s1.4,2.2,2.5,2.2
			c2.2,0,3.4-3,3.4-8.9c0-5.9-1.1-8.8-3.4-8.8c-1.2,0-2,0.7-2.5,2.2S1210.8,1260.9,1210.8,1263.9z"/>
	</g>
	<g id="Group" transform="translate(2774 374.984)">
		<g class="st3">
			<path class="st4" d="M-1684.2,931.9c0,1.5-0.4,2.6-1.1,3.5c-0.7,0.8-1.8,1.2-3.1,1.2c-0.8,0-1.5-0.2-2.2-0.6
				c-0.6-0.4-1.1-0.9-1.5-1.6c-0.3-0.7-0.5-1.5-0.5-2.5c0-1.5,0.4-2.6,1.1-3.5c0.7-0.8,1.8-1.2,3.1-1.2c1.3,0,2.3,0.4,3,1.3
				C-1684.6,929.3-1684.2,930.5-1684.2,931.9z M-1691.1,931.9c0,1.2,0.2,2,0.7,2.7c0.5,0.6,1.1,0.9,2,0.9c0.9,0,1.6-0.3,2.1-0.9
				c0.5-0.6,0.7-1.5,0.7-2.7c0-1.2-0.2-2-0.7-2.6c-0.5-0.6-1.2-0.9-2.1-0.9c-0.9,0-1.6,0.3-2,0.9
				C-1690.9,929.9-1691.1,930.7-1691.1,931.9z"/>
			<path class="st4" d="M-1677.7,928.4h-2.3v8h-1.4v-8h-1.6v-0.6l1.6-0.5v-0.5c0-2.2,1-3.4,2.9-3.4c0.5,0,1,0.1,1.7,0.3l-0.4,1.1
				c-0.5-0.2-1-0.3-1.4-0.3c-0.5,0-0.9,0.2-1.2,0.5s-0.4,0.9-0.4,1.7v0.6h2.3V928.4z"/>
			<path class="st4" d="M-1670.3,927.4v5.9c0,0.7,0.2,1.3,0.5,1.7c0.3,0.4,0.9,0.5,1.6,0.5c1,0,1.6-0.3,2.1-0.8
				c0.4-0.5,0.7-1.4,0.7-2.5v-4.8h1.4v9.1h-1.1l-0.2-1.2h-0.1c-0.3,0.4-0.7,0.8-1.2,1c-0.5,0.2-1.1,0.4-1.7,0.4
				c-1.1,0-1.9-0.3-2.5-0.8c-0.6-0.5-0.8-1.4-0.8-2.5v-6H-1670.3z"/>
			<path class="st4" d="M-1655.3,934c0,0.8-0.3,1.5-0.9,2s-1.5,0.7-2.7,0.7c-1.2,0-2.1-0.2-2.8-0.6v-1.3c0.4,0.2,0.9,0.4,1.4,0.5
				c0.5,0.1,1,0.2,1.4,0.2c0.7,0,1.3-0.1,1.7-0.3c0.4-0.2,0.6-0.6,0.6-1c0-0.4-0.2-0.7-0.5-0.9c-0.3-0.3-0.9-0.5-1.8-0.9
				c-0.8-0.3-1.4-0.6-1.8-0.8c-0.4-0.2-0.6-0.5-0.8-0.8c-0.2-0.3-0.3-0.7-0.3-1.1c0-0.7,0.3-1.3,0.9-1.8c0.6-0.4,1.4-0.6,2.5-0.6
				c1,0,1.9,0.2,2.9,0.6l-0.5,1.1c-0.9-0.4-1.7-0.6-2.5-0.6c-0.7,0-1.1,0.1-1.5,0.3s-0.5,0.5-0.5,0.8c0,0.2,0.1,0.5,0.2,0.6
				c0.1,0.2,0.3,0.3,0.6,0.5c0.3,0.2,0.8,0.4,1.6,0.7c1.1,0.4,1.8,0.8,2.2,1.2C-1655.5,932.9-1655.3,933.4-1655.3,934z"/>
			<path class="st4" d="M-1649.2,936.6c-1.3,0-2.4-0.4-3.2-1.2c-0.8-0.8-1.2-2-1.2-3.4c0-1.5,0.4-2.6,1.1-3.5
				c0.7-0.9,1.7-1.3,2.9-1.3c1.1,0,2,0.4,2.7,1.1s1,1.7,1,3v0.9h-6.3c0,1.1,0.3,1.9,0.8,2.4c0.5,0.6,1.2,0.8,2.2,0.8
				c1,0,1.9-0.2,2.9-0.6v1.2c-0.5,0.2-0.9,0.4-1.4,0.5C-1648.1,936.6-1648.6,936.6-1649.2,936.6z M-1649.6,928.4
				c-0.7,0-1.3,0.2-1.7,0.7c-0.4,0.5-0.7,1.1-0.8,2h4.8c0-0.9-0.2-1.5-0.6-2C-1648.3,928.6-1648.9,928.4-1649.6,928.4z"/>
			<path class="st4" d="M-1639.4,927.2c0.4,0,0.8,0,1.1,0.1l-0.2,1.3c-0.4-0.1-0.7-0.1-1-0.1c-0.7,0-1.4,0.3-1.9,0.9
				c-0.5,0.6-0.8,1.3-0.8,2.2v4.9h-1.4v-9.1h1.1l0.2,1.7h0.1c0.3-0.6,0.7-1,1.2-1.4C-1640.5,927.4-1640,927.2-1639.4,927.2z"/>
			<path class="st4" d="M-1630.7,934c0,0.8-0.3,1.5-0.9,2s-1.5,0.7-2.7,0.7c-1.2,0-2.1-0.2-2.8-0.6v-1.3c0.4,0.2,0.9,0.4,1.4,0.5
				c0.5,0.1,1,0.2,1.4,0.2c0.7,0,1.3-0.1,1.7-0.3c0.4-0.2,0.6-0.6,0.6-1c0-0.4-0.2-0.7-0.5-0.9c-0.3-0.3-0.9-0.5-1.8-0.9
				c-0.8-0.3-1.4-0.6-1.8-0.8c-0.4-0.2-0.6-0.5-0.8-0.8c-0.2-0.3-0.3-0.7-0.3-1.1c0-0.7,0.3-1.3,0.9-1.8c0.6-0.4,1.4-0.6,2.5-0.6
				c1,0,1.9,0.2,2.9,0.6l-0.5,1.1c-0.9-0.4-1.7-0.6-2.5-0.6c-0.7,0-1.1,0.1-1.5,0.3s-0.5,0.5-0.5,0.8c0,0.2,0.1,0.5,0.2,0.6
				c0.1,0.2,0.3,0.3,0.6,0.5c0.3,0.2,0.8,0.4,1.6,0.7c1.1,0.4,1.8,0.8,2.2,1.2C-1630.9,932.9-1630.7,933.4-1630.7,934z"/>
			<path class="st4" d="M-1620,928.4h-2.3v8h-1.4v-8h-1.6v-0.6l1.6-0.5v-0.5c0-2.2,1-3.4,2.9-3.4c0.5,0,1,0.1,1.7,0.3l-0.4,1.1
				c-0.5-0.2-1-0.3-1.4-0.3c-0.5,0-0.9,0.2-1.2,0.5s-0.4,0.9-0.4,1.7v0.6h2.3V928.4z M-1618.4,924.9c0-0.3,0.1-0.5,0.2-0.7
				c0.2-0.1,0.3-0.2,0.6-0.2c0.2,0,0.4,0.1,0.6,0.2c0.2,0.1,0.2,0.4,0.2,0.7c0,0.3-0.1,0.5-0.2,0.7c-0.2,0.2-0.4,0.2-0.6,0.2
				c-0.2,0-0.4-0.1-0.6-0.2C-1618.3,925.5-1618.4,925.2-1618.4,924.9z M-1616.9,936.5h-1.4v-9.1h1.4V936.5z"/>
			<path class="st4" d="M-1607.8,936.5v-5.9c0-0.7-0.2-1.3-0.5-1.7c-0.3-0.4-0.9-0.5-1.6-0.5c-1,0-1.6,0.3-2.1,0.8
				c-0.4,0.5-0.7,1.4-0.7,2.5v4.8h-1.4v-9.1h1.1l0.2,1.2h0.1c0.3-0.4,0.7-0.8,1.2-1c0.5-0.2,1.1-0.4,1.7-0.4c1.1,0,1.9,0.3,2.5,0.8
				c0.6,0.5,0.8,1.4,0.8,2.5v5.9H-1607.8z"/>
			<path class="st4" d="M-1597.4,935.3L-1597.4,935.3c-0.7,0.9-1.7,1.4-2.9,1.4c-1.2,0-2.1-0.4-2.8-1.2c-0.7-0.8-1-2-1-3.5
				c0-1.5,0.3-2.7,1-3.5s1.6-1.2,2.8-1.2c1.2,0,2.2,0.4,2.8,1.3h0.1l-0.1-0.7l0-0.6v-3.7h1.4v12.9h-1.1L-1597.4,935.3z
				 M-1600.1,935.5c0.9,0,1.6-0.3,2-0.8c0.4-0.5,0.6-1.3,0.6-2.5V932c0-1.3-0.2-2.2-0.6-2.8s-1.1-0.8-2.1-0.8
				c-0.8,0-1.4,0.3-1.9,0.9c-0.4,0.6-0.6,1.5-0.6,2.7c0,1.2,0.2,2,0.6,2.6C-1601.6,935.2-1601,935.5-1600.1,935.5z"/>
			<path class="st4" d="M-1585.8,935.5c0.2,0,0.5,0,0.7-0.1c0.2,0,0.4-0.1,0.5-0.1v1.1c-0.1,0.1-0.4,0.1-0.7,0.2
				c-0.3,0-0.6,0.1-0.8,0.1c-1.8,0-2.6-0.9-2.6-2.8v-5.4h-1.3v-0.7l1.3-0.6l0.6-1.9h0.8v2.1h2.6v1.1h-2.6v5.4c0,0.5,0.1,1,0.4,1.3
				C-1586.6,935.4-1586.3,935.5-1585.8,935.5z"/>
			<path class="st4" d="M-1576.5,936.5v-5.9c0-0.7-0.2-1.3-0.5-1.7c-0.3-0.4-0.9-0.5-1.6-0.5c-1,0-1.7,0.3-2.1,0.8
				c-0.4,0.5-0.7,1.4-0.7,2.6v4.8h-1.4v-12.9h1.4v3.9c0,0.5,0,0.9-0.1,1.2h0.1c0.3-0.4,0.7-0.8,1.2-1s1.1-0.4,1.7-0.4
				c1.1,0,1.9,0.3,2.5,0.8c0.6,0.5,0.8,1.4,0.8,2.5v5.9H-1576.5z"/>
			<path class="st4" d="M-1568.5,936.6c-1.3,0-2.4-0.4-3.2-1.2c-0.8-0.8-1.2-2-1.2-3.4c0-1.5,0.4-2.6,1.1-3.5
				c0.7-0.9,1.7-1.3,2.9-1.3c1.1,0,2,0.4,2.7,1.1s1,1.7,1,3v0.9h-6.3c0,1.1,0.3,1.9,0.8,2.4c0.5,0.6,1.2,0.8,2.2,0.8
				c1,0,1.9-0.2,2.9-0.6v1.2c-0.5,0.2-0.9,0.4-1.4,0.5C-1567.3,936.6-1567.8,936.6-1568.5,936.6z M-1568.8,928.4
				c-0.7,0-1.3,0.2-1.7,0.7c-0.4,0.5-0.7,1.1-0.8,2h4.8c0-0.9-0.2-1.5-0.6-2C-1567.6,928.6-1568.1,928.4-1568.8,928.4z"/>
		</g>
		<g class="st3">
			<path class="st4" d="M-1686.2,956c0,0.8-0.3,1.5-0.9,2s-1.5,0.7-2.7,0.7c-1.2,0-2.1-0.2-2.8-0.6v-1.3c0.4,0.2,0.9,0.4,1.4,0.5
				s1,0.2,1.4,0.2c0.7,0,1.3-0.1,1.7-0.3c0.4-0.2,0.6-0.6,0.6-1c0-0.4-0.2-0.7-0.5-0.9c-0.3-0.3-0.9-0.5-1.8-0.9
				c-0.8-0.3-1.4-0.6-1.8-0.8c-0.4-0.2-0.6-0.5-0.8-0.8c-0.2-0.3-0.3-0.7-0.3-1.1c0-0.7,0.3-1.3,0.9-1.8c0.6-0.4,1.4-0.6,2.5-0.6
				c1,0,1.9,0.2,2.9,0.6l-0.5,1.1c-0.9-0.4-1.7-0.6-2.5-0.6c-0.7,0-1.1,0.1-1.5,0.3s-0.5,0.5-0.5,0.8c0,0.2,0.1,0.5,0.2,0.6
				c0.1,0.2,0.3,0.3,0.6,0.5c0.3,0.2,0.8,0.4,1.6,0.7c1.1,0.4,1.8,0.8,2.2,1.2S-1686.2,955.4-1686.2,956z"/>
			<path class="st4" d="M-1684,946.9c0-0.3,0.1-0.5,0.2-0.7c0.2-0.1,0.3-0.2,0.6-0.2c0.2,0,0.4,0.1,0.6,0.2c0.2,0.1,0.2,0.4,0.2,0.7
				c0,0.3-0.1,0.5-0.2,0.7c-0.2,0.2-0.4,0.2-0.6,0.2c-0.2,0-0.4-0.1-0.6-0.2C-1684,947.5-1684,947.2-1684,946.9z M-1682.5,958.5
				h-1.4v-9.1h1.4V958.5z"/>
			<path class="st4" d="M-1676.7,957.5c0.2,0,0.5,0,0.7-0.1c0.2,0,0.4-0.1,0.5-0.1v1.1c-0.1,0.1-0.4,0.1-0.7,0.2
				c-0.3,0-0.6,0.1-0.8,0.1c-1.8,0-2.6-0.9-2.6-2.8v-5.4h-1.3v-0.7l1.3-0.6l0.6-1.9h0.8v2.1h2.6v1.1h-2.6v5.4c0,0.5,0.1,1,0.4,1.3
				C-1677.5,957.4-1677.1,957.5-1676.7,957.5z"/>
			<path class="st4" d="M-1669.8,958.6c-1.3,0-2.4-0.4-3.2-1.2c-0.8-0.8-1.2-2-1.2-3.4c0-1.5,0.4-2.6,1.1-3.5
				c0.7-0.9,1.7-1.3,2.9-1.3c1.1,0,2,0.4,2.7,1.1s1,1.7,1,3v0.9h-6.3c0,1.1,0.3,1.9,0.8,2.4c0.5,0.6,1.2,0.8,2.2,0.8
				c1,0,1.9-0.2,2.9-0.6v1.2c-0.5,0.2-0.9,0.4-1.4,0.5C-1668.6,958.6-1669.2,958.6-1669.8,958.6z M-1670.2,950.4
				c-0.7,0-1.3,0.2-1.7,0.7c-0.4,0.5-0.7,1.1-0.8,2h4.8c0-0.9-0.2-1.5-0.6-2C-1668.9,950.6-1669.4,950.4-1670.2,950.4z"/>
			<path class="st4" d="M-1655.8,958.6c-1.3,0-2.4-0.4-3.2-1.2c-0.8-0.8-1.2-2-1.2-3.4c0-1.5,0.4-2.6,1.1-3.5
				c0.7-0.9,1.7-1.3,2.9-1.3c1.1,0,2,0.4,2.7,1.1s1,1.7,1,3v0.9h-6.3c0,1.1,0.3,1.9,0.8,2.4c0.5,0.6,1.2,0.8,2.2,0.8
				c1,0,1.9-0.2,2.9-0.6v1.2c-0.5,0.2-0.9,0.4-1.4,0.5C-1654.7,958.6-1655.2,958.6-1655.8,958.6z M-1656.2,950.4
				c-0.7,0-1.3,0.2-1.7,0.7s-0.7,1.1-0.8,2h4.8c0-0.9-0.2-1.5-0.6-2C-1654.9,950.6-1655.5,950.4-1656.2,950.4z"/>
			<path class="st4" d="M-1644.5,958.5l-0.3-1.3h-0.1c-0.5,0.6-0.9,1-1.4,1.2c-0.5,0.2-1,0.3-1.7,0.3c-0.9,0-1.6-0.2-2.1-0.7
				s-0.8-1.1-0.8-2c0-1.8,1.5-2.8,4.4-2.9l1.5,0v-0.6c0-0.7-0.2-1.2-0.5-1.6c-0.3-0.3-0.8-0.5-1.5-0.5c-0.8,0-1.6,0.2-2.6,0.7
				l-0.4-1.1c0.4-0.2,0.9-0.4,1.5-0.6c0.5-0.1,1.1-0.2,1.6-0.2c1.1,0,1.9,0.2,2.4,0.7c0.5,0.5,0.8,1.3,0.8,2.3v6.2H-1644.5z
				 M-1647.6,957.5c0.9,0,1.5-0.2,2-0.7c0.5-0.5,0.7-1.1,0.7-2V954l-1.4,0.1c-1.1,0-1.9,0.2-2.4,0.5c-0.5,0.3-0.7,0.8-0.7,1.4
				c0,0.5,0.2,0.9,0.5,1.1S-1648.2,957.5-1647.6,957.5z"/>
			<path class="st4" d="M-1634.8,956c0,0.8-0.3,1.5-0.9,2s-1.5,0.7-2.7,0.7c-1.2,0-2.1-0.2-2.8-0.6v-1.3c0.4,0.2,0.9,0.4,1.4,0.5
				c0.5,0.1,1,0.2,1.4,0.2c0.7,0,1.3-0.1,1.7-0.3c0.4-0.2,0.6-0.6,0.6-1c0-0.4-0.2-0.7-0.5-0.9c-0.3-0.3-0.9-0.5-1.8-0.9
				c-0.8-0.3-1.4-0.6-1.8-0.8c-0.4-0.2-0.6-0.5-0.8-0.8c-0.2-0.3-0.3-0.7-0.3-1.1c0-0.7,0.3-1.3,0.9-1.8c0.6-0.4,1.4-0.6,2.5-0.6
				c1,0,1.9,0.2,2.9,0.6l-0.5,1.1c-0.9-0.4-1.7-0.6-2.5-0.6c-0.7,0-1.1,0.1-1.5,0.3s-0.5,0.5-0.5,0.8c0,0.2,0.1,0.5,0.2,0.6
				c0.1,0.2,0.3,0.3,0.6,0.5c0.3,0.2,0.8,0.4,1.6,0.7c1.1,0.4,1.8,0.8,2.2,1.2C-1635,954.9-1634.8,955.4-1634.8,956z"/>
			<path class="st4" d="M-1634,949.4h1.5l2,5.2c0.4,1.2,0.7,2,0.8,2.6h0.1c0.1-0.3,0.2-0.8,0.5-1.4s1-2.8,2.3-6.3h1.5l-3.9,10.4
				c-0.4,1-0.8,1.8-1.4,2.2c-0.5,0.4-1.2,0.6-1.9,0.6c-0.4,0-0.8,0-1.2-0.1v-1.1c0.3,0.1,0.6,0.1,1,0.1c0.9,0,1.6-0.5,2-1.6l0.5-1.3
				L-1634,949.4z"/>
			<path class="st4" d="M-1616.6,957.5c0.2,0,0.5,0,0.7-0.1c0.2,0,0.4-0.1,0.5-0.1v1.1c-0.1,0.1-0.4,0.1-0.7,0.2
				c-0.3,0-0.6,0.1-0.8,0.1c-1.8,0-2.6-0.9-2.6-2.8v-5.4h-1.3v-0.7l1.3-0.6l0.6-1.9h0.8v2.1h2.6v1.1h-2.6v5.4c0,0.5,0.1,1,0.4,1.3
				C-1617.5,957.4-1617.1,957.5-1616.6,957.5z"/>
			<path class="st4" d="M-1605.7,953.9c0,1.5-0.4,2.6-1.1,3.5c-0.7,0.8-1.8,1.2-3.1,1.2c-0.8,0-1.5-0.2-2.2-0.6
				c-0.6-0.4-1.1-0.9-1.5-1.6c-0.3-0.7-0.5-1.5-0.5-2.5c0-1.5,0.4-2.6,1.1-3.5c0.7-0.8,1.8-1.2,3.1-1.2c1.3,0,2.3,0.4,3,1.3
				C-1606.1,951.3-1605.7,952.5-1605.7,953.9z M-1612.7,953.9c0,1.2,0.2,2,0.7,2.7c0.5,0.6,1.1,0.9,2,0.9c0.9,0,1.6-0.3,2.1-0.9
				c0.5-0.6,0.7-1.5,0.7-2.7c0-1.2-0.2-2-0.7-2.6c-0.5-0.6-1.2-0.9-2.1-0.9c-0.9,0-1.6,0.3-2,0.9
				C-1612.4,951.9-1612.7,952.7-1612.7,953.9z"/>
		</g>
		<g class="st3">
			<path class="st4" d="M-1685.8,980.5v-5.9c0-0.7-0.2-1.3-0.5-1.7c-0.3-0.4-0.9-0.5-1.6-0.5c-1,0-1.6,0.3-2.1,0.8
				c-0.4,0.5-0.7,1.4-0.7,2.5v4.8h-1.4v-9.1h1.1l0.2,1.2h0.1c0.3-0.4,0.7-0.8,1.2-1c0.5-0.2,1.1-0.4,1.7-0.4c1.1,0,1.9,0.3,2.5,0.8
				c0.6,0.5,0.8,1.4,0.8,2.5v5.9H-1685.8z"/>
			<path class="st4" d="M-1676,980.5l-0.3-1.3h-0.1c-0.5,0.6-0.9,1-1.4,1.2c-0.5,0.2-1,0.3-1.7,0.3c-0.9,0-1.6-0.2-2.1-0.7
				c-0.5-0.5-0.8-1.1-0.8-2c0-1.8,1.5-2.8,4.4-2.9l1.5,0v-0.6c0-0.7-0.2-1.2-0.5-1.6c-0.3-0.3-0.8-0.5-1.5-0.5
				c-0.8,0-1.6,0.2-2.6,0.7l-0.4-1.1c0.4-0.2,0.9-0.4,1.5-0.6c0.5-0.1,1.1-0.2,1.6-0.2c1.1,0,1.9,0.2,2.4,0.7
				c0.5,0.5,0.8,1.3,0.8,2.3v6.2H-1676z M-1679.1,979.5c0.9,0,1.5-0.2,2-0.7c0.5-0.5,0.7-1.1,0.7-2V976l-1.4,0.1
				c-1.1,0-1.9,0.2-2.4,0.5c-0.5,0.3-0.7,0.8-0.7,1.4c0,0.5,0.2,0.9,0.5,1.1C-1680.1,979.4-1679.6,979.5-1679.1,979.5z"/>
			<path class="st4" d="M-1670.1,980.5l-3.5-9.1h1.5l2,5.4c0.4,1.3,0.7,2.1,0.8,2.5h0.1c0.1-0.3,0.3-0.9,0.6-1.8
				c0.3-0.9,1-2.9,2.2-6h1.5l-3.5,9.1H-1670.1z"/>
			<path class="st4" d="M-1663.7,968.9c0-0.3,0.1-0.5,0.2-0.7c0.2-0.1,0.3-0.2,0.6-0.2c0.2,0,0.4,0.1,0.6,0.2
				c0.2,0.1,0.2,0.4,0.2,0.7c0,0.3-0.1,0.5-0.2,0.7c-0.2,0.2-0.4,0.2-0.6,0.2c-0.2,0-0.4-0.1-0.6-0.2
				C-1663.6,969.5-1663.7,969.2-1663.7,968.9z M-1662.2,980.5h-1.4v-9.1h1.4V980.5z"/>
			<path class="st4" d="M-1651.9,971.4v0.9l-1.7,0.2c0.2,0.2,0.3,0.4,0.4,0.8c0.1,0.3,0.2,0.7,0.2,1.1c0,0.9-0.3,1.6-0.9,2.1
				c-0.6,0.5-1.4,0.8-2.5,0.8c-0.3,0-0.5,0-0.8-0.1c-0.6,0.3-0.9,0.7-0.9,1.2c0,0.2,0.1,0.4,0.3,0.6c0.2,0.1,0.6,0.2,1.1,0.2h1.6
				c1,0,1.7,0.2,2.3,0.6c0.5,0.4,0.8,1,0.8,1.8c0,1-0.4,1.8-1.2,2.3c-0.8,0.5-2,0.8-3.5,0.8c-1.2,0-2.1-0.2-2.8-0.7
				c-0.6-0.4-1-1.1-1-1.9c0-0.6,0.2-1,0.5-1.4c0.4-0.4,0.9-0.7,1.5-0.8c-0.2-0.1-0.4-0.3-0.6-0.5c-0.2-0.2-0.2-0.5-0.2-0.8
				c0-0.3,0.1-0.6,0.3-0.9c0.2-0.2,0.5-0.5,0.8-0.7c-0.5-0.2-0.9-0.5-1.1-1s-0.4-1-0.4-1.6c0-1,0.3-1.8,0.9-2.3s1.4-0.8,2.5-0.8
				c0.5,0,0.9,0.1,1.3,0.2H-1651.9z M-1659.1,982c0,0.5,0.2,0.9,0.6,1.1c0.4,0.3,1,0.4,1.8,0.4c1.2,0,2-0.2,2.6-0.5
				c0.6-0.3,0.8-0.8,0.8-1.4c0-0.5-0.2-0.8-0.5-1c-0.3-0.2-0.9-0.3-1.7-0.3h-1.7c-0.6,0-1.1,0.1-1.5,0.4S-1659.1,981.4-1659.1,982z
				 M-1658.4,974.3c0,0.6,0.2,1.1,0.5,1.4c0.4,0.3,0.9,0.5,1.5,0.5c1.3,0,2-0.7,2-2c0-1.4-0.7-2.1-2-2.1c-0.6,0-1.1,0.2-1.5,0.5
				C-1658.2,973.1-1658.4,973.6-1658.4,974.3z"/>
			<path class="st4" d="M-1644.4,980.5l-0.3-1.3h-0.1c-0.5,0.6-0.9,1-1.4,1.2c-0.5,0.2-1,0.3-1.7,0.3c-0.9,0-1.6-0.2-2.1-0.7
				s-0.8-1.1-0.8-2c0-1.8,1.5-2.8,4.4-2.9l1.5,0v-0.6c0-0.7-0.2-1.2-0.5-1.6c-0.3-0.3-0.8-0.5-1.5-0.5c-0.8,0-1.6,0.2-2.6,0.7
				l-0.4-1.1c0.4-0.2,0.9-0.4,1.5-0.6c0.5-0.1,1.1-0.2,1.6-0.2c1.1,0,1.9,0.2,2.4,0.7c0.5,0.5,0.8,1.3,0.8,2.3v6.2H-1644.4z
				 M-1647.5,979.5c0.9,0,1.5-0.2,2-0.7c0.5-0.5,0.7-1.1,0.7-2V976l-1.4,0.1c-1.1,0-1.9,0.2-2.4,0.5c-0.5,0.3-0.7,0.8-0.7,1.4
				c0,0.5,0.2,0.9,0.5,1.1S-1648,979.5-1647.5,979.5z"/>
			<path class="st4" d="M-1637.6,979.5c0.2,0,0.5,0,0.7-0.1c0.2,0,0.4-0.1,0.5-0.1v1.1c-0.1,0.1-0.4,0.1-0.7,0.2
				c-0.3,0-0.6,0.1-0.8,0.1c-1.8,0-2.6-0.9-2.6-2.8v-5.4h-1.3v-0.7l1.3-0.6l0.6-1.9h0.8v2.1h2.6v1.1h-2.6v5.4c0,0.5,0.1,1,0.4,1.3
				C-1638.4,979.4-1638,979.5-1637.6,979.5z"/>
			<path class="st4" d="M-1630.7,980.6c-1.3,0-2.4-0.4-3.2-1.2c-0.8-0.8-1.2-2-1.2-3.4c0-1.5,0.4-2.6,1.1-3.5
				c0.7-0.9,1.7-1.3,2.9-1.3c1.1,0,2,0.4,2.7,1.1s1,1.7,1,3v0.9h-6.3c0,1.1,0.3,1.9,0.8,2.4c0.5,0.6,1.2,0.8,2.2,0.8
				c1,0,1.9-0.2,2.9-0.6v1.2c-0.5,0.2-0.9,0.4-1.4,0.5C-1629.5,980.6-1630.1,980.6-1630.7,980.6z M-1631.1,972.4
				c-0.7,0-1.3,0.2-1.7,0.7c-0.4,0.5-0.7,1.1-0.8,2h4.8c0-0.9-0.2-1.5-0.6-2C-1629.8,972.6-1630.3,972.4-1631.1,972.4z"/>
		</g>
	</g>
	<path id="Path_3945" class="st5" d="M410.6,1247.2h-11.9v42H285.6"/>
	<g id="Group_4239" transform="translate(2774 374.984)">
		<circle id="Ellipse_38" class="st1" cx="-1717.4" cy="942" r="4"/>
	</g>
	<path id="Path_3946" class="st6" d="M1060.6,1317l11.6,0l0.1-30l154.3,0.4"/>
</g>
</svg>
