<svg xmlns="http://www.w3.org/2000/svg" width="399.365" height="310.99" viewBox="0 0 399.365 310.99">
  <g id="Group_4744" data-name="Group 4744" transform="translate(-288 -838.805)">
    <g id="Group_4331" data-name="Group 4331" transform="translate(-174 380.184)">
      <path id="Path_4048" data-name="Path 4048" d="M493,603.184v25h50" fill="none" stroke="#86c599" stroke-linecap="round" stroke-linejoin="round" stroke-width="1" fill-rule="evenodd"/>
      <circle id="Ellipse_69" data-name="Ellipse 69" cx="4" cy="4" r="4" transform="translate(541 624.184)" fill="#86c599"/>
    </g>
    <path id="Path_4049" data-name="Path 4049" stroke="#86c599" d="M742.886,510.914h-25v50" fill="none" transform="translate(-174 380.184)" stroke-linecap="round" stroke-linejoin="round" stroke-width="1" fill-rule="evenodd"/>
    <circle id="Ellipse_70" data-name="Ellipse 70" cx="4" cy="4" r="4" transform="translate(539.886 939.097)" fill="#86c599"/>
    <path id="Path_4050" data-name="Path 4050" stroke="#86c599" d="M570.886,510.914h25v50" fill="none" transform="translate(-174 380.184)" stroke-linecap="round" stroke-linejoin="round" stroke-width="1" fill-rule="evenodd"/>
    <circle id="Ellipse_71" data-name="Ellipse 71" cx="4" cy="4" r="4" transform="translate(417.886 939.097)" fill="#86c599"/>
    <line id="Line_232" data-name="Line 232" y2="59.73" transform="translate(488.373 881.367)" fill="none" stroke="#86c599" stroke-linecap="round" stroke-linejoin="round" stroke-width="1"/>
    <circle id="Ellipse_72" data-name="Ellipse 72" cx="4" cy="4" r="4" transform="translate(484.373 939.097)" fill="#86c599"/>
    <g id="Group_4332" data-name="Group 4332" transform="translate(-174 380.184)">
      <line id="Line_233" data-name="Line 233" x2="50" transform="translate(493 678.266)" fill="none" stroke="#86c599" stroke-linecap="round" stroke-linejoin="round" stroke-width="1"/>
      <circle id="Ellipse_73" data-name="Ellipse 73" cx="4" cy="4" r="4" transform="translate(541 674.266)" fill="#86c599"/>
    </g>
    <g id="Group_4333" data-name="Group 4333" transform="translate(-174 380.184)">
      <path id="Path_4051" data-name="Path 4051" d="M831,603.184v25H781" fill="none" stroke="#86c599" stroke-linecap="round" stroke-linejoin="round" stroke-width="1" fill-rule="evenodd"/>
      <circle id="Ellipse_74" data-name="Ellipse 74" cx="4" cy="4" r="4" transform="translate(775 624.184)" fill="#86c599"/>
    </g>
    <g id="Group_4334" data-name="Group 4334" transform="translate(-174 380.184)">
      <line id="Line_234" data-name="Line 234" x1="50" transform="translate(781 678.266)" fill="none" stroke="#86c599" stroke-linecap="round" stroke-linejoin="round" stroke-width="1"/>
      <circle id="Ellipse_75" data-name="Ellipse 75" cx="4" cy="4" r="4" transform="translate(775 674.266)" fill="#86c599"/>
    </g>
    <path id="Path_4052" data-name="Path 4052" d="M605.626,756.609h-1.714l-8.547,9.47a2.111,2.111,0,0,0,1.528,3.532H735.2a2.112,2.112,0,0,0,1.528-3.532l-7.686-8.814h-1.666" transform="translate(-174 380.184)" fill="#c8e5d1"/>
    <g id="Group_4335" data-name="Group 4335" transform="translate(-174 380.184)">
      <path id="Path_4053" data-name="Path 4053" d="M645.682,686.316v20.435h12.026a8.409,8.409,0,0,1,16.817,0h12.027V686.316Z" fill="#c8e5d1"/>
    </g>
    <path id="Path_4054" data-name="Path 4054" d="M618.9,734.867v-7.681h94.51v7.681" transform="translate(-174 380.184)" fill="none" stroke="#239546" stroke-linecap="round" stroke-linejoin="round" stroke-width="3"/>
    <line id="Line_235" data-name="Line 235" y1="25.721" transform="translate(471.682 1074.074)" fill="none" stroke="#239546" stroke-linecap="round" stroke-linejoin="round" stroke-width="3"/>
    <line id="Line_236" data-name="Line 236" y2="25.721" transform="translate(512.552 1074.074)" fill="none" stroke="#239546" stroke-linecap="round" stroke-linejoin="round" stroke-width="3"/>
    <circle id="Ellipse_76" data-name="Ellipse 76" cx="8.274" cy="8.274" r="8.274" transform="translate(483.842 1078.66)" stroke-width="3" stroke="#239546" stroke-linecap="round" stroke-linejoin="round" fill="none"/>
    <g id="Group_4336" data-name="Group 4336" transform="translate(-174 380.184)">
      <path id="Path_4055" data-name="Path 4055" d="M752.646,759.655c-5.949,0-10.978-3.428-12.634-6.682a3.715,3.715,0,0,0-.578,1.947c0,3.666,5.915,8.826,13.212,8.826s13.212-5.16,13.212-8.826a3.707,3.707,0,0,0-.579-1.947C763.623,756.227,758.594,759.655,752.646,759.655Z" fill="#c8e5d1"/>
    </g>
    <path id="Path_4056" data-name="Path 4056" d="M764.91,750.606c0,3.4-5.491,8.193-12.264,8.193s-12.265-4.789-12.265-8.193,5.491-6.163,12.265-6.163S764.91,747.2,764.91,750.606Z" transform="translate(-174 380.184)" fill="none" stroke="#239546" stroke-linecap="round" stroke-linejoin="round" stroke-width="3"/>
    <g id="Group_4337" data-name="Group 4337" transform="translate(-174 380.184)">
      <path id="Path_4057" data-name="Path 4057" d="M731.822,755.629l-18.393-20.762H618.8l-18.393,20.762Z" fill="none" stroke="#239546" stroke-linecap="round" stroke-linejoin="round" stroke-width="3"/>
    </g>
    <g id="Group_4340" data-name="Group 4340" transform="translate(-174 380.184)">
      <line id="Line_237" data-name="Line 237" x2="18.458" transform="translate(656.614 748.697)" fill="none" stroke="#239546" stroke-linecap="round" stroke-linejoin="round" stroke-width="3"/>
      <g id="Group_4339" data-name="Group 4339">
        <g id="Group_4338" data-name="Group 4338">
          <line id="Line_238" data-name="Line 238" x2="5.104" transform="translate(622.571 741.821)" fill="none" stroke="#239546" stroke-linecap="round" stroke-linejoin="round" stroke-width="3"/>
          <line id="Line_239" data-name="Line 239" x2="5.104" transform="translate(634.284 741.821)" fill="none" stroke="#239546" stroke-linecap="round" stroke-linejoin="round" stroke-width="3"/>
          <line id="Line_240" data-name="Line 240" x2="5.104" transform="translate(645.996 741.821)" fill="none" stroke="#239546" stroke-linecap="round" stroke-linejoin="round" stroke-width="3"/>
          <line id="Line_241" data-name="Line 241" x2="5.104" transform="translate(657.708 741.821)" fill="none" stroke="#239546" stroke-linecap="round" stroke-linejoin="round" stroke-width="3"/>
          <line id="Line_242" data-name="Line 242" x2="5.104" transform="translate(669.421 741.821)" fill="none" stroke="#239546" stroke-linecap="round" stroke-linejoin="round" stroke-width="3"/>
          <line id="Line_243" data-name="Line 243" x2="5.104" transform="translate(681.133 741.821)" fill="none" stroke="#239546" stroke-linecap="round" stroke-linejoin="round" stroke-width="3"/>
          <line id="Line_244" data-name="Line 244" x2="5.104" transform="translate(692.845 741.821)" fill="none" stroke="#239546" stroke-linecap="round" stroke-linejoin="round" stroke-width="3"/>
          <line id="Line_245" data-name="Line 245" x2="5.104" transform="translate(704.558 741.821)" fill="none" stroke="#239546" stroke-linecap="round" stroke-linejoin="round" stroke-width="3"/>
        </g>
        <line id="Line_246" data-name="Line 246" x2="5.769" transform="translate(616.905 748.697)" fill="none" stroke="#239546" stroke-linecap="round" stroke-linejoin="round" stroke-width="3"/>
        <line id="Line_247" data-name="Line 247" x2="5.769" transform="translate(630.141 748.697)" fill="none" stroke="#239546" stroke-linecap="round" stroke-linejoin="round" stroke-width="3"/>
        <line id="Line_248" data-name="Line 248" x2="5.769" transform="translate(643.378 748.697)" fill="none" stroke="#239546" stroke-linecap="round" stroke-linejoin="round" stroke-width="3"/>
        <line id="Line_249" data-name="Line 249" x2="5.769" transform="translate(683.087 748.697)" fill="none" stroke="#239546" stroke-linecap="round" stroke-linejoin="round" stroke-width="3"/>
        <line id="Line_250" data-name="Line 250" x2="5.769" transform="translate(696.324 748.697)" fill="none" stroke="#239546" stroke-linecap="round" stroke-linejoin="round" stroke-width="3"/>
        <line id="Line_251" data-name="Line 251" x2="5.769" transform="translate(709.56 748.697)" fill="none" stroke="#239546" stroke-linecap="round" stroke-linejoin="round" stroke-width="3"/>
      </g>
    </g>
    <path id="Path_4058" data-name="Path 4058" d="M733.863,764.561l-.952-2.189H599.475l-.941,2.189Z" transform="translate(-174 380.184)" fill="none"/>
    <line id="Line_252" data-name="Line 252" x2="131.411" transform="translate(426.411 1143.141)" fill="none" stroke="#239546" stroke-linecap="round" stroke-linejoin="round" stroke-width="3"/>
    <path id="Path_4059" data-name="Path 4059" d="M599.653,574.35l21.729,111.966H571.965s-7.05-.386-7.05-7.05V581.4s-.09-7.051,7.05-7.051Z" transform="translate(-174 380.184)" fill="#c8e5d1"/>
    <rect id="Rectangle_516" data-name="Rectangle 516" width="201.992" height="12.195" transform="translate(391.121 954.797)" fill="#c8e5d1"/>
    <rect id="Rectangle_517" data-name="Rectangle 517" width="201.992" height="12.195" transform="translate(391.121 1054.09)" fill="#c8e5d1"/>
    <rect id="Rectangle_518" data-name="Rectangle 518" width="201.992" height="112.132" rx="3.184" transform="translate(391.121 954.367)" stroke-width="3" stroke="#239546" stroke-linecap="round" stroke-linejoin="round" fill="none"/>
    <line id="Line_253" data-name="Line 253" x2="186.842" transform="translate(398.695 1053.875)" fill="none" stroke="#239546" stroke-linecap="round" stroke-linejoin="round" stroke-width="3"/>
    <line id="Line_254" data-name="Line 254" x2="186.842" transform="translate(398.695 966.992)" fill="none" stroke="#239546" stroke-linecap="round" stroke-linejoin="round" stroke-width="3"/>
    <circle id="Ellipse_77" data-name="Ellipse 77" cx="4.134" cy="4.134" r="4.134" transform="translate(487.826 1012.862)" fill="#c8e5d1"/>
    <line id="Line_255" data-name="Line 255" y2="8.942" transform="translate(491.96 1016.996)" fill="none" stroke="#239546" stroke-linecap="round" stroke-linejoin="round" stroke-width="3"/>
    <path id="Path_4060" data-name="Path 4060" d="M653.723,649.709V632.336a3.553,3.553,0,0,0-1.039-2.51l-3.127-3.126a5.073,5.073,0,0,0-1.491,3.6v22.139a5.09,5.09,0,0,0,5.09,5.09h25.86a5.073,5.073,0,0,0,3.6-1.491l-3.126-3.127a3.552,3.552,0,0,0-2.51-1.039H655.885A2.162,2.162,0,0,1,653.723,649.709Z" transform="translate(-174 380.184)" fill="#c8e5d1"/>
    <g id="Group_4341" data-name="Group 4341" transform="translate(-174 380.184)">
      <path id="Path_4061" data-name="Path 4061" d="M654.876,618.02v-6.892a11.241,11.241,0,0,1,22.481,0v6.892" fill="none" stroke="#239546" stroke-linecap="round" stroke-linejoin="round" stroke-width="3"/>
      <rect id="Rectangle_519" data-name="Rectangle 519" width="36.244" height="31.933" rx="3.585" transform="translate(647.995 625.595)" stroke-width="3" stroke="#239546" stroke-linecap="round" stroke-linejoin="round" fill="none"/>
    </g>
    <g id="Group_4342" data-name="Group 4342" transform="translate(-174 380.184)">
      <path id="Path_4062" data-name="Path 4062" d="M551.83,488.61a24.988,24.988,0,1,1-9.138,34.129A24.992,24.992,0,0,1,551.83,488.61Z" fill="#239546" fill-rule="evenodd"/>
      <path id="Path_4063" data-name="Path 4063" d="M568.808,513.2a4,4,0,0,0-3.153,1.551l-6.874-3.512a4,4,0,0,0,.153-1.047,3.811,3.811,0,0,0-.18-1.136l6.832-3.492a4.031,4.031,0,1,0-.818-2.425,4.248,4.248,0,0,0,.154,1.046l-6.86,3.513a4.045,4.045,0,1,0,.055,4.906l6.839,3.5a3.915,3.915,0,0,0-.188,1.144,4.043,4.043,0,1,0,4.04-4.046Z" fill="#fff" fill-rule="evenodd"/>
    </g>
    <g id="Group_4382" data-name="Group 4382" transform="translate(-174 380.184)">
      <path id="Path_4105" data-name="Path 4105" d="M808.893,593.722a24.984,24.984,0,1,1,34.128,9.147A24.984,24.984,0,0,1,808.893,593.722Z" fill="#239546" fill-rule="evenodd"/>
      <path id="Print" d="M837.935,590.684H823.086v-4.342h-2.555V576.89h2.555v3.32h15.071v-3.321h2.374l-.054,9.452h-2.523l-.018,4.342h0ZM825.129,588.9h10.728v-2.3H825.129Zm0-10.729V571.78h10.984v6.387Z" fill="#fff"/>
    </g>
    <g id="Group_4383" data-name="Group 4383" transform="translate(-174 380.184)">
      <path id="Path_4106" data-name="Path 4106" d="M861.365,676.238a24.982,24.982,0,1,1-24.983-24.992A24.978,24.978,0,0,1,861.365,676.238Z" fill="#239546" fill-rule="evenodd"/>
      <path id="Phone-2" d="M833.948,669.079l-3.316-3.317a1.663,1.663,0,0,0-2.369-.094l-1.989,1.99c-2.559,2.558.757,8.527,5.306,13.17,4.738,4.738,10.8,8.149,13.455,5.5l1.9-1.895a1.778,1.778,0,0,0-.095-2.464l-3.222-3.222a1.79,1.79,0,0,0-2.463-.19l-1.99,1.99a14.377,14.377,0,0,1-7.107-7.105l1.99-1.99A1.662,1.662,0,0,0,833.948,669.079Z" fill="#fff"/>
    </g>
    <g id="Group_4384" data-name="Group 4384" transform="translate(-174 380.184)">
      <path id="Path_4107" data-name="Path 4107" d="M772.245,488.61a24.985,24.985,0,1,1-34.129,9.147A24.985,24.985,0,0,1,772.245,488.61Z" fill="#239546" fill-rule="evenodd"/>
      <path id="Email-2" d="M749.253,517.847V503.014l2.1,1.868,7.811,6.989a.773.773,0,0,0,1.179,0l9.614-8.6.28-.244c0,.11.017.188.017.264v14.488a.849.849,0,0,1-.909.969h-19.2A.826.826,0,0,1,749.253,517.847Zm1.112-16.095h18.772l-9.385,8.4Z" fill="#fff"/>
    </g>
    <g id="Group_4385" data-name="Group 4385" transform="translate(-174 380.184)">
      <path id="Path_4108" data-name="Path 4108" d="M661.836,458.621a24.987,24.987,0,1,1-24.99,24.982A24.983,24.983,0,0,1,661.836,458.621Z" fill="#239546" fill-rule="evenodd"/>
      <path id="Download-2" d="M651.832,491.608v-8.75h2.5v6.25h15v-6.25h2.5v8.75Zm4.192-11.174,1.768-1.768,2.79,2.791v-9.849h2.5v10l2.942-2.942,1.766,1.768-5.883,5.882Z" fill="#fff"/>
    </g>
    <g id="Group_4386" data-name="Group 4386" transform="translate(-174 380.184)">
      <path id="Path_4109" data-name="Path 4109" d="M462,676.852a24.987,24.987,0,1,1,24.982,24.982A24.987,24.987,0,0,1,462,676.852Z" fill="#239546" fill-rule="evenodd"/>
      <path id="Path-2" d="M478.22,686.493l21.99-9.428-21.99-9.428-.01,7.333,15.714,2.1-15.714,2.1Z" fill="#fff"/>
    </g>
    <g id="Group_4387" data-name="Group 4387" transform="translate(-174 380.184)">
      <path id="Path_4110" data-name="Path 4110" d="M472.74,568.737a24.987,24.987,0,1,1,9.148,34.138A24.983,24.983,0,0,1,472.74,568.737Z" fill="#239546" fill-rule="evenodd"/>
      <path id="Shape-4" d="M483.378,592.233v0l.011-19.8a2.2,2.2,0,0,1,2.189-2.2h17.6a2.2,2.2,0,0,1,2.2,2.2v13.475a2.2,2.2,0,0,1-2.2,2.2H487.5l-4.123,4.123Zm2.75-9.625v2.75h16.5v-2.75Zm0-4.812v2.75h16.5V577.8Zm0-4.813v2.75h16.5v-2.75Z" fill="#fff"/>
    </g>
  </g>
</svg>
