<svg xmlns="http://www.w3.org/2000/svg" width="775.365" height="307.211" viewBox="0 0 775.365 307.211">
  <g id="Group_4855" data-name="Group 4855" transform="translate(-1668 -8569.182)">
    <path id="Path_4492" data-name="Path 4492" d="M513.442,1639.98h700.493m-700.493,63.6h700.493M513.442,1767.5h700.493m-700.493,63.622h700.493" transform="translate(1210.471 6939.184)" fill="none" stroke="#c7c7c6" stroke-linejoin="round" stroke-width="0.25"/>
    <text id="_20000" data-name="20000" transform="translate(1668 8760.221)" fill="#404041" font-size="14" font-family="OpenSans, Open Sans"><tspan x="5.218" y="15">20000</tspan></text>
    <text id="_40000" data-name="40000" transform="translate(1668 8696.621)" fill="#404041" font-size="14" font-family="OpenSans, Open Sans"><tspan x="5.218" y="15">40000</tspan></text>
    <text id="_60000" data-name="60000" transform="translate(1668 8631.291)" fill="#404041" font-size="14" font-family="OpenSans, Open Sans"><tspan x="5.218" y="15">60000</tspan></text>
    <text id="_80000" data-name="80000" transform="translate(1668 8569.182)" fill="#404041" font-size="14" font-family="OpenSans, Open Sans"><tspan x="5.218" y="15">80000</tspan></text>
    <text id="_1_Jul_2019" data-name="1 Jul 2019" transform="translate(1690.363 8872.393)" fill="#404041" font-size="14" font-family="OpenSans, Open Sans"><tspan x="0" y="0">1 Jul 2019</tspan></text>
    <text id="_1_Sep_2019" data-name="1 Sep 2019" transform="translate(1802.149 8872.393)" fill="#404041" font-size="14" font-family="OpenSans, Open Sans"><tspan x="0" y="0">1 Sep 2019</tspan></text>
    <text id="_1_Nov_2019" data-name="1 Nov 2019" transform="translate(1915.525 8872.393)" fill="#404041" font-size="14" font-family="OpenSans, Open Sans"><tspan x="0" y="0">1 Nov 2019</tspan></text>
    <text id="_1_Jan_2020" data-name="1 Jan 2020" transform="translate(2034.698 8872.393)" fill="#404041" font-size="14" font-family="OpenSans, Open Sans"><tspan x="0" y="0">1 Jan 2020</tspan></text>
    <text id="_1_Mar_2020" data-name="1 Mar 2020" transform="translate(2147.644 8872.393)" fill="#404041" font-size="14" font-family="OpenSans, Open Sans"><tspan x="0" y="0">1 Mar 2020</tspan></text>
    <text id="_1_May_2020" data-name="1 May 2020" transform="translate(2268.192 8872.393)" fill="#404041" font-size="14" font-family="OpenSans, Open Sans"><tspan x="0" y="0">1 May 2020</tspan></text>
    <text id="_1_Jun_2020" data-name="1 Jun 2020" transform="translate(2374.365 8872.393)" fill="#404041" font-size="14" font-family="OpenSans, Open Sans"><tspan x="0" y="0">1 Jun 2020</tspan></text>
    <g id="Group_4727" data-name="Group 4727" transform="translate(1210.471 6939.184)">
      <path id="Path_4493" data-name="Path 4493" d="M515.768,1894.743l13.515-84.255L542.591,1786l13.538,35.254,13.561-34.749,13.262-38.834,13.585,47.372,13.308-4.659,13.538,3.007,13.585,101.354,13.262-230.25,13.585,230.25,13.008-212.325,13.561,212.325,13.538-105.761,13.308,3.9,13.561-5.554L744.1,1894.743l13.538-211.522,13.561,79.895,13.285,33.326,13.538,26.142,13.262-39.087,13.585-3.879,12.509,107.625,13.756,2.053,13.756-2.053,13.672-79.256,13.585-18.155,13.262-102.2,13.585-.252,13.561,120.611,13.008-27.794,13.538-12.945,13.331,24.788,13.515-15.974,13.584,10.764,13.262-3.879,13.562,17.328,13.262,94.469,13.585-161.923,13.585,78.219,13.262-17.65,13.585-1.079,13.239-11.04,13.608-17.03,13.562,6.564,13.262,17.1,13.562-7.138,13.308-6.105L1187.73,1786l13.562-20.152" fill="none" stroke="#4569a0" stroke-linecap="round" stroke-linejoin="round" stroke-width="2"/>
    </g>
    <path id="Path_4494" data-name="Path 4494" d="M513.442,1894.743h700.493" transform="translate(1210.471 6939.184)" fill="none" stroke="#333" stroke-miterlimit="10" stroke-width="0.25"/>
    <path id="Path_4495" data-name="Path 4495" d="M514.273,1800.95l13.585-3.91,13.262-5.178,13.585-2.642h13.561l13.262-7.4L595.111,1787l13.262,7.4,13.585-5.178,13.538-13.949,13.262,10.145,13.585,6.446,13.008,15.111,13.561-3.8,13.538-21.346h13.308l13.585-1.268,13.262,12.469,13.585-3.8,13.515,1.374,13.331,10.356,13.561,3.593,13.262-6.235,13.585,17.753L836.7,1833.6l13.585,30.75L863.85,1846.6l13.262-44.7,13.538-6.235,13.262-63.4,13.631,55.689,13.562-10.039h12.962l13.608,1.268,13.285-7.714L984.5,1757.52l13.561,6.446,13.308-3.8,13.561,2.536,13.262,5.284,13.561-23.036,13.538,34.237,13.331,5.178,13.562-21.663,13.262-10.038,13.538,2.642h13.608l13.285,4.86,13.561-2.642,13.262,2.642,13.538-4.86,13.608-10.356" transform="translate(1210.471 6939.184)" fill="none" stroke="#e75755" stroke-linecap="round" stroke-linejoin="round" stroke-width="2"/>
    <path id="Path_4496" data-name="Path 4496" d="M517.222,1845.8l19.663,3.91,19.2,5.178,19.663,2.642h19.629l19.2,7.4,19.663-5.178,19.2-7.4,19.663,5.178,19.6,13.949,19.2-10.145,19.663-6.446,18.828-15.111,19.629,3.8,19.6,21.346h19.262l19.663,1.268,19.2-12.469,19.663,3.8,19.563-1.374,19.3-10.356,19.629-3.593,19.2,6.235,19.663-17.753,19.2-17.541,16.918,55.93,23.592-20.643,17.977-3.586,19.6,6.235,19.2,15.045,19.729-7.331,19.629,10.039h18.761l19.7-1.268,19.229,7.714,19.6,13.949" transform="translate(1210.471 6939.184)" fill="none" stroke="#239546" stroke-linecap="round" stroke-linejoin="round" stroke-width="2"/>
    <path id="Path_4497" data-name="Path 4497" d="M517.222,1853.172l23.471,3.91,22.913,5.178,23.471,2.642h23.431l22.913,7.4,23.471-5.178,22.913-7.4,23.471,5.178,23.391,13.949,22.913-10.145,23.471-6.446,24.309,2.394,21.6-13.7,23.391,21.346h22.992l23.471,1.268L911.72,1861.1l23.471,3.8,23.351-1.374,23.032-10.356,23.431-3.593,22.913,6.235,18.629-2.956h25.066l25.066,8.847,25.977-5.9,21.459-3.586,23.391,6.235,22.913,15.045,3.856-1.2" transform="translate(1210.471 6939.184)" fill="none" stroke="#745fd7" stroke-linecap="round" stroke-linejoin="round" stroke-width="2"/>
    <line id="Line_533" data-name="Line 533" y2="14.369" transform="translate(1723.977 8833.61)" fill="none" stroke="#333" stroke-miterlimit="10" stroke-width="0.25"/>
    <line id="Line_534" data-name="Line 534" y2="14.369" transform="translate(1840.715 8833.61)" fill="none" stroke="#333" stroke-miterlimit="10" stroke-width="0.25"/>
    <line id="Line_535" data-name="Line 535" y2="14.369" transform="translate(1957.453 8833.61)" fill="none" stroke="#333" stroke-miterlimit="10" stroke-width="0.25"/>
    <line id="Line_536" data-name="Line 536" y2="14.369" transform="translate(2074.191 8833.61)" fill="none" stroke="#333" stroke-miterlimit="10" stroke-width="0.25"/>
    <line id="Line_537" data-name="Line 537" y2="14.369" transform="translate(2190.93 8833.61)" fill="none" stroke="#333" stroke-miterlimit="10" stroke-width="0.25"/>
    <line id="Line_538" data-name="Line 538" y2="14.369" transform="translate(2307.668 8833.61)" fill="none" stroke="#333" stroke-miterlimit="10" stroke-width="0.25"/>
    <line id="Line_539" data-name="Line 539" y2="14.369" transform="translate(2424.406 8833.61)" fill="none" stroke="#333" stroke-miterlimit="10" stroke-width="0.25"/>
  </g>
</svg>
