<?xml version="1.0" encoding="utf-8"?>
<!-- Generator: Adobe Illustrator 24.2.0, SVG Export Plug-In . SVG Version: 6.00 Build 0)  -->
<svg version="1.1" id="Layer_1" xmlns="http://www.w3.org/2000/svg" xmlns:xlink="http://www.w3.org/1999/xlink" x="0px" y="0px"
	 viewBox="0 0 947.9 167.4" style="enable-background:new 0 0 947.9 167.4;" xml:space="preserve">
<style type="text/css">
	.st0{fill:#293F5C;}
	.st1{fill:#A9B2BE;}
	.st2{fill:#B74D94;}
	.st3{enable-background:new    ;}
	.st4{fill:#333333;}
	.st5{fill:none;stroke:#293F5C;stroke-width:2;stroke-linecap:round;stroke-linejoin:round;}
	.st6{fill:none;stroke:#B74D94;stroke-width:2;stroke-linecap:round;stroke-linejoin:round;}
</style>
<g id="Group_4788" transform="translate(-284.005 -1204.331)">
	<g id="Group_4539" transform="translate(-165 377.184)">
		<circle id="Ellipse_121" class="st0" cx="577" cy="872.2" r="4"/>
	</g>
	<path id="Person-2" class="st0" d="M448,1252.5c0-4.7,4.5-8.5,10-8.5c5.6,0,10.1,3.8,10.1,8.5L448,1252.5z M452.2,1236.8
		c0-3.2,2.5-5.8,5.7-5.8c3.2,0,5.8,2.5,5.8,5.7c0,3.2-2.5,5.8-5.7,5.8c0,0-0.1,0-0.1,0C454.8,1242.5,452.3,1240,452.2,1236.8z"/>
	<path id="Person-2-2" class="st0" d="M422.7,1252.5c0-4.7,4.5-8.5,10-8.5c5.6,0,10.1,3.8,10.1,8.5L422.7,1252.5z M427,1236.9
		c0-3.2,2.5-5.8,5.7-5.8c3.2,0,5.8,2.5,5.8,5.7c0,3.2-2.5,5.8-5.7,5.8c0,0-0.1,0-0.1,0C429.6,1242.5,427,1240,427,1236.9L427,1236.9
		z"/>
	<g id="Group_4540" transform="translate(-165 377.184)">
		<path id="Person-2-3" class="st1" d="M663.5,875.2c0-4.7,4.5-8.5,10-8.5s10.1,3.8,10.1,8.5L663.5,875.2z M667.7,859.6
			c0-3.2,2.5-5.8,5.7-5.8s5.8,2.5,5.8,5.7c0,3.2-2.5,5.8-5.7,5.8c0,0-0.1,0-0.1,0C670.3,865.2,667.8,862.7,667.7,859.6L667.7,859.6z
			"/>
		<path id="Person-2-4" class="st1" d="M638.2,875.2c0-4.7,4.5-8.5,10-8.5s10.1,3.8,10.1,8.5L638.2,875.2z M642.5,859.6
			c0-3.2,2.5-5.8,5.7-5.8s5.8,2.5,5.8,5.7c0,3.2-2.5,5.8-5.7,5.8c0,0-0.1,0-0.1,0C645.1,865.3,642.5,862.7,642.5,859.6L642.5,859.6z
			"/>
		<path id="Person-2-5" class="st1" d="M688.7,875.2c0-4.7,4.5-8.5,10-8.5s10.1,3.8,10.1,8.5L688.7,875.2z M693,859.5
			c0-3.2,2.5-5.8,5.7-5.8s5.8,2.5,5.8,5.7c0,3.2-2.5,5.8-5.7,5.8c0,0-0.1,0-0.1,0C695.6,865.2,693,862.7,693,859.5z"/>
		<path id="Person-2-6" class="st1" d="M789.7,875c0-4.7,4.5-8.5,10-8.5s10.1,3.8,10.1,8.5L789.7,875z M794,859.4
			c0-3.2,2.5-5.8,5.7-5.8c3.2,0,5.8,2.5,5.8,5.7c0,3.2-2.5,5.8-5.7,5.8c0,0-0.1,0-0.1,0C796.6,865,794.1,862.5,794,859.4z"/>
		<path id="Person-2-7" class="st1" d="M764.5,875c0-4.7,4.5-8.5,10-8.5s10.1,3.8,10.1,8.5L764.5,875z M768.8,859.4
			c0-3.2,2.5-5.8,5.7-5.8s5.8,2.5,5.8,5.7c0,3.2-2.5,5.8-5.7,5.8c0,0-0.1,0-0.1,0C771.3,865.1,768.8,862.6,768.8,859.4z"/>
		<path id="Person-2-8" class="st1" d="M739.2,875.1c0-4.7,4.5-8.5,10-8.5s10.1,3.8,10.1,8.5L739.2,875.1z M743.5,859.5
			c0-3.2,2.5-5.8,5.7-5.8s5.8,2.5,5.8,5.7c0,3.2-2.5,5.8-5.7,5.8c0,0-0.1,0-0.1,0C746.1,865.1,743.5,862.6,743.5,859.5z"/>
		<path id="Person-2-9" class="st1" d="M714,875.1c0-4.7,4.5-8.5,10-8.5s10.1,3.8,10.1,8.5L714,875.1z M718.3,859.5
			c0-3.2,2.5-5.8,5.7-5.8s5.8,2.5,5.8,5.7c0,3.2-2.5,5.8-5.7,5.8c0,0-0.1,0-0.1,0C720.8,865.1,718.3,862.6,718.3,859.5L718.3,859.5z
			"/>
		<path id="Person-2-10" class="st1" d="M815,875c0-4.7,4.5-8.5,10-8.5s10.1,3.8,10.1,8.5L815,875z M819.3,859.4
			c0-3.2,2.5-5.8,5.7-5.8s5.8,2.5,5.8,5.7c0,3.2-2.5,5.8-5.7,5.8c0,0-0.1,0-0.1,0C821.8,865,819.3,862.5,819.3,859.4z"/>
		<path id="Person-2-11" class="st1" d="M916,874.8c0-4.7,4.5-8.5,10-8.5s10.1,3.8,10.1,8.5L916,874.8z M920.3,859.2
			c0-3.2,2.5-5.8,5.7-5.8s5.8,2.5,5.8,5.7c0,3.2-2.5,5.8-5.7,5.8c0,0-0.1,0-0.1,0C922.8,864.8,920.3,862.3,920.3,859.2L920.3,859.2z
			"/>
		<path id="Person-2-12" class="st1" d="M890.7,874.9c0-4.7,4.5-8.5,10-8.5s10.1,3.8,10.1,8.5L890.7,874.9z M895,859.2
			c0-3.2,2.5-5.8,5.7-5.8s5.8,2.5,5.8,5.7c0,3.2-2.5,5.8-5.7,5.8c0,0-0.1,0-0.1,0C897.6,864.9,895.1,862.4,895,859.2z"/>
		<path id="Person-2-13" class="st1" d="M865.5,874.9c0-4.7,4.5-8.5,10-8.5s10.1,3.8,10.1,8.5L865.5,874.9z M869.8,859.3
			c0-3.2,2.5-5.8,5.7-5.8s5.8,2.5,5.8,5.7c0,3.2-2.5,5.8-5.7,5.8c0,0-0.1,0-0.1,0C872.3,864.9,869.8,862.4,869.8,859.3L869.8,859.3z
			"/>
		<path id="Person-2-14" class="st1" d="M840.2,874.9c0-4.7,4.5-8.5,10-8.5s10.1,3.8,10.1,8.5L840.2,874.9z M844.5,859.3
			c0-3.2,2.5-5.8,5.7-5.8s5.8,2.5,5.8,5.7c0,3.2-2.5,5.8-5.7,5.8c0,0-0.1,0-0.1,0C847.1,865,844.6,862.4,844.5,859.3z"/>
		<path id="Person-2-15" class="st1" d="M941.2,874.8c0-4.7,4.5-8.5,10-8.5s10.1,3.8,10.1,8.5L941.2,874.8z M945.5,859.2
			c0-3.2,2.5-5.8,5.7-5.8c3.2,0,5.8,2.5,5.8,5.7c0,3.2-2.5,5.8-5.7,5.8c0,0-0.1,0-0.1,0C948.1,864.8,945.6,862.3,945.5,859.2z"/>
		<path id="Person-2-16" class="st1" d="M1042.3,874.6c0-4.7,4.5-8.5,10-8.5s10.1,3.8,10.1,8.5L1042.3,874.6z M1046.5,859
			c0-3.2,2.5-5.8,5.7-5.8s5.8,2.5,5.8,5.7c0,3.2-2.5,5.8-5.7,5.8c0,0-0.1,0-0.1,0C1049.1,864.7,1046.6,862.1,1046.5,859z"/>
		<path id="Person-2-17" class="st1" d="M1017,874.7c0-4.7,4.5-8.5,10-8.5s10.1,3.8,10.1,8.5L1017,874.7z M1021.3,859.1
			c0-3.2,2.5-5.8,5.7-5.8c3.2,0,5.8,2.5,5.8,5.7c0,3.2-2.5,5.8-5.7,5.8c0,0-0.1,0-0.1,0C1023.9,864.7,1021.3,862.2,1021.3,859.1
			L1021.3,859.1z"/>
		<path id="Person-2-18" class="st1" d="M991.7,874.7c0-4.7,4.5-8.5,10-8.5s10.1,3.8,10.1,8.5L991.7,874.7z M996,859.1
			c0-3.2,2.5-5.8,5.7-5.8s5.8,2.5,5.8,5.7c0,3.2-2.5,5.8-5.7,5.8c0,0-0.1,0-0.1,0C998.6,864.7,996.1,862.2,996,859.1L996,859.1z"/>
		<path id="Person-2-19" class="st1" d="M966.5,874.8c0-4.7,4.5-8.5,10-8.5s10.1,3.8,10.1,8.5L966.5,874.8z M970.8,859.1
			c0-3.2,2.5-5.8,5.7-5.8s5.8,2.5,5.8,5.7c0,3.2-2.5,5.8-5.7,5.8c0,0-0.1,0-0.1,0C973.4,864.8,970.8,862.3,970.8,859.1L970.8,859.1z
			"/>
		<path id="Person-2-20" class="st1" d="M1067.5,874.6c0-4.7,4.5-8.5,10-8.5s10.1,3.8,10.1,8.5L1067.5,874.6z M1071.8,859
			c0-3.2,2.5-5.8,5.7-5.8s5.8,2.5,5.8,5.7c0,3.2-2.5,5.8-5.7,5.8c0,0-0.1,0-0.1,0C1074.4,864.6,1071.8,862.1,1071.8,859L1071.8,859z
			"/>
		<path id="Person-2-21" class="st1" d="M1168.5,874.5c0-4.7,4.5-8.5,10-8.5s10.1,3.8,10.1,8.5L1168.5,874.5z M1172.8,858.8
			c0-3.2,2.5-5.8,5.7-5.8s5.8,2.5,5.8,5.7c0,3.2-2.5,5.8-5.7,5.8c0,0-0.1,0-0.1,0C1175.4,864.5,1172.8,862,1172.8,858.8z"/>
		<path id="Person-2-22" class="st1" d="M1143.3,874.5c0-4.7,4.5-8.5,10-8.5s10.1,3.8,10.1,8.5L1143.3,874.5z M1147.6,858.9
			c0-3.2,2.5-5.8,5.7-5.8s5.8,2.5,5.8,5.7c0,3.2-2.5,5.8-5.7,5.8c0,0-0.1,0-0.1,0C1150.1,864.5,1147.6,862,1147.6,858.9
			L1147.6,858.9z"/>
		<path id="Person-2-23" class="st1" d="M1118,874.5c0-4.7,4.5-8.5,10-8.5s10.1,3.8,10.1,8.5L1118,874.5z M1122.3,858.9
			c0-3.2,2.5-5.8,5.7-5.8c3.2,0,5.8,2.5,5.8,5.7c0,3.2-2.5,5.8-5.7,5.8c0,0-0.1,0-0.1,0C1124.9,864.6,1122.3,862,1122.3,858.9
			L1122.3,858.9z"/>
		<path id="Person-2-24" class="st1" d="M1092.8,874.6c0-4.7,4.5-8.5,10-8.5s10.1,3.8,10.1,8.5L1092.8,874.6z M1097,858.9
			c0-3.2,2.5-5.8,5.7-5.8s5.8,2.5,5.8,5.7c0,3.2-2.5,5.8-5.7,5.8c0,0-0.1,0-0.1,0C1099.6,864.6,1097.1,862.1,1097,858.9z"/>
		<path id="Person-2-25" class="st1" d="M1193.8,874.4c0-4.7,4.5-8.5,10-8.5s10.1,3.8,10.1,8.5L1193.8,874.4z M1198.1,858.8
			c0-3.2,2.5-5.8,5.7-5.8s5.8,2.5,5.8,5.7c0,3.2-2.5,5.8-5.7,5.8c0,0-0.1,0-0.1,0C1200.6,864.4,1198.1,861.9,1198.1,858.8
			L1198.1,858.8z"/>
		<path id="Person-2-26" class="st1" d="M663.5,910.3c0-4.7,4.5-8.5,10-8.5s10.1,3.8,10.1,8.5L663.5,910.3z M667.8,894.7
			c0-3.2,2.5-5.8,5.7-5.8s5.8,2.5,5.8,5.7c0,3.2-2.5,5.8-5.7,5.8c0,0-0.1,0-0.1,0C670.4,900.3,667.8,897.8,667.8,894.7z"/>
		<path id="Person-2-27" class="st1" d="M638.3,910.3c0-4.7,4.5-8.5,10-8.5s10.1,3.8,10.1,8.5L638.3,910.3z M642.5,894.7
			c0-3.2,2.5-5.8,5.7-5.8s5.8,2.5,5.8,5.7c0,3.2-2.5,5.8-5.7,5.8c0,0-0.1,0-0.1,0C645.1,900.4,642.6,897.8,642.5,894.7L642.5,894.7z
			"/>
		<path id="Person-2-28" class="st1" d="M613,910.4c0-4.7,4.5-8.5,10-8.5s10.1,3.8,10.1,8.5L613,910.4z M617.3,894.8
			c0-3.2,2.5-5.8,5.7-5.8s5.8,2.5,5.8,5.7c0,3.2-2.5,5.8-5.7,5.8c0,0-0.1,0-0.1,0C619.9,900.4,617.3,897.9,617.3,894.8L617.3,894.8z
			"/>
		<path id="Person-2-29" class="st1" d="M587.7,910.4c0-4.7,4.5-8.5,10-8.5s10.1,3.8,10.1,8.5L587.7,910.4z M592,894.8
			c0-3.2,2.5-5.8,5.7-5.8s5.8,2.5,5.8,5.7c0,3.2-2.5,5.8-5.7,5.8c0,0-0.1,0-0.1,0C594.6,900.4,592.1,897.9,592,894.8L592,894.8z"/>
		<path id="Person-2-30" class="st1" d="M688.8,910.3c0-4.7,4.5-8.5,10-8.5s10.1,3.8,10.1,8.5L688.8,910.3z M693,894.6
			c0-3.2,2.5-5.8,5.7-5.8s5.8,2.5,5.8,5.7c0,3.2-2.5,5.8-5.7,5.8c0,0-0.1,0-0.1,0C695.6,900.3,693.1,897.8,693,894.6z"/>
		<path id="Person-2-31" class="st1" d="M789.8,910.1c0-4.7,4.5-8.5,10-8.5s10.1,3.8,10.1,8.5L789.8,910.1z M794.1,894.5
			c0-3.2,2.5-5.8,5.7-5.8c3.2,0,5.8,2.5,5.8,5.7c0,3.2-2.5,5.8-5.7,5.8c0,0-0.1,0-0.1,0C796.6,900.1,794.1,897.6,794.1,894.5
			L794.1,894.5z"/>
		<path id="Person-2-32" class="st1" d="M764.5,910.2c0-4.7,4.5-8.5,10-8.5s10.1,3.8,10.1,8.5L764.5,910.2z M768.8,894.5
			c0-3.2,2.5-5.8,5.7-5.8s5.8,2.5,5.8,5.7c0,3.2-2.5,5.8-5.7,5.8c0,0-0.1,0-0.1,0C771.4,900.2,768.8,897.7,768.8,894.5L768.8,894.5z
			"/>
		<path id="Person-2-33" class="st1" d="M739.3,910.2c0-4.7,4.5-8.5,10-8.5s10.1,3.8,10.1,8.5L739.3,910.2z M743.6,894.6
			c0-3.2,2.5-5.8,5.7-5.8s5.8,2.5,5.8,5.7c0,3.2-2.5,5.8-5.7,5.8c0,0-0.1,0-0.1,0C746.1,900.2,743.6,897.7,743.6,894.6L743.6,894.6z
			"/>
		<path id="Person-2-34" class="st1" d="M714,910.2c0-4.7,4.5-8.5,10-8.5s10.1,3.8,10.1,8.5L714,910.2z M718.3,894.6
			c0-3.2,2.5-5.8,5.7-5.8s5.8,2.5,5.8,5.7c0,3.2-2.5,5.8-5.7,5.8c0,0-0.1,0-0.1,0C720.9,900.3,718.3,897.7,718.3,894.6L718.3,894.6z
			"/>
		<path id="Person-2-35" class="st1" d="M815,910.1c0-4.7,4.5-8.5,10-8.5s10.1,3.8,10.1,8.5L815,910.1z M819.3,894.5
			c0-3.2,2.5-5.8,5.7-5.8s5.8,2.5,5.8,5.7c0,3.2-2.5,5.8-5.7,5.8c0,0-0.1,0-0.1,0C821.9,900.1,819.3,897.6,819.3,894.5L819.3,894.5z
			"/>
		<path id="Person-2-36" class="st1" d="M916,909.9c0-4.7,4.5-8.5,10-8.5s10.1,3.8,10.1,8.5L916,909.9z M920.3,894.3
			c0-3.2,2.5-5.8,5.7-5.8s5.8,2.5,5.8,5.7c0,3.2-2.5,5.8-5.7,5.8c0,0-0.1,0-0.1,0C922.9,900,920.4,897.4,920.3,894.3z"/>
		<path id="Person-2-37" class="st1" d="M890.8,910c0-4.7,4.5-8.5,10-8.5s10.1,3.8,10.1,8.5L890.8,910z M895.1,894.4
			c0-3.2,2.5-5.8,5.7-5.8s5.8,2.5,5.8,5.7c0,3.2-2.5,5.8-5.7,5.8c0,0-0.1,0-0.1,0C897.6,900,895.1,897.5,895.1,894.4L895.1,894.4z"
			/>
		<path id="Person-2-38" class="st1" d="M865.5,910c0-4.7,4.5-8.5,10-8.5s10.1,3.8,10.1,8.5L865.5,910z M869.8,894.4
			c0-3.2,2.5-5.8,5.7-5.8s5.8,2.5,5.8,5.7c0,3.2-2.5,5.8-5.7,5.8c0,0-0.1,0-0.1,0C872.4,900,869.9,897.5,869.8,894.4L869.8,894.4z"
			/>
		<path id="Person-2-39" class="st1" d="M840.3,910c0-4.7,4.5-8.5,10-8.5s10.1,3.8,10.1,8.5L840.3,910z M844.6,894.4
			c0-3.2,2.5-5.8,5.7-5.8s5.8,2.5,5.8,5.7c0,3.2-2.5,5.8-5.7,5.8c0,0-0.1,0-0.1,0C847.1,900.1,844.6,897.6,844.6,894.4z"/>
		<path id="Person-2-40" class="st1" d="M941.3,909.9c0-4.7,4.5-8.5,10-8.5s10.1,3.8,10.1,8.5L941.3,909.9z M945.6,894.3
			c0-3.2,2.5-5.8,5.7-5.8s5.8,2.5,5.8,5.7c0,3.2-2.5,5.8-5.7,5.8c0,0-0.1,0-0.1,0C948.1,899.9,945.6,897.4,945.6,894.3L945.6,894.3z
			"/>
		<path id="Person-2-41" class="st1" d="M1042.3,909.8c0-4.7,4.5-8.5,10-8.5s10.1,3.8,10.1,8.5L1042.3,909.8z M1046.6,894.1
			c0-3.2,2.5-5.8,5.7-5.8s5.8,2.5,5.8,5.7c0,3.2-2.5,5.8-5.7,5.8c0,0-0.1,0-0.1,0C1049.2,899.8,1046.6,897.3,1046.6,894.1
			L1046.6,894.1z"/>
		<path id="Person-2-42" class="st1" d="M1017,909.8c0-4.7,4.5-8.5,10-8.5s10.1,3.8,10.1,8.5L1017,909.8z M1021.3,894.2
			c0-3.2,2.5-5.8,5.7-5.8c3.2,0,5.8,2.5,5.8,5.7c0,3.2-2.5,5.8-5.7,5.8c0,0-0.1,0-0.1,0C1023.9,899.8,1021.4,897.3,1021.3,894.2z"/>
		<path id="Person-2-43" class="st1" d="M991.8,909.8c0-4.7,4.5-8.5,10-8.5s10.1,3.8,10.1,8.5L991.8,909.8z M996.1,894.2
			c0-3.2,2.5-5.8,5.7-5.8s5.8,2.5,5.8,5.7c0,3.2-2.5,5.8-5.7,5.8c0,0-0.1,0-0.1,0C998.6,899.9,996.1,897.3,996.1,894.2z"/>
		<path id="Person-2-44" class="st1" d="M966.5,909.9c0-4.7,4.5-8.5,10-8.5s10.1,3.8,10.1,8.5L966.5,909.9z M970.8,894.2
			c0-3.2,2.5-5.8,5.7-5.8s5.8,2.5,5.8,5.7c0,3.2-2.5,5.8-5.7,5.8c0,0-0.1,0-0.1,0C973.4,899.9,970.9,897.4,970.8,894.2z"/>
		<path id="Person-2-45" class="st1" d="M1067.6,909.7c0-4.7,4.5-8.5,10-8.5s10.1,3.8,10.1,8.5L1067.6,909.7z M1071.8,894.1
			c0-3.2,2.5-5.8,5.7-5.8s5.8,2.5,5.8,5.7c0,3.2-2.5,5.8-5.7,5.8c0,0-0.1,0-0.1,0C1074.4,899.7,1071.9,897.2,1071.8,894.1
			L1071.8,894.1z"/>
		<path id="Person-2-46" class="st1" d="M1168.6,909.6c0-4.7,4.5-8.5,10-8.5s10.1,3.8,10.1,8.5L1168.6,909.6z M1172.8,893.9
			c0-3.2,2.5-5.8,5.7-5.8s5.8,2.5,5.8,5.7c0,3.2-2.5,5.8-5.7,5.8c0,0-0.1,0-0.1,0C1175.4,899.6,1172.9,897.1,1172.8,893.9z"/>
		<path id="Person-2-47" class="st1" d="M1143.3,909.6c0-4.7,4.5-8.5,10-8.5s10.1,3.8,10.1,8.5L1143.3,909.6z M1147.6,894
			c0-3.2,2.5-5.8,5.7-5.8s5.8,2.5,5.8,5.7c0,3.2-2.5,5.8-5.7,5.8c0,0-0.1,0-0.1,0C1150.2,899.6,1147.6,897.1,1147.6,894L1147.6,894z
			"/>
		<path id="Person-2-48" class="st1" d="M1118.1,909.6c0-4.7,4.5-8.5,10-8.5s10.1,3.8,10.1,8.5L1118.1,909.6z M1122.3,894
			c0-3.2,2.5-5.8,5.7-5.8c3.2,0,5.8,2.5,5.8,5.7c0,3.2-2.5,5.8-5.7,5.8c0,0-0.1,0-0.1,0C1124.9,899.7,1122.4,897.1,1122.3,894
			L1122.3,894z"/>
		<path id="Person-2-49" class="st1" d="M1092.8,909.7c0-4.7,4.5-8.5,10-8.5s10.1,3.8,10.1,8.5L1092.8,909.7z M1097.1,894.1
			c0-3.2,2.5-5.8,5.7-5.8s5.8,2.5,5.8,5.7c0,3.2-2.5,5.8-5.7,5.8c0,0-0.1,0-0.1,0C1099.7,899.7,1097.1,897.2,1097.1,894.1
			L1097.1,894.1z"/>
		<path id="Person-2-50" class="st1" d="M1193.8,909.5c0-4.7,4.5-8.5,10-8.5s10.1,3.8,10.1,8.5L1193.8,909.5z M1198.1,893.9
			c0-3.2,2.5-5.8,5.7-5.8s5.8,2.5,5.8,5.7c0,3.2-2.5,5.8-5.7,5.8c0,0-0.1,0-0.1,0C1200.7,899.6,1198.1,897,1198.1,893.9
			L1198.1,893.9z"/>
		<path id="Person-2-51" class="st1" d="M663.6,945.4c0-4.7,4.5-8.5,10-8.5s10.1,3.8,10.1,8.5L663.6,945.4z M667.8,929.8
			c0-3.2,2.5-5.8,5.7-5.8s5.8,2.5,5.8,5.7c0,3.2-2.5,5.8-5.7,5.8c0,0-0.1,0-0.1,0C670.4,935.4,667.9,932.9,667.8,929.8L667.8,929.8z
			"/>
		<path id="Person-2-52" class="st1" d="M638.3,945.5c0-4.7,4.5-8.5,10-8.5s10.1,3.8,10.1,8.5L638.3,945.5z M642.6,929.8
			c0-3.2,2.5-5.8,5.7-5.8s5.8,2.5,5.8,5.7c0,3.2-2.5,5.8-5.7,5.8c0,0-0.1,0-0.1,0C645.2,935.5,642.6,933,642.6,929.8L642.6,929.8z"
			/>
		<path id="Person-2-53" class="st1" d="M613,945.5c0-4.7,4.5-8.5,10-8.5s10.1,3.8,10.1,8.5L613,945.5z M617.3,929.9
			c0-3.2,2.5-5.8,5.7-5.8s5.8,2.5,5.8,5.7c0,3.2-2.5,5.8-5.7,5.8c0,0-0.1,0-0.1,0C619.9,935.5,617.4,933,617.3,929.9z"/>
		<path id="Person-2-54" class="st1" d="M587.8,945.5c0-4.7,4.5-8.5,10-8.5s10.1,3.8,10.1,8.5L587.8,945.5z M592.1,929.9
			c0-3.2,2.5-5.8,5.7-5.8s5.8,2.5,5.8,5.7c0,3.2-2.5,5.8-5.7,5.8c0,0-0.1,0-0.1,0C594.6,935.6,592.1,933,592.1,929.9z"/>
		<path id="Person-2-55" class="st1" d="M688.8,945.4c0-4.7,4.5-8.5,10-8.5s10.1,3.8,10.1,8.5L688.8,945.4z M693.1,929.8
			c0-3.2,2.5-5.8,5.7-5.8s5.8,2.5,5.8,5.7c0,3.2-2.5,5.8-5.7,5.8c0,0-0.1,0-0.1,0C695.7,935.4,693.1,932.9,693.1,929.8L693.1,929.8z
			"/>
		<path id="Person-2-56" class="st1" d="M789.8,945.2c0-4.7,4.5-8.5,10-8.5s10.1,3.8,10.1,8.5L789.8,945.2z M794.1,929.6
			c0-3.2,2.5-5.8,5.7-5.8c3.2,0,5.8,2.5,5.8,5.7c0,3.2-2.5,5.8-5.7,5.8c0,0-0.1,0-0.1,0C796.7,935.3,794.1,932.7,794.1,929.6
			L794.1,929.6z"/>
		<path id="Person-2-57" class="st1" d="M764.6,945.3c0-4.7,4.5-8.5,10-8.5s10.1,3.8,10.1,8.5L764.6,945.3z M768.8,929.6
			c0-3.2,2.5-5.8,5.7-5.8s5.8,2.5,5.8,5.7c0,3.2-2.5,5.8-5.7,5.8c0,0-0.1,0-0.1,0C771.4,935.3,768.9,932.8,768.8,929.6z"/>
		<path id="Person-2-58" class="st1" d="M739.3,945.3c0-4.7,4.5-8.5,10-8.5s10.1,3.8,10.1,8.5L739.3,945.3z M743.6,929.7
			c0-3.2,2.5-5.8,5.7-5.8s5.8,2.5,5.8,5.7c0,3.2-2.5,5.8-5.7,5.8c0,0-0.1,0-0.1,0C746.2,935.3,743.6,932.8,743.6,929.7L743.6,929.7z
			"/>
		<path id="Person-2-59" class="st1" d="M714.1,945.3c0-4.7,4.5-8.5,10-8.5s10.1,3.8,10.1,8.5L714.1,945.3z M718.3,929.7
			c0-3.2,2.5-5.8,5.7-5.8s5.8,2.5,5.8,5.7c0,3.2-2.5,5.8-5.7,5.8c0,0-0.1,0-0.1,0C720.9,935.4,718.4,932.8,718.3,929.7L718.3,929.7z
			"/>
		<path id="Person-2-60" class="st1" d="M815.1,945.2c0-4.7,4.5-8.5,10-8.5s10.1,3.8,10.1,8.5L815.1,945.2z M819.4,929.6
			c0-3.2,2.5-5.8,5.7-5.8s5.8,2.5,5.8,5.7c0,3.2-2.5,5.8-5.7,5.8c0,0-0.1,0-0.1,0C821.9,935.2,819.4,932.7,819.4,929.6L819.4,929.6z
			"/>
		<path id="Person-2-61" class="st1" d="M890.8,945.1c0-4.7,4.5-8.5,10-8.5s10.1,3.8,10.1,8.5L890.8,945.1z M895.1,929.5
			c0-3.2,2.5-5.8,5.7-5.8s5.8,2.5,5.8,5.7c0,3.2-2.5,5.8-5.7,5.8c0,0-0.1,0-0.1,0C897.7,935.1,895.2,932.6,895.1,929.5L895.1,929.5z
			"/>
		<path id="Person-2-62" class="st1" d="M865.6,945.1c0-4.7,4.5-8.5,10-8.5s10.1,3.8,10.1,8.5L865.6,945.1z M869.9,929.5
			c0-3.2,2.5-5.8,5.7-5.8s5.8,2.5,5.8,5.7c0,3.2-2.5,5.8-5.7,5.8c0,0-0.1,0-0.1,0C872.4,935.1,869.9,932.6,869.9,929.5L869.9,929.5z
			"/>
		<path id="Person-2-63" class="st1" d="M840.3,945.2c0-4.7,4.5-8.5,10-8.5s10.1,3.8,10.1,8.5L840.3,945.2z M844.6,929.5
			c0-3.2,2.5-5.8,5.7-5.8s5.8,2.5,5.8,5.7c0,3.2-2.5,5.8-5.7,5.8c0,0-0.1,0-0.1,0C847.2,935.2,844.6,932.7,844.6,929.5z"/>
	</g>
	<g id="Group_4541" transform="translate(-165 377.184)">
		<path id="Person-2-64" class="st2" d="M916.1,945c0-4.7,4.5-8.5,10-8.5s10.1,3.8,10.1,8.5L916.1,945z M920.4,929.4
			c0-3.2,2.5-5.8,5.7-5.8s5.8,2.5,5.8,5.7c0,3.2-2.5,5.8-5.7,5.8c0,0-0.1,0-0.1,0C922.9,935.1,920.4,932.6,920.4,929.4z"/>
		<path id="Person-2-65" class="st2" d="M941.3,945c0-4.7,4.5-8.5,10-8.5s10.1,3.8,10.1,8.5L941.3,945z M945.6,929.4
			c0-3.2,2.5-5.8,5.7-5.8s5.8,2.5,5.8,5.7c0,3.2-2.5,5.8-5.7,5.8c0,0-0.1,0-0.1,0C948.2,935,945.7,932.5,945.6,929.4z"/>
		<path id="Person-2-66" class="st2" d="M1042.3,944.9c0-4.7,4.5-8.5,10-8.5s10.1,3.8,10.1,8.5L1042.3,944.9z M1046.6,929.2
			c0-3.2,2.5-5.8,5.7-5.8s5.8,2.5,5.8,5.7c0,3.2-2.5,5.8-5.7,5.8c0,0-0.1,0-0.1,0C1049.2,934.9,1046.7,932.4,1046.6,929.2z"/>
		<path id="Person-2-67" class="st2" d="M1017.1,944.9c0-4.7,4.5-8.5,10-8.5c5.6,0,10.1,3.8,10.1,8.5L1017.1,944.9z M1021.4,929.3
			c0-3.2,2.5-5.8,5.7-5.8c3.2,0,5.8,2.5,5.8,5.7c0,3.2-2.5,5.8-5.7,5.8c0,0-0.1,0-0.1,0C1023.9,934.9,1021.4,932.4,1021.4,929.3
			L1021.4,929.3z"/>
		<path id="Person-2-68" class="st2" d="M991.8,944.9c0-4.7,4.5-8.5,10-8.5s10.1,3.8,10.1,8.5L991.8,944.9z M996.1,929.3
			c0-3.2,2.5-5.8,5.7-5.8s5.8,2.5,5.8,5.7c0,3.2-2.5,5.8-5.7,5.8c0,0-0.1,0-0.1,0C998.7,935,996.2,932.4,996.1,929.3z"/>
		<path id="Person-2-69" class="st2" d="M966.6,945c0-4.7,4.5-8.5,10-8.5s10.1,3.8,10.1,8.5L966.6,945z M970.9,929.4
			c0-3.2,2.5-5.8,5.7-5.8c3.2,0,5.8,2.5,5.8,5.7c0,3.2-2.5,5.8-5.7,5.8c0,0-0.1,0-0.1,0C973.4,935,970.9,932.5,970.9,929.4
			L970.9,929.4z"/>
		<path id="Person-2-70" class="st2" d="M1067.6,944.8c0-4.7,4.5-8.5,10-8.5s10.1,3.8,10.1,8.5L1067.6,944.8z M1071.9,929.2
			c0-3.2,2.5-5.8,5.7-5.8s5.8,2.5,5.8,5.7c0,3.2-2.5,5.8-5.7,5.8c0,0-0.1,0-0.1,0C1074.5,934.9,1071.9,932.3,1071.9,929.2
			L1071.9,929.2z"/>
		<path id="Person-2-71" class="st2" d="M1168.6,944.7c0-4.7,4.5-8.5,10-8.5s10.1,3.8,10.1,8.5L1168.6,944.7z M1172.9,929.1
			c0-3.2,2.5-5.8,5.7-5.8s5.8,2.5,5.8,5.7c0,3.2-2.5,5.8-5.7,5.8c0,0-0.1,0-0.1,0C1175.5,934.7,1172.9,932.2,1172.9,929.1
			L1172.9,929.1z"/>
		<path id="Person-2-72" class="st2" d="M1143.4,944.7c0-4.7,4.5-8.5,10-8.5s10.1,3.8,10.1,8.5L1143.4,944.7z M1147.6,929.1
			c0-3.2,2.5-5.8,5.7-5.8s5.8,2.5,5.8,5.7c0,3.2-2.5,5.8-5.7,5.8c0,0-0.1,0-0.1,0C1150.2,934.7,1147.7,932.2,1147.6,929.1
			L1147.6,929.1z"/>
		<path id="Person-2-73" class="st2" d="M1118.1,944.8c0-4.7,4.5-8.5,10-8.5s10.1,3.8,10.1,8.5L1118.1,944.8z M1122.4,929.1
			c0-3.2,2.5-5.8,5.7-5.8c3.2,0,5.8,2.5,5.8,5.7c0,3.2-2.5,5.8-5.7,5.8c0,0-0.1,0-0.1,0C1125,934.8,1122.4,932.3,1122.4,929.1
			L1122.4,929.1z"/>
		<path id="Person-2-74" class="st2" d="M1092.8,944.8c0-4.7,4.5-8.5,10-8.5s10.1,3.8,10.1,8.5L1092.8,944.8z M1097.1,929.2
			c0-3.2,2.5-5.8,5.7-5.8s5.8,2.5,5.8,5.7c0,3.2-2.5,5.8-5.7,5.8c0,0-0.1,0-0.1,0C1099.7,934.8,1097.2,932.3,1097.1,929.2
			L1097.1,929.2z"/>
		<path id="Person-2-75" class="st2" d="M1193.9,944.6c0-4.7,4.5-8.5,10-8.5s10.1,3.8,10.1,8.5L1193.9,944.6z M1198.1,929
			c0-3.2,2.5-5.8,5.7-5.8s5.8,2.5,5.8,5.7c0,3.2-2.5,5.8-5.7,5.8c0,0-0.1,0-0.1,0C1200.7,934.7,1198.2,932.1,1198.1,929z"/>
		<path id="Person-2-76" class="st2" d="M663.6,980.5c0-4.7,4.5-8.5,10-8.5s10.1,3.8,10.1,8.5L663.6,980.5z M667.9,964.9
			c0-3.2,2.5-5.8,5.7-5.8s5.8,2.5,5.8,5.7c0,3.2-2.5,5.8-5.7,5.8c0,0-0.1,0-0.1,0C670.5,970.6,667.9,968,667.9,964.9L667.9,964.9z"
			/>
		<path id="Person-2-77" class="st2" d="M638.3,980.6c0-4.7,4.5-8.5,10-8.5s10.1,3.8,10.1,8.5L638.3,980.6z M642.6,964.9
			c0-3.2,2.5-5.8,5.7-5.8c3.2,0,5.8,2.5,5.8,5.7c0,3.2-2.5,5.8-5.7,5.8c0,0-0.1,0-0.1,0C645.2,970.6,642.7,968.1,642.6,964.9
			L642.6,964.9z"/>
		<path id="Person-2-78" class="st2" d="M613.1,980.6c0-4.7,4.5-8.5,10-8.5s10.1,3.8,10.1,8.5L613.1,980.6z M617.4,965
			c0-3.2,2.5-5.8,5.7-5.8s5.8,2.5,5.8,5.7c0,3.2-2.5,5.8-5.7,5.8c0,0-0.1,0-0.1,0C619.9,970.6,617.4,968.1,617.4,965L617.4,965z"/>
		<path id="Person-2-79" class="st2" d="M587.8,980.6c0-4.7,4.5-8.5,10-8.5s10.1,3.8,10.1,8.5L587.8,980.6z M592.1,965
			c0-3.2,2.5-5.8,5.7-5.8s5.8,2.5,5.8,5.7c0,3.2-2.5,5.8-5.7,5.8c0,0-0.1,0-0.1,0C594.7,970.7,592.2,968.1,592.1,965z"/>
		<path id="Person-2-80" class="st2" d="M688.8,980.5c0-4.7,4.5-8.5,10-8.5s10.1,3.8,10.1,8.5L688.8,980.5z M693.1,964.9
			c0-3.2,2.5-5.8,5.7-5.8s5.8,2.5,5.8,5.7c0,3.2-2.5,5.8-5.7,5.8c0,0-0.1,0-0.1,0C695.7,970.5,693.2,968,693.1,964.9L693.1,964.9z"
			/>
		<path id="Person-2-81" class="st2" d="M789.9,980.3c0-4.7,4.5-8.5,10-8.5s10.1,3.8,10.1,8.5L789.9,980.3z M794.1,964.7
			c0-3.2,2.5-5.8,5.7-5.8c3.2,0,5.8,2.5,5.8,5.7c0,3.2-2.5,5.8-5.7,5.8c0,0-0.1,0-0.1,0C796.7,970.4,794.2,967.8,794.1,964.7z"/>
		<path id="Person-2-82" class="st2" d="M764.6,980.4c0-4.7,4.5-8.5,10-8.5s10.1,3.8,10.1,8.5L764.6,980.4z M768.9,964.8
			c0-3.2,2.5-5.8,5.7-5.8s5.8,2.5,5.8,5.7c0,3.2-2.5,5.8-5.7,5.8c0,0-0.1,0-0.1,0C771.5,970.4,768.9,967.9,768.9,964.8z"/>
		<path id="Person-2-83" class="st2" d="M739.4,980.4c0-4.7,4.5-8.5,10-8.5s10.1,3.8,10.1,8.5L739.4,980.4z M743.6,964.8
			c0-3.2,2.5-5.8,5.7-5.8s5.8,2.5,5.8,5.7c0,3.2-2.5,5.8-5.7,5.8c0,0-0.1,0-0.1,0C746.2,970.4,743.7,967.9,743.6,964.8z"/>
		<path id="Person-2-84" class="st2" d="M714.1,980.5c0-4.7,4.5-8.5,10-8.5s10.1,3.8,10.1,8.5L714.1,980.5z M718.4,964.8
			c0-3.2,2.5-5.8,5.7-5.8s5.8,2.5,5.8,5.7c0,3.2-2.5,5.8-5.7,5.8c0,0-0.1,0-0.1,0C721,970.5,718.4,968,718.4,964.8L718.4,964.8z"/>
		<path id="Person-2-85" class="st2" d="M815.1,980.3c0-4.7,4.5-8.5,10-8.5s10.1,3.8,10.1,8.5L815.1,980.3z M819.4,964.7
			c0-3.2,2.5-5.8,5.7-5.8s5.8,2.5,5.8,5.7c0,3.2-2.5,5.8-5.7,5.8c0,0-0.1,0-0.1,0C822,970.3,819.4,967.8,819.4,964.7L819.4,964.7z"
			/>
		<path id="Person-2-86" class="st2" d="M916.1,980.2c0-4.7,4.5-8.5,10-8.5s10.1,3.8,10.1,8.5L916.1,980.2z M920.4,964.5
			c0-3.2,2.5-5.8,5.7-5.8s5.8,2.5,5.8,5.7c0,3.2-2.5,5.8-5.7,5.8c0,0-0.1,0-0.1,0C923,970.2,920.4,967.7,920.4,964.5L920.4,964.5z"
			/>
		<path id="Person-2-87" class="st2" d="M890.9,980.2c0-4.7,4.5-8.5,10-8.5s10.1,3.8,10.1,8.5L890.9,980.2z M895.2,964.6
			c0-3.2,2.5-5.8,5.7-5.8s5.8,2.5,5.8,5.7c0,3.2-2.5,5.8-5.7,5.8c0,0-0.1,0-0.1,0C897.7,970.2,895.2,967.7,895.2,964.6L895.2,964.6z
			"/>
		<path id="Person-2-88" class="st2" d="M865.6,980.2c0-4.7,4.5-8.5,10-8.5s10.1,3.8,10.1,8.5L865.6,980.2z M869.9,964.6
			c0-3.2,2.5-5.8,5.7-5.8s5.8,2.5,5.8,5.7c0,3.2-2.5,5.8-5.7,5.8c0,0-0.1,0-0.1,0C872.5,970.3,869.9,967.7,869.9,964.6L869.9,964.6z
			"/>
		<path id="Person-2-89" class="st2" d="M840.4,980.3c0-4.7,4.5-8.5,10-8.5s10.1,3.8,10.1,8.5L840.4,980.3z M844.7,964.6
			c0-3.2,2.5-5.8,5.7-5.8s5.8,2.5,5.8,5.7c0,3.2-2.5,5.8-5.7,5.8c0,0-0.1,0-0.1,0C847.2,970.3,844.7,967.8,844.7,964.6L844.7,964.6z
			"/>
		<path id="Person-2-90" class="st2" d="M941.4,980.1c0-4.7,4.5-8.5,10-8.5s10.1,3.8,10.1,8.5L941.4,980.1z M945.7,964.5
			c0-3.2,2.5-5.8,5.7-5.8s5.8,2.5,5.8,5.7c0,3.2-2.5,5.8-5.7,5.8c0,0-0.1,0-0.1,0C948.2,970.1,945.7,967.6,945.7,964.5L945.7,964.5z
			"/>
		<path id="Person-2-91" class="st2" d="M1042.4,980c0-4.7,4.5-8.5,10-8.5s10.1,3.8,10.1,8.5L1042.4,980z M1046.7,964.4
			c0-3.2,2.5-5.8,5.7-5.8s5.8,2.5,5.8,5.7c0,3.2-2.5,5.8-5.7,5.8c0,0-0.1,0-0.1,0C1049.2,970,1046.7,967.5,1046.7,964.4z"/>
		<path id="Person-2-92" class="st2" d="M1017.1,980c0-4.7,4.5-8.5,10-8.5s10.1,3.8,10.1,8.5L1017.1,980z M1021.4,964.4
			c0-3.2,2.5-5.8,5.7-5.8c3.2,0,5.8,2.5,5.8,5.7c0,3.2-2.5,5.8-5.7,5.8c0,0-0.1,0-0.1,0C1024,970,1021.5,967.5,1021.4,964.4
			L1021.4,964.4z"/>
		<path id="Person-2-93" class="st2" d="M991.9,980.1c0-4.7,4.5-8.5,10-8.5s10.1,3.8,10.1,8.5L991.9,980.1z M996.2,964.4
			c0-3.2,2.5-5.8,5.7-5.8s5.8,2.5,5.8,5.7c0,3.2-2.5,5.8-5.7,5.8c0,0-0.1,0-0.1,0C998.7,970.1,996.2,967.6,996.2,964.4z"/>
		<path id="Person-2-94" class="st2" d="M966.6,980.1c0-4.7,4.5-8.5,10-8.5s10.1,3.8,10.1,8.5L966.6,980.1z M970.9,964.5
			c0-3.2,2.5-5.8,5.7-5.8c3.2,0,5.8,2.5,5.8,5.7c0,3.2-2.5,5.8-5.7,5.8c0,0-0.1,0-0.1,0C973.5,970.1,971,967.6,970.9,964.5z"/>
		<path id="Person-2-95" class="st2" d="M1067.6,979.9c0-4.7,4.5-8.5,10-8.5s10.1,3.8,10.1,8.5L1067.6,979.9z M1071.9,964.3
			c0-3.2,2.5-5.8,5.7-5.8s5.8,2.5,5.8,5.7c0,3.2-2.5,5.8-5.7,5.8c0,0-0.1,0-0.1,0C1074.5,970,1072,967.4,1071.9,964.3z"/>
		<path id="Person-2-96" class="st2" d="M1168.7,979.8c0-4.7,4.5-8.5,10-8.5s10.1,3.8,10.1,8.5L1168.7,979.8z M1172.9,964.2
			c0-3.2,2.5-5.8,5.7-5.8s5.8,2.5,5.8,5.7c0,3.2-2.5,5.8-5.7,5.8c0,0-0.1,0-0.1,0C1175.5,969.8,1173,967.3,1172.9,964.2z"/>
		<path id="Person-2-97" class="st2" d="M1143.4,979.8c0-4.7,4.5-8.5,10-8.5s10.1,3.8,10.1,8.5L1143.4,979.8z M1147.7,964.2
			c0-3.2,2.5-5.8,5.7-5.8s5.8,2.5,5.8,5.7c0,3.2-2.5,5.8-5.7,5.8c0,0-0.1,0-0.1,0C1150.3,969.9,1147.7,967.3,1147.7,964.2
			L1147.7,964.2z"/>
		<path id="Person-2-98" class="st2" d="M1118.1,979.9c0-4.7,4.5-8.5,10-8.5s10.1,3.8,10.1,8.5L1118.1,979.9z M1122.4,964.2
			c0-3.2,2.5-5.8,5.7-5.8c3.2,0,5.8,2.5,5.8,5.7c0,3.2-2.5,5.8-5.7,5.8c0,0-0.1,0-0.1,0C1125,969.9,1122.5,967.4,1122.4,964.2z"/>
		<path id="Person-2-99" class="st2" d="M1092.9,979.9c0-4.7,4.5-8.5,10-8.5s10.1,3.8,10.1,8.5L1092.9,979.9z M1097.2,964.3
			c0-3.2,2.5-5.8,5.7-5.8s5.8,2.5,5.8,5.7c0,3.2-2.5,5.8-5.7,5.8c0,0-0.1,0-0.1,0C1099.7,969.9,1097.2,967.4,1097.2,964.3
			L1097.2,964.3z"/>
		<path id="Person-2-100" class="st2" d="M1193.9,979.8c0-4.7,4.5-8.5,10-8.5s10.1,3.8,10.1,8.5L1193.9,979.8z M1198.2,964.1
			c0-3.2,2.5-5.8,5.7-5.8s5.8,2.5,5.8,5.7c0,3.2-2.5,5.8-5.7,5.8c0,0-0.1,0-0.1,0C1200.8,969.8,1198.2,967.3,1198.2,964.1z"/>
	</g>
	<g class="st3">
		<path class="st0" d="M322.8,1281.3h-35.9v-7.6l12.9-13c3.8-3.9,6.3-6.6,7.5-8.1c1.2-1.5,2-2.9,2.5-4.2c0.5-1.3,0.8-2.6,0.8-4
			c0-2.1-0.6-3.6-1.7-4.6c-1.1-1-2.7-1.5-4.6-1.5c-2,0-3.9,0.5-5.8,1.4c-1.9,0.9-3.8,2.2-5.9,3.9l-5.9-7c2.5-2.2,4.6-3.7,6.3-4.6
			c1.7-0.9,3.5-1.6,5.4-2.1s4.2-0.7,6.6-0.7c3.2,0,6,0.6,8.5,1.8s4.4,2.8,5.7,4.9c1.4,2.1,2,4.5,2,7.2c0,2.4-0.4,4.6-1.2,6.7
			c-0.8,2.1-2.1,4.2-3.9,6.4c-1.7,2.2-4.8,5.3-9.2,9.3l-6.6,6.2v0.5h22.4V1281.3z"/>
		<path class="st0" d="M351.8,1245.3c0,5.4-1,9.4-3.1,12.1c-2.1,2.7-5.1,4.1-9.2,4.1c-3.9,0-6.9-1.4-9-4.2s-3.2-6.8-3.2-12
			c0-10.7,4-16.1,12.1-16.1c4,0,7,1.4,9.1,4.2C350.7,1236.1,351.8,1240.1,351.8,1245.3z M336.2,1245.3c0,3,0.3,5.2,0.8,6.7
			s1.4,2.2,2.5,2.2c2.2,0,3.4-3,3.4-8.9c0-5.9-1.1-8.8-3.4-8.8c-1.2,0-2,0.7-2.5,2.2S336.2,1242.4,336.2,1245.3z M375.9,1229.9
			l-28.5,51.4H339l28.5-51.4H375.9z M387.8,1265.8c0,5.4-1,9.4-3.1,12.1c-2.1,2.7-5.1,4.1-9.2,4.1c-3.9,0-6.9-1.4-9-4.2
			s-3.2-6.8-3.2-12c0-10.7,4-16.1,12.1-16.1c4,0,7,1.4,9.1,4.2C386.7,1256.7,387.8,1260.6,387.8,1265.8z M372.2,1265.9
			c0,3,0.3,5.2,0.8,6.7s1.4,2.2,2.5,2.2c2.2,0,3.4-3,3.4-8.9c0-5.9-1.1-8.8-3.4-8.8c-1.2,0-2,0.7-2.5,2.2S372.2,1262.9,372.2,1265.9
			z"/>
	</g>
	<g class="st3">
		<path class="st4" d="M294.2,1309.2c0,1.5-0.4,2.6-1.1,3.5s-1.8,1.2-3.1,1.2c-0.8,0-1.5-0.2-2.2-0.6c-0.6-0.4-1.1-0.9-1.5-1.6
			c-0.3-0.7-0.5-1.5-0.5-2.5c0-1.5,0.4-2.6,1.1-3.5s1.8-1.2,3.1-1.2c1.3,0,2.3,0.4,3,1.3C293.8,1306.6,294.2,1307.8,294.2,1309.2z
			 M287.3,1309.2c0,1.2,0.2,2,0.7,2.7c0.5,0.6,1.1,0.9,2.1,0.9s1.6-0.3,2.1-0.9c0.5-0.6,0.7-1.5,0.7-2.7c0-1.2-0.2-2-0.7-2.6
			c-0.5-0.6-1.2-0.9-2.1-0.9c-0.9,0-1.6,0.3-2,0.9S287.3,1308,287.3,1309.2z"/>
		<path class="st4" d="M300.7,1305.7h-2.3v8H297v-8h-1.6v-0.6l1.6-0.5v-0.5c0-2.2,1-3.4,2.9-3.4c0.5,0,1,0.1,1.7,0.3l-0.4,1.1
			c-0.5-0.2-1-0.3-1.4-0.3c-0.5,0-0.9,0.2-1.2,0.5s-0.4,0.9-0.4,1.7v0.6h2.3V1305.7z"/>
		<path class="st4" d="M308.1,1304.7v5.9c0,0.7,0.2,1.3,0.5,1.7s0.9,0.5,1.6,0.5c1,0,1.6-0.3,2.1-0.8c0.4-0.5,0.7-1.4,0.7-2.5v-4.8
			h1.4v9.1h-1.1l-0.2-1.2h-0.1c-0.3,0.4-0.7,0.8-1.2,1c-0.5,0.2-1.1,0.4-1.7,0.4c-1.1,0-1.9-0.3-2.5-0.8c-0.6-0.5-0.8-1.4-0.8-2.5
			v-6H308.1z"/>
		<path class="st4" d="M323.1,1311.3c0,0.8-0.3,1.5-0.9,2c-0.6,0.5-1.5,0.7-2.7,0.7c-1.2,0-2.1-0.2-2.8-0.6v-1.3
			c0.4,0.2,0.9,0.4,1.4,0.5c0.5,0.1,1,0.2,1.4,0.2c0.7,0,1.3-0.1,1.7-0.3s0.6-0.6,0.6-1c0-0.4-0.2-0.7-0.5-0.9
			c-0.3-0.3-0.9-0.5-1.8-0.9c-0.8-0.3-1.4-0.6-1.8-0.8c-0.4-0.2-0.6-0.5-0.8-0.8c-0.2-0.3-0.3-0.7-0.3-1.1c0-0.7,0.3-1.3,0.9-1.8
			s1.4-0.6,2.5-0.6c1,0,1.9,0.2,2.9,0.6l-0.5,1.1c-0.9-0.4-1.7-0.6-2.5-0.6c-0.7,0-1.1,0.1-1.5,0.3s-0.5,0.5-0.5,0.8
			c0,0.2,0.1,0.5,0.2,0.6c0.1,0.2,0.3,0.3,0.6,0.5s0.8,0.4,1.6,0.7c1.1,0.4,1.8,0.8,2.2,1.2C322.9,1310.2,323.1,1310.7,323.1,1311.3
			z"/>
		<path class="st4" d="M329.2,1313.9c-1.3,0-2.4-0.4-3.2-1.2c-0.8-0.8-1.2-2-1.2-3.4c0-1.5,0.4-2.6,1.1-3.5c0.7-0.9,1.7-1.3,2.9-1.3
			c1.1,0,2,0.4,2.7,1.1s1,1.7,1,3v0.9h-6.3c0,1.1,0.3,1.9,0.8,2.4c0.5,0.6,1.2,0.8,2.2,0.8c1,0,1.9-0.2,2.9-0.6v1.2
			c-0.5,0.2-0.9,0.4-1.4,0.5C330.3,1313.9,329.8,1313.9,329.2,1313.9z M328.8,1305.6c-0.7,0-1.3,0.2-1.7,0.7c-0.4,0.5-0.7,1.1-0.8,2
			h4.8c0-0.9-0.2-1.5-0.6-2S329.5,1305.6,328.8,1305.6z"/>
		<path class="st4" d="M339,1304.5c0.4,0,0.8,0,1.1,0.1l-0.2,1.3c-0.4-0.1-0.7-0.1-1-0.1c-0.7,0-1.4,0.3-1.9,0.9
			c-0.5,0.6-0.8,1.3-0.8,2.2v4.9h-1.4v-9.1h1.1l0.2,1.7h0.1c0.3-0.6,0.7-1,1.2-1.4S338.5,1304.5,339,1304.5z"/>
		<path class="st4" d="M347.7,1311.3c0,0.8-0.3,1.5-0.9,2c-0.6,0.5-1.5,0.7-2.7,0.7c-1.2,0-2.1-0.2-2.8-0.6v-1.3
			c0.4,0.2,0.9,0.4,1.4,0.5c0.5,0.1,1,0.2,1.4,0.2c0.7,0,1.3-0.1,1.7-0.3s0.6-0.6,0.6-1c0-0.4-0.2-0.7-0.5-0.9
			c-0.3-0.3-0.9-0.5-1.8-0.9c-0.8-0.3-1.4-0.6-1.8-0.8c-0.4-0.2-0.6-0.5-0.8-0.8c-0.2-0.3-0.3-0.7-0.3-1.1c0-0.7,0.3-1.3,0.9-1.8
			s1.4-0.6,2.5-0.6c1,0,1.9,0.2,2.9,0.6l-0.5,1.1c-0.9-0.4-1.7-0.6-2.5-0.6c-0.7,0-1.1,0.1-1.5,0.3s-0.5,0.5-0.5,0.8
			c0,0.2,0.1,0.5,0.2,0.6c0.1,0.2,0.3,0.3,0.6,0.5s0.8,0.4,1.6,0.7c1.1,0.4,1.8,0.8,2.2,1.2C347.5,1310.2,347.7,1310.7,347.7,1311.3
			z"/>
		<path class="st4" d="M358.5,1305.7h-2.3v8h-1.4v-8h-1.6v-0.6l1.6-0.5v-0.5c0-2.2,1-3.4,2.9-3.4c0.5,0,1,0.1,1.7,0.3l-0.4,1.1
			c-0.5-0.2-1-0.3-1.4-0.3c-0.5,0-0.9,0.2-1.2,0.5s-0.4,0.9-0.4,1.7v0.6h2.3V1305.7z M360,1302.2c0-0.3,0.1-0.5,0.2-0.7
			s0.3-0.2,0.6-0.2c0.2,0,0.4,0.1,0.6,0.2s0.2,0.4,0.2,0.7c0,0.3-0.1,0.5-0.2,0.7s-0.4,0.2-0.6,0.2c-0.2,0-0.4-0.1-0.6-0.2
			S360,1302.5,360,1302.2z M361.5,1313.8h-1.4v-9.1h1.4V1313.8z"/>
		<path class="st4" d="M370.6,1313.8v-5.9c0-0.7-0.2-1.3-0.5-1.7s-0.9-0.5-1.6-0.5c-1,0-1.6,0.3-2.1,0.8s-0.7,1.4-0.7,2.5v4.8h-1.4
			v-9.1h1.1l0.2,1.2h0.1c0.3-0.4,0.7-0.8,1.2-1s1.1-0.4,1.7-0.4c1.1,0,1.9,0.3,2.5,0.8s0.8,1.4,0.8,2.5v5.9H370.6z"/>
		<path class="st4" d="M381,1312.5L381,1312.5c-0.7,0.9-1.7,1.4-2.9,1.4c-1.2,0-2.1-0.4-2.8-1.2c-0.7-0.8-1-2-1-3.5
			c0-1.5,0.3-2.7,1-3.5s1.6-1.2,2.8-1.2c1.2,0,2.2,0.4,2.8,1.3h0.1l-0.1-0.7l0-0.6v-3.7h1.4v12.9h-1.1L381,1312.5z M378.3,1312.8
			c0.9,0,1.6-0.3,2-0.8c0.4-0.5,0.6-1.3,0.6-2.5v-0.3c0-1.3-0.2-2.2-0.6-2.8c-0.4-0.6-1.1-0.8-2.1-0.8c-0.8,0-1.4,0.3-1.9,0.9
			c-0.4,0.6-0.6,1.5-0.6,2.7c0,1.2,0.2,2,0.6,2.6S377.5,1312.8,378.3,1312.8z"/>
	</g>
	<g class="st3">
		<path class="st4" d="M289.3,1334.8c0.2,0,0.5,0,0.7-0.1s0.4-0.1,0.5-0.1v1.1c-0.1,0.1-0.4,0.1-0.7,0.2c-0.3,0-0.6,0.1-0.8,0.1
			c-1.8,0-2.6-0.9-2.6-2.8v-5.4h-1.3v-0.7l1.3-0.6l0.6-1.9h0.8v2.1h2.6v1.1h-2.6v5.4c0,0.5,0.1,1,0.4,1.3S288.9,1334.8,289.3,1334.8
			z"/>
		<path class="st4" d="M298.6,1335.8v-5.9c0-0.7-0.2-1.3-0.5-1.7s-0.9-0.5-1.6-0.5c-1,0-1.7,0.3-2.1,0.8c-0.4,0.5-0.7,1.4-0.7,2.6
			v4.8h-1.4v-12.9h1.4v3.9c0,0.5,0,0.9-0.1,1.2h0.1c0.3-0.4,0.7-0.8,1.2-1c0.5-0.3,1.1-0.4,1.7-0.4c1.1,0,1.9,0.3,2.5,0.8
			c0.6,0.5,0.8,1.4,0.8,2.5v5.9H298.6z"/>
		<path class="st4" d="M306.6,1335.9c-1.3,0-2.4-0.4-3.2-1.2c-0.8-0.8-1.2-2-1.2-3.4c0-1.5,0.4-2.6,1.1-3.5c0.7-0.9,1.7-1.3,2.9-1.3
			c1.1,0,2,0.4,2.7,1.1s1,1.7,1,3v0.9h-6.3c0,1.1,0.3,1.9,0.8,2.4c0.5,0.6,1.2,0.8,2.2,0.8c1,0,1.9-0.2,2.9-0.6v1.2
			c-0.5,0.2-0.9,0.4-1.4,0.5C307.8,1335.9,307.3,1335.9,306.6,1335.9z M306.3,1327.6c-0.7,0-1.3,0.2-1.7,0.7c-0.4,0.5-0.7,1.1-0.8,2
			h4.8c0-0.9-0.2-1.5-0.6-2S307,1327.6,306.3,1327.6z"/>
		<path class="st4" d="M322.6,1333.3c0,0.8-0.3,1.5-0.9,2c-0.6,0.5-1.5,0.7-2.7,0.7c-1.2,0-2.1-0.2-2.8-0.6v-1.3
			c0.4,0.2,0.9,0.4,1.4,0.5c0.5,0.1,1,0.2,1.4,0.2c0.7,0,1.3-0.1,1.7-0.3s0.6-0.6,0.6-1c0-0.4-0.2-0.7-0.5-0.9
			c-0.3-0.3-0.9-0.5-1.8-0.9c-0.8-0.3-1.4-0.6-1.8-0.8c-0.4-0.2-0.6-0.5-0.8-0.8c-0.2-0.3-0.3-0.7-0.3-1.1c0-0.7,0.3-1.3,0.9-1.8
			s1.4-0.6,2.5-0.6c1,0,1.9,0.2,2.9,0.6l-0.5,1.1c-0.9-0.4-1.7-0.6-2.5-0.6c-0.7,0-1.1,0.1-1.5,0.3s-0.5,0.5-0.5,0.8
			c0,0.2,0.1,0.5,0.2,0.6c0.1,0.2,0.3,0.3,0.6,0.5s0.8,0.4,1.6,0.7c1.1,0.4,1.8,0.8,2.2,1.2C322.4,1332.2,322.6,1332.7,322.6,1333.3
			z"/>
		<path class="st4" d="M324.7,1324.2c0-0.3,0.1-0.5,0.2-0.7s0.3-0.2,0.6-0.2c0.2,0,0.4,0.1,0.6,0.2s0.2,0.4,0.2,0.7
			c0,0.3-0.1,0.5-0.2,0.7s-0.4,0.2-0.6,0.2c-0.2,0-0.4-0.1-0.6-0.2S324.7,1324.5,324.7,1324.2z M326.2,1335.8h-1.4v-9.1h1.4V1335.8z
			"/>
		<path class="st4" d="M332.1,1334.8c0.2,0,0.5,0,0.7-0.1s0.4-0.1,0.5-0.1v1.1c-0.1,0.1-0.4,0.1-0.7,0.2c-0.3,0-0.6,0.1-0.8,0.1
			c-1.8,0-2.6-0.9-2.6-2.8v-5.4H328v-0.7l1.3-0.6l0.6-1.9h0.8v2.1h2.6v1.1h-2.6v5.4c0,0.5,0.1,1,0.4,1.3S331.7,1334.8,332.1,1334.8z
			"/>
		<path class="st4" d="M339,1335.9c-1.3,0-2.4-0.4-3.2-1.2c-0.8-0.8-1.2-2-1.2-3.4c0-1.5,0.4-2.6,1.1-3.5c0.7-0.9,1.7-1.3,2.9-1.3
			c1.1,0,2,0.4,2.7,1.1s1,1.7,1,3v0.9h-6.3c0,1.1,0.3,1.9,0.8,2.4c0.5,0.6,1.2,0.8,2.2,0.8c1,0,1.9-0.2,2.9-0.6v1.2
			c-0.5,0.2-0.9,0.4-1.4,0.5C340.1,1335.9,339.6,1335.9,339,1335.9z M338.6,1327.6c-0.7,0-1.3,0.2-1.7,0.7c-0.4,0.5-0.7,1.1-0.8,2
			h4.8c0-0.9-0.2-1.5-0.6-2S339.4,1327.6,338.6,1327.6z"/>
		<path class="st4" d="M355.3,1335.8v-5.9c0-0.7-0.2-1.3-0.5-1.7s-0.9-0.5-1.6-0.5c-1,0-1.7,0.3-2.1,0.8c-0.4,0.5-0.7,1.4-0.7,2.6
			v4.8h-1.4v-12.9h1.4v3.9c0,0.5,0,0.9-0.1,1.2h0.1c0.3-0.4,0.7-0.8,1.2-1c0.5-0.3,1.1-0.4,1.7-0.4c1.1,0,1.9,0.3,2.5,0.8
			c0.6,0.5,0.8,1.4,0.8,2.5v5.9H355.3z"/>
		<path class="st4" d="M365.1,1335.8l-0.3-1.3h-0.1c-0.5,0.6-0.9,1-1.4,1.2c-0.5,0.2-1,0.3-1.7,0.3c-0.9,0-1.6-0.2-2.1-0.7
			c-0.5-0.5-0.8-1.1-0.8-2c0-1.8,1.5-2.8,4.4-2.9l1.5,0v-0.6c0-0.7-0.2-1.2-0.5-1.6c-0.3-0.3-0.8-0.5-1.5-0.5
			c-0.8,0-1.6,0.2-2.6,0.7l-0.4-1.1c0.4-0.2,0.9-0.4,1.5-0.6c0.5-0.1,1.1-0.2,1.6-0.2c1.1,0,1.9,0.2,2.4,0.7
			c0.5,0.5,0.8,1.3,0.8,2.3v6.2H365.1z M362,1334.8c0.9,0,1.5-0.2,2-0.7c0.5-0.5,0.7-1.1,0.7-2v-0.8l-1.4,0.1
			c-1.1,0-1.9,0.2-2.4,0.5c-0.5,0.3-0.7,0.8-0.7,1.4c0,0.5,0.2,0.9,0.5,1.1C361.1,1334.7,361.5,1334.8,362,1334.8z"/>
		<path class="st4" d="M373.2,1326.5c0.4,0,0.8,0,1.1,0.1l-0.2,1.3c-0.4-0.1-0.7-0.1-1-0.1c-0.7,0-1.4,0.3-1.9,0.9
			c-0.5,0.6-0.8,1.3-0.8,2.2v4.9H369v-9.1h1.1l0.2,1.7h0.1c0.3-0.6,0.7-1,1.2-1.4S372.6,1326.5,373.2,1326.5z"/>
		<path class="st4" d="M382.1,1334.5L382.1,1334.5c-0.7,0.9-1.7,1.4-2.9,1.4c-1.2,0-2.1-0.4-2.8-1.2c-0.7-0.8-1-2-1-3.5
			c0-1.5,0.3-2.7,1-3.5s1.6-1.2,2.8-1.2c1.2,0,2.2,0.4,2.8,1.3h0.1l-0.1-0.7l0-0.6v-3.7h1.4v12.9h-1.1L382.1,1334.5z M379.4,1334.8
			c0.9,0,1.6-0.3,2-0.8c0.4-0.5,0.6-1.3,0.6-2.5v-0.3c0-1.3-0.2-2.2-0.6-2.8c-0.4-0.6-1.1-0.8-2.1-0.8c-0.8,0-1.4,0.3-1.9,0.9
			c-0.4,0.6-0.6,1.5-0.6,2.7c0,1.2,0.2,2,0.6,2.6S378.6,1334.8,379.4,1334.8z"/>
	</g>
	<g class="st3">
		<path class="st4" d="M289.3,1356.8c0.2,0,0.5,0,0.7-0.1s0.4-0.1,0.5-0.1v1.1c-0.1,0.1-0.4,0.1-0.7,0.2c-0.3,0-0.6,0.1-0.8,0.1
			c-1.8,0-2.6-0.9-2.6-2.8v-5.4h-1.3v-0.7l1.3-0.6l0.6-1.9h0.8v2.1h2.6v1.1h-2.6v5.4c0,0.5,0.1,1,0.4,1.3S288.9,1356.8,289.3,1356.8
			z"/>
		<path class="st4" d="M300.2,1353.2c0,1.5-0.4,2.6-1.1,3.5s-1.8,1.2-3.1,1.2c-0.8,0-1.5-0.2-2.2-0.6c-0.6-0.4-1.1-0.9-1.5-1.6
			c-0.3-0.7-0.5-1.5-0.5-2.5c0-1.5,0.4-2.6,1.1-3.5s1.8-1.2,3.1-1.2c1.3,0,2.3,0.4,3,1.3C299.8,1350.6,300.2,1351.8,300.2,1353.2z
			 M293.3,1353.2c0,1.2,0.2,2,0.7,2.7c0.5,0.6,1.1,0.9,2.1,0.9s1.6-0.3,2.1-0.9c0.5-0.6,0.7-1.5,0.7-2.7c0-1.2-0.2-2-0.7-2.6
			c-0.5-0.6-1.2-0.9-2.1-0.9c-0.9,0-1.6,0.3-2,0.9S293.3,1352,293.3,1353.2z"/>
		<path class="st4" d="M313.3,1357.8v-5.9c0-0.7-0.2-1.3-0.5-1.7s-0.9-0.5-1.6-0.5c-1,0-1.6,0.3-2.1,0.8s-0.7,1.4-0.7,2.5v4.8h-1.4
			v-9.1h1.1l0.2,1.2h0.1c0.3-0.4,0.7-0.8,1.2-1s1.1-0.4,1.7-0.4c1.1,0,1.9,0.3,2.5,0.8s0.8,1.4,0.8,2.5v5.9H313.3z"/>
		<path class="st4" d="M323.1,1357.8l-0.3-1.3h-0.1c-0.5,0.6-0.9,1-1.4,1.2c-0.5,0.2-1,0.3-1.7,0.3c-0.9,0-1.6-0.2-2.1-0.7
			c-0.5-0.5-0.8-1.1-0.8-2c0-1.8,1.5-2.8,4.4-2.9l1.5,0v-0.6c0-0.7-0.2-1.2-0.5-1.6c-0.3-0.3-0.8-0.5-1.5-0.5
			c-0.8,0-1.6,0.2-2.6,0.7l-0.4-1.1c0.4-0.2,0.9-0.4,1.5-0.6c0.5-0.1,1.1-0.2,1.6-0.2c1.1,0,1.9,0.2,2.4,0.7
			c0.5,0.5,0.8,1.3,0.8,2.3v6.2H323.1z M320,1356.8c0.9,0,1.5-0.2,2-0.7c0.5-0.5,0.7-1.1,0.7-2v-0.8l-1.4,0.1
			c-1.1,0-1.9,0.2-2.4,0.5c-0.5,0.3-0.7,0.8-0.7,1.4c0,0.5,0.2,0.9,0.5,1.1C319,1356.7,319.4,1356.8,320,1356.8z"/>
		<path class="st4" d="M328.9,1357.8l-3.5-9.1h1.5l2,5.4c0.4,1.3,0.7,2.1,0.8,2.5h0.1c0.1-0.3,0.3-0.9,0.6-1.8c0.3-0.9,1-2.9,2.2-6
			h1.5l-3.5,9.1H328.9z"/>
		<path class="st4" d="M335.3,1346.2c0-0.3,0.1-0.5,0.2-0.7s0.3-0.2,0.6-0.2c0.2,0,0.4,0.1,0.6,0.2s0.2,0.4,0.2,0.7
			c0,0.3-0.1,0.5-0.2,0.7s-0.4,0.2-0.6,0.2c-0.2,0-0.4-0.1-0.6-0.2S335.3,1346.5,335.3,1346.2z M336.8,1357.8h-1.4v-9.1h1.4V1357.8z
			"/>
		<path class="st4" d="M347.2,1348.7v0.9l-1.7,0.2c0.2,0.2,0.3,0.4,0.4,0.8s0.2,0.7,0.2,1.1c0,0.9-0.3,1.6-0.9,2.1s-1.4,0.8-2.5,0.8
			c-0.3,0-0.5,0-0.8-0.1c-0.6,0.3-0.9,0.7-0.9,1.2c0,0.2,0.1,0.4,0.3,0.6s0.6,0.2,1.1,0.2h1.6c1,0,1.7,0.2,2.3,0.6
			c0.5,0.4,0.8,1,0.8,1.8c0,1-0.4,1.8-1.2,2.3s-2,0.8-3.5,0.8c-1.2,0-2.1-0.2-2.8-0.7c-0.6-0.4-1-1.1-1-1.9c0-0.6,0.2-1,0.5-1.4
			c0.4-0.4,0.9-0.7,1.5-0.8c-0.2-0.1-0.4-0.3-0.6-0.5c-0.2-0.2-0.2-0.5-0.2-0.8c0-0.3,0.1-0.6,0.3-0.9c0.2-0.2,0.5-0.5,0.8-0.7
			c-0.5-0.2-0.9-0.5-1.1-1c-0.3-0.5-0.4-1-0.4-1.6c0-1,0.3-1.8,0.9-2.3c0.6-0.5,1.4-0.8,2.5-0.8c0.5,0,0.9,0.1,1.3,0.2H347.2z
			 M339.9,1359.3c0,0.5,0.2,0.9,0.6,1.1c0.4,0.3,1,0.4,1.8,0.4c1.2,0,2-0.2,2.6-0.5c0.6-0.3,0.8-0.8,0.8-1.4c0-0.5-0.2-0.8-0.5-1
			c-0.3-0.2-0.9-0.3-1.7-0.3h-1.7c-0.6,0-1.1,0.1-1.5,0.4S339.9,1358.7,339.9,1359.3z M340.7,1351.6c0,0.6,0.2,1.1,0.5,1.4
			c0.4,0.3,0.9,0.5,1.5,0.5c1.3,0,2-0.7,2-2c0-1.4-0.7-2.1-2-2.1c-0.6,0-1.1,0.2-1.5,0.5S340.7,1350.9,340.7,1351.6z"/>
		<path class="st4" d="M354.7,1357.8l-0.3-1.3h-0.1c-0.5,0.6-0.9,1-1.4,1.2c-0.5,0.2-1,0.3-1.7,0.3c-0.9,0-1.6-0.2-2.1-0.7
			c-0.5-0.5-0.8-1.1-0.8-2c0-1.8,1.5-2.8,4.4-2.9l1.5,0v-0.6c0-0.7-0.2-1.2-0.5-1.6c-0.3-0.3-0.8-0.5-1.5-0.5
			c-0.8,0-1.6,0.2-2.6,0.7l-0.4-1.1c0.4-0.2,0.9-0.4,1.5-0.6c0.5-0.1,1.1-0.2,1.6-0.2c1.1,0,1.9,0.2,2.4,0.7
			c0.5,0.5,0.8,1.3,0.8,2.3v6.2H354.7z M351.6,1356.8c0.9,0,1.5-0.2,2-0.7c0.5-0.5,0.7-1.1,0.7-2v-0.8l-1.4,0.1
			c-1.1,0-1.9,0.2-2.4,0.5c-0.5,0.3-0.7,0.8-0.7,1.4c0,0.5,0.2,0.9,0.5,1.1C350.6,1356.7,351,1356.8,351.6,1356.8z"/>
		<path class="st4" d="M361.5,1356.8c0.2,0,0.5,0,0.7-0.1s0.4-0.1,0.5-0.1v1.1c-0.1,0.1-0.4,0.1-0.7,0.2c-0.3,0-0.6,0.1-0.8,0.1
			c-1.8,0-2.6-0.9-2.6-2.8v-5.4h-1.3v-0.7l1.3-0.6l0.6-1.9h0.8v2.1h2.6v1.1H360v5.4c0,0.5,0.1,1,0.4,1.3S361,1356.8,361.5,1356.8z"
			/>
		<path class="st4" d="M368.4,1357.9c-1.3,0-2.4-0.4-3.2-1.2c-0.8-0.8-1.2-2-1.2-3.4c0-1.5,0.4-2.6,1.1-3.5c0.7-0.9,1.7-1.3,2.9-1.3
			c1.1,0,2,0.4,2.7,1.1s1,1.7,1,3v0.9h-6.3c0,1.1,0.3,1.9,0.8,2.4c0.5,0.6,1.2,0.8,2.2,0.8c1,0,1.9-0.2,2.9-0.6v1.2
			c-0.5,0.2-0.9,0.4-1.4,0.5C369.5,1357.9,369,1357.9,368.4,1357.9z M368,1349.6c-0.7,0-1.3,0.2-1.7,0.7c-0.4,0.5-0.7,1.1-0.8,2h4.8
			c0-0.9-0.2-1.5-0.6-2S368.7,1349.6,368,1349.6z"/>
	</g>
	<g class="st3">
		<path class="st0" d="M1119.7,1241.7c0,3.2-1,5.9-2.9,8.2s-4.7,3.8-8.2,4.6v0.2c4.1,0.5,7.3,1.8,9.4,3.8s3.2,4.7,3.2,8.1
			c0,4.9-1.8,8.8-5.4,11.5s-8.7,4.1-15.4,4.1c-5.6,0-10.5-0.9-14.8-2.8v-9.2c2,1,4.2,1.8,6.6,2.5s4.8,0.9,7.1,0.9
			c3.6,0,6.2-0.6,7.9-1.8s2.6-3.2,2.6-5.9c0-2.4-1-4.1-3-5.1s-5.1-1.5-9.4-1.5h-3.9v-8.3h4c4,0,6.9-0.5,8.7-1.6s2.8-2.8,2.8-5.4
			c0-3.9-2.4-5.8-7.3-5.8c-1.7,0-3.4,0.3-5.2,0.8s-3.7,1.5-5.8,2.9l-5-7.5c4.7-3.4,10.3-5.1,16.8-5.1c5.3,0,9.5,1.1,12.6,3.2
			S1119.7,1237.8,1119.7,1241.7z"/>
		<path class="st0" d="M1132,1281.6l19.3-42.2H1126v-9.1h36.9v6.8l-19.4,44.5H1132z"/>
		<path class="st0" d="M1191.8,1245.5c0,5.4-1,9.4-3.1,12.1s-5.1,4.1-9.2,4.1c-3.9,0-6.9-1.4-9-4.2s-3.2-6.8-3.2-12
			c0-10.7,4-16.1,12.1-16.1c4,0,7,1.4,9.1,4.2S1191.8,1240.3,1191.8,1245.5z M1176.2,1245.6c0,3,0.3,5.2,0.8,6.7s1.4,2.2,2.5,2.2
			c2.2,0,3.4-3,3.4-8.9c0-5.9-1.1-8.8-3.4-8.8c-1.2,0-2,0.7-2.5,2.2S1176.2,1242.6,1176.2,1245.6z M1216,1230.2l-28.5,51.4h-8.4
			l28.5-51.4H1216z M1227.8,1266c0,5.4-1,9.4-3.1,12.1s-5.1,4.1-9.2,4.1c-3.9,0-6.9-1.4-9-4.2s-3.2-6.8-3.2-12
			c0-10.7,4-16.1,12.1-16.1c4,0,7,1.4,9.1,4.2S1227.8,1260.9,1227.8,1266z M1212.2,1266.1c0,3,0.3,5.2,0.8,6.7s1.4,2.2,2.5,2.2
			c2.2,0,3.4-3,3.4-8.9c0-5.9-1.1-8.8-3.4-8.8c-1.2,0-2,0.7-2.5,2.2S1212.2,1263.1,1212.2,1266.1z"/>
	</g>
	<g id="Group" transform="translate(-165 377.184)">
		<g class="st3">
			<path class="st4" d="M1256.2,931.9c0,1.5-0.4,2.6-1.1,3.5s-1.8,1.2-3.1,1.2c-0.8,0-1.5-0.2-2.2-0.6c-0.6-0.4-1.1-0.9-1.5-1.6
				c-0.3-0.7-0.5-1.5-0.5-2.5c0-1.5,0.4-2.6,1.1-3.5c0.7-0.8,1.8-1.2,3.1-1.2c1.3,0,2.3,0.4,3,1.3
				C1255.8,929.3,1256.2,930.5,1256.2,931.9z M1249.3,931.9c0,1.2,0.2,2,0.7,2.7c0.5,0.6,1.1,0.9,2,0.9c0.9,0,1.6-0.3,2.1-0.9
				c0.5-0.6,0.7-1.5,0.7-2.7c0-1.2-0.2-2-0.7-2.6s-1.2-0.9-2.1-0.9c-0.9,0-1.6,0.3-2,0.9C1249.5,929.9,1249.3,930.7,1249.3,931.9z"
				/>
			<path class="st4" d="M1262.7,928.4h-2.3v8h-1.4v-8h-1.6v-0.6l1.6-0.5v-0.5c0-2.2,1-3.4,2.9-3.4c0.5,0,1,0.1,1.7,0.3l-0.4,1.1
				c-0.5-0.2-1-0.3-1.4-0.3c-0.5,0-0.9,0.2-1.2,0.5s-0.4,0.9-0.4,1.7v0.6h2.3V928.4z"/>
			<path class="st4" d="M1270.1,927.4v5.9c0,0.7,0.2,1.3,0.5,1.7c0.3,0.4,0.9,0.5,1.6,0.5c1,0,1.6-0.3,2.1-0.8
				c0.4-0.5,0.7-1.4,0.7-2.5v-4.8h1.4v9.1h-1.1l-0.2-1.2h-0.1c-0.3,0.4-0.7,0.8-1.2,1c-0.5,0.2-1.1,0.4-1.7,0.4
				c-1.1,0-1.9-0.3-2.5-0.8c-0.6-0.5-0.8-1.4-0.8-2.5v-6H1270.1z"/>
			<path class="st4" d="M1285.1,934c0,0.8-0.3,1.5-0.9,2c-0.6,0.5-1.5,0.7-2.7,0.7c-1.2,0-2.1-0.2-2.8-0.6v-1.3
				c0.4,0.2,0.9,0.4,1.4,0.5c0.5,0.1,1,0.2,1.4,0.2c0.7,0,1.3-0.1,1.7-0.3c0.4-0.2,0.6-0.6,0.6-1c0-0.4-0.2-0.7-0.5-0.9
				c-0.3-0.3-0.9-0.5-1.8-0.9c-0.8-0.3-1.4-0.6-1.8-0.8c-0.4-0.2-0.6-0.5-0.8-0.8c-0.2-0.3-0.3-0.7-0.3-1.1c0-0.7,0.3-1.3,0.9-1.8
				c0.6-0.4,1.4-0.6,2.5-0.6c1,0,1.9,0.2,2.9,0.6l-0.5,1.1c-0.9-0.4-1.7-0.6-2.5-0.6c-0.7,0-1.1,0.1-1.5,0.3s-0.5,0.5-0.5,0.8
				c0,0.2,0.1,0.5,0.2,0.6c0.1,0.2,0.3,0.3,0.6,0.5c0.3,0.2,0.8,0.4,1.6,0.7c1.1,0.4,1.8,0.8,2.2,1.2
				C1284.9,932.9,1285.1,933.4,1285.1,934z"/>
			<path class="st4" d="M1291.2,936.6c-1.3,0-2.4-0.4-3.2-1.2c-0.8-0.8-1.2-2-1.2-3.4c0-1.5,0.4-2.6,1.1-3.5
				c0.7-0.9,1.7-1.3,2.9-1.3c1.1,0,2,0.4,2.7,1.1s1,1.7,1,3v0.9h-6.3c0,1.1,0.3,1.9,0.8,2.4c0.5,0.6,1.2,0.8,2.2,0.8
				c1,0,1.9-0.2,2.9-0.6v1.2c-0.5,0.2-0.9,0.4-1.4,0.5C1292.3,936.6,1291.8,936.6,1291.2,936.6z M1290.8,928.4
				c-0.7,0-1.3,0.2-1.7,0.7c-0.4,0.5-0.7,1.1-0.8,2h4.8c0-0.9-0.2-1.5-0.6-2C1292.1,928.6,1291.5,928.4,1290.8,928.4z"/>
			<path class="st4" d="M1301,927.2c0.4,0,0.8,0,1.1,0.1l-0.2,1.3c-0.4-0.1-0.7-0.1-1-0.1c-0.7,0-1.4,0.3-1.9,0.9
				c-0.5,0.6-0.8,1.3-0.8,2.2v4.9h-1.4v-9.1h1.1l0.2,1.7h0.1c0.3-0.6,0.7-1,1.2-1.4C1299.9,927.4,1300.5,927.2,1301,927.2z"/>
			<path class="st4" d="M1309.7,934c0,0.8-0.3,1.5-0.9,2c-0.6,0.5-1.5,0.7-2.7,0.7c-1.2,0-2.1-0.2-2.8-0.6v-1.3
				c0.4,0.2,0.9,0.4,1.4,0.5c0.5,0.1,1,0.2,1.4,0.2c0.7,0,1.3-0.1,1.7-0.3c0.4-0.2,0.6-0.6,0.6-1c0-0.4-0.2-0.7-0.5-0.9
				c-0.3-0.3-0.9-0.5-1.8-0.9c-0.8-0.3-1.4-0.6-1.8-0.8c-0.4-0.2-0.6-0.5-0.8-0.8c-0.2-0.3-0.3-0.7-0.3-1.1c0-0.7,0.3-1.3,0.9-1.8
				c0.6-0.4,1.4-0.6,2.5-0.6c1,0,1.9,0.2,2.9,0.6l-0.5,1.1c-0.9-0.4-1.7-0.6-2.5-0.6c-0.7,0-1.1,0.1-1.5,0.3s-0.5,0.5-0.5,0.8
				c0,0.2,0.1,0.5,0.2,0.6c0.1,0.2,0.3,0.3,0.6,0.5c0.3,0.2,0.8,0.4,1.6,0.7c1.1,0.4,1.8,0.8,2.2,1.2
				C1309.5,932.9,1309.7,933.4,1309.7,934z"/>
			<path class="st4" d="M1320.4,928.4h-2.3v8h-1.4v-8h-1.6v-0.6l1.6-0.5v-0.5c0-2.2,1-3.4,2.9-3.4c0.5,0,1,0.1,1.7,0.3l-0.4,1.1
				c-0.5-0.2-1-0.3-1.4-0.3c-0.5,0-0.9,0.2-1.2,0.5s-0.4,0.9-0.4,1.7v0.6h2.3V928.4z M1322,924.9c0-0.3,0.1-0.5,0.2-0.7
				c0.2-0.1,0.3-0.2,0.6-0.2c0.2,0,0.4,0.1,0.6,0.2c0.2,0.1,0.2,0.4,0.2,0.7c0,0.3-0.1,0.5-0.2,0.7c-0.2,0.2-0.4,0.2-0.6,0.2
				c-0.2,0-0.4-0.1-0.6-0.2C1322.1,925.5,1322,925.2,1322,924.9z M1323.5,936.5h-1.4v-9.1h1.4V936.5z"/>
			<path class="st4" d="M1332.6,936.5v-5.9c0-0.7-0.2-1.3-0.5-1.7c-0.3-0.4-0.9-0.5-1.6-0.5c-1,0-1.6,0.3-2.1,0.8
				c-0.4,0.5-0.7,1.4-0.7,2.5v4.8h-1.4v-9.1h1.1l0.2,1.2h0.1c0.3-0.4,0.7-0.8,1.2-1c0.5-0.2,1.1-0.4,1.7-0.4c1.1,0,1.9,0.3,2.5,0.8
				c0.6,0.5,0.8,1.4,0.8,2.5v5.9H1332.6z"/>
			<path class="st4" d="M1343,935.3L1343,935.3c-0.7,0.9-1.7,1.4-2.9,1.4c-1.2,0-2.1-0.4-2.8-1.2c-0.7-0.8-1-2-1-3.5
				c0-1.5,0.3-2.7,1-3.5s1.6-1.2,2.8-1.2c1.2,0,2.2,0.4,2.8,1.3h0.1l-0.1-0.7l0-0.6v-3.7h1.4v12.9h-1.1L1343,935.3z M1340.3,935.5
				c0.9,0,1.6-0.3,2-0.8c0.4-0.5,0.6-1.3,0.6-2.5V932c0-1.3-0.2-2.2-0.6-2.8s-1.1-0.8-2.1-0.8c-0.8,0-1.4,0.3-1.9,0.9
				c-0.4,0.6-0.6,1.5-0.6,2.7c0,1.2,0.2,2,0.6,2.6C1338.8,935.2,1339.4,935.5,1340.3,935.5z"/>
			<path class="st4" d="M1354.6,935.5c0.2,0,0.5,0,0.7-0.1c0.2,0,0.4-0.1,0.5-0.1v1.1c-0.1,0.1-0.4,0.1-0.7,0.2
				c-0.3,0-0.6,0.1-0.8,0.1c-1.8,0-2.6-0.9-2.6-2.8v-5.4h-1.3v-0.7l1.3-0.6l0.6-1.9h0.8v2.1h2.6v1.1h-2.6v5.4c0,0.5,0.1,1,0.4,1.3
				C1353.8,935.4,1354.2,935.5,1354.6,935.5z"/>
			<path class="st4" d="M1363.9,936.5v-5.9c0-0.7-0.2-1.3-0.5-1.7c-0.3-0.4-0.9-0.5-1.6-0.5c-1,0-1.7,0.3-2.1,0.8
				c-0.4,0.5-0.7,1.4-0.7,2.6v4.8h-1.4v-12.9h1.4v3.9c0,0.5,0,0.9-0.1,1.2h0.1c0.3-0.4,0.7-0.8,1.2-1s1.1-0.4,1.7-0.4
				c1.1,0,1.9,0.3,2.5,0.8c0.6,0.5,0.8,1.4,0.8,2.5v5.9H1363.9z"/>
			<path class="st4" d="M1371.9,936.6c-1.3,0-2.4-0.4-3.2-1.2c-0.8-0.8-1.2-2-1.2-3.4c0-1.5,0.4-2.6,1.1-3.5
				c0.7-0.9,1.7-1.3,2.9-1.3c1.1,0,2,0.4,2.7,1.1s1,1.7,1,3v0.9h-6.3c0,1.1,0.3,1.9,0.8,2.4c0.5,0.6,1.2,0.8,2.2,0.8
				c1,0,1.9-0.2,2.9-0.6v1.2c-0.5,0.2-0.9,0.4-1.4,0.5C1373.1,936.6,1372.6,936.6,1371.9,936.6z M1371.6,928.4
				c-0.7,0-1.3,0.2-1.7,0.7c-0.4,0.5-0.7,1.1-0.8,2h4.8c0-0.9-0.2-1.5-0.6-2C1372.8,928.6,1372.3,928.4,1371.6,928.4z"/>
		</g>
		<g class="st3">
			<path class="st4" d="M1254.2,956c0,0.8-0.3,1.5-0.9,2c-0.6,0.5-1.5,0.7-2.7,0.7c-1.2,0-2.1-0.2-2.8-0.6v-1.3
				c0.4,0.2,0.9,0.4,1.4,0.5s1,0.2,1.4,0.2c0.7,0,1.3-0.1,1.7-0.3c0.4-0.2,0.6-0.6,0.6-1c0-0.4-0.2-0.7-0.5-0.9
				c-0.3-0.3-0.9-0.5-1.8-0.9c-0.8-0.3-1.4-0.6-1.8-0.8c-0.4-0.2-0.6-0.5-0.8-0.8c-0.2-0.3-0.3-0.7-0.3-1.1c0-0.7,0.3-1.3,0.9-1.8
				c0.6-0.4,1.4-0.6,2.5-0.6c1,0,1.9,0.2,2.9,0.6l-0.5,1.1c-0.9-0.4-1.7-0.6-2.5-0.6c-0.7,0-1.1,0.1-1.5,0.3s-0.5,0.5-0.5,0.8
				c0,0.2,0.1,0.5,0.2,0.6c0.1,0.2,0.3,0.3,0.6,0.5c0.3,0.2,0.8,0.4,1.6,0.7c1.1,0.4,1.8,0.8,2.2,1.2S1254.2,955.4,1254.2,956z"/>
			<path class="st4" d="M1256.4,946.9c0-0.3,0.1-0.5,0.2-0.7c0.2-0.1,0.3-0.2,0.6-0.2c0.2,0,0.4,0.1,0.6,0.2
				c0.2,0.1,0.2,0.4,0.2,0.7c0,0.3-0.1,0.5-0.2,0.7c-0.2,0.2-0.4,0.2-0.6,0.2c-0.2,0-0.4-0.1-0.6-0.2
				C1256.4,947.5,1256.4,947.2,1256.4,946.9z M1257.9,958.5h-1.4v-9.1h1.4V958.5z"/>
			<path class="st4" d="M1263.7,957.5c0.2,0,0.5,0,0.7-0.1c0.2,0,0.4-0.1,0.5-0.1v1.1c-0.1,0.1-0.4,0.1-0.7,0.2
				c-0.3,0-0.6,0.1-0.8,0.1c-1.8,0-2.6-0.9-2.6-2.8v-5.4h-1.3v-0.7l1.3-0.6l0.6-1.9h0.8v2.1h2.6v1.1h-2.6v5.4c0,0.5,0.1,1,0.4,1.3
				C1262.9,957.4,1263.3,957.5,1263.7,957.5z"/>
			<path class="st4" d="M1270.6,958.6c-1.3,0-2.4-0.4-3.2-1.2c-0.8-0.8-1.2-2-1.2-3.4c0-1.5,0.4-2.6,1.1-3.5
				c0.7-0.9,1.7-1.3,2.9-1.3c1.1,0,2,0.4,2.7,1.1s1,1.7,1,3v0.9h-6.3c0,1.1,0.3,1.9,0.8,2.4c0.5,0.6,1.2,0.8,2.2,0.8
				c1,0,1.9-0.2,2.9-0.6v1.2c-0.5,0.2-0.9,0.4-1.4,0.5C1271.8,958.6,1271.2,958.6,1270.6,958.6z M1270.3,950.4
				c-0.7,0-1.3,0.2-1.7,0.7c-0.4,0.5-0.7,1.1-0.8,2h4.8c0-0.9-0.2-1.5-0.6-2C1271.5,950.6,1271,950.4,1270.3,950.4z"/>
			<path class="st4" d="M1284.6,958.6c-1.3,0-2.4-0.4-3.2-1.2s-1.2-2-1.2-3.4c0-1.5,0.4-2.6,1.1-3.5c0.7-0.9,1.7-1.3,2.9-1.3
				c1.1,0,2,0.4,2.7,1.1s1,1.7,1,3v0.9h-6.3c0,1.1,0.3,1.9,0.8,2.4c0.5,0.6,1.2,0.8,2.2,0.8c1,0,1.9-0.2,2.9-0.6v1.2
				c-0.5,0.2-0.9,0.4-1.4,0.5C1285.7,958.6,1285.2,958.6,1284.6,958.6z M1284.2,950.4c-0.7,0-1.3,0.2-1.7,0.7
				c-0.4,0.5-0.7,1.1-0.8,2h4.8c0-0.9-0.2-1.5-0.6-2C1285.5,950.6,1284.9,950.4,1284.2,950.4z"/>
			<path class="st4" d="M1295.9,958.5l-0.3-1.3h-0.1c-0.5,0.6-0.9,1-1.4,1.2c-0.5,0.2-1,0.3-1.7,0.3c-0.9,0-1.6-0.2-2.1-0.7
				s-0.8-1.1-0.8-2c0-1.8,1.5-2.8,4.4-2.9l1.5,0v-0.6c0-0.7-0.2-1.2-0.5-1.6c-0.3-0.3-0.8-0.5-1.5-0.5c-0.8,0-1.6,0.2-2.6,0.7
				l-0.4-1.1c0.4-0.2,0.9-0.4,1.5-0.6c0.5-0.1,1.1-0.2,1.6-0.2c1.1,0,1.9,0.2,2.4,0.7c0.5,0.5,0.8,1.3,0.8,2.3v6.2H1295.9z
				 M1292.8,957.5c0.9,0,1.5-0.2,2-0.7c0.5-0.5,0.7-1.1,0.7-2V954l-1.4,0.1c-1.1,0-1.9,0.2-2.4,0.5c-0.5,0.3-0.7,0.8-0.7,1.4
				c0,0.5,0.2,0.9,0.5,1.1S1292.2,957.5,1292.8,957.5z"/>
			<path class="st4" d="M1305.6,956c0,0.8-0.3,1.5-0.9,2c-0.6,0.5-1.5,0.7-2.7,0.7c-1.2,0-2.1-0.2-2.8-0.6v-1.3
				c0.4,0.2,0.9,0.4,1.4,0.5c0.5,0.1,1,0.2,1.4,0.2c0.7,0,1.3-0.1,1.7-0.3c0.4-0.2,0.6-0.6,0.6-1c0-0.4-0.2-0.7-0.5-0.9
				c-0.3-0.3-0.9-0.5-1.8-0.9c-0.8-0.3-1.4-0.6-1.8-0.8c-0.4-0.2-0.6-0.5-0.8-0.8c-0.2-0.3-0.3-0.7-0.3-1.1c0-0.7,0.3-1.3,0.9-1.8
				c0.6-0.4,1.4-0.6,2.5-0.6c1,0,1.9,0.2,2.9,0.6l-0.5,1.1c-0.9-0.4-1.7-0.6-2.5-0.6c-0.7,0-1.1,0.1-1.5,0.3s-0.5,0.5-0.5,0.8
				c0,0.2,0.1,0.5,0.2,0.6c0.1,0.2,0.3,0.3,0.6,0.5c0.3,0.2,0.8,0.4,1.6,0.7c1.1,0.4,1.8,0.8,2.2,1.2
				C1305.4,954.9,1305.6,955.4,1305.6,956z"/>
			<path class="st4" d="M1306.4,949.4h1.5l2,5.2c0.4,1.2,0.7,2,0.8,2.6h0.1c0.1-0.3,0.2-0.8,0.5-1.4s1-2.8,2.3-6.3h1.5l-3.9,10.4
				c-0.4,1-0.8,1.8-1.4,2.2c-0.5,0.4-1.2,0.6-1.9,0.6c-0.4,0-0.8,0-1.2-0.1v-1.1c0.3,0.1,0.6,0.1,1,0.1c0.9,0,1.6-0.5,2-1.6l0.5-1.3
				L1306.4,949.4z"/>
			<path class="st4" d="M1323.8,957.5c0.2,0,0.5,0,0.7-0.1c0.2,0,0.4-0.1,0.5-0.1v1.1c-0.1,0.1-0.4,0.1-0.7,0.2
				c-0.3,0-0.6,0.1-0.8,0.1c-1.8,0-2.6-0.9-2.6-2.8v-5.4h-1.3v-0.7l1.3-0.6l0.6-1.9h0.8v2.1h2.6v1.1h-2.6v5.4c0,0.5,0.1,1,0.4,1.3
				C1323,957.4,1323.3,957.5,1323.8,957.5z"/>
			<path class="st4" d="M1334.7,953.9c0,1.5-0.4,2.6-1.1,3.5s-1.8,1.2-3.1,1.2c-0.8,0-1.5-0.2-2.2-0.6c-0.6-0.4-1.1-0.9-1.5-1.6
				c-0.3-0.7-0.5-1.5-0.5-2.5c0-1.5,0.4-2.6,1.1-3.5c0.7-0.8,1.8-1.2,3.1-1.2c1.3,0,2.3,0.4,3,1.3
				C1334.3,951.3,1334.7,952.5,1334.7,953.9z M1327.7,953.9c0,1.2,0.2,2,0.7,2.7c0.5,0.6,1.1,0.9,2,0.9c0.9,0,1.6-0.3,2.1-0.9
				c0.5-0.6,0.7-1.5,0.7-2.7c0-1.2-0.2-2-0.7-2.6s-1.2-0.9-2.1-0.9c-0.9,0-1.6,0.3-2,0.9C1328,951.9,1327.7,952.7,1327.7,953.9z"/>
		</g>
		<g class="st3">
			<path class="st4" d="M1254.6,980.5v-5.9c0-0.7-0.2-1.3-0.5-1.7s-0.9-0.5-1.6-0.5c-1,0-1.6,0.3-2.1,0.8c-0.4,0.5-0.7,1.4-0.7,2.5
				v4.8h-1.4v-9.1h1.1l0.2,1.2h0.1c0.3-0.4,0.7-0.8,1.2-1s1.1-0.4,1.7-0.4c1.1,0,1.9,0.3,2.5,0.8c0.6,0.5,0.8,1.4,0.8,2.5v5.9
				H1254.6z"/>
			<path class="st4" d="M1264.4,980.5l-0.3-1.3h-0.1c-0.5,0.6-0.9,1-1.4,1.2c-0.5,0.2-1,0.3-1.7,0.3c-0.9,0-1.6-0.2-2.1-0.7
				c-0.5-0.5-0.8-1.1-0.8-2c0-1.8,1.5-2.8,4.4-2.9l1.5,0v-0.6c0-0.7-0.2-1.2-0.5-1.6c-0.3-0.3-0.8-0.5-1.5-0.5
				c-0.8,0-1.6,0.2-2.6,0.7l-0.4-1.1c0.4-0.2,0.9-0.4,1.5-0.6c0.5-0.1,1.1-0.2,1.6-0.2c1.1,0,1.9,0.2,2.4,0.7
				c0.5,0.5,0.8,1.3,0.8,2.3v6.2H1264.4z M1261.3,979.5c0.9,0,1.5-0.2,2-0.7c0.5-0.5,0.7-1.1,0.7-2V976l-1.4,0.1
				c-1.1,0-1.9,0.2-2.4,0.5s-0.7,0.8-0.7,1.4c0,0.5,0.2,0.9,0.5,1.1S1260.8,979.5,1261.3,979.5z"/>
			<path class="st4" d="M1270.3,980.5l-3.5-9.1h1.5l2,5.4c0.4,1.3,0.7,2.1,0.8,2.5h0.1c0.1-0.3,0.3-0.9,0.6-1.8
				c0.3-0.9,1.1-2.9,2.2-6h1.5l-3.5,9.1H1270.3z"/>
			<path class="st4" d="M1276.7,968.9c0-0.3,0.1-0.5,0.2-0.7c0.2-0.1,0.3-0.2,0.6-0.2c0.2,0,0.4,0.1,0.6,0.2s0.2,0.4,0.2,0.7
				c0,0.3-0.1,0.5-0.2,0.7s-0.4,0.2-0.6,0.2c-0.2,0-0.4-0.1-0.6-0.2C1276.8,969.5,1276.7,969.2,1276.7,968.9z M1278.2,980.5h-1.4
				v-9.1h1.4V980.5z"/>
			<path class="st4" d="M1288.6,971.4v0.9l-1.7,0.2c0.2,0.2,0.3,0.4,0.4,0.8c0.1,0.3,0.2,0.7,0.2,1.1c0,0.9-0.3,1.6-0.9,2.1
				c-0.6,0.5-1.4,0.8-2.5,0.8c-0.3,0-0.5,0-0.8-0.1c-0.6,0.3-0.9,0.7-0.9,1.2c0,0.2,0.1,0.4,0.3,0.6s0.6,0.2,1.1,0.2h1.6
				c1,0,1.7,0.2,2.3,0.6c0.5,0.4,0.8,1,0.8,1.8c0,1-0.4,1.8-1.2,2.3s-2,0.8-3.5,0.8c-1.2,0-2.1-0.2-2.8-0.7c-0.6-0.4-1-1.1-1-1.9
				c0-0.6,0.2-1,0.5-1.4c0.4-0.4,0.9-0.7,1.5-0.8c-0.2-0.1-0.4-0.3-0.6-0.5c-0.2-0.2-0.2-0.5-0.2-0.8c0-0.3,0.1-0.6,0.3-0.9
				c0.2-0.2,0.5-0.5,0.8-0.7c-0.5-0.2-0.9-0.5-1.2-1c-0.3-0.5-0.4-1-0.4-1.6c0-1,0.3-1.8,0.9-2.3c0.6-0.5,1.4-0.8,2.5-0.8
				c0.5,0,0.9,0.1,1.3,0.2H1288.6z M1281.3,982c0,0.5,0.2,0.9,0.6,1.1c0.4,0.3,1,0.4,1.8,0.4c1.2,0,2-0.2,2.6-0.5
				c0.6-0.3,0.8-0.8,0.8-1.4c0-0.5-0.2-0.8-0.5-1c-0.3-0.2-0.9-0.3-1.7-0.3h-1.7c-0.6,0-1.1,0.1-1.5,0.4
				C1281.5,981,1281.3,981.4,1281.3,982z M1282,974.3c0,0.6,0.2,1.1,0.5,1.4c0.4,0.3,0.9,0.5,1.5,0.5c1.3,0,2-0.7,2-2
				c0-1.4-0.7-2.1-2-2.1c-0.6,0-1.1,0.2-1.5,0.5C1282.2,973.1,1282,973.6,1282,974.3z"/>
			<path class="st4" d="M1296,980.5l-0.3-1.3h-0.1c-0.5,0.6-0.9,1-1.4,1.2c-0.5,0.2-1,0.3-1.7,0.3c-0.9,0-1.6-0.2-2.1-0.7
				s-0.8-1.1-0.8-2c0-1.8,1.5-2.8,4.4-2.9l1.5,0v-0.6c0-0.7-0.2-1.2-0.5-1.6c-0.3-0.3-0.8-0.5-1.5-0.5c-0.8,0-1.6,0.2-2.6,0.7
				l-0.4-1.1c0.4-0.2,0.9-0.4,1.5-0.6c0.5-0.1,1.1-0.2,1.6-0.2c1.1,0,1.9,0.2,2.4,0.7c0.5,0.5,0.8,1.3,0.8,2.3v6.2H1296z
				 M1292.9,979.5c0.9,0,1.5-0.2,2-0.7s0.7-1.1,0.7-2V976l-1.4,0.1c-1.1,0-1.9,0.2-2.4,0.5s-0.7,0.8-0.7,1.4c0,0.5,0.2,0.9,0.5,1.1
				C1291.9,979.4,1292.4,979.5,1292.9,979.5z"/>
			<path class="st4" d="M1302.8,979.5c0.2,0,0.5,0,0.7-0.1c0.2,0,0.4-0.1,0.5-0.1v1.1c-0.1,0.1-0.4,0.1-0.7,0.2
				c-0.3,0-0.6,0.1-0.8,0.1c-1.8,0-2.6-0.9-2.6-2.8v-5.4h-1.3v-0.7l1.3-0.6l0.6-1.9h0.8v2.1h2.6v1.1h-2.6v5.4c0,0.5,0.1,1,0.4,1.3
				C1302,979.4,1302.4,979.5,1302.8,979.5z"/>
			<path class="st4" d="M1309.7,980.6c-1.3,0-2.4-0.4-3.2-1.2c-0.8-0.8-1.2-2-1.2-3.4c0-1.5,0.4-2.6,1.1-3.5s1.7-1.3,2.9-1.3
				c1.1,0,2,0.4,2.7,1.1s1,1.7,1,3v0.9h-6.3c0,1.1,0.3,1.9,0.8,2.4c0.5,0.6,1.2,0.8,2.2,0.8c1,0,1.9-0.2,2.9-0.6v1.2
				c-0.5,0.2-0.9,0.4-1.4,0.5C1310.9,980.6,1310.3,980.6,1309.7,980.6z M1309.3,972.4c-0.7,0-1.3,0.2-1.7,0.7
				c-0.4,0.5-0.7,1.1-0.8,2h4.8c0-0.9-0.2-1.5-0.6-2C1310.6,972.6,1310.1,972.4,1309.3,972.4z"/>
		</g>
	</g>
	<path id="Path_4285" class="st5" d="M412,1249.4h-11.9v42H287"/>
	<g id="Group_4542" transform="translate(-165 377.184)">
		<circle id="Ellipse_122" class="st2" cx="1223" cy="942" r="4"/>
	</g>
	<path id="Path_4286" class="st6" d="M1062,1319.2l11.6,0l0.1-30l154.3,0.4"/>
</g>
</svg>
