<svg xmlns="http://www.w3.org/2000/svg" viewBox="0 0 943.86 132.64"><defs><style>.cls-1{fill:#218080;}.cls-2{fill:#70bdbd;}.cls-3{fill:#4a5c74;}.cls-4{fill:#333;}.cls-5,.cls-6{fill:none;stroke-linecap:round;stroke-linejoin:round;stroke-width:2px;fill-rule:evenodd;}.cls-5{stroke:#218080;}.cls-6{stroke:#4a5c74;}</style></defs><g id="Layer_2" data-name="Layer 2"><g id="Layer_2-2" data-name="Layer 2"><circle class="cls-1" cx="126.84" cy="20.17" r="4"/><g id="Person-2"><path class="cls-1" d="M164.16,32.82c0-4.7,4.49-8.52,10-8.53s10.06,3.8,10.07,8.5Zm4.29-15.62a5.75,5.75,0,1,1,5.69,5.67A5.74,5.74,0,0,1,168.45,17.2Z" transform="translate(-1.37 -9.56)"/></g><g id="Person-2-2" data-name="Person-2"><path class="cls-1" d="M138.91,32.86c0-4.7,4.49-8.52,10-8.53S159,28.13,159,32.83Zm4.28-15.62a5.75,5.75,0,1,1,5.69,5.67A5.74,5.74,0,0,1,143.19,17.24Z" transform="translate(-1.37 -9.56)"/></g><path id="Person-2-3" data-name="Person-2" class="cls-2" d="M214.67,32.75c0-4.7,4.49-8.53,10-8.53s10.06,3.8,10.07,8.5ZM219,17.13a5.75,5.75,0,1,1,5.69,5.67A5.74,5.74,0,0,1,219,17.13Z" transform="translate(-1.37 -9.56)"/><path id="Person-2-4" data-name="Person-2" class="cls-2" d="M189.41,32.79c0-4.71,4.49-8.53,10.05-8.54s10.06,3.8,10.06,8.51Zm4.29-15.63a5.75,5.75,0,1,1,5.69,5.68A5.75,5.75,0,0,1,193.7,17.16Z" transform="translate(-1.37 -9.56)"/><path id="Person-2-5" data-name="Person-2" class="cls-2" d="M239.92,32.71c0-4.7,4.49-8.52,10-8.53S260,28,260,32.68Zm4.28-15.62a5.75,5.75,0,1,1,5.7,5.67A5.76,5.76,0,0,1,244.2,17.09Z" transform="translate(-1.37 -9.56)"/><path id="Person-2-6" data-name="Person-2" class="cls-2" d="M340.93,32.56c0-4.7,4.49-8.52,10-8.53S361,27.83,361,32.54Zm4.29-15.62a5.75,5.75,0,1,1,5.69,5.68A5.74,5.74,0,0,1,345.22,16.94Z" transform="translate(-1.37 -9.56)"/><path id="Person-2-7" data-name="Person-2" class="cls-2" d="M315.68,32.6c0-4.7,4.49-8.52,10-8.53s10.06,3.8,10.07,8.5ZM320,17a5.75,5.75,0,1,1,5.69,5.67A5.75,5.75,0,0,1,320,17Z" transform="translate(-1.37 -9.56)"/><path id="Person-2-8" data-name="Person-2" class="cls-2" d="M290.42,32.64c0-4.71,4.49-8.53,10.05-8.53s10.06,3.8,10.07,8.5ZM294.71,17a5.75,5.75,0,1,1,5.69,5.67A5.74,5.74,0,0,1,294.71,17Z" transform="translate(-1.37 -9.56)"/><path id="Person-2-9" data-name="Person-2" class="cls-2" d="M265.17,32.68c0-4.71,4.49-8.53,10-8.54s10.07,3.8,10.07,8.51Zm4.29-15.63a5.75,5.75,0,1,1,5.69,5.68A5.75,5.75,0,0,1,269.46,17.05Z" transform="translate(-1.37 -9.56)"/><path id="Person-2-10" data-name="Person-2" class="cls-2" d="M366.18,32.53c0-4.71,4.49-8.53,10.05-8.53s10.06,3.79,10.06,8.5Zm4.29-15.62a5.75,5.75,0,1,1,5.69,5.67A5.75,5.75,0,0,1,370.47,16.91Z" transform="translate(-1.37 -9.56)"/><path id="Person-2-11" data-name="Person-2" class="cls-2" d="M467.19,32.38c0-4.7,4.49-8.52,10.05-8.53s10.06,3.8,10.07,8.5Zm4.29-15.62a5.75,5.75,0,1,1,5.69,5.67A5.74,5.74,0,0,1,471.48,16.76Z" transform="translate(-1.37 -9.56)"/><path id="Person-2-12" data-name="Person-2" class="cls-2" d="M441.94,32.42c0-4.71,4.49-8.53,10-8.54s10.07,3.8,10.07,8.51Zm4.29-15.63a5.75,5.75,0,1,1,5.69,5.68A5.75,5.75,0,0,1,446.23,16.79Z" transform="translate(-1.37 -9.56)"/><path id="Person-2-13" data-name="Person-2" class="cls-2" d="M416.69,32.45c0-4.7,4.49-8.52,10-8.53s10.06,3.8,10.07,8.5ZM421,16.83a5.75,5.75,0,1,1,5.7,5.68A5.75,5.75,0,0,1,421,16.83Z" transform="translate(-1.37 -9.56)"/><path id="Person-2-14" data-name="Person-2" class="cls-2" d="M391.44,32.49c0-4.7,4.48-8.52,10-8.53s10.06,3.8,10.07,8.5Zm4.28-15.62a5.75,5.75,0,1,1,5.69,5.67A5.75,5.75,0,0,1,395.72,16.87Z" transform="translate(-1.37 -9.56)"/><path id="Person-2-15" data-name="Person-2" class="cls-2" d="M492.45,32.34c0-4.7,4.49-8.52,10-8.53s10.06,3.8,10.07,8.5Zm4.28-15.62a5.75,5.75,0,1,1,5.69,5.68A5.75,5.75,0,0,1,496.73,16.72Z" transform="translate(-1.37 -9.56)"/><path id="Person-2-16" data-name="Person-2" class="cls-2" d="M593.46,32.2c0-4.71,4.49-8.53,10-8.54s10.06,3.8,10.07,8.51Zm4.28-15.63a5.75,5.75,0,1,1,5.7,5.68A5.75,5.75,0,0,1,597.74,16.57Z" transform="translate(-1.37 -9.56)"/><path id="Person-2-17" data-name="Person-2" class="cls-2" d="M568.21,32.23c0-4.7,4.48-8.52,10-8.53s10.06,3.8,10.07,8.5Zm4.28-15.62a5.75,5.75,0,1,1,5.69,5.67A5.75,5.75,0,0,1,572.49,16.61Z" transform="translate(-1.37 -9.56)"/><path id="Person-2-18" data-name="Person-2" class="cls-2" d="M543,32.27c0-4.7,4.49-8.52,10-8.53s10.06,3.8,10.06,8.5Zm4.29-15.62a5.75,5.75,0,1,1,5.69,5.67A5.74,5.74,0,0,1,547.24,16.65Z" transform="translate(-1.37 -9.56)"/><path id="Person-2-19" data-name="Person-2" class="cls-2" d="M517.7,32.31c0-4.71,4.49-8.53,10-8.54s10.06,3.8,10.07,8.51ZM522,16.68a5.75,5.75,0,1,1,5.69,5.68A5.74,5.74,0,0,1,522,16.68Z" transform="translate(-1.37 -9.56)"/><path id="Person-2-20" data-name="Person-2" class="cls-2" d="M618.71,32.16c0-4.7,4.49-8.52,10-8.53s10.07,3.8,10.07,8.5ZM623,16.54a5.75,5.75,0,1,1,5.69,5.67A5.74,5.74,0,0,1,623,16.54Z" transform="translate(-1.37 -9.56)"/><path id="Person-2-21" data-name="Person-2" class="cls-2" d="M719.72,32c0-4.7,4.49-8.52,10-8.53s10.06,3.8,10.06,8.5ZM724,16.39a5.75,5.75,0,1,1,5.69,5.67A5.75,5.75,0,0,1,724,16.39Z" transform="translate(-1.37 -9.56)"/><path id="Person-2-22" data-name="Person-2" class="cls-2" d="M694.47,32.05c0-4.7,4.49-8.53,10-8.53s10.06,3.8,10.07,8.5Zm4.29-15.62a5.75,5.75,0,1,1,5.69,5.67A5.74,5.74,0,0,1,698.76,16.43Z" transform="translate(-1.37 -9.56)"/><path id="Person-2-23" data-name="Person-2" class="cls-2" d="M669.22,32.09c0-4.71,4.49-8.53,10-8.54s10.06,3.8,10.07,8.51Zm4.28-15.63a5.75,5.75,0,1,1,5.69,5.68A5.75,5.75,0,0,1,673.5,16.46Z" transform="translate(-1.37 -9.56)"/><path id="Person-2-24" data-name="Person-2" class="cls-2" d="M644,32.12c0-4.7,4.49-8.52,10-8.53s10.06,3.8,10.06,8.5Zm4.29-15.62a5.75,5.75,0,1,1,5.69,5.67A5.75,5.75,0,0,1,648.25,16.5Z" transform="translate(-1.37 -9.56)"/><path id="Person-2-25" data-name="Person-2" class="cls-2" d="M745,32c0-4.7,4.48-8.52,10-8.53s10.06,3.8,10.07,8.51Zm4.28-15.62A5.75,5.75,0,1,1,755,22,5.75,5.75,0,0,1,749.26,16.35Z" transform="translate(-1.37 -9.56)"/><path id="Person-2-26" data-name="Person-2" class="cls-2" d="M214.71,67.86c0-4.7,4.49-8.52,10-8.53s10.06,3.8,10.07,8.5ZM219,52.24a5.75,5.75,0,1,1,5.69,5.67A5.74,5.74,0,0,1,219,52.24Z" transform="translate(-1.37 -9.56)"/><path id="Person-2-27" data-name="Person-2" class="cls-2" d="M189.46,67.9c0-4.71,4.49-8.53,10-8.54s10.06,3.8,10.07,8.51Zm4.28-15.63A5.75,5.75,0,1,1,199.43,58,5.75,5.75,0,0,1,193.74,52.27Z" transform="translate(-1.37 -9.56)"/><path id="Person-2-28" data-name="Person-2" class="cls-2" d="M164.21,67.93c0-4.7,4.48-8.52,10-8.53s10.06,3.8,10.07,8.5Zm4.28-15.62A5.75,5.75,0,1,1,174.18,58,5.75,5.75,0,0,1,168.49,52.31Z" transform="translate(-1.37 -9.56)"/><path id="Person-2-29" data-name="Person-2" class="cls-2" d="M139,68c0-4.7,4.49-8.52,10.05-8.53s10.06,3.8,10.06,8.5Zm4.29-15.62A5.75,5.75,0,1,1,148.93,58,5.74,5.74,0,0,1,143.24,52.35Z" transform="translate(-1.37 -9.56)"/><path id="Person-2-30" data-name="Person-2" class="cls-2" d="M240,67.82c0-4.7,4.49-8.52,10-8.53s10.06,3.8,10.06,8.5Zm4.29-15.62a5.75,5.75,0,1,1,5.69,5.67A5.75,5.75,0,0,1,244.25,52.2Z" transform="translate(-1.37 -9.56)"/><path id="Person-2-31" data-name="Person-2" class="cls-2" d="M341,67.68c0-4.71,4.49-8.53,10-8.54s10.06,3.8,10.07,8.51Zm4.29-15.63A5.75,5.75,0,1,1,351,57.73,5.75,5.75,0,0,1,345.26,52.05Z" transform="translate(-1.37 -9.56)"/><path id="Person-2-32" data-name="Person-2" class="cls-2" d="M315.72,67.71c0-4.7,4.49-8.52,10-8.53s10.06,3.8,10.06,8.5ZM320,52.09a5.75,5.75,0,1,1,5.69,5.67A5.75,5.75,0,0,1,320,52.09Z" transform="translate(-1.37 -9.56)"/><path id="Person-2-33" data-name="Person-2" class="cls-2" d="M290.47,67.75c0-4.7,4.49-8.52,10-8.53s10.06,3.8,10.07,8.5Zm4.29-15.62a5.75,5.75,0,1,1,5.69,5.67A5.74,5.74,0,0,1,294.76,52.13Z" transform="translate(-1.37 -9.56)"/><path id="Person-2-34" data-name="Person-2" class="cls-2" d="M265.22,67.79c0-4.71,4.49-8.53,10-8.54s10.06,3.8,10.07,8.51Zm4.28-15.63a5.75,5.75,0,1,1,5.69,5.68A5.75,5.75,0,0,1,269.5,52.16Z" transform="translate(-1.37 -9.56)"/><path id="Person-2-35" data-name="Person-2" class="cls-2" d="M366.23,67.64c0-4.7,4.49-8.53,10-8.53s10.06,3.8,10.07,8.5ZM370.51,52a5.75,5.75,0,1,1,5.69,5.67A5.74,5.74,0,0,1,370.51,52Z" transform="translate(-1.37 -9.56)"/><path id="Person-2-36" data-name="Person-2" class="cls-2" d="M467.24,67.49c0-4.7,4.49-8.52,10-8.53s10.06,3.8,10.07,8.5Zm4.28-15.62a5.75,5.75,0,1,1,5.7,5.67A5.76,5.76,0,0,1,471.52,51.87Z" transform="translate(-1.37 -9.56)"/><path id="Person-2-37" data-name="Person-2" class="cls-2" d="M442,67.53c0-4.71,4.49-8.53,10-8.53s10.06,3.8,10.07,8.5Zm4.28-15.62A5.75,5.75,0,1,1,452,57.58,5.75,5.75,0,0,1,446.27,51.91Z" transform="translate(-1.37 -9.56)"/><path id="Person-2-38" data-name="Person-2" class="cls-2" d="M416.73,67.56c0-4.7,4.49-8.52,10-8.53s10.06,3.8,10.06,8.51ZM421,51.94a5.75,5.75,0,1,1,5.69,5.68A5.75,5.75,0,0,1,421,51.94Z" transform="translate(-1.37 -9.56)"/><path id="Person-2-39" data-name="Person-2" class="cls-2" d="M391.48,67.6c0-4.7,4.49-8.52,10-8.53s10.06,3.8,10.07,8.5ZM395.77,52a5.75,5.75,0,1,1,5.69,5.67A5.74,5.74,0,0,1,395.77,52Z" transform="translate(-1.37 -9.56)"/><path id="Person-2-40" data-name="Person-2" class="cls-2" d="M492.49,67.45c0-4.7,4.49-8.52,10-8.53s10.07,3.8,10.07,8.51Zm4.29-15.62a5.75,5.75,0,1,1,5.69,5.68A5.75,5.75,0,0,1,496.78,51.83Z" transform="translate(-1.37 -9.56)"/><path id="Person-2-41" data-name="Person-2" class="cls-2" d="M593.5,67.31c0-4.71,4.49-8.53,10-8.54s10.06,3.8,10.06,8.51Zm4.29-15.63a5.75,5.75,0,1,1,5.69,5.68A5.75,5.75,0,0,1,597.79,51.68Z" transform="translate(-1.37 -9.56)"/><path id="Person-2-42" data-name="Person-2" class="cls-2" d="M568.25,67.34c0-4.7,4.49-8.52,10-8.53s10.06,3.8,10.07,8.5Zm4.29-15.62a5.75,5.75,0,1,1,5.69,5.68A5.74,5.74,0,0,1,572.54,51.72Z" transform="translate(-1.37 -9.56)"/><path id="Person-2-43" data-name="Person-2" class="cls-2" d="M543,67.38c0-4.7,4.49-8.52,10-8.53s10.06,3.8,10.07,8.5Zm4.28-15.62A5.75,5.75,0,1,1,553,57.43,5.75,5.75,0,0,1,547.28,51.76Z" transform="translate(-1.37 -9.56)"/><path id="Person-2-44" data-name="Person-2" class="cls-2" d="M517.74,67.42c0-4.71,4.49-8.53,10-8.53s10.06,3.79,10.07,8.5ZM522,51.8a5.75,5.75,0,1,1,5.69,5.67A5.75,5.75,0,0,1,522,51.8Z" transform="translate(-1.37 -9.56)"/><path id="Person-2-45" data-name="Person-2" class="cls-2" d="M618.76,67.27c0-4.7,4.49-8.52,10-8.53s10.06,3.8,10.07,8.5ZM623,51.65a5.75,5.75,0,1,1,5.69,5.67A5.74,5.74,0,0,1,623,51.65Z" transform="translate(-1.37 -9.56)"/><path id="Person-2-46" data-name="Person-2" class="cls-2" d="M719.77,67.12c0-4.7,4.49-8.52,10-8.53s10.06,3.8,10.07,8.5Zm4.28-15.62a5.75,5.75,0,1,1,5.69,5.67A5.75,5.75,0,0,1,724.05,51.5Z" transform="translate(-1.37 -9.56)"/><path id="Person-2-47" data-name="Person-2" class="cls-2" d="M694.51,67.16c0-4.7,4.49-8.52,10-8.53s10.06,3.8,10.07,8.5Zm4.29-15.62a5.75,5.75,0,1,1,5.69,5.67A5.74,5.74,0,0,1,698.8,51.54Z" transform="translate(-1.37 -9.56)"/><path id="Person-2-48" data-name="Person-2" class="cls-2" d="M669.26,67.2c0-4.71,4.49-8.53,10-8.54s10.07,3.8,10.07,8.51Zm4.29-15.63a5.75,5.75,0,1,1,5.69,5.68A5.75,5.75,0,0,1,673.55,51.57Z" transform="translate(-1.37 -9.56)"/><path id="Person-2-49" data-name="Person-2" class="cls-2" d="M644,67.23c0-4.7,4.49-8.52,10-8.53s10.06,3.8,10.07,8.5Zm4.28-15.62a5.75,5.75,0,1,1,5.7,5.68A5.76,5.76,0,0,1,648.29,51.61Z" transform="translate(-1.37 -9.56)"/><path id="Person-2-50" data-name="Person-2" class="cls-2" d="M745,67.09c0-4.71,4.49-8.53,10-8.54s10.06,3.8,10.07,8.51Zm4.29-15.63A5.75,5.75,0,1,1,755,57.14,5.74,5.74,0,0,1,749.31,51.46Z" transform="translate(-1.37 -9.56)"/><path id="Person-2-51" data-name="Person-2" class="cls-2" d="M214.75,103c0-4.7,4.49-8.52,10.05-8.53s10.06,3.8,10.07,8.5ZM219,87.35A5.75,5.75,0,1,1,224.73,93,5.74,5.74,0,0,1,219,87.35Z" transform="translate(-1.37 -9.56)"/><path id="Person-2-52" data-name="Person-2" class="cls-2" d="M189.5,103c0-4.71,4.49-8.53,10-8.53s10.07,3.79,10.07,8.5Zm4.29-15.62a5.75,5.75,0,1,1,5.69,5.67A5.75,5.75,0,0,1,193.79,87.39Z" transform="translate(-1.37 -9.56)"/><path id="Person-2-53" data-name="Person-2" class="cls-2" d="M164.25,103c0-4.7,4.49-8.52,10-8.53s10.06,3.8,10.07,8.51Zm4.28-15.62a5.75,5.75,0,1,1,5.7,5.68A5.76,5.76,0,0,1,168.53,87.42Z" transform="translate(-1.37 -9.56)"/><path id="Person-2-54" data-name="Person-2" class="cls-2" d="M139,103.08c0-4.7,4.49-8.52,10-8.53s10.06,3.8,10.07,8.5Zm4.28-15.62A5.75,5.75,0,1,1,149,93.13,5.75,5.75,0,0,1,143.28,87.46Z" transform="translate(-1.37 -9.56)"/><path id="Person-2-55" data-name="Person-2" class="cls-2" d="M240,102.93c0-4.7,4.49-8.52,10-8.53s10.06,3.8,10.07,8.5Zm4.28-15.62A5.75,5.75,0,1,1,250,93,5.75,5.75,0,0,1,244.29,87.31Z" transform="translate(-1.37 -9.56)"/><path id="Person-2-56" data-name="Person-2" class="cls-2" d="M341,102.79c0-4.71,4.49-8.53,10-8.54s10.06,3.8,10.07,8.51Zm4.28-15.63a5.75,5.75,0,1,1,5.7,5.68A5.76,5.76,0,0,1,345.3,87.16Z" transform="translate(-1.37 -9.56)"/><path id="Person-2-57" data-name="Person-2" class="cls-2" d="M315.77,102.82c0-4.7,4.48-8.52,10-8.53s10.06,3.8,10.07,8.5Zm4.28-15.62a5.75,5.75,0,1,1,5.69,5.68A5.75,5.75,0,0,1,320.05,87.2Z" transform="translate(-1.37 -9.56)"/><path id="Person-2-58" data-name="Person-2" class="cls-2" d="M290.51,102.86c0-4.7,4.49-8.52,10.05-8.53s10.06,3.8,10.06,8.5Zm4.29-15.62a5.75,5.75,0,1,1,5.69,5.67A5.74,5.74,0,0,1,294.8,87.24Z" transform="translate(-1.37 -9.56)"/><path id="Person-2-59" data-name="Person-2" class="cls-2" d="M265.26,102.9c0-4.71,4.49-8.53,10-8.54s10.06,3.8,10.07,8.51Zm4.29-15.63A5.75,5.75,0,1,1,275.24,93,5.74,5.74,0,0,1,269.55,87.27Z" transform="translate(-1.37 -9.56)"/><path id="Person-2-60" data-name="Person-2" class="cls-2" d="M366.27,102.75c0-4.7,4.49-8.52,10-8.53s10.07,3.8,10.07,8.5Zm4.29-15.62a5.75,5.75,0,1,1,5.69,5.67A5.74,5.74,0,0,1,370.56,87.13Z" transform="translate(-1.37 -9.56)"/><path id="Person-2-61" data-name="Person-2" class="cls-2" d="M442,102.64c0-4.7,4.49-8.52,10-8.53s10.06,3.8,10.07,8.5ZM446.32,87A5.75,5.75,0,1,1,452,92.69,5.74,5.74,0,0,1,446.32,87Z" transform="translate(-1.37 -9.56)"/><path id="Person-2-62" data-name="Person-2" class="cls-2" d="M416.78,102.68c0-4.71,4.49-8.53,10-8.54s10.06,3.8,10.07,8.51Zm4.28-15.63a5.75,5.75,0,1,1,5.69,5.68A5.75,5.75,0,0,1,421.06,87.05Z" transform="translate(-1.37 -9.56)"/><path id="Person-2-63" data-name="Person-2" class="cls-2" d="M391.52,102.71c0-4.7,4.49-8.52,10.05-8.53s10.06,3.8,10.07,8.5Zm4.29-15.62a5.75,5.75,0,1,1,5.69,5.67A5.75,5.75,0,0,1,395.81,87.09Z" transform="translate(-1.37 -9.56)"/><path id="Person-2-64" data-name="Person-2" class="cls-3" d="M467.28,102.6c0-4.7,4.49-8.52,10.05-8.53s10.06,3.8,10.06,8.5ZM471.57,87a5.75,5.75,0,1,1,5.69,5.67A5.75,5.75,0,0,1,471.57,87Z" transform="translate(-1.37 -9.56)"/><path id="Person-2-65" data-name="Person-2" class="cls-3" d="M492.54,102.57c0-4.71,4.48-8.53,10-8.54s10.06,3.8,10.07,8.51Zm4.28-15.63a5.75,5.75,0,1,1,5.69,5.68A5.75,5.75,0,0,1,496.82,86.94Z" transform="translate(-1.37 -9.56)"/><path id="Person-2-66" data-name="Person-2" class="cls-3" d="M593.55,102.42c0-4.71,4.49-8.53,10-8.53s10.06,3.8,10.07,8.5Zm4.28-15.62a5.75,5.75,0,1,1,5.69,5.67A5.75,5.75,0,0,1,597.83,86.8Z" transform="translate(-1.37 -9.56)"/><path id="Person-2-67" data-name="Person-2" class="cls-3" d="M568.29,102.45c0-4.7,4.49-8.52,10.05-8.53s10.06,3.8,10.06,8.51Zm4.29-15.62a5.75,5.75,0,1,1,5.69,5.68A5.75,5.75,0,0,1,572.58,86.83Z" transform="translate(-1.37 -9.56)"/><path id="Person-2-68" data-name="Person-2" class="cls-3" d="M543,102.49c0-4.7,4.49-8.52,10-8.53s10.07,3.8,10.07,8.5Zm4.29-15.62A5.75,5.75,0,1,1,553,92.54,5.74,5.74,0,0,1,547.33,86.87Z" transform="translate(-1.37 -9.56)"/><path id="Person-2-69" data-name="Person-2" class="cls-3" d="M517.79,102.53c0-4.7,4.49-8.53,10-8.53s10.06,3.8,10.07,8.5Zm4.28-15.62a5.75,5.75,0,1,1,5.7,5.67A5.74,5.74,0,0,1,522.07,86.91Z" transform="translate(-1.37 -9.56)"/><path id="Person-2-70" data-name="Person-2" class="cls-3" d="M618.8,102.38c0-4.7,4.49-8.52,10-8.53s10.06,3.8,10.07,8.5Zm4.29-15.62a5.75,5.75,0,1,1,5.69,5.67A5.74,5.74,0,0,1,623.09,86.76Z" transform="translate(-1.37 -9.56)"/><path id="Person-2-71" data-name="Person-2" class="cls-3" d="M719.81,102.23c0-4.7,4.49-8.52,10-8.53s10.06,3.8,10.07,8.5Zm4.29-15.62a5.75,5.75,0,1,1,5.69,5.68A5.74,5.74,0,0,1,724.1,86.61Z" transform="translate(-1.37 -9.56)"/><path id="Person-2-72" data-name="Person-2" class="cls-3" d="M694.56,102.27c0-4.7,4.49-8.52,10-8.53s10.06,3.8,10.07,8.5Zm4.28-15.62a5.75,5.75,0,1,1,5.69,5.67A5.74,5.74,0,0,1,698.84,86.65Z" transform="translate(-1.37 -9.56)"/><path id="Person-2-73" data-name="Person-2" class="cls-3" d="M669.31,102.31c0-4.71,4.48-8.53,10-8.53s10.06,3.79,10.07,8.5Zm4.28-15.62a5.75,5.75,0,1,1,5.69,5.67A5.75,5.75,0,0,1,673.59,86.69Z" transform="translate(-1.37 -9.56)"/><path id="Person-2-74" data-name="Person-2" class="cls-3" d="M644.05,102.34c0-4.7,4.49-8.52,10.05-8.53s10.06,3.8,10.06,8.5Zm4.29-15.62A5.75,5.75,0,1,1,654,92.4,5.75,5.75,0,0,1,648.34,86.72Z" transform="translate(-1.37 -9.56)"/><path id="Person-2-75" data-name="Person-2" class="cls-3" d="M745.06,102.2c0-4.71,4.49-8.53,10.05-8.54s10.06,3.8,10.06,8.51Zm4.29-15.63A5.75,5.75,0,1,1,755,92.25,5.75,5.75,0,0,1,749.35,86.57Z" transform="translate(-1.37 -9.56)"/><path id="Person-2-76" data-name="Person-2" class="cls-3" d="M214.8,138.08c0-4.7,4.49-8.52,10-8.53s10.06,3.8,10.07,8.5Zm4.29-15.62a5.75,5.75,0,1,1,5.69,5.67A5.74,5.74,0,0,1,219.09,122.46Z" transform="translate(-1.37 -9.56)"/><path id="Person-2-77" data-name="Person-2" class="cls-3" d="M189.55,138.12c0-4.7,4.49-8.53,10-8.53s10.06,3.8,10.07,8.5Zm4.28-15.62a5.75,5.75,0,1,1,5.69,5.67A5.74,5.74,0,0,1,193.83,122.5Z" transform="translate(-1.37 -9.56)"/><path id="Person-2-78" data-name="Person-2" class="cls-3" d="M164.29,138.16c0-4.71,4.49-8.53,10.05-8.54s10.06,3.8,10.06,8.51Zm4.29-15.63a5.75,5.75,0,1,1,5.69,5.68A5.75,5.75,0,0,1,168.58,122.53Z" transform="translate(-1.37 -9.56)"/><path id="Person-2-79" data-name="Person-2" class="cls-3" d="M139,138.19c0-4.7,4.49-8.52,10-8.53s10.06,3.8,10.07,8.5Zm4.29-15.62a5.75,5.75,0,1,1,5.69,5.67A5.74,5.74,0,0,1,143.33,122.57Z" transform="translate(-1.37 -9.56)"/><path id="Person-2-80" data-name="Person-2" class="cls-3" d="M240.05,138c0-4.7,4.49-8.52,10-8.53s10.06,3.8,10.06,8.51Zm4.29-15.62A5.75,5.75,0,1,1,250,128.1,5.75,5.75,0,0,1,244.34,122.42Z" transform="translate(-1.37 -9.56)"/><path id="Person-2-81" data-name="Person-2" class="cls-3" d="M341.06,137.9c0-4.71,4.49-8.53,10.05-8.53s10.06,3.79,10.06,8.5Zm4.29-15.62A5.75,5.75,0,1,1,351,128,5.75,5.75,0,0,1,345.35,122.28Z" transform="translate(-1.37 -9.56)"/><path id="Person-2-82" data-name="Person-2" class="cls-3" d="M315.81,137.93c0-4.7,4.49-8.52,10-8.53s10.06,3.8,10.07,8.5Zm4.29-15.62a5.75,5.75,0,1,1,5.69,5.68A5.74,5.74,0,0,1,320.1,122.31Z" transform="translate(-1.37 -9.56)"/><path id="Person-2-83" data-name="Person-2" class="cls-3" d="M290.56,138c0-4.7,4.49-8.52,10-8.53s10.06,3.8,10.07,8.5Zm4.28-15.62a5.75,5.75,0,1,1,5.69,5.67A5.75,5.75,0,0,1,294.84,122.35Z" transform="translate(-1.37 -9.56)"/><path id="Person-2-84" data-name="Person-2" class="cls-3" d="M265.3,138c0-4.71,4.49-8.53,10.05-8.53s10.06,3.8,10.07,8.5Zm4.29-15.62a5.75,5.75,0,1,1,5.69,5.67A5.75,5.75,0,0,1,269.59,122.39Z" transform="translate(-1.37 -9.56)"/><path id="Person-2-85" data-name="Person-2" class="cls-3" d="M366.32,137.86c0-4.7,4.49-8.52,10-8.53s10.06,3.8,10.07,8.5Zm4.28-15.62a5.75,5.75,0,1,1,5.69,5.67A5.74,5.74,0,0,1,370.6,122.24Z" transform="translate(-1.37 -9.56)"/><path id="Person-2-86" data-name="Person-2" class="cls-3" d="M467.33,137.71c0-4.7,4.49-8.52,10-8.53s10.06,3.8,10.07,8.5Zm4.28-15.62a5.75,5.75,0,1,1,5.69,5.68A5.75,5.75,0,0,1,471.61,122.09Z" transform="translate(-1.37 -9.56)"/><path id="Person-2-87" data-name="Person-2" class="cls-3" d="M442.07,137.75c0-4.7,4.49-8.52,10.05-8.53s10.06,3.8,10.07,8.5Zm4.29-15.62a5.75,5.75,0,1,1,5.69,5.67A5.74,5.74,0,0,1,446.36,122.13Z" transform="translate(-1.37 -9.56)"/><path id="Person-2-88" data-name="Person-2" class="cls-3" d="M416.82,137.79c0-4.71,4.49-8.53,10-8.54s10.07,3.8,10.07,8.51Zm4.29-15.63a5.75,5.75,0,1,1,5.69,5.68A5.75,5.75,0,0,1,421.11,122.16Z" transform="translate(-1.37 -9.56)"/><path id="Person-2-89" data-name="Person-2" class="cls-3" d="M391.57,137.82c0-4.7,4.49-8.52,10-8.53s10.06,3.8,10.07,8.5Zm4.29-15.62a5.75,5.75,0,1,1,5.69,5.68A5.74,5.74,0,0,1,395.86,122.2Z" transform="translate(-1.37 -9.56)"/><path id="Person-2-90" data-name="Person-2" class="cls-3" d="M492.58,137.68c0-4.71,4.49-8.53,10-8.54s10.06,3.8,10.07,8.51Zm4.29-15.63a5.75,5.75,0,1,1,5.69,5.68A5.74,5.74,0,0,1,496.87,122.05Z" transform="translate(-1.37 -9.56)"/><path id="Person-2-91" data-name="Person-2" class="cls-3" d="M593.59,137.53c0-4.7,4.49-8.53,10-8.53s10.07,3.8,10.07,8.5Zm4.29-15.62a5.75,5.75,0,1,1,5.69,5.67A5.74,5.74,0,0,1,597.88,121.91Z" transform="translate(-1.37 -9.56)"/><path id="Person-2-92" data-name="Person-2" class="cls-3" d="M568.34,137.57c0-4.71,4.49-8.53,10-8.54s10.06,3.8,10.07,8.51Zm4.28-15.63a5.75,5.75,0,1,1,5.7,5.68A5.76,5.76,0,0,1,572.62,121.94Z" transform="translate(-1.37 -9.56)"/><path id="Person-2-93" data-name="Person-2" class="cls-3" d="M543.09,137.6c0-4.7,4.49-8.52,10-8.53s10.06,3.8,10.07,8.5ZM547.37,122a5.75,5.75,0,1,1,5.69,5.67A5.75,5.75,0,0,1,547.37,122Z" transform="translate(-1.37 -9.56)"/><path id="Person-2-94" data-name="Person-2" class="cls-3" d="M517.83,137.64c0-4.7,4.49-8.52,10-8.53s10.06,3.8,10.06,8.5ZM522.12,122a5.75,5.75,0,1,1,5.69,5.67A5.74,5.74,0,0,1,522.12,122Z" transform="translate(-1.37 -9.56)"/><path id="Person-2-95" data-name="Person-2" class="cls-3" d="M618.84,137.49c0-4.7,4.49-8.52,10-8.53s10.06,3.8,10.07,8.5Zm4.29-15.62a5.75,5.75,0,1,1,5.69,5.67A5.75,5.75,0,0,1,623.13,121.87Z" transform="translate(-1.37 -9.56)"/><path id="Person-2-96" data-name="Person-2" class="cls-3" d="M719.86,137.34c0-4.7,4.48-8.52,10-8.53s10.06,3.8,10.07,8.51Zm4.28-15.62a5.75,5.75,0,1,1,5.69,5.68A5.75,5.75,0,0,1,724.14,121.72Z" transform="translate(-1.37 -9.56)"/><path id="Person-2-97" data-name="Person-2" class="cls-3" d="M694.6,137.38c0-4.7,4.49-8.52,10-8.53s10.06,3.8,10.06,8.5Zm4.29-15.62a5.75,5.75,0,1,1,5.69,5.67A5.75,5.75,0,0,1,698.89,121.76Z" transform="translate(-1.37 -9.56)"/><path id="Person-2-98" data-name="Person-2" class="cls-3" d="M669.35,137.42c0-4.7,4.49-8.53,10-8.53s10.06,3.8,10.07,8.5Zm4.29-15.62a5.75,5.75,0,1,1,5.69,5.67A5.73,5.73,0,0,1,673.64,121.8Z" transform="translate(-1.37 -9.56)"/><path id="Person-2-99" data-name="Person-2" class="cls-3" d="M644.1,137.46c0-4.71,4.49-8.53,10-8.54s10.06,3.8,10.07,8.51Zm4.28-15.63a5.75,5.75,0,1,1,5.69,5.68A5.75,5.75,0,0,1,648.38,121.83Z" transform="translate(-1.37 -9.56)"/><path id="Person-2-100" data-name="Person-2" class="cls-3" d="M745.11,137.31c0-4.71,4.49-8.53,10-8.53s10.06,3.8,10.07,8.5Zm4.28-15.62a5.75,5.75,0,1,1,5.7,5.67A5.76,5.76,0,0,1,749.39,121.69Z" transform="translate(-1.37 -9.56)"/><path class="cls-1" d="M39,61.7H3.09V54.14L16,41.1q5.73-5.88,7.49-8.14A17.71,17.71,0,0,0,26,28.76a10.64,10.64,0,0,0,.78-4,5.85,5.85,0,0,0-1.71-4.61,6.64,6.64,0,0,0-4.55-1.51A13.13,13.13,0,0,0,14.73,20a30,30,0,0,0-5.87,3.91L3,16.91a38.38,38.38,0,0,1,6.29-4.57,23.2,23.2,0,0,1,5.45-2.06,28,28,0,0,1,6.61-.72,19.61,19.61,0,0,1,8.51,1.76,13.56,13.56,0,0,1,5.73,4.92,13.09,13.09,0,0,1,2,7.24,17.82,17.82,0,0,1-1.25,6.67,25.49,25.49,0,0,1-3.87,6.38,94.17,94.17,0,0,1-9.22,9.31l-6.61,6.23v.49H39Z" transform="translate(-1.37 -9.56)"/><path class="cls-1" d="M68,25.63q0,8.09-3.12,12.15t-9.18,4.06a10.57,10.57,0,0,1-9-4.17q-3.16-4.17-3.17-12,0-16.06,12.13-16.07,5.94,0,9.12,4.17T68,25.63Zm-15.57.07a20.84,20.84,0,0,0,.79,6.66c.53,1.47,1.38,2.2,2.55,2.2q3.38,0,3.38-8.86t-3.38-8.79q-1.76,0-2.55,2.16A20.55,20.55,0,0,0,52.38,25.7ZM92.14,10.3,63.63,61.7H55.19L83.7,10.3ZM104,46.16q0,8.06-3.12,12.11t-9.18,4.06a10.59,10.59,0,0,1-9-4.16q-3.16-4.17-3.17-12,0-16.06,12.13-16.07,5.94,0,9.12,4.17T104,46.16Zm-15.57.07a20.84,20.84,0,0,0,.79,6.66c.53,1.47,1.38,2.2,2.55,2.2q3.38,0,3.38-8.86t-3.38-8.79q-1.75,0-2.55,2.16A20.55,20.55,0,0,0,88.38,46.23Z" transform="translate(-1.37 -9.56)"/><path class="cls-4" d="M10.42,89.56A5,5,0,0,1,9.3,93a3.94,3.94,0,0,1-3.09,1.25A4,4,0,0,1,4,93.71a3.71,3.71,0,0,1-1.46-1.64,5.77,5.77,0,0,1-.52-2.51A5,5,0,0,1,3.18,86.1a3.91,3.91,0,0,1,3.08-1.24,3.84,3.84,0,0,1,3,1.27A5,5,0,0,1,10.42,89.56Zm-6.93,0a4.35,4.35,0,0,0,.7,2.66,2.41,2.41,0,0,0,2.05.91,2.41,2.41,0,0,0,2-.91A4.26,4.26,0,0,0,9,89.56a4.21,4.21,0,0,0-.71-2.63A2.44,2.44,0,0,0,6.22,86a2.4,2.4,0,0,0-2,.89A4.25,4.25,0,0,0,3.49,89.56Z" transform="translate(-1.37 -9.56)"/><path class="cls-4" d="M16.94,86.09H14.62v8H13.25v-8H11.62v-.62l1.63-.5v-.5c0-2.24,1-3.36,2.93-3.36a6.17,6.17,0,0,1,1.69.29l-.36,1.11a4.59,4.59,0,0,0-1.36-.26,1.31,1.31,0,0,0-1.15.52,2.88,2.88,0,0,0-.38,1.66V85h2.32Z" transform="translate(-1.37 -9.56)"/><path class="cls-4" d="M24.31,85v5.91a2.37,2.37,0,0,0,.51,1.66,2.06,2.06,0,0,0,1.58.54,2.6,2.6,0,0,0,2.09-.78,3.94,3.94,0,0,0,.66-2.55V85h1.38v9.1H29.39l-.2-1.22h-.07a2.82,2.82,0,0,1-1.18,1,3.9,3.9,0,0,1-1.71.36,3.51,3.51,0,0,1-2.49-.79A3.38,3.38,0,0,1,22.92,91V85Z" transform="translate(-1.37 -9.56)"/><path class="cls-4" d="M39.32,91.64a2.28,2.28,0,0,1-1,2,4.42,4.42,0,0,1-2.65.69,5.71,5.71,0,0,1-2.83-.58V92.44A7.17,7.17,0,0,0,34.3,93a5.72,5.72,0,0,0,1.45.19,3.29,3.29,0,0,0,1.66-.34,1.13,1.13,0,0,0,.58-1,1.12,1.12,0,0,0-.46-.91,7.26,7.26,0,0,0-1.8-.9,9.7,9.7,0,0,1-1.8-.82,2.44,2.44,0,0,1-.8-.8,2.15,2.15,0,0,1-.26-1.07,2,2,0,0,1,.9-1.76,4.23,4.23,0,0,1,2.49-.64,7.28,7.28,0,0,1,2.87.6l-.49,1.12A6.52,6.52,0,0,0,36.16,86a2.79,2.79,0,0,0-1.48.31,1,1,0,0,0-.5.85,1,1,0,0,0,.19.62,1.83,1.83,0,0,0,.6.49,14.48,14.48,0,0,0,1.59.67,5.9,5.9,0,0,1,2.19,1.19A2.09,2.09,0,0,1,39.32,91.64Z" transform="translate(-1.37 -9.56)"/><path class="cls-4" d="M45.4,94.29a4.18,4.18,0,0,1-3.18-1.23,4.75,4.75,0,0,1-1.17-3.41,5.26,5.26,0,0,1,1.09-3.5,3.6,3.6,0,0,1,2.91-1.29A3.41,3.41,0,0,1,47.75,86a4.29,4.29,0,0,1,1,3v.87H42.48a3.61,3.61,0,0,0,.81,2.43,2.77,2.77,0,0,0,2.16.83,7.34,7.34,0,0,0,2.91-.61V93.7a7.36,7.36,0,0,1-1.38.45A7.91,7.91,0,0,1,45.4,94.29ZM45,86a2.28,2.28,0,0,0-1.75.71,3.36,3.36,0,0,0-.77,2h4.76a3,3,0,0,0-.58-2A2.05,2.05,0,0,0,45,86Z" transform="translate(-1.37 -9.56)"/><path class="cls-4" d="M55.25,84.86a5.09,5.09,0,0,1,1.08.1l-.19,1.28a4.21,4.21,0,0,0-1-.13,2.41,2.41,0,0,0-1.89.9,3.28,3.28,0,0,0-.78,2.23v4.88H51.1V85h1.13l.16,1.69h.07a4,4,0,0,1,1.22-1.37A2.74,2.74,0,0,1,55.25,84.86Z" transform="translate(-1.37 -9.56)"/><path class="cls-4" d="M63.9,91.64a2.27,2.27,0,0,1-.94,2,4.45,4.45,0,0,1-2.66.69,5.7,5.7,0,0,1-2.82-.58V92.44a7.17,7.17,0,0,0,1.41.52,5.72,5.72,0,0,0,1.45.19A3.29,3.29,0,0,0,62,92.81a1.19,1.19,0,0,0,.12-2,7.26,7.26,0,0,0-1.8-.9,9.87,9.87,0,0,1-1.81-.82,2.5,2.5,0,0,1-.79-.8,2.22,2.22,0,0,1,.64-2.83,4.2,4.2,0,0,1,2.48-.64,7.21,7.21,0,0,1,2.87.6l-.48,1.12A6.61,6.61,0,0,0,60.74,86a2.77,2.77,0,0,0-1.47.31.94.94,0,0,0-.5.85,1.05,1.05,0,0,0,.18.62,2,2,0,0,0,.61.49,12.89,12.89,0,0,0,1.59.67,5.9,5.9,0,0,1,2.19,1.19A2.08,2.08,0,0,1,63.9,91.64Z" transform="translate(-1.37 -9.56)"/><path class="cls-4" d="M74.66,86.09H72.35v8H71v-8H69.34v-.62L71,85v-.5q0-3.36,2.93-3.36a6.11,6.11,0,0,1,1.69.29l-.35,1.11a4.7,4.7,0,0,0-1.37-.26,1.31,1.31,0,0,0-1.15.52,2.89,2.89,0,0,0-.37,1.66V85h2.31Zm1.55-3.53a.87.87,0,0,1,.23-.69.8.8,0,0,1,.58-.23.81.81,0,0,1,.57.23,1.11,1.11,0,0,1,0,1.38.81.81,0,0,1-.57.23.8.8,0,0,1-.58-.23A.9.9,0,0,1,76.21,82.56ZM77.7,94.12H76.32V85H77.7Z" transform="translate(-1.37 -9.56)"/><path class="cls-4" d="M86.85,94.12V88.24a2.34,2.34,0,0,0-.51-1.66A2,2,0,0,0,84.76,86a2.66,2.66,0,0,0-2.1.77A3.9,3.9,0,0,0,82,89.35v4.77H80.62V85h1.12L82,86.27H82a2.81,2.81,0,0,1,1.19-1,3.82,3.82,0,0,1,1.7-.37,3.47,3.47,0,0,1,2.48.79,3.39,3.39,0,0,1,.83,2.54v5.93Z" transform="translate(-1.37 -9.56)"/><path class="cls-4" d="M97.25,92.9h-.08a3.21,3.21,0,0,1-2.85,1.39,3.39,3.39,0,0,1-2.78-1.22,6.6,6.6,0,0,1,0-7,3.7,3.7,0,0,1,5.61.1h.11l-.06-.65,0-.64v-3.7h1.38V94.12H97.43Zm-2.76.23a2.52,2.52,0,0,0,2.05-.76,3.93,3.93,0,0,0,.63-2.48V89.6a4.56,4.56,0,0,0-.64-2.76,2.44,2.44,0,0,0-2-.83,2.13,2.13,0,0,0-1.86.94A4.69,4.69,0,0,0,92,89.61a4.49,4.49,0,0,0,.64,2.64A2.15,2.15,0,0,0,94.49,93.13Z" transform="translate(-1.37 -9.56)"/><path class="cls-4" d="M5.51,115.15a5.52,5.52,0,0,0,.71-.05,4.88,4.88,0,0,0,.53-.12V116a2.6,2.6,0,0,1-.66.18,5.91,5.91,0,0,1-.78.07c-1.76,0-2.64-.93-2.64-2.78v-5.42H1.37v-.66l1.3-.57.58-1.94h.8V107H6.69v1.07H4.05v5.36a1.83,1.83,0,0,0,.39,1.26A1.37,1.37,0,0,0,5.51,115.15Z" transform="translate(-1.37 -9.56)"/><path class="cls-4" d="M14.8,116.12v-5.88a2.34,2.34,0,0,0-.51-1.66,2,2,0,0,0-1.58-.55,2.6,2.6,0,0,0-2.1.78,4,4,0,0,0-.66,2.56v4.75H8.57V103.21H10v3.91a7.72,7.72,0,0,1-.07,1.17H10a2.74,2.74,0,0,1,1.16-1,3.77,3.77,0,0,1,1.71-.38,3.49,3.49,0,0,1,2.5.8,3.33,3.33,0,0,1,.84,2.52v5.93Z" transform="translate(-1.37 -9.56)"/><path class="cls-4" d="M22.85,116.29a4.15,4.15,0,0,1-3.18-1.23,4.75,4.75,0,0,1-1.17-3.41,5.31,5.31,0,0,1,1.08-3.5,3.63,3.63,0,0,1,2.91-1.29A3.44,3.44,0,0,1,25.2,108a4.33,4.33,0,0,1,1,3v.87H19.93a3.61,3.61,0,0,0,.81,2.43,2.77,2.77,0,0,0,2.16.83,7.34,7.34,0,0,0,2.91-.61v1.23a7.21,7.21,0,0,1-1.39.45A7.81,7.81,0,0,1,22.85,116.29ZM22.48,108a2.27,2.27,0,0,0-1.75.71,3.3,3.3,0,0,0-.77,2h4.76a3.09,3.09,0,0,0-.58-2A2.05,2.05,0,0,0,22.48,108Z" transform="translate(-1.37 -9.56)"/><path class="cls-4" d="M38.83,113.64a2.28,2.28,0,0,1-.95,2,4.42,4.42,0,0,1-2.65.69,5.71,5.71,0,0,1-2.83-.58v-1.27a7.17,7.17,0,0,0,1.41.52,5.72,5.72,0,0,0,1.45.19,3.29,3.29,0,0,0,1.66-.34,1.13,1.13,0,0,0,.58-1,1.12,1.12,0,0,0-.46-.91,7.26,7.26,0,0,0-1.8-.9,9.7,9.7,0,0,1-1.8-.82,2.44,2.44,0,0,1-.8-.8,2.15,2.15,0,0,1-.26-1.07,2,2,0,0,1,.9-1.76,4.23,4.23,0,0,1,2.49-.64,7.28,7.28,0,0,1,2.87.6l-.49,1.12a6.56,6.56,0,0,0-2.48-.57,2.79,2.79,0,0,0-1.48.31,1,1,0,0,0-.5.85,1,1,0,0,0,.19.62,1.83,1.83,0,0,0,.6.49,14.48,14.48,0,0,0,1.59.67,5.9,5.9,0,0,1,2.19,1.19A2.09,2.09,0,0,1,38.83,113.64Z" transform="translate(-1.37 -9.56)"/><path class="cls-4" d="M41,104.56a.87.87,0,0,1,.24-.69.78.78,0,0,1,.58-.23.81.81,0,0,1,.57.23,1.11,1.11,0,0,1,0,1.38.81.81,0,0,1-.57.23.78.78,0,0,1-.58-.23A.9.9,0,0,1,41,104.56Zm1.5,11.56H41.07V107h1.38Z" transform="translate(-1.37 -9.56)"/><path class="cls-4" d="M48.31,115.15a5.24,5.24,0,0,0,.7-.05,4.62,4.62,0,0,0,.54-.12V116a2.73,2.73,0,0,1-.66.18,5.91,5.91,0,0,1-.78.07c-1.76,0-2.64-.93-2.64-2.78v-5.42h-1.3v-.66l1.3-.57.58-1.94h.8V107h2.64v1.07H46.85v5.36a1.83,1.83,0,0,0,.39,1.26A1.36,1.36,0,0,0,48.31,115.15Z" transform="translate(-1.37 -9.56)"/><path class="cls-4" d="M55.21,116.29A4.18,4.18,0,0,1,52,115.06a4.75,4.75,0,0,1-1.17-3.41,5.31,5.31,0,0,1,1.09-3.5,3.6,3.6,0,0,1,2.91-1.29,3.41,3.41,0,0,1,2.7,1.12,4.29,4.29,0,0,1,1,3v.87H52.29a3.61,3.61,0,0,0,.81,2.43,2.77,2.77,0,0,0,2.16.83,7.34,7.34,0,0,0,2.91-.61v1.23a7.36,7.36,0,0,1-1.38.45A7.91,7.91,0,0,1,55.21,116.29ZM54.84,108a2.28,2.28,0,0,0-1.75.71,3.29,3.29,0,0,0-.76,2h4.75a3,3,0,0,0-.58-2A2.05,2.05,0,0,0,54.84,108Z" transform="translate(-1.37 -9.56)"/><path class="cls-4" d="M71.55,116.12v-5.88a2.34,2.34,0,0,0-.51-1.66,2,2,0,0,0-1.58-.55,2.6,2.6,0,0,0-2.1.78,4,4,0,0,0-.66,2.56v4.75H65.32V103.21H66.7v3.91a9.53,9.53,0,0,1-.06,1.17h.08a2.8,2.8,0,0,1,1.16-1,3.77,3.77,0,0,1,1.71-.38,3.49,3.49,0,0,1,2.5.8,3.33,3.33,0,0,1,.84,2.52v5.93Z" transform="translate(-1.37 -9.56)"/><path class="cls-4" d="M81.35,116.12l-.27-1.29H81A3.74,3.74,0,0,1,79.66,116a4,4,0,0,1-1.69.31,3,3,0,0,1-2.12-.7,2.53,2.53,0,0,1-.77-2q0-2.76,4.41-2.89l1.54,0v-.57a2.29,2.29,0,0,0-.46-1.58A1.9,1.9,0,0,0,79.1,108a6,6,0,0,0-2.58.7l-.42-1.06a6.8,6.8,0,0,1,1.47-.57,6.36,6.36,0,0,1,1.61-.21,3.47,3.47,0,0,1,2.41.73,3,3,0,0,1,.78,2.31v6.21Zm-3.11-1a2.75,2.75,0,0,0,2-.71,2.59,2.59,0,0,0,.74-2v-.82l-1.38.06a4.79,4.79,0,0,0-2.37.51,1.52,1.52,0,0,0-.73,1.4,1.4,1.4,0,0,0,.46,1.14A1.86,1.86,0,0,0,78.24,115.15Z" transform="translate(-1.37 -9.56)"/><path class="cls-4" d="M89.36,106.86a5.12,5.12,0,0,1,1.09.1l-.19,1.28a4.36,4.36,0,0,0-1-.13,2.41,2.41,0,0,0-1.88.9,3.24,3.24,0,0,0-.79,2.23v4.88H85.21V107h1.14l.16,1.69h.06a4,4,0,0,1,1.23-1.37A2.71,2.71,0,0,1,89.36,106.86Z" transform="translate(-1.37 -9.56)"/><path class="cls-4" d="M98.35,114.9h-.08a3.24,3.24,0,0,1-2.86,1.39,3.39,3.39,0,0,1-2.77-1.22,5.39,5.39,0,0,1-1-3.47,5.5,5.5,0,0,1,1-3.5,3.36,3.36,0,0,1,2.77-1.24,3.31,3.31,0,0,1,2.84,1.34h.11l-.06-.65,0-.64v-3.7h1.38v12.91H98.53Zm-2.76.23a2.53,2.53,0,0,0,2-.76,3.93,3.93,0,0,0,.63-2.48v-.29a4.56,4.56,0,0,0-.64-2.76,2.46,2.46,0,0,0-2.06-.83,2.12,2.12,0,0,0-1.85.94,4.69,4.69,0,0,0-.65,2.66,4.57,4.57,0,0,0,.64,2.64A2.17,2.17,0,0,0,95.59,115.13Z" transform="translate(-1.37 -9.56)"/><path class="cls-4" d="M5.51,137.15a5.52,5.52,0,0,0,.71-.05,4.88,4.88,0,0,0,.53-.12V138a2.6,2.6,0,0,1-.66.18,5.91,5.91,0,0,1-.78.07c-1.76,0-2.64-.93-2.64-2.78v-5.42H1.37v-.66l1.3-.57.58-1.94h.8V129H6.69v1.07H4.05v5.36a1.83,1.83,0,0,0,.39,1.26A1.37,1.37,0,0,0,5.51,137.15Z" transform="translate(-1.37 -9.56)"/><path class="cls-4" d="M16.42,133.56A5,5,0,0,1,15.3,137a3.94,3.94,0,0,1-3.09,1.25,4,4,0,0,1-2.17-.58,3.71,3.71,0,0,1-1.46-1.64,5.77,5.77,0,0,1-.51-2.51,5,5,0,0,1,1.11-3.46,3.92,3.92,0,0,1,3.09-1.24,3.83,3.83,0,0,1,3,1.27A5,5,0,0,1,16.42,133.56Zm-6.93,0a4.35,4.35,0,0,0,.7,2.66,2.42,2.42,0,0,0,2.05.91,2.44,2.44,0,0,0,2.06-.91,4.33,4.33,0,0,0,.7-2.66,4.27,4.27,0,0,0-.7-2.63,2.47,2.47,0,0,0-2.07-.9,2.41,2.41,0,0,0-2.05.89A4.25,4.25,0,0,0,9.49,133.56Z" transform="translate(-1.37 -9.56)"/><path class="cls-4" d="M29.48,138.12v-5.88a2.39,2.39,0,0,0-.5-1.66,2.06,2.06,0,0,0-1.59-.55,2.62,2.62,0,0,0-2.09.77,3.9,3.9,0,0,0-.67,2.55v4.77H23.26V129h1.12l.22,1.25h.07a2.78,2.78,0,0,1,1.18-1,3.83,3.83,0,0,1,1.71-.37,3.44,3.44,0,0,1,2.47.79,3.39,3.39,0,0,1,.83,2.54v5.93Z" transform="translate(-1.37 -9.56)"/><path class="cls-4" d="M39.29,138.12,39,136.83h-.07A3.74,3.74,0,0,1,37.59,138a4,4,0,0,1-1.69.31,3.06,3.06,0,0,1-2.12-.7,2.56,2.56,0,0,1-.77-2q0-2.76,4.41-2.89l1.54-.05v-.57a2.29,2.29,0,0,0-.46-1.58A1.9,1.9,0,0,0,37,130a6,6,0,0,0-2.58.7L34,129.65a6.8,6.8,0,0,1,1.47-.57,6.36,6.36,0,0,1,1.61-.21,3.47,3.47,0,0,1,2.41.73,3,3,0,0,1,.79,2.31v6.21Zm-3.12-1a2.75,2.75,0,0,0,2-.71,2.59,2.59,0,0,0,.74-2v-.82l-1.38.06a4.79,4.79,0,0,0-2.37.51,1.54,1.54,0,0,0-.73,1.4,1.4,1.4,0,0,0,.46,1.14A1.86,1.86,0,0,0,36.17,137.15Z" transform="translate(-1.37 -9.56)"/><path class="cls-4" d="M45.14,138.12,41.68,129h1.48l2,5.4q.66,1.89.78,2.46H46a18.71,18.71,0,0,1,.57-1.83c.33-.92,1.05-2.93,2.18-6H50.2l-3.45,9.1Z" transform="translate(-1.37 -9.56)"/><path class="cls-4" d="M51.55,126.56a.87.87,0,0,1,.23-.69.8.8,0,0,1,.58-.23.81.81,0,0,1,.57.23,1.11,1.11,0,0,1,0,1.38.81.81,0,0,1-.57.23.8.8,0,0,1-.58-.23A.9.9,0,0,1,51.55,126.56ZM53,138.12H51.66V129H53Z" transform="translate(-1.37 -9.56)"/><path class="cls-4" d="M63.41,129v.87l-1.69.2a2.85,2.85,0,0,1,.42.76,3,3,0,0,1,.18,1.06,2.68,2.68,0,0,1-.91,2.13,3.66,3.66,0,0,1-2.51.8,4.51,4.51,0,0,1-.76-.06,1.35,1.35,0,0,0-.88,1.17.59.59,0,0,0,.3.55,2.26,2.26,0,0,0,1.06.18h1.61a3.59,3.59,0,0,1,2.27.62,2.15,2.15,0,0,1,.79,1.81,2.57,2.57,0,0,1-1.21,2.3,6.49,6.49,0,0,1-3.54.8,4.86,4.86,0,0,1-2.75-.67,2.15,2.15,0,0,1-1-1.87,2.08,2.08,0,0,1,.54-1.44,2.68,2.68,0,0,1,1.49-.82,1.54,1.54,0,0,1-.59-.49,1.34,1.34,0,0,1-.23-.77,1.52,1.52,0,0,1,.26-.88,3,3,0,0,1,.84-.72,2.43,2.43,0,0,1-1.15-1,2.92,2.92,0,0,1-.44-1.59,3,3,0,0,1,.89-2.3,3.68,3.68,0,0,1,2.55-.81,4.62,4.62,0,0,1,1.28.16Zm-7.26,10.63a1.25,1.25,0,0,0,.62,1.12,3.5,3.5,0,0,0,1.79.38,4.94,4.94,0,0,0,2.57-.52,1.57,1.57,0,0,0,.83-1.41,1.11,1.11,0,0,0-.45-1,3.57,3.57,0,0,0-1.72-.29H58.14a2.14,2.14,0,0,0-1.46.45A1.61,1.61,0,0,0,56.15,139.65Zm.75-7.71a1.86,1.86,0,0,0,.54,1.44,2.14,2.14,0,0,0,1.5.49,1.76,1.76,0,0,0,2-2,1.81,1.81,0,0,0-2-2,2.07,2.07,0,0,0-1.5.52A2.12,2.12,0,0,0,56.9,131.94Z" transform="translate(-1.37 -9.56)"/><path class="cls-4" d="M70.87,138.12l-.27-1.29h-.07A3.76,3.76,0,0,1,69.17,138a4,4,0,0,1-1.69.31,3.06,3.06,0,0,1-2.12-.7,2.56,2.56,0,0,1-.77-2q0-2.76,4.41-2.89l1.55-.05v-.57a2.35,2.35,0,0,0-.46-1.58,1.91,1.91,0,0,0-1.48-.51,5.93,5.93,0,0,0-2.57.7l-.42-1.06a6.61,6.61,0,0,1,1.47-.57,6.28,6.28,0,0,1,1.6-.21,3.5,3.5,0,0,1,2.42.73,3,3,0,0,1,.78,2.31v6.21Zm-3.11-1a2.77,2.77,0,0,0,2-.71,2.59,2.59,0,0,0,.73-2v-.82l-1.37.06a4.79,4.79,0,0,0-2.37.51,1.52,1.52,0,0,0-.73,1.4,1.43,1.43,0,0,0,.45,1.14A1.87,1.87,0,0,0,67.76,137.15Z" transform="translate(-1.37 -9.56)"/><path class="cls-4" d="M77.67,137.15a5.24,5.24,0,0,0,.7-.05,4.62,4.62,0,0,0,.54-.12V138a2.73,2.73,0,0,1-.66.18,5.91,5.91,0,0,1-.78.07c-1.76,0-2.64-.93-2.64-2.78v-5.42h-1.3v-.66l1.3-.57.58-1.94h.8V129h2.64v1.07H76.21v5.36a1.83,1.83,0,0,0,.39,1.26A1.36,1.36,0,0,0,77.67,137.15Z" transform="translate(-1.37 -9.56)"/><path class="cls-4" d="M84.57,138.29a4.18,4.18,0,0,1-3.18-1.23,4.75,4.75,0,0,1-1.16-3.41,5.31,5.31,0,0,1,1.08-3.5,3.6,3.6,0,0,1,2.91-1.29,3.41,3.41,0,0,1,2.7,1.12,4.29,4.29,0,0,1,1,3v.87H81.65a3.61,3.61,0,0,0,.81,2.43,2.77,2.77,0,0,0,2.16.83,7.34,7.34,0,0,0,2.91-.61v1.23a7.36,7.36,0,0,1-1.38.45A7.91,7.91,0,0,1,84.57,138.29ZM84.2,130a2.28,2.28,0,0,0-1.75.71,3.29,3.29,0,0,0-.76,2h4.75a3,3,0,0,0-.58-2A2.05,2.05,0,0,0,84.2,130Z" transform="translate(-1.37 -9.56)"/><path class="cls-3" d="M835.94,22A12.12,12.12,0,0,1,833,30.21a15.13,15.13,0,0,1-8.19,4.64v.21q6.23.78,9.42,3.78a10.6,10.6,0,0,1,3.2,8.1q0,7.43-5.38,11.55t-15.36,4.13a37.34,37.34,0,0,1-14.84-2.77V50.6a33.14,33.14,0,0,0,6.57,2.46,27.81,27.81,0,0,0,7.11.95q5.37,0,7.94-1.83c1.71-1.22,2.57-3.17,2.57-5.87a5.31,5.31,0,0,0-3-5.13c-2-1-5.11-1.51-9.42-1.51h-3.9V31.33h4q6,0,8.74-1.56t2.76-5.36q0-5.84-7.31-5.84a16.48,16.48,0,0,0-5.15.85A25,25,0,0,0,807,22.33l-5-7.48a27.92,27.92,0,0,1,16.77-5.07q8,0,12.6,3.24A10.37,10.37,0,0,1,835.94,22Z" transform="translate(-1.37 -9.56)"/><path class="cls-3" d="M848.21,61.92l19.3-42.19H842.16V10.59H879v6.82L859.6,61.92Z" transform="translate(-1.37 -9.56)"/><path class="cls-3" d="M908,25.85q0,8.08-3.13,12.15t-9.17,4.06a10.6,10.6,0,0,1-9-4.17q-3.16-4.17-3.16-12,0-16.07,12.13-16.07,5.94,0,9.12,4.17T908,25.85Zm-15.57.07a20.84,20.84,0,0,0,.79,6.66c.53,1.47,1.37,2.2,2.55,2.2q3.38,0,3.37-8.86t-3.37-8.79c-1.18,0-2,.72-2.55,2.16A20.59,20.59,0,0,0,892.4,25.92Zm39.76-15.4-28.51,51.4h-8.44l28.51-51.4ZM944,46.38q0,8.06-3.13,12.11t-9.17,4.06a10.59,10.59,0,0,1-9-4.16q-3.16-4.17-3.16-12,0-16.07,12.13-16.06,5.94,0,9.12,4.16T944,46.38Zm-15.57.07a20.84,20.84,0,0,0,.79,6.66c.53,1.47,1.37,2.2,2.55,2.2q3.38,0,3.37-8.86t-3.37-8.79c-1.18,0-2,.72-2.55,2.17A20.52,20.52,0,0,0,928.4,46.45Z" transform="translate(-1.37 -9.56)"/><path class="cls-4" d="M807.4,89.47a5,5,0,0,1-1.12,3.47,3.93,3.93,0,0,1-3.1,1.25,4.1,4.1,0,0,1-2.16-.57A3.77,3.77,0,0,1,799.56,92a5.66,5.66,0,0,1-.52-2.51A5,5,0,0,1,800.15,86a4,4,0,0,1,3.09-1.24,3.87,3.87,0,0,1,3,1.27A5,5,0,0,1,807.4,89.47Zm-6.93,0a4.3,4.3,0,0,0,.7,2.66,2.76,2.76,0,0,0,4.1,0,4.28,4.28,0,0,0,.7-2.66,4.24,4.24,0,0,0-.7-2.64,2.46,2.46,0,0,0-2.07-.9,2.43,2.43,0,0,0-2,.89A4.28,4.28,0,0,0,800.47,89.47Z" transform="translate(-1.37 -9.56)"/><path class="cls-4" d="M813.92,86H811.6v8h-1.38V86H808.6v-.62l1.62-.5v-.51q0-3.34,2.93-3.35a6.17,6.17,0,0,1,1.7.29l-.36,1.1a4.53,4.53,0,0,0-1.36-.25,1.3,1.3,0,0,0-1.15.52,2.86,2.86,0,0,0-.38,1.66v.59h2.32Z" transform="translate(-1.37 -9.56)"/><path class="cls-4" d="M821.29,84.93v5.9a2.36,2.36,0,0,0,.51,1.66,2,2,0,0,0,1.58.55,2.6,2.6,0,0,0,2.09-.78,3.94,3.94,0,0,0,.66-2.55V84.93h1.38V94h-1.14l-.2-1.22h-.08a2.73,2.73,0,0,1-1.17,1,4,4,0,0,1-1.71.35,3.46,3.46,0,0,1-2.49-.79,3.34,3.34,0,0,1-.83-2.52V84.93Z" transform="translate(-1.37 -9.56)"/><path class="cls-4" d="M836.3,91.54a2.28,2.28,0,0,1-.95,2,4.45,4.45,0,0,1-2.66.69,5.82,5.82,0,0,1-2.82-.57V92.34a7.2,7.2,0,0,0,1.41.53,6.21,6.21,0,0,0,1.45.19,3.28,3.28,0,0,0,1.66-.35,1.15,1.15,0,0,0,.58-1,1.17,1.17,0,0,0-.46-.91,7.32,7.32,0,0,0-1.8-.89A9.75,9.75,0,0,1,830.9,89a2.4,2.4,0,0,1-.79-.8,2.21,2.21,0,0,1,.64-2.82,4.2,4.2,0,0,1,2.48-.65,7.29,7.29,0,0,1,2.88.6l-.49,1.12a6.73,6.73,0,0,0-2.49-.56,2.88,2.88,0,0,0-1.47.3,1,1,0,0,0-.5.85,1.05,1.05,0,0,0,.18.62,1.75,1.75,0,0,0,.61.49,12.47,12.47,0,0,0,1.59.68A5.91,5.91,0,0,1,835.73,90,2.09,2.09,0,0,1,836.3,91.54Z" transform="translate(-1.37 -9.56)"/><path class="cls-4" d="M842.38,94.19A4.18,4.18,0,0,1,839.2,93,4.72,4.72,0,0,1,838,89.55a5.28,5.28,0,0,1,1.08-3.49,3.63,3.63,0,0,1,2.91-1.3,3.44,3.44,0,0,1,2.71,1.13,4.34,4.34,0,0,1,1,3v.87h-6.27a3.61,3.61,0,0,0,.81,2.43,2.8,2.8,0,0,0,2.16.83,7.34,7.34,0,0,0,2.91-.61V93.6a8.06,8.06,0,0,1-1.39.46A7.88,7.88,0,0,1,842.38,94.19ZM842,85.92a2.27,2.27,0,0,0-1.75.71,3.36,3.36,0,0,0-.77,2h4.76a3,3,0,0,0-.58-2A2.05,2.05,0,0,0,842,85.92Z" transform="translate(-1.37 -9.56)"/><path class="cls-4" d="M852.23,84.76a5.84,5.84,0,0,1,1.08.1l-.19,1.28a4.82,4.82,0,0,0-1-.12,2.44,2.44,0,0,0-1.89.89,3.31,3.31,0,0,0-.79,2.24V94h-1.38v-9.1h1.14l.16,1.69h.07a3.81,3.81,0,0,1,1.22-1.37A2.68,2.68,0,0,1,852.23,84.76Z" transform="translate(-1.37 -9.56)"/><path class="cls-4" d="M860.88,91.54a2.27,2.27,0,0,1-.94,2,4.45,4.45,0,0,1-2.66.69,5.77,5.77,0,0,1-2.82-.57V92.34a6.75,6.75,0,0,0,1.41.53,6.2,6.2,0,0,0,1.44.19,3.26,3.26,0,0,0,1.66-.35,1.18,1.18,0,0,0,.12-2,7,7,0,0,0-1.79-.89,9.75,9.75,0,0,1-1.81-.83,2.4,2.4,0,0,1-.79-.8,2.18,2.18,0,0,1,.64-2.82,4.2,4.2,0,0,1,2.48-.65,7.21,7.21,0,0,1,2.87.6l-.49,1.12a6.69,6.69,0,0,0-2.48-.56,2.92,2.92,0,0,0-1.48.3,1,1,0,0,0-.5.85,1.06,1.06,0,0,0,.19.62,1.8,1.8,0,0,0,.6.49,13.55,13.55,0,0,0,1.6.68A5.77,5.77,0,0,1,860.31,90,2.09,2.09,0,0,1,860.88,91.54Z" transform="translate(-1.37 -9.56)"/><path class="cls-4" d="M871.64,86h-2.32v8H868V86h-1.63v-.62l1.63-.5v-.51c0-2.23,1-3.35,2.93-3.35a6.17,6.17,0,0,1,1.69.29l-.36,1.1a4.53,4.53,0,0,0-1.36-.25,1.31,1.31,0,0,0-1.15.52,2.86,2.86,0,0,0-.38,1.66v.59h2.32Zm1.55-3.54a.9.9,0,0,1,.23-.69.79.79,0,0,1,.58-.22.81.81,0,0,1,.57.23.86.86,0,0,1,.24.68.94.94,0,0,1-.24.7.81.81,0,0,1-.57.23.8.8,0,0,1-.58-.23A.94.94,0,0,1,873.19,82.46ZM874.68,94H873.3v-9.1h1.38Z" transform="translate(-1.37 -9.56)"/><path class="cls-4" d="M883.83,94V88.14a2.37,2.37,0,0,0-.51-1.66,2.1,2.1,0,0,0-1.59-.55,2.61,2.61,0,0,0-2.09.78,3.89,3.89,0,0,0-.66,2.54V94H877.6v-9.1h1.12l.23,1.24H879a2.88,2.88,0,0,1,1.19-1,4,4,0,0,1,1.7-.37,3.43,3.43,0,0,1,2.47.8,3.32,3.32,0,0,1,.83,2.53V94Z" transform="translate(-1.37 -9.56)"/><path class="cls-4" d="M894.23,92.81h-.08a3.23,3.23,0,0,1-2.85,1.38A3.36,3.36,0,0,1,888.52,93a5.37,5.37,0,0,1-1-3.47,5.47,5.47,0,0,1,1-3.49,3.37,3.37,0,0,1,2.78-1.25,3.31,3.31,0,0,1,2.84,1.35h.1l0-.66,0-.64v-3.7h1.38V94h-1.12Zm-2.76.23a2.53,2.53,0,0,0,2-.77,3.91,3.91,0,0,0,.63-2.48V89.5a4.56,4.56,0,0,0-.64-2.76,2.44,2.44,0,0,0-2-.82,2.11,2.11,0,0,0-1.86.94,4.69,4.69,0,0,0-.64,2.66,4.46,4.46,0,0,0,.64,2.63A2.16,2.16,0,0,0,891.47,93Z" transform="translate(-1.37 -9.56)"/><path class="cls-4" d="M905.81,93.06a4,4,0,0,0,.7-.06,3.35,3.35,0,0,0,.54-.11v1a2,2,0,0,1-.66.18,4.59,4.59,0,0,1-.78.07c-1.76,0-2.64-.92-2.64-2.78V86h-1.31v-.66l1.31-.58.58-1.94h.8v2.11H907V86h-2.64v5.35a1.87,1.87,0,0,0,.39,1.27A1.36,1.36,0,0,0,905.81,93.06Z" transform="translate(-1.37 -9.56)"/><path class="cls-4" d="M915.1,94V88.14a2.37,2.37,0,0,0-.51-1.66,2.1,2.1,0,0,0-1.59-.55,2.6,2.6,0,0,0-2.09.78,4,4,0,0,0-.66,2.56V94h-1.38V81.11h1.38V85a7.63,7.63,0,0,1-.07,1.17h.08a2.84,2.84,0,0,1,1.16-1,3.79,3.79,0,0,1,1.72-.38,3.51,3.51,0,0,1,2.5.79,3.33,3.33,0,0,1,.83,2.52V94Z" transform="translate(-1.37 -9.56)"/><path class="cls-4" d="M923.15,94.19A4.19,4.19,0,0,1,920,93a4.76,4.76,0,0,1-1.16-3.41,5.28,5.28,0,0,1,1.08-3.49,3.61,3.61,0,0,1,2.91-1.3,3.45,3.45,0,0,1,2.71,1.13,4.33,4.33,0,0,1,1,3v.87h-6.26a3.56,3.56,0,0,0,.8,2.43,2.84,2.84,0,0,0,2.17.83,7.3,7.3,0,0,0,2.9-.61V93.6a8,8,0,0,1-1.38.46A7.88,7.88,0,0,1,923.15,94.19Zm-.38-8.27a2.25,2.25,0,0,0-1.74.71,3.3,3.3,0,0,0-.77,2H925a3,3,0,0,0-.59-2A2,2,0,0,0,922.77,85.92Z" transform="translate(-1.37 -9.56)"/><path class="cls-4" d="M805.45,113.54a2.28,2.28,0,0,1-1,2,4.45,4.45,0,0,1-2.66.69,5.82,5.82,0,0,1-2.82-.57v-1.28a7.2,7.2,0,0,0,1.41.53,6.21,6.21,0,0,0,1.45.19,3.28,3.28,0,0,0,1.66-.35,1.15,1.15,0,0,0,.58-1,1.14,1.14,0,0,0-.46-.91,7.32,7.32,0,0,0-1.8-.89,9.28,9.28,0,0,1-1.8-.83,2.35,2.35,0,0,1-.8-.8,2.21,2.21,0,0,1,.64-2.82,4.2,4.2,0,0,1,2.48-.65,7.29,7.29,0,0,1,2.88.6l-.49,1.12a6.73,6.73,0,0,0-2.49-.56,2.88,2.88,0,0,0-1.47.3,1,1,0,0,0-.5.85,1.05,1.05,0,0,0,.18.62,1.75,1.75,0,0,0,.61.49,12.47,12.47,0,0,0,1.59.68,5.91,5.91,0,0,1,2.19,1.18A2.09,2.09,0,0,1,805.45,113.54Z" transform="translate(-1.37 -9.56)"/><path class="cls-4" d="M807.57,104.46a.94.94,0,0,1,.23-.69.86.86,0,0,1,1.16,0,.86.86,0,0,1,.24.68.94.94,0,0,1-.24.7.81.81,0,0,1-.57.23.82.82,0,0,1-.59-.23A1,1,0,0,1,807.57,104.46Zm1.5,11.57h-1.38v-9.1h1.38Z" transform="translate(-1.37 -9.56)"/><path class="cls-4" d="M814.93,115.06a4,4,0,0,0,.7-.06,3.35,3.35,0,0,0,.54-.11v1a2,2,0,0,1-.66.18,4.59,4.59,0,0,1-.78.07c-1.76,0-2.64-.92-2.64-2.78V108h-1.31v-.66l1.31-.58.58-1.94h.8v2.11h2.63V108h-2.63v5.35a1.87,1.87,0,0,0,.39,1.27A1.36,1.36,0,0,0,814.93,115.06Z" transform="translate(-1.37 -9.56)"/><path class="cls-4" d="M821.83,116.19a4.18,4.18,0,0,1-3.18-1.23,4.72,4.72,0,0,1-1.17-3.41,5.23,5.23,0,0,1,1.09-3.49,3.61,3.61,0,0,1,2.91-1.3,3.42,3.42,0,0,1,2.7,1.13,4.29,4.29,0,0,1,1,3v.87h-6.27a3.61,3.61,0,0,0,.81,2.43,2.8,2.8,0,0,0,2.16.83,7.34,7.34,0,0,0,2.91-.61v1.22a8.06,8.06,0,0,1-1.39.46A7.81,7.81,0,0,1,821.83,116.19Zm-.37-8.27a2.28,2.28,0,0,0-1.75.71,3.36,3.36,0,0,0-.77,2h4.76a3,3,0,0,0-.58-2A2.05,2.05,0,0,0,821.46,107.92Z" transform="translate(-1.37 -9.56)"/><path class="cls-4" d="M835.79,116.19A4.19,4.19,0,0,1,832.6,115a4.72,4.72,0,0,1-1.16-3.41,5.28,5.28,0,0,1,1.08-3.49,3.61,3.61,0,0,1,2.91-1.3,3.45,3.45,0,0,1,2.71,1.13,4.33,4.33,0,0,1,1,3v.87h-6.27a3.61,3.61,0,0,0,.81,2.43,2.84,2.84,0,0,0,2.17.83,7.33,7.33,0,0,0,2.9-.61v1.22a8.26,8.26,0,0,1-1.38.46A8,8,0,0,1,835.79,116.19Zm-.38-8.27a2.25,2.25,0,0,0-1.74.71,3.3,3.3,0,0,0-.77,2h4.75a3,3,0,0,0-.58-2A2,2,0,0,0,835.41,107.92Z" transform="translate(-1.37 -9.56)"/><path class="cls-4" d="M847.07,116l-.27-1.3h-.07a3.78,3.78,0,0,1-1.35,1.16,4.19,4.19,0,0,1-1.69.3,3.06,3.06,0,0,1-2.12-.69,2.57,2.57,0,0,1-.77-2q0-2.76,4.41-2.89l1.54-.05V110a2.28,2.28,0,0,0-.46-1.58,1.9,1.9,0,0,0-1.47-.51,6,6,0,0,0-2.58.7l-.42-1.06a6.8,6.8,0,0,1,1.47-.57,6.36,6.36,0,0,1,1.61-.21,3.47,3.47,0,0,1,2.41.72,3,3,0,0,1,.79,2.32V116Zm-3.11-1a2.79,2.79,0,0,0,2-.71,2.61,2.61,0,0,0,.74-2v-.83l-1.38.06a5,5,0,0,0-2.37.51,1.55,1.55,0,0,0-.73,1.41,1.4,1.4,0,0,0,.46,1.14A1.86,1.86,0,0,0,844,115.06Z" transform="translate(-1.37 -9.56)"/><path class="cls-4" d="M856.8,113.54a2.27,2.27,0,0,1-.94,2,4.45,4.45,0,0,1-2.66.69,5.77,5.77,0,0,1-2.82-.57v-1.28a7.2,7.2,0,0,0,1.41.53,6.2,6.2,0,0,0,1.44.19,3.26,3.26,0,0,0,1.66-.35,1.14,1.14,0,0,0,.59-1,1.17,1.17,0,0,0-.46-.91,7.32,7.32,0,0,0-1.8-.89,9.75,9.75,0,0,1-1.81-.83,2.4,2.4,0,0,1-.79-.8,2,2,0,0,1-.27-1.07,2,2,0,0,1,.91-1.75,4.2,4.2,0,0,1,2.48-.65,7.21,7.21,0,0,1,2.87.6l-.49,1.12a6.69,6.69,0,0,0-2.48-.56,3,3,0,0,0-1.48.3,1,1,0,0,0-.49.85,1.05,1.05,0,0,0,.18.62,1.8,1.8,0,0,0,.6.49,13.55,13.55,0,0,0,1.6.68,5.77,5.77,0,0,1,2.18,1.18A2.09,2.09,0,0,1,856.8,113.54Z" transform="translate(-1.37 -9.56)"/><path class="cls-4" d="M857.6,106.93h1.48l2,5.19a18.44,18.44,0,0,1,.81,2.56H862c.07-.28.22-.76.45-1.45s1-2.78,2.26-6.3h1.47l-3.91,10.36a5.2,5.2,0,0,1-1.35,2.18,2.9,2.9,0,0,1-1.91.64,5.75,5.75,0,0,1-1.24-.14v-1.1a5.18,5.18,0,0,0,1,.1,2.11,2.11,0,0,0,2-1.6l.51-1.29Z" transform="translate(-1.37 -9.56)"/><path class="cls-4" d="M875,115.06a4,4,0,0,0,.7-.06,3.35,3.35,0,0,0,.54-.11v1a2,2,0,0,1-.66.18,4.59,4.59,0,0,1-.78.07c-1.76,0-2.64-.92-2.64-2.78V108h-1.31v-.66l1.31-.58.58-1.94h.79v2.11h2.64V108H873.5v5.35a1.93,1.93,0,0,0,.39,1.27A1.38,1.38,0,0,0,875,115.06Z" transform="translate(-1.37 -9.56)"/><path class="cls-4" d="M885.88,111.47a5,5,0,0,1-1.12,3.47,3.93,3.93,0,0,1-3.1,1.25,4.1,4.1,0,0,1-2.16-.57A3.77,3.77,0,0,1,878,114a5.66,5.66,0,0,1-.52-2.51,5,5,0,0,1,1.12-3.47,4,4,0,0,1,3.08-1.24,3.87,3.87,0,0,1,3,1.27A5,5,0,0,1,885.88,111.47Zm-6.93,0a4.3,4.3,0,0,0,.7,2.66,2.76,2.76,0,0,0,4.1,0,4.28,4.28,0,0,0,.7-2.66,4.24,4.24,0,0,0-.7-2.64,2.47,2.47,0,0,0-2.07-.9,2.43,2.43,0,0,0-2,.89A4.28,4.28,0,0,0,879,111.47Z" transform="translate(-1.37 -9.56)"/><path class="cls-4" d="M805.83,138v-5.89a2.42,2.42,0,0,0-.5-1.66,2.1,2.1,0,0,0-1.59-.55,2.6,2.6,0,0,0-2.09.78,3.89,3.89,0,0,0-.66,2.54V138h-1.38v-9.1h1.12l.22,1.24H801a2.88,2.88,0,0,1,1.19-1,3.93,3.93,0,0,1,1.7-.37,3.44,3.44,0,0,1,2.47.8,3.32,3.32,0,0,1,.83,2.53V138Z" transform="translate(-1.37 -9.56)"/><path class="cls-4" d="M815.64,138l-.28-1.3h-.06a3.88,3.88,0,0,1-1.36,1.16,4.16,4.16,0,0,1-1.69.3,3.06,3.06,0,0,1-2.12-.69,2.57,2.57,0,0,1-.77-2q0-2.76,4.41-2.89l1.54-.05V132a2.28,2.28,0,0,0-.46-1.58,1.87,1.87,0,0,0-1.47-.51,5.89,5.89,0,0,0-2.57.7l-.43-1.06a6.69,6.69,0,0,1,1.48-.57,6.28,6.28,0,0,1,1.6-.21,3.45,3.45,0,0,1,2.41.72,3,3,0,0,1,.79,2.32V138Zm-3.12-1a2.82,2.82,0,0,0,2-.71,2.6,2.6,0,0,0,.73-2v-.83l-1.38.06a5.09,5.09,0,0,0-2.37.51,1.54,1.54,0,0,0-.72,1.41,1.43,1.43,0,0,0,.45,1.14A1.86,1.86,0,0,0,812.52,137.06Z" transform="translate(-1.37 -9.56)"/><path class="cls-4" d="M821.49,138l-3.45-9.1h1.47l2,5.4a22.06,22.06,0,0,1,.78,2.45h.07a17.13,17.13,0,0,1,.58-1.82c.32-.92,1.05-2.93,2.17-6h1.48L823.1,138Z" transform="translate(-1.37 -9.56)"/><path class="cls-4" d="M827.9,126.46a.94.94,0,0,1,.23-.69.79.79,0,0,1,.58-.22.81.81,0,0,1,.57.23.86.86,0,0,1,.24.68.94.94,0,0,1-.24.7.81.81,0,0,1-.57.23.8.8,0,0,1-.58-.23A1,1,0,0,1,827.9,126.46ZM829.39,138H828v-9.1h1.38Z" transform="translate(-1.37 -9.56)"/><path class="cls-4" d="M839.76,128.93v.87l-1.69.2a2.7,2.7,0,0,1,.42.76,3,3,0,0,1,.18,1.06,2.68,2.68,0,0,1-.91,2.13,4.3,4.3,0,0,1-3.27.73,1.35,1.35,0,0,0-.88,1.17.57.57,0,0,0,.31.55,2.19,2.19,0,0,0,1.05.18h1.61a3.59,3.59,0,0,1,2.27.63,2.14,2.14,0,0,1,.79,1.81,2.58,2.58,0,0,1-1.21,2.3,6.49,6.49,0,0,1-3.54.79,4.88,4.88,0,0,1-2.75-.66,2.16,2.16,0,0,1-1-1.88,2.1,2.1,0,0,1,.53-1.44,2.75,2.75,0,0,1,1.49-.82,1.37,1.37,0,0,1-.58-.49,1.28,1.28,0,0,1-.24-.77,1.51,1.51,0,0,1,.26-.87,2.81,2.81,0,0,1,.84-.72,2.49,2.49,0,0,1-1.15-1,3.28,3.28,0,0,1,.46-3.9,3.64,3.64,0,0,1,2.54-.81,4.61,4.61,0,0,1,1.28.17Zm-7.26,10.62a1.24,1.24,0,0,0,.63,1.13,3.46,3.46,0,0,0,1.78.38,5,5,0,0,0,2.57-.52,1.59,1.59,0,0,0,.83-1.41,1.11,1.11,0,0,0-.45-1,3.57,3.57,0,0,0-1.72-.29h-1.65a2.16,2.16,0,0,0-1.46.45A1.6,1.6,0,0,0,832.5,139.55Zm.75-7.71a1.86,1.86,0,0,0,.54,1.45,2.18,2.18,0,0,0,1.5.49,1.76,1.76,0,0,0,2-2,1.81,1.81,0,0,0-2-2,2,2,0,0,0-1.5.52A2.15,2.15,0,0,0,833.25,131.84Z" transform="translate(-1.37 -9.56)"/><path class="cls-4" d="M847.22,138l-.27-1.3h-.07a3.72,3.72,0,0,1-1.36,1.16,4.16,4.16,0,0,1-1.69.3,3.07,3.07,0,0,1-2.12-.69,2.56,2.56,0,0,1-.76-2q0-2.76,4.4-2.89l1.55-.05V132a2.33,2.33,0,0,0-.46-1.58,1.91,1.91,0,0,0-1.48-.51,6,6,0,0,0-2.57.7l-.42-1.06a6.8,6.8,0,0,1,1.47-.57,6.36,6.36,0,0,1,1.61-.21,3.47,3.47,0,0,1,2.41.72,3,3,0,0,1,.78,2.32V138Zm-3.11-1a2.79,2.79,0,0,0,2-.71,2.6,2.6,0,0,0,.73-2v-.83l-1.37.06a5,5,0,0,0-2.37.51,1.53,1.53,0,0,0-.73,1.41,1.43,1.43,0,0,0,.45,1.14A1.89,1.89,0,0,0,844.11,137.06Z" transform="translate(-1.37 -9.56)"/><path class="cls-4" d="M854,137.06a4.17,4.17,0,0,0,.71-.06,3.89,3.89,0,0,0,.54-.11v1.05a2,2,0,0,1-.67.18,4.59,4.59,0,0,1-.78.07c-1.76,0-2.64-.92-2.64-2.78V130h-1.3v-.66l1.3-.58.58-1.94h.8v2.11h2.64V130h-2.64v5.35a1.87,1.87,0,0,0,.39,1.27A1.37,1.37,0,0,0,854,137.06Z" transform="translate(-1.37 -9.56)"/><path class="cls-4" d="M860.93,138.19a4.19,4.19,0,0,1-3.19-1.23,4.76,4.76,0,0,1-1.16-3.41,5.28,5.28,0,0,1,1.08-3.49,3.61,3.61,0,0,1,2.91-1.3,3.45,3.45,0,0,1,2.71,1.13,4.33,4.33,0,0,1,1,3v.87H858a3.61,3.61,0,0,0,.81,2.43A2.84,2.84,0,0,0,861,137a7.3,7.3,0,0,0,2.9-.61v1.22a8.26,8.26,0,0,1-1.38.46A8,8,0,0,1,860.93,138.19Zm-.38-8.27a2.25,2.25,0,0,0-1.74.71,3.3,3.3,0,0,0-.77,2h4.75a3,3,0,0,0-.58-2A2,2,0,0,0,860.55,129.92Z" transform="translate(-1.37 -9.56)"/><polyline class="cls-5" points="126.84 20.17 114.91 20.17 114.91 62.17 1.84 62.17"/><circle class="cls-3" cx="774.8" cy="89.96" r="4"/><polyline class="cls-6" points="776.8 89.97 788.45 90 788.52 60 942.86 60.38"/></g></g></svg>