<svg xmlns="http://www.w3.org/2000/svg" width="788.4" height="331.445" viewBox="0 0 788.4 331.445">
  <g id="Group_4849" data-name="Group 4849" transform="translate(-332.177 -830.739)">
    <g id="patch_6" data-name="patch 6" transform="translate(-118 379.184)">
      <g id="Group_4718" data-name="Group 4718">
        <path id="Path_4473" data-name="Path 4473" d="M704.483,734.265h56.5V682.98h-56.5Z" fill="#ffd964"/>
      </g>
    </g>
    <g id="patch_3" data-name="patch 3" transform="translate(-118 379.184)">
      <g id="Group_4719" data-name="Group 4719">
        <path id="Path_4474" data-name="Path 4474" d="M641.933,734.265h56.5V498.126h-56.5Z" fill="#84b2f9"/>
      </g>
    </g>
    <g id="Group_4720" data-name="Group 4720" transform="translate(-118 379.184)">
      <path id="Path_4475" data-name="Path 4475" d="M579,734.265h56.5V534.01H579Z" fill="#4569a0"/>
    </g>
    <path id="Path_4476" data-name="Path 4476" d="M496.775,734.7H1100" transform="translate(-118 379.184)" fill="none" stroke="#333" stroke-linecap="square" stroke-width="0.5"/>
    <g id="patch_4" data-name="patch 4" transform="translate(-118 379.184)">
      <g id="Group_4721" data-name="Group 4721">
        <path id="Path_4477" data-name="Path 4477" d="M766.54,734.265h56.5V626.477h-56.5Z" fill="#239546"/>
      </g>
    </g>
    <rect id="Rectangle_781" data-name="Rectangle 781" width="678.823" height="330.445" transform="translate(332.677 831.239)" fill="none" stroke="#d8d8d8" stroke-miterlimit="10" stroke-width="1"/>
    <text id="_of_participants_who_passed" data-name="% of participants who passed" transform="translate(364.942 993.95) rotate(-90)" fill="#333" font-size="14" font-family="OpenSans-Italic, Open Sans" font-style="italic"><tspan x="-90.453" y="0">% of participants who passed</tspan></text>
    <rect id="Rectangle_782" data-name="Rectangle 782" width="86" height="234.445" transform="translate(1032.5 831.239)" fill="none" stroke="#ebebeb" stroke-miterlimit="10" stroke-width="1"/>
    <g id="patch_12" data-name="patch 12" transform="translate(-118 379.184)">
      <path id="Path_4478" data-name="Path 4478" d="M1163.609,528.122h22.677V511.114h-22.677Z" fill="#84b2f9"/>
    </g>
    <g id="patch_13" data-name="patch 13" transform="translate(-118 379.184)">
      <path id="Path_4479" data-name="Path 4479" d="M1163.609,503.274h22.677V486.266h-22.677Z" fill="#4569a0"/>
    </g>
    <text id="_2011" data-name="2011" transform="translate(1073.577 865.374)" fill="#333" font-size="12" font-family="OpenSans, Open Sans"><tspan x="0" y="13">2011</tspan></text>
    <g id="patch_13-2" data-name="patch 13" transform="translate(-118 379.184)">
      <path id="Path_4480" data-name="Path 4480" d="M1163.609,479.274h22.677V462.266h-22.677Z" fill="#4a5c74"/>
    </g>
    <text id="_2010" data-name="2010" transform="translate(1073.577 841.374)" fill="#333" font-size="12" font-family="OpenSans, Open Sans"><tspan x="0" y="13">2010</tspan></text>
    <text id="_2012" data-name="2012" transform="translate(1073.577 890.374)" fill="#333" font-size="12" font-family="OpenSans, Open Sans"><tspan x="0" y="13">2012</tspan></text>
    <g id="patch_12-2" data-name="patch 12" transform="translate(-118 379.184)">
      <path id="Path_4481" data-name="Path 4481" d="M1163.609,577.122h22.677V560.114h-22.677Z" fill="#239546"/>
    </g>
    <g id="patch_13-3" data-name="patch 13" transform="translate(-118 379.184)">
      <path id="Path_4482" data-name="Path 4482" d="M1163.609,552.274h22.677V535.266h-22.677Z" fill="#ffd964"/>
    </g>
    <text id="_2013" data-name="2013" transform="translate(1073.577 914.374)" fill="#333" font-size="12" font-family="OpenSans, Open Sans"><tspan x="0" y="13">2013</tspan></text>
    <text id="_2014" data-name="2014" transform="translate(1073.577 939.374)" fill="#333" font-size="12" font-family="OpenSans, Open Sans"><tspan x="0" y="13">2014</tspan></text>
    <g id="patch_12-3" data-name="patch 12" transform="translate(-118 379.184)">
      <path id="Path_4483" data-name="Path 4483" d="M1163.609,626.122h22.677V609.114h-22.677Z" fill="#745fd7"/>
    </g>
    <g id="patch_13-4" data-name="patch 13" transform="translate(-118 379.184)">
      <path id="Path_4484" data-name="Path 4484" d="M1163.609,601.274h22.677V584.266h-22.677Z" fill="#59a09f"/>
    </g>
    <text id="_2015" data-name="2015" transform="translate(1073.577 963.374)" fill="#333" font-size="12" font-family="OpenSans, Open Sans"><tspan x="0" y="13">2015</tspan></text>
    <text id="_2016" data-name="2016" transform="translate(1073.577 988.374)" fill="#333" font-size="12" font-family="OpenSans, Open Sans"><tspan x="0" y="13">2016</tspan></text>
    <g id="patch_12-4" data-name="patch 12" transform="translate(-118 379.184)">
      <path id="Path_4485" data-name="Path 4485" d="M1163.609,675.122h22.677V658.114h-22.677Z" fill="#e75755"/>
    </g>
    <g id="patch_13-5" data-name="patch 13" transform="translate(-118 379.184)">
      <path id="Path_4486" data-name="Path 4486" d="M1163.609,650.274h22.677V633.266h-22.677Z" fill="#b74d94"/>
    </g>
    <text id="_2017" data-name="2017" transform="translate(1073.577 1012.374)" fill="#333" font-size="12" font-family="OpenSans, Open Sans"><tspan x="0" y="13">2017</tspan></text>
    <text id="_2018" data-name="2018" transform="translate(1073.577 1037.374)" fill="#333" font-size="12" font-family="OpenSans, Open Sans"><tspan x="0" y="13">2018</tspan></text>
    <text id="Task_success_rate_for_the_year" data-name="Task success rate for the year" transform="translate(499.946 1123.914)" fill="#333" font-size="14" font-family="OpenSans-Semibold, Open Sans" font-weight="600"><tspan x="46.116" y="15">Task success rate for the year</tspan></text>
    <text id="_80_" data-name="80%" transform="translate(461.576 888.431)" fill="#333" font-size="16" font-family="OpenSans-Semibold, Open Sans" font-weight="600"><tspan x="11.736" y="17">80%</tspan></text>
    <g id="Group_4722" data-name="Group 4722" transform="translate(-118 379.184)">
      <path id="Path_4487" data-name="Path 4487" d="M517,734.265h56.5V559H517Z" fill="#4a5c74"/>
    </g>
    <text id="_73_" data-name="73%" transform="translate(399.576 916.431)" fill="#333" font-size="16" font-family="OpenSans-Semibold, Open Sans" font-weight="600"><tspan x="11.736" y="17">73%</tspan></text>
    <text id="_94_" data-name="94%" transform="translate(524.222 853.684)" fill="#333" font-size="16" font-family="OpenSans-Semibold, Open Sans" font-weight="600"><tspan x="11.736" y="17">94%</tspan></text>
    <text id="_20_" data-name="20%" transform="translate(586.971 1035.228)" fill="#333" font-size="16" font-family="OpenSans-Semibold, Open Sans" font-weight="600"><tspan x="11.736" y="17">20%</tspan></text>
    <text id="_41_" data-name="41%" transform="translate(649.971 980.228)" fill="#333" font-size="16" font-family="OpenSans-Semibold, Open Sans" font-weight="600"><tspan x="11.736" y="17">41%</tspan></text>
    <g id="patch_6-2" data-name="patch 6" transform="translate(-118 379.184)">
      <g id="Group_4723" data-name="Group 4723">
        <path id="Path_4488" data-name="Path 4488" d="M955.483,734.265h56.5V692h-56.5Z" fill="#b74d94"/>
      </g>
    </g>
    <g id="patch_3-2" data-name="patch 3" transform="translate(-118 379.184)">
      <g id="Group_4724" data-name="Group 4724">
        <path id="Path_4489" data-name="Path 4489" d="M892.933,734.265h56.5V546h-56.5Z" fill="#745fd7"/>
      </g>
    </g>
    <g id="Group_4725" data-name="Group 4725" transform="translate(-118 379.184)">
      <path id="Path_4490" data-name="Path 4490" d="M830,734.265h56.5V534.01H830Z" fill="#59a09f"/>
    </g>
    <g id="patch_4-2" data-name="patch 4" transform="translate(-118 379.184)">
      <g id="Group_4726" data-name="Group 4726">
        <path id="Path_4491" data-name="Path 4491" d="M1017.54,734.265h56.5V643h-56.5Z" fill="#e75755"/>
      </g>
    </g>
    <text id="_80_2" data-name="80%" transform="translate(712.576 888.431)" fill="#333" font-size="16" font-family="OpenSans-Semibold, Open Sans" font-weight="600"><tspan x="11.736" y="17">80%</tspan></text>
    <text id="_76_" data-name="76%" transform="translate(775.222 898.684)" fill="#333" font-size="16" font-family="OpenSans-Semibold, Open Sans" font-weight="600"><tspan x="11.736" y="17">76%</tspan></text>
    <text id="_15_" data-name="15%" transform="translate(837.971 1045.228)" fill="#333" font-size="16" font-family="OpenSans-Semibold, Open Sans" font-weight="600"><tspan x="11.736" y="17">15%</tspan></text>
    <text id="_37_" data-name="37%" transform="translate(899.971 994.228)" fill="#333" font-size="16" font-family="OpenSans-Semibold, Open Sans" font-weight="600"><tspan x="11.736" y="17">37%</tspan></text>
  </g>
</svg>
