<svg xmlns="http://www.w3.org/2000/svg" viewBox="0 0 196.74 196.74"><defs><style>.cls-1{fill:#c0c6ce;}.cls-2{fill:#119191;}.cls-3{fill:#fff;}.cls-4{fill:#333;}</style></defs><g id="Layer_2" data-name="Layer 2"><g id="Layer_2-2" data-name="Layer 2"><path class="cls-1" d="M98.37,98.37l98.13-6.86c.15,2.17.24,4.69.24,6.86Z"/><path class="cls-1" d="M98.37,98.37,169.13,30A95.33,95.33,0,0,1,196.5,91.51Z"/><path class="cls-2" d="M98.37,98.37h98.37A98.37,98.37,0,1,1,98.37,0c28.25,0,51.14,9.71,70.76,30Z"/><circle class="cls-3" cx="98.37" cy="98.37" r="67.07"/><path class="cls-2" d="M63.09,60.58A12.92,12.92,0,0,1,71,62.82a7.11,7.11,0,0,1,3,6,7.9,7.9,0,0,1-1.45,4.68,12.35,12.35,0,0,1-4.69,3.66,16.64,16.64,0,0,1,5.52,4.31,8,8,0,0,1,1.68,4.91,8.15,8.15,0,0,1-3.31,6.78,13.78,13.78,0,0,1-8.69,2.57q-5.62,0-8.84-2.39A8,8,0,0,1,51,86.59a9,9,0,0,1,1.56-5.2,13,13,0,0,1,5-4,12.8,12.8,0,0,1-4.22-4,8.68,8.68,0,0,1-1.29-4.62,7.1,7.1,0,0,1,3-5.95A12.92,12.92,0,0,1,63.09,60.58ZM57.74,86.17a3.8,3.8,0,0,0,1.41,3.14A6,6,0,0,0,63,90.44a6,6,0,0,0,4-1.16,3.85,3.85,0,0,0,1.34-3.06A4.18,4.18,0,0,0,67,83.28a17,17,0,0,0-4.3-2.92Q57.74,82.66,57.74,86.17ZM63,65.87a4.54,4.54,0,0,0-3,.95,3.15,3.15,0,0,0-1.13,2.55,3.93,3.93,0,0,0,.9,2.52,9.9,9.9,0,0,0,3.27,2.28A9.18,9.18,0,0,0,66.3,72a4,4,0,0,0,.91-2.6A3.11,3.11,0,0,0,66,66.81,4.68,4.68,0,0,0,63,65.87Z"/><path class="cls-2" d="M90.49,60.58a12.92,12.92,0,0,1,7.93,2.24,7.11,7.11,0,0,1,3,6A7.9,7.9,0,0,1,100,73.53a12.35,12.35,0,0,1-4.69,3.66,16.64,16.64,0,0,1,5.52,4.31,8,8,0,0,1,1.68,4.91,8.18,8.18,0,0,1-3.31,6.78,13.78,13.78,0,0,1-8.69,2.57q-5.62,0-8.84-2.39a8,8,0,0,1-3.21-6.78A9,9,0,0,1,80,81.39a12.91,12.91,0,0,1,5-4,12.8,12.8,0,0,1-4.22-4,8.68,8.68,0,0,1-1.29-4.62,7.1,7.1,0,0,1,3.05-5.95A12.92,12.92,0,0,1,90.49,60.58ZM85.14,86.17a3.8,3.8,0,0,0,1.41,3.14,7.33,7.33,0,0,0,7.87,0,3.88,3.88,0,0,0,1.34-3.06,4.15,4.15,0,0,0-1.33-2.94,16.67,16.67,0,0,0-4.3-2.92C86.81,81.89,85.14,83.83,85.14,86.17Zm5.3-20.3a4.52,4.52,0,0,0-3,.95,3.15,3.15,0,0,0-1.14,2.55,3.89,3.89,0,0,0,.91,2.52,9.9,9.9,0,0,0,3.27,2.28A9.18,9.18,0,0,0,93.7,72a4,4,0,0,0,.91-2.6,3.11,3.11,0,0,0-1.17-2.56A4.68,4.68,0,0,0,90.44,65.87Z"/><path class="cls-2" d="M121.92,71.24q0,5.39-2.09,8.1a7.27,7.27,0,0,1-6.12,2.71,7,7,0,0,1-6-2.78q-2.11-2.77-2.11-8,0-10.71,8.08-10.71a7.19,7.19,0,0,1,6.08,2.78Q121.92,66.08,121.92,71.24Zm-10.39.05a14,14,0,0,0,.53,4.44c.35,1,.92,1.46,1.7,1.46,1.5,0,2.25-2,2.25-5.9s-.75-5.86-2.25-5.86c-.78,0-1.35.48-1.7,1.44A13.76,13.76,0,0,0,111.53,71.29ZM138,61,119,95.29h-5.62l19-34.27Zm7.88,23.91q0,5.37-2.09,8.07a7.24,7.24,0,0,1-6.12,2.71,7,7,0,0,1-6-2.78q-2.12-2.78-2.11-8,0-10.71,8.08-10.71A7.17,7.17,0,0,1,143.79,77Q145.92,79.77,145.92,84.93Zm-10.39,0a14,14,0,0,0,.53,4.44c.35,1,.92,1.46,1.7,1.46q2.25,0,2.25-5.9t-2.25-5.86c-.78,0-1.35.48-1.7,1.44A13.76,13.76,0,0,0,135.53,85Z"/><path class="cls-4" d="M64.58,110a3.54,3.54,0,0,1-.79,2.45,2.79,2.79,0,0,1-2.19.88,2.91,2.91,0,0,1-1.53-.4,2.78,2.78,0,0,1-1-1.16,4.11,4.11,0,0,1-.36-1.77,3.51,3.51,0,0,1,.79-2.45,2.78,2.78,0,0,1,2.17-.88,2.73,2.73,0,0,1,2.15.9A3.54,3.54,0,0,1,64.58,110Zm-4.89,0a3,3,0,0,0,.49,1.87,1.94,1.94,0,0,0,2.9,0,3,3,0,0,0,.49-1.87,3,3,0,0,0-.49-1.86,2,2,0,0,0-2.91,0A3.05,3.05,0,0,0,59.69,110Z"/><path class="cls-4" d="M69.18,107.57H67.55v5.66h-1v-5.66H65.42v-.44l1.15-.35v-.36q0-2.37,2.07-2.37a4.21,4.21,0,0,1,1.2.21l-.26.78a3,3,0,0,0-1-.19.94.94,0,0,0-.81.37,2,2,0,0,0-.26,1.18v.41h1.63Z"/><path class="cls-4" d="M76.46,113.35a2.88,2.88,0,0,1-1.15-.23,2.28,2.28,0,0,1-.87-.71h-.07a8,8,0,0,1,.07,1.06v2.65h-1v-9.31h.79l.13.88h0a2.22,2.22,0,0,1,.87-.76,2.66,2.66,0,0,1,1.15-.24,2.38,2.38,0,0,1,2,.88,3.86,3.86,0,0,1,.69,2.45,3.8,3.8,0,0,1-.7,2.45A2.37,2.37,0,0,1,76.46,113.35Zm-.14-5.83a1.72,1.72,0,0,0-1.43.55,2.82,2.82,0,0,0-.45,1.73V110a3.21,3.21,0,0,0,.45,1.93,1.73,1.73,0,0,0,1.45.59,1.5,1.5,0,0,0,1.3-.68,3.16,3.16,0,0,0,.48-1.86,3,3,0,0,0-.48-1.84A1.53,1.53,0,0,0,76.32,107.52Z"/><path class="cls-4" d="M84.77,113.23l-.19-.91h0a2.81,2.81,0,0,1-1,.82,2.92,2.92,0,0,1-1.19.21,2.15,2.15,0,0,1-1.5-.49,1.81,1.81,0,0,1-.54-1.4c0-1.3,1-2,3.11-2l1.09,0V109a1.66,1.66,0,0,0-.32-1.12,1.35,1.35,0,0,0-1-.36,4.22,4.22,0,0,0-1.82.49l-.3-.74a4.51,4.51,0,0,1,1-.41,4.45,4.45,0,0,1,1.14-.14,2.45,2.45,0,0,1,1.7.51,2.11,2.11,0,0,1,.55,1.63v4.38Zm-2.2-.68a2,2,0,0,0,1.43-.5,1.83,1.83,0,0,0,.52-1.39v-.58l-1,0a3.41,3.41,0,0,0-1.68.36,1.08,1.08,0,0,0-.51,1,1,1,0,0,0,.32.8A1.28,1.28,0,0,0,82.57,112.55Z"/><path class="cls-4" d="M90.43,106.69a4.28,4.28,0,0,1,.76.07l-.13.91a3.27,3.27,0,0,0-.7-.09,1.73,1.73,0,0,0-1.34.63,2.31,2.31,0,0,0-.55,1.58v3.44h-1v-6.42h.8l.11,1.19h0a2.82,2.82,0,0,1,.86-1A2,2,0,0,1,90.43,106.69Z"/><path class="cls-4" d="M94.47,112.55a2.74,2.74,0,0,0,.5,0l.38-.08v.74a1.41,1.41,0,0,1-.47.13,3.86,3.86,0,0,1-.55,0c-1.24,0-1.86-.65-1.86-2v-3.82h-.92v-.47l.92-.41.41-1.37h.56v1.49H95.3v.76H93.44v3.78a1.33,1.33,0,0,0,.27.89A1,1,0,0,0,94.47,112.55Z"/><path class="cls-4" d="M96.55,105.07a.66.66,0,0,1,.16-.49.59.59,0,0,1,.41-.15.61.61,0,0,1,.41.15.79.79,0,0,1,0,1,.57.57,0,0,1-.41.16.56.56,0,0,1-.41-.16A.66.66,0,0,1,96.55,105.07Zm1,8.16h-1v-6.42h1Z"/><path class="cls-4" d="M102.23,113.35a2.75,2.75,0,0,1-2.16-.86,3.52,3.52,0,0,1-.76-2.43,3.64,3.64,0,0,1,.78-2.49,2.8,2.8,0,0,1,2.21-.88,4.8,4.8,0,0,1,.92.1,3.27,3.27,0,0,1,.73.24l-.3.82a5.81,5.81,0,0,0-.7-.21,3,3,0,0,0-.68-.08q-2,0-2,2.49a3,3,0,0,0,.47,1.82,1.67,1.67,0,0,0,1.42.63,4.39,4.39,0,0,0,1.65-.34V113A3.55,3.55,0,0,1,102.23,113.35Z"/><path class="cls-4" d="M105.3,105.07a.66.66,0,0,1,.16-.49.59.59,0,0,1,.41-.15.61.61,0,0,1,.41.15.79.79,0,0,1,0,1,.57.57,0,0,1-.41.16.56.56,0,0,1-.41-.16A.66.66,0,0,1,105.3,105.07Zm1,8.16h-1v-6.42h1Z"/><path class="cls-4" d="M111.4,113.35a2.8,2.8,0,0,1-1.14-.23,2.14,2.14,0,0,1-.87-.71h-.07a10.09,10.09,0,0,1,.07,1.06v2.65h-1v-9.31h.8l.13.88h0a2.22,2.22,0,0,1,.87-.76,2.58,2.58,0,0,1,1.14-.24,2.38,2.38,0,0,1,2,.88,4.61,4.61,0,0,1,0,4.9A2.36,2.36,0,0,1,111.4,113.35Zm-.14-5.83a1.7,1.7,0,0,0-1.42.55,2.76,2.76,0,0,0-.45,1.73V110a3.21,3.21,0,0,0,.45,1.93,1.71,1.71,0,0,0,1.45.59,1.51,1.51,0,0,0,1.3-.68,3.24,3.24,0,0,0,.47-1.86,3.1,3.1,0,0,0-.47-1.84A1.56,1.56,0,0,0,111.26,107.52Z"/><path class="cls-4" d="M119.72,113.23l-.2-.91h0a2.81,2.81,0,0,1-1,.82,3,3,0,0,1-1.19.21,2.14,2.14,0,0,1-1.5-.49,1.81,1.81,0,0,1-.54-1.4c0-1.3,1-2,3.11-2l1.09,0V109a1.61,1.61,0,0,0-.33-1.12,1.32,1.32,0,0,0-1-.36,4.18,4.18,0,0,0-1.81.49l-.3-.74a4.18,4.18,0,0,1,1-.41,4.37,4.37,0,0,1,1.13-.14,2.43,2.43,0,0,1,1.7.51,2.11,2.11,0,0,1,.56,1.63v4.38Zm-2.2-.68a2,2,0,0,0,1.43-.5,1.86,1.86,0,0,0,.52-1.39v-.58l-1,0a3.36,3.36,0,0,0-1.67.36,1.08,1.08,0,0,0-.51,1,1,1,0,0,0,.32.8A1.28,1.28,0,0,0,117.52,112.55Z"/><path class="cls-4" d="M126.84,113.23v-4.15a1.66,1.66,0,0,0-.36-1.17,1.45,1.45,0,0,0-1.12-.39,1.85,1.85,0,0,0-1.48.55,2.74,2.74,0,0,0-.47,1.79v3.37h-1v-6.42h.79l.16.88h0a2,2,0,0,1,.84-.74,2.78,2.78,0,0,1,1.2-.26,2.44,2.44,0,0,1,1.74.56,2.4,2.4,0,0,1,.59,1.79v4.19Z"/><path class="cls-4" d="M131.88,112.55a2.74,2.74,0,0,0,.5,0,3.43,3.43,0,0,0,.38-.08v.74a1.41,1.41,0,0,1-.47.13,3.86,3.86,0,0,1-.55,0c-1.24,0-1.86-.65-1.86-2v-3.82H129v-.47l.92-.41.41-1.37h.56v1.49h1.86v.76h-1.86v3.78a1.28,1.28,0,0,0,.28.89A1,1,0,0,0,131.88,112.55Z"/><path class="cls-4" d="M138.19,111.48a1.61,1.61,0,0,1-.67,1.38,3.11,3.11,0,0,1-1.88.49,4.08,4.08,0,0,1-2-.4V112a4.69,4.69,0,0,0,1,.37,4.24,4.24,0,0,0,1,.14,2.26,2.26,0,0,0,1.17-.25.83.83,0,0,0,.08-1.38,4.84,4.84,0,0,0-1.27-.63,7.27,7.27,0,0,1-1.27-.58,1.78,1.78,0,0,1-.56-.57,1.39,1.39,0,0,1-.19-.75,1.45,1.45,0,0,1,.64-1.24,3,3,0,0,1,1.75-.46,5,5,0,0,1,2,.43l-.34.79a4.61,4.61,0,0,0-1.76-.4,1.94,1.94,0,0,0-1,.22.67.67,0,0,0-.35.59.7.7,0,0,0,.13.44,1.33,1.33,0,0,0,.43.35,8.3,8.3,0,0,0,1.12.47,4.18,4.18,0,0,1,1.54.84A1.48,1.48,0,0,1,138.19,111.48Z"/><path class="cls-4" d="M74.87,122.57H73.24v5.66h-1v-5.66H71.12v-.44l1.15-.35v-.36c0-1.58.69-2.37,2.06-2.37a4.21,4.21,0,0,1,1.2.21l-.25.78a3,3,0,0,0-1-.19,1,1,0,0,0-.82.37,2.1,2.1,0,0,0-.26,1.18v.41h1.63Z"/><path class="cls-4" d="M81.59,125a3.59,3.59,0,0,1-.79,2.45,2.79,2.79,0,0,1-2.19.88,2.91,2.91,0,0,1-1.53-.4,2.71,2.71,0,0,1-1-1.16,4.11,4.11,0,0,1-.36-1.77,3.55,3.55,0,0,1,.78-2.45,2.8,2.8,0,0,1,2.18-.88,2.71,2.71,0,0,1,2.14.9A3.54,3.54,0,0,1,81.59,125Zm-4.89,0a3,3,0,0,0,.49,1.87,1.94,1.94,0,0,0,2.9,0,3,3,0,0,0,.49-1.87,3,3,0,0,0-.49-1.86,2,2,0,0,0-2.91,0A3.05,3.05,0,0,0,76.7,125Z"/><path class="cls-4" d="M84.21,121.81V126a1.72,1.72,0,0,0,.35,1.17,1.47,1.47,0,0,0,1.12.39,1.85,1.85,0,0,0,1.48-.55,2.8,2.8,0,0,0,.46-1.8v-3.38h1v6.42h-.81l-.14-.86H87.6a2,2,0,0,1-.83.73,2.76,2.76,0,0,1-1.21.25,2.44,2.44,0,0,1-1.75-.56,2.36,2.36,0,0,1-.59-1.78v-4.2Z"/><path class="cls-4" d="M95.05,128.23v-4.15a1.7,1.7,0,0,0-.35-1.17,1.47,1.47,0,0,0-1.12-.39,1.82,1.82,0,0,0-1.48.55,2.74,2.74,0,0,0-.47,1.79v3.37h-1v-6.42h.79l.16.88h0a2,2,0,0,1,.84-.74,2.78,2.78,0,0,1,1.2-.26,2.45,2.45,0,0,1,1.75.56A2.4,2.4,0,0,1,96,124v4.19Z"/><path class="cls-4" d="M102.39,127.37h0a2.29,2.29,0,0,1-2,1,2.39,2.39,0,0,1-2-.86,3.78,3.78,0,0,1-.7-2.45,3.86,3.86,0,0,1,.7-2.47,2.39,2.39,0,0,1,2-.88,2.33,2.33,0,0,1,2,1h.08l0-.46,0-.45v-2.61h1v9.11h-.79Zm-1.94.17a1.74,1.74,0,0,0,1.44-.55,2.71,2.71,0,0,0,.45-1.74V125a3.25,3.25,0,0,0-.45-2,1.72,1.72,0,0,0-1.45-.58,1.49,1.49,0,0,0-1.31.66,3.35,3.35,0,0,0-.46,1.88,3.11,3.11,0,0,0,.46,1.86A1.52,1.52,0,0,0,100.45,127.54Z"/><path class="cls-4" d="M110.57,127.55a2.74,2.74,0,0,0,.5,0l.38-.08v.74a1.41,1.41,0,0,1-.47.13,3.86,3.86,0,0,1-.55,0c-1.24,0-1.87-.65-1.87-2v-3.82h-.92v-.47l.92-.41.41-1.37h.57v1.49h1.86v.76h-1.86v3.78a1.33,1.33,0,0,0,.27.89A1,1,0,0,0,110.57,127.55Z"/><path class="cls-4" d="M117.13,128.23v-4.15a1.66,1.66,0,0,0-.36-1.17,1.45,1.45,0,0,0-1.12-.39,1.82,1.82,0,0,0-1.48.55,2.81,2.81,0,0,0-.47,1.81v3.35h-1v-9.11h1v2.76a6.3,6.3,0,0,1,0,.82h.06a2,2,0,0,1,.81-.73,2.65,2.65,0,0,1,1.21-.26,2.44,2.44,0,0,1,1.77.56,2.35,2.35,0,0,1,.59,1.77v4.19Z"/><path class="cls-4" d="M122.81,128.35a3,3,0,0,1-2.25-.87,3.33,3.33,0,0,1-.82-2.4,3.72,3.72,0,0,1,.76-2.47,2.55,2.55,0,0,1,2.06-.92,2.43,2.43,0,0,1,1.91.8,3,3,0,0,1,.7,2.09v.62h-4.42a2.54,2.54,0,0,0,.57,1.71,1.94,1.94,0,0,0,1.52.59,5.1,5.1,0,0,0,2-.43v.86a4.58,4.58,0,0,1-1,.32A5.13,5.13,0,0,1,122.81,128.35Zm-.26-5.84a1.62,1.62,0,0,0-1.24.5,2.35,2.35,0,0,0-.54,1.4h3.36a2.14,2.14,0,0,0-.41-1.41A1.45,1.45,0,0,0,122.55,122.51Z"/><path class="cls-4" d="M75.86,142.55a2.67,2.67,0,0,0,.5,0,3.43,3.43,0,0,0,.38-.08v.74a1.34,1.34,0,0,1-.46.13,4,4,0,0,1-.56,0c-1.24,0-1.86-.65-1.86-2v-3.82h-.92v-.47l.92-.41.41-1.37h.56v1.49H76.7v.76H74.83v3.78a1.28,1.28,0,0,0,.28.89A1,1,0,0,0,75.86,142.55Z"/><path class="cls-4" d="M82,143.23l-.19-.91h0a2.88,2.88,0,0,1-1,.82,3,3,0,0,1-1.2.21,2.13,2.13,0,0,1-1.49-.49,1.81,1.81,0,0,1-.54-1.4c0-1.3,1-2,3.11-2l1.09,0V139a1.61,1.61,0,0,0-.33-1.12,1.34,1.34,0,0,0-1-.36,4.25,4.25,0,0,0-1.82.49l-.29-.74a4.18,4.18,0,0,1,1-.41,4.32,4.32,0,0,1,1.13-.14,2.43,2.43,0,0,1,1.7.51,2.11,2.11,0,0,1,.56,1.63v4.38Zm-2.19-.68a2,2,0,0,0,1.42-.5,1.83,1.83,0,0,0,.52-1.39v-.58l-1,0a3.36,3.36,0,0,0-1.67.36,1.09,1.09,0,0,0-.52,1,1,1,0,0,0,.32.8A1.31,1.31,0,0,0,79.78,142.55Z"/><path class="cls-4" d="M88.84,141.48a1.59,1.59,0,0,1-.67,1.38,3.08,3.08,0,0,1-1.87.49,4.05,4.05,0,0,1-2-.4V142a4.69,4.69,0,0,0,1,.37,4.1,4.1,0,0,0,1,.14,2.21,2.21,0,0,0,1.17-.25.78.78,0,0,0,.41-.74.79.79,0,0,0-.32-.64,5,5,0,0,0-1.27-.63,6.93,6.93,0,0,1-1.27-.58,1.82,1.82,0,0,1-.57-.57,1.49,1.49,0,0,1-.18-.75,1.42,1.42,0,0,1,.64-1.24,3,3,0,0,1,1.75-.46,5,5,0,0,1,2,.43l-.35.79a4.56,4.56,0,0,0-1.75-.4,1.94,1.94,0,0,0-1,.22.65.65,0,0,0-.35.59.7.7,0,0,0,.13.44,1.28,1.28,0,0,0,.42.35,8.61,8.61,0,0,0,1.13.47,4.27,4.27,0,0,1,1.54.84A1.47,1.47,0,0,1,88.84,141.48Z"/><path class="cls-4" d="M91.39,140a10.46,10.46,0,0,1,.76-.94l2.08-2.2h1.15l-2.6,2.74,2.78,3.68H94.39l-2.27-3-.73.63v2.4h-1v-9.11h1V139c0,.21,0,.55,0,1Z"/><path class="cls-4" d="M102.55,143.35a2.92,2.92,0,0,1-2.24-.87,3.33,3.33,0,0,1-.83-2.4,3.73,3.73,0,0,1,.77-2.47,2.53,2.53,0,0,1,2-.92,2.42,2.42,0,0,1,1.91.8,3,3,0,0,1,.7,2.09v.62h-4.42a2.54,2.54,0,0,0,.57,1.71,2,2,0,0,0,1.53.59,5.17,5.17,0,0,0,2-.43v.86a4.65,4.65,0,0,1-1,.32A5,5,0,0,1,102.55,143.35Zm-.26-5.84a1.58,1.58,0,0,0-1.23.5,2.35,2.35,0,0,0-.55,1.4h3.36a2.14,2.14,0,0,0-.41-1.41A1.42,1.42,0,0,0,102.29,137.51Z"/><path class="cls-4" d="M110.52,143.23l-.19-.91h0a2.81,2.81,0,0,1-1,.82,2.92,2.92,0,0,1-1.19.21,2.15,2.15,0,0,1-1.5-.49,1.81,1.81,0,0,1-.54-1.4c0-1.3,1-2,3.11-2l1.09,0V139a1.66,1.66,0,0,0-.32-1.12,1.35,1.35,0,0,0-1-.36,4.22,4.22,0,0,0-1.82.49l-.3-.74a4.51,4.51,0,0,1,1-.41,4.45,4.45,0,0,1,1.14-.14,2.45,2.45,0,0,1,1.7.51,2.11,2.11,0,0,1,.55,1.63v4.38Zm-2.2-.68a2,2,0,0,0,1.43-.5,1.83,1.83,0,0,0,.52-1.39v-.58l-1,0a3.41,3.41,0,0,0-1.68.36,1.08,1.08,0,0,0-.51,1,1,1,0,0,0,.32.8A1.28,1.28,0,0,0,108.32,142.55Z"/><path class="cls-4" d="M117.39,141.48a1.59,1.59,0,0,1-.67,1.38,3.08,3.08,0,0,1-1.87.49,4.1,4.1,0,0,1-2-.4V142a4.58,4.58,0,0,0,1,.37,4.1,4.1,0,0,0,1,.14,2.21,2.21,0,0,0,1.17-.25.8.8,0,0,0,.41-.74.82.82,0,0,0-.32-.64,5,5,0,0,0-1.27-.63,7.46,7.46,0,0,1-1.28-.58,1.78,1.78,0,0,1-.56-.57,1.49,1.49,0,0,1-.18-.75,1.44,1.44,0,0,1,.63-1.24,3,3,0,0,1,1.76-.46,5,5,0,0,1,2,.43l-.34.79a4.6,4.6,0,0,0-1.75-.4,2,2,0,0,0-1,.22.67.67,0,0,0-.35.59.76.76,0,0,0,.13.44,1.33,1.33,0,0,0,.43.35,8.3,8.3,0,0,0,1.12.47,4.24,4.24,0,0,1,1.55.84A1.47,1.47,0,0,1,117.39,141.48Z"/><path class="cls-4" d="M118,136.81h1l1.41,3.66a13.12,13.12,0,0,1,.57,1.81h0c0-.2.16-.54.32-1s.69-2,1.59-4.45h1l-2.75,7.31a3.71,3.71,0,0,1-1,1.54,2.08,2.08,0,0,1-1.35.46,4.4,4.4,0,0,1-.88-.1v-.78a4,4,0,0,0,.72.07,1.48,1.48,0,0,0,1.43-1.13l.36-.91Z"/></g></g></svg>