<?xml version="1.0" encoding="utf-8"?>
<!-- Generator: Adobe Illustrator 24.2.0, SVG Export Plug-In . SVG Version: 6.00 Build 0)  -->
<svg version="1.1" id="Layer_1" xmlns="http://www.w3.org/2000/svg" xmlns:xlink="http://www.w3.org/1999/xlink" x="0px" y="0px"
	 viewBox="0 0 282.4 238.9" style="enable-background:new 0 0 282.4 238.9;" xml:space="preserve">
<style type="text/css">
	.st0{enable-background:new    ;}
	.st1{fill:#293F5C;}
	.st2{fill:#C8E5D1;}
	.st3{fill:#239546;}
	.st4{fill:#FFFFFF;}
</style>
<g id="Group_4761" transform="translate(-911.772 -2343.589)">
	<g id="Group_4396" transform="translate(-174 380.184)">
		<g class="st0">
			<path class="st1" d="M1331.9,2172.1H1321l0.4-2.1l5.5-4.9c1.4-1.2,2.3-2.1,2.8-2.7s0.8-1.1,1.1-1.6s0.3-1,0.3-1.5
				c0-0.7-0.2-1.2-0.6-1.6s-0.9-0.6-1.6-0.6c-0.5,0-1.1,0.1-1.6,0.4s-1.2,0.7-2,1.3l-1.3-1.9c0.9-0.8,1.8-1.3,2.7-1.6
				s1.8-0.5,2.7-0.5c1.4,0,2.5,0.4,3.4,1.1s1.3,1.7,1.3,2.9c0,0.8-0.2,1.6-0.5,2.4s-0.8,1.5-1.4,2.2s-1.8,1.8-3.3,3.1l-3.6,3.1v0.1
				h7.3L1331.9,2172.1z"/>
			<path class="st1" d="M1341.6,2161.4c1.4,0,2.5,0.4,3.4,1.2s1.3,1.9,1.3,3.3c0,1.3-0.3,2.4-0.8,3.3s-1.3,1.7-2.4,2.2
				s-2.3,0.8-3.8,0.8c-1.7,0-3.1-0.3-4.2-0.9v-2.5c1.3,0.8,2.6,1.2,4,1.2c1.4,0,2.4-0.3,3.2-1s1.1-1.5,1.1-2.7c0-0.8-0.2-1.5-0.7-2
				s-1.2-0.7-2.2-0.7c-0.7,0-1.6,0.1-2.6,0.4l-1-0.8l2.3-8.3h8.4l-0.5,2.4h-5.9l-1.2,4.3C1340.5,2161.5,1341.1,2161.4,1341.6,2161.4
				z"/>
			<path class="st1" d="M1357.1,2158.2c0,1.2-0.2,2.5-0.7,3.7s-1,2.1-1.7,2.7s-1.5,0.9-2.4,0.9c-1,0-1.7-0.3-2.2-0.9
				s-0.8-1.5-0.8-2.7c0-1.3,0.2-2.5,0.6-3.7s1-2,1.7-2.6s1.5-0.9,2.4-0.9c1,0,1.7,0.3,2.3,0.9S1357.1,2157,1357.1,2158.2z
				 M1365.4,2154.9l-12.7,17.1h-2.3l12.7-17.1H1365.4z M1353.9,2156.7c-0.4,0-0.8,0.2-1.2,0.7s-0.6,1.2-0.8,2s-0.3,1.7-0.3,2.5
				c0,1.1,0.3,1.6,0.9,1.6c0.4,0,0.8-0.2,1.1-0.7s0.6-1.1,0.9-2.1s0.3-1.8,0.3-2.6C1354.8,2157.2,1354.5,2156.7,1353.9,2156.7z
				 M1366.5,2165c0,1.3-0.2,2.5-0.7,3.7s-1,2.1-1.7,2.7s-1.5,0.9-2.4,0.9c-1,0-1.7-0.3-2.3-0.9s-0.8-1.5-0.8-2.6
				c0-1.3,0.2-2.6,0.6-3.8s1-2,1.7-2.6s1.5-0.9,2.4-0.9c1,0,1.8,0.3,2.3,0.9S1366.5,2163.9,1366.5,2165z M1363.2,2163.5
				c-0.4,0-0.8,0.2-1.1,0.7s-0.6,1.1-0.8,2s-0.3,1.8-0.3,2.6c0,1,0.3,1.6,0.9,1.6c0.4,0,0.8-0.2,1.1-0.7s0.6-1.1,0.9-2
				s0.3-1.8,0.3-2.6C1364.2,2164,1363.9,2163.5,1363.2,2163.5z"/>
		</g>
		<path id="Path_4117" class="st2" d="M1365.5,2182.4h-240.5c-0.6-0.1-1.1-0.6-1-1.2c0-0.5,0.5-1,1-1h240.5c0.6,0.1,1.1,0.6,1,1.2
			C1366.5,2181.9,1366.1,2182.4,1365.5,2182.4z"/>
		<path id="Path_4118" class="st3" d="M1126.1,2184.3h36.9c1.1,0,2.1-1.3,2.1-3s-0.9-3-2.1-3h-36.9c-1.1,0-2.1,1.3-2.1,3
			S1125,2184.3,1126.1,2184.3z"/>
		<g id="Group_4395">
			<path id="Path_4119" class="st3" d="M1127.4,2181.6c0,11.4-9.3,20.7-20.7,20.7s-20.7-9.3-20.7-20.7s9.3-20.7,20.7-20.7
				C1118.1,2160.9,1127.4,2170.2,1127.4,2181.6L1127.4,2181.6z"/>
			<path id="Path_4120" class="st4" d="M1123.7,2181.6c0,9.4-7.6,17-17,17s-17-7.6-17-17c0-9.4,7.6-17,17-17
				C1116.1,2164.6,1123.7,2172.2,1123.7,2181.6z"/>
			<path id="Mask-2" class="st3" d="M1104.5,2186.9c0,0,0-9.2,0-10.2l3.4,0v1.4c0.6-1.1,1.8-1.7,3-1.7c2.2,0,3.9,1.4,3.9,4.6l0,5.8
				l-3.4,0l0-5.4c0-1.4-0.5-2.3-1.7-2.3c-0.8,0-1.5,0.5-1.7,1.2c-0.1,0.3-0.1,0.5-0.1,0.8l0,5.7L1104.5,2186.9z M1099.3,2186.9
				l0-10.2l3.4,0l0,10.2L1099.3,2186.9z M1100.9,2175.3c-1.1,0-1.9-0.9-1.9-1.9s0.9-1.9,1.9-1.9s1.9,0.9,1.9,1.9
				C1102.8,2174.5,1102,2175.3,1100.9,2175.3L1100.9,2175.3z"/>
		</g>
	</g>
	<g class="st0">
		<path class="st1" d="M1148.5,2425.7c0-1.6,0.2-3.2,0.7-4.8s1.1-2.9,1.9-4s1.8-1.9,2.9-2.5s2.5-0.9,4-0.9c0.9,0,1.7,0.1,2.4,0.3
			l-0.5,2.3c-0.6-0.2-1.3-0.3-2.1-0.3c-1.6,0-2.9,0.5-3.9,1.5s-1.8,2.5-2.3,4.6h0.1c1-1.3,2.2-2,3.8-2c1.2,0,2.2,0.4,2.9,1.2
			s1,1.8,1,3.2c0,1.3-0.3,2.4-0.8,3.5s-1.3,1.9-2.2,2.5s-2,0.8-3.2,0.8c-1.5,0-2.7-0.5-3.5-1.4S1148.5,2427.5,1148.5,2425.7z
			 M1153.4,2428.9c0.6,0,1.2-0.2,1.7-0.6s0.9-0.9,1.1-1.6s0.4-1.4,0.4-2.2c0-1.6-0.7-2.3-2.1-2.3c-0.4,0-0.8,0.1-1.1,0.2
			s-0.7,0.3-0.9,0.6s-0.5,0.5-0.7,0.8s-0.3,0.6-0.5,1s-0.2,0.8-0.2,1.3c0,0.9,0.2,1.6,0.6,2.1S1152.7,2428.9,1153.4,2428.9z"/>
		<path class="st1" d="M1173.2,2417.4c0,1.2-0.4,2.3-1.2,3.1s-1.8,1.4-3.2,1.6v0.1c1,0.2,1.8,0.6,2.3,1.2s0.8,1.4,0.8,2.4
			c0,1-0.3,2-0.8,2.8s-1.3,1.4-2.3,1.9s-2.2,0.7-3.6,0.7c-1.8,0-3.3-0.3-4.5-0.9v-2.5c0.7,0.4,1.4,0.7,2.2,0.9s1.6,0.3,2.3,0.3
			c1.2,0,2.2-0.3,2.9-0.8s1-1.3,1-2.3c0-1.7-1.1-2.6-3.3-2.6h-1.6l0.4-2.1h1.2c1.3,0,2.3-0.3,3.1-0.9s1.2-1.4,1.2-2.3
			c0-0.6-0.2-1.1-0.6-1.5s-0.9-0.5-1.6-0.5c-0.6,0-1.1,0.1-1.7,0.3s-1.2,0.5-1.9,1l-1.2-1.9c0.9-0.6,1.8-1.1,2.6-1.3
			s1.7-0.4,2.7-0.4c1.4,0,2.5,0.3,3.4,1S1173.2,2416.2,1173.2,2417.4z"/>
		<path class="st1" d="M1183.1,2417c0,1.2-0.2,2.5-0.7,3.7s-1,2.1-1.7,2.7s-1.5,0.9-2.4,0.9c-1,0-1.7-0.3-2.2-0.9s-0.8-1.5-0.8-2.7
			c0-1.3,0.2-2.5,0.6-3.7s1-2,1.7-2.6s1.5-0.9,2.4-0.9c1,0,1.7,0.3,2.3,0.9S1183.1,2415.9,1183.1,2417z M1191.4,2413.8l-12.7,17.1
			h-2.3l12.7-17.1H1191.4z M1179.9,2415.5c-0.4,0-0.8,0.2-1.2,0.7s-0.6,1.2-0.8,2s-0.3,1.7-0.3,2.5c0,1.1,0.3,1.6,0.9,1.6
			c0.4,0,0.8-0.2,1.1-0.7s0.6-1.1,0.9-2.1s0.3-1.8,0.3-2.6C1180.8,2416,1180.5,2415.5,1179.9,2415.5z M1192.5,2423.9
			c0,1.3-0.2,2.5-0.7,3.7s-1,2.1-1.7,2.7s-1.5,0.9-2.4,0.9c-1,0-1.7-0.3-2.3-0.9s-0.8-1.5-0.8-2.6c0-1.3,0.2-2.6,0.6-3.8
			s1-2,1.7-2.6s1.5-0.9,2.4-0.9c1,0,1.8,0.3,2.3,0.9S1192.5,2422.7,1192.5,2423.9z M1189.2,2422.4c-0.4,0-0.8,0.2-1.1,0.7
			s-0.6,1.1-0.8,2s-0.3,1.8-0.3,2.6c0,1,0.3,1.6,0.9,1.6c0.4,0,0.8-0.2,1.1-0.7s0.6-1.1,0.9-2s0.3-1.8,0.3-2.6
			C1190.2,2422.9,1189.9,2422.4,1189.2,2422.4z"/>
	</g>
	<path id="Path_4121" class="st2" d="M951.1,2439.3h240.5c0.6-0.1,1.1-0.6,1-1.2c0-0.5-0.5-1-1-1H951.1c-0.6,0.1-1.1,0.6-1,1.2
		C950.1,2438.9,950.5,2439.3,951.1,2439.3z"/>
	<path id="Path_4122" class="st3" d="M951.1,2441.2h117c1.1,0,2.1-1.3,2.1-3s-0.9-3-2.1-3h-117c-1.1,0-2.1,1.3-2.1,3
		S949.9,2441.2,951.1,2441.2z"/>
	<g class="st0">
		<path class="st1" d="M1154.4,2482.7c1.4,0,2.5,0.4,3.4,1.2s1.3,1.9,1.3,3.3c0,1.3-0.3,2.4-0.8,3.3s-1.3,1.7-2.4,2.2
			s-2.3,0.8-3.8,0.8c-1.7,0-3.1-0.3-4.2-0.9v-2.5c1.3,0.8,2.6,1.2,4,1.2c1.4,0,2.4-0.3,3.2-1s1.1-1.5,1.1-2.7c0-0.8-0.2-1.5-0.7-2
			s-1.2-0.7-2.2-0.7c-0.7,0-1.6,0.1-2.6,0.4l-1-0.8l2.3-8.3h8.4l-0.5,2.4h-5.9l-1.2,4.3C1153.3,2482.8,1153.9,2482.7,1154.4,2482.7z
			"/>
		<path class="st1" d="M1161.7,2488.1c0-1.6,0.2-3.2,0.7-4.8s1.1-2.9,1.9-4s1.8-1.9,2.9-2.5s2.5-0.9,4-0.9c0.9,0,1.7,0.1,2.4,0.3
			l-0.5,2.3c-0.6-0.2-1.3-0.3-2.1-0.3c-1.6,0-2.9,0.5-3.9,1.5s-1.8,2.5-2.3,4.6h0.1c1-1.3,2.2-2,3.8-2c1.2,0,2.2,0.4,2.9,1.2
			s1,1.8,1,3.2c0,1.3-0.3,2.4-0.8,3.5s-1.3,1.9-2.2,2.5s-2,0.8-3.2,0.8c-1.5,0-2.7-0.5-3.5-1.4S1161.7,2489.9,1161.7,2488.1z
			 M1166.6,2491.3c0.6,0,1.2-0.2,1.7-0.6s0.9-0.9,1.1-1.6s0.4-1.4,0.4-2.2c0-1.6-0.7-2.3-2.1-2.3c-0.4,0-0.8,0.1-1.1,0.2
			s-0.7,0.3-0.9,0.6s-0.5,0.5-0.7,0.8s-0.3,0.6-0.5,1s-0.2,0.8-0.2,1.3c0,0.9,0.2,1.6,0.6,2.1S1165.9,2491.3,1166.6,2491.3z"/>
		<path class="st1" d="M1183.1,2479.4c0,1.2-0.2,2.5-0.7,3.7s-1,2.1-1.7,2.7s-1.5,0.9-2.4,0.9c-1,0-1.7-0.3-2.2-0.9
			s-0.8-1.5-0.8-2.7c0-1.3,0.2-2.5,0.6-3.7s1-2,1.7-2.6s1.5-0.9,2.4-0.9c1,0,1.7,0.3,2.3,0.9S1183.1,2478.3,1183.1,2479.4z
			 M1191.4,2476.2l-12.7,17.1h-2.3l12.7-17.1H1191.4z M1179.9,2477.9c-0.4,0-0.8,0.2-1.2,0.7s-0.6,1.2-0.8,2s-0.3,1.7-0.3,2.5
			c0,1.1,0.3,1.6,0.9,1.6c0.4,0,0.8-0.2,1.1-0.7s0.6-1.1,0.9-2.1s0.3-1.8,0.3-2.6C1180.8,2478.4,1180.5,2477.9,1179.9,2477.9z
			 M1192.5,2486.3c0,1.3-0.2,2.5-0.7,3.7s-1,2.1-1.7,2.7s-1.5,0.9-2.4,0.9c-1,0-1.7-0.3-2.3-0.9s-0.8-1.5-0.8-2.6
			c0-1.3,0.2-2.6,0.6-3.8s1-2,1.7-2.6s1.5-0.9,2.4-0.9c1,0,1.8,0.3,2.3,0.9S1192.5,2485.1,1192.5,2486.3z M1189.2,2484.8
			c-0.4,0-0.8,0.2-1.1,0.7s-0.6,1.1-0.8,2s-0.3,1.8-0.3,2.6c0,1,0.3,1.6,0.9,1.6c0.4,0,0.8-0.2,1.1-0.7s0.6-1.1,0.9-2
			s0.3-1.8,0.3-2.6C1190.2,2485.3,1189.9,2484.8,1189.2,2484.8z"/>
	</g>
	<path id="Path_4123" class="st2" d="M951.1,2499.7h240.5c0.6-0.1,1.1-0.6,1-1.2c0-0.5-0.5-1-1-1H951.1c-0.6,0.1-1.1,0.6-1,1.2
		C950.1,2499.2,950.5,2499.7,951.1,2499.7z"/>
	<path id="Path_4124" class="st3" d="M951.1,2501.6h106.8c1.1,0,2.1-1.3,2.1-3s-0.9-3-2.1-3H951.1c-1.1,0-2.1,1.3-2.1,3
		S949.9,2501.6,951.1,2501.6z"/>
	<g id="Group_4398" transform="translate(-174 380.184)">
		<g class="st0">
			<path class="st1" d="M1322.7,1989.4l8.8-14.7h-7.9l0.5-2.4h10.9l-0.4,2l-8.9,15.2H1322.7z"/>
			<path class="st1" d="M1335.7,1984.2c0-1.6,0.2-3.2,0.7-4.8s1.1-2.9,1.9-4s1.8-1.9,2.9-2.5s2.5-0.9,4-0.9c0.9,0,1.7,0.1,2.4,0.3
				l-0.5,2.3c-0.6-0.2-1.3-0.3-2.1-0.3c-1.6,0-2.9,0.5-3.9,1.5s-1.8,2.5-2.3,4.6h0.1c1-1.3,2.2-2,3.8-2c1.2,0,2.2,0.4,2.9,1.2
				s1,1.8,1,3.2c0,1.3-0.3,2.4-0.8,3.5s-1.3,1.9-2.2,2.5s-2,0.8-3.2,0.8c-1.5,0-2.7-0.5-3.5-1.4S1335.7,1985.9,1335.7,1984.2z
				 M1340.6,1987.4c0.6,0,1.2-0.2,1.7-0.6s0.9-0.9,1.1-1.6s0.4-1.4,0.4-2.2c0-1.6-0.7-2.3-2.1-2.3c-0.4,0-0.8,0.1-1.1,0.2
				s-0.7,0.3-0.9,0.6s-0.5,0.5-0.7,0.8s-0.3,0.6-0.5,1s-0.2,0.8-0.2,1.3c0,0.9,0.2,1.6,0.6,2.1S1339.9,1987.4,1340.6,1987.4z"/>
			<path class="st1" d="M1357.1,1975.5c0,1.2-0.2,2.5-0.7,3.7s-1,2.1-1.7,2.7s-1.5,0.9-2.4,0.9c-1,0-1.7-0.3-2.2-0.9
				s-0.8-1.5-0.8-2.7c0-1.3,0.2-2.5,0.6-3.7s1-2,1.7-2.6s1.5-0.9,2.4-0.9c1,0,1.7,0.3,2.3,0.9S1357.1,1974.4,1357.1,1975.5z
				 M1365.4,1972.3l-12.7,17.1h-2.3l12.7-17.1H1365.4z M1353.9,1974c-0.4,0-0.8,0.2-1.2,0.7s-0.6,1.2-0.8,2s-0.3,1.7-0.3,2.5
				c0,1.1,0.3,1.6,0.9,1.6c0.4,0,0.8-0.2,1.1-0.7s0.6-1.1,0.9-2.1s0.3-1.8,0.3-2.6C1354.8,1974.5,1354.5,1974,1353.9,1974z
				 M1366.5,1982.3c0,1.3-0.2,2.5-0.7,3.7s-1,2.1-1.7,2.7s-1.5,0.9-2.4,0.9c-1,0-1.7-0.3-2.3-0.9s-0.8-1.5-0.8-2.6
				c0-1.3,0.2-2.6,0.6-3.8s1-2,1.7-2.6s1.5-0.9,2.4-0.9c1,0,1.8,0.3,2.3,0.9S1366.5,1981.2,1366.5,1982.3z M1363.2,1980.8
				c-0.4,0-0.8,0.2-1.1,0.7s-0.6,1.1-0.8,2s-0.3,1.8-0.3,2.6c0,1,0.3,1.6,0.9,1.6c0.4,0,0.8-0.2,1.1-0.7s0.6-1.1,0.9-2
				s0.3-1.8,0.3-2.6C1364.2,1981.4,1363.9,1980.8,1363.2,1980.8z"/>
		</g>
		<path id="Path_4125" class="st2" d="M1125.1,1997.8h240.5c0.6-0.1,1.1-0.6,1-1.2c0-0.5-0.5-1-1-1h-240.5c-0.6,0.1-1.1,0.6-1,1.2
			C1124.1,1997.3,1124.5,1997.7,1125.1,1997.8z"/>
		<path id="Path_4126" class="st3" d="M1125.1,1999.6h140.1c1.1,0,2.1-1.3,2.1-3s-0.9-3-2.1-3h-140.1c-1.1,0-2.1,1.3-2.1,3
			S1123.9,1999.6,1125.1,1999.6z"/>
		<g id="Group_4397">
			<path id="Path_4127" class="st3" d="M1127.4,1996c0,11.4-9.3,20.7-20.7,20.7s-20.7-9.3-20.7-20.7c0-11.4,9.3-20.7,20.7-20.7
				C1118.1,1975.3,1127.4,1984.6,1127.4,1996L1127.4,1996z"/>
			<path id="Path_4128" class="st4" d="M1123.7,1996c0,9.4-7.6,17-17,17c-9.4,0-17-7.6-17-17c0-9.4,7.6-17,17-17
				C1116.1,1979,1123.7,1986.6,1123.7,1996z"/>
			<path id="Mask" class="st3" d="M1106.6,1992.1l0,0.7l-0.7-0.1c-2.5-0.3-4.8-1.4-6.5-3.2l-0.9-0.9l-0.2,0.7
				c-0.5,1.4-0.2,3,0.9,4.1c0.6,0.6,0.4,0.7-0.5,0.3c-0.2-0.1-0.4-0.1-0.6-0.2c0,0.6,0.2,1.3,0.5,1.9c0.4,0.8,1.1,1.4,1.9,1.8
				l0.7,0.3l-0.8,0c-0.8,0-0.8,0-0.7,0.3c0.5,1.1,1.4,1.9,2.6,2.3l0.9,0.3l-0.7,0.4c-1.1,0.6-2.4,1-3.7,1c-0.4,0-0.8,0-1.1,0.1
				c0.8,0.5,1.7,0.9,2.7,1.2c3,0.9,6.3,0.5,9-1c2-1.3,3.6-3.2,4.6-5.4c0.5-1.3,0.8-2.7,0.9-4.2c0-0.6,0-0.7,0.8-1.5
				c0.3-0.3,0.7-0.7,1-1.1c0.1-0.3,0.1-0.3-0.6,0c-1.2,0.4-1.3,0.4-0.8-0.3c0.4-0.4,0.7-0.9,0.9-1.5c0,0-0.2,0-0.4,0.2
				c-0.4,0.2-0.8,0.4-1.2,0.5l-0.7,0.2l-0.7-0.5c-0.4-0.2-0.8-0.5-1.2-0.6c-0.8-0.2-1.6-0.2-2.4,0.1
				C1107.6,1988.6,1106.5,1990.3,1106.6,1992.1z"/>
		</g>
	</g>
	<g id="Group_4399" transform="translate(-174 380.184)">
		<path id="Path_4129" class="st3" d="M1127.4,2057.4c0,11.4-9.3,20.7-20.7,20.7s-20.7-9.3-20.7-20.7c0-11.4,9.3-20.7,20.7-20.7
			C1118.1,2036.7,1127.4,2046,1127.4,2057.4C1127.4,2057.4,1127.4,2057.4,1127.4,2057.4z"/>
		<path id="Path_4130" class="st4" d="M1123.7,2057.4c0,9.4-7.6,17-17,17c-9.4,0-17-7.6-17-17c0-9.4,7.6-17,17-17
			C1116.1,2040.4,1123.7,2048,1123.7,2057.4C1123.7,2057.4,1123.7,2057.4,1123.7,2057.4z"/>
		<path id="Mask-3" class="st3" d="M1107.3,2065.2l0-8.5h2.4l0.3-2.9h-2.7v-1.5c0-0.8,0.1-1.2,1.2-1.2h1.5l0-2.9h-2.4
			c-2.8,0-3.8,1.4-3.8,3.8v1.8h-1.8l0,2.9h1.8l0,8.5L1107.3,2065.2z"/>
	</g>
	<g id="Group_4400" transform="translate(-174 380.184)">
		<path id="Path_4131" class="st3" d="M1127.1,2117.6c0,11.4-9.3,20.7-20.7,20.7s-20.7-9.3-20.7-20.7c0-11.4,9.3-20.7,20.7-20.7
			c0,0,0,0,0,0C1117.8,2097,1127.1,2106.2,1127.1,2117.6z"/>
		<path id="Path_4132" class="st4" d="M1123.4,2117.6c0,9.4-7.6,17-17,17s-17-7.6-17-17c0-9.4,7.6-17,17-17c0,0,0,0,0,0
			C1115.8,2100.6,1123.4,2108.2,1123.4,2117.6z"/>
		<path id="Mask-4" class="st3" d="M1106.5,2124.4c-0.1,0-6.1,0-7.6-0.4c-0.8-0.2-1.5-0.9-1.7-1.7c-0.6-3.1-0.6-6.3,0-9.4
			c0.2-0.8,0.9-1.5,1.7-1.7c1.5-0.4,7.6-0.4,7.6-0.4s6.1,0,7.6,0.4c0.8,0.2,1.5,0.9,1.7,1.7c0.5,3.1,0.6,6.3,0,9.4
			c-0.2,0.8-0.9,1.5-1.7,1.7C1112.6,2124.4,1106.5,2124.4,1106.5,2124.4z M1104.6,2114.6l0,6.2l4.9-3.1L1104.6,2114.6z"/>
	</g>
</g>
</svg>
