<svg xmlns="http://www.w3.org/2000/svg" width="333.578" height="209.908" viewBox="0 0 333.578 209.908">
  <g id="Group_4741" data-name="Group 4741" transform="translate(-266.941 -3471.063)">
    <g id="patch_6" data-name="patch 6" transform="translate(465.519 3625.529)">
      <g id="Group_4195" data-name="Group 4195" transform="translate(0 0)">
        <path id="Path_3897" data-name="Path 3897" d="M-2304.453,1263.179h46.628v-34.042h-46.628Z" transform="translate(2304.453 -1229.137)" fill="#4569a0"/>
      </g>
    </g>
    <g id="Group_4196" data-name="Group 4196" transform="translate(488.834 3614.32)">
      <path id="Path_3898" data-name="Path 3898" d="M-2284.61,1228.443v-11.166" transform="translate(2284.61 -1217.277)" fill="none" stroke="#333" stroke-linejoin="round" stroke-width="0.75"/>
      <path id="Path_3899" data-name="Path 3899" d="M-2284.61,1240.343v-11.251" transform="translate(2284.61 -1217.926)" fill="none" stroke="#fff" stroke-linejoin="round" stroke-width="0.75"/>
    </g>
    <g id="patch_3" data-name="patch 3" transform="translate(380.065 3502.826)">
      <g id="Group_4197" data-name="Group 4197" transform="translate(0 0)">
        <path id="Path_3900" data-name="Path 3900" d="M-2377.183,1256.045h46.628V1099.3h-46.628Z" transform="translate(2377.183 -1099.301)" fill="#b5c3d9"/>
      </g>
    </g>
    <g id="Group_4198" data-name="Group 4198" transform="translate(403.379 3489.836)">
      <path id="Path_3901" data-name="Path 3901" d="M-2357.34,1111.536v-25.981" transform="translate(2357.34 -1085.555)" fill="none" stroke="#333" stroke-linejoin="round" stroke-width="0.75"/>
    </g>
    <g id="Group_4201" data-name="Group 4201" transform="translate(328.133 3515.437)">
      <g id="Group_4199" data-name="Group 4199" transform="translate(0 11.208)">
        <path id="Path_3902" data-name="Path 3902" d="M-2421.382,1257.43h46.628V1124.5h-46.628Z" transform="translate(2421.382 -1124.505)" fill="#4569a0"/>
      </g>
      <g id="Group_4200" data-name="Group 4200" transform="translate(23.314)">
        <path id="Path_3903" data-name="Path 3903" d="M-2401.54,1123.816v-11.171" transform="translate(2401.54 -1112.645)" fill="none" stroke="#333" stroke-linejoin="round" stroke-width="0.75"/>
        <path id="Path_3904" data-name="Path 3904" d="M-2401.54,1135.711v-11.245" transform="translate(2401.54 -1113.294)" fill="none" stroke="#fff" stroke-linejoin="round" stroke-width="0.75"/>
      </g>
    </g>
    <g id="Group_4202" data-name="Group 4202" transform="translate(396.508 3489.836)">
      <path id="Path_3905" data-name="Path 3905" d="M-2349.865,1085.555h-13.323" transform="translate(2363.188 -1085.555)" fill="none" stroke="#333" stroke-linejoin="round" stroke-width="0.75"/>
    </g>
    <g id="Group_4203" data-name="Group 4203" transform="translate(396.508 3516.265)">
      <path id="Path_3906" data-name="Path 3906" d="M-2349.865,1113.521h-13.323" transform="translate(2363.188 -1113.521)" fill="none" stroke="#333" stroke-linejoin="round" stroke-width="0.75"/>
    </g>
    <g id="Group_4204" data-name="Group 4204" transform="translate(533.715 3636.431)">
      <path id="Path_3907" data-name="Path 3907" d="M-2233.089,1240.673h-13.323" transform="translate(2246.412 -1240.673)" fill="none" stroke="#333" stroke-linejoin="round" stroke-width="0.75"/>
    </g>
    <g id="Group_4205" data-name="Group 4205" transform="translate(345.003 3537.561)">
      <path id="Path_3908" data-name="Path 3908" d="M-2393.7,1136.055h-13.323" transform="translate(2407.024 -1136.055)" fill="none" stroke="#fff" stroke-linejoin="round" stroke-width="0.75"/>
    </g>
    <g id="Group_4206" data-name="Group 4206" transform="translate(345.003 3515.091)">
      <path id="Path_3909" data-name="Path 3909" d="M-2393.7,1112.279h-13.323" transform="translate(2407.024 -1112.279)" fill="none" stroke="#333" stroke-linejoin="round" stroke-width="0.75"/>
    </g>
    <g id="Group_4207" data-name="Group 4207" transform="translate(482.173 3614.32)">
      <path id="Path_3910" data-name="Path 3910" d="M-2276.957,1217.277h-13.322" transform="translate(2290.279 -1217.277)" fill="none" stroke="#333" stroke-linejoin="round" stroke-width="0.75"/>
    </g>
    <g id="Group_4208" data-name="Group 4208" transform="translate(482.173 3636.737)">
      <path id="Path_3911" data-name="Path 3911" d="M-2276.957,1241h-13.322" transform="translate(2290.279 -1240.997)" fill="none" stroke="#fff" stroke-linejoin="round" stroke-width="0.75"/>
    </g>
    <path id="Path_3912" data-name="Path 3912" d="M-2451.981,1265.463h306.664" transform="translate(2744.161 2394.396)" fill="none" stroke="#333" stroke-linecap="square" stroke-width="0.5"/>
    <g id="patch_4" data-name="patch 4" transform="translate(516.732 3649.348)">
      <g id="Group_4209" data-name="Group 4209">
        <path id="Path_3913" data-name="Path 3913" d="M-2260.866,1264.564h46.628v-10.223h-46.628Z" transform="translate(2260.866 -1254.341)" fill="#b5c3d9"/>
      </g>
    </g>
    <g id="Group_4210" data-name="Group 4210" transform="translate(540.047 3636.357)">
      <path id="Path_3914" data-name="Path 3914" d="M-2241.023,1264.184v-23.589" transform="translate(2241.023 -1240.595)" fill="none" stroke="#333" stroke-linejoin="round" stroke-width="0.75"/>
    </g>
    <rect id="Rectangle_428" data-name="Rectangle 428" width="103.984" height="55.758" transform="translate(496.035 3486.055)" fill="none" stroke="#ebebeb" stroke-miterlimit="10" stroke-width="1"/>
    <g id="patch_12" data-name="patch 12" transform="translate(508.586 3517.298)">
      <path id="Path_3915" data-name="Path 3915" d="M-2267.8,1130.688h26.645v-16.073H-2267.8Z" transform="translate(2267.799 -1114.614)" fill="#b5c3d9"/>
    </g>
    <g id="patch_13" data-name="patch 13" transform="translate(508.586 3493.815)">
      <path id="Path_3916" data-name="Path 3916" d="M-2267.8,1105.84h26.645v-16.074H-2267.8Z" transform="translate(2267.799 -1089.766)" fill="#4569a0"/>
    </g>
    <text id="Success" transform="translate(324.079 3665.97)" fill="#333" font-size="11" font-family="OpenSans-Semibold, Open Sans" font-weight="600"><tspan x="29.363" y="12">Success</tspan></text>
    <text id="_of_participants" data-name="% of participants" transform="translate(276.941 3584.997) rotate(-90)" fill="#333" font-size="9" font-family="OpenSans-Italic, Open Sans" font-style="italic"><tspan x="-33.653" y="0">% of participants</tspan></text>
    <text id="Desktop" transform="translate(541.446 3494.197)" fill="#333" font-size="10" font-family="OpenSans, Open Sans"><tspan x="0" y="11">Desktop</tspan></text>
    <text id="Mobile" transform="translate(541.446 3517.823)" fill="#333" font-size="10" font-family="OpenSans, Open Sans"><tspan x="0" y="11">Mobile</tspan></text>
    <text id="Fail" transform="translate(472.124 3665.97)" fill="#333" font-size="11" font-family="OpenSans-Semibold, Open Sans" font-weight="600"><tspan x="40.664" y="12">Fail</tspan></text>
    <text id="_80_" data-name="80%" transform="translate(328.604 3493.744)" fill="#333" font-size="12" font-family="OpenSans-Semibold, Open Sans" font-weight="600"><tspan x="10.891" y="13">80%</tspan></text>
    <text id="_94_" data-name="94%" transform="translate(380.302 3471.063)" fill="#333" font-size="12" font-family="OpenSans-Semibold, Open Sans" font-weight="600"><tspan x="10.891" y="13">94%</tspan></text>
    <text id="_20_" data-name="20%" transform="translate(465.922 3593.92)" fill="#333" font-size="12" font-family="OpenSans-Semibold, Open Sans" font-weight="600"><tspan x="10.891" y="13">20%</tspan></text>
    <text id="_6_" data-name="6%" transform="translate(517.772 3618.491)" fill="#333" font-size="12" font-family="OpenSans-Semibold, Open Sans" font-weight="600"><tspan x="14.316" y="13">6%</tspan></text>
  </g>
</svg>
