<svg xmlns="http://www.w3.org/2000/svg" viewBox="0 0 910 322"><defs><style>.cls-1,.cls-2{fill:none;}.cls-2{stroke:#404041;stroke-miterlimit:10;}.cls-3{fill:#333;}.cls-4{fill:#404041;}.cls-5{fill:#239546;}.cls-6{fill:#b74d94;}.cls-7{fill:#84b2f9;}.cls-8{fill:#43a7a7;}.cls-9{fill:#4569a0;}.cls-10{fill:#ffd964;}.cls-11{fill:#f5c44f;}</style></defs><g id="Layer_2" data-name="Layer 2"><g id="Layer_2-2" data-name="Layer 2"><rect class="cls-1" width="910" height="322"/><line class="cls-2" x1="722.52" y1="107.45" x2="541.65" y2="107.45"/><line class="cls-2" x1="722.52" y1="211.68" x2="557.71" y2="209.5"/><line class="cls-2" x1="722.52" y1="158.54" x2="583.45" y2="158.54"/><path class="cls-3" d="M634.06,217.63a5.51,5.51,0,0,1,3.49,1,3.28,3.28,0,0,1,1.29,2.71c0,1.6-1,2.86-2.87,3.8a7.48,7.48,0,0,1,2.6,1.92,3.64,3.64,0,0,1,.76,2.25,3.78,3.78,0,0,1-1.41,3.08,5.84,5.84,0,0,1-3.82,1.15,6.25,6.25,0,0,1-3.91-1.08,3.64,3.64,0,0,1-1.39-3.06,3.91,3.91,0,0,1,.73-2.33,6,6,0,0,1,2.38-1.84,6,6,0,0,1-2-1.8,3.83,3.83,0,0,1-.6-2.12,3.21,3.21,0,0,1,1.32-2.69A5.59,5.59,0,0,1,634.06,217.63Zm-2.87,11.69A2.05,2.05,0,0,0,632,231a3.36,3.36,0,0,0,2.1.61,3.26,3.26,0,0,0,2.13-.64,2.12,2.12,0,0,0,.76-1.71,2.22,2.22,0,0,0-.7-1.57,6.73,6.73,0,0,0-2.12-1.31l-.31-.14a5.44,5.44,0,0,0-2,1.35A2.57,2.57,0,0,0,631.19,229.32Zm2.85-9.77a2.63,2.63,0,0,0-1.71.53,1.73,1.73,0,0,0-.64,1.42,2,2,0,0,0,.23,1,2.5,2.5,0,0,0,.68.79,7.78,7.78,0,0,0,1.5.85,4.86,4.86,0,0,0,1.8-1.18,2.18,2.18,0,0,0,.53-1.45,1.71,1.71,0,0,0-.66-1.42A2.67,2.67,0,0,0,634,219.55Z"/><path class="cls-3" d="M641.27,226.73q0-9.09,7.41-9.1a9.12,9.12,0,0,1,2,.18v2.08a6.91,6.91,0,0,0-1.86-.23A4.92,4.92,0,0,0,645,221a6.51,6.51,0,0,0-1.36,4.29h.13a3.39,3.39,0,0,1,1.4-1.33,4.45,4.45,0,0,1,2.12-.47,4.22,4.22,0,0,1,3.29,1.29,5,5,0,0,1,1.18,3.51,5.33,5.33,0,0,1-1.36,3.86,4.94,4.94,0,0,1-3.72,1.41,5.15,5.15,0,0,1-2.9-.8,5.08,5.08,0,0,1-1.89-2.33A9.29,9.29,0,0,1,641.27,226.73Zm5.41,4.77a2.43,2.43,0,0,0,2-.83,3.55,3.55,0,0,0,.7-2.37,3.16,3.16,0,0,0-.65-2.1,2.44,2.44,0,0,0-2-.76,3.26,3.26,0,0,0-1.49.34,2.74,2.74,0,0,0-1.07.95,2.22,2.22,0,0,0-.39,1.22,3.93,3.93,0,0,0,.81,2.52A2.52,2.52,0,0,0,646.68,231.5Z"/><path class="cls-3" d="M660.4,222.46a6.32,6.32,0,0,1-.87,3.66,3,3,0,0,1-2.58,1.23,2.86,2.86,0,0,1-2.5-1.27,6.26,6.26,0,0,1-.89-3.62q0-4.85,3.39-4.85a3,3,0,0,1,2.56,1.26A6.1,6.1,0,0,1,660.4,222.46Zm-4.77,0a6.6,6.6,0,0,0,.31,2.35,1,1,0,0,0,1,.78c.93,0,1.4-1,1.4-3.13s-.47-3.13-1.4-3.13a1,1,0,0,0-1,.77A6.66,6.66,0,0,0,655.63,222.48Zm11.72-4.65-8.6,15.51h-2.06l8.61-15.51Zm3.15,10.84a6.21,6.21,0,0,1-.88,3.66,2.94,2.94,0,0,1-2.56,1.22,2.89,2.89,0,0,1-2.51-1.25,6.28,6.28,0,0,1-.89-3.63q0-4.84,3.4-4.84a3,3,0,0,1,2.54,1.25A6.08,6.08,0,0,1,670.5,228.67Zm-4.77,0A6.72,6.72,0,0,0,666,231a1.08,1.08,0,0,0,1,.79c.92,0,1.39-1.05,1.39-3.16s-.47-3.1-1.39-3.1a1.06,1.06,0,0,0-1,.76A6.54,6.54,0,0,0,665.73,228.67Z"/><path class="cls-3" d="M687.82,233.34h-8.65v-15h8.65v1.55H681v4.85h6.43v1.54H681v5.54h6.84Z"/><path class="cls-3" d="M698.14,233.34l-.35-1.6h-.08a4.89,4.89,0,0,1-1.74,1.43,5.39,5.39,0,0,1-2.16.38,4,4,0,0,1-2.71-.87,3.1,3.1,0,0,1-1-2.46c0-2.27,1.88-3.47,5.64-3.58l2-.06v-.7a2.82,2.82,0,0,0-.59-2,2.47,2.47,0,0,0-1.88-.63,7.93,7.93,0,0,0-3.29.86l-.54-1.3a8.69,8.69,0,0,1,3.93-1,4.53,4.53,0,0,1,3.08.89,3.69,3.69,0,0,1,1,2.88v7.69Zm-4-1.2a3.63,3.63,0,0,0,2.59-.88,3.2,3.2,0,0,0,.94-2.45v-1l-1.76.07a6.63,6.63,0,0,0-3,.63,1.91,1.91,0,0,0-.93,1.75,1.74,1.74,0,0,0,.58,1.41A2.44,2.44,0,0,0,694.16,232.14Z"/><path class="cls-3" d="M710.58,230.27a2.8,2.8,0,0,1-1.21,2.42,5.83,5.83,0,0,1-3.4.86,7.65,7.65,0,0,1-3.61-.71v-1.59a8.74,8.74,0,0,0,1.8.65,7.64,7.64,0,0,0,1.85.24,4.29,4.29,0,0,0,2.13-.43,1.41,1.41,0,0,0,.74-1.3,1.42,1.42,0,0,0-.59-1.13,9.27,9.27,0,0,0-2.3-1.1,12.34,12.34,0,0,1-2.3-1,3,3,0,0,1-1-1,2.46,2.46,0,0,1-.34-1.33,2.5,2.5,0,0,1,1.16-2.17,5.45,5.45,0,0,1,3.17-.8,9.58,9.58,0,0,1,3.67.74l-.62,1.39a8.62,8.62,0,0,0-3.18-.7,3.75,3.75,0,0,0-1.88.38,1.16,1.16,0,0,0-.64,1.05,1.24,1.24,0,0,0,.24.77,2.3,2.3,0,0,0,.77.61,17.17,17.17,0,0,0,2,.83,7.86,7.86,0,0,1,2.8,1.47A2.6,2.6,0,0,1,710.58,230.27Z"/><path class="cls-3" d="M711.6,222.06h1.88L716,228.5a22.41,22.41,0,0,1,1,3.18h.08c.1-.35.29-1,.58-1.8s1.26-3.45,2.88-7.82h1.89l-5,12.85a6.33,6.33,0,0,1-1.73,2.7,3.77,3.77,0,0,1-2.44.8,7.18,7.18,0,0,1-1.59-.18v-1.37a6.53,6.53,0,0,0,1.31.13,2.68,2.68,0,0,0,2.59-2l.64-1.61Z"/><path class="cls-3" d="M686.13,184.84h-1.8v-7.08h-8.17v7.08h-1.8v-15h1.8v6.4h8.17v-6.4h1.8Z"/><path class="cls-3" d="M697.27,184.84l-.35-1.6h-.08a4.89,4.89,0,0,1-1.74,1.43,5.46,5.46,0,0,1-2.16.38,4,4,0,0,1-2.71-.87,3.1,3.1,0,0,1-1-2.46c0-2.27,1.88-3.47,5.63-3.58l2-.06v-.7a2.82,2.82,0,0,0-.59-2,2.48,2.48,0,0,0-1.89-.63,7.93,7.93,0,0,0-3.28.86l-.55-1.3a8.2,8.2,0,0,1,1.89-.71,8,8,0,0,1,2-.26,4.55,4.55,0,0,1,3.08.89,3.68,3.68,0,0,1,1,2.87v7.7Zm-4-1.2a3.63,3.63,0,0,0,2.59-.88,3.2,3.2,0,0,0,.93-2.45v-1l-1.76.08a6.66,6.66,0,0,0-3,.63,1.88,1.88,0,0,0-.92,1.74,1.74,1.74,0,0,0,.57,1.41A2.43,2.43,0,0,0,693.29,183.64Z"/><path class="cls-3" d="M707.51,173.36a7.35,7.35,0,0,1,1.39.12l-.25,1.59a5.71,5.71,0,0,0-1.27-.16A3.14,3.14,0,0,0,705,176a4,4,0,0,0-1,2.77v6.05H702.2V173.56h1.46l.2,2.09h.08a5.15,5.15,0,0,1,1.56-1.7A3.66,3.66,0,0,1,707.51,173.36Z"/><path class="cls-3" d="M719,183.33h-.1a4.19,4.19,0,0,1-3.65,1.72,4.41,4.41,0,0,1-3.55-1.51,8,8,0,0,1,0-8.64,4.33,4.33,0,0,1,3.54-1.54,4.27,4.27,0,0,1,3.63,1.66H719l-.08-.81,0-.79v-4.59h1.76v16h-1.43Zm-3.52.29a3.26,3.26,0,0,0,2.61-1,4.73,4.73,0,0,0,.81-3.08v-.36a5.5,5.5,0,0,0-.82-3.42,3.18,3.18,0,0,0-2.63-1,2.72,2.72,0,0,0-2.37,1.17,5.61,5.61,0,0,0-.82,3.29,5.44,5.44,0,0,0,.82,3.27A2.8,2.8,0,0,0,715.47,183.62Z"/><path class="cls-4" d="M615.81,82.56a5.45,5.45,0,0,1,3.49,1,3.28,3.28,0,0,1,1.29,2.71q0,2.39-2.87,3.8a7.48,7.48,0,0,1,2.6,1.92,3.63,3.63,0,0,1,.77,2.25,3.76,3.76,0,0,1-1.41,3.07,5.83,5.83,0,0,1-3.82,1.16,6.26,6.26,0,0,1-3.92-1.08,3.65,3.65,0,0,1-1.39-3.07,3.93,3.93,0,0,1,.73-2.33,6.09,6.09,0,0,1,2.38-1.84,6,6,0,0,1-2-1.79,3.88,3.88,0,0,1-.6-2.12,3.18,3.18,0,0,1,1.33-2.69A5.54,5.54,0,0,1,615.81,82.56Zm-2.87,11.69a2.08,2.08,0,0,0,.77,1.71,3.3,3.3,0,0,0,2.1.61,3.22,3.22,0,0,0,2.13-.63,2.09,2.09,0,0,0,.76-1.71,2.16,2.16,0,0,0-.7-1.57,6.56,6.56,0,0,0-2.12-1.32l-.31-.14a5.41,5.41,0,0,0-2,1.36A2.55,2.55,0,0,0,612.94,94.25Zm2.85-9.77a2.64,2.64,0,0,0-1.71.52,1.75,1.75,0,0,0-.64,1.43,2.13,2.13,0,0,0,.23,1,2.63,2.63,0,0,0,.68.79,8.53,8.53,0,0,0,1.51.85,5,5,0,0,0,1.79-1.18,2.2,2.2,0,0,0,.53-1.45,1.75,1.75,0,0,0-.65-1.43A2.71,2.71,0,0,0,615.79,84.48Z"/><path class="cls-4" d="M629.75,87.38a6.35,6.35,0,0,1-.87,3.67,3,3,0,0,1-2.58,1.22A2.87,2.87,0,0,1,623.8,91a6.32,6.32,0,0,1-.89-3.63q0-4.84,3.39-4.84a3,3,0,0,1,2.56,1.25A6.12,6.12,0,0,1,629.75,87.38Zm-4.77,0a6.66,6.66,0,0,0,.31,2.36,1,1,0,0,0,1,.77c.93,0,1.4-1,1.4-3.13s-.47-3.13-1.4-3.13a1,1,0,0,0-1,.78A6.64,6.64,0,0,0,625,87.4Zm11.72-4.64-8.6,15.51H626l8.61-15.51Zm3.15,10.84a6.21,6.21,0,0,1-.88,3.66,3,3,0,0,1-2.56,1.22,2.9,2.9,0,0,1-2.51-1.26A6.22,6.22,0,0,1,633,93.6q0-4.84,3.4-4.85A3,3,0,0,1,639,90,6.14,6.14,0,0,1,639.85,93.6Zm-4.77,0a6.8,6.8,0,0,0,.31,2.37,1.07,1.07,0,0,0,1,.78c.92,0,1.39-1,1.39-3.15s-.47-3.11-1.39-3.11a1.07,1.07,0,0,0-1,.77A6.54,6.54,0,0,0,635.08,93.6Z"/><path class="cls-3" d="M660.64,98.27h-2.06L650.1,85.64H650c.11,1.48.17,2.84.17,4.08v8.55h-1.67v-15h2L659,95.8h.08c0-.19-.05-.78-.1-1.79s-.06-1.72,0-2.15V83.22h1.69Z"/><path class="cls-3" d="M669.55,98.47A5.42,5.42,0,0,1,665.48,97,5.79,5.79,0,0,1,664,92.72a6.36,6.36,0,0,1,1.39-4.33,4.65,4.65,0,0,1,3.71-1.61,4.45,4.45,0,0,1,3.46,1.4,5.23,5.23,0,0,1,1.28,3.68v1.08h-8a4.36,4.36,0,0,0,1,3,3.62,3.62,0,0,0,2.76,1,9.6,9.6,0,0,0,3.72-.76v1.52a9.43,9.43,0,0,1-1.77.56A9.66,9.66,0,0,1,669.55,98.47Zm-.48-10.26a2.93,2.93,0,0,0-2.23.89,4,4,0,0,0-1,2.45h6.08a3.68,3.68,0,0,0-.75-2.48A2.65,2.65,0,0,0,669.07,88.21Z"/><path class="cls-3" d="M676.68,83.93a1.12,1.12,0,0,1,.3-.86,1.12,1.12,0,0,1,1.47,0,1.07,1.07,0,0,1,.31.85,1.09,1.09,0,0,1-.31.86,1,1,0,0,1-.73.29,1,1,0,0,1-.74-.29A1.12,1.12,0,0,1,676.68,83.93Zm1.91,14.34h-1.76V87h1.76Z"/><path class="cls-3" d="M686.08,97.06A6.58,6.58,0,0,0,687,97a6.82,6.82,0,0,0,.69-.14v1.31a3.8,3.8,0,0,1-.84.22,6.38,6.38,0,0,1-1,.08c-2.25,0-3.37-1.14-3.37-3.44V88.32h-1.67v-.83l1.67-.71.74-2.4h1V87h3.37v1.33h-3.37V95a2.25,2.25,0,0,0,.5,1.56A1.77,1.77,0,0,0,686.08,97.06Z"/><path class="cls-3" d="M698,98.27V91a2.91,2.91,0,0,0-.65-2.06,2.68,2.68,0,0,0-2-.68,3.38,3.38,0,0,0-2.68,1,4.75,4.75,0,0,0-.85,3.17v5.9H690v-16h1.76V87.1a9.74,9.74,0,0,1-.08,1.45h.1a3.54,3.54,0,0,1,1.49-1.28,5,5,0,0,1,2.19-.47,4.53,4.53,0,0,1,3.19,1,4,4,0,0,1,1.07,3.12v7.36Z"/><path class="cls-3" d="M708.24,98.47A5.42,5.42,0,0,1,704.17,97a5.79,5.79,0,0,1-1.49-4.23,6.36,6.36,0,0,1,1.39-4.33,4.65,4.65,0,0,1,3.71-1.61,4.45,4.45,0,0,1,3.46,1.4,5.23,5.23,0,0,1,1.28,3.68v1.08h-8a4.36,4.36,0,0,0,1,3,3.62,3.62,0,0,0,2.76,1,9.6,9.6,0,0,0,3.72-.76v1.52a9.2,9.2,0,0,1-1.77.56A9.66,9.66,0,0,1,708.24,98.47Zm-.48-10.26a2.93,2.93,0,0,0-2.23.89,4.06,4.06,0,0,0-1,2.45h6.08a3.73,3.73,0,0,0-.74-2.48A2.69,2.69,0,0,0,707.76,88.21Z"/><path class="cls-3" d="M720.82,86.78a7.22,7.22,0,0,1,1.39.13L722,88.49a6.37,6.37,0,0,0-1.27-.15,3.14,3.14,0,0,0-2.42,1.11,4,4,0,0,0-1,2.77v6h-1.76V87H717l.2,2.09h.09a5,5,0,0,1,1.56-1.7A3.56,3.56,0,0,1,720.82,86.78Z"/><path class="cls-4" d="M629.7,176.47q0-10.22,8.32-10.22a10,10,0,0,1,2.22.21v2.33a7.35,7.35,0,0,0-2.1-.26,5.5,5.5,0,0,0-4.2,1.5,7.26,7.26,0,0,0-1.53,4.81h.15a3.82,3.82,0,0,1,1.57-1.49,5,5,0,0,1,2.38-.53,4.73,4.73,0,0,1,3.69,1.45,5.59,5.59,0,0,1,1.33,3.94,6,6,0,0,1-1.53,4.33,5.54,5.54,0,0,1-4.18,1.59,5.55,5.55,0,0,1-5.38-3.52A10.53,10.53,0,0,1,629.7,176.47Zm6.07,5.35a2.76,2.76,0,0,0,2.23-.93,4,4,0,0,0,.77-2.66,3.48,3.48,0,0,0-.73-2.35,2.7,2.7,0,0,0-2.19-.86,3.6,3.6,0,0,0-1.67.39,3,3,0,0,0-1.2,1.06,2.41,2.41,0,0,0-.45,1.37,4.46,4.46,0,0,0,.91,2.83A2.85,2.85,0,0,0,635.77,181.82Z"/><path class="cls-4" d="M651.19,171.67a7.05,7.05,0,0,1-1,4.12,3.34,3.34,0,0,1-2.9,1.37,3.21,3.21,0,0,1-2.8-1.42,7.09,7.09,0,0,1-1-4.07q0-5.44,3.8-5.44a3.32,3.32,0,0,1,2.88,1.41A6.89,6.89,0,0,1,651.19,171.67Zm-5.36,0a7.61,7.61,0,0,0,.34,2.64,1.18,1.18,0,0,0,1.13.87c1.05,0,1.58-1.17,1.58-3.51s-.53-3.52-1.58-3.52a1.18,1.18,0,0,0-1.13.87A7.64,7.64,0,0,0,645.83,171.7ZM659,166.48l-9.66,17.41H647l9.66-17.41Zm3.54,12.17a7,7,0,0,1-1,4.11,3.35,3.35,0,0,1-2.89,1.37,3.26,3.26,0,0,1-2.81-1.41,7,7,0,0,1-1-4.07q0-5.44,3.81-5.44a3.34,3.34,0,0,1,2.86,1.4A6.83,6.83,0,0,1,662.53,178.65Zm-5.36,0a7.5,7.5,0,0,0,.35,2.66,1.18,1.18,0,0,0,1.13.88c1,0,1.57-1.18,1.57-3.54s-.53-3.49-1.57-3.49a1.18,1.18,0,0,0-1.13.86A7.24,7.24,0,0,0,657.17,178.65Z"/><line class="cls-2" x1="377.52" y1="107.45" x2="196.65" y2="107.45"/><line class="cls-2" x1="402.71" y1="284.54" x2="196.65" y2="284.54"/><line class="cls-2" x1="722.52" y1="285.68" x2="516.1" y2="285.68"/><path class="cls-3" d="M634.06,291.63a5.51,5.51,0,0,1,3.49,1,3.28,3.28,0,0,1,1.29,2.71c0,1.6-1,2.86-2.87,3.8a7.48,7.48,0,0,1,2.6,1.92,3.64,3.64,0,0,1,.76,2.25,3.78,3.78,0,0,1-1.41,3.08,5.84,5.84,0,0,1-3.82,1.15,6.25,6.25,0,0,1-3.91-1.08,3.64,3.64,0,0,1-1.39-3.06,3.91,3.91,0,0,1,.73-2.33,6,6,0,0,1,2.38-1.84,6,6,0,0,1-2-1.8,3.83,3.83,0,0,1-.6-2.12,3.21,3.21,0,0,1,1.32-2.69A5.59,5.59,0,0,1,634.06,291.63Zm-2.87,11.69A2.05,2.05,0,0,0,632,305a3.36,3.36,0,0,0,2.1.61,3.26,3.26,0,0,0,2.13-.64,2.12,2.12,0,0,0,.76-1.71,2.22,2.22,0,0,0-.7-1.57,6.73,6.73,0,0,0-2.12-1.31l-.31-.14a5.44,5.44,0,0,0-2,1.35A2.57,2.57,0,0,0,631.19,303.32Zm2.85-9.77a2.63,2.63,0,0,0-1.71.53,1.73,1.73,0,0,0-.64,1.42,2,2,0,0,0,.23,1,2.5,2.5,0,0,0,.68.79,7.78,7.78,0,0,0,1.5.85,4.86,4.86,0,0,0,1.8-1.18,2.18,2.18,0,0,0,.53-1.45,1.71,1.71,0,0,0-.66-1.42A2.67,2.67,0,0,0,634,293.55Z"/><path class="cls-3" d="M641.27,300.73q0-9.09,7.41-9.1a9.12,9.12,0,0,1,2,.18v2.08a6.91,6.91,0,0,0-1.86-.23A4.92,4.92,0,0,0,645,295a6.51,6.51,0,0,0-1.36,4.29h.13a3.39,3.39,0,0,1,1.4-1.33,4.45,4.45,0,0,1,2.12-.47,4.22,4.22,0,0,1,3.29,1.29,5,5,0,0,1,1.18,3.51,5.33,5.33,0,0,1-1.36,3.86,4.94,4.94,0,0,1-3.72,1.41,5.15,5.15,0,0,1-2.9-.8,5.08,5.08,0,0,1-1.89-2.33A9.29,9.29,0,0,1,641.27,300.73Zm5.41,4.77a2.43,2.43,0,0,0,2-.83,3.55,3.55,0,0,0,.7-2.37,3.16,3.16,0,0,0-.65-2.1,2.44,2.44,0,0,0-2-.76,3.26,3.26,0,0,0-1.49.34,2.74,2.74,0,0,0-1.07,1,2.22,2.22,0,0,0-.39,1.22,3.93,3.93,0,0,0,.81,2.52A2.52,2.52,0,0,0,646.68,305.5Z"/><path class="cls-3" d="M660.4,296.46a6.32,6.32,0,0,1-.87,3.66,3,3,0,0,1-2.58,1.23,2.86,2.86,0,0,1-2.5-1.27,6.26,6.26,0,0,1-.89-3.62q0-4.84,3.39-4.85a3,3,0,0,1,2.56,1.26A6.1,6.1,0,0,1,660.4,296.46Zm-4.77,0a6.6,6.6,0,0,0,.31,2.35,1,1,0,0,0,1,.78c.93,0,1.4-1,1.4-3.13s-.47-3.13-1.4-3.13a1,1,0,0,0-1,.77A6.66,6.66,0,0,0,655.63,296.48Zm11.72-4.65-8.6,15.51h-2.06l8.61-15.51Zm3.15,10.84a6.21,6.21,0,0,1-.88,3.66,2.94,2.94,0,0,1-2.56,1.22,2.89,2.89,0,0,1-2.51-1.25,6.28,6.28,0,0,1-.89-3.63q0-4.85,3.4-4.84a3,3,0,0,1,2.54,1.25A6.08,6.08,0,0,1,670.5,302.67Zm-4.77,0A6.72,6.72,0,0,0,666,305a1.08,1.08,0,0,0,1,.79c.92,0,1.39-1.05,1.39-3.16s-.47-3.1-1.39-3.1a1.06,1.06,0,0,0-1,.76A6.54,6.54,0,0,0,665.73,302.67Z"/><path class="cls-3" d="M687.82,307.34h-8.65v-15h8.65v1.55H681v4.85h6.43v1.54H681v5.54h6.84Z"/><path class="cls-3" d="M698.14,307.34l-.35-1.6h-.08a4.89,4.89,0,0,1-1.74,1.43,5.39,5.39,0,0,1-2.16.38,4,4,0,0,1-2.71-.87,3.1,3.1,0,0,1-1-2.46c0-2.27,1.88-3.47,5.64-3.58l2-.06v-.7a2.82,2.82,0,0,0-.59-2,2.47,2.47,0,0,0-1.88-.63,7.93,7.93,0,0,0-3.29.86l-.54-1.3a8.69,8.69,0,0,1,3.93-1,4.53,4.53,0,0,1,3.08.89,3.69,3.69,0,0,1,1,2.88v7.69Zm-4-1.2a3.63,3.63,0,0,0,2.59-.88,3.2,3.2,0,0,0,.94-2.45v-1l-1.76.07a6.63,6.63,0,0,0-3,.63,1.91,1.91,0,0,0-.93,1.75,1.74,1.74,0,0,0,.58,1.41A2.44,2.44,0,0,0,694.16,306.14Z"/><path class="cls-3" d="M710.58,304.27a2.8,2.8,0,0,1-1.21,2.42,5.83,5.83,0,0,1-3.4.86,7.65,7.65,0,0,1-3.61-.71v-1.59a8.74,8.74,0,0,0,1.8.65,7.64,7.64,0,0,0,1.85.24,4.29,4.29,0,0,0,2.13-.43,1.41,1.41,0,0,0,.74-1.3,1.42,1.42,0,0,0-.59-1.13,9.27,9.27,0,0,0-2.3-1.1,12.34,12.34,0,0,1-2.3-1,3,3,0,0,1-1-1,2.46,2.46,0,0,1-.34-1.33,2.5,2.5,0,0,1,1.16-2.17,5.45,5.45,0,0,1,3.17-.8,9.58,9.58,0,0,1,3.67.74l-.62,1.39a8.62,8.62,0,0,0-3.18-.7,3.75,3.75,0,0,0-1.88.38,1.16,1.16,0,0,0-.64,1.05,1.24,1.24,0,0,0,.24.77,2.3,2.3,0,0,0,.77.61,17.17,17.17,0,0,0,2,.83,7.86,7.86,0,0,1,2.8,1.47A2.6,2.6,0,0,1,710.58,304.27Z"/><path class="cls-3" d="M711.6,296.06h1.88L716,302.5a22.41,22.41,0,0,1,1,3.18h.08c.1-.35.29-.95.58-1.8s1.26-3.45,2.88-7.82h1.89l-5,12.85a6.33,6.33,0,0,1-1.73,2.7,3.77,3.77,0,0,1-2.44.8,7.18,7.18,0,0,1-1.59-.18v-1.37a6.53,6.53,0,0,0,1.31.13,2.68,2.68,0,0,0,2.59-2l.64-1.61Z"/><path class="cls-4" d="M208.67,95.88h-2.09v3.39h-2.43V95.88h-7.09V94l7.09-10.25h2.43v10.1h2.09Zm-4.52-2.07V89.92c0-1.39,0-2.52.1-3.4h-.08a11.88,11.88,0,0,1-.94,1.69l-3.85,5.6Z"/><path class="cls-4" d="M215.24,83.56a5.48,5.48,0,0,1,3.5,1A3.28,3.28,0,0,1,220,87.28q0,2.39-2.87,3.8a7.38,7.38,0,0,1,2.6,1.92,3.63,3.63,0,0,1,.77,2.25,3.76,3.76,0,0,1-1.41,3.07,5.86,5.86,0,0,1-3.82,1.16,6.26,6.26,0,0,1-3.92-1.08A3.69,3.69,0,0,1,210,95.33a4,4,0,0,1,.73-2.33,6.09,6.09,0,0,1,2.38-1.84,5.84,5.84,0,0,1-2-1.79,3.81,3.81,0,0,1-.61-2.12,3.18,3.18,0,0,1,1.33-2.69A5.54,5.54,0,0,1,215.24,83.56Zm-2.87,11.69a2.08,2.08,0,0,0,.77,1.71,3.3,3.3,0,0,0,2.1.61,3.22,3.22,0,0,0,2.13-.63,2.09,2.09,0,0,0,.76-1.71,2.16,2.16,0,0,0-.7-1.57,6.45,6.45,0,0,0-2.12-1.32L215,92.2a5.61,5.61,0,0,0-2,1.35A2.59,2.59,0,0,0,212.37,95.25Zm2.85-9.77a2.61,2.61,0,0,0-1.7.52,1.73,1.73,0,0,0-.65,1.43,2.08,2.08,0,0,0,.23,1,2.52,2.52,0,0,0,.68.79,7.85,7.85,0,0,0,1.51.86,5.12,5.12,0,0,0,1.8-1.18,2.19,2.19,0,0,0,.52-1.45A1.75,1.75,0,0,0,217,86,2.71,2.71,0,0,0,215.22,85.48Z"/><path class="cls-4" d="M229.19,88.38a6.35,6.35,0,0,1-.88,3.67,3,3,0,0,1-2.58,1.22,2.87,2.87,0,0,1-2.5-1.26,6.32,6.32,0,0,1-.89-3.63q0-4.84,3.39-4.85a3,3,0,0,1,2.56,1.26A6.12,6.12,0,0,1,229.19,88.38Zm-4.78,0a6.66,6.66,0,0,0,.31,2.36,1,1,0,0,0,1,.77c.93,0,1.4-1,1.4-3.13s-.47-3.13-1.4-3.13a1,1,0,0,0-1,.78A6.6,6.6,0,0,0,224.41,88.4Zm11.72-4.64-8.6,15.51h-2.06l8.61-15.51Zm3.16,10.84a6.21,6.21,0,0,1-.89,3.66,3,3,0,0,1-2.56,1.22,2.9,2.9,0,0,1-2.51-1.26,6.24,6.24,0,0,1-.89-3.62q0-4.84,3.4-4.85A3,3,0,0,1,238.38,91,6.13,6.13,0,0,1,239.29,94.6Zm-4.78,0a7,7,0,0,0,.31,2.37,1.07,1.07,0,0,0,1,.78c.92,0,1.39-1,1.39-3.15s-.47-3.11-1.39-3.11a1.07,1.07,0,0,0-1,.76A6.84,6.84,0,0,0,234.51,94.6Z"/><path class="cls-3" d="M257.7,99.27l-1.93-4.79h-6.21l-1.91,4.79h-1.83L252,84.16h1.52l6.1,15.11Zm-2.49-6.36-1.8-4.66a20.62,20.62,0,0,1-.72-2.18,20.1,20.1,0,0,1-.67,2.18l-1.83,4.66Z"/><path class="cls-3" d="M266.85,99.47a5.21,5.21,0,0,1-2.08-.4,3.89,3.89,0,0,1-1.57-1.25h-.13a13.79,13.79,0,0,1,.13,1.87v4.64h-1.76V88h1.43l.24,1.54h.09a4.16,4.16,0,0,1,1.58-1.34,5,5,0,0,1,2.07-.41,4.34,4.34,0,0,1,3.57,1.54,7.95,7.95,0,0,1,0,8.62A4.39,4.39,0,0,1,266.85,99.47Zm-.26-10.24a3.15,3.15,0,0,0-2.57,1,4.73,4.73,0,0,0-.82,3v.38A5.48,5.48,0,0,0,264,97a3.14,3.14,0,0,0,2.62,1A2.75,2.75,0,0,0,269,96.86a5.49,5.49,0,0,0,.85-3.26,5.28,5.28,0,0,0-.85-3.24A2.85,2.85,0,0,0,266.59,89.23Z"/><path class="cls-3" d="M280.16,99.47a5.13,5.13,0,0,1-2.07-.4,3.91,3.91,0,0,1-1.58-1.25h-.12a15.53,15.53,0,0,1,.12,1.87v4.64h-1.76V88h1.43l.25,1.54h.08a4.24,4.24,0,0,1,1.58-1.34,5,5,0,0,1,2.07-.41,4.34,4.34,0,0,1,3.57,1.54,7.95,7.95,0,0,1,0,8.62A4.36,4.36,0,0,1,280.16,99.47Zm-.25-10.24a3.17,3.17,0,0,0-2.58,1,4.86,4.86,0,0,0-.82,3v.38a5.48,5.48,0,0,0,.82,3.4A3.16,3.16,0,0,0,280,98a2.75,2.75,0,0,0,2.36-1.18,5.49,5.49,0,0,0,.85-3.26,5.28,5.28,0,0,0-.85-3.24A2.84,2.84,0,0,0,279.91,89.23Z"/><path class="cls-3" d="M289.83,99.27h-1.76v-16h1.76Z"/><path class="cls-3" d="M298.47,99.47A5.42,5.42,0,0,1,294.4,98a5.79,5.79,0,0,1-1.49-4.23,6.41,6.41,0,0,1,1.39-4.33A4.66,4.66,0,0,1,298,87.78a4.47,4.47,0,0,1,3.46,1.4,5.27,5.27,0,0,1,1.27,3.68v1.08h-8a4.36,4.36,0,0,0,1,3,3.64,3.64,0,0,0,2.77,1,9.55,9.55,0,0,0,3.71-.76v1.52a9.2,9.2,0,0,1-1.77.56A9.66,9.66,0,0,1,298.47,99.47ZM298,89.21a2.94,2.94,0,0,0-2.24.89,4,4,0,0,0-1,2.45h6.08a3.73,3.73,0,0,0-.74-2.48A2.68,2.68,0,0,0,298,89.21Z"/><path class="cls-3" d="M313.25,96.19A2.79,2.79,0,0,1,312,98.62a5.8,5.8,0,0,1-3.39.85,7.51,7.51,0,0,1-3.61-.71V97.18a9.37,9.37,0,0,0,1.8.65,8.14,8.14,0,0,0,1.85.23,4.34,4.34,0,0,0,2.12-.42,1.45,1.45,0,0,0,.16-2.43,9.77,9.77,0,0,0-2.3-1.11,13,13,0,0,1-2.31-1,3.05,3.05,0,0,1-1-1,2.54,2.54,0,0,1-.33-1.32,2.51,2.51,0,0,1,1.15-2.18,5.56,5.56,0,0,1,3.18-.8,9.62,9.62,0,0,1,3.67.74l-.63,1.39a8.77,8.77,0,0,0-3.17-.7,3.77,3.77,0,0,0-1.89.38,1.2,1.2,0,0,0-.64,1,1.27,1.27,0,0,0,.24.78,2.39,2.39,0,0,0,.77.6,19,19,0,0,0,2,.84,7.4,7.4,0,0,1,2.79,1.47A2.52,2.52,0,0,1,313.25,96.19Z"/><path class="cls-4" d="M204.92,305.27h-2.49v-10c0-1.19,0-2.14.08-2.84a6.85,6.85,0,0,1-.6.56c-.23.21-1,.86-2.38,1.95l-1.25-1.58,4.56-3.58h2.08Z"/><path class="cls-4" d="M210.05,298.66q0-9.11,7.41-9.1a9.29,9.29,0,0,1,2,.18v2.08a6.58,6.58,0,0,0-1.87-.24,4.92,4.92,0,0,0-3.75,1.34,6.52,6.52,0,0,0-1.35,4.29h.12a3.47,3.47,0,0,1,1.4-1.34,4.57,4.57,0,0,1,2.12-.47,4.19,4.19,0,0,1,3.29,1.3,5,5,0,0,1,1.18,3.51,5.31,5.31,0,0,1-1.36,3.85,4.91,4.91,0,0,1-3.72,1.42,5.23,5.23,0,0,1-2.9-.8,5.1,5.1,0,0,1-1.89-2.34A9.27,9.27,0,0,1,210.05,298.66Zm5.41,4.76a2.44,2.44,0,0,0,2-.83,3.59,3.59,0,0,0,.69-2.36,3.16,3.16,0,0,0-.65-2.1,2.45,2.45,0,0,0-2-.77,3.2,3.2,0,0,0-1.48.35,2.75,2.75,0,0,0-1.08.94,2.23,2.23,0,0,0-.39,1.23,3.94,3.94,0,0,0,.81,2.52A2.55,2.55,0,0,0,215.46,303.42Z"/><path class="cls-4" d="M229.19,294.38a6.35,6.35,0,0,1-.88,3.67,3,3,0,0,1-2.58,1.22,2.87,2.87,0,0,1-2.5-1.26,6.32,6.32,0,0,1-.89-3.63q0-4.85,3.39-4.85a3,3,0,0,1,2.56,1.26A6.12,6.12,0,0,1,229.19,294.38Zm-4.78,0a6.66,6.66,0,0,0,.31,2.36,1,1,0,0,0,1,.77c.93,0,1.4-1,1.4-3.13s-.47-3.13-1.4-3.13a1,1,0,0,0-1,.78A6.6,6.6,0,0,0,224.41,294.4Zm11.72-4.64-8.6,15.51h-2.06l8.61-15.51Zm3.16,10.84a6.21,6.21,0,0,1-.89,3.66,3,3,0,0,1-2.56,1.22,2.9,2.9,0,0,1-2.51-1.26,6.24,6.24,0,0,1-.89-3.62q0-4.85,3.4-4.85a3,3,0,0,1,2.54,1.25A6.13,6.13,0,0,1,239.29,300.6Zm-4.78,0a6.94,6.94,0,0,0,.31,2.36,1.06,1.06,0,0,0,1,.79c.92,0,1.39-1.05,1.39-3.15s-.47-3.11-1.39-3.11a1.07,1.07,0,0,0-1,.76A6.84,6.84,0,0,0,234.51,300.6Z"/><path class="cls-3" d="M248,290.22h4.38a8.45,8.45,0,0,1,4.47.9,3.12,3.12,0,0,1,1.38,2.83,3.23,3.23,0,0,1-.77,2.21,3.77,3.77,0,0,1-2.24,1.12v.1q3.53.6,3.53,3.61a3.83,3.83,0,0,1-1.41,3.15,6.11,6.11,0,0,1-3.93,1.13H248Zm1.81,6.44h3a5,5,0,0,0,2.75-.58,2.22,2.22,0,0,0,.83-2,2,2,0,0,0-.93-1.82,5.91,5.91,0,0,0-3-.56h-2.65Zm0,1.49v5.63H253a4.72,4.72,0,0,0,2.83-.71,2.57,2.57,0,0,0,.95-2.21,2.31,2.31,0,0,0-1-2.06,5.41,5.41,0,0,0-3-.65Z"/><path class="cls-3" d="M268.92,305.27l-.35-1.61h-.09a4.88,4.88,0,0,1-1.73,1.44,5.47,5.47,0,0,1-2.16.37,3.94,3.94,0,0,1-2.71-.86,3.1,3.1,0,0,1-1-2.46c0-2.28,1.87-3.47,5.63-3.58l2-.06v-.7a2.75,2.75,0,0,0-.59-2,2.43,2.43,0,0,0-1.88-.64,7.84,7.84,0,0,0-3.29.87l-.54-1.31a8.41,8.41,0,0,1,1.88-.71,8.55,8.55,0,0,1,2.06-.26,4.51,4.51,0,0,1,3.08.9,3.66,3.66,0,0,1,1,2.87v7.7Zm-4-1.21a3.65,3.65,0,0,0,2.58-.87,3.17,3.17,0,0,0,.94-2.45v-1l-1.76.07a6.51,6.51,0,0,0-3,.64,1.88,1.88,0,0,0-.93,1.74,1.75,1.75,0,0,0,.58,1.41A2.46,2.46,0,0,0,264.94,304.06Z"/><path class="cls-3" d="M281.81,305.27V298a2.91,2.91,0,0,0-.65-2.06,2.7,2.7,0,0,0-2-.68,3.4,3.4,0,0,0-2.67,1,4.71,4.71,0,0,0-.85,3.16v5.92h-1.76V294h1.43l.29,1.54h.08a3.64,3.64,0,0,1,1.52-1.29,5.16,5.16,0,0,1,2.18-.46,4.48,4.48,0,0,1,3.16,1,4.12,4.12,0,0,1,1.06,3.14v7.36Z"/><path class="cls-3" d="M294.34,305.27l-.35-1.61h-.09a4.88,4.88,0,0,1-1.73,1.44,5.47,5.47,0,0,1-2.16.37,3.94,3.94,0,0,1-2.71-.86,3.1,3.1,0,0,1-1-2.46c0-2.28,1.87-3.47,5.63-3.58l2-.06v-.7a2.75,2.75,0,0,0-.59-2,2.43,2.43,0,0,0-1.88-.64,7.84,7.84,0,0,0-3.29.87l-.54-1.31a8.41,8.41,0,0,1,1.88-.71,8.55,8.55,0,0,1,2.06-.26,4.51,4.51,0,0,1,3.08.9,3.66,3.66,0,0,1,1,2.87v7.7Zm-4-1.21a3.65,3.65,0,0,0,2.58-.87,3.17,3.17,0,0,0,.94-2.45v-1l-1.76.07a6.51,6.51,0,0,0-3,.64,1.88,1.88,0,0,0-.93,1.74,1.75,1.75,0,0,0,.58,1.41A2.46,2.46,0,0,0,290.36,304.06Z"/><path class="cls-3" d="M307.23,305.27V298a2.91,2.91,0,0,0-.65-2.06,2.7,2.7,0,0,0-2-.68,3.4,3.4,0,0,0-2.67,1,4.71,4.71,0,0,0-.85,3.16v5.92h-1.76V294h1.43l.29,1.54h.08a3.64,3.64,0,0,1,1.52-1.29,5.16,5.16,0,0,1,2.18-.46,4.48,4.48,0,0,1,3.16,1,4.12,4.12,0,0,1,1.06,3.14v7.36Z"/><path class="cls-3" d="M319.76,305.27l-.35-1.61h-.09a4.88,4.88,0,0,1-1.73,1.44,5.47,5.47,0,0,1-2.16.37,3.92,3.92,0,0,1-2.71-.86,3.1,3.1,0,0,1-1-2.46c0-2.28,1.87-3.47,5.63-3.58l2-.06v-.7a2.75,2.75,0,0,0-.59-2,2.43,2.43,0,0,0-1.88-.64,7.84,7.84,0,0,0-3.29.87l-.54-1.31a8.41,8.41,0,0,1,1.88-.71,8.55,8.55,0,0,1,2.06-.26,4.51,4.51,0,0,1,3.08.9,3.66,3.66,0,0,1,1,2.87v7.7Zm-4-1.21a3.65,3.65,0,0,0,2.58-.87,3.17,3.17,0,0,0,.94-2.45v-1l-1.76.07a6.51,6.51,0,0,0-3,.64,1.88,1.88,0,0,0-.93,1.74,1.72,1.72,0,0,0,.58,1.41A2.46,2.46,0,0,0,315.78,304.06Z"/><path class="cls-3" d="M332.19,302.19a2.79,2.79,0,0,1-1.21,2.43,5.8,5.8,0,0,1-3.39.85,7.48,7.48,0,0,1-3.61-.71v-1.58a9.37,9.37,0,0,0,1.8.65,8.07,8.07,0,0,0,1.85.23,4.34,4.34,0,0,0,2.12-.42,1.4,1.4,0,0,0,.74-1.31,1.38,1.38,0,0,0-.59-1.12,9.44,9.44,0,0,0-2.29-1.11,12.64,12.64,0,0,1-2.31-1,3,3,0,0,1-1-1,2.54,2.54,0,0,1-.33-1.32,2.51,2.51,0,0,1,1.15-2.18,5.54,5.54,0,0,1,3.18-.8,9.62,9.62,0,0,1,3.67.74l-.63,1.39a8.77,8.77,0,0,0-3.17-.7,3.77,3.77,0,0,0-1.89.38,1.2,1.2,0,0,0-.64,1.05,1.27,1.27,0,0,0,.24.78,2.39,2.39,0,0,0,.77.6,18.12,18.12,0,0,0,2,.84,7.4,7.4,0,0,1,2.79,1.47A2.52,2.52,0,0,1,332.19,302.19Z"/><path class="cls-3" d="M190.22,20.32h-1.83l3.28-15.51h7.8l-.32,1.62h-6L192,12.09h5.6l-.34,1.62h-5.61Z"/><path class="cls-3" d="M205.72,8.48a4.76,4.76,0,0,1,1.27.15l-.38,1.59a4.84,4.84,0,0,0-1.12-.14,3,3,0,0,0-1.8.64,5.48,5.48,0,0,0-1.48,1.77,9,9,0,0,0-.93,2.51l-1.13,5.32h-1.78l2.48-11.63h1.47l-.23,2.16h.11a10,10,0,0,1,1.26-1.45,4.13,4.13,0,0,1,1-.68A3,3,0,0,1,205.72,8.48Z"/><path class="cls-3" d="M211.13,8.69l-1.59,7.38a7.72,7.72,0,0,0-.19,1.47,1.36,1.36,0,0,0,1.55,1.52,3.11,3.11,0,0,0,1.84-.64,5.63,5.63,0,0,0,1.59-1.82,9.76,9.76,0,0,0,1-2.87l1.06-5h1.76l-2.45,11.63h-1.47l.23-2.15h-.12a7,7,0,0,1-2,1.84,4,4,0,0,1-2,.52,3,3,0,0,1-2.13-.73,2.77,2.77,0,0,1-.78-2.11,9.55,9.55,0,0,1,.24-1.82l1.54-7.18Z"/><path class="cls-3" d="M221.29,20.32h-1.78L222,8.69h1.78Zm1.2-14.6a1.38,1.38,0,0,1,.34-1,1.13,1.13,0,0,1,.88-.37.83.83,0,0,1,.93,1,1.43,1.43,0,0,1-.35,1,1.06,1.06,0,0,1-.82.4,1,1,0,0,1-.7-.26A.94.94,0,0,1,222.49,5.72Z"/><path class="cls-3" d="M228.59,19.08a5.54,5.54,0,0,0,1.53-.28v1.37a4.79,4.79,0,0,1-.89.26,4.62,4.62,0,0,1-.85.1,2.94,2.94,0,0,1-2-.63,2.4,2.4,0,0,1-.71-1.88,7.43,7.43,0,0,1,.19-1.59L227.18,10h-1.82l.14-.77,2-.83L228.79,6h1l-.58,2.67h2.9L231.88,10H229l-1.37,6.41a8.13,8.13,0,0,0-.19,1.4,1.27,1.27,0,0,0,.31.91A1.15,1.15,0,0,0,228.59,19.08Z"/><path class="cls-3" d="M242.46,20.53a4.33,4.33,0,0,1-3.2-1.13,4.38,4.38,0,0,1-1.13-3.21,9.72,9.72,0,0,1,.78-3.91,6.72,6.72,0,0,1,2.17-2.8,5.25,5.25,0,0,1,3.12-1A7.78,7.78,0,0,1,247,9l-.5,1.5a6,6,0,0,0-2.32-.54,3.33,3.33,0,0,0-2.17.81,5.34,5.34,0,0,0-1.54,2.26,8.67,8.67,0,0,0-.56,3.14,3,3,0,0,0,.71,2.12,2.55,2.55,0,0,0,2,.75,4.82,4.82,0,0,0,1.44-.21,13.55,13.55,0,0,0,1.34-.5v1.52A6.47,6.47,0,0,1,242.46,20.53Z"/><path class="cls-3" d="M253.69,8.55a4.24,4.24,0,0,1,3.19,1.19A4.51,4.51,0,0,1,258,13a9.41,9.41,0,0,1-.76,3.77,6.58,6.58,0,0,1-2.07,2.74,4.85,4.85,0,0,1-3,1,4.21,4.21,0,0,1-3.19-1.2A4.53,4.53,0,0,1,247.91,16a9.35,9.35,0,0,1,.78-3.79,6.41,6.41,0,0,1,2.08-2.72A4.83,4.83,0,0,1,253.69,8.55Zm2.51,4.23a2.88,2.88,0,0,0-.67-2,2.25,2.25,0,0,0-1.8-.76,3.07,3.07,0,0,0-2.07.79A5,5,0,0,0,250.24,13a9,9,0,0,0-.51,3.1,3.13,3.13,0,0,0,.68,2.15,2.47,2.47,0,0,0,1.94.76,2.92,2.92,0,0,0,2-.78A5,5,0,0,0,255.7,16,9.92,9.92,0,0,0,256.2,12.78Z"/><path class="cls-3" d="M266.79,20.32,268.36,13a9,9,0,0,0,.22-1.53,1.52,1.52,0,0,0-.38-1.07A1.57,1.57,0,0,0,267,10a3.2,3.2,0,0,0-1.85.63,5.84,5.84,0,0,0-1.58,1.82,9.62,9.62,0,0,0-1,2.85l-1.07,5h-1.78l2.48-11.63h1.47l-.23,2.16h.11a6.93,6.93,0,0,1,2-1.83,4,4,0,0,1,2-.54,3,3,0,0,1,2.13.74,2.7,2.7,0,0,1,.78,2.06,8.29,8.29,0,0,1-.25,1.91l-1.51,7.13Z"/><path class="cls-3" d="M279.4,17a3.12,3.12,0,0,1-1.17,2.59,5.3,5.3,0,0,1-3.31.92,7,7,0,0,1-3.23-.73V18.13a7,7,0,0,0,1.6.69,5.91,5.91,0,0,0,1.59.24,3.24,3.24,0,0,0,2-.53,1.63,1.63,0,0,0,.68-1.36,1.47,1.47,0,0,0-.37-1A7.75,7.75,0,0,0,275.6,15a6.39,6.39,0,0,1-2-1.52,2.8,2.8,0,0,1-.58-1.76,2.91,2.91,0,0,1,1.08-2.36,4.22,4.22,0,0,1,2.82-.9,8.09,8.09,0,0,1,3.5.79l-.57,1.45-.6-.26A5.77,5.77,0,0,0,277,10a2.35,2.35,0,0,0-1.55.46,1.56,1.56,0,0,0-.19,2.21,6.47,6.47,0,0,0,1.56,1.1,8.83,8.83,0,0,1,1.63,1.09,3,3,0,0,1,.73,1A2.65,2.65,0,0,1,279.4,17Z"/><path class="cls-3" d="M285.69,8.69l-1.59,7.38a7.72,7.72,0,0,0-.19,1.47,1.36,1.36,0,0,0,1.56,1.52,3.11,3.11,0,0,0,1.83-.64,5.63,5.63,0,0,0,1.59-1.82,9.76,9.76,0,0,0,1.05-2.87l1.06-5h1.77l-2.46,11.63h-1.47l.23-2.15H289A7,7,0,0,1,287,20a4,4,0,0,1-1.95.52,3,3,0,0,1-2.13-.73,2.77,2.77,0,0,1-.78-2.11,9.55,9.55,0,0,1,.24-1.82l1.55-7.18Z"/><path class="cls-3" d="M300.83,20.32,302.4,13a9.5,9.5,0,0,0,.19-1.43,1.82,1.82,0,0,0-.33-1.16,1.37,1.37,0,0,0-1.12-.41,2.87,2.87,0,0,0-1.74.63,5.61,5.61,0,0,0-1.48,1.82,10.68,10.68,0,0,0-1,2.85l-1.07,5h-1.78l2.48-11.63H298l-.24,2.16h.11A6.82,6.82,0,0,1,299.74,9a3.68,3.68,0,0,1,1.89-.55,2.41,2.41,0,0,1,1.85.69,3.11,3.11,0,0,1,.76,1.92h.09a6.87,6.87,0,0,1,1.94-2,4,4,0,0,1,2.08-.64,2.84,2.84,0,0,1,2.08.72,2.77,2.77,0,0,1,.74,2.1,10.48,10.48,0,0,1-.23,1.89l-1.53,7.13h-1.8L309.18,13a9.77,9.77,0,0,0,.21-1.55A1.34,1.34,0,0,0,307.87,10a2.86,2.86,0,0,0-1.7.61,5.38,5.38,0,0,0-1.46,1.75,8.89,8.89,0,0,0-1,2.68l-1.14,5.3Z"/><path class="cls-3" d="M318.17,20.53a3.08,3.08,0,0,1-1.8-.53,3.4,3.4,0,0,1-1.2-1.48h-.1l-.05.4c0,.18-.06.43-.11.74s-.46,2.28-1.21,5.88h-1.76L315.5,8.69H317l-.28,2.22h.08c1.27-1.6,2.59-2.41,4-2.41a2.79,2.79,0,0,1,2.29,1,4.47,4.47,0,0,1,.84,2.9,11.27,11.27,0,0,1-.73,4.13,6.84,6.84,0,0,1-2,2.92A4.51,4.51,0,0,1,318.17,20.53Zm2-10.55a3.06,3.06,0,0,0-2.08,1,7.12,7.12,0,0,0-1.67,2.53,8.13,8.13,0,0,0-.62,3.13,2.52,2.52,0,0,0,.58,1.79,2.28,2.28,0,0,0,1.71.62A2.79,2.79,0,0,0,320,18.2a5.88,5.88,0,0,0,1.46-2.45,10.08,10.08,0,0,0,.56-3.36C322,10.78,321.41,10,320.15,10Z"/><path class="cls-3" d="M329.12,19.08a5.54,5.54,0,0,0,1.53-.28v1.37a4.79,4.79,0,0,1-.89.26,4.53,4.53,0,0,1-.85.1,3,3,0,0,1-2-.63,2.4,2.4,0,0,1-.71-1.88,8.14,8.14,0,0,1,.19-1.59L327.71,10h-1.82l.15-.77,2-.83L329.32,6h1l-.58,2.67h2.91L332.41,10h-2.89l-1.37,6.41a7.23,7.23,0,0,0-.19,1.4,1.26,1.26,0,0,0,.3.91A1.17,1.17,0,0,0,329.12,19.08Z"/><path class="cls-3" d="M334.39,20.32H332.6l2.49-11.63h1.78Zm1.19-14.6a1.43,1.43,0,0,1,.34-1,1.13,1.13,0,0,1,.88-.37.83.83,0,0,1,.94,1,1.44,1.44,0,0,1-.36,1,1,1,0,0,1-.82.4,1,1,0,0,1-.7-.26A1,1,0,0,1,335.58,5.72Z"/><path class="cls-3" d="M344.32,8.55a4.23,4.23,0,0,1,3.18,1.19A4.48,4.48,0,0,1,348.67,13a9.42,9.42,0,0,1-.77,3.77,6.58,6.58,0,0,1-2.07,2.74,4.85,4.85,0,0,1-2.95,1,4.21,4.21,0,0,1-3.19-1.2A4.53,4.53,0,0,1,338.53,16a9.35,9.35,0,0,1,.78-3.79A6.35,6.35,0,0,1,341.4,9.5,4.81,4.81,0,0,1,344.32,8.55Zm2.5,4.23a2.92,2.92,0,0,0-.66-2,2.28,2.28,0,0,0-1.8-.76,3.11,3.11,0,0,0-2.08.79A5.08,5.08,0,0,0,340.86,13a9.2,9.2,0,0,0-.5,3.1,3.13,3.13,0,0,0,.67,2.15A2.49,2.49,0,0,0,343,19a2.92,2.92,0,0,0,2-.78,5,5,0,0,0,1.38-2.2A10.2,10.2,0,0,0,346.82,12.78Z"/><path class="cls-3" d="M357.42,20.32,359,13a9.75,9.75,0,0,0,.21-1.53,1.52,1.52,0,0,0-.38-1.07,1.57,1.57,0,0,0-1.2-.4,3.17,3.17,0,0,0-1.84.63,5.59,5.59,0,0,0-1.58,1.82,9.62,9.62,0,0,0-1,2.85l-1.07,5h-1.78l2.48-11.63h1.48L354,10.85h.11a7,7,0,0,1,2-1.83,3.92,3.92,0,0,1,2-.54,3,3,0,0,1,2.13.74,2.7,2.7,0,0,1,.78,2.06,8.81,8.81,0,0,1-.24,1.91l-1.52,7.13Z"/><path class="cls-3" d="M370.27,20.32h-1.78L371,8.69h1.78Zm1.2-14.6a1.43,1.43,0,0,1,.34-1,1.13,1.13,0,0,1,.88-.37.83.83,0,0,1,.94,1,1.44,1.44,0,0,1-.36,1,1.06,1.06,0,0,1-.82.4,1,1,0,0,1-.7-.26A1,1,0,0,1,371.47,5.72Z"/><path class="cls-3" d="M381.12,20.32,382.69,13a9.75,9.75,0,0,0,.21-1.53,1.52,1.52,0,0,0-.38-1.07,1.57,1.57,0,0,0-1.2-.4,3.17,3.17,0,0,0-1.84.63,5.59,5.59,0,0,0-1.58,1.82,9.62,9.62,0,0,0-1,2.85l-1.07,5H374l2.48-11.63H378l-.24,2.16h.11a7,7,0,0,1,2-1.83,3.92,3.92,0,0,1,2-.54,3,3,0,0,1,2.13.74,2.7,2.7,0,0,1,.78,2.06,8.81,8.81,0,0,1-.24,1.91l-1.52,7.13Z"/><path class="cls-3" d="M397.81,20.32H396l2.08-9.68q.63-2.78.93-3.81A8.17,8.17,0,0,1,397.52,8l-1.89,1.17-.85-1.35,4.77-3h1.58Z"/><path class="cls-3" d="M414.86,9.35a16.74,16.74,0,0,1-.6,4.31,14.21,14.21,0,0,1-1.56,3.82,6.25,6.25,0,0,1-2.35,2.31,6.62,6.62,0,0,1-3.21.74,8.44,8.44,0,0,1-2.57-.36V18.5a8,8,0,0,0,2.61.5,4.4,4.4,0,0,0,3.47-1.5,10.22,10.22,0,0,0,2-4.68h-.11a4,4,0,0,1-1.4,1.26,4,4,0,0,1-1.92.46,3.6,3.6,0,0,1-2.77-1,4.31,4.31,0,0,1-1-3.06,6.42,6.42,0,0,1,.68-3,5.11,5.11,0,0,1,4.66-2.87,3.71,3.71,0,0,1,3,1.21A5.3,5.3,0,0,1,414.86,9.35Zm-4.09-3.26a3.13,3.13,0,0,0-2.56,1.2,4.78,4.78,0,0,0-1,3.08,3.08,3.08,0,0,0,.58,2,2.12,2.12,0,0,0,1.72.7,3.52,3.52,0,0,0,1.49-.31,3.25,3.25,0,0,0,1.15-.86,4,4,0,0,0,.69-1.21,5.26,5.26,0,0,0,.21-1.6,3.49,3.49,0,0,0-.62-2.2A2.05,2.05,0,0,0,410.77,6.09Z"/><path class="cls-3" d="M427.09,9.56a18.42,18.42,0,0,1-.84,5.72A8.9,8.9,0,0,1,424,19.2a4.75,4.75,0,0,1-3.33,1.33,3.36,3.36,0,0,1-2.87-1.35,6.57,6.57,0,0,1-1-3.92,17.06,17.06,0,0,1,.86-5.46A9.22,9.22,0,0,1,420,5.89a4.67,4.67,0,0,1,3.26-1.32Q427.1,4.57,427.09,9.56Zm-4-3.47a2.9,2.9,0,0,0-2.22,1.23,9.37,9.37,0,0,0-1.65,3.43,16.18,16.18,0,0,0-.63,4.49,6,6,0,0,0,.53,2.8,1.8,1.8,0,0,0,1.71,1,2.9,2.9,0,0,0,2.22-1.21,9.25,9.25,0,0,0,1.59-3.48,18.81,18.81,0,0,0,.6-4.81C425.26,7.24,424.54,6.09,423.11,6.09Z"/><path class="cls-3" d="M435.33,4.57a4.2,4.2,0,0,1,2.88.91,3.19,3.19,0,0,1,1,2.5,3.67,3.67,0,0,1-.82,2.39,7.44,7.44,0,0,1-2.82,1.87A5.53,5.53,0,0,1,437.5,14a4,4,0,0,1,.57,2.14,4.23,4.23,0,0,1-.64,2.31A4.06,4.06,0,0,1,435.6,20a6.77,6.77,0,0,1-2.81.54,4.51,4.51,0,0,1-3.16-1,3.66,3.66,0,0,1-1.14-2.84,4,4,0,0,1,1-2.71,7.79,7.79,0,0,1,3.15-2,4.55,4.55,0,0,1-1.44-1.53,3.74,3.74,0,0,1-.43-1.82A3.83,3.83,0,0,1,433,5.08,5.34,5.34,0,0,1,435.33,4.57Zm-1.41,8.33a6.49,6.49,0,0,0-2.78,1.52,3.06,3.06,0,0,0-.81,2.15,2.33,2.33,0,0,0,.74,1.8A2.68,2.68,0,0,0,433,19a3.39,3.39,0,0,0,2.36-.79,2.63,2.63,0,0,0,.88-2.08,3.12,3.12,0,0,0-.55-1.84A4.8,4.8,0,0,0,433.92,12.9Zm1.28-6.81a2.69,2.69,0,0,0-1.93.7,2.46,2.46,0,0,0-.72,1.86,2.87,2.87,0,0,0,.41,1.53,4.09,4.09,0,0,0,1.35,1.23A6.38,6.38,0,0,0,436.73,10a2.63,2.63,0,0,0,.71-1.85,1.94,1.94,0,0,0-.61-1.51A2.3,2.3,0,0,0,435.2,6.09Z"/><polygon class="cls-1" points="504.59 118.87 486.62 141.06 486.62 141.06 504.59 118.87"/><polygon class="cls-1" points="416.12 219.09 360.26 274.96 416.12 219.09 416.12 219.09"/><path class="cls-5" d="M506.14,181.72c0,.09,0,.18,0,.27h79a127.73,127.73,0,0,0-9.58-49.32L502.3,162.26A52.48,52.48,0,0,1,506.14,181.72Z"/><path class="cls-6" d="M486.62,141.06a52.86,52.86,0,0,1,15.68,21.2l73.25-29.59a126.55,126.55,0,0,0-39.22-53l-31.74,39.2Z"/><path class="cls-7" d="M453.74,234.65a52.49,52.49,0,0,1-37.62-15.56L360.26,275a131.27,131.27,0,0,0,93.22,38.68,132.68,132.68,0,0,0,13.59-.69l-8.31-78.57C457.11,234.54,455.43,234.64,453.74,234.65Z"/><path class="cls-8" d="M585.13,182h-79a52.37,52.37,0,0,1-8.88,29.28l65,44.85A131.08,131.08,0,0,0,585.13,182Z"/><path class="cls-9" d="M400.82,182.25a52.66,52.66,0,0,1,85.8-41.19l18-22.19,31.74-39.2h0c-24.86-20.13-50.86-29.34-82.85-29.34A131.66,131.66,0,0,0,360.26,275l55.86-55.87A52.46,52.46,0,0,1,400.82,182.25Z"/><path class="cls-10" d="M458.76,234.38,467.07,313a131.6,131.6,0,0,0,95.22-56.83l-65-44.85A52.64,52.64,0,0,1,458.76,234.38Z"/><polygon class="cls-11" points="458.76 234.38 467.07 312.95 458.76 234.38 458.76 234.38"/><polygon class="cls-11" points="497.25 211.27 562.29 256.12 497.25 211.27 497.25 211.27"/></g></g></svg>