<svg xmlns="http://www.w3.org/2000/svg" width="399.365" height="310.99" viewBox="0 0 399.365 310.99">
  <g id="Group_4764" data-name="Group 4764" transform="translate(-296 -836.805)">
    <g id="Group_4416" data-name="Group 4416" transform="translate(-166 378.184)">
      <path id="Path_4133" data-name="Path 4133" d="M493,603.184v25h50" fill="none" stroke="#85b9b9" stroke-linecap="round" stroke-linejoin="round" stroke-width="1" fill-rule="evenodd"/>
      <circle id="Ellipse_97" data-name="Ellipse 97" cx="4" cy="4" r="4" transform="translate(541 624.184)" fill="#85b9b9"/>
    </g>
    <path id="Path_4134" data-name="Path 4134" stroke="#85b9b9" d="M742.886,510.914h-25v50" fill="none" transform="translate(-166 378.184)" stroke-linecap="round" stroke-linejoin="round" stroke-width="1" fill-rule="evenodd"/>
    <circle id="Ellipse_98" data-name="Ellipse 98" cx="4" cy="4" r="4" transform="translate(547.887 937.098)" fill="#85b9b9"/>
    <path id="Path_4135" data-name="Path 4135" stroke="#85b9b9" d="M570.886,510.914h25v50" fill="none" transform="translate(-166 378.184)" stroke-linecap="round" stroke-linejoin="round" stroke-width="1" fill-rule="evenodd"/>
    <circle id="Ellipse_99" data-name="Ellipse 99" cx="4" cy="4" r="4" transform="translate(425.887 937.098)" fill="#85b9b9"/>
    <line id="Line_290" data-name="Line 290" y2="59.73" transform="translate(496.373 879.368)" fill="none" stroke="#85b9b9" stroke-linecap="round" stroke-linejoin="round" stroke-width="1"/>
    <circle id="Ellipse_100" data-name="Ellipse 100" cx="4" cy="4" r="4" transform="translate(492.373 937.098)" fill="#85b9b9"/>
    <g id="Group_4417" data-name="Group 4417" transform="translate(-166 378.184)">
      <line id="Line_291" data-name="Line 291" x2="50" transform="translate(493 678.266)" fill="none" stroke="#85b9b9" stroke-linecap="round" stroke-linejoin="round" stroke-width="1"/>
      <circle id="Ellipse_101" data-name="Ellipse 101" cx="4" cy="4" r="4" transform="translate(541 674.266)" fill="#85b9b9"/>
    </g>
    <g id="Group_4418" data-name="Group 4418" transform="translate(-166 378.184)">
      <path id="Path_4136" data-name="Path 4136" d="M831,603.184v25H781" fill="none" stroke="#85b9b9" stroke-linecap="round" stroke-linejoin="round" stroke-width="1" fill-rule="evenodd"/>
      <circle id="Ellipse_102" data-name="Ellipse 102" cx="4" cy="4" r="4" transform="translate(775 624.184)" fill="#85b9b9"/>
    </g>
    <g id="Group_4419" data-name="Group 4419" transform="translate(-166 378.184)">
      <line id="Line_292" data-name="Line 292" x1="50" transform="translate(781 678.266)" fill="none" stroke="#85b9b9" stroke-linecap="round" stroke-linejoin="round" stroke-width="1"/>
      <circle id="Ellipse_103" data-name="Ellipse 103" cx="4" cy="4" r="4" transform="translate(775 674.266)" fill="#85b9b9"/>
    </g>
    <path id="Path_4137" data-name="Path 4137" d="M605.626,756.609h-1.714l-8.547,9.47a2.111,2.111,0,0,0,1.528,3.532H735.2a2.112,2.112,0,0,0,1.528-3.532l-7.686-8.814h-1.666" transform="translate(-166 378.184)" fill="#c8dfdf"/>
    <g id="Group_4420" data-name="Group 4420" transform="translate(-166 378.184)">
      <path id="Path_4138" data-name="Path 4138" d="M645.682,686.316v20.435h12.026a8.409,8.409,0,0,1,16.817,0h12.027V686.316Z" fill="#c8dfdf"/>
    </g>
    <path id="Path_4139" data-name="Path 4139" d="M618.9,734.867v-7.681h94.51v7.681" transform="translate(-166 378.184)" fill="none" stroke="#218080" stroke-linecap="round" stroke-linejoin="round" stroke-width="3"/>
    <line id="Line_293" data-name="Line 293" y1="25.721" transform="translate(479.682 1072.075)" fill="none" stroke="#218080" stroke-linecap="round" stroke-linejoin="round" stroke-width="3"/>
    <line id="Line_294" data-name="Line 294" y2="25.721" transform="translate(520.552 1072.075)" fill="none" stroke="#218080" stroke-linecap="round" stroke-linejoin="round" stroke-width="3"/>
    <circle id="Ellipse_104" data-name="Ellipse 104" cx="8.274" cy="8.274" r="8.274" transform="translate(491.843 1076.661)" stroke-width="3" stroke="#218080" stroke-linecap="round" stroke-linejoin="round" fill="none"/>
    <g id="Group_4421" data-name="Group 4421" transform="translate(-166 378.184)">
      <path id="Path_4140" data-name="Path 4140" d="M752.646,759.655c-5.948,0-10.978-3.428-12.633-6.682a3.708,3.708,0,0,0-.579,1.947c0,3.666,5.915,8.826,13.212,8.826s13.212-5.16,13.212-8.826a3.707,3.707,0,0,0-.579-1.947C763.623,756.227,758.594,759.655,752.646,759.655Z" fill="#c8dfdf"/>
    </g>
    <path id="Path_4141" data-name="Path 4141" d="M764.91,750.606c0,3.4-5.491,8.193-12.264,8.193s-12.265-4.789-12.265-8.193,5.491-6.163,12.265-6.163S764.91,747.2,764.91,750.606Z" transform="translate(-166 378.184)" fill="none" stroke="#218080" stroke-linecap="round" stroke-linejoin="round" stroke-width="3"/>
    <g id="Group_4422" data-name="Group 4422" transform="translate(-166 378.184)">
      <path id="Path_4142" data-name="Path 4142" d="M731.822,755.629l-18.393-20.762H618.8l-18.393,20.762Z" fill="none" stroke="#218080" stroke-linecap="round" stroke-linejoin="round" stroke-width="3"/>
    </g>
    <g id="Group_4425" data-name="Group 4425" transform="translate(-166 378.184)">
      <line id="Line_295" data-name="Line 295" x2="18.458" transform="translate(656.614 748.697)" fill="none" stroke="#218080" stroke-linecap="round" stroke-linejoin="round" stroke-width="3"/>
      <g id="Group_4424" data-name="Group 4424">
        <g id="Group_4423" data-name="Group 4423">
          <line id="Line_296" data-name="Line 296" x2="5.104" transform="translate(622.571 741.821)" fill="none" stroke="#218080" stroke-linecap="round" stroke-linejoin="round" stroke-width="3"/>
          <line id="Line_297" data-name="Line 297" x2="5.104" transform="translate(634.284 741.821)" fill="none" stroke="#218080" stroke-linecap="round" stroke-linejoin="round" stroke-width="3"/>
          <line id="Line_298" data-name="Line 298" x2="5.104" transform="translate(645.996 741.821)" fill="none" stroke="#218080" stroke-linecap="round" stroke-linejoin="round" stroke-width="3"/>
          <line id="Line_299" data-name="Line 299" x2="5.104" transform="translate(657.708 741.821)" fill="none" stroke="#218080" stroke-linecap="round" stroke-linejoin="round" stroke-width="3"/>
          <line id="Line_300" data-name="Line 300" x2="5.104" transform="translate(669.421 741.821)" fill="none" stroke="#218080" stroke-linecap="round" stroke-linejoin="round" stroke-width="3"/>
          <line id="Line_301" data-name="Line 301" x2="5.104" transform="translate(681.133 741.821)" fill="none" stroke="#218080" stroke-linecap="round" stroke-linejoin="round" stroke-width="3"/>
          <line id="Line_302" data-name="Line 302" x2="5.104" transform="translate(692.845 741.821)" fill="none" stroke="#218080" stroke-linecap="round" stroke-linejoin="round" stroke-width="3"/>
          <line id="Line_303" data-name="Line 303" x2="5.104" transform="translate(704.558 741.821)" fill="none" stroke="#218080" stroke-linecap="round" stroke-linejoin="round" stroke-width="3"/>
        </g>
        <line id="Line_304" data-name="Line 304" x2="5.769" transform="translate(616.905 748.697)" fill="none" stroke="#218080" stroke-linecap="round" stroke-linejoin="round" stroke-width="3"/>
        <line id="Line_305" data-name="Line 305" x2="5.769" transform="translate(630.141 748.697)" fill="none" stroke="#218080" stroke-linecap="round" stroke-linejoin="round" stroke-width="3"/>
        <line id="Line_306" data-name="Line 306" x2="5.769" transform="translate(643.378 748.697)" fill="none" stroke="#218080" stroke-linecap="round" stroke-linejoin="round" stroke-width="3"/>
        <line id="Line_307" data-name="Line 307" x2="5.769" transform="translate(683.087 748.697)" fill="none" stroke="#218080" stroke-linecap="round" stroke-linejoin="round" stroke-width="3"/>
        <line id="Line_308" data-name="Line 308" x2="5.769" transform="translate(696.324 748.697)" fill="none" stroke="#218080" stroke-linecap="round" stroke-linejoin="round" stroke-width="3"/>
        <line id="Line_309" data-name="Line 309" x2="5.769" transform="translate(709.56 748.697)" fill="none" stroke="#218080" stroke-linecap="round" stroke-linejoin="round" stroke-width="3"/>
      </g>
    </g>
    <path id="Path_4143" data-name="Path 4143" d="M733.863,764.561l-.952-2.189H599.475l-.941,2.189Z" transform="translate(-166 378.184)" fill="none"/>
    <line id="Line_310" data-name="Line 310" x2="131.411" transform="translate(434.412 1141.141)" fill="none" stroke="#218080" stroke-linecap="round" stroke-linejoin="round" stroke-width="3"/>
    <path id="Path_4144" data-name="Path 4144" d="M599.653,574.35l21.729,111.966H571.965s-7.05-.386-7.05-7.05V581.4s-.09-7.051,7.05-7.051Z" transform="translate(-166 378.184)" fill="#c8dfdf"/>
    <rect id="Rectangle_576" data-name="Rectangle 576" width="201.992" height="12.195" transform="translate(399.122 952.797)" fill="#c8dfdf"/>
    <rect id="Rectangle_577" data-name="Rectangle 577" width="201.992" height="12.195" transform="translate(399.122 1052.09)" fill="#c8dfdf"/>
    <rect id="Rectangle_578" data-name="Rectangle 578" width="201.992" height="112.132" rx="3.184" transform="translate(399.122 952.368)" stroke-width="3" stroke="#218080" stroke-linecap="round" stroke-linejoin="round" fill="none"/>
    <line id="Line_311" data-name="Line 311" x2="186.842" transform="translate(406.696 1051.876)" fill="none" stroke="#218080" stroke-linecap="round" stroke-linejoin="round" stroke-width="3"/>
    <line id="Line_312" data-name="Line 312" x2="186.842" transform="translate(406.696 964.992)" fill="none" stroke="#218080" stroke-linecap="round" stroke-linejoin="round" stroke-width="3"/>
    <circle id="Ellipse_105" data-name="Ellipse 105" cx="4.134" cy="4.134" r="4.134" transform="translate(495.826 1010.863)" fill="#c8dfdf"/>
    <line id="Line_313" data-name="Line 313" y2="8.942" transform="translate(499.96 1014.996)" fill="none" stroke="#218080" stroke-linecap="round" stroke-linejoin="round" stroke-width="3"/>
    <path id="Path_4145" data-name="Path 4145" d="M653.723,649.709V632.336a3.553,3.553,0,0,0-1.039-2.51l-3.127-3.126a5.073,5.073,0,0,0-1.491,3.6v22.139a5.09,5.09,0,0,0,5.09,5.09h25.86a5.073,5.073,0,0,0,3.6-1.491l-3.126-3.127a3.552,3.552,0,0,0-2.51-1.039H655.885A2.162,2.162,0,0,1,653.723,649.709Z" transform="translate(-166 378.184)" fill="#c8dfdf"/>
    <g id="Group_4426" data-name="Group 4426" transform="translate(-166 378.184)">
      <path id="Path_4146" data-name="Path 4146" d="M654.877,618.02v-6.892a11.24,11.24,0,0,1,22.48,0v6.892" fill="none" stroke="#218080" stroke-linecap="round" stroke-linejoin="round" stroke-width="3"/>
      <rect id="Rectangle_579" data-name="Rectangle 579" width="36.244" height="31.933" rx="3.585" transform="translate(647.995 625.595)" stroke-width="3" stroke="#218080" stroke-linecap="round" stroke-linejoin="round" fill="none"/>
    </g>
    <g id="Group_4427" data-name="Group 4427" transform="translate(-166 378.184)">
      <path id="Path_4147" data-name="Path 4147" d="M551.83,488.61a24.988,24.988,0,1,1-9.138,34.129A24.992,24.992,0,0,1,551.83,488.61Z" fill="#218080" fill-rule="evenodd"/>
      <path id="Path_4148" data-name="Path 4148" d="M568.808,513.2a4,4,0,0,0-3.153,1.551l-6.874-3.512a4,4,0,0,0,.154-1.047,3.812,3.812,0,0,0-.181-1.136l6.832-3.492a4.031,4.031,0,1,0-.818-2.425,4.248,4.248,0,0,0,.154,1.046l-6.86,3.513a4.045,4.045,0,1,0,.055,4.906l6.839,3.5a3.915,3.915,0,0,0-.188,1.144,4.043,4.043,0,1,0,4.04-4.046Z" fill="#fff" fill-rule="evenodd"/>
    </g>
    <g id="Group_4463" data-name="Group 4463" transform="translate(-166 378.184)">
      <path id="Path_4190" data-name="Path 4190" d="M808.893,593.722a24.984,24.984,0,1,1,34.128,9.147A24.984,24.984,0,0,1,808.893,593.722Z" fill="#218080" fill-rule="evenodd"/>
      <path id="Print" d="M837.935,590.684H823.086v-4.342h-2.555V576.89h2.555v3.32h15.071v-3.321h2.374l-.054,9.452h-2.523l-.018,4.342h0ZM825.129,588.9h10.729v-2.3H825.129Zm0-10.729V571.78h10.984v6.387Z" fill="#fff"/>
    </g>
    <g id="Group_4464" data-name="Group 4464" transform="translate(-166 378.184)">
      <path id="Path_4191" data-name="Path 4191" d="M861.365,676.238a24.982,24.982,0,1,1-24.983-24.992A24.978,24.978,0,0,1,861.365,676.238Z" fill="#218080" fill-rule="evenodd"/>
      <path id="Phone-2" d="M833.949,669.079l-3.317-3.317a1.663,1.663,0,0,0-2.369-.094l-1.989,1.99c-2.559,2.558.757,8.527,5.306,13.17,4.738,4.738,10.8,8.149,13.455,5.5l1.9-1.895a1.778,1.778,0,0,0-.095-2.464l-3.222-3.222a1.79,1.79,0,0,0-2.463-.19l-1.99,1.99a14.377,14.377,0,0,1-7.107-7.105l1.99-1.99A1.663,1.663,0,0,0,833.949,669.079Z" fill="#fff"/>
    </g>
    <g id="Group_4465" data-name="Group 4465" transform="translate(-166 378.184)">
      <path id="Path_4192" data-name="Path 4192" d="M772.245,488.61a24.985,24.985,0,1,1-34.129,9.147A24.985,24.985,0,0,1,772.245,488.61Z" fill="#218080" fill-rule="evenodd"/>
      <path id="Email-2" d="M749.253,517.847V503.014l2.1,1.868,7.811,6.989a.773.773,0,0,0,1.179,0l9.614-8.6.28-.244c0,.11.017.188.017.264v14.488a.849.849,0,0,1-.909.969h-19.2A.826.826,0,0,1,749.253,517.847Zm1.112-16.095h18.772l-9.385,8.4Z" fill="#fff"/>
    </g>
    <g id="Group_4466" data-name="Group 4466" transform="translate(-166 378.184)">
      <path id="Path_4193" data-name="Path 4193" d="M661.836,458.621a24.987,24.987,0,1,1-24.99,24.982A24.983,24.983,0,0,1,661.836,458.621Z" fill="#218080" fill-rule="evenodd"/>
      <path id="Download-2" d="M651.832,491.608v-8.75h2.5v6.25h15v-6.25h2.5v8.75Zm4.192-11.174,1.768-1.768,2.79,2.791v-9.849h2.5v10l2.942-2.942,1.766,1.768-5.883,5.882Z" fill="#fff"/>
    </g>
    <path id="Path_4194" data-name="Path 4194" d="M462,676.852a24.987,24.987,0,1,1,24.982,24.982A24.987,24.987,0,0,1,462,676.852Z" transform="translate(-166 378.184)" fill="#218080" fill-rule="evenodd"/>
    <path id="Path-2" d="M478.22,686.493l21.99-9.428-21.99-9.428-.01,7.333,15.714,2.1-15.714,2.1Z" transform="translate(-166 378.184)" fill="#fff"/>
    <g id="Group_4467" data-name="Group 4467" transform="translate(-166 378.184)">
      <path id="Path_4195" data-name="Path 4195" d="M472.741,568.737a24.986,24.986,0,1,1,9.147,34.138A24.982,24.982,0,0,1,472.741,568.737Z" fill="#218080" fill-rule="evenodd"/>
      <path id="Shape-4" d="M483.378,592.233v0l.011-19.8a2.2,2.2,0,0,1,2.189-2.2h17.6a2.2,2.2,0,0,1,2.2,2.2v13.475a2.2,2.2,0,0,1-2.2,2.2H487.5l-4.123,4.123Zm2.75-9.625v2.75h16.5v-2.75Zm0-4.812v2.75h16.5V577.8Zm0-4.813v2.75h16.5v-2.75Z" fill="#fff"/>
    </g>
  </g>
</svg>
