<svg xmlns="http://www.w3.org/2000/svg" viewBox="0 0 280.79 230.25"><defs><style>.cls-1{fill:#4c4c4d;}.cls-2{fill:#a0d3d3;}.cls-3{fill:#218080;}.cls-4{fill:#fff;}</style></defs><g id="Layer_2" data-name="Layer 2"><g id="Layer_2-2" data-name="Layer 2"><path class="cls-1" d="M246.11,203.23H235.22l.43-2.11,5.52-4.94a38.42,38.42,0,0,0,2.79-2.71,6.63,6.63,0,0,0,1.06-1.56,3.67,3.67,0,0,0,.33-1.54,2.12,2.12,0,0,0-.58-1.58,2.2,2.2,0,0,0-1.64-.58,4.08,4.08,0,0,0-1.62.35,9.57,9.57,0,0,0-2,1.28L238.17,188a10,10,0,0,1,2.7-1.62,7.69,7.69,0,0,1,2.67-.49,5,5,0,0,1,3.38,1.09,3.69,3.69,0,0,1,1.25,2.94,6.12,6.12,0,0,1-.45,2.36,8.53,8.53,0,0,1-1.45,2.23,33,33,0,0,1-3.32,3.15l-3.65,3.09v.1h7.29Z" transform="translate(0 -3.19)"/><path class="cls-1" d="M255.8,192.6a4.66,4.66,0,0,1,3.38,1.22,4.4,4.4,0,0,1,1.26,3.34,6.51,6.51,0,0,1-.82,3.32,5.46,5.46,0,0,1-2.39,2.21,9.71,9.71,0,0,1-8-.15V200a7.76,7.76,0,0,0,4,1.17,4.73,4.73,0,0,0,3.17-1,3.39,3.39,0,0,0,1.13-2.7,2.7,2.7,0,0,0-.72-2,3,3,0,0,0-2.21-.75,10.45,10.45,0,0,0-2.63.41l-1-.79,2.34-8.3h8.35l-.52,2.45h-5.93L254,192.81A9.85,9.85,0,0,1,255.8,192.6Z" transform="translate(0 -3.19)"/><path class="cls-1" d="M271.31,189.33a10.85,10.85,0,0,1-.65,3.68,6.27,6.27,0,0,1-1.72,2.7,3.65,3.65,0,0,1-2.42.9,2.75,2.75,0,0,1-2.22-.92,4.06,4.06,0,0,1-.78-2.68,10.64,10.64,0,0,1,.63-3.67,5.93,5.93,0,0,1,1.67-2.61,3.69,3.69,0,0,1,2.44-.88,2.87,2.87,0,0,1,2.27.89A3.84,3.84,0,0,1,271.31,189.33Zm8.27-3.23-12.72,17.13h-2.28l12.73-17.13Zm-11.5,1.72a1.45,1.45,0,0,0-1.16.72,5.64,5.64,0,0,0-.82,2,10.84,10.84,0,0,0-.31,2.52q0,1.59.93,1.59a1.43,1.43,0,0,0,1.12-.68,5.92,5.92,0,0,0,.86-2.06,10.64,10.64,0,0,0,.34-2.57C269,188.33,268.72,187.82,268.08,187.82Zm12.61,8.33a10.73,10.73,0,0,1-.65,3.7,6.15,6.15,0,0,1-1.71,2.71,3.6,3.6,0,0,1-2.4.91,2.82,2.82,0,0,1-2.26-.9,3.87,3.87,0,0,1-.78-2.61,11,11,0,0,1,.62-3.75,5.91,5.91,0,0,1,1.67-2.62,3.7,3.7,0,0,1,2.43-.87,2.94,2.94,0,0,1,2.29.88A3.69,3.69,0,0,1,280.69,196.15Zm-3.24-1.48a1.41,1.41,0,0,0-1.12.67,5.81,5.81,0,0,0-.85,2,10.84,10.84,0,0,0-.33,2.6c0,1.05.32,1.57,1,1.57a1.41,1.41,0,0,0,1.12-.69,5.78,5.78,0,0,0,.87-2,10.53,10.53,0,0,0,.34-2.58C278.43,195.18,278.1,194.67,277.45,194.67Z" transform="translate(0 -3.19)"/><path class="cls-2" d="M279.76,213.58H39.29a1.13,1.13,0,0,1,0-2.25H279.76a1.13,1.13,0,0,1,0,2.25Z" transform="translate(0 -3.19)"/><path class="cls-3" d="M40.31,215.45H77.24c1.14,0,2.06-1.34,2.06-3s-.92-3-2.06-3H40.31c-1.13,0-2.05,1.35-2.05,3S39.18,215.45,40.31,215.45Z" transform="translate(0 -3.19)"/><path class="cls-3" d="M41.62,212.77A20.67,20.67,0,1,1,21,192.1,20.68,20.68,0,0,1,41.62,212.77Z" transform="translate(0 -3.19)"/><path class="cls-4" d="M38,212.77a17,17,0,1,1-17-17A17,17,0,0,1,38,212.77Z" transform="translate(0 -3.19)"/><g id="Mask-2"><path class="cls-3" d="M18.75,218s0-9.21,0-10.17h3.39v1.43a3.36,3.36,0,0,1,3-1.68c2.23,0,3.9,1.45,3.91,4.57V218H25.69v-5.43c0-1.37-.49-2.3-1.71-2.3a1.86,1.86,0,0,0-1.74,1.24,2.54,2.54,0,0,0-.11.82V218Zm-5.25,0,0-10.16h3.38l0,10.17Zm1.64-11.55a1.76,1.76,0,1,1,0-3.51,1.76,1.76,0,1,1,0,3.51Z" transform="translate(0 -3.19)"/></g><path class="cls-1" d="M236.74,76.69a16.48,16.48,0,0,1,.7-4.76,13.19,13.19,0,0,1,1.94-4,8.11,8.11,0,0,1,2.94-2.52,8.87,8.87,0,0,1,4-.86,8.35,8.35,0,0,1,2.38.3l-.5,2.27a7.43,7.43,0,0,0-2.12-.26,5.42,5.42,0,0,0-4,1.52,9.56,9.56,0,0,0-2.31,4.6h.07a4.53,4.53,0,0,1,3.82-2,3.57,3.57,0,0,1,2.85,1.16,4.6,4.6,0,0,1,1,3.19,7.91,7.91,0,0,1-.8,3.52,5.8,5.8,0,0,1-2.18,2.47,5.92,5.92,0,0,1-3.16.84,4.39,4.39,0,0,1-3.5-1.41A6,6,0,0,1,236.74,76.69Zm4.91,3.18a2.67,2.67,0,0,0,1.67-.56,3.68,3.68,0,0,0,1.13-1.58,6.06,6.06,0,0,0,.39-2.2c0-1.57-.69-2.35-2.08-2.35a2.8,2.8,0,0,0-1.12.23,3.34,3.34,0,0,0-.93.56,3.7,3.7,0,0,0-.68.75,3.88,3.88,0,0,0-.46,1,3.84,3.84,0,0,0-.15,1.33,3.4,3.4,0,0,0,.58,2.08A1.93,1.93,0,0,0,241.65,79.87Z" transform="translate(0 -3.19)"/><path class="cls-1" d="M261.39,68.4a4.34,4.34,0,0,1-1.16,3.1,5.53,5.53,0,0,1-3.15,1.6v.08a3.84,3.84,0,0,1,2.3,1.24,3.59,3.59,0,0,1,.82,2.41,4.94,4.94,0,0,1-.8,2.77,5.21,5.21,0,0,1-2.3,1.88,8.88,8.88,0,0,1-3.57.67,10,10,0,0,1-4.51-.93V78.7a8.75,8.75,0,0,0,2.17.89,9.39,9.39,0,0,0,2.29.31,4.4,4.4,0,0,0,2.87-.84,2.8,2.8,0,0,0,1-2.3c0-1.71-1.08-2.57-3.25-2.57h-1.56l.43-2.14h1.24a5.28,5.28,0,0,0,3.14-.88,2.73,2.73,0,0,0,1.21-2.34,1.85,1.85,0,0,0-.58-1.45,2.31,2.31,0,0,0-1.63-.54,5.24,5.24,0,0,0-1.72.3,8.29,8.29,0,0,0-1.9,1l-1.22-1.88a9.62,9.62,0,0,1,2.64-1.33,8.75,8.75,0,0,1,2.65-.39,5,5,0,0,1,3.35,1A3.53,3.53,0,0,1,261.39,68.4Z" transform="translate(0 -3.19)"/><path class="cls-1" d="M271.31,68a10.85,10.85,0,0,1-.65,3.68,6.27,6.27,0,0,1-1.72,2.7,3.65,3.65,0,0,1-2.42.9,2.75,2.75,0,0,1-2.22-.92,4.06,4.06,0,0,1-.78-2.68,10.64,10.64,0,0,1,.63-3.67,5.93,5.93,0,0,1,1.67-2.61,3.69,3.69,0,0,1,2.44-.88,2.87,2.87,0,0,1,2.27.89A3.84,3.84,0,0,1,271.31,68Zm8.27-3.23L266.86,81.91h-2.28l12.73-17.13Zm-11.5,1.72a1.45,1.45,0,0,0-1.16.72,5.62,5.62,0,0,0-.82,2,10.7,10.7,0,0,0-.31,2.51q0,1.59.93,1.59a1.43,1.43,0,0,0,1.12-.68,5.92,5.92,0,0,0,.86-2.06A10.64,10.64,0,0,0,269,68C269,67,268.72,66.5,268.08,66.5Zm12.61,8.33a10.68,10.68,0,0,1-.65,3.7,6.25,6.25,0,0,1-1.71,2.72,3.64,3.64,0,0,1-2.4.9,2.82,2.82,0,0,1-2.26-.9,3.87,3.87,0,0,1-.78-2.61,11,11,0,0,1,.62-3.75,5.91,5.91,0,0,1,1.67-2.62,3.7,3.7,0,0,1,2.43-.87,2.94,2.94,0,0,1,2.29.88A3.69,3.69,0,0,1,280.69,74.83Zm-3.24-1.48a1.41,1.41,0,0,0-1.12.67,5.81,5.81,0,0,0-.85,2,10.84,10.84,0,0,0-.33,2.6c0,1,.32,1.57,1,1.57a1.41,1.41,0,0,0,1.12-.69,5.78,5.78,0,0,0,.87-2,10.53,10.53,0,0,0,.34-2.58C278.43,73.86,278.1,73.35,277.45,73.35Z" transform="translate(0 -3.19)"/><path class="cls-2" d="M39.29,90.31H279.76a1.13,1.13,0,0,0,0-2.25H39.29a1.13,1.13,0,0,0,0,2.25Z" transform="translate(0 -3.19)"/><path class="cls-3" d="M39.29,92.18h117c1.14,0,2.06-1.34,2.06-3s-.92-3-2.06-3h-117c-1.14,0-2.06,1.35-2.06,3S38.15,92.18,39.29,92.18Z" transform="translate(0 -3.19)"/><path class="cls-1" d="M242.58,133.69A4.65,4.65,0,0,1,246,134.9a4.42,4.42,0,0,1,1.26,3.34,6.51,6.51,0,0,1-.82,3.32,5.46,5.46,0,0,1-2.39,2.21,9.69,9.69,0,0,1-7.95-.15v-2.54a7.7,7.7,0,0,0,4,1.17,4.71,4.71,0,0,0,3.17-1,3.36,3.36,0,0,0,1.13-2.7,2.71,2.71,0,0,0-.72-2,3,3,0,0,0-2.21-.74,10,10,0,0,0-2.63.41l-1-.8,2.34-8.3h8.36l-.53,2.45H242l-1.24,4.27A9.85,9.85,0,0,1,242.58,133.69Z" transform="translate(0 -3.19)"/><path class="cls-1" d="M250,139.09a16.54,16.54,0,0,1,.71-4.76,13.19,13.19,0,0,1,1.94-4,8,8,0,0,1,2.94-2.52,8.87,8.87,0,0,1,4-.85,8.38,8.38,0,0,1,2.38.29l-.5,2.27a7.48,7.48,0,0,0-2.12-.26,5.4,5.4,0,0,0-3.95,1.52,9.56,9.56,0,0,0-2.31,4.6h.07a4.52,4.52,0,0,1,3.82-2,3.61,3.61,0,0,1,2.85,1.16,4.62,4.62,0,0,1,1,3.19,7.78,7.78,0,0,1-.81,3.52,5.72,5.72,0,0,1-2.17,2.47,5.92,5.92,0,0,1-3.16.84,4.39,4.39,0,0,1-3.5-1.41A6,6,0,0,1,250,139.09Zm4.91,3.19a2.63,2.63,0,0,0,1.68-.57,3.76,3.76,0,0,0,1.13-1.58,6.06,6.06,0,0,0,.39-2.2c0-1.56-.69-2.35-2.08-2.35a2.8,2.8,0,0,0-1.12.23,3.6,3.6,0,0,0-.93.56,3.67,3.67,0,0,0-.68.75,3.67,3.67,0,0,0-.61,2.3,3.37,3.37,0,0,0,.58,2.07A1.92,1.92,0,0,0,254.86,142.28Z" transform="translate(0 -3.19)"/><path class="cls-1" d="M271.31,130.42a10.8,10.8,0,0,1-.65,3.67,6.27,6.27,0,0,1-1.72,2.7,3.65,3.65,0,0,1-2.42.9,2.75,2.75,0,0,1-2.22-.92,4,4,0,0,1-.78-2.67,10.66,10.66,0,0,1,.63-3.68,5.93,5.93,0,0,1,1.67-2.61,3.69,3.69,0,0,1,2.44-.87,2.84,2.84,0,0,1,2.27.89A3.8,3.8,0,0,1,271.31,130.42Zm8.27-3.24-12.72,17.13h-2.28l12.73-17.13Zm-11.5,1.72a1.45,1.45,0,0,0-1.16.72,5.7,5.7,0,0,0-.82,2,10.72,10.72,0,0,0-.31,2.52c0,1.05.31,1.58.93,1.58a1.43,1.43,0,0,0,1.12-.68,5.83,5.83,0,0,0,.86-2.06,10.57,10.57,0,0,0,.34-2.57C269,129.42,268.72,128.9,268.08,128.9Zm12.61,8.34a10.67,10.67,0,0,1-.65,3.69,6.25,6.25,0,0,1-1.71,2.72,3.64,3.64,0,0,1-2.4.9,2.82,2.82,0,0,1-2.26-.9,3.86,3.86,0,0,1-.78-2.61,11,11,0,0,1,.62-3.75,5.82,5.82,0,0,1,1.67-2.61,3.65,3.65,0,0,1,2.43-.88,3,3,0,0,1,2.29.88A3.7,3.7,0,0,1,280.69,137.24Zm-3.24-1.49a1.41,1.41,0,0,0-1.12.67,5.78,5.78,0,0,0-.85,2,10.7,10.7,0,0,0-.33,2.59c0,1,.32,1.57,1,1.57a1.43,1.43,0,0,0,1.12-.68,5.93,5.93,0,0,0,.87-2,10.41,10.41,0,0,0,.34-2.58C278.43,136.26,278.1,135.75,277.45,135.75Z" transform="translate(0 -3.19)"/><path class="cls-2" d="M39.29,150.69H279.76a1.12,1.12,0,0,0,0-2.24H39.29a1.12,1.12,0,0,0,0,2.24Z" transform="translate(0 -3.19)"/><path class="cls-3" d="M39.29,152.57H146.13c1.14,0,2.06-1.34,2.06-3s-.92-3-2.06-3H39.29c-1.14,0-2.06,1.34-2.06,3S38.15,152.57,39.29,152.57Z" transform="translate(0 -3.19)"/><path class="cls-1" d="M236.9,20.57l8.84-14.73h-7.9l.5-2.41h10.92l-.38,2L240,20.57Z" transform="translate(0 -3.19)"/><path class="cls-1" d="M250,15.34a16.54,16.54,0,0,1,.71-4.76,13.19,13.19,0,0,1,1.94-4A8,8,0,0,1,255.54,4a8.87,8.87,0,0,1,4-.85,8.75,8.75,0,0,1,2.38.29l-.5,2.27a7.51,7.51,0,0,0-2.12-.25A5.39,5.39,0,0,0,255.36,7a9.61,9.61,0,0,0-2.31,4.6h.07a4.54,4.54,0,0,1,3.82-2,3.61,3.61,0,0,1,2.85,1.16,4.62,4.62,0,0,1,1,3.19A7.85,7.85,0,0,1,260,17.5,5.75,5.75,0,0,1,257.84,20a5.92,5.92,0,0,1-3.16.84,4.39,4.39,0,0,1-3.5-1.41A5.94,5.94,0,0,1,250,15.34Zm4.91,3.19a2.63,2.63,0,0,0,1.68-.57,3.76,3.76,0,0,0,1.13-1.58,6,6,0,0,0,.39-2.2c0-1.56-.69-2.34-2.08-2.34a2.8,2.8,0,0,0-1.12.22,3.6,3.6,0,0,0-.93.56,3.47,3.47,0,0,0-.68.76,3.57,3.57,0,0,0-.46,1,3.78,3.78,0,0,0-.15,1.33,3.37,3.37,0,0,0,.58,2.07A1.89,1.89,0,0,0,254.86,18.53Z" transform="translate(0 -3.19)"/><path class="cls-1" d="M271.31,6.67a10.8,10.8,0,0,1-.65,3.67,6.27,6.27,0,0,1-1.72,2.7,3.66,3.66,0,0,1-2.42.91A2.72,2.72,0,0,1,264.3,13a4,4,0,0,1-.78-2.67,10.7,10.7,0,0,1,.63-3.68,5.84,5.84,0,0,1,1.67-2.6,3.64,3.64,0,0,1,2.44-.88,2.84,2.84,0,0,1,2.27.89A3.82,3.82,0,0,1,271.31,6.67Zm8.27-3.24L266.86,20.57h-2.28L277.31,3.43Zm-11.5,1.73a1.44,1.44,0,0,0-1.16.71,5.7,5.7,0,0,0-.82,2,10.72,10.72,0,0,0-.31,2.52c0,1.05.31,1.58.93,1.58a1.43,1.43,0,0,0,1.12-.68,5.83,5.83,0,0,0,.86-2.06A10.51,10.51,0,0,0,269,6.69Q269,5.16,268.08,5.16Zm12.61,8.33a10.73,10.73,0,0,1-.65,3.7,6.21,6.21,0,0,1-1.71,2.71,3.64,3.64,0,0,1-2.4.9,2.82,2.82,0,0,1-2.26-.9,3.83,3.83,0,0,1-.78-2.6,10.93,10.93,0,0,1,.62-3.75,5.8,5.8,0,0,1,1.67-2.62,3.71,3.71,0,0,1,2.43-.88,3,3,0,0,1,2.29.88A3.7,3.7,0,0,1,280.69,13.49ZM277.45,12a1.41,1.41,0,0,0-1.12.67,5.78,5.78,0,0,0-.85,2,10.7,10.7,0,0,0-.33,2.59c0,1.05.32,1.57,1,1.57a1.4,1.4,0,0,0,1.12-.68,5.93,5.93,0,0,0,.87-2.05,10.39,10.39,0,0,0,.34-2.57C278.43,12.51,278.1,12,277.45,12Z" transform="translate(0 -3.19)"/><path class="cls-2" d="M39.29,28.93H279.76a1.13,1.13,0,0,0,0-2.25H39.29a1.13,1.13,0,0,0,0,2.25Z" transform="translate(0 -3.19)"/><path class="cls-3" d="M39.29,30.81H179.4c1.14,0,2.06-1.35,2.06-3s-.92-3-2.06-3H39.29c-1.14,0-2.06,1.34-2.06,3S38.15,30.81,39.29,30.81Z" transform="translate(0 -3.19)"/><path class="cls-3" d="M41.62,27.14A20.67,20.67,0,1,1,21,6.47,20.67,20.67,0,0,1,41.62,27.14Z" transform="translate(0 -3.19)"/><path class="cls-4" d="M38,27.14a17,17,0,1,1-17-17A17,17,0,0,1,38,27.14Z" transform="translate(0 -3.19)"/><g id="Mask"><path class="cls-3" d="M20.81,23.23l0,.67-.69-.08a11.16,11.16,0,0,1-6.55-3.2l-.91-.9-.23.66a4,4,0,0,0,.86,4.11c.55.58.43.66-.52.32a1.65,1.65,0,0,0-.65-.15,5.19,5.19,0,0,0,.5,1.86,4.48,4.48,0,0,0,1.89,1.77l.67.32h-.8c-.77,0-.79,0-.71.31a4.18,4.18,0,0,0,2.57,2.27l.86.29-.74.44a7.74,7.74,0,0,1-3.69,1,4,4,0,0,0-1.12.11,10.67,10.67,0,0,0,2.65,1.22,11.63,11.63,0,0,0,9-1,12.06,12.06,0,0,0,4.56-5.39,14.2,14.2,0,0,0,.93-4.16c0-.64,0-.73.81-1.49a8.84,8.84,0,0,0,1-1.07c.14-.26.12-.26-.58,0-1.17.42-1.33.37-.75-.26a4,4,0,0,0,.93-1.49s-.21,0-.44.16a7.76,7.76,0,0,1-1.21.47l-.74.24-.68-.46a5.42,5.42,0,0,0-1.17-.61,4.76,4.76,0,0,0-2.4.06A4,4,0,0,0,20.81,23.23Z" transform="translate(0 -3.19)"/></g><path class="cls-3" d="M41.62,88.56A20.67,20.67,0,1,1,21,67.89,20.67,20.67,0,0,1,41.62,88.56Z" transform="translate(0 -3.19)"/><path class="cls-4" d="M38,88.56a17,17,0,1,1-17-17A17,17,0,0,1,38,88.56Z" transform="translate(0 -3.19)"/><g id="Mask-3"><path class="cls-3" d="M21.53,96.37l0-8.55h2.36l.31-2.95H21.5V83.41c0-.77.07-1.18,1.17-1.19h1.47V79.28H21.79C19,79.29,18,80.72,18,83.12v1.77H16.2v2.94H18l0,8.54Z" transform="translate(0 -3.19)"/></g><path class="cls-3" d="M41.33,148.8a20.67,20.67,0,1,1-20.66-20.66A20.66,20.66,0,0,1,41.33,148.8Z" transform="translate(0 -3.19)"/><path class="cls-4" d="M37.68,148.8a17,17,0,1,1-17-17A17,17,0,0,1,37.68,148.8Z" transform="translate(0 -3.19)"/><g id="Mask-4"><path class="cls-3" d="M20.68,155.6c-.06,0-6.11,0-7.62-.39a2.42,2.42,0,0,1-1.72-1.71,25.11,25.11,0,0,1-.42-4.68,25.42,25.42,0,0,1,.4-4.68A2.45,2.45,0,0,1,13,142.42a59.32,59.32,0,0,1,7.61-.42c.07,0,6.12,0,7.62.39A2.46,2.46,0,0,1,30,144.11a25.64,25.64,0,0,1,.41,4.67,25.36,25.36,0,0,1-.4,4.68,2.41,2.41,0,0,1-1.72,1.72C26.79,155.59,20.74,155.6,20.68,155.6Zm-1.89-9.89v6.19l4.87-3.1Z" transform="translate(0 -3.19)"/></g></g></g></svg>