<svg xmlns="http://www.w3.org/2000/svg" viewBox="0 0 399.36 310.99"><defs><style>.cls-1,.cls-3,.cls-5,.cls-6{fill:none;}.cls-1,.cls-3{stroke:#70bdbd;stroke-miterlimit:10;}.cls-1,.cls-7,.cls-8{fill-rule:evenodd;}.cls-2{fill:#41a7a7;}.cls-4{fill:#cfe9e9;}.cls-5{stroke:#218080;stroke-linecap:round;stroke-linejoin:round;stroke-width:3px;}.cls-7{fill:#218080;}.cls-8,.cls-9{fill:#fff;}</style></defs><g id="Layer_2" data-name="Layer 2"><g id="Layer_2-2" data-name="Layer 2"><g id="info-teal-graphic"><polyline class="cls-1" points="31 144.56 31 169.56 81 169.56"/><circle class="cls-2" cx="83" cy="169.56" r="4"/><polyline class="cls-1" points="280.89 52.29 255.89 52.29 255.89 102.29"/><circle class="cls-2" cx="255.89" cy="104.29" r="4"/><polyline class="cls-1" points="108.89 52.29 133.89 52.29 133.89 102.29"/><circle class="cls-2" cx="133.89" cy="104.29" r="4"/><line class="cls-3" x1="200.37" y1="42.56" x2="200.37" y2="102.29"/><circle class="cls-2" cx="200.37" cy="104.29" r="4"/><line class="cls-3" x1="31" y1="219.64" x2="81" y2="219.64"/><circle class="cls-2" cx="83" cy="219.64" r="4"/><polyline class="cls-1" points="369 144.56 369 169.56 319 169.56"/><circle class="cls-2" cx="317" cy="169.56" r="4"/><line class="cls-3" x1="369" y1="219.64" x2="319" y2="219.64"/><circle class="cls-2" cx="317" cy="219.64" r="4"/><path class="cls-4" d="M143.63,298h-1.72l-8.55,9.47a2.11,2.11,0,0,0,1.53,3.53H273.2a2.11,2.11,0,0,0,1.53-3.53L267,298.64h-1.66"/><path class="cls-4" d="M183.68,227.7v20.43h12a8.41,8.41,0,0,1,16.82,0h12V227.7Z"/><polyline class="cls-5" points="156.9 276.25 156.9 268.56 251.41 268.56 251.41 276.25"/><line class="cls-5" x1="183.68" y1="260.99" x2="183.68" y2="235.27"/><line class="cls-5" x1="224.55" y1="235.27" x2="224.55" y2="260.99"/><circle class="cls-5" cx="204.12" cy="248.13" r="8.27"/><path class="cls-4" d="M290.65,301c-5.95,0-11-3.42-12.64-6.68a3.78,3.78,0,0,0-.58,1.95c0,3.67,5.92,8.82,13.22,8.82s13.21-5.15,13.21-8.82a3.78,3.78,0,0,0-.58-1.95C301.62,297.61,296.59,301,290.65,301Z"/><path class="cls-5" d="M302.91,292c0,3.41-5.49,8.2-12.26,8.2s-12.27-4.79-12.27-8.2,5.49-6.16,12.27-6.16S302.91,288.58,302.91,292Z"/><polygon class="cls-5" points="269.82 297.01 251.43 276.25 156.8 276.25 138.41 297.01 269.82 297.01"/><line class="cls-5" x1="194.61" y1="290.08" x2="213.07" y2="290.08"/><line class="cls-5" x1="160.57" y1="283.2" x2="165.68" y2="283.2"/><line class="cls-5" x1="172.28" y1="283.2" x2="177.39" y2="283.2"/><line class="cls-5" x1="184" y1="283.2" x2="189.1" y2="283.2"/><line class="cls-5" x1="195.71" y1="283.2" x2="200.81" y2="283.2"/><line class="cls-5" x1="207.42" y1="283.2" x2="212.53" y2="283.2"/><line class="cls-5" x1="219.13" y1="283.2" x2="224.24" y2="283.2"/><line class="cls-5" x1="230.85" y1="283.2" x2="235.95" y2="283.2"/><line class="cls-5" x1="242.56" y1="283.2" x2="247.66" y2="283.2"/><line class="cls-5" x1="154.9" y1="290.08" x2="160.67" y2="290.08"/><line class="cls-5" x1="168.14" y1="290.08" x2="173.91" y2="290.08"/><line class="cls-5" x1="181.38" y1="290.08" x2="187.15" y2="290.08"/><line class="cls-5" x1="221.09" y1="290.08" x2="226.86" y2="290.08"/><line class="cls-5" x1="234.32" y1="290.08" x2="240.09" y2="290.08"/><line class="cls-5" x1="247.56" y1="290.08" x2="253.33" y2="290.08"/><polygon class="cls-6" points="271.86 305.94 270.91 303.75 137.47 303.75 136.53 305.94 271.86 305.94"/><line class="cls-5" x1="138.41" y1="304.34" x2="269.82" y2="304.34"/><path class="cls-4" d="M137.65,115.73l21.73,112H110s-7-.39-7-7.06V122.78s-.1-7,7-7Z"/><rect class="cls-4" x="103.12" y="115.99" width="201.99" height="12.2"/><rect class="cls-4" x="103.12" y="215.29" width="201.99" height="12.2"/><rect class="cls-5" x="103.12" y="115.56" width="201.99" height="112.13" rx="3.18"/><line class="cls-5" x1="110.7" y1="215.07" x2="297.54" y2="215.07"/><line class="cls-5" x1="110.7" y1="128.19" x2="297.54" y2="128.19"/><circle class="cls-4" cx="203.96" cy="178.19" r="4.13"/><line class="cls-5" x1="203.96" y1="178.19" x2="203.96" y2="187.13"/><path class="cls-4" d="M191.72,191.09V173.71a3.5,3.5,0,0,0-1-2.5l-3.12-3.13a5.07,5.07,0,0,0-1.49,3.6v22.14a5.09,5.09,0,0,0,5.09,5.09H217a5.11,5.11,0,0,0,3.6-1.49l-3.13-3.13a3.54,3.54,0,0,0-2.51-1H193.89A2.17,2.17,0,0,1,191.72,191.09Z"/><path class="cls-5" d="M192.88,159.4v-6.89a11.24,11.24,0,0,1,22.48,0v6.89"/><rect class="cls-5" x="185.99" y="166.97" width="36.24" height="31.93" rx="3.58"/><path class="cls-7" d="M89.83,30a25,25,0,1,1-9.14,34.13A25,25,0,0,1,89.83,30Z"/><path class="cls-8" d="M106.81,54.58a4,4,0,0,0-3.15,1.55l-6.88-3.52a4,4,0,0,0,.15-1,3.89,3.89,0,0,0-.18-1.14l6.84-3.49a4,4,0,1,0,3.22-6.47,4,4,0,0,0-4,4,4.43,4.43,0,0,0,.15,1.05l-6.86,3.51A4,4,0,1,0,96.12,54l6.84,3.5a3.63,3.63,0,0,0-.19,1.14,4,4,0,1,0,4-4Z"/><path class="cls-7" d="M346.89,135.1A25,25,0,1,1,381,144.25,25,25,0,0,1,346.89,135.1Z"/><path id="Print" class="cls-9" d="M375.94,132.06H361.09v-4.34h-2.56v-9.45h2.56v3.32h15.07v-3.32h2.37l0,9.45H376v4.34Zm-12.81-1.78h10.73V128H363.13Zm0-10.73v-6.39h11v6.39Z"/><path class="cls-7" d="M399.36,217.62a25,25,0,1,1-25-25A25,25,0,0,1,399.36,217.62Z"/><path id="Phone-2" class="cls-9" d="M372,210.46l-3.32-3.32a1.66,1.66,0,0,0-2.37-.09l-2,2c-2.55,2.55.76,8.52,5.31,13.17,4.74,4.74,10.8,8.15,13.45,5.49l1.9-1.89a1.78,1.78,0,0,0-.1-2.47l-3.22-3.22a1.78,1.78,0,0,0-2.46-.19l-2,2a14.38,14.38,0,0,1-7.11-7.1l2-2A1.66,1.66,0,0,0,372,210.46Z"/><path class="cls-7" d="M310.25,30a25,25,0,1,1-34.13,9.15A25,25,0,0,1,310.25,30Z"/><path id="Email-2" class="cls-9" d="M287.25,59.23V44.39l2.1,1.87,7.81,7a.77.77,0,0,0,1.18,0l9.62-8.6.28-.24c0,.11,0,.19,0,.26V59.16a.85.85,0,0,1-.91,1H288.15A.83.83,0,0,1,287.25,59.23Zm1.12-16.1h18.77l-9.39,8.4Z"/><path class="cls-7" d="M199.84,0a25,25,0,1,1-25,25A25,25,0,0,1,199.84,0Z"/><path id="Download-2" class="cls-9" d="M189.83,33V24.24h2.5v6.25h15V24.24h2.5V33ZM194,21.81l1.77-1.76,2.79,2.79V13h2.5V23c2.14-2.15,2.28-2.28,2.94-2.94l1.77,1.76-5.88,5.89Z"/><path class="cls-7" d="M0,218.23a25,25,0,1,1,25,25A25,25,0,0,1,0,218.23Z"/><path id="Path-2" class="cls-9" d="M16.22,227.87l22-9.43-22-9.42v7.33l15.71,2.09-15.71,2.1Z"/><path class="cls-7" d="M10.74,110.12a25,25,0,1,1,9.15,34.13A25,25,0,0,1,10.74,110.12Z"/><path id="Shape-4" class="cls-9" d="M21.38,133.61h0v-19.8a2.2,2.2,0,0,1,2.19-2.2h17.6a2.21,2.21,0,0,1,2.2,2.2v13.48a2.21,2.21,0,0,1-2.2,2.2H25.5l-4.12,4.12ZM24.13,124v2.75h16.5V124Zm0-4.82v2.75h16.5v-2.75Zm0-4.81v2.75h16.5v-2.75Z"/></g></g></g></svg>