<svg xmlns="http://www.w3.org/2000/svg" width="399.365" height="310.99" viewBox="0 0 399.365 310.99">
  <g id="Group_4786" data-name="Group 4786" transform="translate(-297 -835.805)">
    <g id="Group_4483" data-name="Group 4483" transform="translate(-165 377.184)">
      <path id="Path_4218" data-name="Path 4218" d="M493,603.184v25h50" fill="none" stroke="#293f5c" stroke-linecap="round" stroke-linejoin="round" stroke-width="1" fill-rule="evenodd"/>
      <circle id="Ellipse_110" data-name="Ellipse 110" cx="4" cy="4" r="4" transform="translate(541 624.184)" fill="#495c75"/>
    </g>
    <path id="Path_4219" data-name="Path 4219" stroke="#293f5c" d="M742.886,510.914h-25v50" fill="none" transform="translate(-165 377.184)" stroke-linecap="round" stroke-linejoin="round" stroke-width="1" fill-rule="evenodd"/>
    <circle id="Ellipse_111" data-name="Ellipse 111" cx="4" cy="4" r="4" transform="translate(548.886 936.097)" fill="#495c75"/>
    <path id="Path_4220" data-name="Path 4220" stroke="#293f5c" d="M570.886,510.914h25v50" fill="none" transform="translate(-165 377.184)" stroke-linecap="round" stroke-linejoin="round" stroke-width="1" fill-rule="evenodd"/>
    <circle id="Ellipse_112" data-name="Ellipse 112" cx="4" cy="4" r="4" transform="translate(426.886 936.097)" fill="#495c75"/>
    <line id="Line_344" data-name="Line 344" y2="59.73" transform="translate(497.373 878.367)" fill="none" stroke="#293f5c" stroke-linecap="round" stroke-linejoin="round" stroke-width="1"/>
    <circle id="Ellipse_113" data-name="Ellipse 113" cx="4" cy="4" r="4" transform="translate(493.373 936.097)" fill="#495c75"/>
    <g id="Group_4484" data-name="Group 4484" transform="translate(-165 377.184)">
      <line id="Line_345" data-name="Line 345" x2="50" transform="translate(493 678.266)" fill="none" stroke="#293f5c" stroke-linecap="round" stroke-linejoin="round" stroke-width="1"/>
      <circle id="Ellipse_114" data-name="Ellipse 114" cx="4" cy="4" r="4" transform="translate(541 674.266)" fill="#495c75"/>
    </g>
    <g id="Group_4485" data-name="Group 4485" transform="translate(-165 377.184)">
      <path id="Path_4221" data-name="Path 4221" d="M831,603.184v25H781" fill="none" stroke="#293f5c" stroke-linecap="round" stroke-linejoin="round" stroke-width="1" fill-rule="evenodd"/>
      <circle id="Ellipse_115" data-name="Ellipse 115" cx="4" cy="4" r="4" transform="translate(775 624.184)" fill="#495c75"/>
    </g>
    <g id="Group_4486" data-name="Group 4486" transform="translate(-165 377.184)">
      <line id="Line_346" data-name="Line 346" x1="50" transform="translate(781 678.266)" fill="none" stroke="#293f5c" stroke-linecap="round" stroke-linejoin="round" stroke-width="1"/>
      <circle id="Ellipse_116" data-name="Ellipse 116" cx="4" cy="4" r="4" transform="translate(775 674.266)" fill="#495c75"/>
    </g>
    <path id="Path_4222" data-name="Path 4222" d="M605.626,756.609h-1.714l-8.547,9.47a2.111,2.111,0,0,0,1.528,3.532H735.2a2.112,2.112,0,0,0,1.528-3.532l-7.686-8.814h-1.666" transform="translate(-165 377.184)" fill="#cacfd6"/>
    <g id="Group_4487" data-name="Group 4487" transform="translate(-165 377.184)">
      <path id="Path_4223" data-name="Path 4223" d="M645.682,686.316v20.435h12.026a8.409,8.409,0,0,1,16.817,0h12.027V686.316Z" fill="#cacfd6"/>
    </g>
    <path id="Path_4224" data-name="Path 4224" d="M618.9,734.867v-7.681h94.51v7.681" transform="translate(-165 377.184)" fill="none" stroke="#293f5c" stroke-linecap="round" stroke-linejoin="round" stroke-width="3"/>
    <line id="Line_347" data-name="Line 347" y1="25.721" transform="translate(480.682 1071.074)" fill="none" stroke="#293f5c" stroke-linecap="round" stroke-linejoin="round" stroke-width="3"/>
    <line id="Line_348" data-name="Line 348" y2="25.721" transform="translate(521.552 1071.074)" fill="none" stroke="#293f5c" stroke-linecap="round" stroke-linejoin="round" stroke-width="3"/>
    <circle id="Ellipse_117" data-name="Ellipse 117" cx="8.274" cy="8.274" r="8.274" transform="translate(492.842 1075.66)" stroke-width="3" stroke="#293f5c" stroke-linecap="round" stroke-linejoin="round" fill="none"/>
    <g id="Group_4488" data-name="Group 4488" transform="translate(-165 377.184)">
      <path id="Path_4225" data-name="Path 4225" d="M752.646,759.655c-5.949,0-10.978-3.428-12.634-6.682a3.715,3.715,0,0,0-.578,1.947c0,3.666,5.915,8.826,13.212,8.826s13.212-5.16,13.212-8.826a3.707,3.707,0,0,0-.579-1.947C763.623,756.227,758.594,759.655,752.646,759.655Z" fill="#cacfd6"/>
    </g>
    <path id="Path_4226" data-name="Path 4226" d="M764.91,750.606c0,3.4-5.491,8.193-12.264,8.193s-12.265-4.789-12.265-8.193,5.491-6.163,12.265-6.163S764.91,747.2,764.91,750.606Z" transform="translate(-165 377.184)" fill="none" stroke="#293f5c" stroke-linecap="round" stroke-linejoin="round" stroke-width="3"/>
    <g id="Group_4489" data-name="Group 4489" transform="translate(-165 377.184)">
      <path id="Path_4227" data-name="Path 4227" d="M731.822,755.629l-18.393-20.762H618.8l-18.393,20.762Z" fill="none" stroke="#293f5c" stroke-linecap="round" stroke-linejoin="round" stroke-width="3"/>
    </g>
    <g id="Group_4492" data-name="Group 4492" transform="translate(-165 377.184)">
      <line id="Line_349" data-name="Line 349" x2="18.458" transform="translate(656.614 748.697)" fill="none" stroke="#293f5c" stroke-linecap="round" stroke-linejoin="round" stroke-width="3"/>
      <g id="Group_4491" data-name="Group 4491">
        <g id="Group_4490" data-name="Group 4490">
          <line id="Line_350" data-name="Line 350" x2="5.104" transform="translate(622.571 741.821)" fill="none" stroke="#293f5c" stroke-linecap="round" stroke-linejoin="round" stroke-width="3"/>
          <line id="Line_351" data-name="Line 351" x2="5.104" transform="translate(634.284 741.821)" fill="none" stroke="#293f5c" stroke-linecap="round" stroke-linejoin="round" stroke-width="3"/>
          <line id="Line_352" data-name="Line 352" x2="5.104" transform="translate(645.996 741.821)" fill="none" stroke="#293f5c" stroke-linecap="round" stroke-linejoin="round" stroke-width="3"/>
          <line id="Line_353" data-name="Line 353" x2="5.104" transform="translate(657.708 741.821)" fill="none" stroke="#293f5c" stroke-linecap="round" stroke-linejoin="round" stroke-width="3"/>
          <line id="Line_354" data-name="Line 354" x2="5.104" transform="translate(669.421 741.821)" fill="none" stroke="#293f5c" stroke-linecap="round" stroke-linejoin="round" stroke-width="3"/>
          <line id="Line_355" data-name="Line 355" x2="5.104" transform="translate(681.133 741.821)" fill="none" stroke="#293f5c" stroke-linecap="round" stroke-linejoin="round" stroke-width="3"/>
          <line id="Line_356" data-name="Line 356" x2="5.104" transform="translate(692.845 741.821)" fill="none" stroke="#293f5c" stroke-linecap="round" stroke-linejoin="round" stroke-width="3"/>
          <line id="Line_357" data-name="Line 357" x2="5.104" transform="translate(704.558 741.821)" fill="none" stroke="#293f5c" stroke-linecap="round" stroke-linejoin="round" stroke-width="3"/>
        </g>
        <line id="Line_358" data-name="Line 358" x2="5.769" transform="translate(616.905 748.697)" fill="none" stroke="#293f5c" stroke-linecap="round" stroke-linejoin="round" stroke-width="3"/>
        <line id="Line_359" data-name="Line 359" x2="5.769" transform="translate(630.141 748.697)" fill="none" stroke="#293f5c" stroke-linecap="round" stroke-linejoin="round" stroke-width="3"/>
        <line id="Line_360" data-name="Line 360" x2="5.769" transform="translate(643.378 748.697)" fill="none" stroke="#293f5c" stroke-linecap="round" stroke-linejoin="round" stroke-width="3"/>
        <line id="Line_361" data-name="Line 361" x2="5.769" transform="translate(683.087 748.697)" fill="none" stroke="#293f5c" stroke-linecap="round" stroke-linejoin="round" stroke-width="3"/>
        <line id="Line_362" data-name="Line 362" x2="5.769" transform="translate(696.324 748.697)" fill="none" stroke="#293f5c" stroke-linecap="round" stroke-linejoin="round" stroke-width="3"/>
        <line id="Line_363" data-name="Line 363" x2="5.769" transform="translate(709.56 748.697)" fill="none" stroke="#293f5c" stroke-linecap="round" stroke-linejoin="round" stroke-width="3"/>
      </g>
    </g>
    <path id="Path_4228" data-name="Path 4228" d="M733.863,764.561l-.952-2.189H599.475l-.941,2.189Z" transform="translate(-165 377.184)" fill="none"/>
    <line id="Line_364" data-name="Line 364" x2="131.411" transform="translate(435.411 1140.141)" fill="none" stroke="#293f5c" stroke-linecap="round" stroke-linejoin="round" stroke-width="3"/>
    <path id="Path_4229" data-name="Path 4229" d="M599.653,574.35l21.729,111.966H571.965s-7.05-.386-7.05-7.05V581.4s-.09-7.051,7.05-7.051Z" transform="translate(-165 377.184)" fill="#cacfd6"/>
    <rect id="Rectangle_619" data-name="Rectangle 619" width="201.992" height="12.195" transform="translate(400.121 951.797)" fill="#cacfd6"/>
    <rect id="Rectangle_620" data-name="Rectangle 620" width="201.992" height="12.195" transform="translate(400.121 1051.09)" fill="#cacfd6"/>
    <rect id="Rectangle_621" data-name="Rectangle 621" width="201.992" height="112.132" rx="3.184" transform="translate(400.121 951.367)" stroke-width="3" stroke="#293f5c" stroke-linecap="round" stroke-linejoin="round" fill="none"/>
    <line id="Line_365" data-name="Line 365" x2="186.842" transform="translate(407.696 1050.875)" fill="none" stroke="#293f5c" stroke-linecap="round" stroke-linejoin="round" stroke-width="3"/>
    <line id="Line_366" data-name="Line 366" x2="186.842" transform="translate(407.696 963.992)" fill="none" stroke="#293f5c" stroke-linecap="round" stroke-linejoin="round" stroke-width="3"/>
    <circle id="Ellipse_118" data-name="Ellipse 118" cx="4.134" cy="4.134" r="4.134" transform="translate(496.826 1009.862)" fill="#cacfd6"/>
    <line id="Line_367" data-name="Line 367" y2="8.942" transform="translate(500.96 1013.996)" fill="none" stroke="#293f5c" stroke-linecap="round" stroke-linejoin="round" stroke-width="3"/>
    <path id="Path_4230" data-name="Path 4230" d="M653.723,649.709V632.336a3.553,3.553,0,0,0-1.039-2.51l-3.127-3.126a5.073,5.073,0,0,0-1.491,3.6v22.139a5.09,5.09,0,0,0,5.09,5.09h25.86a5.073,5.073,0,0,0,3.6-1.491l-3.126-3.127a3.552,3.552,0,0,0-2.51-1.039H655.885A2.162,2.162,0,0,1,653.723,649.709Z" transform="translate(-165 377.184)" fill="#cacfd6"/>
    <g id="Group_4493" data-name="Group 4493" transform="translate(-165 377.184)">
      <path id="Path_4231" data-name="Path 4231" d="M654.876,618.02v-6.892a11.241,11.241,0,0,1,22.481,0v6.892" fill="none" stroke="#293f5c" stroke-linecap="round" stroke-linejoin="round" stroke-width="3"/>
      <rect id="Rectangle_622" data-name="Rectangle 622" width="36.244" height="31.933" rx="3.585" transform="translate(647.995 625.595)" stroke-width="3" stroke="#293f5c" stroke-linecap="round" stroke-linejoin="round" fill="none"/>
    </g>
    <g id="Group_4494" data-name="Group 4494" transform="translate(-165 377.184)">
      <path id="Path_4232" data-name="Path 4232" d="M551.83,488.61a24.988,24.988,0,1,1-9.138,34.129A24.992,24.992,0,0,1,551.83,488.61Z" fill="#293f5c" fill-rule="evenodd"/>
      <path id="Path_4233" data-name="Path 4233" d="M568.808,513.2a4,4,0,0,0-3.153,1.551l-6.874-3.512a4,4,0,0,0,.153-1.047,3.811,3.811,0,0,0-.18-1.136l6.832-3.492a4.031,4.031,0,1,0-.818-2.425,4.248,4.248,0,0,0,.154,1.046l-6.86,3.513a4.045,4.045,0,1,0,.055,4.906l6.839,3.5a3.915,3.915,0,0,0-.188,1.144,4.043,4.043,0,1,0,4.04-4.046Z" fill="#fff" fill-rule="evenodd"/>
    </g>
    <g id="Group_4530" data-name="Group 4530" transform="translate(-165 377.184)">
      <path id="Path_4275" data-name="Path 4275" d="M808.893,593.722a24.984,24.984,0,1,1,34.128,9.147A24.984,24.984,0,0,1,808.893,593.722Z" fill="#293f5c" fill-rule="evenodd"/>
      <path id="Print" d="M837.935,590.684H823.086v-4.342h-2.555V576.89h2.555v3.32h15.071v-3.321h2.374l-.054,9.452h-2.523l-.018,4.342h0ZM825.129,588.9h10.728v-2.3H825.129Zm0-10.729V571.78h10.984v6.387Z" fill="#fff"/>
    </g>
    <g id="Group_4531" data-name="Group 4531" transform="translate(-165 377.184)">
      <path id="Path_4276" data-name="Path 4276" d="M861.365,676.238a24.982,24.982,0,1,1-24.983-24.992A24.978,24.978,0,0,1,861.365,676.238Z" fill="#293f5c" fill-rule="evenodd"/>
      <path id="Phone-2" d="M833.948,669.079l-3.316-3.317a1.663,1.663,0,0,0-2.369-.094l-1.989,1.99c-2.559,2.558.757,8.527,5.306,13.17,4.738,4.738,10.8,8.149,13.455,5.5l1.9-1.895a1.778,1.778,0,0,0-.095-2.464l-3.222-3.222a1.79,1.79,0,0,0-2.463-.19l-1.99,1.99a14.377,14.377,0,0,1-7.107-7.105l1.99-1.99A1.662,1.662,0,0,0,833.948,669.079Z" fill="#fff"/>
    </g>
    <g id="Group_4532" data-name="Group 4532" transform="translate(-165 377.184)">
      <path id="Path_4277" data-name="Path 4277" d="M772.245,488.61a24.985,24.985,0,1,1-34.129,9.147A24.985,24.985,0,0,1,772.245,488.61Z" fill="#293f5c" fill-rule="evenodd"/>
      <path id="Email-2" d="M749.253,517.847V503.014l2.1,1.868,7.811,6.989a.773.773,0,0,0,1.179,0l9.614-8.6.28-.244c0,.11.017.188.017.264v14.488a.849.849,0,0,1-.909.969h-19.2A.826.826,0,0,1,749.253,517.847Zm1.112-16.095h18.772l-9.385,8.4Z" fill="#fff"/>
    </g>
    <g id="Group_4533" data-name="Group 4533" transform="translate(-165 377.184)">
      <path id="Path_4278" data-name="Path 4278" d="M661.836,458.621a24.987,24.987,0,1,1-24.99,24.982A24.983,24.983,0,0,1,661.836,458.621Z" fill="#293f5c" fill-rule="evenodd"/>
      <path id="Download-2" d="M651.832,491.608v-8.75h2.5v6.25h15v-6.25h2.5v8.75Zm4.192-11.174,1.768-1.768,2.79,2.791v-9.849h2.5v10l2.942-2.942,1.766,1.768-5.883,5.882Z" fill="#fff"/>
    </g>
    <path id="Path_4279" data-name="Path 4279" d="M462,676.852a24.987,24.987,0,1,1,24.982,24.982A24.987,24.987,0,0,1,462,676.852Z" transform="translate(-165 377.184)" fill="#293f5c" fill-rule="evenodd"/>
    <path id="Path-2" d="M478.22,686.493l21.99-9.428-21.99-9.428-.01,7.333,15.714,2.1-15.714,2.1Z" transform="translate(-165 377.184)" fill="#fff"/>
    <g id="Group_4534" data-name="Group 4534" transform="translate(-165 377.184)">
      <path id="Path_4280" data-name="Path 4280" d="M472.74,568.737a24.987,24.987,0,1,1,9.148,34.138A24.983,24.983,0,0,1,472.74,568.737Z" fill="#293f5c" fill-rule="evenodd"/>
      <path id="Shape-4" d="M483.378,592.233v0l.011-19.8a2.2,2.2,0,0,1,2.189-2.2h17.6a2.2,2.2,0,0,1,2.2,2.2v13.475a2.2,2.2,0,0,1-2.2,2.2H487.5l-4.123,4.123Zm2.75-9.625v2.75h16.5v-2.75Zm0-4.812v2.75h16.5V577.8Zm0-4.813v2.75h16.5v-2.75Z" fill="#fff"/>
    </g>
  </g>
</svg>
