<?xml version="1.0" encoding="utf-8"?>
<!-- Generator: Adobe Illustrator 24.2.0, SVG Export Plug-In . SVG Version: 6.00 Build 0)  -->
<svg version="1.1" id="Layer_1" xmlns="http://www.w3.org/2000/svg" xmlns:xlink="http://www.w3.org/1999/xlink" x="0px" y="0px"
	 viewBox="0 0 775.4 307.2" style="enable-background:new 0 0 775.4 307.2;" xml:space="preserve">
<style type="text/css">
	.st0{fill:none;stroke:#C7C7C6;stroke-width:0.25;stroke-linejoin:round;}
	.st1{enable-background:new    ;}
	.st2{fill:#404041;}
	.st3{fill:none;stroke:#4569A0;stroke-width:2;stroke-linecap:round;stroke-linejoin:round;}
	.st4{fill:none;stroke:#333333;stroke-width:0.25;stroke-miterlimit:10;}
	.st5{fill:none;stroke:#E75755;stroke-width:2;stroke-linecap:round;stroke-linejoin:round;}
	.st6{fill:none;stroke:#239546;stroke-width:2;stroke-linecap:round;stroke-linejoin:round;}
	.st7{fill:none;stroke:#745FD7;stroke-width:2;stroke-linecap:round;stroke-linejoin:round;}
</style>
<g id="Group_4855" transform="translate(-1668 -8569.182)">
	<path id="Path_4492" class="st0" d="M1723.9,8579.2h700.5 M1723.9,8642.8h700.5 M1723.9,8706.7h700.5 M1723.9,8770.3h700.5"/>
	<g class="st1">
		<path class="st2" d="M1680.5,8775.2h-6.6v-1l2.6-2.6c0.8-0.8,1.3-1.4,1.6-1.7s0.4-0.7,0.6-1s0.2-0.7,0.2-1.1c0-0.5-0.2-1-0.5-1.3
			c-0.3-0.3-0.8-0.5-1.3-0.5c-0.4,0-0.8,0.1-1.2,0.2s-0.8,0.4-1.2,0.7l-0.6-0.8c0.9-0.8,1.9-1.1,3-1.1c0.9,0,1.7,0.2,2.2,0.7
			c0.5,0.5,0.8,1.1,0.8,1.9c0,0.6-0.2,1.3-0.5,1.9s-1,1.4-2,2.4l-2.2,2.1v0.1h5.1V8775.2z"/>
		<path class="st2" d="M1688.5,8770.2c0,1.7-0.3,3-0.8,3.9s-1.4,1.3-2.5,1.3c-1.1,0-1.9-0.4-2.5-1.3c-0.6-0.9-0.8-2.2-0.8-3.8
			c0-1.7,0.3-3,0.8-3.9s1.4-1.3,2.5-1.3c1.1,0,1.9,0.4,2.5,1.3S1688.5,8768.5,1688.5,8770.2z M1683.1,8770.2c0,1.5,0.2,2.5,0.5,3.2
			c0.3,0.7,0.9,1,1.6,1c0.8,0,1.3-0.3,1.6-1c0.3-0.7,0.5-1.7,0.5-3.2s-0.2-2.5-0.5-3.2c-0.3-0.7-0.9-1-1.6-1c-0.7,0-1.3,0.3-1.6,1
			C1683.2,8767.7,1683.1,8768.8,1683.1,8770.2z"/>
		<path class="st2" d="M1696.5,8770.2c0,1.7-0.3,3-0.8,3.9s-1.4,1.3-2.5,1.3c-1.1,0-1.9-0.4-2.5-1.3c-0.6-0.9-0.8-2.2-0.8-3.8
			c0-1.7,0.3-3,0.8-3.9s1.4-1.3,2.5-1.3c1.1,0,1.9,0.4,2.5,1.3S1696.5,8768.5,1696.5,8770.2z M1691.1,8770.2c0,1.5,0.2,2.5,0.5,3.2
			c0.3,0.7,0.9,1,1.6,1c0.8,0,1.3-0.3,1.6-1c0.3-0.7,0.5-1.7,0.5-3.2s-0.2-2.5-0.5-3.2c-0.3-0.7-0.9-1-1.6-1c-0.7,0-1.3,0.3-1.6,1
			C1691.2,8767.7,1691.1,8768.8,1691.1,8770.2z"/>
		<path class="st2" d="M1704.5,8770.2c0,1.7-0.3,3-0.8,3.9s-1.4,1.3-2.5,1.3c-1.1,0-1.9-0.4-2.5-1.3c-0.6-0.9-0.8-2.2-0.8-3.8
			c0-1.7,0.3-3,0.8-3.9s1.4-1.3,2.5-1.3c1.1,0,1.9,0.4,2.5,1.3S1704.5,8768.5,1704.5,8770.2z M1699.1,8770.2c0,1.5,0.2,2.5,0.5,3.2
			c0.3,0.7,0.9,1,1.6,1c0.8,0,1.3-0.3,1.6-1c0.3-0.7,0.5-1.7,0.5-3.2s-0.2-2.5-0.5-3.2c-0.3-0.7-0.9-1-1.6-1c-0.7,0-1.3,0.3-1.6,1
			C1699.2,8767.7,1699.1,8768.8,1699.1,8770.2z"/>
		<path class="st2" d="M1712.5,8770.2c0,1.7-0.3,3-0.8,3.9s-1.4,1.3-2.5,1.3c-1.1,0-1.9-0.4-2.5-1.3c-0.6-0.9-0.8-2.2-0.8-3.8
			c0-1.7,0.3-3,0.8-3.9s1.4-1.3,2.5-1.3c1.1,0,1.9,0.4,2.5,1.3S1712.5,8768.5,1712.5,8770.2z M1707.1,8770.2c0,1.5,0.2,2.5,0.5,3.2
			c0.3,0.7,0.9,1,1.6,1c0.8,0,1.3-0.3,1.6-1c0.3-0.7,0.5-1.7,0.5-3.2s-0.2-2.5-0.5-3.2c-0.3-0.7-0.9-1-1.6-1c-0.7,0-1.3,0.3-1.6,1
			C1707.3,8767.7,1707.1,8768.8,1707.1,8770.2z"/>
	</g>
	<g class="st1">
		<path class="st2" d="M1680.9,8709.3h-1.5v2.3h-1.1v-2.3h-4.9v-1l4.7-6.8h1.2v6.7h1.5V8709.3z M1678.4,8708.3v-3.3
			c0-0.7,0-1.4,0.1-2.2h-0.1c-0.2,0.4-0.4,0.8-0.6,1.1l-3.1,4.4H1678.4z"/>
		<path class="st2" d="M1688.5,8706.6c0,1.7-0.3,3-0.8,3.9s-1.4,1.3-2.5,1.3c-1.1,0-1.9-0.4-2.5-1.3c-0.6-0.9-0.8-2.2-0.8-3.8
			c0-1.7,0.3-3,0.8-3.9s1.4-1.3,2.5-1.3c1.1,0,1.9,0.4,2.5,1.3S1688.5,8704.9,1688.5,8706.6z M1683.1,8706.6c0,1.5,0.2,2.5,0.5,3.2
			c0.3,0.7,0.9,1,1.6,1c0.8,0,1.3-0.3,1.6-1c0.3-0.7,0.5-1.7,0.5-3.2s-0.2-2.5-0.5-3.2c-0.3-0.7-0.9-1-1.6-1c-0.7,0-1.3,0.3-1.6,1
			C1683.2,8704.1,1683.1,8705.2,1683.1,8706.6z"/>
		<path class="st2" d="M1696.5,8706.6c0,1.7-0.3,3-0.8,3.9s-1.4,1.3-2.5,1.3c-1.1,0-1.9-0.4-2.5-1.3c-0.6-0.9-0.8-2.2-0.8-3.8
			c0-1.7,0.3-3,0.8-3.9s1.4-1.3,2.5-1.3c1.1,0,1.9,0.4,2.5,1.3S1696.5,8704.9,1696.5,8706.6z M1691.1,8706.6c0,1.5,0.2,2.5,0.5,3.2
			c0.3,0.7,0.9,1,1.6,1c0.8,0,1.3-0.3,1.6-1c0.3-0.7,0.5-1.7,0.5-3.2s-0.2-2.5-0.5-3.2c-0.3-0.7-0.9-1-1.6-1c-0.7,0-1.3,0.3-1.6,1
			C1691.2,8704.1,1691.1,8705.2,1691.1,8706.6z"/>
		<path class="st2" d="M1704.5,8706.6c0,1.7-0.3,3-0.8,3.9s-1.4,1.3-2.5,1.3c-1.1,0-1.9-0.4-2.5-1.3c-0.6-0.9-0.8-2.2-0.8-3.8
			c0-1.7,0.3-3,0.8-3.9s1.4-1.3,2.5-1.3c1.1,0,1.9,0.4,2.5,1.3S1704.5,8704.9,1704.5,8706.6z M1699.1,8706.6c0,1.5,0.2,2.5,0.5,3.2
			c0.3,0.7,0.9,1,1.6,1c0.8,0,1.3-0.3,1.6-1c0.3-0.7,0.5-1.7,0.5-3.2s-0.2-2.5-0.5-3.2c-0.3-0.7-0.9-1-1.6-1c-0.7,0-1.3,0.3-1.6,1
			C1699.2,8704.1,1699.1,8705.2,1699.1,8706.6z"/>
		<path class="st2" d="M1712.5,8706.6c0,1.7-0.3,3-0.8,3.9s-1.4,1.3-2.5,1.3c-1.1,0-1.9-0.4-2.5-1.3c-0.6-0.9-0.8-2.2-0.8-3.8
			c0-1.7,0.3-3,0.8-3.9s1.4-1.3,2.5-1.3c1.1,0,1.9,0.4,2.5,1.3S1712.5,8704.9,1712.5,8706.6z M1707.1,8706.6c0,1.5,0.2,2.5,0.5,3.2
			c0.3,0.7,0.9,1,1.6,1c0.8,0,1.3-0.3,1.6-1c0.3-0.7,0.5-1.7,0.5-3.2s-0.2-2.5-0.5-3.2c-0.3-0.7-0.9-1-1.6-1c-0.7,0-1.3,0.3-1.6,1
			C1707.3,8704.1,1707.1,8705.2,1707.1,8706.6z"/>
	</g>
	<g class="st1">
		<path class="st2" d="M1674,8642c0-2,0.4-3.4,1.1-4.4c0.8-1,1.9-1.5,3.4-1.5c0.5,0,0.9,0,1.2,0.1v1c-0.4-0.1-0.8-0.2-1.2-0.2
			c-1.1,0-1.9,0.3-2.5,1c-0.6,0.7-0.9,1.7-0.9,3.1h0.1c0.5-0.8,1.3-1.2,2.4-1.2c0.9,0,1.6,0.3,2.1,0.8s0.8,1.3,0.8,2.2
			c0,1-0.3,1.9-0.9,2.5c-0.6,0.6-1.3,0.9-2.3,0.9c-1,0-1.9-0.4-2.5-1.2C1674.3,8644.5,1674,8643.4,1674,8642z M1677.4,8645.5
			c0.6,0,1.1-0.2,1.5-0.6c0.4-0.4,0.5-1,0.5-1.8c0-0.7-0.2-1.2-0.5-1.6s-0.8-0.6-1.5-0.6c-0.4,0-0.8,0.1-1.1,0.3s-0.6,0.4-0.8,0.7
			s-0.3,0.6-0.3,0.9c0,0.5,0.1,0.9,0.3,1.3s0.4,0.7,0.8,1S1676.9,8645.5,1677.4,8645.5z"/>
		<path class="st2" d="M1688.5,8641.3c0,1.7-0.3,3-0.8,3.9s-1.4,1.3-2.5,1.3c-1.1,0-1.9-0.4-2.5-1.3c-0.6-0.9-0.8-2.2-0.8-3.8
			c0-1.7,0.3-3,0.8-3.9s1.4-1.3,2.5-1.3c1.1,0,1.9,0.4,2.5,1.3S1688.5,8639.6,1688.5,8641.3z M1683.1,8641.3c0,1.5,0.2,2.5,0.5,3.2
			c0.3,0.7,0.9,1,1.6,1c0.8,0,1.3-0.3,1.6-1c0.3-0.7,0.5-1.7,0.5-3.2s-0.2-2.5-0.5-3.2c-0.3-0.7-0.9-1-1.6-1c-0.7,0-1.3,0.3-1.6,1
			C1683.2,8638.8,1683.1,8639.8,1683.1,8641.3z"/>
		<path class="st2" d="M1696.5,8641.3c0,1.7-0.3,3-0.8,3.9s-1.4,1.3-2.5,1.3c-1.1,0-1.9-0.4-2.5-1.3c-0.6-0.9-0.8-2.2-0.8-3.8
			c0-1.7,0.3-3,0.8-3.9s1.4-1.3,2.5-1.3c1.1,0,1.9,0.4,2.5,1.3S1696.5,8639.6,1696.5,8641.3z M1691.1,8641.3c0,1.5,0.2,2.5,0.5,3.2
			c0.3,0.7,0.9,1,1.6,1c0.8,0,1.3-0.3,1.6-1c0.3-0.7,0.5-1.7,0.5-3.2s-0.2-2.5-0.5-3.2c-0.3-0.7-0.9-1-1.6-1c-0.7,0-1.3,0.3-1.6,1
			C1691.2,8638.8,1691.1,8639.8,1691.1,8641.3z"/>
		<path class="st2" d="M1704.5,8641.3c0,1.7-0.3,3-0.8,3.9s-1.4,1.3-2.5,1.3c-1.1,0-1.9-0.4-2.5-1.3c-0.6-0.9-0.8-2.2-0.8-3.8
			c0-1.7,0.3-3,0.8-3.9s1.4-1.3,2.5-1.3c1.1,0,1.9,0.4,2.5,1.3S1704.5,8639.6,1704.5,8641.3z M1699.1,8641.3c0,1.5,0.2,2.5,0.5,3.2
			c0.3,0.7,0.9,1,1.6,1c0.8,0,1.3-0.3,1.6-1c0.3-0.7,0.5-1.7,0.5-3.2s-0.2-2.5-0.5-3.2c-0.3-0.7-0.9-1-1.6-1c-0.7,0-1.3,0.3-1.6,1
			C1699.2,8638.8,1699.1,8639.8,1699.1,8641.3z"/>
		<path class="st2" d="M1712.5,8641.3c0,1.7-0.3,3-0.8,3.9s-1.4,1.3-2.5,1.3c-1.1,0-1.9-0.4-2.5-1.3c-0.6-0.9-0.8-2.2-0.8-3.8
			c0-1.7,0.3-3,0.8-3.9s1.4-1.3,2.5-1.3c1.1,0,1.9,0.4,2.5,1.3S1712.5,8639.6,1712.5,8641.3z M1707.1,8641.3c0,1.5,0.2,2.5,0.5,3.2
			c0.3,0.7,0.9,1,1.6,1c0.8,0,1.3-0.3,1.6-1c0.3-0.7,0.5-1.7,0.5-3.2s-0.2-2.5-0.5-3.2c-0.3-0.7-0.9-1-1.6-1c-0.7,0-1.3,0.3-1.6,1
			C1707.3,8638.8,1707.1,8639.8,1707.1,8641.3z"/>
	</g>
	<g class="st1">
		<path class="st2" d="M1677.2,8574c0.9,0,1.6,0.2,2.2,0.6s0.8,1,0.8,1.8c0,0.5-0.2,0.9-0.5,1.3s-0.8,0.8-1.5,1.1
			c0.8,0.4,1.4,0.8,1.7,1.2c0.3,0.4,0.5,0.9,0.5,1.5c0,0.8-0.3,1.5-0.9,2c-0.6,0.5-1.4,0.7-2.4,0.7c-1.1,0-1.9-0.2-2.5-0.7
			c-0.6-0.5-0.9-1.1-0.9-2c0-1.1,0.7-2,2.1-2.7c-0.6-0.4-1.1-0.7-1.4-1.2c-0.3-0.4-0.4-0.9-0.4-1.4c0-0.7,0.3-1.3,0.8-1.7
			C1675.6,8574.3,1676.3,8574,1677.2,8574z M1675,8581.7c0,0.5,0.2,1,0.6,1.3s0.9,0.5,1.6,0.5c0.7,0,1.2-0.2,1.6-0.5
			s0.6-0.8,0.6-1.3c0-0.4-0.2-0.8-0.5-1.2c-0.4-0.3-1-0.7-1.9-1c-0.7,0.3-1.2,0.6-1.5,1C1675.2,8580.7,1675,8581.2,1675,8581.7z
			 M1677.2,8575c-0.6,0-1,0.1-1.3,0.4s-0.5,0.6-0.5,1.1c0,0.4,0.1,0.8,0.4,1.1s0.8,0.6,1.5,0.9c0.7-0.3,1.1-0.6,1.4-0.9
			s0.4-0.7,0.4-1.1c0-0.5-0.2-0.8-0.5-1.1C1678.2,8575.1,1677.8,8575,1677.2,8575z"/>
		<path class="st2" d="M1688.5,8579.2c0,1.7-0.3,3-0.8,3.9s-1.4,1.3-2.5,1.3c-1.1,0-1.9-0.4-2.5-1.3c-0.6-0.9-0.8-2.2-0.8-3.8
			c0-1.7,0.3-3,0.8-3.9s1.4-1.3,2.5-1.3c1.1,0,1.9,0.4,2.5,1.3S1688.5,8577.5,1688.5,8579.2z M1683.1,8579.2c0,1.5,0.2,2.5,0.5,3.2
			c0.3,0.7,0.9,1,1.6,1c0.8,0,1.3-0.3,1.6-1c0.3-0.7,0.5-1.7,0.5-3.2s-0.2-2.5-0.5-3.2c-0.3-0.7-0.9-1-1.6-1c-0.7,0-1.3,0.3-1.6,1
			C1683.2,8576.7,1683.1,8577.7,1683.1,8579.2z"/>
		<path class="st2" d="M1696.5,8579.2c0,1.7-0.3,3-0.8,3.9s-1.4,1.3-2.5,1.3c-1.1,0-1.9-0.4-2.5-1.3c-0.6-0.9-0.8-2.2-0.8-3.8
			c0-1.7,0.3-3,0.8-3.9s1.4-1.3,2.5-1.3c1.1,0,1.9,0.4,2.5,1.3S1696.5,8577.5,1696.5,8579.2z M1691.1,8579.2c0,1.5,0.2,2.5,0.5,3.2
			c0.3,0.7,0.9,1,1.6,1c0.8,0,1.3-0.3,1.6-1c0.3-0.7,0.5-1.7,0.5-3.2s-0.2-2.5-0.5-3.2c-0.3-0.7-0.9-1-1.6-1c-0.7,0-1.3,0.3-1.6,1
			C1691.2,8576.7,1691.1,8577.7,1691.1,8579.2z"/>
		<path class="st2" d="M1704.5,8579.2c0,1.7-0.3,3-0.8,3.9s-1.4,1.3-2.5,1.3c-1.1,0-1.9-0.4-2.5-1.3c-0.6-0.9-0.8-2.2-0.8-3.8
			c0-1.7,0.3-3,0.8-3.9s1.4-1.3,2.5-1.3c1.1,0,1.9,0.4,2.5,1.3S1704.5,8577.5,1704.5,8579.2z M1699.1,8579.2c0,1.5,0.2,2.5,0.5,3.2
			c0.3,0.7,0.9,1,1.6,1c0.8,0,1.3-0.3,1.6-1c0.3-0.7,0.5-1.7,0.5-3.2s-0.2-2.5-0.5-3.2c-0.3-0.7-0.9-1-1.6-1c-0.7,0-1.3,0.3-1.6,1
			C1699.2,8576.7,1699.1,8577.7,1699.1,8579.2z"/>
		<path class="st2" d="M1712.5,8579.2c0,1.7-0.3,3-0.8,3.9s-1.4,1.3-2.5,1.3c-1.1,0-1.9-0.4-2.5-1.3c-0.6-0.9-0.8-2.2-0.8-3.8
			c0-1.7,0.3-3,0.8-3.9s1.4-1.3,2.5-1.3c1.1,0,1.9,0.4,2.5,1.3S1712.5,8577.5,1712.5,8579.2z M1707.1,8579.2c0,1.5,0.2,2.5,0.5,3.2
			c0.3,0.7,0.9,1,1.6,1c0.8,0,1.3-0.3,1.6-1c0.3-0.7,0.5-1.7,0.5-3.2s-0.2-2.5-0.5-3.2c-0.3-0.7-0.9-1-1.6-1c-0.7,0-1.3,0.3-1.6,1
			C1707.3,8576.7,1707.1,8577.7,1707.1,8579.2z"/>
	</g>
	<g class="st1">
		<path class="st2" d="M1695.3,8872.4h-1.1v-7.1c0-0.6,0-1.2,0.1-1.7c-0.1,0.1-0.2,0.2-0.3,0.3c-0.1,0.1-0.7,0.5-1.6,1.3l-0.6-0.8
			l2.6-2h1V8872.4z"/>
		<path class="st2" d="M1701.9,8875c-0.4,0-0.8-0.1-1-0.2v-1c0.3,0.1,0.7,0.1,1,0.1c0.5,0,0.8-0.1,1-0.4c0.2-0.3,0.4-0.7,0.4-1.2
			v-10h1.2v9.9c0,0.9-0.2,1.5-0.7,2C1703.4,8874.8,1702.7,8875,1701.9,8875z"/>
		<path class="st2" d="M1708,8864.9v4.9c0,0.6,0.1,1.1,0.4,1.4c0.3,0.3,0.7,0.5,1.3,0.5c0.8,0,1.4-0.2,1.7-0.6s0.5-1.1,0.5-2.1v-3.9
			h1.1v7.5h-0.9l-0.2-1h-0.1c-0.2,0.4-0.6,0.7-1,0.8c-0.4,0.2-0.9,0.3-1.4,0.3c-0.9,0-1.6-0.2-2-0.6c-0.5-0.4-0.7-1.1-0.7-2.1v-4.9
			H1708z"/>
		<path class="st2" d="M1716.7,8872.4h-1.1v-10.6h1.1V8872.4z"/>
		<path class="st2" d="M1728.8,8872.4h-6.6v-1l2.6-2.6c0.8-0.8,1.3-1.4,1.6-1.7c0.3-0.3,0.4-0.7,0.6-1c0.1-0.3,0.2-0.7,0.2-1.1
			c0-0.5-0.2-1-0.5-1.3c-0.3-0.3-0.8-0.5-1.3-0.5c-0.4,0-0.8,0.1-1.2,0.2c-0.4,0.1-0.8,0.4-1.2,0.7l-0.6-0.8c0.9-0.8,1.9-1.1,3-1.1
			c0.9,0,1.7,0.2,2.2,0.7c0.5,0.5,0.8,1.1,0.8,1.9c0,0.6-0.2,1.3-0.5,1.9s-1,1.4-2,2.4l-2.2,2.1v0.1h5.1V8872.4z"/>
		<path class="st2" d="M1736.8,8867.4c0,1.7-0.3,3-0.8,3.9c-0.5,0.9-1.4,1.3-2.5,1.3c-1.1,0-1.9-0.4-2.5-1.3
			c-0.6-0.9-0.8-2.2-0.8-3.8c0-1.7,0.3-3,0.8-3.9c0.5-0.8,1.4-1.3,2.5-1.3c1.1,0,1.9,0.4,2.5,1.3
			C1736.5,8864.4,1736.8,8865.7,1736.8,8867.4z M1731.4,8867.4c0,1.5,0.2,2.5,0.5,3.2c0.3,0.7,0.9,1,1.6,1c0.8,0,1.3-0.3,1.6-1
			c0.3-0.7,0.5-1.7,0.5-3.2s-0.2-2.5-0.5-3.2c-0.3-0.7-0.9-1-1.6-1c-0.7,0-1.3,0.3-1.6,1C1731.5,8864.9,1731.4,8865.9,1731.4,8867.4
			z"/>
		<path class="st2" d="M1742.4,8872.4h-1.1v-7.1c0-0.6,0-1.2,0.1-1.7c-0.1,0.1-0.2,0.2-0.3,0.3c-0.1,0.1-0.7,0.5-1.6,1.3l-0.6-0.8
			l2.6-2h1V8872.4z"/>
		<path class="st2" d="M1752.8,8866.7c0,3.9-1.5,5.9-4.5,5.9c-0.5,0-0.9,0-1.3-0.1v-1c0.4,0.1,0.8,0.2,1.2,0.2c1.1,0,1.9-0.3,2.5-1
			c0.6-0.7,0.9-1.7,0.9-3.1h-0.1c-0.3,0.4-0.6,0.7-1,0.9c-0.4,0.2-0.9,0.3-1.4,0.3c-0.9,0-1.6-0.3-2.1-0.8s-0.8-1.3-0.8-2.2
			c0-1,0.3-1.9,0.9-2.5s1.3-0.9,2.3-0.9c0.7,0,1.3,0.2,1.8,0.5c0.5,0.3,0.9,0.9,1.2,1.5C1752.6,8865,1752.8,8865.8,1752.8,8866.7z
			 M1749.4,8863.2c-0.7,0-1.2,0.2-1.5,0.6s-0.5,1-0.5,1.8c0,0.7,0.2,1.2,0.5,1.5c0.3,0.4,0.8,0.6,1.5,0.6c0.4,0,0.8-0.1,1.1-0.3
			s0.6-0.4,0.8-0.7c0.2-0.3,0.3-0.6,0.3-0.9c0-0.5-0.1-0.9-0.3-1.3c-0.2-0.4-0.4-0.7-0.8-1S1749.9,8863.2,1749.4,8863.2z"/>
	</g>
	<g class="st1">
		<path class="st2" d="M1807,8872.4h-1.1v-7.1c0-0.6,0-1.2,0.1-1.7c-0.1,0.1-0.2,0.2-0.3,0.3s-0.7,0.5-1.6,1.3l-0.6-0.8l2.6-2h1
			V8872.4z"/>
		<path class="st2" d="M1820.8,8869.7c0,0.9-0.3,1.6-1,2.1s-1.5,0.7-2.6,0.7c-1.2,0-2.1-0.2-2.7-0.5v-1.1c0.4,0.2,0.9,0.3,1.3,0.4
			s1,0.2,1.4,0.2c0.8,0,1.4-0.1,1.8-0.4c0.4-0.3,0.6-0.7,0.6-1.2c0-0.3-0.1-0.6-0.2-0.9c-0.1-0.2-0.4-0.4-0.7-0.6s-0.8-0.4-1.5-0.6
			c-0.9-0.3-1.6-0.7-2-1.2s-0.6-1.1-0.6-1.8c0-0.8,0.3-1.4,0.9-1.8s1.3-0.7,2.3-0.7c1,0,1.9,0.2,2.7,0.5l-0.4,1
			c-0.8-0.3-1.6-0.5-2.4-0.5c-0.6,0-1.1,0.1-1.4,0.4s-0.5,0.6-0.5,1.1c0,0.3,0.1,0.6,0.2,0.9c0.1,0.2,0.3,0.4,0.6,0.6
			c0.3,0.2,0.8,0.4,1.4,0.6c1,0.4,1.8,0.8,2.2,1.2S1820.8,8869,1820.8,8869.7z"/>
		<path class="st2" d="M1825.8,8872.5c-1.1,0-2-0.3-2.6-1s-1-1.6-1-2.8c0-1.2,0.3-2.2,0.9-2.9s1.4-1.1,2.4-1.1
			c0.9,0,1.7,0.3,2.2,0.9c0.5,0.6,0.8,1.4,0.8,2.4v0.7h-5.2c0,0.9,0.2,1.5,0.7,2s1,0.7,1.8,0.7c0.8,0,1.6-0.2,2.4-0.5v1
			c-0.4,0.2-0.8,0.3-1.1,0.4C1826.8,8872.5,1826.3,8872.5,1825.8,8872.5z M1825.5,8865.7c-0.6,0-1.1,0.2-1.4,0.6s-0.6,0.9-0.6,1.6
			h3.9c0-0.7-0.2-1.3-0.5-1.6C1826.6,8865.9,1826.1,8865.7,1825.5,8865.7z"/>
		<path class="st2" d="M1834,8872.5c-0.5,0-0.9-0.1-1.3-0.3c-0.4-0.2-0.7-0.5-1-0.8h-0.1c0.1,0.4,0.1,0.9,0.1,1.2v3.1h-1.1v-10.9
			h0.9l0.2,1h0.1c0.3-0.4,0.6-0.7,1-0.9s0.8-0.3,1.3-0.3c1,0,1.8,0.3,2.3,1s0.8,1.6,0.8,2.9c0,1.2-0.3,2.2-0.8,2.9
			C1835.8,8872.2,1835,8872.5,1834,8872.5z M1833.9,8865.7c-0.8,0-1.3,0.2-1.7,0.6s-0.5,1.1-0.5,2v0.3c0,1.1,0.2,1.8,0.5,2.3
			c0.4,0.5,0.9,0.7,1.7,0.7c0.6,0,1.2-0.3,1.5-0.8s0.6-1.2,0.6-2.2c0-0.9-0.2-1.7-0.6-2.1C1835,8866,1834.5,8865.7,1833.9,8865.7z"
			/>
		<path class="st2" d="M1848.8,8872.4h-6.6v-1l2.6-2.6c0.8-0.8,1.3-1.4,1.6-1.7s0.4-0.7,0.6-1s0.2-0.7,0.2-1.1c0-0.5-0.2-1-0.5-1.3
			c-0.3-0.3-0.8-0.5-1.3-0.5c-0.4,0-0.8,0.1-1.2,0.2s-0.8,0.4-1.2,0.7l-0.6-0.8c0.9-0.8,1.9-1.1,3-1.1c0.9,0,1.7,0.2,2.2,0.7
			c0.5,0.5,0.8,1.1,0.8,1.9c0,0.6-0.2,1.3-0.5,1.9s-1,1.4-2,2.4l-2.2,2.1v0.1h5.1V8872.4z"/>
		<path class="st2" d="M1856.9,8867.4c0,1.7-0.3,3-0.8,3.9s-1.4,1.3-2.5,1.3c-1.1,0-1.9-0.4-2.5-1.3c-0.6-0.9-0.8-2.2-0.8-3.8
			c0-1.7,0.3-3,0.8-3.9s1.4-1.3,2.5-1.3c1.1,0,1.9,0.4,2.5,1.3S1856.9,8865.7,1856.9,8867.4z M1851.4,8867.4c0,1.5,0.2,2.5,0.5,3.2
			c0.3,0.7,0.9,1,1.6,1c0.8,0,1.3-0.3,1.6-1c0.3-0.7,0.5-1.7,0.5-3.2s-0.2-2.5-0.5-3.2c-0.3-0.7-0.9-1-1.6-1c-0.7,0-1.3,0.3-1.6,1
			C1851.6,8864.9,1851.4,8865.9,1851.4,8867.4z"/>
		<path class="st2" d="M1862.4,8872.4h-1.1v-7.1c0-0.6,0-1.2,0.1-1.7c-0.1,0.1-0.2,0.2-0.3,0.3s-0.7,0.5-1.6,1.3l-0.6-0.8l2.6-2h1
			V8872.4z"/>
		<path class="st2" d="M1872.8,8866.7c0,3.9-1.5,5.9-4.5,5.9c-0.5,0-0.9,0-1.3-0.1v-1c0.4,0.1,0.8,0.2,1.2,0.2c1.1,0,1.9-0.3,2.5-1
			c0.6-0.7,0.9-1.7,0.9-3.1h-0.1c-0.3,0.4-0.6,0.7-1,0.9c-0.4,0.2-0.9,0.3-1.4,0.3c-0.9,0-1.6-0.3-2.1-0.8s-0.8-1.3-0.8-2.2
			c0-1,0.3-1.9,0.9-2.5s1.3-0.9,2.3-0.9c0.7,0,1.3,0.2,1.8,0.5c0.5,0.3,0.9,0.9,1.2,1.5C1872.7,8865,1872.8,8865.8,1872.8,8866.7z
			 M1869.4,8863.2c-0.7,0-1.2,0.2-1.5,0.6s-0.5,1-0.5,1.8c0,0.7,0.2,1.2,0.5,1.5c0.3,0.4,0.8,0.6,1.5,0.6c0.4,0,0.8-0.1,1.1-0.3
			s0.6-0.4,0.8-0.7s0.3-0.6,0.3-0.9c0-0.5-0.1-0.9-0.3-1.3s-0.4-0.7-0.8-1S1869.9,8863.2,1869.4,8863.2z"/>
	</g>
	<g class="st1">
		<path class="st2" d="M1920.4,8872.4h-1.1v-7.1c0-0.6,0-1.2,0.1-1.7c-0.1,0.1-0.2,0.2-0.3,0.3s-0.7,0.5-1.6,1.3l-0.6-0.8l2.6-2h1
			V8872.4z"/>
		<path class="st2" d="M1936.3,8872.4h-1.3l-5.5-8.4h-0.1c0.1,1,0.1,1.9,0.1,2.7v5.7h-1.1v-10h1.3l5.4,8.4h0.1c0-0.1,0-0.5-0.1-1.2
			c0-0.7,0-1.1,0-1.4v-5.7h1.1V8872.4z"/>
		<path class="st2" d="M1945.4,8868.6c0,1.2-0.3,2.2-0.9,2.9c-0.6,0.7-1.5,1-2.5,1c-0.7,0-1.3-0.2-1.8-0.5s-0.9-0.8-1.2-1.4
			s-0.4-1.3-0.4-2.1c0-1.2,0.3-2.2,0.9-2.9c0.6-0.7,1.5-1,2.5-1c1,0,1.9,0.3,2.5,1S1945.4,8867.5,1945.4,8868.6z M1939.7,8868.6
			c0,1,0.2,1.7,0.6,2.2s0.9,0.8,1.7,0.8s1.3-0.2,1.7-0.7c0.4-0.5,0.6-1.2,0.6-2.2c0-1-0.2-1.7-0.6-2.2c-0.4-0.5-1-0.7-1.7-0.7
			c-0.7,0-1.3,0.2-1.7,0.7S1939.7,8867.7,1939.7,8868.6z"/>
		<path class="st2" d="M1949,8872.4l-2.8-7.5h1.2l1.6,4.4c0.4,1,0.6,1.7,0.6,2h0.1c0.1-0.2,0.2-0.7,0.5-1.5c0.3-0.8,0.9-2.4,1.8-5
			h1.2l-2.8,7.5H1949z"/>
		<path class="st2" d="M1964.1,8872.4h-6.6v-1l2.6-2.6c0.8-0.8,1.3-1.4,1.6-1.7s0.4-0.7,0.6-1s0.2-0.7,0.2-1.1c0-0.5-0.2-1-0.5-1.3
			c-0.3-0.3-0.8-0.5-1.3-0.5c-0.4,0-0.8,0.1-1.2,0.2s-0.8,0.4-1.2,0.7l-0.6-0.8c0.9-0.8,1.9-1.1,3-1.1c0.9,0,1.7,0.2,2.2,0.7
			c0.5,0.5,0.8,1.1,0.8,1.9c0,0.6-0.2,1.3-0.5,1.9s-1,1.4-2,2.4l-2.2,2.1v0.1h5.1V8872.4z"/>
		<path class="st2" d="M1972.1,8867.4c0,1.7-0.3,3-0.8,3.9s-1.4,1.3-2.5,1.3c-1.1,0-1.9-0.4-2.5-1.3c-0.6-0.9-0.8-2.2-0.8-3.8
			c0-1.7,0.3-3,0.8-3.9s1.4-1.3,2.5-1.3c1.1,0,1.9,0.4,2.5,1.3S1972.1,8865.7,1972.1,8867.4z M1966.7,8867.4c0,1.5,0.2,2.5,0.5,3.2
			c0.3,0.7,0.9,1,1.6,1c0.8,0,1.3-0.3,1.6-1c0.3-0.7,0.5-1.7,0.5-3.2s-0.2-2.5-0.5-3.2c-0.3-0.7-0.9-1-1.6-1c-0.7,0-1.3,0.3-1.6,1
			C1966.8,8864.9,1966.7,8865.9,1966.7,8867.4z"/>
		<path class="st2" d="M1977.7,8872.4h-1.1v-7.1c0-0.6,0-1.2,0.1-1.7c-0.1,0.1-0.2,0.2-0.3,0.3s-0.7,0.5-1.6,1.3l-0.6-0.8l2.6-2h1
			V8872.4z"/>
		<path class="st2" d="M1988.1,8866.7c0,3.9-1.5,5.9-4.5,5.9c-0.5,0-0.9,0-1.3-0.1v-1c0.4,0.1,0.8,0.2,1.2,0.2c1.1,0,1.9-0.3,2.5-1
			c0.6-0.7,0.9-1.7,0.9-3.1h-0.1c-0.3,0.4-0.6,0.7-1,0.9c-0.4,0.2-0.9,0.3-1.4,0.3c-0.9,0-1.6-0.3-2.1-0.8s-0.8-1.3-0.8-2.2
			c0-1,0.3-1.9,0.9-2.5s1.3-0.9,2.3-0.9c0.7,0,1.3,0.2,1.8,0.5c0.5,0.3,0.9,0.9,1.2,1.5C1988,8865,1988.1,8865.8,1988.1,8866.7z
			 M1984.7,8863.2c-0.7,0-1.2,0.2-1.5,0.6s-0.5,1-0.5,1.8c0,0.7,0.2,1.2,0.5,1.5c0.3,0.4,0.8,0.6,1.5,0.6c0.4,0,0.8-0.1,1.1-0.3
			s0.6-0.4,0.8-0.7s0.3-0.6,0.3-0.9c0-0.5-0.1-0.9-0.3-1.3s-0.4-0.7-0.8-1S1985.2,8863.2,1984.7,8863.2z"/>
	</g>
	<g class="st1">
		<path class="st2" d="M2039.6,8872.4h-1.1v-7.1c0-0.6,0-1.2,0.1-1.7c-0.1,0.1-0.2,0.2-0.3,0.3c-0.1,0.1-0.7,0.5-1.6,1.3l-0.6-0.8
			l2.6-2h1V8872.4z"/>
		<path class="st2" d="M2046.3,8875c-0.4,0-0.8-0.1-1-0.2v-1c0.3,0.1,0.7,0.1,1,0.1c0.5,0,0.8-0.1,1-0.4c0.2-0.3,0.4-0.7,0.4-1.2
			v-10h1.2v9.9c0,0.9-0.2,1.5-0.7,2C2047.7,8874.8,2047.1,8875,2046.3,8875z"/>
		<path class="st2" d="M2055.9,8872.4l-0.2-1.1h-0.1c-0.4,0.5-0.7,0.8-1.1,1c-0.4,0.2-0.8,0.2-1.4,0.2c-0.7,0-1.3-0.2-1.7-0.6
			c-0.4-0.4-0.6-0.9-0.6-1.6c0-1.5,1.2-2.3,3.6-2.4l1.3,0v-0.5c0-0.6-0.1-1-0.4-1.3c-0.3-0.3-0.7-0.4-1.2-0.4
			c-0.6,0-1.3,0.2-2.1,0.6l-0.3-0.9c0.4-0.2,0.8-0.4,1.2-0.5c0.4-0.1,0.9-0.2,1.3-0.2c0.9,0,1.6,0.2,2,0.6s0.6,1,0.6,1.9v5.1H2055.9
			z M2053.3,8871.6c0.7,0,1.3-0.2,1.7-0.6s0.6-0.9,0.6-1.6v-0.7l-1.1,0c-0.9,0-1.6,0.2-2,0.4c-0.4,0.2-0.6,0.6-0.6,1.2
			c0,0.4,0.1,0.7,0.4,0.9C2052.5,8871.5,2052.9,8871.6,2053.3,8871.6z"/>
		<path class="st2" d="M2064.2,8872.4v-4.8c0-0.6-0.1-1.1-0.4-1.4c-0.3-0.3-0.7-0.5-1.3-0.5c-0.8,0-1.4,0.2-1.7,0.6
			c-0.4,0.4-0.5,1.1-0.5,2.1v3.9h-1.1v-7.5h0.9l0.2,1h0.1c0.2-0.4,0.6-0.7,1-0.9c0.4-0.2,0.9-0.3,1.4-0.3c0.9,0,1.6,0.2,2,0.7
			c0.5,0.4,0.7,1.1,0.7,2.1v4.9H2064.2z"/>
		<path class="st2" d="M2077.3,8872.4h-6.6v-1l2.6-2.6c0.8-0.8,1.3-1.4,1.6-1.7c0.3-0.3,0.4-0.7,0.6-1c0.1-0.3,0.2-0.7,0.2-1.1
			c0-0.5-0.2-1-0.5-1.3c-0.3-0.3-0.8-0.5-1.3-0.5c-0.4,0-0.8,0.1-1.2,0.2c-0.4,0.1-0.8,0.4-1.2,0.7l-0.6-0.8c0.9-0.8,1.9-1.1,3-1.1
			c0.9,0,1.7,0.2,2.2,0.7c0.5,0.5,0.8,1.1,0.8,1.9c0,0.6-0.2,1.3-0.5,1.9s-1,1.4-2,2.4l-2.2,2.1v0.1h5.1V8872.4z"/>
		<path class="st2" d="M2085.4,8867.4c0,1.7-0.3,3-0.8,3.9c-0.5,0.9-1.4,1.3-2.5,1.3c-1.1,0-1.9-0.4-2.5-1.3
			c-0.6-0.9-0.8-2.2-0.8-3.8c0-1.7,0.3-3,0.8-3.9c0.5-0.8,1.4-1.3,2.5-1.3c1.1,0,1.9,0.4,2.5,1.3
			C2085.1,8864.4,2085.4,8865.7,2085.4,8867.4z M2079.9,8867.4c0,1.5,0.2,2.5,0.5,3.2c0.3,0.7,0.9,1,1.6,1c0.8,0,1.3-0.3,1.6-1
			c0.3-0.7,0.5-1.7,0.5-3.2s-0.2-2.5-0.5-3.2c-0.3-0.7-0.9-1-1.6-1c-0.7,0-1.3,0.3-1.6,1C2080.1,8864.9,2079.9,8865.9,2079.9,8867.4
			z"/>
		<path class="st2" d="M2093.4,8872.4h-6.6v-1l2.6-2.6c0.8-0.8,1.3-1.4,1.6-1.7c0.3-0.3,0.4-0.7,0.6-1c0.1-0.3,0.2-0.7,0.2-1.1
			c0-0.5-0.2-1-0.5-1.3c-0.3-0.3-0.8-0.5-1.3-0.5c-0.4,0-0.8,0.1-1.2,0.2c-0.4,0.1-0.8,0.4-1.2,0.7l-0.6-0.8c0.9-0.8,1.9-1.1,3-1.1
			c0.9,0,1.7,0.2,2.2,0.7c0.5,0.5,0.8,1.1,0.8,1.9c0,0.6-0.2,1.3-0.5,1.9s-1,1.4-2,2.4l-2.2,2.1v0.1h5.1V8872.4z"/>
		<path class="st2" d="M2101.4,8867.4c0,1.7-0.3,3-0.8,3.9c-0.5,0.9-1.4,1.3-2.5,1.3c-1.1,0-1.9-0.4-2.5-1.3
			c-0.6-0.9-0.8-2.2-0.8-3.8c0-1.7,0.3-3,0.8-3.9c0.5-0.8,1.4-1.3,2.5-1.3c1.1,0,1.9,0.4,2.5,1.3
			C2101.1,8864.4,2101.4,8865.7,2101.4,8867.4z M2096,8867.4c0,1.5,0.2,2.5,0.5,3.2c0.3,0.7,0.9,1,1.6,1c0.8,0,1.3-0.3,1.6-1
			c0.3-0.7,0.5-1.7,0.5-3.2s-0.2-2.5-0.5-3.2c-0.3-0.7-0.9-1-1.6-1c-0.7,0-1.3,0.3-1.6,1C2096.1,8864.9,2096,8865.9,2096,8867.4z"/>
	</g>
	<g class="st1">
		<path class="st2" d="M2152.5,8872.4h-1.1v-7.1c0-0.6,0-1.2,0.1-1.7c-0.1,0.1-0.2,0.2-0.3,0.3c-0.1,0.1-0.7,0.5-1.6,1.3l-0.6-0.8
			l2.6-2h1V8872.4z"/>
		<path class="st2" d="M2165.1,8872.4l-3.4-8.9h-0.1c0.1,0.7,0.1,1.5,0.1,2.5v6.4h-1.1v-10h1.8l3.2,8.2h0.1l3.2-8.2h1.7v10h-1.2
			v-6.4c0-0.7,0-1.5,0.1-2.4h-0.1l-3.4,8.8H2165.1z"/>
		<path class="st2" d="M2177.7,8872.4l-0.2-1.1h-0.1c-0.4,0.5-0.7,0.8-1.1,1c-0.4,0.2-0.8,0.2-1.4,0.2c-0.7,0-1.3-0.2-1.7-0.6
			s-0.6-0.9-0.6-1.6c0-1.5,1.2-2.3,3.6-2.4l1.3,0v-0.5c0-0.6-0.1-1-0.4-1.3c-0.3-0.3-0.7-0.4-1.2-0.4c-0.6,0-1.3,0.2-2.1,0.6
			l-0.3-0.9c0.4-0.2,0.8-0.4,1.2-0.5s0.9-0.2,1.3-0.2c0.9,0,1.6,0.2,2,0.6s0.6,1,0.6,1.9v5.1H2177.7z M2175.2,8871.6
			c0.7,0,1.3-0.2,1.7-0.6s0.6-0.9,0.6-1.6v-0.7l-1.1,0c-0.9,0-1.6,0.2-2,0.4c-0.4,0.2-0.6,0.6-0.6,1.2c0,0.4,0.1,0.7,0.4,0.9
			S2174.7,8871.6,2175.2,8871.6z"/>
		<path class="st2" d="M2184.3,8864.8c0.3,0,0.6,0,0.9,0.1l-0.2,1.1c-0.3-0.1-0.6-0.1-0.8-0.1c-0.6,0-1.1,0.2-1.6,0.7
			s-0.6,1.1-0.6,1.8v4h-1.1v-7.5h0.9l0.1,1.4h0.1c0.3-0.5,0.6-0.9,1-1.1C2183.4,8864.9,2183.9,8864.8,2184.3,8864.8z"/>
		<path class="st2" d="M2196.3,8872.4h-6.6v-1l2.6-2.6c0.8-0.8,1.3-1.4,1.6-1.7c0.3-0.3,0.4-0.7,0.6-1c0.1-0.3,0.2-0.7,0.2-1.1
			c0-0.5-0.2-1-0.5-1.3c-0.3-0.3-0.8-0.5-1.3-0.5c-0.4,0-0.8,0.1-1.2,0.2s-0.8,0.4-1.2,0.7l-0.6-0.8c0.9-0.8,1.9-1.1,3-1.1
			c0.9,0,1.7,0.2,2.2,0.7c0.5,0.5,0.8,1.1,0.8,1.9c0,0.6-0.2,1.3-0.5,1.9s-1,1.4-2,2.4l-2.2,2.1v0.1h5.1V8872.4z"/>
		<path class="st2" d="M2204.4,8867.4c0,1.7-0.3,3-0.8,3.9s-1.4,1.3-2.5,1.3c-1.1,0-1.9-0.4-2.5-1.3c-0.6-0.9-0.8-2.2-0.8-3.8
			c0-1.7,0.3-3,0.8-3.9c0.5-0.8,1.4-1.3,2.5-1.3c1.1,0,1.9,0.4,2.5,1.3S2204.4,8865.7,2204.4,8867.4z M2198.9,8867.4
			c0,1.5,0.2,2.5,0.5,3.2c0.3,0.7,0.9,1,1.6,1c0.8,0,1.3-0.3,1.6-1c0.3-0.7,0.5-1.7,0.5-3.2s-0.2-2.5-0.5-3.2c-0.3-0.7-0.9-1-1.6-1
			c-0.7,0-1.3,0.3-1.6,1C2199.1,8864.9,2198.9,8865.9,2198.9,8867.4z"/>
		<path class="st2" d="M2212.3,8872.4h-6.6v-1l2.6-2.6c0.8-0.8,1.3-1.4,1.6-1.7c0.3-0.3,0.4-0.7,0.6-1c0.1-0.3,0.2-0.7,0.2-1.1
			c0-0.5-0.2-1-0.5-1.3c-0.3-0.3-0.8-0.5-1.3-0.5c-0.4,0-0.8,0.1-1.2,0.2s-0.8,0.4-1.2,0.7l-0.6-0.8c0.9-0.8,1.9-1.1,3-1.1
			c0.9,0,1.7,0.2,2.2,0.7c0.5,0.5,0.8,1.1,0.8,1.9c0,0.6-0.2,1.3-0.5,1.9s-1,1.4-2,2.4l-2.2,2.1v0.1h5.1V8872.4z"/>
		<path class="st2" d="M2220.4,8867.4c0,1.7-0.3,3-0.8,3.9s-1.4,1.3-2.5,1.3c-1.1,0-1.9-0.4-2.5-1.3c-0.6-0.9-0.8-2.2-0.8-3.8
			c0-1.7,0.3-3,0.8-3.9c0.5-0.8,1.4-1.3,2.5-1.3c1.1,0,1.9,0.4,2.5,1.3S2220.4,8865.7,2220.4,8867.4z M2214.9,8867.4
			c0,1.5,0.2,2.5,0.5,3.2c0.3,0.7,0.9,1,1.6,1c0.8,0,1.3-0.3,1.6-1c0.3-0.7,0.5-1.7,0.5-3.2s-0.2-2.5-0.5-3.2c-0.3-0.7-0.9-1-1.6-1
			c-0.7,0-1.3,0.3-1.6,1C2215.1,8864.9,2214.9,8865.9,2214.9,8867.4z"/>
	</g>
	<g class="st1">
		<path class="st2" d="M2273.1,8872.4h-1.1v-7.1c0-0.6,0-1.2,0.1-1.7c-0.1,0.1-0.2,0.2-0.3,0.3c-0.1,0.1-0.7,0.5-1.6,1.3l-0.6-0.8
			l2.6-2h1V8872.4z"/>
		<path class="st2" d="M2285.6,8872.4l-3.4-8.9h-0.1c0.1,0.7,0.1,1.5,0.1,2.5v6.4h-1.1v-10h1.8l3.2,8.2h0.1l3.2-8.2h1.7v10h-1.2
			v-6.4c0-0.7,0-1.5,0.1-2.4h-0.1l-3.4,8.8H2285.6z"/>
		<path class="st2" d="M2298.3,8872.4l-0.2-1.1h-0.1c-0.4,0.5-0.7,0.8-1.1,1c-0.4,0.2-0.8,0.2-1.4,0.2c-0.7,0-1.3-0.2-1.7-0.6
			s-0.6-0.9-0.6-1.6c0-1.5,1.2-2.3,3.6-2.4l1.3,0v-0.5c0-0.6-0.1-1-0.4-1.3c-0.3-0.3-0.7-0.4-1.2-0.4c-0.6,0-1.3,0.2-2.1,0.6
			l-0.3-0.9c0.4-0.2,0.8-0.4,1.2-0.5s0.9-0.2,1.3-0.2c0.9,0,1.6,0.2,2,0.6s0.6,1,0.6,1.9v5.1H2298.3z M2295.7,8871.6
			c0.7,0,1.3-0.2,1.7-0.6s0.6-0.9,0.6-1.6v-0.7l-1.1,0c-0.9,0-1.6,0.2-2,0.4c-0.4,0.2-0.6,0.6-0.6,1.2c0,0.4,0.1,0.7,0.4,0.9
			S2295.3,8871.6,2295.7,8871.6z"/>
		<path class="st2" d="M2300.3,8864.9h1.2l1.6,4.3c0.4,1,0.6,1.7,0.7,2.1h0.1c0.1-0.2,0.2-0.6,0.4-1.2c0.2-0.6,0.8-2.3,1.9-5.2h1.2
			l-3.2,8.5c-0.3,0.8-0.7,1.4-1.1,1.8c-0.4,0.4-0.9,0.5-1.6,0.5c-0.3,0-0.7,0-1-0.1v-0.9c0.2,0.1,0.5,0.1,0.8,0.1
			c0.8,0,1.3-0.4,1.7-1.3l0.4-1.1L2300.3,8864.9z"/>
		<path class="st2" d="M2318.2,8872.4h-6.6v-1l2.6-2.6c0.8-0.8,1.3-1.4,1.6-1.7c0.3-0.3,0.4-0.7,0.6-1c0.1-0.3,0.2-0.7,0.2-1.1
			c0-0.5-0.2-1-0.5-1.3c-0.3-0.3-0.8-0.5-1.3-0.5c-0.4,0-0.8,0.1-1.2,0.2s-0.8,0.4-1.2,0.7l-0.6-0.8c0.9-0.8,1.9-1.1,3-1.1
			c0.9,0,1.7,0.2,2.2,0.7c0.5,0.5,0.8,1.1,0.8,1.9c0,0.6-0.2,1.3-0.5,1.9s-1,1.4-2,2.4l-2.2,2.1v0.1h5.1V8872.4z"/>
		<path class="st2" d="M2326.3,8867.4c0,1.7-0.3,3-0.8,3.9s-1.4,1.3-2.5,1.3c-1.1,0-1.9-0.4-2.5-1.3c-0.6-0.9-0.8-2.2-0.8-3.8
			c0-1.7,0.3-3,0.8-3.9c0.5-0.8,1.4-1.3,2.5-1.3c1.1,0,1.9,0.4,2.5,1.3S2326.3,8865.7,2326.3,8867.4z M2320.8,8867.4
			c0,1.5,0.2,2.5,0.5,3.2c0.3,0.7,0.9,1,1.6,1c0.8,0,1.3-0.3,1.6-1c0.3-0.7,0.5-1.7,0.5-3.2s-0.2-2.5-0.5-3.2c-0.3-0.7-0.9-1-1.6-1
			c-0.7,0-1.3,0.3-1.6,1C2321,8864.9,2320.8,8865.9,2320.8,8867.4z"/>
		<path class="st2" d="M2334.2,8872.4h-6.6v-1l2.6-2.6c0.8-0.8,1.3-1.4,1.6-1.7c0.3-0.3,0.4-0.7,0.6-1c0.1-0.3,0.2-0.7,0.2-1.1
			c0-0.5-0.2-1-0.5-1.3c-0.3-0.3-0.8-0.5-1.3-0.5c-0.4,0-0.8,0.1-1.2,0.2s-0.8,0.4-1.2,0.7l-0.6-0.8c0.9-0.8,1.9-1.1,3-1.1
			c0.9,0,1.7,0.2,2.2,0.7c0.5,0.5,0.8,1.1,0.8,1.9c0,0.6-0.2,1.3-0.5,1.9s-1,1.4-2,2.4l-2.2,2.1v0.1h5.1V8872.4z"/>
		<path class="st2" d="M2342.3,8867.4c0,1.7-0.3,3-0.8,3.9s-1.4,1.3-2.5,1.3c-1.1,0-1.9-0.4-2.5-1.3c-0.6-0.9-0.8-2.2-0.8-3.8
			c0-1.7,0.3-3,0.8-3.9c0.5-0.8,1.4-1.3,2.5-1.3c1.1,0,1.9,0.4,2.5,1.3S2342.3,8865.7,2342.3,8867.4z M2336.8,8867.4
			c0,1.5,0.2,2.5,0.5,3.2c0.3,0.7,0.9,1,1.6,1c0.8,0,1.3-0.3,1.6-1c0.3-0.7,0.5-1.7,0.5-3.2s-0.2-2.5-0.5-3.2c-0.3-0.7-0.9-1-1.6-1
			c-0.7,0-1.3,0.3-1.6,1C2337,8864.9,2336.8,8865.9,2336.8,8867.4z"/>
	</g>
	<g class="st1">
		<path class="st2" d="M2379.3,8872.4h-1.1v-7.1c0-0.6,0-1.2,0.1-1.7c-0.1,0.1-0.2,0.2-0.3,0.3c-0.1,0.1-0.7,0.5-1.6,1.3l-0.6-0.8
			l2.6-2h1V8872.4z"/>
		<path class="st2" d="M2385.9,8875c-0.4,0-0.8-0.1-1-0.2v-1c0.3,0.1,0.7,0.1,1,0.1c0.5,0,0.8-0.1,1-0.4c0.2-0.3,0.4-0.7,0.4-1.2
			v-10h1.2v9.9c0,0.9-0.2,1.5-0.7,2C2387.4,8874.8,2386.7,8875,2385.9,8875z"/>
		<path class="st2" d="M2392,8864.9v4.9c0,0.6,0.1,1.1,0.4,1.4c0.3,0.3,0.7,0.5,1.3,0.5c0.8,0,1.4-0.2,1.7-0.6s0.5-1.1,0.5-2.1v-3.9
			h1.1v7.5h-0.9l-0.2-1h-0.1c-0.2,0.4-0.6,0.7-1,0.8c-0.4,0.2-0.9,0.3-1.4,0.3c-0.9,0-1.6-0.2-2-0.6c-0.5-0.4-0.7-1.1-0.7-2.1v-4.9
			H2392z"/>
		<path class="st2" d="M2404.7,8872.4v-4.8c0-0.6-0.1-1.1-0.4-1.4c-0.3-0.3-0.7-0.5-1.3-0.5c-0.8,0-1.4,0.2-1.7,0.6
			c-0.4,0.4-0.5,1.1-0.5,2.1v3.9h-1.1v-7.5h0.9l0.2,1h0.1c0.2-0.4,0.6-0.7,1-0.9c0.4-0.2,0.9-0.3,1.4-0.3c0.9,0,1.6,0.2,2,0.7
			c0.5,0.4,0.7,1.1,0.7,2.1v4.9H2404.7z"/>
		<path class="st2" d="M2417.8,8872.4h-6.6v-1l2.6-2.6c0.8-0.8,1.3-1.4,1.6-1.7c0.3-0.3,0.4-0.7,0.6-1c0.1-0.3,0.2-0.7,0.2-1.1
			c0-0.5-0.2-1-0.5-1.3c-0.3-0.3-0.8-0.5-1.3-0.5c-0.4,0-0.8,0.1-1.2,0.2c-0.4,0.1-0.8,0.4-1.2,0.7l-0.6-0.8c0.9-0.8,1.9-1.1,3-1.1
			c0.9,0,1.7,0.2,2.2,0.7c0.5,0.5,0.8,1.1,0.8,1.9c0,0.6-0.2,1.3-0.5,1.9s-1,1.4-2,2.4l-2.2,2.1v0.1h5.1V8872.4z"/>
		<path class="st2" d="M2425.9,8867.4c0,1.7-0.3,3-0.8,3.9c-0.5,0.9-1.4,1.3-2.5,1.3c-1.1,0-1.9-0.4-2.5-1.3
			c-0.6-0.9-0.8-2.2-0.8-3.8c0-1.7,0.3-3,0.8-3.9c0.5-0.8,1.4-1.3,2.5-1.3c1.1,0,1.9,0.4,2.5,1.3
			C2425.6,8864.4,2425.9,8865.7,2425.9,8867.4z M2420.4,8867.4c0,1.5,0.2,2.5,0.5,3.2c0.3,0.7,0.9,1,1.6,1c0.8,0,1.3-0.3,1.6-1
			c0.3-0.7,0.5-1.7,0.5-3.2s-0.2-2.5-0.5-3.2c-0.3-0.7-0.9-1-1.6-1c-0.7,0-1.3,0.3-1.6,1C2420.6,8864.9,2420.4,8865.9,2420.4,8867.4
			z"/>
		<path class="st2" d="M2433.8,8872.4h-6.6v-1l2.6-2.6c0.8-0.8,1.3-1.4,1.6-1.7c0.3-0.3,0.4-0.7,0.6-1c0.1-0.3,0.2-0.7,0.2-1.1
			c0-0.5-0.2-1-0.5-1.3c-0.3-0.3-0.8-0.5-1.3-0.5c-0.4,0-0.8,0.1-1.2,0.2c-0.4,0.1-0.8,0.4-1.2,0.7l-0.6-0.8c0.9-0.8,1.9-1.1,3-1.1
			c0.9,0,1.7,0.2,2.2,0.7c0.5,0.5,0.8,1.1,0.8,1.9c0,0.6-0.2,1.3-0.5,1.9s-1,1.4-2,2.4l-2.2,2.1v0.1h5.1V8872.4z"/>
		<path class="st2" d="M2441.9,8867.4c0,1.7-0.3,3-0.8,3.9c-0.5,0.9-1.4,1.3-2.5,1.3c-1.1,0-1.9-0.4-2.5-1.3
			c-0.6-0.9-0.8-2.2-0.8-3.8c0-1.7,0.3-3,0.8-3.9c0.5-0.8,1.4-1.3,2.5-1.3c1.1,0,1.9,0.4,2.5,1.3
			C2441.6,8864.4,2441.9,8865.7,2441.9,8867.4z M2436.4,8867.4c0,1.5,0.2,2.5,0.5,3.2c0.3,0.7,0.9,1,1.6,1c0.8,0,1.3-0.3,1.6-1
			c0.3-0.7,0.5-1.7,0.5-3.2s-0.2-2.5-0.5-3.2c-0.3-0.7-0.9-1-1.6-1c-0.7,0-1.3,0.3-1.6,1C2436.6,8864.9,2436.4,8865.9,2436.4,8867.4
			z"/>
	</g>
	<g id="Group_4727" transform="translate(1210.471 6939.184)">
		<path id="Path_4493" class="st3" d="M515.8,1894.7l13.5-84.3l13.3-24.5l13.5,35.3l13.6-34.7l13.3-38.8l13.6,47.4l13.3-4.7l13.5,3
			l13.6,101.4l13.3-230.2l13.6,230.2l13-212.3l13.6,212.3l13.5-105.8l13.3,3.9l13.6-5.6l13.3,107.4l13.5-211.5l13.6,79.9l13.3,33.3
			l13.5,26.1l13.3-39.1l13.6-3.9l12.5,107.6l13.8,2.1l13.8-2.1l13.7-79.3l13.6-18.2l13.3-102.2l13.6-0.3l13.6,120.6l13-27.8
			l13.5-12.9l13.3,24.8l13.5-16l13.6,10.8l13.3-3.9l13.6,17.3l13.3,94.5l13.6-161.9l13.6,78.2l13.3-17.7l13.6-1.1l13.2-11l13.6-17
			l13.6,6.6l13.3,17.1l13.6-7.1l13.3-6.1l13.6,11.3l13.6-20.2"/>
	</g>
	<path id="Path_4494" class="st4" d="M1723.9,8833.9h700.5"/>
	<path id="Path_4495" class="st5" d="M1724.7,8740.1l13.6-3.9l13.3-5.2l13.6-2.6h13.6l13.3-7.4l13.6,5.2l13.3,7.4l13.6-5.2
		l13.5-13.9l13.3,10.1l13.6,6.4l13,15.1l13.6-3.8l13.5-21.3h13.3l13.6-1.3l13.3,12.5l13.6-3.8l13.5,1.4l13.3,10.4l13.6,3.6l13.3-6.2
		l13.6,17.8l13.3,17.5l13.6,30.8l13.6-17.8l13.3-44.7l13.5-6.2l13.3-63.4l13.6,55.7l13.6-10h13l13.6,1.3l13.3-7.7l13.5-13.9
		l13.6,6.4l13.3-3.8l13.6,2.5l13.3,5.3l13.6-23l13.5,34.2l13.3,5.2l13.6-21.7l13.3-10l13.5,2.6h13.6l13.3,4.9l13.6-2.6l13.3,2.6
		l13.5-4.9l13.6-10.4"/>
	<path id="Path_4496" class="st6" d="M1727.7,8785l19.7,3.9l19.2,5.2l19.7,2.6h19.6l19.2,7.4l19.7-5.2l19.2-7.4l19.7,5.2l19.6,13.9
		l19.2-10.1l19.7-6.4l18.8-15.1l19.6,3.8l19.6,21.3h19.3l19.7,1.3l19.2-12.5l19.7,3.8l19.6-1.4l19.3-10.4l19.6-3.6l19.2,6.2
		l19.7-17.8l19.2-17.5l16.9,55.9l23.6-20.6l18-3.6l19.6,6.2l19.2,15l19.7-7.3l19.6,10h18.8l19.7-1.3l19.2,7.7l19.6,13.9"/>
	<path id="Path_4497" class="st7" d="M1727.7,8792.4l23.5,3.9l22.9,5.2l23.5,2.6h23.4l22.9,7.4l23.5-5.2l22.9-7.4l23.5,5.2
		l23.4,13.9l22.9-10.1l23.5-6.4l24.3,2.4l21.6-13.7l23.4,21.3h23l23.5,1.3l22.9-12.5l23.5,3.8l23.4-1.4l23-10.4l23.4-3.6l22.9,6.2
		l18.6-3h25.1l25.1,8.8l26-5.9l21.5-3.6l23.4,6.2l22.9,15l3.9-1.2"/>
	<line id="Line_533" class="st4" x1="1724" y1="8833.6" x2="1724" y2="8848"/>
	<line id="Line_534" class="st4" x1="1840.7" y1="8833.6" x2="1840.7" y2="8848"/>
	<line id="Line_535" class="st4" x1="1957.5" y1="8833.6" x2="1957.5" y2="8848"/>
	<line id="Line_536" class="st4" x1="2074.2" y1="8833.6" x2="2074.2" y2="8848"/>
	<line id="Line_537" class="st4" x1="2190.9" y1="8833.6" x2="2190.9" y2="8848"/>
	<line id="Line_538" class="st4" x1="2307.7" y1="8833.6" x2="2307.7" y2="8848"/>
	<line id="Line_539" class="st4" x1="2424.4" y1="8833.6" x2="2424.4" y2="8848"/>
</g>
</svg>
