<?xml version="1.0" encoding="utf-8"?>
<!-- Generator: Adobe Illustrator 24.2.0, SVG Export Plug-In . SVG Version: 6.00 Build 0)  -->
<svg version="1.1" id="Layer_1" xmlns="http://www.w3.org/2000/svg" xmlns:xlink="http://www.w3.org/1999/xlink" x="0px" y="0px"
	 viewBox="0 0 947.9 167.4" style="enable-background:new 0 0 947.9 167.4;" xml:space="preserve">
<style type="text/css">
	.st0{fill:#B2448E;}
	.st1{fill:#A4237A;}
	.st2{fill:#F5C44F;}
	.st3{fill:#DBA7CA;}
	.st4{enable-background:new    ;}
	.st5{fill:#333333;}
	.st6{fill:none;stroke:#A4237A;stroke-width:2;stroke-linecap:round;stroke-linejoin:round;}
	.st7{fill:none;stroke:#F5C44F;stroke-width:2;stroke-linecap:round;stroke-linejoin:round;}
</style>
<g id="Group_4830" transform="translate(-283.005 -1203.331)">
	<g id="Group_4692" transform="translate(-166 376.184)">
		<circle id="Ellipse_163" class="st0" cx="577" cy="872.2" r="4"/>
	</g>
	<path id="Person-2" class="st1" d="M447,1251.5c0-4.7,4.5-8.5,10-8.5c5.6,0,10.1,3.8,10.1,8.5L447,1251.5z M451.2,1235.8
		c0-3.2,2.5-5.8,5.7-5.8c3.2,0,5.8,2.5,5.8,5.7c0,3.2-2.5,5.8-5.7,5.8c0,0-0.1,0-0.1,0C453.8,1241.5,451.3,1239,451.2,1235.8z"/>
	<path id="Person-2-2" class="st1" d="M421.7,1251.5c0-4.7,4.5-8.5,10-8.5c5.6,0,10.1,3.8,10.1,8.5L421.7,1251.5z M426,1235.9
		c0-3.2,2.5-5.8,5.7-5.8c3.2,0,5.8,2.5,5.8,5.7c0,3.2-2.5,5.8-5.7,5.8c0,0-0.1,0-0.1,0C428.6,1241.5,426,1239,426,1235.9L426,1235.9
		z"/>
	<path id="Person-2-3" class="st2" d="M750.1,1321.2c0-4.7,4.5-8.5,10-8.5c5.6,0,10.1,3.8,10.1,8.5L750.1,1321.2z M754.4,1305.6
		c0-3.2,2.5-5.8,5.7-5.8c3.2,0,5.8,2.5,5.8,5.7s-2.5,5.8-5.7,5.8c0,0-0.1,0-0.1,0C756.9,1311.3,754.4,1308.7,754.4,1305.6z"/>
	<g id="Group_4693" transform="translate(-166 376.184)">
		<path id="Person-2-4" class="st3" d="M663.5,875.2c0-4.7,4.5-8.5,10-8.5s10.1,3.8,10.1,8.5L663.5,875.2z M667.7,859.6
			c0-3.2,2.5-5.8,5.7-5.8s5.8,2.5,5.8,5.7c0,3.2-2.5,5.8-5.7,5.8c0,0-0.1,0-0.1,0C670.3,865.2,667.8,862.7,667.7,859.6L667.7,859.6z
			"/>
		<path id="Person-2-5" class="st3" d="M638.2,875.2c0-4.7,4.5-8.5,10-8.5s10.1,3.8,10.1,8.5L638.2,875.2z M642.5,859.6
			c0-3.2,2.5-5.8,5.7-5.8s5.8,2.5,5.8,5.7c0,3.2-2.5,5.8-5.7,5.8c0,0-0.1,0-0.1,0C645.1,865.3,642.5,862.7,642.5,859.6L642.5,859.6z
			"/>
		<path id="Person-2-6" class="st3" d="M688.7,875.2c0-4.7,4.5-8.5,10-8.5s10.1,3.8,10.1,8.5L688.7,875.2z M693,859.5
			c0-3.2,2.5-5.8,5.7-5.8s5.8,2.5,5.8,5.7c0,3.2-2.5,5.8-5.7,5.8c0,0-0.1,0-0.1,0C695.6,865.2,693,862.7,693,859.5z"/>
		<path id="Person-2-7" class="st3" d="M789.7,875c0-4.7,4.5-8.5,10-8.5s10.1,3.8,10.1,8.5L789.7,875z M794,859.4
			c0-3.2,2.5-5.8,5.7-5.8c3.2,0,5.8,2.5,5.8,5.7c0,3.2-2.5,5.8-5.7,5.8c0,0-0.1,0-0.1,0C796.6,865,794.1,862.5,794,859.4z"/>
		<path id="Person-2-8" class="st3" d="M764.5,875c0-4.7,4.5-8.5,10-8.5s10.1,3.8,10.1,8.5L764.5,875z M768.8,859.4
			c0-3.2,2.5-5.8,5.7-5.8s5.8,2.5,5.8,5.7c0,3.2-2.5,5.8-5.7,5.8c0,0-0.1,0-0.1,0C771.3,865.1,768.8,862.6,768.8,859.4z"/>
		<path id="Person-2-9" class="st3" d="M739.2,875.1c0-4.7,4.5-8.5,10-8.5s10.1,3.8,10.1,8.5L739.2,875.1z M743.5,859.5
			c0-3.2,2.5-5.8,5.7-5.8s5.8,2.5,5.8,5.7c0,3.2-2.5,5.8-5.7,5.8c0,0-0.1,0-0.1,0C746.1,865.1,743.5,862.6,743.5,859.5z"/>
		<path id="Person-2-10" class="st3" d="M714,875.1c0-4.7,4.5-8.5,10-8.5s10.1,3.8,10.1,8.5L714,875.1z M718.3,859.5
			c0-3.2,2.5-5.8,5.7-5.8s5.8,2.5,5.8,5.7c0,3.2-2.5,5.8-5.7,5.8c0,0-0.1,0-0.1,0C720.8,865.1,718.3,862.6,718.3,859.5L718.3,859.5z
			"/>
		<path id="Person-2-11" class="st3" d="M815,875c0-4.7,4.5-8.5,10-8.5s10.1,3.8,10.1,8.5L815,875z M819.3,859.4
			c0-3.2,2.5-5.8,5.7-5.8s5.8,2.5,5.8,5.7c0,3.2-2.5,5.8-5.7,5.8c0,0-0.1,0-0.1,0C821.8,865,819.3,862.5,819.3,859.4z"/>
		<path id="Person-2-12" class="st3" d="M916,874.8c0-4.7,4.5-8.5,10-8.5s10.1,3.8,10.1,8.5L916,874.8z M920.3,859.2
			c0-3.2,2.5-5.8,5.7-5.8s5.8,2.5,5.8,5.7c0,3.2-2.5,5.8-5.7,5.8c0,0-0.1,0-0.1,0C922.8,864.8,920.3,862.3,920.3,859.2L920.3,859.2z
			"/>
		<path id="Person-2-13" class="st3" d="M890.7,874.9c0-4.7,4.5-8.5,10-8.5s10.1,3.8,10.1,8.5L890.7,874.9z M895,859.2
			c0-3.2,2.5-5.8,5.7-5.8s5.8,2.5,5.8,5.7c0,3.2-2.5,5.8-5.7,5.8c0,0-0.1,0-0.1,0C897.6,864.9,895.1,862.4,895,859.2z"/>
		<path id="Person-2-14" class="st3" d="M865.5,874.9c0-4.7,4.5-8.5,10-8.5s10.1,3.8,10.1,8.5L865.5,874.9z M869.8,859.3
			c0-3.2,2.5-5.8,5.7-5.8s5.8,2.5,5.8,5.7c0,3.2-2.5,5.8-5.7,5.8c0,0-0.1,0-0.1,0C872.3,864.9,869.8,862.4,869.8,859.3L869.8,859.3z
			"/>
		<path id="Person-2-15" class="st3" d="M840.2,874.9c0-4.7,4.5-8.5,10-8.5s10.1,3.8,10.1,8.5L840.2,874.9z M844.5,859.3
			c0-3.2,2.5-5.8,5.7-5.8s5.8,2.5,5.8,5.7c0,3.2-2.5,5.8-5.7,5.8c0,0-0.1,0-0.1,0C847.1,865,844.6,862.4,844.5,859.3z"/>
		<path id="Person-2-16" class="st3" d="M941.2,874.8c0-4.7,4.5-8.5,10-8.5s10.1,3.8,10.1,8.5L941.2,874.8z M945.5,859.2
			c0-3.2,2.5-5.8,5.7-5.8c3.2,0,5.8,2.5,5.8,5.7c0,3.2-2.5,5.8-5.7,5.8c0,0-0.1,0-0.1,0C948.1,864.8,945.6,862.3,945.5,859.2z"/>
		<path id="Person-2-17" class="st3" d="M1042.3,874.6c0-4.7,4.5-8.5,10-8.5s10.1,3.8,10.1,8.5L1042.3,874.6z M1046.5,859
			c0-3.2,2.5-5.8,5.7-5.8s5.8,2.5,5.8,5.7c0,3.2-2.5,5.8-5.7,5.8c0,0-0.1,0-0.1,0C1049.1,864.7,1046.6,862.1,1046.5,859z"/>
		<path id="Person-2-18" class="st3" d="M1017,874.7c0-4.7,4.5-8.5,10-8.5s10.1,3.8,10.1,8.5L1017,874.7z M1021.3,859.1
			c0-3.2,2.5-5.8,5.7-5.8c3.2,0,5.8,2.5,5.8,5.7c0,3.2-2.5,5.8-5.7,5.8c0,0-0.1,0-0.1,0C1023.9,864.7,1021.3,862.2,1021.3,859.1
			L1021.3,859.1z"/>
		<path id="Person-2-19" class="st3" d="M991.7,874.7c0-4.7,4.5-8.5,10-8.5s10.1,3.8,10.1,8.5L991.7,874.7z M996,859.1
			c0-3.2,2.5-5.8,5.7-5.8s5.8,2.5,5.8,5.7c0,3.2-2.5,5.8-5.7,5.8c0,0-0.1,0-0.1,0C998.6,864.7,996.1,862.2,996,859.1L996,859.1z"/>
		<path id="Person-2-20" class="st3" d="M966.5,874.8c0-4.7,4.5-8.5,10-8.5s10.1,3.8,10.1,8.5L966.5,874.8z M970.8,859.1
			c0-3.2,2.5-5.8,5.7-5.8s5.8,2.5,5.8,5.7c0,3.2-2.5,5.8-5.7,5.8c0,0-0.1,0-0.1,0C973.4,864.8,970.8,862.3,970.8,859.1L970.8,859.1z
			"/>
		<path id="Person-2-21" class="st3" d="M1067.5,874.6c0-4.7,4.5-8.5,10-8.5s10.1,3.8,10.1,8.5L1067.5,874.6z M1071.8,859
			c0-3.2,2.5-5.8,5.7-5.8s5.8,2.5,5.8,5.7c0,3.2-2.5,5.8-5.7,5.8c0,0-0.1,0-0.1,0C1074.4,864.6,1071.8,862.1,1071.8,859L1071.8,859z
			"/>
		<path id="Person-2-22" class="st3" d="M1168.5,874.5c0-4.7,4.5-8.5,10-8.5s10.1,3.8,10.1,8.5L1168.5,874.5z M1172.8,858.8
			c0-3.2,2.5-5.8,5.7-5.8s5.8,2.5,5.8,5.7c0,3.2-2.5,5.8-5.7,5.8c0,0-0.1,0-0.1,0C1175.4,864.5,1172.8,862,1172.8,858.8z"/>
		<path id="Person-2-23" class="st3" d="M1143.3,874.5c0-4.7,4.5-8.5,10-8.5s10.1,3.8,10.1,8.5L1143.3,874.5z M1147.6,858.9
			c0-3.2,2.5-5.8,5.7-5.8s5.8,2.5,5.8,5.7c0,3.2-2.5,5.8-5.7,5.8c0,0-0.1,0-0.1,0C1150.1,864.5,1147.6,862,1147.6,858.9
			L1147.6,858.9z"/>
		<path id="Person-2-24" class="st3" d="M1118,874.5c0-4.7,4.5-8.5,10-8.5s10.1,3.8,10.1,8.5L1118,874.5z M1122.3,858.9
			c0-3.2,2.5-5.8,5.7-5.8c3.2,0,5.8,2.5,5.8,5.7c0,3.2-2.5,5.8-5.7,5.8c0,0-0.1,0-0.1,0C1124.9,864.6,1122.3,862,1122.3,858.9
			L1122.3,858.9z"/>
		<path id="Person-2-25" class="st3" d="M1092.8,874.6c0-4.7,4.5-8.5,10-8.5s10.1,3.8,10.1,8.5L1092.8,874.6z M1097,858.9
			c0-3.2,2.5-5.8,5.7-5.8s5.8,2.5,5.8,5.7c0,3.2-2.5,5.8-5.7,5.8c0,0-0.1,0-0.1,0C1099.6,864.6,1097.1,862.1,1097,858.9z"/>
		<path id="Person-2-26" class="st3" d="M1193.8,874.4c0-4.7,4.5-8.5,10-8.5s10.1,3.8,10.1,8.5L1193.8,874.4z M1198.1,858.8
			c0-3.2,2.5-5.8,5.7-5.8s5.8,2.5,5.8,5.7c0,3.2-2.5,5.8-5.7,5.8c0,0-0.1,0-0.1,0C1200.6,864.4,1198.1,861.9,1198.1,858.8
			L1198.1,858.8z"/>
		<path id="Person-2-27" class="st3" d="M663.5,910.3c0-4.7,4.5-8.5,10-8.5s10.1,3.8,10.1,8.5L663.5,910.3z M667.8,894.7
			c0-3.2,2.5-5.8,5.7-5.8s5.8,2.5,5.8,5.7c0,3.2-2.5,5.8-5.7,5.8c0,0-0.1,0-0.1,0C670.4,900.3,667.8,897.8,667.8,894.7z"/>
		<path id="Person-2-28" class="st3" d="M638.3,910.3c0-4.7,4.5-8.5,10-8.5s10.1,3.8,10.1,8.5L638.3,910.3z M642.5,894.7
			c0-3.2,2.5-5.8,5.7-5.8s5.8,2.5,5.8,5.7c0,3.2-2.5,5.8-5.7,5.8c0,0-0.1,0-0.1,0C645.1,900.4,642.6,897.8,642.5,894.7L642.5,894.7z
			"/>
		<path id="Person-2-29" class="st3" d="M613,910.4c0-4.7,4.5-8.5,10-8.5s10.1,3.8,10.1,8.5L613,910.4z M617.3,894.8
			c0-3.2,2.5-5.8,5.7-5.8s5.8,2.5,5.8,5.7c0,3.2-2.5,5.8-5.7,5.8c0,0-0.1,0-0.1,0C619.9,900.4,617.3,897.9,617.3,894.8L617.3,894.8z
			"/>
		<path id="Person-2-30" class="st3" d="M587.7,910.4c0-4.7,4.5-8.5,10-8.5s10.1,3.8,10.1,8.5L587.7,910.4z M592,894.8
			c0-3.2,2.5-5.8,5.7-5.8s5.8,2.5,5.8,5.7c0,3.2-2.5,5.8-5.7,5.8c0,0-0.1,0-0.1,0C594.6,900.4,592.1,897.9,592,894.8L592,894.8z"/>
		<path id="Person-2-31" class="st3" d="M688.8,910.3c0-4.7,4.5-8.5,10-8.5s10.1,3.8,10.1,8.5L688.8,910.3z M693,894.6
			c0-3.2,2.5-5.8,5.7-5.8s5.8,2.5,5.8,5.7c0,3.2-2.5,5.8-5.7,5.8c0,0-0.1,0-0.1,0C695.6,900.3,693.1,897.8,693,894.6z"/>
		<path id="Person-2-32" class="st3" d="M789.8,910.1c0-4.7,4.5-8.5,10-8.5s10.1,3.8,10.1,8.5L789.8,910.1z M794.1,894.5
			c0-3.2,2.5-5.8,5.7-5.8c3.2,0,5.8,2.5,5.8,5.7c0,3.2-2.5,5.8-5.7,5.8c0,0-0.1,0-0.1,0C796.6,900.1,794.1,897.6,794.1,894.5
			L794.1,894.5z"/>
		<path id="Person-2-33" class="st3" d="M764.5,910.2c0-4.7,4.5-8.5,10-8.5s10.1,3.8,10.1,8.5L764.5,910.2z M768.8,894.5
			c0-3.2,2.5-5.8,5.7-5.8s5.8,2.5,5.8,5.7c0,3.2-2.5,5.8-5.7,5.8c0,0-0.1,0-0.1,0C771.4,900.2,768.8,897.7,768.8,894.5L768.8,894.5z
			"/>
		<path id="Person-2-34" class="st3" d="M739.3,910.2c0-4.7,4.5-8.5,10-8.5s10.1,3.8,10.1,8.5L739.3,910.2z M743.6,894.6
			c0-3.2,2.5-5.8,5.7-5.8s5.8,2.5,5.8,5.7c0,3.2-2.5,5.8-5.7,5.8c0,0-0.1,0-0.1,0C746.1,900.2,743.6,897.7,743.6,894.6L743.6,894.6z
			"/>
		<path id="Person-2-35" class="st3" d="M714,910.2c0-4.7,4.5-8.5,10-8.5s10.1,3.8,10.1,8.5L714,910.2z M718.3,894.6
			c0-3.2,2.5-5.8,5.7-5.8s5.8,2.5,5.8,5.7c0,3.2-2.5,5.8-5.7,5.8c0,0-0.1,0-0.1,0C720.9,900.3,718.3,897.7,718.3,894.6L718.3,894.6z
			"/>
		<path id="Person-2-36" class="st3" d="M815,910.1c0-4.7,4.5-8.5,10-8.5s10.1,3.8,10.1,8.5L815,910.1z M819.3,894.5
			c0-3.2,2.5-5.8,5.7-5.8s5.8,2.5,5.8,5.7c0,3.2-2.5,5.8-5.7,5.8c0,0-0.1,0-0.1,0C821.9,900.1,819.3,897.6,819.3,894.5L819.3,894.5z
			"/>
		<path id="Person-2-37" class="st3" d="M916,909.9c0-4.7,4.5-8.5,10-8.5s10.1,3.8,10.1,8.5L916,909.9z M920.3,894.3
			c0-3.2,2.5-5.8,5.7-5.8s5.8,2.5,5.8,5.7c0,3.2-2.5,5.8-5.7,5.8c0,0-0.1,0-0.1,0C922.9,900,920.4,897.4,920.3,894.3z"/>
		<path id="Person-2-38" class="st3" d="M890.8,910c0-4.7,4.5-8.5,10-8.5s10.1,3.8,10.1,8.5L890.8,910z M895.1,894.4
			c0-3.2,2.5-5.8,5.7-5.8s5.8,2.5,5.8,5.7c0,3.2-2.5,5.8-5.7,5.8c0,0-0.1,0-0.1,0C897.6,900,895.1,897.5,895.1,894.4L895.1,894.4z"
			/>
		<path id="Person-2-39" class="st3" d="M865.5,910c0-4.7,4.5-8.5,10-8.5s10.1,3.8,10.1,8.5L865.5,910z M869.8,894.4
			c0-3.2,2.5-5.8,5.7-5.8s5.8,2.5,5.8,5.7c0,3.2-2.5,5.8-5.7,5.8c0,0-0.1,0-0.1,0C872.4,900,869.9,897.5,869.8,894.4L869.8,894.4z"
			/>
		<path id="Person-2-40" class="st3" d="M840.3,910c0-4.7,4.5-8.5,10-8.5s10.1,3.8,10.1,8.5L840.3,910z M844.6,894.4
			c0-3.2,2.5-5.8,5.7-5.8s5.8,2.5,5.8,5.7c0,3.2-2.5,5.8-5.7,5.8c0,0-0.1,0-0.1,0C847.1,900.1,844.6,897.6,844.6,894.4z"/>
		<path id="Person-2-41" class="st3" d="M941.3,909.9c0-4.7,4.5-8.5,10-8.5s10.1,3.8,10.1,8.5L941.3,909.9z M945.6,894.3
			c0-3.2,2.5-5.8,5.7-5.8s5.8,2.5,5.8,5.7c0,3.2-2.5,5.8-5.7,5.8c0,0-0.1,0-0.1,0C948.1,899.9,945.6,897.4,945.6,894.3L945.6,894.3z
			"/>
		<path id="Person-2-42" class="st3" d="M1042.3,909.8c0-4.7,4.5-8.5,10-8.5s10.1,3.8,10.1,8.5L1042.3,909.8z M1046.6,894.1
			c0-3.2,2.5-5.8,5.7-5.8s5.8,2.5,5.8,5.7c0,3.2-2.5,5.8-5.7,5.8c0,0-0.1,0-0.1,0C1049.2,899.8,1046.6,897.3,1046.6,894.1
			L1046.6,894.1z"/>
		<path id="Person-2-43" class="st3" d="M1017,909.8c0-4.7,4.5-8.5,10-8.5s10.1,3.8,10.1,8.5L1017,909.8z M1021.3,894.2
			c0-3.2,2.5-5.8,5.7-5.8c3.2,0,5.8,2.5,5.8,5.7c0,3.2-2.5,5.8-5.7,5.8c0,0-0.1,0-0.1,0C1023.9,899.8,1021.4,897.3,1021.3,894.2z"/>
		<path id="Person-2-44" class="st3" d="M991.8,909.8c0-4.7,4.5-8.5,10-8.5s10.1,3.8,10.1,8.5L991.8,909.8z M996.1,894.2
			c0-3.2,2.5-5.8,5.7-5.8s5.8,2.5,5.8,5.7c0,3.2-2.5,5.8-5.7,5.8c0,0-0.1,0-0.1,0C998.6,899.9,996.1,897.3,996.1,894.2z"/>
		<path id="Person-2-45" class="st3" d="M966.5,909.9c0-4.7,4.5-8.5,10-8.5s10.1,3.8,10.1,8.5L966.5,909.9z M970.8,894.2
			c0-3.2,2.5-5.8,5.7-5.8s5.8,2.5,5.8,5.7c0,3.2-2.5,5.8-5.7,5.8c0,0-0.1,0-0.1,0C973.4,899.9,970.9,897.4,970.8,894.2z"/>
		<path id="Person-2-46" class="st3" d="M1067.6,909.7c0-4.7,4.5-8.5,10-8.5s10.1,3.8,10.1,8.5L1067.6,909.7z M1071.8,894.1
			c0-3.2,2.5-5.8,5.7-5.8s5.8,2.5,5.8,5.7c0,3.2-2.5,5.8-5.7,5.8c0,0-0.1,0-0.1,0C1074.4,899.7,1071.9,897.2,1071.8,894.1
			L1071.8,894.1z"/>
		<path id="Person-2-47" class="st3" d="M1168.6,909.6c0-4.7,4.5-8.5,10-8.5s10.1,3.8,10.1,8.5L1168.6,909.6z M1172.8,893.9
			c0-3.2,2.5-5.8,5.7-5.8s5.8,2.5,5.8,5.7c0,3.2-2.5,5.8-5.7,5.8c0,0-0.1,0-0.1,0C1175.4,899.6,1172.9,897.1,1172.8,893.9z"/>
		<path id="Person-2-48" class="st3" d="M1143.3,909.6c0-4.7,4.5-8.5,10-8.5s10.1,3.8,10.1,8.5L1143.3,909.6z M1147.6,894
			c0-3.2,2.5-5.8,5.7-5.8s5.8,2.5,5.8,5.7c0,3.2-2.5,5.8-5.7,5.8c0,0-0.1,0-0.1,0C1150.2,899.6,1147.6,897.1,1147.6,894L1147.6,894z
			"/>
		<path id="Person-2-49" class="st3" d="M1118.1,909.6c0-4.7,4.5-8.5,10-8.5s10.1,3.8,10.1,8.5L1118.1,909.6z M1122.3,894
			c0-3.2,2.5-5.8,5.7-5.8c3.2,0,5.8,2.5,5.8,5.7c0,3.2-2.5,5.8-5.7,5.8c0,0-0.1,0-0.1,0C1124.9,899.7,1122.4,897.1,1122.3,894
			L1122.3,894z"/>
		<path id="Person-2-50" class="st3" d="M1092.8,909.7c0-4.7,4.5-8.5,10-8.5s10.1,3.8,10.1,8.5L1092.8,909.7z M1097.1,894.1
			c0-3.2,2.5-5.8,5.7-5.8s5.8,2.5,5.8,5.7c0,3.2-2.5,5.8-5.7,5.8c0,0-0.1,0-0.1,0C1099.7,899.7,1097.1,897.2,1097.1,894.1
			L1097.1,894.1z"/>
		<path id="Person-2-51" class="st3" d="M1193.8,909.5c0-4.7,4.5-8.5,10-8.5s10.1,3.8,10.1,8.5L1193.8,909.5z M1198.1,893.9
			c0-3.2,2.5-5.8,5.7-5.8s5.8,2.5,5.8,5.7c0,3.2-2.5,5.8-5.7,5.8c0,0-0.1,0-0.1,0C1200.7,899.6,1198.1,897,1198.1,893.9
			L1198.1,893.9z"/>
		<path id="Person-2-52" class="st3" d="M663.6,945.4c0-4.7,4.5-8.5,10-8.5s10.1,3.8,10.1,8.5L663.6,945.4z M667.8,929.8
			c0-3.2,2.5-5.8,5.7-5.8s5.8,2.5,5.8,5.7c0,3.2-2.5,5.8-5.7,5.8c0,0-0.1,0-0.1,0C670.4,935.4,667.9,932.9,667.8,929.8L667.8,929.8z
			"/>
		<path id="Person-2-53" class="st3" d="M638.3,945.5c0-4.7,4.5-8.5,10-8.5s10.1,3.8,10.1,8.5L638.3,945.5z M642.6,929.8
			c0-3.2,2.5-5.8,5.7-5.8s5.8,2.5,5.8,5.7c0,3.2-2.5,5.8-5.7,5.8c0,0-0.1,0-0.1,0C645.2,935.5,642.6,933,642.6,929.8L642.6,929.8z"
			/>
		<path id="Person-2-54" class="st3" d="M613,945.5c0-4.7,4.5-8.5,10-8.5s10.1,3.8,10.1,8.5L613,945.5z M617.3,929.9
			c0-3.2,2.5-5.8,5.7-5.8s5.8,2.5,5.8,5.7c0,3.2-2.5,5.8-5.7,5.8c0,0-0.1,0-0.1,0C619.9,935.5,617.4,933,617.3,929.9z"/>
		<path id="Person-2-55" class="st3" d="M587.8,945.5c0-4.7,4.5-8.5,10-8.5s10.1,3.8,10.1,8.5L587.8,945.5z M592.1,929.9
			c0-3.2,2.5-5.8,5.7-5.8s5.8,2.5,5.8,5.7c0,3.2-2.5,5.8-5.7,5.8c0,0-0.1,0-0.1,0C594.6,935.6,592.1,933,592.1,929.9z"/>
		<path id="Person-2-56" class="st3" d="M688.8,945.4c0-4.7,4.5-8.5,10-8.5s10.1,3.8,10.1,8.5L688.8,945.4z M693.1,929.8
			c0-3.2,2.5-5.8,5.7-5.8s5.8,2.5,5.8,5.7c0,3.2-2.5,5.8-5.7,5.8c0,0-0.1,0-0.1,0C695.7,935.4,693.1,932.9,693.1,929.8L693.1,929.8z
			"/>
		<path id="Person-2-57" class="st3" d="M789.8,945.2c0-4.7,4.5-8.5,10-8.5s10.1,3.8,10.1,8.5L789.8,945.2z M794.1,929.6
			c0-3.2,2.5-5.8,5.7-5.8c3.2,0,5.8,2.5,5.8,5.7c0,3.2-2.5,5.8-5.7,5.8c0,0-0.1,0-0.1,0C796.7,935.3,794.1,932.7,794.1,929.6
			L794.1,929.6z"/>
		<path id="Person-2-58" class="st3" d="M764.6,945.3c0-4.7,4.5-8.5,10-8.5s10.1,3.8,10.1,8.5L764.6,945.3z M768.8,929.6
			c0-3.2,2.5-5.8,5.7-5.8s5.8,2.5,5.8,5.7c0,3.2-2.5,5.8-5.7,5.8c0,0-0.1,0-0.1,0C771.4,935.3,768.9,932.8,768.8,929.6z"/>
		<path id="Person-2-59" class="st3" d="M739.3,945.3c0-4.7,4.5-8.5,10-8.5s10.1,3.8,10.1,8.5L739.3,945.3z M743.6,929.7
			c0-3.2,2.5-5.8,5.7-5.8s5.8,2.5,5.8,5.7c0,3.2-2.5,5.8-5.7,5.8c0,0-0.1,0-0.1,0C746.2,935.3,743.6,932.8,743.6,929.7L743.6,929.7z
			"/>
		<path id="Person-2-60" class="st3" d="M714.1,945.3c0-4.7,4.5-8.5,10-8.5s10.1,3.8,10.1,8.5L714.1,945.3z M718.3,929.7
			c0-3.2,2.5-5.8,5.7-5.8s5.8,2.5,5.8,5.7c0,3.2-2.5,5.8-5.7,5.8c0,0-0.1,0-0.1,0C720.9,935.4,718.4,932.8,718.3,929.7L718.3,929.7z
			"/>
		<path id="Person-2-61" class="st3" d="M815.1,945.2c0-4.7,4.5-8.5,10-8.5s10.1,3.8,10.1,8.5L815.1,945.2z M819.4,929.6
			c0-3.2,2.5-5.8,5.7-5.8s5.8,2.5,5.8,5.7c0,3.2-2.5,5.8-5.7,5.8c0,0-0.1,0-0.1,0C821.9,935.2,819.4,932.7,819.4,929.6L819.4,929.6z
			"/>
		<path id="Person-2-62" class="st3" d="M890.8,945.1c0-4.7,4.5-8.5,10-8.5s10.1,3.8,10.1,8.5L890.8,945.1z M895.1,929.5
			c0-3.2,2.5-5.8,5.7-5.8s5.8,2.5,5.8,5.7c0,3.2-2.5,5.8-5.7,5.8c0,0-0.1,0-0.1,0C897.7,935.1,895.2,932.6,895.1,929.5L895.1,929.5z
			"/>
		<path id="Person-2-63" class="st3" d="M865.6,945.1c0-4.7,4.5-8.5,10-8.5s10.1,3.8,10.1,8.5L865.6,945.1z M869.9,929.5
			c0-3.2,2.5-5.8,5.7-5.8s5.8,2.5,5.8,5.7c0,3.2-2.5,5.8-5.7,5.8c0,0-0.1,0-0.1,0C872.4,935.1,869.9,932.6,869.9,929.5L869.9,929.5z
			"/>
		<path id="Person-2-64" class="st3" d="M840.3,945.2c0-4.7,4.5-8.5,10-8.5s10.1,3.8,10.1,8.5L840.3,945.2z M844.6,929.5
			c0-3.2,2.5-5.8,5.7-5.8s5.8,2.5,5.8,5.7c0,3.2-2.5,5.8-5.7,5.8c0,0-0.1,0-0.1,0C847.2,935.2,844.6,932.7,844.6,929.5z"/>
	</g>
	<path id="Person-2-65" class="st2" d="M775.3,1321.2c0-4.7,4.5-8.5,10-8.5s10.1,3.8,10.1,8.5L775.3,1321.2z M779.6,1305.6
		c0-3.2,2.5-5.8,5.7-5.8c3.2,0,5.8,2.5,5.8,5.7s-2.5,5.8-5.7,5.8c0,0-0.1,0-0.1,0C782.2,1311.2,779.7,1308.7,779.6,1305.6z"/>
	<path id="Person-2-66" class="st2" d="M876.3,1321.1c0-4.7,4.5-8.5,10-8.5c5.6,0,10.1,3.8,10.1,8.5L876.3,1321.1z M880.6,1305.4
		c0-3.2,2.5-5.8,5.7-5.8c3.2,0,5.8,2.5,5.8,5.7c0,3.2-2.5,5.8-5.7,5.8c0,0-0.1,0-0.1,0C883.2,1311.1,880.7,1308.6,880.6,1305.4z"/>
	<path id="Person-2-67" class="st2" d="M851.1,1321.1c0-4.7,4.5-8.5,10-8.5c5.6,0,10.1,3.8,10.1,8.5L851.1,1321.1z M855.4,1305.5
		c0-3.2,2.5-5.8,5.7-5.8c3.2,0,5.8,2.5,5.8,5.7c0,3.2-2.5,5.8-5.7,5.8c0,0-0.1,0-0.1,0C857.9,1311.1,855.4,1308.6,855.4,1305.5
		L855.4,1305.5z"/>
	<path id="Person-2-68" class="st2" d="M825.8,1321.1c0-4.7,4.5-8.5,10-8.5c5.6,0,10.1,3.8,10.1,8.5L825.8,1321.1z M830.1,1305.5
		c0-3.2,2.5-5.8,5.7-5.8c3.2,0,5.8,2.5,5.8,5.7s-2.5,5.8-5.7,5.8c0,0-0.1,0-0.1,0C832.7,1311.1,830.2,1308.6,830.1,1305.5z"/>
	<path id="Person-2-69" class="st2" d="M800.6,1321.2c0-4.7,4.5-8.5,10-8.5c5.6,0,10.1,3.8,10.1,8.5L800.6,1321.2z M804.9,1305.5
		c0-3.2,2.5-5.8,5.7-5.8c3.2,0,5.8,2.5,5.8,5.7s-2.5,5.8-5.7,5.8c0,0-0.1,0-0.1,0C807.4,1311.2,804.9,1308.7,804.9,1305.5
		L804.9,1305.5z"/>
	<path id="Person-2-70" class="st2" d="M901.6,1321c0-4.7,4.5-8.5,10-8.5c5.6,0,10.1,3.8,10.1,8.5L901.6,1321z M905.9,1305.4
		c0-3.2,2.5-5.8,5.7-5.8c3.2,0,5.8,2.5,5.8,5.7c0,3.2-2.5,5.8-5.7,5.8c0,0-0.1,0-0.1,0C908.5,1311,905.9,1308.5,905.9,1305.4
		L905.9,1305.4z"/>
	<path id="Person-2-71" class="st2" d="M1002.6,1320.9c0-4.7,4.5-8.5,10-8.5c5.6,0,10.1,3.8,10.1,8.5L1002.6,1320.9z M1006.9,1305.2
		c0-3.2,2.5-5.8,5.7-5.8c3.2,0,5.8,2.5,5.8,5.7c0,3.2-2.5,5.8-5.7,5.8c0,0-0.1,0-0.1,0C1009.5,1310.9,1006.9,1308.4,1006.9,1305.2
		L1006.9,1305.2z"/>
	<path id="Person-2-72" class="st2" d="M977.4,1320.9c0-4.7,4.5-8.5,10-8.5c5.6,0,10.1,3.8,10.1,8.5L977.4,1320.9z M981.6,1305.3
		c0-3.2,2.5-5.8,5.7-5.8c3.2,0,5.8,2.5,5.8,5.7c0,3.2-2.5,5.8-5.7,5.8c0,0-0.1,0-0.1,0C984.2,1310.9,981.7,1308.4,981.6,1305.3
		L981.6,1305.3z"/>
	<path id="Person-2-73" class="st2" d="M952.1,1320.9c0-4.7,4.5-8.5,10-8.5c5.6,0,10.1,3.8,10.1,8.5L952.1,1320.9z M956.4,1305.3
		c0-3.2,2.5-5.8,5.7-5.8c3.2,0,5.8,2.5,5.8,5.7c0,3.2-2.5,5.8-5.7,5.8c0,0-0.1,0-0.1,0C959,1311,956.4,1308.4,956.4,1305.3
		L956.4,1305.3z"/>
	<path id="Person-2-74" class="st2" d="M926.8,1321c0-4.7,4.5-8.5,10-8.5c5.6,0,10.1,3.8,10.1,8.5L926.8,1321z M931.1,1305.4
		c0-3.2,2.5-5.8,5.7-5.8c3.2,0,5.8,2.5,5.8,5.7c0,3.2-2.5,5.8-5.7,5.8c0,0-0.1,0-0.1,0C933.7,1311,931.2,1308.5,931.1,1305.4
		L931.1,1305.4z"/>
	<path id="Person-2-75" class="st2" d="M1027.9,1320.8c0-4.7,4.5-8.5,10-8.5c5.6,0,10.1,3.8,10.1,8.5L1027.9,1320.8z M1032.1,1305.2
		c0-3.2,2.5-5.8,5.7-5.8c3.2,0,5.8,2.5,5.8,5.7c0,3.2-2.5,5.8-5.7,5.8c0,0-0.1,0-0.1,0C1034.7,1310.9,1032.2,1308.3,1032.1,1305.2z"
		/>
	<path id="Person-2-76" class="st2" d="M497.6,1356.7c0-4.7,4.5-8.5,10-8.5c5.6,0,10.1,3.8,10.1,8.5L497.6,1356.7z M501.9,1341.1
		c0-3.2,2.5-5.8,5.7-5.8c3.2,0,5.8,2.5,5.8,5.7c0,3.2-2.5,5.8-5.7,5.8c0,0-0.1,0-0.1,0C504.5,1346.7,501.9,1344.2,501.9,1341.1
		L501.9,1341.1z"/>
	<path id="Person-2-77" class="st2" d="M472.3,1356.8c0-4.7,4.5-8.5,10-8.5c5.6,0,10.1,3.8,10.1,8.5L472.3,1356.8z M476.6,1341.1
		c0-3.2,2.5-5.8,5.7-5.8c3.2,0,5.8,2.5,5.8,5.7c0,3.2-2.5,5.8-5.7,5.8c0,0-0.1,0-0.1,0C479.2,1346.8,476.7,1344.3,476.6,1341.1
		L476.6,1341.1z"/>
	<path id="Person-2-78" class="st2" d="M447.1,1356.8c0-4.7,4.5-8.5,10-8.5s10.1,3.8,10.1,8.5L447.1,1356.8z M451.4,1341.2
		c0-3.2,2.5-5.8,5.7-5.8c3.2,0,5.8,2.5,5.8,5.7c0,3.2-2.5,5.8-5.7,5.8c0,0-0.1,0-0.1,0C453.9,1346.8,451.4,1344.3,451.4,1341.2
		L451.4,1341.2z"/>
	<path id="Person-2-79" class="st2" d="M421.8,1356.8c0-4.7,4.5-8.5,10-8.5c5.6,0,10.1,3.8,10.1,8.5L421.8,1356.8z M426.1,1341.2
		c0-3.2,2.5-5.8,5.7-5.8c3.2,0,5.8,2.5,5.8,5.7c0,3.2-2.5,5.8-5.7,5.8c0,0-0.1,0-0.1,0C428.7,1346.8,426.2,1344.3,426.1,1341.2z"/>
	<path id="Person-2-80" class="st2" d="M522.8,1356.7c0-4.7,4.5-8.5,10-8.5c5.6,0,10.1,3.8,10.1,8.5L522.8,1356.7z M527.1,1341.1
		c0-3.2,2.5-5.8,5.7-5.8c3.2,0,5.8,2.5,5.8,5.7s-2.5,5.8-5.7,5.8c0,0-0.1,0-0.1,0C529.7,1346.7,527.2,1344.2,527.1,1341.1
		L527.1,1341.1z"/>
	<path id="Person-2-81" class="st2" d="M623.9,1356.5c0-4.7,4.5-8.5,10-8.5c5.6,0,10.1,3.8,10.1,8.5L623.9,1356.5z M628.1,1340.9
		c0-3.2,2.5-5.8,5.7-5.8c3.2,0,5.8,2.5,5.8,5.7s-2.5,5.8-5.7,5.8c0,0-0.1,0-0.1,0C630.7,1346.6,628.2,1344,628.1,1340.9z"/>
	<path id="Person-2-82" class="st2" d="M598.6,1356.6c0-4.7,4.5-8.5,10-8.5c5.6,0,10.1,3.8,10.1,8.5L598.6,1356.6z M602.9,1340.9
		c0-3.2,2.5-5.8,5.7-5.8c3.2,0,5.8,2.5,5.8,5.7s-2.5,5.8-5.7,5.8c0,0-0.1,0-0.1,0C605.5,1346.6,602.9,1344.1,602.9,1340.9z"/>
	<path id="Person-2-83" class="st2" d="M573.4,1356.6c0-4.7,4.5-8.5,10-8.5c5.6,0,10.1,3.8,10.1,8.5L573.4,1356.6z M577.6,1341
		c0-3.2,2.5-5.8,5.7-5.8c3.2,0,5.8,2.5,5.8,5.7c0,3.2-2.5,5.8-5.7,5.8c0,0-0.1,0-0.1,0C580.2,1346.6,577.7,1344.1,577.6,1341z"/>
	<path id="Person-2-84" class="st2" d="M548.1,1356.6c0-4.7,4.5-8.5,10-8.5c5.6,0,10.1,3.8,10.1,8.5L548.1,1356.6z M552.4,1341
		c0-3.2,2.5-5.8,5.7-5.8c3.2,0,5.8,2.5,5.8,5.7s-2.5,5.8-5.7,5.8c0,0-0.1,0-0.1,0C555,1346.7,552.4,1344.1,552.4,1341L552.4,1341z"
		/>
	<path id="Person-2-85" class="st2" d="M649.1,1356.5c0-4.7,4.5-8.5,10-8.5c5.6,0,10.1,3.8,10.1,8.5L649.1,1356.5z M653.4,1340.9
		c0-3.2,2.5-5.8,5.7-5.8c3.2,0,5.8,2.5,5.8,5.7s-2.5,5.8-5.7,5.8c0,0-0.1,0-0.1,0C656,1346.5,653.4,1344,653.4,1340.9L653.4,1340.9z
		"/>
	<path id="Person-2-86" class="st2" d="M750.1,1356.3c0-4.7,4.5-8.5,10-8.5c5.6,0,10.1,3.8,10.1,8.5L750.1,1356.3z M754.4,1340.7
		c0-3.2,2.5-5.8,5.7-5.8c3.2,0,5.8,2.5,5.8,5.7c0,3.2-2.5,5.8-5.7,5.8c0,0-0.1,0-0.1,0C757,1346.4,754.4,1343.8,754.4,1340.7
		L754.4,1340.7z"/>
	<path id="Person-2-87" class="st2" d="M724.9,1356.4c0-4.7,4.5-8.5,10-8.5c5.6,0,10.1,3.8,10.1,8.5L724.9,1356.4z M729.2,1340.8
		c0-3.2,2.5-5.8,5.7-5.8c3.2,0,5.8,2.5,5.8,5.7s-2.5,5.8-5.7,5.8c0,0-0.1,0-0.1,0C731.7,1346.4,729.2,1343.9,729.2,1340.8
		L729.2,1340.8z"/>
	<path id="Person-2-88" class="st2" d="M699.6,1356.4c0-4.7,4.5-8.5,10-8.5c5.6,0,10.1,3.8,10.1,8.5L699.6,1356.4z M703.9,1340.8
		c0-3.2,2.5-5.8,5.7-5.8c3.2,0,5.8,2.5,5.8,5.7c0,3.2-2.5,5.8-5.7,5.8c0,0-0.1,0-0.1,0C706.5,1346.4,703.9,1343.9,703.9,1340.8
		L703.9,1340.8z"/>
	<path id="Person-2-89" class="st2" d="M674.4,1356.5c0-4.7,4.5-8.5,10-8.5c5.6,0,10.1,3.8,10.1,8.5L674.4,1356.5z M678.7,1340.8
		c0-3.2,2.5-5.8,5.7-5.8c3.2,0,5.8,2.5,5.8,5.7c0,3.2-2.5,5.8-5.7,5.8c0,0-0.1,0-0.1,0C681.2,1346.5,678.7,1344,678.7,1340.8
		L678.7,1340.8z"/>
	<path id="Person-2-90" class="st2" d="M775.4,1356.3c0-4.7,4.5-8.5,10-8.5s10.1,3.8,10.1,8.5L775.4,1356.3z M779.7,1340.7
		c0-3.2,2.5-5.8,5.7-5.8c3.2,0,5.8,2.5,5.8,5.7c0,3.2-2.5,5.8-5.7,5.8c0,0-0.1,0-0.1,0C782.2,1346.3,779.7,1343.8,779.7,1340.7
		L779.7,1340.7z"/>
	<path id="Person-2-91" class="st2" d="M876.4,1356.2c0-4.7,4.5-8.5,10-8.5c5.6,0,10.1,3.8,10.1,8.5L876.4,1356.2z M880.7,1340.5
		c0-3.2,2.5-5.8,5.7-5.8c3.2,0,5.8,2.5,5.8,5.7c0,3.2-2.5,5.8-5.7,5.8c0,0-0.1,0-0.1,0C883.2,1346.2,880.7,1343.7,880.7,1340.5z"/>
	<path id="Person-2-92" class="st2" d="M851.1,1356.2c0-4.7,4.5-8.5,10-8.5c5.6,0,10.1,3.8,10.1,8.5L851.1,1356.2z M855.4,1340.6
		c0-3.2,2.5-5.8,5.7-5.8c3.2,0,5.8,2.5,5.8,5.7c0,3.2-2.5,5.8-5.7,5.8c0,0-0.1,0-0.1,0C858,1346.2,855.5,1343.7,855.4,1340.6
		L855.4,1340.6z"/>
	<path id="Person-2-93" class="st2" d="M825.9,1356.2c0-4.7,4.5-8.5,10-8.5c5.6,0,10.1,3.8,10.1,8.5L825.9,1356.2z M830.2,1340.6
		c0-3.2,2.5-5.8,5.7-5.8c3.2,0,5.8,2.5,5.8,5.7c0,3.2-2.5,5.8-5.7,5.8c0,0-0.1,0-0.1,0C832.7,1346.3,830.2,1343.7,830.2,1340.6z"/>
	<path id="Person-2-94" class="st2" d="M800.6,1356.3c0-4.7,4.5-8.5,10-8.5c5.6,0,10.1,3.8,10.1,8.5L800.6,1356.3z M804.9,1340.6
		c0-3.2,2.5-5.8,5.7-5.8c3.2,0,5.8,2.5,5.8,5.7c0,3.2-2.5,5.8-5.7,5.8c0,0-0.1,0-0.1,0C807.5,1346.3,805,1343.8,804.9,1340.6z"/>
	<path id="Person-2-95" class="st2" d="M901.6,1356.1c0-4.7,4.5-8.5,10-8.5c5.6,0,10.1,3.8,10.1,8.5L901.6,1356.1z M905.9,1340.5
		c0-3.2,2.5-5.8,5.7-5.8c3.2,0,5.8,2.5,5.8,5.7c0,3.2-2.5,5.8-5.7,5.8c0,0-0.1,0-0.1,0C908.5,1346.1,906,1343.6,905.9,1340.5z"/>
	<path id="Person-2-96" class="st2" d="M1002.7,1356c0-4.7,4.5-8.5,10-8.5c5.6,0,10.1,3.8,10.1,8.5L1002.7,1356z M1006.9,1340.4
		c0-3.2,2.5-5.8,5.7-5.8c3.2,0,5.8,2.5,5.8,5.7c0,3.2-2.5,5.8-5.7,5.8c0,0-0.1,0-0.1,0C1009.5,1346,1007,1343.5,1006.9,1340.4z"/>
	<path id="Person-2-97" class="st2" d="M977.4,1356c0-4.7,4.5-8.5,10-8.5c5.6,0,10.1,3.8,10.1,8.5L977.4,1356z M981.7,1340.4
		c0-3.2,2.5-5.8,5.7-5.8c3.2,0,5.8,2.5,5.8,5.7c0,3.2-2.5,5.8-5.7,5.8c0,0-0.1,0-0.1,0C984.3,1346,981.7,1343.5,981.7,1340.4
		L981.7,1340.4z"/>
	<path id="Person-2-98" class="st2" d="M952.1,1356.1c0-4.7,4.5-8.5,10-8.5c5.6,0,10.1,3.8,10.1,8.5L952.1,1356.1z M956.4,1340.4
		c0-3.2,2.5-5.8,5.7-5.8s5.8,2.5,5.8,5.7s-2.5,5.8-5.7,5.8c0,0-0.1,0-0.1,0C959,1346.1,956.5,1343.6,956.4,1340.4z"/>
	<path id="Person-2-99" class="st2" d="M926.9,1356.1c0-4.7,4.5-8.5,10-8.5c5.6,0,10.1,3.8,10.1,8.5L926.9,1356.1z M931.2,1340.5
		c0-3.2,2.5-5.8,5.7-5.8c3.2,0,5.8,2.5,5.8,5.7c0,3.2-2.5,5.8-5.7,5.8c0,0-0.1,0-0.1,0C933.7,1346.1,931.2,1343.6,931.2,1340.5
		L931.2,1340.5z"/>
	<path id="Person-2-100" class="st2" d="M1027.9,1355.9c0-4.7,4.5-8.5,10-8.5c5.6,0,10.1,3.8,10.1,8.5L1027.9,1355.9z
		 M1032.2,1340.3c0-3.2,2.5-5.8,5.7-5.8c3.2,0,5.8,2.5,5.8,5.7c0,3.2-2.5,5.8-5.7,5.8c0,0-0.1,0-0.1,0
		C1034.8,1346,1032.2,1343.4,1032.2,1340.3z"/>
	<g class="st4">
		<path class="st1" d="M321.8,1280.3h-35.9v-7.6l12.9-13c3.8-3.9,6.3-6.6,7.5-8.1c1.2-1.5,2-2.9,2.5-4.2c0.5-1.3,0.8-2.6,0.8-4
			c0-2.1-0.6-3.6-1.7-4.6c-1.1-1-2.7-1.5-4.6-1.5c-2,0-3.9,0.5-5.8,1.4c-1.9,0.9-3.8,2.2-5.9,3.9l-5.9-7c2.5-2.2,4.6-3.7,6.3-4.6
			c1.7-0.9,3.5-1.6,5.4-2.1s4.2-0.7,6.6-0.7c3.2,0,6,0.6,8.5,1.8s4.4,2.8,5.7,4.9c1.4,2.1,2,4.5,2,7.2c0,2.4-0.4,4.6-1.2,6.7
			c-0.8,2.1-2.1,4.2-3.9,6.4c-1.7,2.2-4.8,5.3-9.2,9.3l-6.6,6.2v0.5h22.4V1280.3z"/>
		<path class="st1" d="M350.8,1244.3c0,5.4-1,9.4-3.1,12.1c-2.1,2.7-5.1,4.1-9.2,4.1c-3.9,0-6.9-1.4-9-4.2s-3.2-6.8-3.2-12
			c0-10.7,4-16.1,12.1-16.1c4,0,7,1.4,9.1,4.2C349.7,1235.1,350.8,1239.1,350.8,1244.3z M335.2,1244.3c0,3,0.3,5.2,0.8,6.7
			s1.4,2.2,2.5,2.2c2.2,0,3.4-3,3.4-8.9c0-5.9-1.1-8.8-3.4-8.8c-1.2,0-2,0.7-2.5,2.2S335.2,1241.4,335.2,1244.3z M374.9,1228.9
			l-28.5,51.4H338l28.5-51.4H374.9z M386.8,1264.8c0,5.4-1,9.4-3.1,12.1c-2.1,2.7-5.1,4.1-9.2,4.1c-3.9,0-6.9-1.4-9-4.2
			s-3.2-6.8-3.2-12c0-10.7,4-16.1,12.1-16.1c4,0,7,1.4,9.1,4.2C385.7,1255.7,386.8,1259.6,386.8,1264.8z M371.2,1264.9
			c0,3,0.3,5.2,0.8,6.7s1.4,2.2,2.5,2.2c2.2,0,3.4-3,3.4-8.9c0-5.9-1.1-8.8-3.4-8.8c-1.2,0-2,0.7-2.5,2.2S371.2,1261.9,371.2,1264.9
			z"/>
	</g>
	<g class="st4">
		<path class="st5" d="M293.2,1308.2c0,1.5-0.4,2.6-1.1,3.5s-1.8,1.2-3.1,1.2c-0.8,0-1.5-0.2-2.2-0.6c-0.6-0.4-1.1-0.9-1.5-1.6
			c-0.3-0.7-0.5-1.5-0.5-2.5c0-1.5,0.4-2.6,1.1-3.5s1.8-1.2,3.1-1.2c1.3,0,2.3,0.4,3,1.3C292.8,1305.6,293.2,1306.8,293.2,1308.2z
			 M286.3,1308.2c0,1.2,0.2,2,0.7,2.7c0.5,0.6,1.1,0.9,2.1,0.9s1.6-0.3,2.1-0.9c0.5-0.6,0.7-1.5,0.7-2.7c0-1.2-0.2-2-0.7-2.6
			c-0.5-0.6-1.2-0.9-2.1-0.9c-0.9,0-1.6,0.3-2,0.9S286.3,1307,286.3,1308.2z"/>
		<path class="st5" d="M299.7,1304.7h-2.3v8H296v-8h-1.6v-0.6l1.6-0.5v-0.5c0-2.2,1-3.4,2.9-3.4c0.5,0,1,0.1,1.7,0.3l-0.4,1.1
			c-0.5-0.2-1-0.3-1.4-0.3c-0.5,0-0.9,0.2-1.2,0.5s-0.4,0.9-0.4,1.7v0.6h2.3V1304.7z"/>
		<path class="st5" d="M307.1,1303.7v5.9c0,0.7,0.2,1.3,0.5,1.7s0.9,0.5,1.6,0.5c1,0,1.6-0.3,2.1-0.8c0.4-0.5,0.7-1.4,0.7-2.5v-4.8
			h1.4v9.1h-1.1l-0.2-1.2h-0.1c-0.3,0.4-0.7,0.8-1.2,1c-0.5,0.2-1.1,0.4-1.7,0.4c-1.1,0-1.9-0.3-2.5-0.8c-0.6-0.5-0.8-1.4-0.8-2.5
			v-6H307.1z"/>
		<path class="st5" d="M322.1,1310.3c0,0.8-0.3,1.5-0.9,2c-0.6,0.5-1.5,0.7-2.7,0.7c-1.2,0-2.1-0.2-2.8-0.6v-1.3
			c0.4,0.2,0.9,0.4,1.4,0.5c0.5,0.1,1,0.2,1.4,0.2c0.7,0,1.3-0.1,1.7-0.3s0.6-0.6,0.6-1c0-0.4-0.2-0.7-0.5-0.9
			c-0.3-0.3-0.9-0.5-1.8-0.9c-0.8-0.3-1.4-0.6-1.8-0.8c-0.4-0.2-0.6-0.5-0.8-0.8c-0.2-0.3-0.3-0.7-0.3-1.1c0-0.7,0.3-1.3,0.9-1.8
			s1.4-0.6,2.5-0.6c1,0,1.9,0.2,2.9,0.6l-0.5,1.1c-0.9-0.4-1.7-0.6-2.5-0.6c-0.7,0-1.1,0.1-1.5,0.3s-0.5,0.5-0.5,0.8
			c0,0.2,0.1,0.5,0.2,0.6c0.1,0.2,0.3,0.3,0.6,0.5s0.8,0.4,1.6,0.7c1.1,0.4,1.8,0.8,2.2,1.2C321.9,1309.2,322.1,1309.7,322.1,1310.3
			z"/>
		<path class="st5" d="M328.2,1312.9c-1.3,0-2.4-0.4-3.2-1.2c-0.8-0.8-1.2-2-1.2-3.4c0-1.5,0.4-2.6,1.1-3.5c0.7-0.9,1.7-1.3,2.9-1.3
			c1.1,0,2,0.4,2.7,1.1s1,1.7,1,3v0.9h-6.3c0,1.1,0.3,1.9,0.8,2.4c0.5,0.6,1.2,0.8,2.2,0.8c1,0,1.9-0.2,2.9-0.6v1.2
			c-0.5,0.2-0.9,0.4-1.4,0.5C329.3,1312.9,328.8,1312.9,328.2,1312.9z M327.8,1304.6c-0.7,0-1.3,0.2-1.7,0.7c-0.4,0.5-0.7,1.1-0.8,2
			h4.8c0-0.9-0.2-1.5-0.6-2S328.5,1304.6,327.8,1304.6z"/>
		<path class="st5" d="M338,1303.5c0.4,0,0.8,0,1.1,0.1l-0.2,1.3c-0.4-0.1-0.7-0.1-1-0.1c-0.7,0-1.4,0.3-1.9,0.9
			c-0.5,0.6-0.8,1.3-0.8,2.2v4.9h-1.4v-9.1h1.1l0.2,1.7h0.1c0.3-0.6,0.7-1,1.2-1.4S337.5,1303.5,338,1303.5z"/>
		<path class="st5" d="M346.7,1310.3c0,0.8-0.3,1.5-0.9,2c-0.6,0.5-1.5,0.7-2.7,0.7c-1.2,0-2.1-0.2-2.8-0.6v-1.3
			c0.4,0.2,0.9,0.4,1.4,0.5c0.5,0.1,1,0.2,1.4,0.2c0.7,0,1.3-0.1,1.7-0.3s0.6-0.6,0.6-1c0-0.4-0.2-0.7-0.5-0.9
			c-0.3-0.3-0.9-0.5-1.8-0.9c-0.8-0.3-1.4-0.6-1.8-0.8c-0.4-0.2-0.6-0.5-0.8-0.8c-0.2-0.3-0.3-0.7-0.3-1.1c0-0.7,0.3-1.3,0.9-1.8
			s1.4-0.6,2.5-0.6c1,0,1.9,0.2,2.9,0.6l-0.5,1.1c-0.9-0.4-1.7-0.6-2.5-0.6c-0.7,0-1.1,0.1-1.5,0.3s-0.5,0.5-0.5,0.8
			c0,0.2,0.1,0.5,0.2,0.6c0.1,0.2,0.3,0.3,0.6,0.5s0.8,0.4,1.6,0.7c1.1,0.4,1.8,0.8,2.2,1.2C346.5,1309.2,346.7,1309.7,346.7,1310.3
			z"/>
		<path class="st5" d="M357.5,1304.7h-2.3v8h-1.4v-8h-1.6v-0.6l1.6-0.5v-0.5c0-2.2,1-3.4,2.9-3.4c0.5,0,1,0.1,1.7,0.3l-0.4,1.1
			c-0.5-0.2-1-0.3-1.4-0.3c-0.5,0-0.9,0.2-1.2,0.5s-0.4,0.9-0.4,1.7v0.6h2.3V1304.7z M359,1301.2c0-0.3,0.1-0.5,0.2-0.7
			s0.3-0.2,0.6-0.2c0.2,0,0.4,0.1,0.6,0.2s0.2,0.4,0.2,0.7c0,0.3-0.1,0.5-0.2,0.7s-0.4,0.2-0.6,0.2c-0.2,0-0.4-0.1-0.6-0.2
			S359,1301.5,359,1301.2z M360.5,1312.8h-1.4v-9.1h1.4V1312.8z"/>
		<path class="st5" d="M369.6,1312.8v-5.9c0-0.7-0.2-1.3-0.5-1.7s-0.9-0.5-1.6-0.5c-1,0-1.6,0.3-2.1,0.8s-0.7,1.4-0.7,2.5v4.8h-1.4
			v-9.1h1.1l0.2,1.2h0.1c0.3-0.4,0.7-0.8,1.2-1s1.1-0.4,1.7-0.4c1.1,0,1.9,0.3,2.5,0.8s0.8,1.4,0.8,2.5v5.9H369.6z"/>
		<path class="st5" d="M380,1311.5L380,1311.5c-0.7,0.9-1.7,1.4-2.9,1.4c-1.2,0-2.1-0.4-2.8-1.2c-0.7-0.8-1-2-1-3.5
			c0-1.5,0.3-2.7,1-3.5s1.6-1.2,2.8-1.2c1.2,0,2.2,0.4,2.8,1.3h0.1l-0.1-0.7l0-0.6v-3.7h1.4v12.9h-1.1L380,1311.5z M377.3,1311.8
			c0.9,0,1.6-0.3,2-0.8c0.4-0.5,0.6-1.3,0.6-2.5v-0.3c0-1.3-0.2-2.2-0.6-2.8c-0.4-0.6-1.1-0.8-2.1-0.8c-0.8,0-1.4,0.3-1.9,0.9
			c-0.4,0.6-0.6,1.5-0.6,2.7c0,1.2,0.2,2,0.6,2.6S376.5,1311.8,377.3,1311.8z"/>
	</g>
	<g class="st4">
		<path class="st5" d="M288.3,1333.8c0.2,0,0.5,0,0.7-0.1s0.4-0.1,0.5-0.1v1.1c-0.1,0.1-0.4,0.1-0.7,0.2c-0.3,0-0.6,0.1-0.8,0.1
			c-1.8,0-2.6-0.9-2.6-2.8v-5.4h-1.3v-0.7l1.3-0.6l0.6-1.9h0.8v2.1h2.6v1.1h-2.6v5.4c0,0.5,0.1,1,0.4,1.3S287.9,1333.8,288.3,1333.8
			z"/>
		<path class="st5" d="M297.6,1334.8v-5.9c0-0.7-0.2-1.3-0.5-1.7s-0.9-0.5-1.6-0.5c-1,0-1.7,0.3-2.1,0.8c-0.4,0.5-0.7,1.4-0.7,2.6
			v4.8h-1.4v-12.9h1.4v3.9c0,0.5,0,0.9-0.1,1.2h0.1c0.3-0.4,0.7-0.8,1.2-1c0.5-0.3,1.1-0.4,1.7-0.4c1.1,0,1.9,0.3,2.5,0.8
			c0.6,0.5,0.8,1.4,0.8,2.5v5.9H297.6z"/>
		<path class="st5" d="M305.6,1334.9c-1.3,0-2.4-0.4-3.2-1.2c-0.8-0.8-1.2-2-1.2-3.4c0-1.5,0.4-2.6,1.1-3.5c0.7-0.9,1.7-1.3,2.9-1.3
			c1.1,0,2,0.4,2.7,1.1s1,1.7,1,3v0.9h-6.3c0,1.1,0.3,1.9,0.8,2.4c0.5,0.6,1.2,0.8,2.2,0.8c1,0,1.9-0.2,2.9-0.6v1.2
			c-0.5,0.2-0.9,0.4-1.4,0.5C306.8,1334.9,306.3,1334.9,305.6,1334.9z M305.3,1326.6c-0.7,0-1.3,0.2-1.7,0.7c-0.4,0.5-0.7,1.1-0.8,2
			h4.8c0-0.9-0.2-1.5-0.6-2S306,1326.6,305.3,1326.6z"/>
		<path class="st5" d="M321.6,1332.3c0,0.8-0.3,1.5-0.9,2c-0.6,0.5-1.5,0.7-2.7,0.7c-1.2,0-2.1-0.2-2.8-0.6v-1.3
			c0.4,0.2,0.9,0.4,1.4,0.5c0.5,0.1,1,0.2,1.4,0.2c0.7,0,1.3-0.1,1.7-0.3s0.6-0.6,0.6-1c0-0.4-0.2-0.7-0.5-0.9
			c-0.3-0.3-0.9-0.5-1.8-0.9c-0.8-0.3-1.4-0.6-1.8-0.8c-0.4-0.2-0.6-0.5-0.8-0.8c-0.2-0.3-0.3-0.7-0.3-1.1c0-0.7,0.3-1.3,0.9-1.8
			s1.4-0.6,2.5-0.6c1,0,1.9,0.2,2.9,0.6l-0.5,1.1c-0.9-0.4-1.7-0.6-2.5-0.6c-0.7,0-1.1,0.1-1.5,0.3s-0.5,0.5-0.5,0.8
			c0,0.2,0.1,0.5,0.2,0.6c0.1,0.2,0.3,0.3,0.6,0.5s0.8,0.4,1.6,0.7c1.1,0.4,1.8,0.8,2.2,1.2C321.4,1331.2,321.6,1331.7,321.6,1332.3
			z"/>
		<path class="st5" d="M323.7,1323.2c0-0.3,0.1-0.5,0.2-0.7s0.3-0.2,0.6-0.2c0.2,0,0.4,0.1,0.6,0.2s0.2,0.4,0.2,0.7
			c0,0.3-0.1,0.5-0.2,0.7s-0.4,0.2-0.6,0.2c-0.2,0-0.4-0.1-0.6-0.2S323.7,1323.5,323.7,1323.2z M325.2,1334.8h-1.4v-9.1h1.4V1334.8z
			"/>
		<path class="st5" d="M331.1,1333.8c0.2,0,0.5,0,0.7-0.1s0.4-0.1,0.5-0.1v1.1c-0.1,0.1-0.4,0.1-0.7,0.2c-0.3,0-0.6,0.1-0.8,0.1
			c-1.8,0-2.6-0.9-2.6-2.8v-5.4H327v-0.7l1.3-0.6l0.6-1.9h0.8v2.1h2.6v1.1h-2.6v5.4c0,0.5,0.1,1,0.4,1.3S330.7,1333.8,331.1,1333.8z
			"/>
		<path class="st5" d="M338,1334.9c-1.3,0-2.4-0.4-3.2-1.2c-0.8-0.8-1.2-2-1.2-3.4c0-1.5,0.4-2.6,1.1-3.5c0.7-0.9,1.7-1.3,2.9-1.3
			c1.1,0,2,0.4,2.7,1.1s1,1.7,1,3v0.9h-6.3c0,1.1,0.3,1.9,0.8,2.4c0.5,0.6,1.2,0.8,2.2,0.8c1,0,1.9-0.2,2.9-0.6v1.2
			c-0.5,0.2-0.9,0.4-1.4,0.5C339.1,1334.9,338.6,1334.9,338,1334.9z M337.6,1326.6c-0.7,0-1.3,0.2-1.7,0.7c-0.4,0.5-0.7,1.1-0.8,2
			h4.8c0-0.9-0.2-1.5-0.6-2S338.4,1326.6,337.6,1326.6z"/>
		<path class="st5" d="M354.3,1334.8v-5.9c0-0.7-0.2-1.3-0.5-1.7s-0.9-0.5-1.6-0.5c-1,0-1.7,0.3-2.1,0.8c-0.4,0.5-0.7,1.4-0.7,2.6
			v4.8h-1.4v-12.9h1.4v3.9c0,0.5,0,0.9-0.1,1.2h0.1c0.3-0.4,0.7-0.8,1.2-1c0.5-0.3,1.1-0.4,1.7-0.4c1.1,0,1.9,0.3,2.5,0.8
			c0.6,0.5,0.8,1.4,0.8,2.5v5.9H354.3z"/>
		<path class="st5" d="M364.1,1334.8l-0.3-1.3h-0.1c-0.5,0.6-0.9,1-1.4,1.2c-0.5,0.2-1,0.3-1.7,0.3c-0.9,0-1.6-0.2-2.1-0.7
			c-0.5-0.5-0.8-1.1-0.8-2c0-1.8,1.5-2.8,4.4-2.9l1.5,0v-0.6c0-0.7-0.2-1.2-0.5-1.6c-0.3-0.3-0.8-0.5-1.5-0.5
			c-0.8,0-1.6,0.2-2.6,0.7l-0.4-1.1c0.4-0.2,0.9-0.4,1.5-0.6c0.5-0.1,1.1-0.2,1.6-0.2c1.1,0,1.9,0.2,2.4,0.7
			c0.5,0.5,0.8,1.3,0.8,2.3v6.2H364.1z M361,1333.8c0.9,0,1.5-0.2,2-0.7c0.5-0.5,0.7-1.1,0.7-2v-0.8l-1.4,0.1
			c-1.1,0-1.9,0.2-2.4,0.5c-0.5,0.3-0.7,0.8-0.7,1.4c0,0.5,0.2,0.9,0.5,1.1C360.1,1333.7,360.5,1333.8,361,1333.8z"/>
		<path class="st5" d="M372.2,1325.5c0.4,0,0.8,0,1.1,0.1l-0.2,1.3c-0.4-0.1-0.7-0.1-1-0.1c-0.7,0-1.4,0.3-1.9,0.9
			c-0.5,0.6-0.8,1.3-0.8,2.2v4.9H368v-9.1h1.1l0.2,1.7h0.1c0.3-0.6,0.7-1,1.2-1.4S371.6,1325.5,372.2,1325.5z"/>
		<path class="st5" d="M381.1,1333.5L381.1,1333.5c-0.7,0.9-1.7,1.4-2.9,1.4c-1.2,0-2.1-0.4-2.8-1.2c-0.7-0.8-1-2-1-3.5
			c0-1.5,0.3-2.7,1-3.5s1.6-1.2,2.8-1.2c1.2,0,2.2,0.4,2.8,1.3h0.1l-0.1-0.7l0-0.6v-3.7h1.4v12.9h-1.1L381.1,1333.5z M378.4,1333.8
			c0.9,0,1.6-0.3,2-0.8c0.4-0.5,0.6-1.3,0.6-2.5v-0.3c0-1.3-0.2-2.2-0.6-2.8c-0.4-0.6-1.1-0.8-2.1-0.8c-0.8,0-1.4,0.3-1.9,0.9
			c-0.4,0.6-0.6,1.5-0.6,2.7c0,1.2,0.2,2,0.6,2.6S377.6,1333.8,378.4,1333.8z"/>
	</g>
	<g class="st4">
		<path class="st5" d="M288.3,1355.8c0.2,0,0.5,0,0.7-0.1s0.4-0.1,0.5-0.1v1.1c-0.1,0.1-0.4,0.1-0.7,0.2c-0.3,0-0.6,0.1-0.8,0.1
			c-1.8,0-2.6-0.9-2.6-2.8v-5.4h-1.3v-0.7l1.3-0.6l0.6-1.9h0.8v2.1h2.6v1.1h-2.6v5.4c0,0.5,0.1,1,0.4,1.3S287.9,1355.8,288.3,1355.8
			z"/>
		<path class="st5" d="M299.2,1352.2c0,1.5-0.4,2.6-1.1,3.5s-1.8,1.2-3.1,1.2c-0.8,0-1.5-0.2-2.2-0.6c-0.6-0.4-1.1-0.9-1.5-1.6
			c-0.3-0.7-0.5-1.5-0.5-2.5c0-1.5,0.4-2.6,1.1-3.5s1.8-1.2,3.1-1.2c1.3,0,2.3,0.4,3,1.3C298.8,1349.6,299.2,1350.8,299.2,1352.2z
			 M292.3,1352.2c0,1.2,0.2,2,0.7,2.7c0.5,0.6,1.1,0.9,2.1,0.9s1.6-0.3,2.1-0.9c0.5-0.6,0.7-1.5,0.7-2.7c0-1.2-0.2-2-0.7-2.6
			c-0.5-0.6-1.2-0.9-2.1-0.9c-0.9,0-1.6,0.3-2,0.9S292.3,1351,292.3,1352.2z"/>
		<path class="st5" d="M312.3,1356.8v-5.9c0-0.7-0.2-1.3-0.5-1.7s-0.9-0.5-1.6-0.5c-1,0-1.6,0.3-2.1,0.8s-0.7,1.4-0.7,2.5v4.8h-1.4
			v-9.1h1.1l0.2,1.2h0.1c0.3-0.4,0.7-0.8,1.2-1s1.1-0.4,1.7-0.4c1.1,0,1.9,0.3,2.5,0.8s0.8,1.4,0.8,2.5v5.9H312.3z"/>
		<path class="st5" d="M322.1,1356.8l-0.3-1.3h-0.1c-0.5,0.6-0.9,1-1.4,1.2c-0.5,0.2-1,0.3-1.7,0.3c-0.9,0-1.6-0.2-2.1-0.7
			c-0.5-0.5-0.8-1.1-0.8-2c0-1.8,1.5-2.8,4.4-2.9l1.5,0v-0.6c0-0.7-0.2-1.2-0.5-1.6c-0.3-0.3-0.8-0.5-1.5-0.5
			c-0.8,0-1.6,0.2-2.6,0.7l-0.4-1.1c0.4-0.2,0.9-0.4,1.5-0.6c0.5-0.1,1.1-0.2,1.6-0.2c1.1,0,1.9,0.2,2.4,0.7
			c0.5,0.5,0.8,1.3,0.8,2.3v6.2H322.1z M319,1355.8c0.9,0,1.5-0.2,2-0.7c0.5-0.5,0.7-1.1,0.7-2v-0.8l-1.4,0.1
			c-1.1,0-1.9,0.2-2.4,0.5c-0.5,0.3-0.7,0.8-0.7,1.4c0,0.5,0.2,0.9,0.5,1.1C318,1355.7,318.4,1355.8,319,1355.8z"/>
		<path class="st5" d="M327.9,1356.8l-3.5-9.1h1.5l2,5.4c0.4,1.3,0.7,2.1,0.8,2.5h0.1c0.1-0.3,0.3-0.9,0.6-1.8c0.3-0.9,1-2.9,2.2-6
			h1.5l-3.5,9.1H327.9z"/>
		<path class="st5" d="M334.3,1345.2c0-0.3,0.1-0.5,0.2-0.7s0.3-0.2,0.6-0.2c0.2,0,0.4,0.1,0.6,0.2s0.2,0.4,0.2,0.7
			c0,0.3-0.1,0.5-0.2,0.7s-0.4,0.2-0.6,0.2c-0.2,0-0.4-0.1-0.6-0.2S334.3,1345.5,334.3,1345.2z M335.8,1356.8h-1.4v-9.1h1.4V1356.8z
			"/>
		<path class="st5" d="M346.2,1347.7v0.9l-1.7,0.2c0.2,0.2,0.3,0.4,0.4,0.8s0.2,0.7,0.2,1.1c0,0.9-0.3,1.6-0.9,2.1s-1.4,0.8-2.5,0.8
			c-0.3,0-0.5,0-0.8-0.1c-0.6,0.3-0.9,0.7-0.9,1.2c0,0.2,0.1,0.4,0.3,0.6s0.6,0.2,1.1,0.2h1.6c1,0,1.7,0.2,2.3,0.6
			c0.5,0.4,0.8,1,0.8,1.8c0,1-0.4,1.8-1.2,2.3s-2,0.8-3.5,0.8c-1.2,0-2.1-0.2-2.8-0.7c-0.6-0.4-1-1.1-1-1.9c0-0.6,0.2-1,0.5-1.4
			c0.4-0.4,0.9-0.7,1.5-0.8c-0.2-0.1-0.4-0.3-0.6-0.5c-0.2-0.2-0.2-0.5-0.2-0.8c0-0.3,0.1-0.6,0.3-0.9c0.2-0.2,0.5-0.5,0.8-0.7
			c-0.5-0.2-0.9-0.5-1.1-1c-0.3-0.5-0.4-1-0.4-1.6c0-1,0.3-1.8,0.9-2.3c0.6-0.5,1.4-0.8,2.5-0.8c0.5,0,0.9,0.1,1.3,0.2H346.2z
			 M338.9,1358.3c0,0.5,0.2,0.9,0.6,1.1c0.4,0.3,1,0.4,1.8,0.4c1.2,0,2-0.2,2.6-0.5c0.6-0.3,0.8-0.8,0.8-1.4c0-0.5-0.2-0.8-0.5-1
			c-0.3-0.2-0.9-0.3-1.7-0.3h-1.7c-0.6,0-1.1,0.1-1.5,0.4S338.9,1357.7,338.9,1358.3z M339.7,1350.6c0,0.6,0.2,1.1,0.5,1.4
			c0.4,0.3,0.9,0.5,1.5,0.5c1.3,0,2-0.7,2-2c0-1.4-0.7-2.1-2-2.1c-0.6,0-1.1,0.2-1.5,0.5S339.7,1349.9,339.7,1350.6z"/>
		<path class="st5" d="M353.7,1356.8l-0.3-1.3h-0.1c-0.5,0.6-0.9,1-1.4,1.2c-0.5,0.2-1,0.3-1.7,0.3c-0.9,0-1.6-0.2-2.1-0.7
			c-0.5-0.5-0.8-1.1-0.8-2c0-1.8,1.5-2.8,4.4-2.9l1.5,0v-0.6c0-0.7-0.2-1.2-0.5-1.6c-0.3-0.3-0.8-0.5-1.5-0.5
			c-0.8,0-1.6,0.2-2.6,0.7l-0.4-1.1c0.4-0.2,0.9-0.4,1.5-0.6c0.5-0.1,1.1-0.2,1.6-0.2c1.1,0,1.9,0.2,2.4,0.7
			c0.5,0.5,0.8,1.3,0.8,2.3v6.2H353.7z M350.6,1355.8c0.9,0,1.5-0.2,2-0.7c0.5-0.5,0.7-1.1,0.7-2v-0.8l-1.4,0.1
			c-1.1,0-1.9,0.2-2.4,0.5c-0.5,0.3-0.7,0.8-0.7,1.4c0,0.5,0.2,0.9,0.5,1.1C349.6,1355.7,350,1355.8,350.6,1355.8z"/>
		<path class="st5" d="M360.5,1355.8c0.2,0,0.5,0,0.7-0.1s0.4-0.1,0.5-0.1v1.1c-0.1,0.1-0.4,0.1-0.7,0.2c-0.3,0-0.6,0.1-0.8,0.1
			c-1.8,0-2.6-0.9-2.6-2.8v-5.4h-1.3v-0.7l1.3-0.6l0.6-1.9h0.8v2.1h2.6v1.1H359v5.4c0,0.5,0.1,1,0.4,1.3S360,1355.8,360.5,1355.8z"
			/>
		<path class="st5" d="M367.4,1356.9c-1.3,0-2.4-0.4-3.2-1.2c-0.8-0.8-1.2-2-1.2-3.4c0-1.5,0.4-2.6,1.1-3.5c0.7-0.9,1.7-1.3,2.9-1.3
			c1.1,0,2,0.4,2.7,1.1s1,1.7,1,3v0.9h-6.3c0,1.1,0.3,1.9,0.8,2.4c0.5,0.6,1.2,0.8,2.2,0.8c1,0,1.9-0.2,2.9-0.6v1.2
			c-0.5,0.2-0.9,0.4-1.4,0.5C368.5,1356.9,368,1356.9,367.4,1356.9z M367,1348.6c-0.7,0-1.3,0.2-1.7,0.7c-0.4,0.5-0.7,1.1-0.8,2h4.8
			c0-0.9-0.2-1.5-0.6-2S367.7,1348.6,367,1348.6z"/>
	</g>
	<g class="st4">
		<path class="st1" d="M1118.7,1240.7c0,3.2-1,5.9-2.9,8.2s-4.7,3.8-8.2,4.6v0.2c4.1,0.5,7.3,1.8,9.4,3.8s3.2,4.7,3.2,8.1
			c0,4.9-1.8,8.8-5.4,11.5s-8.7,4.1-15.4,4.1c-5.6,0-10.5-0.9-14.8-2.8v-9.2c2,1,4.2,1.8,6.6,2.5s4.8,0.9,7.1,0.9
			c3.6,0,6.2-0.6,7.9-1.8s2.6-3.2,2.6-5.9c0-2.4-1-4.1-3-5.1s-5.1-1.5-9.4-1.5h-3.9v-8.3h4c4,0,6.9-0.5,8.7-1.6s2.8-2.8,2.8-5.4
			c0-3.9-2.4-5.8-7.3-5.8c-1.7,0-3.4,0.3-5.2,0.8s-3.7,1.5-5.8,2.9l-5-7.5c4.7-3.4,10.3-5.1,16.8-5.1c5.3,0,9.5,1.1,12.6,3.2
			S1118.7,1236.8,1118.7,1240.7z"/>
		<path class="st1" d="M1131,1280.6l19.3-42.2H1125v-9.1h36.9v6.8l-19.4,44.5H1131z"/>
		<path class="st1" d="M1190.8,1244.5c0,5.4-1,9.4-3.1,12.1s-5.1,4.1-9.2,4.1c-3.9,0-6.9-1.4-9-4.2s-3.2-6.8-3.2-12
			c0-10.7,4-16.1,12.1-16.1c4,0,7,1.4,9.1,4.2S1190.8,1239.3,1190.8,1244.5z M1175.2,1244.6c0,3,0.3,5.2,0.8,6.7s1.4,2.2,2.5,2.2
			c2.2,0,3.4-3,3.4-8.9c0-5.9-1.1-8.8-3.4-8.8c-1.2,0-2,0.7-2.5,2.2S1175.2,1241.6,1175.2,1244.6z M1215,1229.2l-28.5,51.4h-8.4
			l28.5-51.4H1215z M1226.8,1265c0,5.4-1,9.4-3.1,12.1s-5.1,4.1-9.2,4.1c-3.9,0-6.9-1.4-9-4.2s-3.2-6.8-3.2-12
			c0-10.7,4-16.1,12.1-16.1c4,0,7,1.4,9.1,4.2S1226.8,1259.9,1226.8,1265z M1211.2,1265.1c0,3,0.3,5.2,0.8,6.7s1.4,2.2,2.5,2.2
			c2.2,0,3.4-3,3.4-8.9c0-5.9-1.1-8.8-3.4-8.8c-1.2,0-2,0.7-2.5,2.2S1211.2,1262.1,1211.2,1265.1z"/>
	</g>
	<g id="Group" transform="translate(-166 376.184)">
		<g class="st4">
			<path class="st5" d="M1256.2,931.9c0,1.5-0.4,2.6-1.1,3.5s-1.8,1.2-3.1,1.2c-0.8,0-1.5-0.2-2.2-0.6c-0.6-0.4-1.1-0.9-1.5-1.6
				c-0.3-0.7-0.5-1.5-0.5-2.5c0-1.5,0.4-2.6,1.1-3.5c0.7-0.8,1.8-1.2,3.1-1.2c1.3,0,2.3,0.4,3,1.3
				C1255.8,929.3,1256.2,930.5,1256.2,931.9z M1249.3,931.9c0,1.2,0.2,2,0.7,2.7c0.5,0.6,1.1,0.9,2,0.9c0.9,0,1.6-0.3,2.1-0.9
				c0.5-0.6,0.7-1.5,0.7-2.7c0-1.2-0.2-2-0.7-2.6s-1.2-0.9-2.1-0.9c-0.9,0-1.6,0.3-2,0.9C1249.5,929.9,1249.3,930.7,1249.3,931.9z"
				/>
			<path class="st5" d="M1262.7,928.4h-2.3v8h-1.4v-8h-1.6v-0.6l1.6-0.5v-0.5c0-2.2,1-3.4,2.9-3.4c0.5,0,1,0.1,1.7,0.3l-0.4,1.1
				c-0.5-0.2-1-0.3-1.4-0.3c-0.5,0-0.9,0.2-1.2,0.5s-0.4,0.9-0.4,1.7v0.6h2.3V928.4z"/>
			<path class="st5" d="M1270.1,927.4v5.9c0,0.7,0.2,1.3,0.5,1.7c0.3,0.4,0.9,0.5,1.6,0.5c1,0,1.6-0.3,2.1-0.8
				c0.4-0.5,0.7-1.4,0.7-2.5v-4.8h1.4v9.1h-1.1l-0.2-1.2h-0.1c-0.3,0.4-0.7,0.8-1.2,1c-0.5,0.2-1.1,0.4-1.7,0.4
				c-1.1,0-1.9-0.3-2.5-0.8c-0.6-0.5-0.8-1.4-0.8-2.5v-6H1270.1z"/>
			<path class="st5" d="M1285.1,934c0,0.8-0.3,1.5-0.9,2c-0.6,0.5-1.5,0.7-2.7,0.7c-1.2,0-2.1-0.2-2.8-0.6v-1.3
				c0.4,0.2,0.9,0.4,1.4,0.5c0.5,0.1,1,0.2,1.4,0.2c0.7,0,1.3-0.1,1.7-0.3c0.4-0.2,0.6-0.6,0.6-1c0-0.4-0.2-0.7-0.5-0.9
				c-0.3-0.3-0.9-0.5-1.8-0.9c-0.8-0.3-1.4-0.6-1.8-0.8c-0.4-0.2-0.6-0.5-0.8-0.8c-0.2-0.3-0.3-0.7-0.3-1.1c0-0.7,0.3-1.3,0.9-1.8
				c0.6-0.4,1.4-0.6,2.5-0.6c1,0,1.9,0.2,2.9,0.6l-0.5,1.1c-0.9-0.4-1.7-0.6-2.5-0.6c-0.7,0-1.1,0.1-1.5,0.3s-0.5,0.5-0.5,0.8
				c0,0.2,0.1,0.5,0.2,0.6c0.1,0.2,0.3,0.3,0.6,0.5c0.3,0.2,0.8,0.4,1.6,0.7c1.1,0.4,1.8,0.8,2.2,1.2
				C1284.9,932.9,1285.1,933.4,1285.1,934z"/>
			<path class="st5" d="M1291.2,936.6c-1.3,0-2.4-0.4-3.2-1.2c-0.8-0.8-1.2-2-1.2-3.4c0-1.5,0.4-2.6,1.1-3.5
				c0.7-0.9,1.7-1.3,2.9-1.3c1.1,0,2,0.4,2.7,1.1s1,1.7,1,3v0.9h-6.3c0,1.1,0.3,1.9,0.8,2.4c0.5,0.6,1.2,0.8,2.2,0.8
				c1,0,1.9-0.2,2.9-0.6v1.2c-0.5,0.2-0.9,0.4-1.4,0.5C1292.3,936.6,1291.8,936.6,1291.2,936.6z M1290.8,928.4
				c-0.7,0-1.3,0.2-1.7,0.7c-0.4,0.5-0.7,1.1-0.8,2h4.8c0-0.9-0.2-1.5-0.6-2C1292.1,928.6,1291.5,928.4,1290.8,928.4z"/>
			<path class="st5" d="M1301,927.2c0.4,0,0.8,0,1.1,0.1l-0.2,1.3c-0.4-0.1-0.7-0.1-1-0.1c-0.7,0-1.4,0.3-1.9,0.9
				c-0.5,0.6-0.8,1.3-0.8,2.2v4.9h-1.4v-9.1h1.1l0.2,1.7h0.1c0.3-0.6,0.7-1,1.2-1.4C1299.9,927.4,1300.5,927.2,1301,927.2z"/>
			<path class="st5" d="M1309.7,934c0,0.8-0.3,1.5-0.9,2c-0.6,0.5-1.5,0.7-2.7,0.7c-1.2,0-2.1-0.2-2.8-0.6v-1.3
				c0.4,0.2,0.9,0.4,1.4,0.5c0.5,0.1,1,0.2,1.4,0.2c0.7,0,1.3-0.1,1.7-0.3c0.4-0.2,0.6-0.6,0.6-1c0-0.4-0.2-0.7-0.5-0.9
				c-0.3-0.3-0.9-0.5-1.8-0.9c-0.8-0.3-1.4-0.6-1.8-0.8c-0.4-0.2-0.6-0.5-0.8-0.8c-0.2-0.3-0.3-0.7-0.3-1.1c0-0.7,0.3-1.3,0.9-1.8
				c0.6-0.4,1.4-0.6,2.5-0.6c1,0,1.9,0.2,2.9,0.6l-0.5,1.1c-0.9-0.4-1.7-0.6-2.5-0.6c-0.7,0-1.1,0.1-1.5,0.3s-0.5,0.5-0.5,0.8
				c0,0.2,0.1,0.5,0.2,0.6c0.1,0.2,0.3,0.3,0.6,0.5c0.3,0.2,0.8,0.4,1.6,0.7c1.1,0.4,1.8,0.8,2.2,1.2
				C1309.5,932.9,1309.7,933.4,1309.7,934z"/>
			<path class="st5" d="M1320.4,928.4h-2.3v8h-1.4v-8h-1.6v-0.6l1.6-0.5v-0.5c0-2.2,1-3.4,2.9-3.4c0.5,0,1,0.1,1.7,0.3l-0.4,1.1
				c-0.5-0.2-1-0.3-1.4-0.3c-0.5,0-0.9,0.2-1.2,0.5s-0.4,0.9-0.4,1.7v0.6h2.3V928.4z M1322,924.9c0-0.3,0.1-0.5,0.2-0.7
				c0.2-0.1,0.3-0.2,0.6-0.2c0.2,0,0.4,0.1,0.6,0.2c0.2,0.1,0.2,0.4,0.2,0.7c0,0.3-0.1,0.5-0.2,0.7c-0.2,0.2-0.4,0.2-0.6,0.2
				c-0.2,0-0.4-0.1-0.6-0.2C1322.1,925.5,1322,925.2,1322,924.9z M1323.5,936.5h-1.4v-9.1h1.4V936.5z"/>
			<path class="st5" d="M1332.6,936.5v-5.9c0-0.7-0.2-1.3-0.5-1.7c-0.3-0.4-0.9-0.5-1.6-0.5c-1,0-1.6,0.3-2.1,0.8
				c-0.4,0.5-0.7,1.4-0.7,2.5v4.8h-1.4v-9.1h1.1l0.2,1.2h0.1c0.3-0.4,0.7-0.8,1.2-1c0.5-0.2,1.1-0.4,1.7-0.4c1.1,0,1.9,0.3,2.5,0.8
				c0.6,0.5,0.8,1.4,0.8,2.5v5.9H1332.6z"/>
			<path class="st5" d="M1343,935.3L1343,935.3c-0.7,0.9-1.7,1.4-2.9,1.4c-1.2,0-2.1-0.4-2.8-1.2c-0.7-0.8-1-2-1-3.5
				c0-1.5,0.3-2.7,1-3.5s1.6-1.2,2.8-1.2c1.2,0,2.2,0.4,2.8,1.3h0.1l-0.1-0.7l0-0.6v-3.7h1.4v12.9h-1.1L1343,935.3z M1340.3,935.5
				c0.9,0,1.6-0.3,2-0.8c0.4-0.5,0.6-1.3,0.6-2.5V932c0-1.3-0.2-2.2-0.6-2.8s-1.1-0.8-2.1-0.8c-0.8,0-1.4,0.3-1.9,0.9
				c-0.4,0.6-0.6,1.5-0.6,2.7c0,1.2,0.2,2,0.6,2.6C1338.8,935.2,1339.4,935.5,1340.3,935.5z"/>
			<path class="st5" d="M1354.6,935.5c0.2,0,0.5,0,0.7-0.1c0.2,0,0.4-0.1,0.5-0.1v1.1c-0.1,0.1-0.4,0.1-0.7,0.2
				c-0.3,0-0.6,0.1-0.8,0.1c-1.8,0-2.6-0.9-2.6-2.8v-5.4h-1.3v-0.7l1.3-0.6l0.6-1.9h0.8v2.1h2.6v1.1h-2.6v5.4c0,0.5,0.1,1,0.4,1.3
				C1353.8,935.4,1354.2,935.5,1354.6,935.5z"/>
			<path class="st5" d="M1363.9,936.5v-5.9c0-0.7-0.2-1.3-0.5-1.7c-0.3-0.4-0.9-0.5-1.6-0.5c-1,0-1.7,0.3-2.1,0.8
				c-0.4,0.5-0.7,1.4-0.7,2.6v4.8h-1.4v-12.9h1.4v3.9c0,0.5,0,0.9-0.1,1.2h0.1c0.3-0.4,0.7-0.8,1.2-1s1.1-0.4,1.7-0.4
				c1.1,0,1.9,0.3,2.5,0.8c0.6,0.5,0.8,1.4,0.8,2.5v5.9H1363.9z"/>
			<path class="st5" d="M1371.9,936.6c-1.3,0-2.4-0.4-3.2-1.2c-0.8-0.8-1.2-2-1.2-3.4c0-1.5,0.4-2.6,1.1-3.5
				c0.7-0.9,1.7-1.3,2.9-1.3c1.1,0,2,0.4,2.7,1.1s1,1.7,1,3v0.9h-6.3c0,1.1,0.3,1.9,0.8,2.4c0.5,0.6,1.2,0.8,2.2,0.8
				c1,0,1.9-0.2,2.9-0.6v1.2c-0.5,0.2-0.9,0.4-1.4,0.5C1373.1,936.6,1372.6,936.6,1371.9,936.6z M1371.6,928.4
				c-0.7,0-1.3,0.2-1.7,0.7c-0.4,0.5-0.7,1.1-0.8,2h4.8c0-0.9-0.2-1.5-0.6-2C1372.8,928.6,1372.3,928.4,1371.6,928.4z"/>
		</g>
		<g class="st4">
			<path class="st5" d="M1254.2,956c0,0.8-0.3,1.5-0.9,2c-0.6,0.5-1.5,0.7-2.7,0.7c-1.2,0-2.1-0.2-2.8-0.6v-1.3
				c0.4,0.2,0.9,0.4,1.4,0.5s1,0.2,1.4,0.2c0.7,0,1.3-0.1,1.7-0.3c0.4-0.2,0.6-0.6,0.6-1c0-0.4-0.2-0.7-0.5-0.9
				c-0.3-0.3-0.9-0.5-1.8-0.9c-0.8-0.3-1.4-0.6-1.8-0.8c-0.4-0.2-0.6-0.5-0.8-0.8c-0.2-0.3-0.3-0.7-0.3-1.1c0-0.7,0.3-1.3,0.9-1.8
				c0.6-0.4,1.4-0.6,2.5-0.6c1,0,1.9,0.2,2.9,0.6l-0.5,1.1c-0.9-0.4-1.7-0.6-2.5-0.6c-0.7,0-1.1,0.1-1.5,0.3s-0.5,0.5-0.5,0.8
				c0,0.2,0.1,0.5,0.2,0.6c0.1,0.2,0.3,0.3,0.6,0.5c0.3,0.2,0.8,0.4,1.6,0.7c1.1,0.4,1.8,0.8,2.2,1.2S1254.2,955.4,1254.2,956z"/>
			<path class="st5" d="M1256.4,946.9c0-0.3,0.1-0.5,0.2-0.7c0.2-0.1,0.3-0.2,0.6-0.2c0.2,0,0.4,0.1,0.6,0.2
				c0.2,0.1,0.2,0.4,0.2,0.7c0,0.3-0.1,0.5-0.2,0.7c-0.2,0.2-0.4,0.2-0.6,0.2c-0.2,0-0.4-0.1-0.6-0.2
				C1256.4,947.5,1256.4,947.2,1256.4,946.9z M1257.9,958.5h-1.4v-9.1h1.4V958.5z"/>
			<path class="st5" d="M1263.7,957.5c0.2,0,0.5,0,0.7-0.1c0.2,0,0.4-0.1,0.5-0.1v1.1c-0.1,0.1-0.4,0.1-0.7,0.2
				c-0.3,0-0.6,0.1-0.8,0.1c-1.8,0-2.6-0.9-2.6-2.8v-5.4h-1.3v-0.7l1.3-0.6l0.6-1.9h0.8v2.1h2.6v1.1h-2.6v5.4c0,0.5,0.1,1,0.4,1.3
				C1262.9,957.4,1263.3,957.5,1263.7,957.5z"/>
			<path class="st5" d="M1270.6,958.6c-1.3,0-2.4-0.4-3.2-1.2c-0.8-0.8-1.2-2-1.2-3.4c0-1.5,0.4-2.6,1.1-3.5
				c0.7-0.9,1.7-1.3,2.9-1.3c1.1,0,2,0.4,2.7,1.1s1,1.7,1,3v0.9h-6.3c0,1.1,0.3,1.9,0.8,2.4c0.5,0.6,1.2,0.8,2.2,0.8
				c1,0,1.9-0.2,2.9-0.6v1.2c-0.5,0.2-0.9,0.4-1.4,0.5C1271.8,958.6,1271.2,958.6,1270.6,958.6z M1270.3,950.4
				c-0.7,0-1.3,0.2-1.7,0.7c-0.4,0.5-0.7,1.1-0.8,2h4.8c0-0.9-0.2-1.5-0.6-2C1271.5,950.6,1271,950.4,1270.3,950.4z"/>
			<path class="st5" d="M1284.6,958.6c-1.3,0-2.4-0.4-3.2-1.2s-1.2-2-1.2-3.4c0-1.5,0.4-2.6,1.1-3.5c0.7-0.9,1.7-1.3,2.9-1.3
				c1.1,0,2,0.4,2.7,1.1s1,1.7,1,3v0.9h-6.3c0,1.1,0.3,1.9,0.8,2.4c0.5,0.6,1.2,0.8,2.2,0.8c1,0,1.9-0.2,2.9-0.6v1.2
				c-0.5,0.2-0.9,0.4-1.4,0.5C1285.7,958.6,1285.2,958.6,1284.6,958.6z M1284.2,950.4c-0.7,0-1.3,0.2-1.7,0.7
				c-0.4,0.5-0.7,1.1-0.8,2h4.8c0-0.9-0.2-1.5-0.6-2C1285.5,950.6,1284.9,950.4,1284.2,950.4z"/>
			<path class="st5" d="M1295.9,958.5l-0.3-1.3h-0.1c-0.5,0.6-0.9,1-1.4,1.2c-0.5,0.2-1,0.3-1.7,0.3c-0.9,0-1.6-0.2-2.1-0.7
				s-0.8-1.1-0.8-2c0-1.8,1.5-2.8,4.4-2.9l1.5,0v-0.6c0-0.7-0.2-1.2-0.5-1.6c-0.3-0.3-0.8-0.5-1.5-0.5c-0.8,0-1.6,0.2-2.6,0.7
				l-0.4-1.1c0.4-0.2,0.9-0.4,1.5-0.6c0.5-0.1,1.1-0.2,1.6-0.2c1.1,0,1.9,0.2,2.4,0.7c0.5,0.5,0.8,1.3,0.8,2.3v6.2H1295.9z
				 M1292.8,957.5c0.9,0,1.5-0.2,2-0.7c0.5-0.5,0.7-1.1,0.7-2V954l-1.4,0.1c-1.1,0-1.9,0.2-2.4,0.5c-0.5,0.3-0.7,0.8-0.7,1.4
				c0,0.5,0.2,0.9,0.5,1.1S1292.2,957.5,1292.8,957.5z"/>
			<path class="st5" d="M1305.6,956c0,0.8-0.3,1.5-0.9,2c-0.6,0.5-1.5,0.7-2.7,0.7c-1.2,0-2.1-0.2-2.8-0.6v-1.3
				c0.4,0.2,0.9,0.4,1.4,0.5c0.5,0.1,1,0.2,1.4,0.2c0.7,0,1.3-0.1,1.7-0.3c0.4-0.2,0.6-0.6,0.6-1c0-0.4-0.2-0.7-0.5-0.9
				c-0.3-0.3-0.9-0.5-1.8-0.9c-0.8-0.3-1.4-0.6-1.8-0.8c-0.4-0.2-0.6-0.5-0.8-0.8c-0.2-0.3-0.3-0.7-0.3-1.1c0-0.7,0.3-1.3,0.9-1.8
				c0.6-0.4,1.4-0.6,2.5-0.6c1,0,1.9,0.2,2.9,0.6l-0.5,1.1c-0.9-0.4-1.7-0.6-2.5-0.6c-0.7,0-1.1,0.1-1.5,0.3s-0.5,0.5-0.5,0.8
				c0,0.2,0.1,0.5,0.2,0.6c0.1,0.2,0.3,0.3,0.6,0.5c0.3,0.2,0.8,0.4,1.6,0.7c1.1,0.4,1.8,0.8,2.2,1.2
				C1305.4,954.9,1305.6,955.4,1305.6,956z"/>
			<path class="st5" d="M1306.4,949.4h1.5l2,5.2c0.4,1.2,0.7,2,0.8,2.6h0.1c0.1-0.3,0.2-0.8,0.5-1.4s1-2.8,2.3-6.3h1.5l-3.9,10.4
				c-0.4,1-0.8,1.8-1.4,2.2c-0.5,0.4-1.2,0.6-1.9,0.6c-0.4,0-0.8,0-1.2-0.1v-1.1c0.3,0.1,0.6,0.1,1,0.1c0.9,0,1.6-0.5,2-1.6l0.5-1.3
				L1306.4,949.4z"/>
			<path class="st5" d="M1323.8,957.5c0.2,0,0.5,0,0.7-0.1c0.2,0,0.4-0.1,0.5-0.1v1.1c-0.1,0.1-0.4,0.1-0.7,0.2
				c-0.3,0-0.6,0.1-0.8,0.1c-1.8,0-2.6-0.9-2.6-2.8v-5.4h-1.3v-0.7l1.3-0.6l0.6-1.9h0.8v2.1h2.6v1.1h-2.6v5.4c0,0.5,0.1,1,0.4,1.3
				C1323,957.4,1323.3,957.5,1323.8,957.5z"/>
			<path class="st5" d="M1334.7,953.9c0,1.5-0.4,2.6-1.1,3.5s-1.8,1.2-3.1,1.2c-0.8,0-1.5-0.2-2.2-0.6c-0.6-0.4-1.1-0.9-1.5-1.6
				c-0.3-0.7-0.5-1.5-0.5-2.5c0-1.5,0.4-2.6,1.1-3.5c0.7-0.8,1.8-1.2,3.1-1.2c1.3,0,2.3,0.4,3,1.3
				C1334.3,951.3,1334.7,952.5,1334.7,953.9z M1327.7,953.9c0,1.2,0.2,2,0.7,2.7c0.5,0.6,1.1,0.9,2,0.9c0.9,0,1.6-0.3,2.1-0.9
				c0.5-0.6,0.7-1.5,0.7-2.7c0-1.2-0.2-2-0.7-2.6s-1.2-0.9-2.1-0.9c-0.9,0-1.6,0.3-2,0.9C1328,951.9,1327.7,952.7,1327.7,953.9z"/>
		</g>
		<g class="st4">
			<path class="st5" d="M1254.6,980.5v-5.9c0-0.7-0.2-1.3-0.5-1.7s-0.9-0.5-1.6-0.5c-1,0-1.6,0.3-2.1,0.8c-0.4,0.5-0.7,1.4-0.7,2.5
				v4.8h-1.4v-9.1h1.1l0.2,1.2h0.1c0.3-0.4,0.7-0.8,1.2-1s1.1-0.4,1.7-0.4c1.1,0,1.9,0.3,2.5,0.8c0.6,0.5,0.8,1.4,0.8,2.5v5.9
				H1254.6z"/>
			<path class="st5" d="M1264.4,980.5l-0.3-1.3h-0.1c-0.5,0.6-0.9,1-1.4,1.2c-0.5,0.2-1,0.3-1.7,0.3c-0.9,0-1.6-0.2-2.1-0.7
				c-0.5-0.5-0.8-1.1-0.8-2c0-1.8,1.5-2.8,4.4-2.9l1.5,0v-0.6c0-0.7-0.2-1.2-0.5-1.6c-0.3-0.3-0.8-0.5-1.5-0.5
				c-0.8,0-1.6,0.2-2.6,0.7l-0.4-1.1c0.4-0.2,0.9-0.4,1.5-0.6c0.5-0.1,1.1-0.2,1.6-0.2c1.1,0,1.9,0.2,2.4,0.7
				c0.5,0.5,0.8,1.3,0.8,2.3v6.2H1264.4z M1261.3,979.5c0.9,0,1.5-0.2,2-0.7c0.5-0.5,0.7-1.1,0.7-2V976l-1.4,0.1
				c-1.1,0-1.9,0.2-2.4,0.5s-0.7,0.8-0.7,1.4c0,0.5,0.2,0.9,0.5,1.1S1260.8,979.5,1261.3,979.5z"/>
			<path class="st5" d="M1270.3,980.5l-3.5-9.1h1.5l2,5.4c0.4,1.3,0.7,2.1,0.8,2.5h0.1c0.1-0.3,0.3-0.9,0.6-1.8
				c0.3-0.9,1.1-2.9,2.2-6h1.5l-3.5,9.1H1270.3z"/>
			<path class="st5" d="M1276.7,968.9c0-0.3,0.1-0.5,0.2-0.7c0.2-0.1,0.3-0.2,0.6-0.2c0.2,0,0.4,0.1,0.6,0.2s0.2,0.4,0.2,0.7
				c0,0.3-0.1,0.5-0.2,0.7s-0.4,0.2-0.6,0.2c-0.2,0-0.4-0.1-0.6-0.2C1276.8,969.5,1276.7,969.2,1276.7,968.9z M1278.2,980.5h-1.4
				v-9.1h1.4V980.5z"/>
			<path class="st5" d="M1288.6,971.4v0.9l-1.7,0.2c0.2,0.2,0.3,0.4,0.4,0.8c0.1,0.3,0.2,0.7,0.2,1.1c0,0.9-0.3,1.6-0.9,2.1
				c-0.6,0.5-1.4,0.8-2.5,0.8c-0.3,0-0.5,0-0.8-0.1c-0.6,0.3-0.9,0.7-0.9,1.2c0,0.2,0.1,0.4,0.3,0.6s0.6,0.2,1.1,0.2h1.6
				c1,0,1.7,0.2,2.3,0.6c0.5,0.4,0.8,1,0.8,1.8c0,1-0.4,1.8-1.2,2.3s-2,0.8-3.5,0.8c-1.2,0-2.1-0.2-2.8-0.7c-0.6-0.4-1-1.1-1-1.9
				c0-0.6,0.2-1,0.5-1.4c0.4-0.4,0.9-0.7,1.5-0.8c-0.2-0.1-0.4-0.3-0.6-0.5c-0.2-0.2-0.2-0.5-0.2-0.8c0-0.3,0.1-0.6,0.3-0.9
				c0.2-0.2,0.5-0.5,0.8-0.7c-0.5-0.2-0.9-0.5-1.2-1c-0.3-0.5-0.4-1-0.4-1.6c0-1,0.3-1.8,0.9-2.3c0.6-0.5,1.4-0.8,2.5-0.8
				c0.5,0,0.9,0.1,1.3,0.2H1288.6z M1281.3,982c0,0.5,0.2,0.9,0.6,1.1c0.4,0.3,1,0.4,1.8,0.4c1.2,0,2-0.2,2.6-0.5
				c0.6-0.3,0.8-0.8,0.8-1.4c0-0.5-0.2-0.8-0.5-1c-0.3-0.2-0.9-0.3-1.7-0.3h-1.7c-0.6,0-1.1,0.1-1.5,0.4
				C1281.5,981,1281.3,981.4,1281.3,982z M1282,974.3c0,0.6,0.2,1.1,0.5,1.4c0.4,0.3,0.9,0.5,1.5,0.5c1.3,0,2-0.7,2-2
				c0-1.4-0.7-2.1-2-2.1c-0.6,0-1.1,0.2-1.5,0.5C1282.2,973.1,1282,973.6,1282,974.3z"/>
			<path class="st5" d="M1296,980.5l-0.3-1.3h-0.1c-0.5,0.6-0.9,1-1.4,1.2c-0.5,0.2-1,0.3-1.7,0.3c-0.9,0-1.6-0.2-2.1-0.7
				s-0.8-1.1-0.8-2c0-1.8,1.5-2.8,4.4-2.9l1.5,0v-0.6c0-0.7-0.2-1.2-0.5-1.6c-0.3-0.3-0.8-0.5-1.5-0.5c-0.8,0-1.6,0.2-2.6,0.7
				l-0.4-1.1c0.4-0.2,0.9-0.4,1.5-0.6c0.5-0.1,1.1-0.2,1.6-0.2c1.1,0,1.9,0.2,2.4,0.7c0.5,0.5,0.8,1.3,0.8,2.3v6.2H1296z
				 M1292.9,979.5c0.9,0,1.5-0.2,2-0.7s0.7-1.1,0.7-2V976l-1.4,0.1c-1.1,0-1.9,0.2-2.4,0.5s-0.7,0.8-0.7,1.4c0,0.5,0.2,0.9,0.5,1.1
				C1291.9,979.4,1292.4,979.5,1292.9,979.5z"/>
			<path class="st5" d="M1302.8,979.5c0.2,0,0.5,0,0.7-0.1c0.2,0,0.4-0.1,0.5-0.1v1.1c-0.1,0.1-0.4,0.1-0.7,0.2
				c-0.3,0-0.6,0.1-0.8,0.1c-1.8,0-2.6-0.9-2.6-2.8v-5.4h-1.3v-0.7l1.3-0.6l0.6-1.9h0.8v2.1h2.6v1.1h-2.6v5.4c0,0.5,0.1,1,0.4,1.3
				C1302,979.4,1302.4,979.5,1302.8,979.5z"/>
			<path class="st5" d="M1309.7,980.6c-1.3,0-2.4-0.4-3.2-1.2c-0.8-0.8-1.2-2-1.2-3.4c0-1.5,0.4-2.6,1.1-3.5s1.7-1.3,2.9-1.3
				c1.1,0,2,0.4,2.7,1.1s1,1.7,1,3v0.9h-6.3c0,1.1,0.3,1.9,0.8,2.4c0.5,0.6,1.2,0.8,2.2,0.8c1,0,1.9-0.2,2.9-0.6v1.2
				c-0.5,0.2-0.9,0.4-1.4,0.5C1310.9,980.6,1310.3,980.6,1309.7,980.6z M1309.3,972.4c-0.7,0-1.3,0.2-1.7,0.7
				c-0.4,0.5-0.7,1.1-0.8,2h4.8c0-0.9-0.2-1.5-0.6-2C1310.6,972.6,1310.1,972.4,1309.3,972.4z"/>
		</g>
	</g>
	<path id="Path_4455" class="st6" d="M411,1248.4h-11.9v42H286"/>
	<g id="Group_4694" transform="translate(-166 376.184)">
		<circle id="Ellipse_164" class="st2" cx="1223" cy="942" r="4"/>
	</g>
	<path id="Path_4456" class="st7" d="M1061,1318.2l11.6,0l0.1-30l154.3,0.4"/>
</g>
</svg>
