<svg xmlns="http://www.w3.org/2000/svg" width="333.578" height="209.908" viewBox="0 0 333.578 209.908">
  <g id="Group_4805" data-name="Group 4805" transform="translate(-266.941 -3471.063)">
    <g id="Group_4195" data-name="Group 4195" transform="translate(465.519 3625.529)">
      <path id="Path_3897" data-name="Path 3897" d="M-2304.453,1263.179h46.628v-34.042h-46.628Z" transform="translate(2304.453 -1229.137)" fill="#495c75"/>
    </g>
    <path id="Path_3898" data-name="Path 3898" d="M-2284.61,1228.443v-11.166" transform="translate(2773.444 2397.043)" fill="none" stroke="#333" stroke-linejoin="round" stroke-width="0.75"/>
    <path id="Path_3899" data-name="Path 3899" d="M-2284.61,1240.343v-11.251" transform="translate(2773.444 2396.394)" fill="none" stroke="#fff" stroke-linejoin="round" stroke-width="0.75"/>
    <g id="Group_4197" data-name="Group 4197" transform="translate(380.065 3502.826)">
      <path id="Path_3900" data-name="Path 3900" d="M-2377.183,1256.045h46.628V1099.3h-46.628Z" transform="translate(2377.183 -1099.301)" fill="#cacfd6"/>
    </g>
    <path id="Path_3901" data-name="Path 3901" d="M-2357.34,1111.536v-25.981" transform="translate(2760.719 2404.281)" fill="none" stroke="#333" stroke-linejoin="round" stroke-width="0.75"/>
    <g id="Group_4199" data-name="Group 4199" transform="translate(328.133 3526.646)">
      <path id="Path_3902" data-name="Path 3902" d="M-2421.382,1257.43h46.628V1124.5h-46.628Z" transform="translate(2421.382 -1124.505)" fill="#495c75"/>
    </g>
    <g id="Group_4200" data-name="Group 4200" transform="translate(351.446 3515.437)">
      <path id="Path_3903" data-name="Path 3903" d="M-2401.54,1123.816v-11.171" transform="translate(2401.54 -1112.645)" fill="none" stroke="#333" stroke-linejoin="round" stroke-width="0.75"/>
      <path id="Path_3904" data-name="Path 3904" d="M-2401.54,1135.711v-11.245" transform="translate(2401.54 -1113.294)" fill="none" stroke="#fff" stroke-linejoin="round" stroke-width="0.75"/>
    </g>
    <path id="Path_3905" data-name="Path 3905" d="M-2349.865,1085.555h-13.323" transform="translate(2759.696 2404.281)" fill="none" stroke="#333" stroke-linejoin="round" stroke-width="0.75"/>
    <path id="Path_3906" data-name="Path 3906" d="M-2349.865,1113.521h-13.323" transform="translate(2759.696 2402.744)" fill="none" stroke="#333" stroke-linejoin="round" stroke-width="0.75"/>
    <path id="Path_3907" data-name="Path 3907" d="M-2233.089,1240.673h-13.323" transform="translate(2780.127 2395.758)" fill="none" stroke="#333" stroke-linejoin="round" stroke-width="0.75"/>
    <path id="Path_3908" data-name="Path 3908" d="M-2393.7,1136.055h-13.323" transform="translate(2752.027 2401.506)" fill="none" stroke="#fff" stroke-linejoin="round" stroke-width="0.75"/>
    <path id="Path_3909" data-name="Path 3909" d="M-2393.7,1112.279h-13.323" transform="translate(2752.027 2402.812)" fill="none" stroke="#333" stroke-linejoin="round" stroke-width="0.75"/>
    <path id="Path_3910" data-name="Path 3910" d="M-2276.957,1217.277h-13.322" transform="translate(2772.452 2397.043)" fill="none" stroke="#333" stroke-linejoin="round" stroke-width="0.75"/>
    <path id="Path_3911" data-name="Path 3911" d="M-2276.957,1241h-13.322" transform="translate(2772.452 2395.74)" fill="none" stroke="#fff" stroke-linejoin="round" stroke-width="0.75"/>
    <path id="Path_3912" data-name="Path 3912" d="M-2451.981,1265.463h306.664" transform="translate(2744.161 2394.396)" fill="none" stroke="#333" stroke-linecap="square" stroke-width="0.5"/>
    <g id="Group_4209" data-name="Group 4209" transform="translate(516.732 3649.348)">
      <path id="Path_3913" data-name="Path 3913" d="M-2260.866,1264.564h46.628v-10.223h-46.628Z" transform="translate(2260.866 -1254.341)" fill="#cacfd6"/>
    </g>
    <path id="Path_3914" data-name="Path 3914" d="M-2241.023,1264.184v-23.589" transform="translate(2781.07 2395.762)" fill="none" stroke="#333" stroke-linejoin="round" stroke-width="0.75"/>
    <rect id="Rectangle_428" data-name="Rectangle 428" width="103.984" height="55.758" transform="translate(496.035 3486.055)" fill="none" stroke="#ebebeb" stroke-miterlimit="10" stroke-width="1"/>
    <path id="Path_3915" data-name="Path 3915" d="M-2267.8,1130.688h26.645v-16.073H-2267.8Z" transform="translate(2776.385 2402.684)" fill="#cacfd6"/>
    <path id="Path_3916" data-name="Path 3916" d="M-2267.8,1105.84h26.645v-16.074H-2267.8Z" transform="translate(2776.385 2404.049)" fill="#495c75"/>
    <text id="Success" transform="translate(324.079 3665.97)" fill="#333" font-size="11" font-family="OpenSans-Semibold, Open Sans" font-weight="600"><tspan x="29.363" y="12">Success</tspan></text>
    <text id="_of_participants" data-name="% of participants" transform="translate(276.941 3584.997) rotate(-90)" fill="#333" font-size="9" font-family="OpenSans-Italic, Open Sans" font-style="italic"><tspan x="-33.653" y="0">% of participants</tspan></text>
    <text id="Desktop" transform="translate(541.446 3494.197)" fill="#333" font-size="10" font-family="OpenSans, Open Sans"><tspan x="0" y="11">Desktop</tspan></text>
    <text id="Mobile" transform="translate(541.446 3517.823)" fill="#333" font-size="10" font-family="OpenSans, Open Sans"><tspan x="0" y="11">Mobile</tspan></text>
    <text id="Fail" transform="translate(472.124 3665.97)" fill="#333" font-size="11" font-family="OpenSans-Semibold, Open Sans" font-weight="600"><tspan x="40.664" y="12">Fail</tspan></text>
    <text id="_80_" data-name="80%" transform="translate(328.604 3493.744)" fill="#333" font-size="12" font-family="OpenSans-Semibold, Open Sans" font-weight="600"><tspan x="10.891" y="13">80%</tspan></text>
    <text id="_94_" data-name="94%" transform="translate(380.302 3471.063)" fill="#333" font-size="12" font-family="OpenSans-Semibold, Open Sans" font-weight="600"><tspan x="10.891" y="13">94%</tspan></text>
    <text id="_20_" data-name="20%" transform="translate(465.922 3593.92)" fill="#333" font-size="12" font-family="OpenSans-Semibold, Open Sans" font-weight="600"><tspan x="10.891" y="13">20%</tspan></text>
    <text id="_6_" data-name="6%" transform="translate(517.772 3618.491)" fill="#333" font-size="12" font-family="OpenSans-Semibold, Open Sans" font-weight="600"><tspan x="14.316" y="13">6%</tspan></text>
  </g>
</svg>
