<svg xmlns="http://www.w3.org/2000/svg" width="947.901" height="167.422" viewBox="0 0 947.901 167.422">
  <g id="Group_4788" data-name="Group 4788" transform="translate(-284.005 -1204.331)">
    <g id="Group_4539" data-name="Group 4539" transform="translate(-165 377.184)">
      <circle id="Ellipse_121" data-name="Ellipse 121" cx="4" cy="4" r="4" transform="translate(573 868.184)" fill="#293f5c"/>
    </g>
    <path id="Person-2" d="M612.957,875.271c-.007-4.7,4.489-8.524,10.043-8.532s10.061,3.8,10.067,8.5Zm4.286-15.623a5.746,5.746,0,1,1,5.69,5.675A5.746,5.746,0,0,1,617.243,859.648Z" transform="translate(-165 377.184)" fill="#293f5c"/>
    <path id="Person-2-2" data-name="Person-2" d="M587.7,875.308c-.007-4.7,4.489-8.525,10.043-8.533s10.061,3.8,10.068,8.5Zm4.286-15.623a5.746,5.746,0,1,1,5.691,5.674A5.747,5.747,0,0,1,591.99,859.685Z" transform="translate(-165 377.184)" fill="#293f5c"/>
    <g id="Group_4540" data-name="Group 4540" transform="translate(-165 377.184)">
      <path id="Person-2-3" data-name="Person-2" d="M663.462,875.2c-.007-4.7,4.49-8.524,10.043-8.532s10.061,3.8,10.068,8.5Zm4.286-15.622a5.746,5.746,0,1,1,5.691,5.674A5.746,5.746,0,0,1,667.748,859.575Z" fill="#a9b2be"/>
      <path id="Person-2-4" data-name="Person-2" d="M638.209,875.234c-.006-4.7,4.49-8.524,10.044-8.532s10.06,3.8,10.067,8.5Zm4.287-15.622a5.746,5.746,0,1,1,5.69,5.674A5.745,5.745,0,0,1,642.5,859.612Z" fill="#a9b2be"/>
      <path id="Person-2-5" data-name="Person-2" d="M688.715,875.16c-.007-4.7,4.489-8.524,10.043-8.532s10.061,3.8,10.068,8.5ZM693,859.538a5.746,5.746,0,1,1,5.691,5.674A5.747,5.747,0,0,1,693,859.538Z" fill="#a9b2be"/>
      <path id="Person-2-6" data-name="Person-2" d="M789.726,875.013c-.006-4.7,4.49-8.524,10.044-8.532s10.06,3.8,10.067,8.5Zm4.286-15.623a5.746,5.746,0,1,1,5.691,5.675A5.746,5.746,0,0,1,794.012,859.39Z" fill="#a9b2be"/>
      <path id="Person-2-7" data-name="Person-2" d="M764.474,875.05c-.007-4.7,4.489-8.524,10.043-8.533s10.061,3.8,10.067,8.5Zm4.286-15.623a5.746,5.746,0,1,1,5.69,5.674A5.746,5.746,0,0,1,768.76,859.427Z" fill="#a9b2be"/>
      <path id="Person-2-8" data-name="Person-2" d="M739.221,875.086c-.007-4.7,4.489-8.524,10.043-8.532s10.061,3.8,10.068,8.5Zm4.286-15.622a5.746,5.746,0,1,1,5.691,5.674A5.746,5.746,0,0,1,743.507,859.464Z" fill="#a9b2be"/>
      <path id="Person-2-9" data-name="Person-2" d="M713.968,875.123c-.007-4.7,4.489-8.524,10.043-8.532s10.061,3.8,10.068,8.5Zm4.286-15.622a5.746,5.746,0,1,1,5.691,5.674A5.747,5.747,0,0,1,718.254,859.5Z" fill="#a9b2be"/>
      <path id="Person-2-10" data-name="Person-2" d="M814.979,874.976c-.007-4.7,4.489-8.524,10.043-8.532s10.061,3.8,10.068,8.5Zm4.286-15.622a5.746,5.746,0,1,1,5.691,5.674A5.746,5.746,0,0,1,819.265,859.354Z" fill="#a9b2be"/>
      <path id="Person-2-11" data-name="Person-2" d="M915.991,874.829c-.007-4.7,4.489-8.525,10.043-8.533s10.061,3.8,10.067,8.5Zm4.286-15.623a5.746,5.746,0,1,1,5.69,5.674A5.746,5.746,0,0,1,920.277,859.206Z" fill="#a9b2be"/>
      <path id="Person-2-12" data-name="Person-2" d="M890.738,874.865c-.007-4.7,4.489-8.524,10.043-8.532s10.061,3.8,10.068,8.5Zm4.286-15.622a5.746,5.746,0,1,1,5.69,5.674A5.746,5.746,0,0,1,895.024,859.243Z" fill="#a9b2be"/>
      <path id="Person-2-13" data-name="Person-2" d="M865.485,874.9c-.007-4.7,4.489-8.524,10.043-8.532s10.061,3.8,10.068,8.5Zm4.286-15.622a5.746,5.746,0,1,1,5.691,5.674A5.747,5.747,0,0,1,869.771,859.28Z" fill="#a9b2be"/>
      <path id="Person-2-14" data-name="Person-2" d="M840.232,874.939c-.007-4.7,4.489-8.524,10.043-8.532s10.061,3.8,10.068,8.5Zm4.286-15.622a5.746,5.746,0,1,1,5.691,5.674A5.746,5.746,0,0,1,844.518,859.317Z" fill="#a9b2be"/>
      <path id="Person-2-15" data-name="Person-2" d="M941.243,874.792c-.006-4.7,4.49-8.524,10.044-8.532s10.06,3.8,10.067,8.5Zm4.286-15.623a5.746,5.746,0,1,1,5.691,5.675A5.748,5.748,0,0,1,945.529,859.169Z" fill="#a9b2be"/>
      <path id="Person-2-16" data-name="Person-2" d="M1042.255,874.644c-.007-4.7,4.489-8.524,10.043-8.532s10.061,3.8,10.068,8.5Zm4.286-15.622a5.746,5.746,0,1,1,5.69,5.674A5.746,5.746,0,0,1,1046.541,859.022Z" fill="#a9b2be"/>
      <path id="Person-2-17" data-name="Person-2" d="M1017,874.681c-.007-4.7,4.489-8.524,10.043-8.532s10.061,3.8,10.068,8.5Zm4.286-15.622a5.746,5.746,0,1,1,5.691,5.674A5.746,5.746,0,0,1,1021.288,859.059Z" fill="#a9b2be"/>
      <path id="Person-2-18" data-name="Person-2" d="M991.749,874.718c-.007-4.7,4.489-8.524,10.043-8.532s10.061,3.8,10.068,8.5Zm4.286-15.622a5.746,5.746,0,1,1,5.691,5.674A5.746,5.746,0,0,1,996.035,859.1Z" fill="#a9b2be"/>
      <path id="Person-2-19" data-name="Person-2" d="M966.5,874.755c-.007-4.7,4.489-8.524,10.043-8.532s10.061,3.8,10.068,8.5Zm4.286-15.622a5.746,5.746,0,1,1,5.691,5.674A5.746,5.746,0,0,1,970.782,859.133Z" fill="#a9b2be"/>
      <path id="Person-2-20" data-name="Person-2" d="M1067.508,874.607c-.007-4.7,4.489-8.524,10.043-8.532s10.061,3.8,10.067,8.5Zm4.286-15.622a5.746,5.746,0,1,1,5.69,5.674A5.746,5.746,0,0,1,1071.794,858.985Z" fill="#a9b2be"/>
      <path id="Person-2-21" data-name="Person-2" d="M1168.519,874.46c-.007-4.7,4.489-8.524,10.043-8.532s10.061,3.8,10.068,8.5Zm4.286-15.622a5.746,5.746,0,1,1,5.691,5.674A5.745,5.745,0,0,1,1172.805,858.838Z" fill="#a9b2be"/>
      <path id="Person-2-22" data-name="Person-2" d="M1143.266,874.5c-.007-4.7,4.489-8.524,10.043-8.532s10.061,3.8,10.068,8.5Zm4.286-15.622a5.746,5.746,0,1,1,5.691,5.674A5.746,5.746,0,0,1,1147.552,858.875Z" fill="#a9b2be"/>
      <path id="Person-2-23" data-name="Person-2" d="M1118.013,874.534c-.007-4.7,4.489-8.524,10.043-8.532s10.061,3.8,10.068,8.5Zm4.286-15.623a5.746,5.746,0,1,1,5.691,5.675A5.746,5.746,0,0,1,1122.3,858.911Z" fill="#a9b2be"/>
      <path id="Person-2-24" data-name="Person-2" d="M1092.76,874.571c-.006-4.7,4.49-8.524,10.043-8.533s10.061,3.8,10.068,8.5Zm4.286-15.623a5.746,5.746,0,1,1,5.691,5.674A5.747,5.747,0,0,1,1097.046,858.948Z" fill="#a9b2be"/>
      <path id="Person-2-25" data-name="Person-2" d="M1193.772,874.423c-.007-4.7,4.489-8.524,10.043-8.532s10.061,3.8,10.068,8.5Zm4.286-15.622a5.746,5.746,0,1,1,5.69,5.674A5.746,5.746,0,0,1,1198.058,858.8Z" fill="#a9b2be"/>
      <path id="Person-2-26" data-name="Person-2" d="M663.507,910.308c-.007-4.7,4.489-8.524,10.043-8.532s10.061,3.8,10.068,8.5Zm4.286-15.622a5.746,5.746,0,1,1,5.691,5.674A5.746,5.746,0,0,1,667.793,894.686Z" fill="#a9b2be"/>
      <path id="Person-2-27" data-name="Person-2" d="M638.254,910.345c-.007-4.7,4.489-8.524,10.043-8.532s10.061,3.8,10.068,8.5Zm4.286-15.622a5.746,5.746,0,1,1,5.691,5.674A5.746,5.746,0,0,1,642.54,894.723Z" fill="#a9b2be"/>
      <path id="Person-2-28" data-name="Person-2" d="M613,910.382c-.006-4.7,4.49-8.524,10.044-8.532s10.06,3.8,10.067,8.5Zm4.286-15.623a5.746,5.746,0,1,1,5.691,5.674A5.748,5.748,0,0,1,617.287,894.759Z" fill="#a9b2be"/>
      <path id="Person-2-29" data-name="Person-2" d="M587.749,910.418c-.007-4.7,4.489-8.524,10.043-8.532s10.061,3.8,10.067,8.5Zm4.286-15.622a5.746,5.746,0,1,1,5.69,5.674A5.746,5.746,0,0,1,592.035,894.8Z" fill="#a9b2be"/>
      <path id="Person-2-30" data-name="Person-2" d="M688.76,910.271c-.007-4.7,4.489-8.524,10.043-8.532s10.061,3.8,10.068,8.5Zm4.286-15.622a5.746,5.746,0,1,1,5.691,5.674A5.746,5.746,0,0,1,693.046,894.649Z" fill="#a9b2be"/>
      <path id="Person-2-31" data-name="Person-2" d="M789.771,910.124c-.007-4.7,4.489-8.524,10.043-8.532s10.061,3.8,10.068,8.5Zm4.286-15.623a5.746,5.746,0,1,1,5.691,5.675A5.746,5.746,0,0,1,794.057,894.5Z" fill="#a9b2be"/>
      <path id="Person-2-32" data-name="Person-2" d="M764.518,910.161c-.006-4.7,4.49-8.524,10.043-8.533s10.061,3.8,10.068,8.5Zm4.286-15.623a5.746,5.746,0,1,1,5.691,5.674A5.747,5.747,0,0,1,768.8,894.538Z" fill="#a9b2be"/>
      <path id="Person-2-33" data-name="Person-2" d="M739.266,910.2c-.007-4.7,4.489-8.524,10.043-8.532s10.061,3.8,10.067,8.5Zm4.286-15.622a5.746,5.746,0,1,1,5.69,5.674A5.746,5.746,0,0,1,743.552,894.575Z" fill="#a9b2be"/>
      <path id="Person-2-34" data-name="Person-2" d="M714.013,910.234c-.007-4.7,4.489-8.524,10.043-8.532s10.061,3.8,10.068,8.5Zm4.286-15.622a5.746,5.746,0,1,1,5.69,5.674A5.746,5.746,0,0,1,718.3,894.612Z" fill="#a9b2be"/>
      <path id="Person-2-35" data-name="Person-2" d="M815.024,910.087c-.007-4.7,4.489-8.524,10.043-8.532s10.061,3.8,10.068,8.5Zm4.286-15.622A5.746,5.746,0,1,1,825,900.139,5.746,5.746,0,0,1,819.31,894.465Z" fill="#a9b2be"/>
      <path id="Person-2-36" data-name="Person-2" d="M916.035,909.939c-.007-4.7,4.49-8.524,10.043-8.532s10.061,3.8,10.068,8.5Zm4.286-15.622a5.746,5.746,0,1,1,5.691,5.674A5.747,5.747,0,0,1,920.321,894.317Z" fill="#a9b2be"/>
      <path id="Person-2-37" data-name="Person-2" d="M890.783,909.976c-.007-4.7,4.489-8.524,10.043-8.532s10.06,3.8,10.067,8.5Zm4.286-15.622a5.746,5.746,0,1,1,5.69,5.674A5.746,5.746,0,0,1,895.069,894.354Z" fill="#a9b2be"/>
      <path id="Person-2-38" data-name="Person-2" d="M865.53,910.013c-.007-4.7,4.489-8.524,10.043-8.532s10.061,3.8,10.068,8.5Zm4.286-15.622a5.746,5.746,0,1,1,5.69,5.674A5.746,5.746,0,0,1,869.816,894.391Z" fill="#a9b2be"/>
      <path id="Person-2-39" data-name="Person-2" d="M840.277,910.05c-.007-4.7,4.489-8.524,10.043-8.532s10.061,3.8,10.068,8.5Zm4.286-15.622a5.746,5.746,0,1,1,5.691,5.674A5.746,5.746,0,0,1,844.563,894.428Z" fill="#a9b2be"/>
      <path id="Person-2-40" data-name="Person-2" d="M941.288,909.9c-.007-4.7,4.489-8.524,10.043-8.533s10.061,3.8,10.068,8.5Zm4.286-15.623a5.746,5.746,0,1,1,5.691,5.674A5.748,5.748,0,0,1,945.574,894.28Z" fill="#a9b2be"/>
      <path id="Person-2-41" data-name="Person-2" d="M1042.3,909.755c-.006-4.7,4.49-8.524,10.044-8.532s10.06,3.8,10.067,8.5Zm4.287-15.622a5.746,5.746,0,1,1,5.69,5.674A5.746,5.746,0,0,1,1046.586,894.133Z" fill="#a9b2be"/>
      <path id="Person-2-42" data-name="Person-2" d="M1017.047,909.792c-.007-4.7,4.489-8.524,10.043-8.532s10.061,3.8,10.067,8.5Zm4.286-15.622a5.746,5.746,0,1,1,5.69,5.674A5.745,5.745,0,0,1,1021.333,894.17Z" fill="#a9b2be"/>
      <path id="Person-2-43" data-name="Person-2" d="M991.794,909.829c-.007-4.7,4.489-8.524,10.043-8.532s10.061,3.8,10.068,8.5Zm4.286-15.622a5.746,5.746,0,1,1,5.691,5.674A5.746,5.746,0,0,1,996.08,894.207Z" fill="#a9b2be"/>
      <path id="Person-2-44" data-name="Person-2" d="M966.541,909.866c-.007-4.7,4.489-8.524,10.043-8.532s10.061,3.8,10.068,8.5Zm4.286-15.622a5.746,5.746,0,1,1,5.691,5.674A5.746,5.746,0,0,1,970.827,894.244Z" fill="#a9b2be"/>
      <path id="Person-2-45" data-name="Person-2" d="M1067.552,909.718c-.007-4.7,4.49-8.524,10.043-8.532s10.061,3.8,10.068,8.5Zm4.286-15.622a5.746,5.746,0,1,1,5.691,5.674A5.747,5.747,0,0,1,1071.838,894.1Z" fill="#a9b2be"/>
      <path id="Person-2-46" data-name="Person-2" d="M1168.564,909.571c-.007-4.7,4.489-8.524,10.043-8.532s10.061,3.8,10.067,8.5Zm4.286-15.622a5.746,5.746,0,1,1,5.69,5.674A5.745,5.745,0,0,1,1172.85,893.949Z" fill="#a9b2be"/>
      <path id="Person-2-47" data-name="Person-2" d="M1143.311,909.608c-.007-4.7,4.489-8.524,10.043-8.532s10.061,3.8,10.068,8.5Zm4.286-15.622a5.746,5.746,0,1,1,5.691,5.674A5.745,5.745,0,0,1,1147.6,893.986Z" fill="#a9b2be"/>
      <path id="Person-2-48" data-name="Person-2" d="M1118.058,909.645c-.007-4.7,4.489-8.524,10.043-8.532s10.061,3.8,10.068,8.5Zm4.286-15.623a5.746,5.746,0,1,1,5.691,5.675A5.745,5.745,0,0,1,1122.344,894.022Z" fill="#a9b2be"/>
      <path id="Person-2-49" data-name="Person-2" d="M1092.805,909.682c-.007-4.7,4.489-8.524,10.043-8.533s10.061,3.8,10.068,8.5Zm4.286-15.623a5.746,5.746,0,1,1,5.691,5.674A5.748,5.748,0,0,1,1097.091,894.059Z" fill="#a9b2be"/>
      <path id="Person-2-50" data-name="Person-2" d="M1193.816,909.534c-.006-4.7,4.49-8.524,10.044-8.532s10.06,3.8,10.067,8.5Zm4.286-15.622a5.746,5.746,0,1,1,5.691,5.674A5.747,5.747,0,0,1,1198.1,893.912Z" fill="#a9b2be"/>
      <path id="Person-2-51" data-name="Person-2" d="M663.551,945.419c-.007-4.7,4.489-8.524,10.043-8.532s10.061,3.8,10.068,8.5Zm4.286-15.622a5.746,5.746,0,1,1,5.691,5.674A5.745,5.745,0,0,1,667.837,929.8Z" fill="#a9b2be"/>
      <path id="Person-2-52" data-name="Person-2" d="M638.3,945.456c-.007-4.7,4.489-8.524,10.043-8.532s10.061,3.8,10.068,8.5Zm4.286-15.622a5.746,5.746,0,1,1,5.691,5.674A5.746,5.746,0,0,1,642.584,929.834Z" fill="#a9b2be"/>
      <path id="Person-2-53" data-name="Person-2" d="M613.045,945.493c-.007-4.7,4.489-8.524,10.043-8.533s10.061,3.8,10.068,8.5Zm4.286-15.623a5.746,5.746,0,1,1,5.691,5.674A5.747,5.747,0,0,1,617.331,929.87Z" fill="#a9b2be"/>
      <path id="Person-2-54" data-name="Person-2" d="M587.792,945.529c-.007-4.7,4.49-8.524,10.043-8.532s10.061,3.8,10.068,8.5Zm4.286-15.622a5.746,5.746,0,1,1,5.691,5.674A5.747,5.747,0,0,1,592.078,929.907Z" fill="#a9b2be"/>
      <path id="Person-2-55" data-name="Person-2" d="M688.8,945.382c-.007-4.7,4.489-8.524,10.043-8.532s10.061,3.8,10.067,8.5Zm4.286-15.622a5.746,5.746,0,1,1,5.69,5.674A5.745,5.745,0,0,1,693.09,929.76Z" fill="#a9b2be"/>
      <path id="Person-2-56" data-name="Person-2" d="M789.815,945.235c-.007-4.7,4.489-8.524,10.043-8.532s10.061,3.8,10.068,8.5Zm4.286-15.623a5.746,5.746,0,1,1,5.691,5.675A5.745,5.745,0,0,1,794.1,929.612Z" fill="#a9b2be"/>
      <path id="Person-2-57" data-name="Person-2" d="M764.562,945.272c-.007-4.7,4.489-8.524,10.043-8.533s10.061,3.8,10.068,8.5Zm4.286-15.623a5.746,5.746,0,1,1,5.691,5.674A5.747,5.747,0,0,1,768.848,929.649Z" fill="#a9b2be"/>
      <path id="Person-2-58" data-name="Person-2" d="M739.309,945.308c-.007-4.7,4.489-8.524,10.043-8.532s10.061,3.8,10.068,8.5Zm4.286-15.622a5.746,5.746,0,1,1,5.691,5.674A5.748,5.748,0,0,1,743.595,929.686Z" fill="#a9b2be"/>
      <path id="Person-2-59" data-name="Person-2" d="M714.056,945.345c-.006-4.7,4.49-8.524,10.044-8.532s10.06,3.8,10.067,8.5Zm4.286-15.622a5.746,5.746,0,1,1,5.691,5.674A5.748,5.748,0,0,1,718.342,929.723Z" fill="#a9b2be"/>
      <path id="Person-2-60" data-name="Person-2" d="M815.068,945.2c-.007-4.7,4.489-8.524,10.043-8.532s10.061,3.8,10.068,8.5Zm4.286-15.622a5.746,5.746,0,1,1,5.691,5.674A5.745,5.745,0,0,1,819.354,929.576Z" fill="#a9b2be"/>
      <path id="Person-2-61" data-name="Person-2" d="M890.826,945.087c-.007-4.7,4.489-8.524,10.043-8.532s10.061,3.8,10.068,8.5Zm4.286-15.622a5.746,5.746,0,1,1,5.691,5.674A5.747,5.747,0,0,1,895.112,929.465Z" fill="#a9b2be"/>
      <path id="Person-2-62" data-name="Person-2" d="M865.573,945.124c-.006-4.7,4.49-8.524,10.044-8.532s10.06,3.8,10.067,8.5Zm4.286-15.622a5.746,5.746,0,1,1,5.691,5.674A5.747,5.747,0,0,1,869.859,929.5Z" fill="#a9b2be"/>
      <path id="Person-2-63" data-name="Person-2" d="M840.321,945.161c-.007-4.7,4.489-8.524,10.043-8.532s10.061,3.8,10.067,8.5Zm4.286-15.622a5.746,5.746,0,1,1,5.69,5.674A5.745,5.745,0,0,1,844.607,929.539Z" fill="#a9b2be"/>
    </g>
    <g id="Group_4541" data-name="Group 4541" transform="translate(-165 377.184)">
      <path id="Person-2-64" data-name="Person-2" d="M916.079,945.05c-.007-4.7,4.489-8.524,10.043-8.532s10.061,3.8,10.068,8.5Zm4.286-15.622a5.746,5.746,0,1,1,5.691,5.674A5.747,5.747,0,0,1,920.365,929.428Z" fill="#b74d94"/>
      <path id="Person-2-65" data-name="Person-2" d="M941.332,945.014c-.007-4.7,4.489-8.524,10.043-8.533s10.061,3.8,10.068,8.5Zm4.286-15.623a5.746,5.746,0,1,1,5.691,5.674A5.747,5.747,0,0,1,945.618,929.391Z" fill="#b74d94"/>
      <path id="Person-2-66" data-name="Person-2" d="M1042.343,944.866c-.007-4.7,4.489-8.524,10.043-8.532s10.061,3.8,10.068,8.5Zm4.286-15.622a5.746,5.746,0,1,1,5.691,5.674A5.747,5.747,0,0,1,1046.629,929.244Z" fill="#b74d94"/>
      <path id="Person-2-67" data-name="Person-2" d="M1017.09,944.9c-.006-4.7,4.49-8.524,10.044-8.532s10.06,3.8,10.067,8.5Zm4.286-15.622a5.746,5.746,0,1,1,5.691,5.674A5.746,5.746,0,0,1,1021.376,929.281Z" fill="#b74d94"/>
      <path id="Person-2-68" data-name="Person-2" d="M991.838,944.94c-.007-4.7,4.489-8.524,10.043-8.532s10.061,3.8,10.067,8.5Zm4.286-15.622a5.746,5.746,0,1,1,5.69,5.674A5.745,5.745,0,0,1,996.124,929.318Z" fill="#b74d94"/>
      <path id="Person-2-69" data-name="Person-2" d="M966.585,944.977c-.007-4.7,4.489-8.524,10.043-8.532s10.061,3.8,10.068,8.5Zm4.286-15.623a5.746,5.746,0,1,1,5.69,5.675A5.745,5.745,0,0,1,970.871,929.354Z" fill="#b74d94"/>
      <path id="Person-2-70" data-name="Person-2" d="M1067.6,944.829c-.007-4.7,4.489-8.524,10.043-8.532s10.061,3.8,10.068,8.5Zm4.286-15.622a5.746,5.746,0,1,1,5.691,5.674A5.748,5.748,0,0,1,1071.882,929.207Z" fill="#b74d94"/>
      <path id="Person-2-71" data-name="Person-2" d="M1168.607,944.682c-.006-4.7,4.49-8.524,10.043-8.532s10.061,3.8,10.068,8.5Zm4.286-15.622a5.746,5.746,0,1,1,5.691,5.674A5.746,5.746,0,0,1,1172.893,929.06Z" fill="#b74d94"/>
      <path id="Person-2-72" data-name="Person-2" d="M1143.355,944.719c-.007-4.7,4.489-8.524,10.043-8.532s10.061,3.8,10.067,8.5Zm4.286-15.622a5.746,5.746,0,1,1,5.69,5.674A5.745,5.745,0,0,1,1147.641,929.1Z" fill="#b74d94"/>
      <path id="Person-2-73" data-name="Person-2" d="M1118.1,944.756c-.007-4.7,4.489-8.524,10.043-8.532s10.061,3.8,10.068,8.5Zm4.286-15.623a5.746,5.746,0,1,1,5.69,5.675A5.745,5.745,0,0,1,1122.388,929.133Z" fill="#b74d94"/>
      <path id="Person-2-74" data-name="Person-2" d="M1092.849,944.793c-.007-4.7,4.489-8.525,10.043-8.533s10.061,3.8,10.068,8.5Zm4.286-15.623a5.746,5.746,0,1,1,5.691,5.674A5.747,5.747,0,0,1,1097.135,929.17Z" fill="#b74d94"/>
      <path id="Person-2-75" data-name="Person-2" d="M1193.86,944.645c-.007-4.7,4.489-8.524,10.043-8.532s10.061,3.8,10.068,8.5Zm4.286-15.622a5.746,5.746,0,1,1,5.691,5.674A5.747,5.747,0,0,1,1198.146,929.023Z" fill="#b74d94"/>
      <path id="Person-2-76" data-name="Person-2" d="M663.6,980.53c-.007-4.7,4.489-8.524,10.043-8.532s10.061,3.8,10.067,8.5Zm4.286-15.622a5.746,5.746,0,1,1,5.69,5.674A5.745,5.745,0,0,1,667.882,964.908Z" fill="#b74d94"/>
      <path id="Person-2-77" data-name="Person-2" d="M638.343,980.567c-.007-4.7,4.489-8.524,10.043-8.532s10.061,3.8,10.068,8.5Zm4.286-15.623a5.746,5.746,0,1,1,5.69,5.675A5.745,5.745,0,0,1,642.629,964.944Z" fill="#b74d94"/>
      <path id="Person-2-78" data-name="Person-2" d="M613.09,980.6c-.007-4.7,4.489-8.524,10.043-8.533s10.061,3.8,10.068,8.5Zm4.286-15.623a5.746,5.746,0,1,1,5.691,5.674A5.747,5.747,0,0,1,617.376,964.981Z" fill="#b74d94"/>
      <path id="Person-2-79" data-name="Person-2" d="M587.837,980.64c-.007-4.7,4.489-8.524,10.043-8.532s10.061,3.8,10.068,8.5Zm4.286-15.622a5.746,5.746,0,1,1,5.691,5.674A5.747,5.747,0,0,1,592.123,965.018Z" fill="#b74d94"/>
      <path id="Person-2-80" data-name="Person-2" d="M688.848,980.493c-.006-4.7,4.49-8.524,10.044-8.532s10.06,3.8,10.067,8.5Zm4.286-15.622a5.746,5.746,0,1,1,5.691,5.674A5.746,5.746,0,0,1,693.134,964.871Z" fill="#b74d94"/>
      <path id="Person-2-81" data-name="Person-2" d="M789.86,980.346c-.007-4.7,4.489-8.524,10.043-8.532s10.061,3.8,10.068,8.5Zm4.286-15.623a5.746,5.746,0,1,1,5.69,5.675A5.746,5.746,0,0,1,794.146,964.723Z" fill="#b74d94"/>
      <path id="Person-2-82" data-name="Person-2" d="M764.607,980.383c-.007-4.7,4.489-8.525,10.043-8.533s10.061,3.8,10.068,8.5Zm4.286-15.623a5.746,5.746,0,1,1,5.691,5.674A5.747,5.747,0,0,1,768.893,964.76Z" fill="#b74d94"/>
      <path id="Person-2-83" data-name="Person-2" d="M739.354,980.419c-.007-4.7,4.489-8.524,10.043-8.532s10.061,3.8,10.068,8.5ZM743.64,964.8a5.746,5.746,0,1,1,5.691,5.674A5.747,5.747,0,0,1,743.64,964.8Z" fill="#b74d94"/>
      <path id="Person-2-84" data-name="Person-2" d="M714.1,980.456c-.007-4.7,4.489-8.524,10.043-8.532s10.061,3.8,10.068,8.5Zm4.286-15.622a5.746,5.746,0,1,1,5.691,5.674A5.747,5.747,0,0,1,718.387,964.834Z" fill="#b74d94"/>
      <path id="Person-2-85" data-name="Person-2" d="M815.113,980.309c-.007-4.7,4.489-8.524,10.043-8.532s10.061,3.8,10.067,8.5Zm4.286-15.622a5.746,5.746,0,1,1,5.69,5.674A5.745,5.745,0,0,1,819.4,964.687Z" fill="#b74d94"/>
      <path id="Person-2-86" data-name="Person-2" d="M916.124,980.161c-.007-4.7,4.489-8.524,10.043-8.532s10.061,3.8,10.068,8.5Zm4.286-15.622a5.746,5.746,0,1,1,5.691,5.674A5.747,5.747,0,0,1,920.41,964.539Z" fill="#b74d94"/>
      <path id="Person-2-87" data-name="Person-2" d="M890.871,980.2c-.007-4.7,4.489-8.524,10.043-8.532s10.061,3.8,10.068,8.5Zm4.286-15.622a5.746,5.746,0,1,1,5.691,5.674A5.747,5.747,0,0,1,895.157,964.576Z" fill="#b74d94"/>
      <path id="Person-2-88" data-name="Person-2" d="M865.618,980.235c-.007-4.7,4.489-8.524,10.043-8.532s10.061,3.8,10.068,8.5Zm4.286-15.622a5.746,5.746,0,1,1,5.691,5.674A5.747,5.747,0,0,1,869.9,964.613Z" fill="#b74d94"/>
      <path id="Person-2-89" data-name="Person-2" d="M840.365,980.272c-.006-4.7,4.49-8.524,10.043-8.532s10.061,3.8,10.068,8.5Zm4.286-15.622a5.746,5.746,0,1,1,5.691,5.674A5.746,5.746,0,0,1,844.651,964.65Z" fill="#b74d94"/>
      <path id="Person-2-90" data-name="Person-2" d="M941.377,980.125c-.007-4.7,4.489-8.524,10.043-8.533s10.061,3.8,10.068,8.5Zm4.286-15.623a5.746,5.746,0,1,1,5.69,5.674A5.746,5.746,0,0,1,945.663,964.5Z" fill="#b74d94"/>
      <path id="Person-2-91" data-name="Person-2" d="M1042.388,979.977c-.007-4.7,4.489-8.524,10.043-8.532s10.061,3.8,10.068,8.5Zm4.286-15.622a5.746,5.746,0,1,1,5.691,5.674A5.747,5.747,0,0,1,1046.674,964.355Z" fill="#b74d94"/>
      <path id="Person-2-92" data-name="Person-2" d="M1017.135,980.014c-.007-4.7,4.489-8.524,10.043-8.532s10.061,3.8,10.068,8.5Zm4.286-15.622a5.746,5.746,0,1,1,5.691,5.674A5.746,5.746,0,0,1,1021.421,964.392Z" fill="#b74d94"/>
      <path id="Person-2-93" data-name="Person-2" d="M991.882,980.051c-.007-4.7,4.49-8.524,10.043-8.532s10.061,3.8,10.068,8.5Zm4.286-15.622a5.746,5.746,0,1,1,5.691,5.674A5.746,5.746,0,0,1,996.168,964.429Z" fill="#b74d94"/>
      <path id="Person-2-94" data-name="Person-2" d="M966.63,980.088c-.007-4.7,4.489-8.524,10.043-8.532s10.06,3.8,10.067,8.5Zm4.286-15.623a5.746,5.746,0,1,1,5.69,5.675A5.745,5.745,0,0,1,970.916,964.465Z" fill="#b74d94"/>
      <path id="Person-2-95" data-name="Person-2" d="M1067.641,979.94c-.007-4.7,4.489-8.524,10.043-8.532s10.061,3.8,10.068,8.5Zm4.286-15.622a5.746,5.746,0,1,1,5.691,5.674A5.747,5.747,0,0,1,1071.927,964.318Z" fill="#b74d94"/>
      <path id="Person-2-96" data-name="Person-2" d="M1168.652,979.793c-.007-4.7,4.489-8.524,10.043-8.532s10.061,3.8,10.068,8.5Zm4.286-15.622a5.746,5.746,0,1,1,5.691,5.674A5.746,5.746,0,0,1,1172.938,964.171Z" fill="#b74d94"/>
      <path id="Person-2-97" data-name="Person-2" d="M1143.4,979.83c-.007-4.7,4.49-8.524,10.043-8.532s10.061,3.8,10.068,8.5Zm4.286-15.622a5.746,5.746,0,1,1,5.691,5.674A5.746,5.746,0,0,1,1147.685,964.208Z" fill="#b74d94"/>
      <path id="Person-2-98" data-name="Person-2" d="M1118.146,979.867c-.006-4.7,4.49-8.524,10.044-8.532s10.06,3.8,10.067,8.5Zm4.287-15.623a5.746,5.746,0,1,1,5.69,5.675A5.746,5.746,0,0,1,1122.433,964.244Z" fill="#b74d94"/>
      <path id="Person-2-99" data-name="Person-2" d="M1092.894,979.9c-.007-4.7,4.489-8.525,10.043-8.533s10.061,3.8,10.067,8.5Zm4.286-15.623a5.746,5.746,0,1,1,5.69,5.674A5.746,5.746,0,0,1,1097.18,964.281Z" fill="#b74d94"/>
      <path id="Person-2-100" data-name="Person-2" d="M1193.905,979.756c-.007-4.7,4.489-8.524,10.043-8.532s10.061,3.8,10.068,8.5Zm4.286-15.622a5.746,5.746,0,1,1,5.691,5.674A5.746,5.746,0,0,1,1198.191,964.134Z" fill="#b74d94"/>
    </g>
    <text id="_2_" data-name="2%" transform="translate(284.005 1281.331)" fill="#293f5c" font-size="72" font-family="OpenSans-Bold, Open Sans" font-weight="700"><tspan x="0" y="0">2%</tspan></text>
    <text id="of_users_find_the_site_hard_to_navigate" data-name="of users find the site hard to navigate" transform="translate(284.906 1295.753)" fill="#333" font-size="17" font-family="OpenSans, Open Sans"><tspan x="0" y="18">of users find </tspan><tspan x="0" y="40">the site hard </tspan><tspan x="0" y="62">to navigate</tspan></text>
    <text id="_37_" data-name="37%" transform="translate(1081.906 1204.553)" fill="#293f5c" font-size="72" font-family="OpenSans-Bold, Open Sans" font-weight="700"><tspan x="1.017" y="77">37%</tspan></text>
    <g id="Group" transform="translate(-165 377.184)">
      <text id="of_users_find_the_" data-name="of users find the " transform="translate(1246.885 936.476)" fill="#333" font-size="17" font-family="OpenSans, Open Sans"><tspan x="0" y="0">of users find the </tspan></text>
      <text id="site_easy_to_" data-name="site easy to " transform="translate(1246.914 958.476)" fill="#333" font-size="17" font-family="OpenSans, Open Sans"><tspan x="0" y="0">site easy to </tspan></text>
      <text id="navigate" transform="translate(1246.944 980.476)" fill="#333" font-size="17" font-family="OpenSans, Open Sans"><tspan x="0" y="0">navigate</tspan></text>
    </g>
    <path id="Path_4285" data-name="Path 4285" stroke="#293f5c" d="M577,872.184H565.076v42H452" fill="none" transform="translate(-165 377.184)" stroke-linecap="round" stroke-linejoin="round" stroke-width="2" fill-rule="evenodd"/>
    <g id="Group_4542" data-name="Group 4542" transform="translate(-165 377.184)">
      <circle id="Ellipse_122" data-name="Ellipse 122" cx="4" cy="4" r="4" transform="translate(1218.968 937.975)" fill="#b74d94"/>
    </g>
    <path id="Path_4286" data-name="Path 4286" stroke="#b74d94" d="M1226.969,941.985l11.642.029.074-30,154.342.379" fill="none" transform="translate(-165 377.184)" stroke-linecap="round" stroke-linejoin="round" stroke-width="2" fill-rule="evenodd"/>
  </g>
</svg>
