<?xml version="1.0" encoding="utf-8"?>
<!-- Generator: Adobe Illustrator 24.2.0, SVG Export Plug-In . SVG Version: 6.00 Build 0)  -->
<svg version="1.1" id="Layer_1" xmlns="http://www.w3.org/2000/svg" xmlns:xlink="http://www.w3.org/1999/xlink" x="0px" y="0px"
	 viewBox="0 0 554.6 255.7" style="enable-background:new 0 0 554.6 255.7;" xml:space="preserve">
<style type="text/css">
	.st0{fill:#745FD7;}
	.st1{fill:#9E8FE3;}
	.st2{fill:#C7BFEF;}
	.st3{fill:#D2D6DC;}
	.st4{fill:#4A5C74;}
	.st5{enable-background:new    ;}
	.st6{fill:#FFFFFF;}
	.st7{fill:#333333;}
</style>
<g id="Group_4811" transform="translate(-288.961 -2329.619)">
	<rect id="Rectangle_711" x="289" y="2329.6" class="st0" width="277.3" height="255.7"/>
	<rect id="Rectangle_712" x="566.3" y="2329.6" class="st1" width="138.7" height="255.7"/>
	<rect id="Rectangle_713" x="704.9" y="2329.6" class="st2" width="138.7" height="63.9"/>
	<rect id="Rectangle_714" x="704.9" y="2394" class="st3" width="138.7" height="63.9"/>
	<rect id="Rectangle_715" x="704.9" y="2457.5" class="st4" width="138.7" height="127.9"/>
	<g class="st5">
		<path class="st6" d="M316.1,2367h-2.5l-10.1-15.6h-0.1c0.1,1.8,0.2,3.5,0.2,5v10.5h-2v-18.6h2.4l10.1,15.5h0.1
			c0-0.2-0.1-1-0.1-2.2c-0.1-1.2-0.1-2.1-0.1-2.7v-10.7h2V2367z"/>
		<path class="st6" d="M331.7,2362c0,1.6-0.6,2.9-1.8,3.8s-2.8,1.4-4.8,1.4c-2.2,0-3.9-0.3-5.1-0.9v-2.1c0.8,0.3,1.6,0.6,2.5,0.8
			s1.8,0.3,2.7,0.3c1.4,0,2.5-0.3,3.2-0.8c0.7-0.5,1.1-1.3,1.1-2.3c0-0.6-0.1-1.2-0.4-1.6c-0.3-0.4-0.7-0.8-1.3-1.1
			s-1.5-0.7-2.8-1.2c-1.7-0.6-3-1.3-3.7-2.2s-1.1-2-1.1-3.3c0-1.4,0.5-2.6,1.6-3.4s2.5-1.3,4.3-1.3c1.8,0,3.5,0.3,5.1,1l-0.7,1.9
			c-1.5-0.6-3-1-4.5-1c-1.1,0-2,0.2-2.7,0.7s-1,1.2-1,2c0,0.6,0.1,1.2,0.4,1.6c0.2,0.4,0.6,0.8,1.2,1.1c0.6,0.3,1.4,0.7,2.6,1.1
			c1.9,0.7,3.3,1.4,4,2.2S331.7,2360.8,331.7,2362z"/>
		<path class="st6" d="M351.7,2367h-2.1l-3.7-12.4c-0.2-0.5-0.4-1.2-0.6-2.1s-0.3-1.3-0.3-1.5c-0.2,1.1-0.5,2.3-0.9,3.7l-3.6,12.4
			h-2.1l-4.9-18.6h2.3l2.9,11.5c0.4,1.6,0.7,3.1,0.9,4.4c0.2-1.5,0.6-3.1,1-4.5l3.3-11.3h2.3l3.5,11.4c0.4,1.3,0.7,2.8,1,4.4
			c0.2-1.2,0.5-2.7,0.9-4.4l2.9-11.4h2.3L351.7,2367z"/>
	</g>
	<g class="st5">
		<path class="st6" d="M422.3,2528.8c5.3,0,9.4,1.4,12.5,4.2s4.6,6.6,4.6,11.4c0,5.6-1.7,9.9-5.2,13c-3.5,3.1-8.4,4.7-14.8,4.7
			c-5.8,0-10.4-0.9-13.7-2.8v-7.6c1.9,1.1,4.1,1.9,6.6,2.5s4.8,0.9,7,0.9c3.8,0,6.7-0.8,8.6-2.5c2-1.7,3-4.2,3-7.4
			c0-6.2-4-9.3-11.9-9.3c-1.1,0-2.5,0.1-4.1,0.3c-1.6,0.2-3.1,0.5-4.3,0.8l-3.7-2.2l2-25.5h27.1v7.5H416l-1.2,12.9
			c0.8-0.1,1.8-0.3,3-0.5C419.1,2528.9,420.6,2528.8,422.3,2528.8z"/>
		<path class="st6" d="M481.6,2531.5c0,10.3-2.1,17.9-6.2,23c-4.1,5.1-10.4,7.6-18.7,7.6c-3.2,0-5.4-0.2-6.8-0.6v-7
			c2.1,0.6,4.2,0.9,6.4,0.9c5.7,0,9.9-1.5,12.7-4.6c2.8-3,4.3-7.8,4.6-14.3H473c-1.4,2.1-3.1,3.7-5.1,4.6c-2,1-4.3,1.4-7,1.4
			c-4.6,0-8.2-1.4-10.9-4.3s-4-6.8-4-11.8c0-5.4,1.5-9.8,4.6-13c3.1-3.2,7.2-4.8,12.5-4.8c3.7,0,6.9,0.9,9.7,2.7
			c2.8,1.8,4.9,4.4,6.4,7.9S481.6,2526.7,481.6,2531.5z M463.4,2515.5c-2.9,0-5.1,0.9-6.7,2.8c-1.5,1.9-2.3,4.5-2.3,8
			c0,3,0.7,5.3,2.2,7c1.4,1.7,3.6,2.5,6.5,2.5c2.8,0,5.2-0.8,7.1-2.5c1.9-1.7,2.9-3.7,2.9-5.9c0-2.1-0.4-4.1-1.2-5.9
			c-0.8-1.8-2-3.3-3.4-4.4C467,2516,465.3,2515.5,463.4,2515.5z"/>
		<path class="st6" d="M510.7,2524.8c0,5.5-1,9.6-2.9,12.3c-2,2.7-4.9,4.1-8.7,4.1c-3.6,0-6.4-1.4-8.4-4.3c-2-2.8-3-6.9-3-12.2
			c0-10.9,3.8-16.3,11.4-16.3c3.7,0,6.6,1.4,8.6,4.2C509.7,2515.5,510.7,2519.5,510.7,2524.8z M494.7,2524.8c0,3.5,0.3,6.2,1,7.9
			c0.7,1.7,1.8,2.6,3.4,2.6c3.1,0,4.7-3.5,4.7-10.5c0-7-1.6-10.5-4.7-10.5c-1.6,0-2.7,0.9-3.4,2.6
			C495,2518.6,494.7,2521.3,494.7,2524.8z M534.1,2509.2l-28.9,52.1h-6.9l28.9-52.1H534.1z M544.7,2545.6c0,5.5-1,9.6-3,12.3
			c-2,2.7-4.8,4.1-8.6,4.1c-3.6,0-6.4-1.4-8.4-4.2c-2-2.8-3-6.9-3-12.2c0-10.9,3.8-16.3,11.4-16.3c3.7,0,6.5,1.4,8.5,4.2
			C543.7,2536.4,544.7,2540.4,544.7,2545.6z M528.6,2545.6c0,3.5,0.4,6.2,1.1,7.9c0.7,1.8,1.8,2.6,3.4,2.6c3.1,0,4.7-3.5,4.7-10.6
			c0-7-1.6-10.4-4.7-10.4c-1.6,0-2.7,0.9-3.4,2.6C529,2539.5,528.6,2542.1,528.6,2545.6z"/>
	</g>
	<g class="st5">
		<path class="st7" d="M622.6,2563.6h-23.2v-4.2l8.8-8.9c2.6-2.7,4.3-4.6,5.2-5.7s1.5-2.2,1.9-3.2s0.6-2,0.6-3.2
			c0-1.5-0.5-2.8-1.4-3.7s-2.2-1.3-3.9-1.3c-1.3,0-2.6,0.2-3.8,0.7s-2.6,1.4-4.3,2.6l-3-3.6c1.9-1.6,3.8-2.8,5.6-3.4s3.7-1,5.7-1
			c3.2,0,5.7,0.8,7.7,2.5s2.9,3.9,2.9,6.7c0,1.5-0.3,3-0.8,4.4s-1.4,2.8-2.6,4.3s-3.1,3.5-5.7,6l-6,5.8v0.2h16.3V2563.6z"/>
		<path class="st7" d="M643,2563.6h-5.5v-22.1c0-2.6,0.1-4.7,0.2-6.3c-0.4,0.4-0.8,0.8-1.3,1.2s-2.3,1.9-5.3,4.3l-2.8-3.5l10.1-7.9
			h4.6V2563.6z"/>
		<path class="st7" d="M669.2,2539.6c0,3.6-0.6,6.3-1.9,8.1s-3.2,2.7-5.7,2.7c-2.4,0-4.2-0.9-5.5-2.8s-2-4.5-2-8
			c0-7.1,2.5-10.7,7.5-10.7c2.5,0,4.3,0.9,5.7,2.8S669.2,2536.1,669.2,2539.6z M658.6,2539.6c0,2.3,0.2,4.1,0.7,5.2s1.2,1.7,2.2,1.7
			c2.1,0,3.1-2.3,3.1-6.9s-1-6.9-3.1-6.9c-1,0-1.8,0.6-2.2,1.7S658.6,2537.3,658.6,2539.6z M684.5,2529.4l-19,34.3H661l19-34.3
			H684.5z M691.5,2553.3c0,3.6-0.6,6.3-1.9,8.1s-3.2,2.7-5.7,2.7c-2.4,0-4.2-0.9-5.5-2.8s-2-4.5-2-8c0-7.1,2.5-10.7,7.5-10.7
			c2.4,0,4.3,0.9,5.6,2.8S691.5,2549.9,691.5,2553.3z M680.9,2553.3c0,2.3,0.2,4.1,0.7,5.2s1.2,1.7,2.2,1.7c2,0,3.1-2.3,3.1-7
			c0-4.6-1-6.9-3.1-6.9c-1,0-1.8,0.6-2.2,1.7S680.9,2551,680.9,2553.3z"/>
	</g>
	<g class="st5">
		<path class="st6" d="M783.2,2563.6H780v-12.9c0-1.5,0-2.8,0.1-3.7c-0.2,0.2-0.5,0.5-0.8,0.7c-0.3,0.3-1.3,1.1-3.1,2.5l-1.6-2
			l5.9-4.6h2.7V2563.6z"/>
		<path class="st6" d="M803.3,2553.6c0,3.5-0.6,6.1-1.7,7.7c-1.1,1.7-2.8,2.5-5.1,2.5c-2.2,0-3.9-0.9-5.1-2.6s-1.7-4.3-1.7-7.7
			c0-3.5,0.6-6.1,1.7-7.8c1.1-1.7,2.8-2.5,5.1-2.5c2.2,0,3.9,0.9,5.1,2.6S803.3,2550.3,803.3,2553.6z M793,2553.6
			c0,2.7,0.3,4.7,0.8,5.8s1.5,1.8,2.7,1.8s2.1-0.6,2.7-1.8c0.6-1.2,0.9-3.1,0.9-5.8c0-2.7-0.3-4.6-0.9-5.8c-0.6-1.2-1.5-1.8-2.7-1.8
			s-2.1,0.6-2.7,1.8S793,2550.9,793,2553.6z"/>
		<path class="st6" d="M814.5,2549.6c0,2.1-0.4,3.7-1.1,4.7s-1.9,1.6-3.3,1.6c-1.4,0-2.5-0.5-3.2-1.6c-0.8-1.1-1.1-2.6-1.1-4.7
			c0-4.2,1.5-6.2,4.4-6.2c1.4,0,2.5,0.5,3.3,1.6C814.1,2546.1,814.5,2547.6,814.5,2549.6z M808.3,2549.6c0,1.4,0.1,2.4,0.4,3
			c0.3,0.7,0.7,1,1.3,1c1.2,0,1.8-1.3,1.8-4s-0.6-4-1.8-4c-0.6,0-1,0.3-1.3,1C808.5,2547.3,808.3,2548.3,808.3,2549.6z
			 M823.5,2543.6l-11.1,20h-2.7l11.1-20H823.5z M827.5,2557.6c0,2.1-0.4,3.7-1.1,4.7c-0.8,1-1.9,1.6-3.3,1.6c-1.4,0-2.5-0.5-3.2-1.6
			s-1.1-2.6-1.1-4.7c0-4.2,1.5-6.2,4.4-6.2c1.4,0,2.5,0.5,3.3,1.6S827.5,2555.6,827.5,2557.6z M821.4,2557.6c0,1.4,0.1,2.4,0.4,3
			c0.3,0.7,0.7,1,1.3,1c1.2,0,1.8-1.4,1.8-4.1c0-2.7-0.6-4-1.8-4c-0.6,0-1,0.3-1.3,1C821.5,2555.2,821.4,2556.3,821.4,2557.6z"/>
	</g>
	<g class="st5">
		<path class="st7" d="M796.6,2423.8c2,0,3.6,0.5,4.8,1.6s1.8,2.5,1.8,4.4c0,2.1-0.7,3.8-2,5s-3.2,1.8-5.7,1.8c-2.2,0-4-0.4-5.3-1.1
			v-2.9c0.7,0.4,1.6,0.7,2.5,1s1.8,0.3,2.7,0.3c1.4,0,2.6-0.3,3.3-1s1.1-1.6,1.1-2.8c0-2.4-1.5-3.6-4.6-3.6c-0.4,0-1,0-1.6,0.1
			s-1.2,0.2-1.7,0.3l-1.4-0.8l0.8-9.8h10.4v2.9h-7.6l-0.5,4.9c0.3-0.1,0.7-0.1,1.2-0.2S795.9,2423.8,796.6,2423.8z"/>
		<path class="st7" d="M814.5,2422.2c0,2.1-0.4,3.7-1.1,4.7s-1.9,1.6-3.3,1.6c-1.4,0-2.5-0.5-3.2-1.6s-1.1-2.6-1.1-4.7
			c0-4.2,1.5-6.2,4.4-6.2c1.4,0,2.5,0.5,3.3,1.6S814.5,2420.2,814.5,2422.2z M808.3,2422.3c0,1.4,0.1,2.4,0.4,3s0.7,1,1.3,1
			c1.2,0,1.8-1.3,1.8-4s-0.6-4-1.8-4c-0.6,0-1,0.3-1.3,1S808.3,2420.9,808.3,2422.3z M823.5,2416.3l-11.1,20h-2.7l11.1-20H823.5z
			 M827.5,2430.3c0,2.1-0.4,3.7-1.1,4.7s-1.9,1.6-3.3,1.6c-1.4,0-2.5-0.5-3.2-1.6s-1.1-2.6-1.1-4.7c0-4.2,1.5-6.2,4.4-6.2
			c1.4,0,2.5,0.5,3.3,1.6S827.5,2428.2,827.5,2430.3z M821.4,2430.3c0,1.4,0.1,2.4,0.4,3s0.7,1,1.3,1c1.2,0,1.8-1.4,1.8-4.1
			c0-2.7-0.6-4-1.8-4c-0.6,0-1,0.3-1.3,1S821.4,2428.9,821.4,2430.3z"/>
	</g>
	<g class="st5">
		<path class="st7" d="M796.6,2360.2c2,0,3.6,0.5,4.8,1.6s1.8,2.5,1.8,4.4c0,2.1-0.7,3.8-2,5s-3.2,1.8-5.7,1.8c-2.2,0-4-0.4-5.3-1.1
			v-2.9c0.7,0.4,1.6,0.7,2.5,1s1.8,0.3,2.7,0.3c1.4,0,2.6-0.3,3.3-1s1.1-1.6,1.1-2.8c0-2.4-1.5-3.6-4.6-3.6c-0.4,0-1,0-1.6,0.1
			s-1.2,0.2-1.7,0.3l-1.4-0.8l0.8-9.8h10.4v2.9h-7.6l-0.5,4.9c0.3-0.1,0.7-0.1,1.2-0.2S795.9,2360.2,796.6,2360.2z"/>
		<path class="st7" d="M814.5,2358.7c0,2.1-0.4,3.7-1.1,4.7s-1.9,1.6-3.3,1.6c-1.4,0-2.5-0.5-3.2-1.6s-1.1-2.6-1.1-4.7
			c0-4.2,1.5-6.2,4.4-6.2c1.4,0,2.5,0.5,3.3,1.6S814.5,2356.7,814.5,2358.7z M808.3,2358.7c0,1.4,0.1,2.4,0.4,3s0.7,1,1.3,1
			c1.2,0,1.8-1.3,1.8-4s-0.6-4-1.8-4c-0.6,0-1,0.3-1.3,1S808.3,2357.4,808.3,2358.7z M823.5,2352.7l-11.1,20h-2.7l11.1-20H823.5z
			 M827.5,2366.7c0,2.1-0.4,3.7-1.1,4.7s-1.9,1.6-3.3,1.6c-1.4,0-2.5-0.5-3.2-1.6s-1.1-2.6-1.1-4.7c0-4.2,1.5-6.2,4.4-6.2
			c1.4,0,2.5,0.5,3.3,1.6S827.5,2364.7,827.5,2366.7z M821.4,2366.7c0,1.4,0.1,2.4,0.4,3s0.7,1,1.3,1c1.2,0,1.8-1.4,1.8-4.1
			c0-2.7-0.6-4-1.8-4c-0.6,0-1,0.3-1.3,1S821.4,2365.3,821.4,2366.7z"/>
	</g>
	<g class="st5">
		<path class="st7" d="M591.4,2348.4h2.3l-6.7,18.6h-2.1l-6.7-18.6h2.3l4.3,12c0.5,1.4,0.9,2.7,1.2,4c0.3-1.4,0.7-2.7,1.2-4.1
			L591.4,2348.4z"/>
		<path class="st7" d="M596.3,2367v-18.6h2.2v18.6H596.3z"/>
		<path class="st7" d="M611.5,2350.1c-2,0-3.7,0.7-4.8,2c-1.2,1.4-1.8,3.2-1.8,5.6c0,2.4,0.6,4.3,1.7,5.6c1.1,1.3,2.8,2,4.9,2
			c1.3,0,2.8-0.2,4.4-0.7v1.9c-1.3,0.5-2.9,0.7-4.8,0.7c-2.7,0-4.8-0.8-6.3-2.5s-2.2-4-2.2-7.1c0-1.9,0.4-3.6,1.1-5
			c0.7-1.4,1.7-2.5,3.1-3.3c1.4-0.8,2.9-1.2,4.8-1.2c1.9,0,3.6,0.4,5.1,1.1l-0.9,1.9C614.3,2350.4,612.9,2350.1,611.5,2350.1z"/>
	</g>
	<g class="st5">
		<path class="st7" d="M729.5,2371l-2.3-5.9h-7.4l-2.3,5.9h-2.2l7.3-18.6h1.8l7.3,18.6H729.5z M726.5,2363.1l-2.2-5.8
			c-0.3-0.7-0.6-1.6-0.9-2.7c-0.2,0.8-0.5,1.7-0.8,2.7l-2.2,5.8H726.5z"/>
		<path class="st7" d="M742.2,2354.1c-2,0-3.6,0.7-4.8,2c-1.2,1.4-1.8,3.2-1.8,5.6c0,2.4,0.6,4.3,1.7,5.6c1.1,1.3,2.8,2,4.9,2
			c1.3,0,2.8-0.2,4.4-0.7v1.9c-1.3,0.5-2.9,0.7-4.8,0.7c-2.7,0-4.8-0.8-6.3-2.5s-2.2-4-2.2-7.1c0-1.9,0.4-3.6,1.1-5
			c0.7-1.4,1.7-2.5,3.1-3.3c1.3-0.8,2.9-1.2,4.8-1.2c1.9,0,3.6,0.4,5.1,1.1l-0.9,1.9C745,2354.4,743.6,2354.1,742.2,2354.1z"/>
		<path class="st7" d="M756.4,2371h-2.2v-16.6h-5.9v-1.9h13.9v1.9h-5.9V2371z"/>
	</g>
	<g class="st5">
		<path class="st7" d="M733.9,2425.2c0,2.4-0.5,4.4-1.4,5.9c-1,1.6-2.3,2.6-4,3.2l4.4,4.6h-3.1l-3.6-4.2l-0.7,0
			c-2.7,0-4.8-0.8-6.3-2.5c-1.5-1.7-2.2-4-2.2-7.1c0-3,0.7-5.4,2.2-7c1.5-1.7,3.6-2.5,6.3-2.5c2.7,0,4.7,0.8,6.2,2.5
			S733.9,2422.3,733.9,2425.2z M719.1,2425.2c0,2.5,0.5,4.4,1.6,5.7c1.1,1.3,2.6,1.9,4.7,1.9c2.1,0,3.6-0.6,4.7-1.9
			c1-1.3,1.6-3.2,1.6-5.7c0-2.5-0.5-4.4-1.6-5.7c-1-1.3-2.6-1.9-4.6-1.9c-2.1,0-3.6,0.6-4.7,1.9
			C719.7,2420.9,719.1,2422.8,719.1,2425.2z"/>
		<path class="st7" d="M738.1,2434.5V2416h2.2v16.6h8.2v2H738.1z"/>
		<path class="st7" d="M766.4,2425.1c0,3.1-0.8,5.4-2.5,7c-1.7,1.6-4.1,2.4-7.2,2.4h-5.1V2416h5.7c2.9,0,5.1,0.8,6.7,2.4
			S766.4,2422.2,766.4,2425.1z M764.1,2425.2c0-2.4-0.6-4.2-1.8-5.5c-1.2-1.2-3-1.8-5.4-1.8h-3.1v14.8h2.6c2.6,0,4.5-0.6,5.8-1.9
			C763.4,2429.5,764.1,2427.6,764.1,2425.2z"/>
	</g>
	<g class="st5">
		<path class="st6" d="M734,2495.8h-2.1l-3.7-12.4c-0.2-0.5-0.4-1.2-0.6-2.1c-0.2-0.8-0.3-1.3-0.3-1.5c-0.2,1.1-0.5,2.3-0.9,3.7
			l-3.6,12.4h-2.1l-4.9-18.6h2.3l2.9,11.5c0.4,1.6,0.7,3.1,0.9,4.4c0.2-1.5,0.6-3.1,1-4.5l3.3-11.3h2.3l3.5,11.4
			c0.4,1.3,0.7,2.8,1,4.4c0.2-1.2,0.5-2.7,0.9-4.4l2.9-11.4h2.3L734,2495.8z"/>
		<path class="st6" d="M753.6,2495.8l-2.3-5.9h-7.4l-2.3,5.9h-2.2l7.3-18.6h1.8l7.3,18.6H753.6z M750.6,2487.9l-2.2-5.8
			c-0.3-0.7-0.6-1.6-0.9-2.7c-0.2,0.8-0.5,1.7-0.8,2.7l-2.2,5.8H750.6z"/>
	</g>
</g>
</svg>
