<svg xmlns="http://www.w3.org/2000/svg" width="399.364" height="310.99" viewBox="0 0 399.364 310.99">
  <g id="Group_4808" data-name="Group 4808" transform="translate(-295.592 -833.805)">
    <g id="Group_4558" data-name="Group 4558" transform="translate(-166 375.184)">
      <path id="Path_4303" data-name="Path 4303" d="M492.592,603.184v25h50" fill="none" stroke="#745fd7" stroke-linecap="round" stroke-linejoin="round" stroke-width="1" fill-rule="evenodd"/>
      <circle id="Ellipse_132" data-name="Ellipse 132" cx="4" cy="4" r="4" transform="translate(540.592 624.184)" fill="#c7bfef"/>
    </g>
    <path id="Path_4304" data-name="Path 4304" stroke="#745fd7" d="M742.478,510.914h-25v50" fill="none" transform="translate(-166 375.184)" stroke-linecap="round" stroke-linejoin="round" stroke-width="1" fill-rule="evenodd"/>
    <circle id="Ellipse_133" data-name="Ellipse 133" cx="4" cy="4" r="4" transform="translate(547.478 934.097)" fill="#c7bfef"/>
    <path id="Path_4305" data-name="Path 4305" stroke="#745fd7" d="M570.478,510.914h25v50" fill="none" transform="translate(-166 375.184)" stroke-linecap="round" stroke-linejoin="round" stroke-width="1" fill-rule="evenodd"/>
    <circle id="Ellipse_134" data-name="Ellipse 134" cx="4" cy="4" r="4" transform="translate(425.478 934.097)" fill="#c7bfef"/>
    <line id="Line_400" data-name="Line 400" y2="59.73" transform="translate(495.965 876.367)" fill="none" stroke="#745fd7" stroke-linecap="round" stroke-linejoin="round" stroke-width="1"/>
    <circle id="Ellipse_135" data-name="Ellipse 135" cx="4" cy="4" r="4" transform="translate(491.965 934.097)" fill="#c7bfef"/>
    <g id="Group_4559" data-name="Group 4559" transform="translate(-166 375.184)">
      <line id="Line_401" data-name="Line 401" x2="50" transform="translate(492.592 678.266)" fill="none" stroke="#745fd7" stroke-linecap="round" stroke-linejoin="round" stroke-width="1"/>
      <circle id="Ellipse_136" data-name="Ellipse 136" cx="4" cy="4" r="4" transform="translate(540.592 674.266)" fill="#c7bfef"/>
    </g>
    <g id="Group_4560" data-name="Group 4560" transform="translate(-166 375.184)">
      <path id="Path_4306" data-name="Path 4306" d="M830.592,603.184v25h-50" fill="none" stroke="#745fd7" stroke-linecap="round" stroke-linejoin="round" stroke-width="1" fill-rule="evenodd"/>
      <circle id="Ellipse_137" data-name="Ellipse 137" cx="4" cy="4" r="4" transform="translate(774.592 624.184)" fill="#c7bfef"/>
    </g>
    <g id="Group_4561" data-name="Group 4561" transform="translate(-166 375.184)">
      <line id="Line_402" data-name="Line 402" x1="50" transform="translate(780.592 678.266)" fill="none" stroke="#745fd7" stroke-linecap="round" stroke-linejoin="round" stroke-width="1"/>
      <circle id="Ellipse_138" data-name="Ellipse 138" cx="4" cy="4" r="4" transform="translate(774.592 674.266)" fill="#c7bfef"/>
    </g>
    <path id="Path_4307" data-name="Path 4307" d="M605.218,756.609H603.5l-8.547,9.47a2.111,2.111,0,0,0,1.528,3.532H734.793a2.111,2.111,0,0,0,1.528-3.532l-7.685-8.814H726.97" transform="translate(-166 375.184)" fill="#dcd7f5"/>
    <g id="Group_4562" data-name="Group 4562" transform="translate(-166 375.184)">
      <path id="Path_4308" data-name="Path 4308" d="M645.274,686.316v20.435H657.3a8.409,8.409,0,0,1,16.817,0h12.026V686.316Z" fill="#dcd7f5"/>
    </g>
    <path id="Path_4309" data-name="Path 4309" d="M618.491,734.867v-7.681H713v7.681" transform="translate(-166 375.184)" fill="none" stroke="#745fd7" stroke-linecap="round" stroke-linejoin="round" stroke-width="3"/>
    <line id="Line_403" data-name="Line 403" y1="25.721" transform="translate(479.273 1069.074)" fill="none" stroke="#745fd7" stroke-linecap="round" stroke-linejoin="round" stroke-width="3"/>
    <line id="Line_404" data-name="Line 404" y2="25.721" transform="translate(520.144 1069.074)" fill="none" stroke="#745fd7" stroke-linecap="round" stroke-linejoin="round" stroke-width="3"/>
    <circle id="Ellipse_139" data-name="Ellipse 139" cx="8.274" cy="8.274" r="8.274" transform="translate(491.434 1073.66)" stroke-width="3" stroke="#745fd7" stroke-linecap="round" stroke-linejoin="round" fill="none"/>
    <g id="Group_4563" data-name="Group 4563" transform="translate(-166 375.184)">
      <path id="Path_4310" data-name="Path 4310" d="M752.238,759.655c-5.949,0-10.978-3.428-12.634-6.682a3.715,3.715,0,0,0-.578,1.947c0,3.666,5.915,8.826,13.212,8.826s13.212-5.16,13.212-8.826a3.717,3.717,0,0,0-.579-1.947C763.215,756.227,758.186,759.655,752.238,759.655Z" fill="#dcd7f5"/>
    </g>
    <path id="Path_4311" data-name="Path 4311" d="M764.5,750.606c0,3.4-5.491,8.193-12.264,8.193s-12.265-4.789-12.265-8.193,5.491-6.163,12.265-6.163S764.5,747.2,764.5,750.606Z" transform="translate(-166 375.184)" fill="none" stroke="#745fd7" stroke-linecap="round" stroke-linejoin="round" stroke-width="3"/>
    <g id="Group_4564" data-name="Group 4564" transform="translate(-166 375.184)">
      <path id="Path_4312" data-name="Path 4312" d="M731.414,755.629l-18.393-20.762H618.4L600,755.629Z" fill="none" stroke="#745fd7" stroke-linecap="round" stroke-linejoin="round" stroke-width="3"/>
    </g>
    <g id="Group_4567" data-name="Group 4567" transform="translate(-166 375.184)">
      <line id="Line_405" data-name="Line 405" x2="18.458" transform="translate(656.206 748.697)" fill="none" stroke="#745fd7" stroke-linecap="round" stroke-linejoin="round" stroke-width="3"/>
      <g id="Group_4566" data-name="Group 4566">
        <g id="Group_4565" data-name="Group 4565">
          <line id="Line_406" data-name="Line 406" x2="5.104" transform="translate(622.163 741.821)" fill="none" stroke="#745fd7" stroke-linecap="round" stroke-linejoin="round" stroke-width="3"/>
          <line id="Line_407" data-name="Line 407" x2="5.104" transform="translate(633.876 741.821)" fill="none" stroke="#745fd7" stroke-linecap="round" stroke-linejoin="round" stroke-width="3"/>
          <line id="Line_408" data-name="Line 408" x2="5.104" transform="translate(645.588 741.821)" fill="none" stroke="#745fd7" stroke-linecap="round" stroke-linejoin="round" stroke-width="3"/>
          <line id="Line_409" data-name="Line 409" x2="5.104" transform="translate(657.3 741.821)" fill="none" stroke="#745fd7" stroke-linecap="round" stroke-linejoin="round" stroke-width="3"/>
          <line id="Line_410" data-name="Line 410" x2="5.104" transform="translate(669.013 741.821)" fill="none" stroke="#745fd7" stroke-linecap="round" stroke-linejoin="round" stroke-width="3"/>
          <line id="Line_411" data-name="Line 411" x2="5.104" transform="translate(680.725 741.821)" fill="none" stroke="#745fd7" stroke-linecap="round" stroke-linejoin="round" stroke-width="3"/>
          <line id="Line_412" data-name="Line 412" x2="5.104" transform="translate(692.437 741.821)" fill="none" stroke="#745fd7" stroke-linecap="round" stroke-linejoin="round" stroke-width="3"/>
          <line id="Line_413" data-name="Line 413" x2="5.104" transform="translate(704.149 741.821)" fill="none" stroke="#745fd7" stroke-linecap="round" stroke-linejoin="round" stroke-width="3"/>
        </g>
        <line id="Line_414" data-name="Line 414" x2="5.769" transform="translate(616.497 748.697)" fill="none" stroke="#745fd7" stroke-linecap="round" stroke-linejoin="round" stroke-width="3"/>
        <line id="Line_415" data-name="Line 415" x2="5.769" transform="translate(629.733 748.697)" fill="none" stroke="#745fd7" stroke-linecap="round" stroke-linejoin="round" stroke-width="3"/>
        <line id="Line_416" data-name="Line 416" x2="5.769" transform="translate(642.969 748.697)" fill="none" stroke="#745fd7" stroke-linecap="round" stroke-linejoin="round" stroke-width="3"/>
        <line id="Line_417" data-name="Line 417" x2="5.769" transform="translate(682.679 748.697)" fill="none" stroke="#745fd7" stroke-linecap="round" stroke-linejoin="round" stroke-width="3"/>
        <line id="Line_418" data-name="Line 418" x2="5.769" transform="translate(695.915 748.697)" fill="none" stroke="#745fd7" stroke-linecap="round" stroke-linejoin="round" stroke-width="3"/>
        <line id="Line_419" data-name="Line 419" x2="5.769" transform="translate(709.152 748.697)" fill="none" stroke="#745fd7" stroke-linecap="round" stroke-linejoin="round" stroke-width="3"/>
      </g>
    </g>
    <path id="Path_4313" data-name="Path 4313" d="M733.455,764.561l-.952-2.189H599.067l-.941,2.189Z" transform="translate(-166 375.184)" fill="none"/>
    <line id="Line_420" data-name="Line 420" x2="131.411" transform="translate(434.003 1138.141)" fill="none" stroke="#745fd7" stroke-linecap="round" stroke-linejoin="round" stroke-width="3"/>
    <path id="Path_4314" data-name="Path 4314" d="M599.245,574.35l21.728,111.966H571.557s-7.05-.386-7.05-7.05V581.4s-.091-7.051,7.05-7.051Z" transform="translate(-166 375.184)" fill="#dcd7f5"/>
    <rect id="Rectangle_678" data-name="Rectangle 678" width="201.992" height="12.195" transform="translate(398.713 949.797)" fill="#dcd7f5"/>
    <rect id="Rectangle_679" data-name="Rectangle 679" width="201.992" height="12.195" transform="translate(398.713 1049.09)" fill="#dcd7f5"/>
    <rect id="Rectangle_680" data-name="Rectangle 680" width="201.992" height="112.132" rx="3.184" transform="translate(398.713 949.367)" stroke-width="3" stroke="#745fd7" stroke-linecap="round" stroke-linejoin="round" fill="none"/>
    <line id="Line_421" data-name="Line 421" x2="186.842" transform="translate(406.287 1048.875)" fill="none" stroke="#745fd7" stroke-linecap="round" stroke-linejoin="round" stroke-width="3"/>
    <line id="Line_422" data-name="Line 422" x2="186.842" transform="translate(406.287 961.992)" fill="none" stroke="#745fd7" stroke-linecap="round" stroke-linejoin="round" stroke-width="3"/>
    <circle id="Ellipse_140" data-name="Ellipse 140" cx="4.134" cy="4.134" r="4.134" transform="translate(495.418 1007.862)" fill="#dcd7f5"/>
    <line id="Line_423" data-name="Line 423" y2="8.942" transform="translate(499.552 1011.996)" fill="none" stroke="#745fd7" stroke-linecap="round" stroke-linejoin="round" stroke-width="3"/>
    <path id="Path_4315" data-name="Path 4315" d="M653.315,649.709V632.336a3.55,3.55,0,0,0-1.04-2.51l-3.126-3.126a5.073,5.073,0,0,0-1.491,3.6v22.139a5.09,5.09,0,0,0,5.09,5.09h25.86a5.073,5.073,0,0,0,3.6-1.491l-3.127-3.127a3.549,3.549,0,0,0-2.509-1.039H655.477A2.162,2.162,0,0,1,653.315,649.709Z" transform="translate(-166 375.184)" fill="#dcd7f5"/>
    <g id="Group_4568" data-name="Group 4568" transform="translate(-166 375.184)">
      <path id="Path_4316" data-name="Path 4316" d="M654.468,618.02v-6.892a11.24,11.24,0,0,1,22.481,0v6.892" fill="none" stroke="#4569a0" stroke-linecap="round" stroke-linejoin="round" stroke-width="3"/>
      <rect id="Rectangle_681" data-name="Rectangle 681" width="36.244" height="31.933" rx="3.585" transform="translate(647.587 625.595)" stroke-width="3" stroke="#745fd7" stroke-linecap="round" stroke-linejoin="round" fill="none"/>
    </g>
    <g id="Group_4569" data-name="Group 4569" transform="translate(-166 375.184)">
      <path id="Path_4317" data-name="Path 4317" d="M551.422,488.61a24.988,24.988,0,1,1-9.138,34.129A24.991,24.991,0,0,1,551.422,488.61Z" fill="#745fd7" fill-rule="evenodd"/>
      <path id="Path_4318" data-name="Path 4318" d="M568.4,513.2a4,4,0,0,0-3.153,1.551l-6.874-3.512a4,4,0,0,0,.153-1.047,3.811,3.811,0,0,0-.18-1.136l6.832-3.492a4.031,4.031,0,1,0-.818-2.425,4.294,4.294,0,0,0,.153,1.046l-6.859,3.513a4.045,4.045,0,1,0,.055,4.906l6.838,3.5a3.949,3.949,0,0,0-.187,1.144,4.043,4.043,0,1,0,4.04-4.046Z" fill="#fff" fill-rule="evenodd"/>
    </g>
    <g id="Group_4607" data-name="Group 4607" transform="translate(-166 375.184)">
      <path id="Path_4360" data-name="Path 4360" d="M808.485,593.722a24.984,24.984,0,1,1,34.127,9.147A24.984,24.984,0,0,1,808.485,593.722Z" fill="#745fd7" fill-rule="evenodd"/>
      <path id="Print" d="M837.527,590.684H822.678v-4.342h-2.556V576.89h2.556v3.32h15.071v-3.321h2.373l-.054,9.452h-2.522l-.018,4.342h0ZM824.72,588.9h10.729v-2.3H824.72Zm0-10.729V571.78h10.985v6.387Z" fill="#fff"/>
    </g>
    <g id="Group_4608" data-name="Group 4608" transform="translate(-166 375.184)">
      <path id="Path_4361" data-name="Path 4361" d="M860.956,676.238a24.982,24.982,0,1,1-24.982-24.992A24.977,24.977,0,0,1,860.956,676.238Z" fill="#745fd7" fill-rule="evenodd"/>
      <path id="Phone-2" d="M833.54,669.079l-3.316-3.317a1.663,1.663,0,0,0-2.369-.094l-1.99,1.99c-2.558,2.558.757,8.527,5.306,13.17,4.739,4.738,10.8,8.149,13.455,5.5l1.9-1.895a1.777,1.777,0,0,0-.094-2.464l-3.222-3.222a1.791,1.791,0,0,0-2.464-.19l-1.989,1.99a14.377,14.377,0,0,1-7.107-7.105l1.99-1.99A1.663,1.663,0,0,0,833.54,669.079Z" fill="#fff"/>
    </g>
    <g id="Group_4609" data-name="Group 4609" transform="translate(-166 375.184)">
      <path id="Path_4362" data-name="Path 4362" d="M771.837,488.61a24.985,24.985,0,1,1-34.13,9.147A24.985,24.985,0,0,1,771.837,488.61Z" fill="#745fd7" fill-rule="evenodd"/>
      <path id="Email-2" d="M748.844,517.847V503.014l2.1,1.868,7.811,6.989a.772.772,0,0,0,1.178,0l9.615-8.6.28-.244c0,.11.016.188.016.264v14.488a.848.848,0,0,1-.908.969h-19.2A.827.827,0,0,1,748.844,517.847Zm1.113-16.095h18.772l-9.385,8.4Z" fill="#fff"/>
    </g>
    <g id="Group_4610" data-name="Group 4610" transform="translate(-166 375.184)">
      <path id="Path_4363" data-name="Path 4363" d="M661.428,458.621a24.987,24.987,0,1,1-24.99,24.982A24.983,24.983,0,0,1,661.428,458.621Z" fill="#745fd7" fill-rule="evenodd"/>
      <path id="Download-2" d="M651.424,491.608v-8.75h2.5v6.25h15v-6.25h2.5v8.75Zm4.191-11.174,1.769-1.768,2.79,2.791v-9.849h2.5v10l2.941-2.942,1.767,1.768-5.883,5.882Z" fill="#fff"/>
    </g>
    <path id="Path_4364" data-name="Path 4364" d="M461.592,676.852a24.987,24.987,0,1,1,24.982,24.982A24.987,24.987,0,0,1,461.592,676.852Z" transform="translate(-166 375.184)" fill="#745fd7" fill-rule="evenodd"/>
    <path id="Path-2" d="M477.812,686.493l21.99-9.428-21.99-9.428-.01,7.333,15.714,2.1-15.714,2.1Z" transform="translate(-166 375.184)" fill="#fff"/>
    <g id="Group_4611" data-name="Group 4611" transform="translate(-166 375.184)">
      <path id="Path_4365" data-name="Path 4365" d="M472.332,568.737a24.987,24.987,0,1,1,9.148,34.138A24.983,24.983,0,0,1,472.332,568.737Z" fill="#745fd7" fill-rule="evenodd"/>
      <path id="Shape-4" d="M482.97,592.233v0l.011-19.8a2.2,2.2,0,0,1,2.189-2.2h17.6a2.2,2.2,0,0,1,2.2,2.2v13.475a2.2,2.2,0,0,1-2.2,2.2H487.1l-4.123,4.123Zm2.75-9.625v2.75h16.5v-2.75Zm0-4.812v2.75h16.5V577.8Zm0-4.813v2.75h16.5v-2.75Z" fill="#fff"/>
    </g>
  </g>
</svg>
