<svg xmlns="http://www.w3.org/2000/svg" width="947.902" height="167.422" viewBox="0 0 947.902 167.422">
  <g id="Group_4732" data-name="Group 4732" transform="translate(-282.597 -1202.131)">
    <g id="Group_4235" data-name="Group 4235" transform="translate(2774 374.984)">
      <circle id="Ellipse_37" data-name="Ellipse 37" cx="4" cy="4" r="4" transform="translate(-2367.408 868.184)" fill="#4569a0"/>
    </g>
    <g id="Group_4236" data-name="Group 4236" transform="translate(2774 374.984)">
      <path id="Person-2" d="M-2327.452,875.271c-.006-4.7,4.49-8.524,10.044-8.532s10.06,3.8,10.067,8.5Zm4.287-15.623a5.746,5.746,0,0,1,5.8-5.691,5.746,5.746,0,0,1,5.69,5.675,5.746,5.746,0,0,1-5.8,5.691A5.746,5.746,0,0,1-2323.165,859.648Z" fill="#4569a0"/>
      <path id="Person-2-2" data-name="Person-2" d="M-2352.7,875.308c-.007-4.7,4.489-8.525,10.043-8.533s10.061,3.8,10.067,8.5Zm4.286-15.623a5.746,5.746,0,0,1,5.8-5.691,5.746,5.746,0,0,1,5.69,5.674,5.745,5.745,0,0,1-5.8,5.691A5.745,5.745,0,0,1-2348.418,859.685Z" fill="#4569a0"/>
    </g>
    <path id="Person-2-3" data-name="Person-2" d="M-2024.329,945.05c-.007-4.7,4.489-8.524,10.043-8.532s10.061,3.8,10.068,8.5Zm4.286-15.622a5.747,5.747,0,0,1,5.8-5.691,5.747,5.747,0,0,1,5.691,5.674,5.746,5.746,0,0,1-5.8,5.691A5.746,5.746,0,0,1-2020.043,929.428Z" transform="translate(2774 374.984)" fill="#ffd964"/>
    <g id="Group_4237" data-name="Group 4237" transform="translate(2774 374.984)">
      <path id="Person-2-4" data-name="Person-2" d="M-2276.946,875.2c-.007-4.7,4.489-8.524,10.043-8.532s10.061,3.8,10.068,8.5Zm4.286-15.622a5.746,5.746,0,0,1,5.8-5.691,5.746,5.746,0,0,1,5.691,5.674,5.747,5.747,0,0,1-5.8,5.691A5.746,5.746,0,0,1-2272.66,859.575Z" fill="#99adcb"/>
      <path id="Person-2-5" data-name="Person-2" d="M-2302.2,875.234c-.007-4.7,4.49-8.524,10.043-8.532s10.061,3.8,10.068,8.5Zm4.286-15.622a5.746,5.746,0,0,1,5.8-5.691,5.746,5.746,0,0,1,5.691,5.674,5.747,5.747,0,0,1-5.8,5.691A5.747,5.747,0,0,1-2297.913,859.612Z" fill="#99adcb"/>
      <path id="Person-2-6" data-name="Person-2" d="M-2251.693,875.16c-.007-4.7,4.489-8.524,10.043-8.532s10.061,3.8,10.068,8.5Zm4.286-15.622a5.746,5.746,0,0,1,5.8-5.691,5.746,5.746,0,0,1,5.691,5.674,5.747,5.747,0,0,1-5.8,5.691A5.746,5.746,0,0,1-2247.407,859.538Z" fill="#99adcb"/>
      <path id="Person-2-7" data-name="Person-2" d="M-2150.682,875.013c-.007-4.7,4.489-8.524,10.043-8.532s10.061,3.8,10.068,8.5Zm4.286-15.623a5.746,5.746,0,0,1,5.8-5.69,5.746,5.746,0,0,1,5.691,5.674,5.747,5.747,0,0,1-5.8,5.691A5.747,5.747,0,0,1-2146.4,859.39Z" fill="#99adcb"/>
      <path id="Person-2-8" data-name="Person-2" d="M-2175.935,875.05c-.006-4.7,4.49-8.524,10.044-8.533s10.06,3.8,10.067,8.5Zm4.286-15.623a5.748,5.748,0,0,1,5.8-5.691,5.746,5.746,0,0,1,5.69,5.675,5.745,5.745,0,0,1-5.8,5.69A5.747,5.747,0,0,1-2171.649,859.427Z" fill="#99adcb"/>
      <path id="Person-2-9" data-name="Person-2" d="M-2201.187,875.086c-.007-4.7,4.489-8.524,10.043-8.532s10.061,3.8,10.067,8.5Zm4.286-15.622a5.746,5.746,0,0,1,5.8-5.691,5.746,5.746,0,0,1,5.69,5.674,5.745,5.745,0,0,1-5.8,5.691A5.745,5.745,0,0,1-2196.9,859.464Z" fill="#99adcb"/>
      <path id="Person-2-10" data-name="Person-2" d="M-2226.44,875.123c-.007-4.7,4.489-8.524,10.043-8.532s10.061,3.8,10.068,8.5Zm4.286-15.622a5.746,5.746,0,0,1,5.8-5.691,5.746,5.746,0,0,1,5.691,5.674,5.746,5.746,0,0,1-5.8,5.691A5.746,5.746,0,0,1-2222.154,859.5Z" fill="#99adcb"/>
      <path id="Person-2-11" data-name="Person-2" d="M-2125.429,874.976c-.007-4.7,4.489-8.524,10.043-8.532s10.061,3.8,10.068,8.5Zm4.286-15.622a5.746,5.746,0,0,1,5.8-5.691,5.746,5.746,0,0,1,5.691,5.674,5.747,5.747,0,0,1-5.8,5.691A5.747,5.747,0,0,1-2121.143,859.354Z" fill="#99adcb"/>
      <path id="Person-2-12" data-name="Person-2" d="M-2024.418,874.829c-.006-4.7,4.49-8.525,10.044-8.533s10.06,3.8,10.067,8.5Zm4.286-15.623a5.748,5.748,0,0,1,5.8-5.691,5.747,5.747,0,0,1,5.69,5.674,5.745,5.745,0,0,1-5.8,5.691A5.747,5.747,0,0,1-2020.132,859.206Z" fill="#99adcb"/>
      <path id="Person-2-13" data-name="Person-2" d="M-2049.67,874.865c-.007-4.7,4.489-8.524,10.043-8.532s10.061,3.8,10.067,8.5Zm4.286-15.622a5.746,5.746,0,0,1,5.8-5.691,5.745,5.745,0,0,1,5.69,5.674,5.745,5.745,0,0,1-5.8,5.691A5.745,5.745,0,0,1-2045.384,859.243Z" fill="#99adcb"/>
      <path id="Person-2-14" data-name="Person-2" d="M-2074.923,874.9c-.007-4.7,4.489-8.524,10.043-8.532s10.061,3.8,10.068,8.5Zm4.286-15.622a5.746,5.746,0,0,1,5.8-5.691,5.746,5.746,0,0,1,5.691,5.674,5.747,5.747,0,0,1-5.8,5.691A5.746,5.746,0,0,1-2070.637,859.28Z" fill="#99adcb"/>
      <path id="Person-2-15" data-name="Person-2" d="M-2100.176,874.939c-.007-4.7,4.489-8.524,10.043-8.532s10.061,3.8,10.068,8.5Zm4.286-15.622a5.745,5.745,0,0,1,5.8-5.691,5.746,5.746,0,0,1,5.691,5.674,5.747,5.747,0,0,1-5.8,5.691A5.746,5.746,0,0,1-2095.89,859.317Z" fill="#99adcb"/>
      <path id="Person-2-16" data-name="Person-2" d="M-1999.165,874.792c-.007-4.7,4.489-8.524,10.043-8.532s10.061,3.8,10.068,8.5Zm4.286-15.623a5.747,5.747,0,0,1,5.8-5.691,5.747,5.747,0,0,1,5.691,5.675,5.747,5.747,0,0,1-5.8,5.691A5.747,5.747,0,0,1-1994.879,859.169Z" fill="#99adcb"/>
      <path id="Person-2-17" data-name="Person-2" d="M-1898.153,874.644c-.007-4.7,4.489-8.524,10.043-8.532s10.061,3.8,10.067,8.5Zm4.286-15.622a5.746,5.746,0,0,1,5.8-5.691,5.745,5.745,0,0,1,5.69,5.674,5.745,5.745,0,0,1-5.8,5.691A5.745,5.745,0,0,1-1893.867,859.022Z" fill="#99adcb"/>
      <path id="Person-2-18" data-name="Person-2" d="M-1923.406,874.681c-.007-4.7,4.489-8.524,10.043-8.532s10.061,3.8,10.068,8.5Zm4.286-15.622a5.746,5.746,0,0,1,5.8-5.691,5.746,5.746,0,0,1,5.691,5.674,5.747,5.747,0,0,1-5.8,5.691A5.746,5.746,0,0,1-1919.12,859.059Z" fill="#99adcb"/>
      <path id="Person-2-19" data-name="Person-2" d="M-1948.659,874.718c-.007-4.7,4.489-8.524,10.043-8.532s10.061,3.8,10.068,8.5Zm4.286-15.622a5.746,5.746,0,0,1,5.8-5.691,5.746,5.746,0,0,1,5.691,5.674,5.748,5.748,0,0,1-5.8,5.691A5.746,5.746,0,0,1-1944.373,859.1Z" fill="#99adcb"/>
      <path id="Person-2-20" data-name="Person-2" d="M-1973.912,874.755c-.007-4.7,4.489-8.524,10.043-8.532s10.061,3.8,10.068,8.5Zm4.286-15.622a5.746,5.746,0,0,1,5.8-5.691,5.746,5.746,0,0,1,5.691,5.674,5.747,5.747,0,0,1-5.8,5.691A5.747,5.747,0,0,1-1969.626,859.133Z" fill="#99adcb"/>
      <path id="Person-2-21" data-name="Person-2" d="M-1872.9,874.607c-.006-4.7,4.49-8.524,10.043-8.532s10.061,3.8,10.068,8.5Zm4.286-15.622a5.748,5.748,0,0,1,5.8-5.691,5.747,5.747,0,0,1,5.69,5.674,5.745,5.745,0,0,1-5.8,5.691A5.747,5.747,0,0,1-1868.615,858.985Z" fill="#99adcb"/>
      <path id="Person-2-22" data-name="Person-2" d="M-1771.889,874.46c-.007-4.7,4.489-8.524,10.043-8.532s10.061,3.8,10.068,8.5Zm4.286-15.622a5.745,5.745,0,0,1,5.8-5.691,5.747,5.747,0,0,1,5.691,5.674,5.748,5.748,0,0,1-5.8,5.691A5.746,5.746,0,0,1-1767.6,858.838Z" fill="#99adcb"/>
      <path id="Person-2-23" data-name="Person-2" d="M-1797.142,874.5c-.007-4.7,4.489-8.524,10.043-8.532s10.061,3.8,10.068,8.5Zm4.286-15.622a5.745,5.745,0,0,1,5.8-5.691,5.746,5.746,0,0,1,5.691,5.674,5.747,5.747,0,0,1-5.8,5.691A5.747,5.747,0,0,1-1792.856,858.875Z" fill="#99adcb"/>
      <path id="Person-2-24" data-name="Person-2" d="M-1822.4,874.534c-.007-4.7,4.489-8.524,10.043-8.532s10.061,3.8,10.068,8.5Zm4.286-15.623a5.746,5.746,0,0,1,5.8-5.69,5.746,5.746,0,0,1,5.691,5.674,5.747,5.747,0,0,1-5.8,5.691A5.747,5.747,0,0,1-1818.109,858.911Z" fill="#99adcb"/>
      <path id="Person-2-25" data-name="Person-2" d="M-1847.648,874.571c-.007-4.7,4.489-8.524,10.043-8.533s10.061,3.8,10.068,8.5Zm4.286-15.623a5.747,5.747,0,0,1,5.8-5.691,5.747,5.747,0,0,1,5.691,5.675,5.745,5.745,0,0,1-5.8,5.69A5.746,5.746,0,0,1-1843.362,858.948Z" fill="#99adcb"/>
      <path id="Person-2-26" data-name="Person-2" d="M-1746.636,874.423c-.007-4.7,4.489-8.524,10.043-8.532s10.06,3.8,10.067,8.5Zm4.286-15.622a5.746,5.746,0,0,1,5.8-5.691,5.745,5.745,0,0,1,5.69,5.674,5.745,5.745,0,0,1-5.8,5.691A5.745,5.745,0,0,1-1742.35,858.8Z" fill="#99adcb"/>
      <path id="Person-2-27" data-name="Person-2" d="M-2276.9,910.308c-.007-4.7,4.489-8.524,10.043-8.532s10.061,3.8,10.068,8.5Zm4.286-15.622a5.746,5.746,0,0,1,5.8-5.691,5.746,5.746,0,0,1,5.691,5.674,5.747,5.747,0,0,1-5.8,5.691A5.746,5.746,0,0,1-2272.615,894.686Z" fill="#99adcb"/>
      <path id="Person-2-28" data-name="Person-2" d="M-2302.154,910.345c-.007-4.7,4.489-8.524,10.043-8.532s10.061,3.8,10.068,8.5Zm4.286-15.622a5.746,5.746,0,0,1,5.8-5.691,5.746,5.746,0,0,1,5.691,5.674,5.747,5.747,0,0,1-5.8,5.691A5.747,5.747,0,0,1-2297.868,894.723Z" fill="#99adcb"/>
      <path id="Person-2-29" data-name="Person-2" d="M-2327.407,910.382c-.007-4.7,4.489-8.524,10.043-8.532s10.061,3.8,10.068,8.5Zm4.286-15.623a5.748,5.748,0,0,1,5.8-5.691,5.747,5.747,0,0,1,5.691,5.675,5.745,5.745,0,0,1-5.8,5.69A5.746,5.746,0,0,1-2323.121,894.759Z" fill="#99adcb"/>
      <path id="Person-2-30" data-name="Person-2" d="M-2352.66,910.418c-.006-4.7,4.49-8.524,10.044-8.532s10.06,3.8,10.067,8.5Zm4.286-15.622a5.748,5.748,0,0,1,5.8-5.691,5.747,5.747,0,0,1,5.69,5.674,5.745,5.745,0,0,1-5.8,5.691A5.747,5.747,0,0,1-2348.374,894.8Z" fill="#99adcb"/>
      <path id="Person-2-31" data-name="Person-2" d="M-2251.648,910.271c-.007-4.7,4.489-8.524,10.043-8.532s10.061,3.8,10.068,8.5Zm4.286-15.622a5.745,5.745,0,0,1,5.8-5.691,5.747,5.747,0,0,1,5.691,5.674,5.747,5.747,0,0,1-5.8,5.691A5.746,5.746,0,0,1-2247.362,894.649Z" fill="#99adcb"/>
      <path id="Person-2-32" data-name="Person-2" d="M-2150.637,910.124c-.007-4.7,4.489-8.524,10.043-8.532s10.061,3.8,10.068,8.5Zm4.286-15.623a5.746,5.746,0,0,1,5.8-5.69,5.746,5.746,0,0,1,5.691,5.674,5.748,5.748,0,0,1-5.8,5.691A5.747,5.747,0,0,1-2146.351,894.5Z" fill="#99adcb"/>
      <path id="Person-2-33" data-name="Person-2" d="M-2175.89,910.161c-.007-4.7,4.489-8.524,10.043-8.533s10.061,3.8,10.068,8.5Zm4.286-15.623a5.747,5.747,0,0,1,5.8-5.691,5.747,5.747,0,0,1,5.691,5.675,5.745,5.745,0,0,1-5.8,5.69A5.746,5.746,0,0,1-2171.6,894.538Z" fill="#99adcb"/>
      <path id="Person-2-34" data-name="Person-2" d="M-2201.143,910.2c-.006-4.7,4.49-8.524,10.043-8.532s10.061,3.8,10.068,8.5Zm4.286-15.622a5.748,5.748,0,0,1,5.8-5.691,5.747,5.747,0,0,1,5.69,5.674,5.745,5.745,0,0,1-5.8,5.691A5.746,5.746,0,0,1-2196.857,894.575Z" fill="#99adcb"/>
      <path id="Person-2-35" data-name="Person-2" d="M-2226.4,910.234c-.007-4.7,4.489-8.524,10.043-8.532s10.061,3.8,10.067,8.5Zm4.286-15.622a5.746,5.746,0,0,1,5.8-5.691,5.746,5.746,0,0,1,5.69,5.674,5.745,5.745,0,0,1-5.8,5.691A5.745,5.745,0,0,1-2222.109,894.612Z" fill="#99adcb"/>
      <path id="Person-2-36" data-name="Person-2" d="M-2125.384,910.087c-.007-4.7,4.489-8.524,10.043-8.532s10.061,3.8,10.068,8.5Zm4.286-15.622a5.745,5.745,0,0,1,5.8-5.691,5.746,5.746,0,0,1,5.691,5.674,5.747,5.747,0,0,1-5.8,5.691A5.747,5.747,0,0,1-2121.1,894.465Z" fill="#99adcb"/>
      <path id="Person-2-37" data-name="Person-2" d="M-2024.373,909.939c-.007-4.7,4.489-8.524,10.043-8.532s10.061,3.8,10.068,8.5Zm4.286-15.622a5.748,5.748,0,0,1,5.8-5.691,5.747,5.747,0,0,1,5.691,5.674,5.746,5.746,0,0,1-5.8,5.691A5.746,5.746,0,0,1-2020.087,894.317Z" fill="#99adcb"/>
      <path id="Person-2-38" data-name="Person-2" d="M-2049.626,909.976c-.006-4.7,4.49-8.524,10.043-8.532s10.061,3.8,10.068,8.5Zm4.286-15.622a5.747,5.747,0,0,1,5.8-5.691,5.746,5.746,0,0,1,5.691,5.674,5.745,5.745,0,0,1-5.8,5.691A5.746,5.746,0,0,1-2045.34,894.354Z" fill="#99adcb"/>
      <path id="Person-2-39" data-name="Person-2" d="M-2074.878,910.013c-.007-4.7,4.489-8.524,10.043-8.532s10.06,3.8,10.067,8.5Zm4.286-15.622a5.745,5.745,0,0,1,5.8-5.691,5.745,5.745,0,0,1,5.69,5.674,5.746,5.746,0,0,1-5.8,5.691A5.746,5.746,0,0,1-2070.592,894.391Z" fill="#99adcb"/>
      <path id="Person-2-40" data-name="Person-2" d="M-2100.131,910.05c-.007-4.7,4.489-8.524,10.043-8.532s10.061,3.8,10.068,8.5Zm4.286-15.622a5.745,5.745,0,0,1,5.8-5.691,5.747,5.747,0,0,1,5.691,5.674,5.748,5.748,0,0,1-5.8,5.691A5.745,5.745,0,0,1-2095.845,894.428Z" fill="#99adcb"/>
      <path id="Person-2-41" data-name="Person-2" d="M-1999.12,909.9c-.007-4.7,4.489-8.524,10.043-8.533s10.061,3.8,10.068,8.5Zm4.286-15.623a5.747,5.747,0,0,1,5.8-5.691,5.747,5.747,0,0,1,5.691,5.675,5.746,5.746,0,0,1-5.8,5.69A5.746,5.746,0,0,1-1994.834,894.28Z" fill="#99adcb"/>
      <path id="Person-2-42" data-name="Person-2" d="M-1898.109,909.755c-.007-4.7,4.49-8.524,10.043-8.532s10.061,3.8,10.068,8.5Zm4.286-15.622a5.747,5.747,0,0,1,5.8-5.691,5.746,5.746,0,0,1,5.691,5.674,5.745,5.745,0,0,1-5.8,5.691A5.746,5.746,0,0,1-1893.823,894.133Z" fill="#99adcb"/>
      <path id="Person-2-43" data-name="Person-2" d="M-1923.361,909.792c-.007-4.7,4.489-8.524,10.043-8.532s10.06,3.8,10.067,8.5Zm4.286-15.622a5.745,5.745,0,0,1,5.8-5.691,5.745,5.745,0,0,1,5.69,5.674,5.746,5.746,0,0,1-5.8,5.691A5.745,5.745,0,0,1-1919.075,894.17Z" fill="#99adcb"/>
      <path id="Person-2-44" data-name="Person-2" d="M-1948.614,909.829c-.007-4.7,4.489-8.524,10.043-8.532s10.061,3.8,10.067,8.5Zm4.286-15.622a5.745,5.745,0,0,1,5.8-5.691,5.745,5.745,0,0,1,5.69,5.674,5.746,5.746,0,0,1-5.8,5.691A5.745,5.745,0,0,1-1944.328,894.207Z" fill="#99adcb"/>
      <path id="Person-2-45" data-name="Person-2" d="M-1973.867,909.866c-.007-4.7,4.489-8.524,10.043-8.532s10.061,3.8,10.068,8.5Zm4.286-15.622a5.746,5.746,0,0,1,5.8-5.691,5.746,5.746,0,0,1,5.691,5.674,5.748,5.748,0,0,1-5.8,5.691A5.747,5.747,0,0,1-1969.581,894.244Z" fill="#99adcb"/>
      <path id="Person-2-46" data-name="Person-2" d="M-1872.856,909.718c-.007-4.7,4.489-8.524,10.043-8.532s10.061,3.8,10.068,8.5Zm4.286-15.622a5.747,5.747,0,0,1,5.8-5.691,5.747,5.747,0,0,1,5.691,5.674,5.746,5.746,0,0,1-5.8,5.691A5.746,5.746,0,0,1-1868.57,894.1Z" fill="#99adcb"/>
      <path id="Person-2-47" data-name="Person-2" d="M-1771.845,909.571c-.006-4.7,4.49-8.524,10.044-8.532s10.06,3.8,10.067,8.5Zm4.286-15.622a5.746,5.746,0,0,1,5.8-5.691,5.745,5.745,0,0,1,5.69,5.674,5.746,5.746,0,0,1-5.8,5.691A5.747,5.747,0,0,1-1767.559,893.949Z" fill="#99adcb"/>
      <path id="Person-2-48" data-name="Person-2" d="M-1797.1,909.608c-.007-4.7,4.489-8.524,10.043-8.532s10.061,3.8,10.067,8.5Zm4.286-15.622a5.745,5.745,0,0,1,5.8-5.691,5.745,5.745,0,0,1,5.69,5.674,5.746,5.746,0,0,1-5.8,5.691A5.746,5.746,0,0,1-1792.811,893.986Z" fill="#99adcb"/>
      <path id="Person-2-49" data-name="Person-2" d="M-1822.35,909.645c-.007-4.7,4.489-8.524,10.043-8.532s10.061,3.8,10.068,8.5Zm4.286-15.623a5.745,5.745,0,0,1,5.8-5.69,5.746,5.746,0,0,1,5.691,5.674,5.747,5.747,0,0,1-5.8,5.691A5.747,5.747,0,0,1-1818.064,894.022Z" fill="#99adcb"/>
      <path id="Person-2-50" data-name="Person-2" d="M-1847.6,909.682c-.007-4.7,4.489-8.524,10.043-8.533s10.061,3.8,10.068,8.5Zm4.286-15.623a5.747,5.747,0,0,1,5.8-5.691,5.747,5.747,0,0,1,5.691,5.675,5.746,5.746,0,0,1-5.8,5.69A5.746,5.746,0,0,1-1843.317,894.059Z" fill="#99adcb"/>
      <path id="Person-2-51" data-name="Person-2" d="M-1746.592,909.534c-.007-4.7,4.489-8.524,10.043-8.532s10.061,3.8,10.068,8.5Zm4.286-15.622a5.747,5.747,0,0,1,5.8-5.691,5.746,5.746,0,0,1,5.691,5.674,5.746,5.746,0,0,1-5.8,5.691A5.746,5.746,0,0,1-1742.306,893.912Z" fill="#99adcb"/>
      <path id="Person-2-52" data-name="Person-2" d="M-2276.857,945.419c-.007-4.7,4.489-8.524,10.043-8.532s10.061,3.8,10.067,8.5Zm4.286-15.622a5.745,5.745,0,0,1,5.8-5.691,5.745,5.745,0,0,1,5.69,5.674,5.746,5.746,0,0,1-5.8,5.691A5.746,5.746,0,0,1-2272.571,929.8Z" fill="#99adcb"/>
      <path id="Person-2-53" data-name="Person-2" d="M-2302.11,945.456c-.007-4.7,4.489-8.524,10.043-8.532s10.061,3.8,10.068,8.5Zm4.286-15.622a5.745,5.745,0,0,1,5.8-5.691,5.746,5.746,0,0,1,5.691,5.674,5.747,5.747,0,0,1-5.8,5.691A5.747,5.747,0,0,1-2297.824,929.834Z" fill="#99adcb"/>
      <path id="Person-2-54" data-name="Person-2" d="M-2327.363,945.493c-.007-4.7,4.489-8.524,10.043-8.533s10.061,3.8,10.068,8.5Zm4.286-15.623a5.747,5.747,0,0,1,5.8-5.691,5.747,5.747,0,0,1,5.691,5.675,5.746,5.746,0,0,1-5.8,5.69A5.745,5.745,0,0,1-2323.077,929.87Z" fill="#99adcb"/>
      <path id="Person-2-55" data-name="Person-2" d="M-2352.616,945.529c-.007-4.7,4.489-8.524,10.043-8.532s10.061,3.8,10.068,8.5Zm4.286-15.622a5.748,5.748,0,0,1,5.8-5.691,5.747,5.747,0,0,1,5.691,5.674,5.746,5.746,0,0,1-5.8,5.691A5.746,5.746,0,0,1-2348.33,929.907Z" fill="#99adcb"/>
      <path id="Person-2-56" data-name="Person-2" d="M-2251.6,945.382c-.006-4.7,4.49-8.524,10.044-8.532s10.06,3.8,10.067,8.5Zm4.287-15.622a5.745,5.745,0,0,1,5.8-5.691,5.746,5.746,0,0,1,5.69,5.674,5.746,5.746,0,0,1-5.8,5.691A5.746,5.746,0,0,1-2247.318,929.76Z" fill="#99adcb"/>
      <path id="Person-2-57" data-name="Person-2" d="M-2150.593,945.235c-.007-4.7,4.489-8.524,10.043-8.532s10.061,3.8,10.068,8.5Zm4.286-15.623a5.744,5.744,0,0,1,5.8-5.69,5.746,5.746,0,0,1,5.691,5.674,5.748,5.748,0,0,1-5.8,5.691A5.747,5.747,0,0,1-2146.307,929.612Z" fill="#99adcb"/>
      <path id="Person-2-58" data-name="Person-2" d="M-2175.846,945.272c-.007-4.7,4.489-8.524,10.043-8.533s10.061,3.8,10.068,8.5Zm4.286-15.623a5.747,5.747,0,0,1,5.8-5.691,5.747,5.747,0,0,1,5.691,5.675,5.746,5.746,0,0,1-5.8,5.69A5.746,5.746,0,0,1-2171.56,929.649Z" fill="#99adcb"/>
      <path id="Person-2-59" data-name="Person-2" d="M-2201.1,945.308c-.007-4.7,4.489-8.524,10.043-8.532s10.061,3.8,10.068,8.5Zm4.286-15.622a5.747,5.747,0,0,1,5.8-5.691,5.746,5.746,0,0,1,5.691,5.674,5.745,5.745,0,0,1-5.8,5.691A5.746,5.746,0,0,1-2196.813,929.686Z" fill="#99adcb"/>
      <path id="Person-2-60" data-name="Person-2" d="M-2226.352,945.345c-.007-4.7,4.49-8.524,10.043-8.532s10.061,3.8,10.068,8.5Zm4.286-15.622a5.747,5.747,0,0,1,5.8-5.691,5.746,5.746,0,0,1,5.691,5.674,5.745,5.745,0,0,1-5.8,5.691A5.746,5.746,0,0,1-2222.066,929.723Z" fill="#99adcb"/>
      <path id="Person-2-61" data-name="Person-2" d="M-2125.34,945.2c-.007-4.7,4.489-8.524,10.043-8.532s10.061,3.8,10.067,8.5Zm4.286-15.622a5.745,5.745,0,0,1,5.8-5.691,5.745,5.745,0,0,1,5.69,5.674,5.746,5.746,0,0,1-5.8,5.691A5.746,5.746,0,0,1-2121.054,929.576Z" fill="#99adcb"/>
      <path id="Person-2-62" data-name="Person-2" d="M-2049.582,945.087c-.007-4.7,4.489-8.524,10.043-8.532s10.061,3.8,10.068,8.5Zm4.286-15.622a5.748,5.748,0,0,1,5.8-5.691,5.746,5.746,0,0,1,5.691,5.674,5.746,5.746,0,0,1-5.8,5.691A5.746,5.746,0,0,1-2045.3,929.465Z" fill="#99adcb"/>
      <path id="Person-2-63" data-name="Person-2" d="M-2074.835,945.124c-.007-4.7,4.489-8.524,10.043-8.532s10.061,3.8,10.068,8.5Zm4.286-15.622a5.747,5.747,0,0,1,5.8-5.691,5.746,5.746,0,0,1,5.691,5.674,5.746,5.746,0,0,1-5.8,5.691A5.746,5.746,0,0,1-2070.549,929.5Z" fill="#99adcb"/>
      <path id="Person-2-64" data-name="Person-2" d="M-2100.088,945.161c-.006-4.7,4.49-8.524,10.044-8.532s10.06,3.8,10.067,8.5Zm4.286-15.622a5.746,5.746,0,0,1,5.8-5.691,5.745,5.745,0,0,1,5.69,5.674,5.746,5.746,0,0,1-5.8,5.691A5.747,5.747,0,0,1-2095.8,929.539Z" fill="#99adcb"/>
    </g>
    <path id="Person-2-65" data-name="Person-2" d="M-1999.076,945.014c-.007-4.7,4.489-8.524,10.043-8.533s10.061,3.8,10.068,8.5Zm4.286-15.623a5.746,5.746,0,0,1,5.8-5.691,5.747,5.747,0,0,1,5.691,5.675,5.746,5.746,0,0,1-5.8,5.69A5.746,5.746,0,0,1-1994.79,929.391Z" transform="translate(2774 374.984)" fill="#ffd964"/>
    <path id="Person-2-66" data-name="Person-2" d="M-1898.065,944.866c-.007-4.7,4.489-8.524,10.043-8.532s10.061,3.8,10.068,8.5Zm4.286-15.622a5.748,5.748,0,0,1,5.8-5.691,5.746,5.746,0,0,1,5.691,5.674,5.746,5.746,0,0,1-5.8,5.691A5.746,5.746,0,0,1-1893.779,929.244Z" transform="translate(2774 374.984)" fill="#ffd964"/>
    <path id="Person-2-67" data-name="Person-2" d="M-1923.318,944.9c-.007-4.7,4.489-8.524,10.043-8.532s10.061,3.8,10.068,8.5Zm4.286-15.622a5.746,5.746,0,0,1,5.8-5.691,5.746,5.746,0,0,1,5.691,5.674,5.747,5.747,0,0,1-5.8,5.691A5.746,5.746,0,0,1-1919.032,929.281Z" transform="translate(2774 374.984)" fill="#ffd964"/>
    <path id="Person-2-68" data-name="Person-2" d="M-1948.571,944.94c-.006-4.7,4.49-8.524,10.044-8.532s10.06,3.8,10.067,8.5Zm4.286-15.622a5.746,5.746,0,0,1,5.8-5.691,5.746,5.746,0,0,1,5.69,5.674,5.746,5.746,0,0,1-5.8,5.691A5.748,5.748,0,0,1-1944.285,929.318Z" transform="translate(2774 374.984)" fill="#ffd964"/>
    <path id="Person-2-69" data-name="Person-2" d="M-1973.823,944.977c-.007-4.7,4.489-8.524,10.043-8.532s10.061,3.8,10.067,8.5Zm4.286-15.623a5.745,5.745,0,0,1,5.8-5.69,5.745,5.745,0,0,1,5.69,5.674,5.746,5.746,0,0,1-5.8,5.691A5.746,5.746,0,0,1-1969.537,929.354Z" transform="translate(2774 374.984)" fill="#ffd964"/>
    <path id="Person-2-70" data-name="Person-2" d="M-1872.812,944.829c-.007-4.7,4.489-8.524,10.043-8.532s10.061,3.8,10.068,8.5Zm4.286-15.622a5.747,5.747,0,0,1,5.8-5.691,5.746,5.746,0,0,1,5.691,5.674,5.746,5.746,0,0,1-5.8,5.691A5.746,5.746,0,0,1-1868.526,929.207Z" transform="translate(2774 374.984)" fill="#ffd964"/>
    <path id="Person-2-71" data-name="Person-2" d="M-1771.8,944.682c-.007-4.7,4.489-8.524,10.043-8.532s10.061,3.8,10.068,8.5Zm4.286-15.622a5.746,5.746,0,0,1,5.8-5.691,5.746,5.746,0,0,1,5.691,5.674,5.747,5.747,0,0,1-5.8,5.691A5.746,5.746,0,0,1-1767.515,929.06Z" transform="translate(2774 374.984)" fill="#ffd964"/>
    <path id="Person-2-72" data-name="Person-2" d="M-1797.054,944.719c-.006-4.7,4.49-8.524,10.043-8.532s10.061,3.8,10.068,8.5Zm4.286-15.622a5.746,5.746,0,0,1,5.8-5.691,5.746,5.746,0,0,1,5.691,5.674,5.746,5.746,0,0,1-5.8,5.691A5.747,5.747,0,0,1-1792.768,929.1Z" transform="translate(2774 374.984)" fill="#ffd964"/>
    <path id="Person-2-73" data-name="Person-2" d="M-1822.306,944.756c-.007-4.7,4.489-8.524,10.043-8.532s10.061,3.8,10.067,8.5Zm4.286-15.623a5.745,5.745,0,0,1,5.8-5.69,5.745,5.745,0,0,1,5.69,5.674,5.746,5.746,0,0,1-5.8,5.691A5.746,5.746,0,0,1-1818.02,929.133Z" transform="translate(2774 374.984)" fill="#ffd964"/>
    <path id="Person-2-74" data-name="Person-2" d="M-1847.559,944.793c-.007-4.7,4.489-8.525,10.043-8.533s10.061,3.8,10.068,8.5Zm4.286-15.623a5.746,5.746,0,0,1,5.8-5.691,5.748,5.748,0,0,1,5.691,5.674,5.746,5.746,0,0,1-5.8,5.691A5.746,5.746,0,0,1-1843.273,929.17Z" transform="translate(2774 374.984)" fill="#ffd964"/>
    <path id="Person-2-75" data-name="Person-2" d="M-1746.548,944.645c-.007-4.7,4.489-8.524,10.043-8.532s10.061,3.8,10.068,8.5Zm4.286-15.622a5.746,5.746,0,0,1,5.8-5.691,5.746,5.746,0,0,1,5.691,5.674,5.747,5.747,0,0,1-5.8,5.691A5.746,5.746,0,0,1-1742.262,929.023Z" transform="translate(2774 374.984)" fill="#ffd964"/>
    <g id="Group_4238" data-name="Group 4238" transform="translate(2774 374.984)">
      <path id="Person-2-76" data-name="Person-2" d="M-2276.813,980.53c-.006-4.7,4.49-8.524,10.044-8.532s10.06,3.8,10.067,8.5Zm4.286-15.622a5.747,5.747,0,0,1,5.8-5.691,5.746,5.746,0,0,1,5.69,5.674,5.746,5.746,0,0,1-5.8,5.691A5.748,5.748,0,0,1-2272.527,964.908Z" fill="#ffd964"/>
      <path id="Person-2-77" data-name="Person-2" d="M-2302.065,980.567c-.007-4.7,4.489-8.524,10.043-8.532s10.061,3.8,10.067,8.5Zm4.286-15.623a5.745,5.745,0,0,1,5.8-5.69,5.745,5.745,0,0,1,5.69,5.674,5.746,5.746,0,0,1-5.8,5.691A5.746,5.746,0,0,1-2297.779,964.944Z" fill="#ffd964"/>
      <path id="Person-2-78" data-name="Person-2" d="M-2327.318,980.6c-.007-4.7,4.489-8.524,10.043-8.533s10.061,3.8,10.068,8.5Zm4.286-15.623a5.746,5.746,0,0,1,5.8-5.691,5.747,5.747,0,0,1,5.691,5.675,5.746,5.746,0,0,1-5.8,5.69A5.746,5.746,0,0,1-2323.032,964.981Z" fill="#ffd964"/>
      <path id="Person-2-79" data-name="Person-2" d="M-2352.571,980.64c-.007-4.7,4.489-8.524,10.043-8.532s10.061,3.8,10.068,8.5Zm4.286-15.622a5.747,5.747,0,0,1,5.8-5.691,5.747,5.747,0,0,1,5.691,5.674,5.746,5.746,0,0,1-5.8,5.691A5.746,5.746,0,0,1-2348.285,965.018Z" fill="#ffd964"/>
      <path id="Person-2-80" data-name="Person-2" d="M-2251.56,980.493c-.007-4.7,4.489-8.524,10.043-8.532s10.061,3.8,10.068,8.5Zm4.286-15.622a5.746,5.746,0,0,1,5.8-5.691,5.746,5.746,0,0,1,5.691,5.674,5.747,5.747,0,0,1-5.8,5.691A5.746,5.746,0,0,1-2247.274,964.871Z" fill="#ffd964"/>
      <path id="Person-2-81" data-name="Person-2" d="M-2150.548,980.346c-.007-4.7,4.489-8.524,10.043-8.532s10.061,3.8,10.067,8.5Zm4.286-15.623a5.746,5.746,0,0,1,5.8-5.691,5.746,5.746,0,0,1,5.69,5.675,5.746,5.746,0,0,1-5.8,5.691A5.746,5.746,0,0,1-2146.262,964.723Z" fill="#ffd964"/>
      <path id="Person-2-82" data-name="Person-2" d="M-2175.8,980.383c-.007-4.7,4.489-8.525,10.043-8.533s10.061,3.8,10.068,8.5Zm4.286-15.623a5.746,5.746,0,0,1,5.8-5.691,5.748,5.748,0,0,1,5.691,5.674,5.746,5.746,0,0,1-5.8,5.691A5.746,5.746,0,0,1-2171.515,964.76Z" fill="#ffd964"/>
      <path id="Person-2-83" data-name="Person-2" d="M-2201.054,980.419c-.007-4.7,4.489-8.524,10.043-8.532s10.061,3.8,10.068,8.5Zm4.286-15.622a5.747,5.747,0,0,1,5.8-5.691,5.746,5.746,0,0,1,5.691,5.674,5.746,5.746,0,0,1-5.8,5.691A5.746,5.746,0,0,1-2196.768,964.8Z" fill="#ffd964"/>
      <path id="Person-2-84" data-name="Person-2" d="M-2226.307,980.456c-.007-4.7,4.489-8.524,10.043-8.532s10.061,3.8,10.068,8.5Zm4.286-15.622a5.747,5.747,0,0,1,5.8-5.691,5.746,5.746,0,0,1,5.691,5.674,5.747,5.747,0,0,1-5.8,5.691A5.746,5.746,0,0,1-2222.021,964.834Z" fill="#ffd964"/>
      <path id="Person-2-85" data-name="Person-2" d="M-2125.3,980.309c-.006-4.7,4.49-8.524,10.043-8.532s10.061,3.8,10.068,8.5Zm4.286-15.622a5.746,5.746,0,0,1,5.8-5.691,5.746,5.746,0,0,1,5.691,5.674,5.746,5.746,0,0,1-5.8,5.691A5.747,5.747,0,0,1-2121.01,964.687Z" fill="#ffd964"/>
      <path id="Person-2-86" data-name="Person-2" d="M-2024.284,980.161c-.007-4.7,4.489-8.524,10.043-8.532s10.061,3.8,10.068,8.5Zm4.286-15.622a5.746,5.746,0,0,1,5.8-5.691,5.748,5.748,0,0,1,5.691,5.674,5.746,5.746,0,0,1-5.8,5.691A5.745,5.745,0,0,1-2020,964.539Z" fill="#ffd964"/>
      <path id="Person-2-87" data-name="Person-2" d="M-2049.537,980.2c-.007-4.7,4.489-8.524,10.043-8.532s10.061,3.8,10.068,8.5Zm4.286-15.622a5.747,5.747,0,0,1,5.8-5.691,5.746,5.746,0,0,1,5.691,5.674,5.746,5.746,0,0,1-5.8,5.691A5.746,5.746,0,0,1-2045.251,964.576Z" fill="#ffd964"/>
      <path id="Person-2-88" data-name="Person-2" d="M-2074.79,980.235c-.007-4.7,4.489-8.524,10.043-8.532s10.061,3.8,10.068,8.5Zm4.286-15.622a5.746,5.746,0,0,1,5.8-5.691,5.746,5.746,0,0,1,5.691,5.674,5.747,5.747,0,0,1-5.8,5.691A5.746,5.746,0,0,1-2070.5,964.613Z" fill="#ffd964"/>
      <path id="Person-2-89" data-name="Person-2" d="M-2100.043,980.272c-.007-4.7,4.489-8.524,10.043-8.532s10.061,3.8,10.068,8.5Zm4.286-15.622a5.746,5.746,0,0,1,5.8-5.691,5.746,5.746,0,0,1,5.691,5.674,5.747,5.747,0,0,1-5.8,5.691A5.746,5.746,0,0,1-2095.757,964.65Z" fill="#ffd964"/>
      <path id="Person-2-90" data-name="Person-2" d="M-1999.031,980.125c-.007-4.7,4.489-8.524,10.043-8.533s10.06,3.8,10.067,8.5Zm4.286-15.623a5.746,5.746,0,0,1,5.8-5.691,5.746,5.746,0,0,1,5.69,5.675,5.745,5.745,0,0,1-5.8,5.69A5.745,5.745,0,0,1-1994.745,964.5Z" fill="#ffd964"/>
      <path id="Person-2-91" data-name="Person-2" d="M-1898.02,979.977c-.007-4.7,4.489-8.524,10.043-8.532s10.061,3.8,10.068,8.5Zm4.286-15.622a5.747,5.747,0,0,1,5.8-5.691,5.746,5.746,0,0,1,5.691,5.674,5.747,5.747,0,0,1-5.8,5.691A5.746,5.746,0,0,1-1893.734,964.355Z" fill="#ffd964"/>
      <path id="Person-2-92" data-name="Person-2" d="M-1923.273,980.014c-.007-4.7,4.489-8.524,10.043-8.532s10.061,3.8,10.068,8.5Zm4.286-15.622a5.746,5.746,0,0,1,5.8-5.691,5.746,5.746,0,0,1,5.691,5.674,5.747,5.747,0,0,1-5.8,5.691A5.746,5.746,0,0,1-1918.987,964.392Z" fill="#ffd964"/>
      <path id="Person-2-93" data-name="Person-2" d="M-1948.526,980.051c-.007-4.7,4.489-8.524,10.043-8.532s10.061,3.8,10.068,8.5Zm4.286-15.622a5.746,5.746,0,0,1,5.8-5.691,5.746,5.746,0,0,1,5.691,5.674,5.747,5.747,0,0,1-5.8,5.691A5.747,5.747,0,0,1-1944.24,964.429Z" fill="#ffd964"/>
      <path id="Person-2-94" data-name="Person-2" d="M-1973.779,980.088c-.007-4.7,4.49-8.524,10.043-8.532s10.061,3.8,10.068,8.5Zm4.286-15.623a5.746,5.746,0,0,1,5.8-5.69,5.746,5.746,0,0,1,5.691,5.674,5.746,5.746,0,0,1-5.8,5.691A5.747,5.747,0,0,1-1969.493,964.465Z" fill="#ffd964"/>
      <path id="Person-2-95" data-name="Person-2" d="M-1872.767,979.94c-.007-4.7,4.489-8.524,10.043-8.532s10.061,3.8,10.067,8.5Zm4.286-15.622a5.746,5.746,0,0,1,5.8-5.691,5.745,5.745,0,0,1,5.69,5.674,5.745,5.745,0,0,1-5.8,5.691A5.745,5.745,0,0,1-1868.481,964.318Z" fill="#ffd964"/>
      <path id="Person-2-96" data-name="Person-2" d="M-1771.756,979.793c-.007-4.7,4.489-8.524,10.043-8.532s10.061,3.8,10.068,8.5Zm4.286-15.622a5.746,5.746,0,0,1,5.8-5.691,5.746,5.746,0,0,1,5.691,5.674,5.747,5.747,0,0,1-5.8,5.691A5.746,5.746,0,0,1-1767.47,964.171Z" fill="#ffd964"/>
      <path id="Person-2-97" data-name="Person-2" d="M-1797.009,979.83c-.007-4.7,4.489-8.524,10.043-8.532s10.061,3.8,10.068,8.5Zm4.286-15.622a5.746,5.746,0,0,1,5.8-5.691,5.746,5.746,0,0,1,5.691,5.674,5.747,5.747,0,0,1-5.8,5.691A5.747,5.747,0,0,1-1792.723,964.208Z" fill="#ffd964"/>
      <path id="Person-2-98" data-name="Person-2" d="M-1822.262,979.867c-.007-4.7,4.49-8.524,10.043-8.532s10.061,3.8,10.068,8.5Zm4.286-15.623a5.747,5.747,0,0,1,5.8-5.691,5.747,5.747,0,0,1,5.691,5.675,5.747,5.747,0,0,1-5.8,5.691A5.747,5.747,0,0,1-1817.976,964.244Z" fill="#ffd964"/>
      <path id="Person-2-99" data-name="Person-2" d="M-1847.515,979.9c-.006-4.7,4.49-8.525,10.044-8.533s10.06,3.8,10.067,8.5Zm4.287-15.623a5.746,5.746,0,0,1,5.8-5.691,5.746,5.746,0,0,1,5.69,5.674,5.745,5.745,0,0,1-5.8,5.691A5.745,5.745,0,0,1-1843.228,964.281Z" fill="#ffd964"/>
      <path id="Person-2-100" data-name="Person-2" d="M-1746.5,979.756c-.007-4.7,4.489-8.524,10.043-8.532s10.061,3.8,10.068,8.5Zm4.286-15.622a5.746,5.746,0,0,1,5.8-5.691,5.746,5.746,0,0,1,5.691,5.674,5.747,5.747,0,0,1-5.8,5.691A5.746,5.746,0,0,1-1742.217,964.134Z" fill="#ffd964"/>
    </g>
    <text id="_2_" data-name="2%" transform="translate(282.597 1279.131)" fill="#4569a0" font-size="72" font-family="OpenSans-Bold, Open Sans" font-weight="700"><tspan x="0" y="0">2%</tspan></text>
    <text id="of_users_find_the_site_hard_to_navigate" data-name="of users find the site hard to navigate" transform="translate(283.498 1293.553)" fill="#333" font-size="17" font-family="OpenSans, Open Sans"><tspan x="0" y="18">of users find </tspan><tspan x="0" y="40">the site hard </tspan><tspan x="0" y="62">to navigate</tspan></text>
    <text id="_37_" data-name="37%" transform="translate(1080.498 1202.353)" fill="#4569a0" font-size="72" font-family="OpenSans-Bold, Open Sans" font-weight="700"><tspan x="1.017" y="77">37%</tspan></text>
    <g id="Group" transform="translate(2774 374.984)">
      <text id="of_users_find_the_" data-name="of users find the " transform="translate(-1693.523 936.476)" fill="#333" font-size="17" font-family="OpenSans, Open Sans"><tspan x="0" y="0">of users find the </tspan></text>
      <text id="site_easy_to_" data-name="site easy to " transform="translate(-1693.494 958.476)" fill="#333" font-size="17" font-family="OpenSans, Open Sans"><tspan x="0" y="0">site easy to </tspan></text>
      <text id="navigate" transform="translate(-1693.464 980.476)" fill="#333" font-size="17" font-family="OpenSans, Open Sans"><tspan x="0" y="0">navigate</tspan></text>
    </g>
    <path id="Path_3945" data-name="Path 3945" stroke="#4569a0" d="M-2363.408,872.184h-11.924v42h-113.076" fill="none" transform="translate(2774 374.984)" stroke-linecap="round" stroke-linejoin="round" stroke-width="2" fill-rule="evenodd"/>
    <g id="Group_4239" data-name="Group 4239" transform="translate(2774 374.984)">
      <circle id="Ellipse_38" data-name="Ellipse 38" cx="4" cy="4" r="4" transform="translate(-1721.44 937.975)" fill="#ffd964"/>
    </g>
    <path id="Path_3946" data-name="Path 3946" stroke="#ffd964" d="M-1713.439,941.985l11.642.029.074-30,154.342.379" fill="none" transform="translate(2774 374.984)" stroke-linecap="round" stroke-linejoin="round" stroke-width="2" fill-rule="evenodd"/>
  </g>
</svg>
