<?xml version="1.0" encoding="utf-8"?>
<!-- Generator: Adobe Illustrator 24.2.0, SVG Export Plug-In . SVG Version: 6.00 Build 0)  -->
<svg version="1.1" id="Layer_1" xmlns="http://www.w3.org/2000/svg" xmlns:xlink="http://www.w3.org/1999/xlink" x="0px" y="0px"
	 viewBox="0 0 947.9 167.4" style="enable-background:new 0 0 947.9 167.4;" xml:space="preserve">
<style type="text/css">
	.st0{fill:#745FD7;}
	.st1{fill:#4A5C74;}
	.st2{fill:#B3A7E9;}
	.st3{enable-background:new    ;}
	.st4{fill:#333333;}
	.st5{fill:none;stroke:#745FD7;stroke-width:2;stroke-linecap:round;stroke-linejoin:round;}
	.st6{fill:none;stroke:#4A5C74;stroke-width:2;stroke-linecap:round;stroke-linejoin:round;}
</style>
<g id="Group_4810" transform="translate(-282.597 -1202.331)">
	<g id="Group_4616" transform="translate(-166 375.184)">
		<circle id="Ellipse_143" class="st0" cx="576.6" cy="872.2" r="4"/>
	</g>
	<g id="Group_4617" transform="translate(-166 375.184)">
		<path id="Person-2" class="st0" d="M612.5,875.3c0-4.7,4.5-8.5,10-8.5s10.1,3.8,10.1,8.5L612.5,875.3z M616.8,859.6
			c0-3.2,2.5-5.8,5.7-5.8c3.2,0,5.8,2.5,5.8,5.7c0,3.2-2.5,5.8-5.7,5.8c0,0-0.1,0-0.1,0C619.4,865.3,616.9,862.8,616.8,859.6
			L616.8,859.6z"/>
		<path id="Person-2-2" class="st0" d="M587.3,875.3c0-4.7,4.5-8.5,10-8.5s10.1,3.8,10.1,8.5L587.3,875.3z M591.6,859.7
			c0-3.2,2.5-5.8,5.7-5.8s5.8,2.5,5.8,5.7c0,3.2-2.5,5.8-5.7,5.8c0,0-0.1,0-0.1,0C594.2,865.3,591.6,862.8,591.6,859.7L591.6,859.7z
			"/>
	</g>
	<path id="Person-2-3" class="st1" d="M749.7,1320.2c0-4.7,4.5-8.5,10-8.5c5.6,0,10.1,3.8,10.1,8.5L749.7,1320.2z M754,1304.6
		c0-3.2,2.5-5.8,5.7-5.8c3.2,0,5.8,2.5,5.8,5.7s-2.5,5.8-5.7,5.8c0,0-0.1,0-0.1,0C756.5,1310.3,754,1307.7,754,1304.6L754,1304.6z"
		/>
	<g id="Group_4618" transform="translate(-166 375.184)">
		<path id="Person-2-4" class="st2" d="M663.1,875.2c0-4.7,4.5-8.5,10-8.5s10.1,3.8,10.1,8.5L663.1,875.2z M667.3,859.6
			c0-3.2,2.5-5.8,5.7-5.8s5.8,2.5,5.8,5.7c0,3.2-2.5,5.8-5.7,5.8c0,0-0.1,0-0.1,0C669.9,865.2,667.4,862.7,667.3,859.6L667.3,859.6z
			"/>
		<path id="Person-2-5" class="st2" d="M637.8,875.2c0-4.7,4.5-8.5,10-8.5s10.1,3.8,10.1,8.5L637.8,875.2z M642.1,859.6
			c0-3.2,2.5-5.8,5.7-5.8s5.8,2.5,5.8,5.7c0,3.2-2.5,5.8-5.7,5.8c0,0-0.1,0-0.1,0C644.7,865.3,642.1,862.7,642.1,859.6L642.1,859.6z
			"/>
		<path id="Person-2-6" class="st2" d="M688.3,875.2c0-4.7,4.5-8.5,10-8.5s10.1,3.8,10.1,8.5L688.3,875.2z M692.6,859.5
			c0-3.2,2.5-5.8,5.7-5.8s5.8,2.5,5.8,5.7c0,3.2-2.5,5.8-5.7,5.8c0,0-0.1,0-0.1,0C695.2,865.2,692.6,862.7,692.6,859.5L692.6,859.5z
			"/>
		<path id="Person-2-7" class="st2" d="M789.3,875c0-4.7,4.5-8.5,10-8.5s10.1,3.8,10.1,8.5L789.3,875z M793.6,859.4
			c0-3.2,2.5-5.8,5.7-5.8c3.2,0,5.8,2.5,5.8,5.7c0,3.2-2.5,5.8-5.7,5.8c0,0-0.1,0-0.1,0C796.2,865,793.6,862.5,793.6,859.4z"/>
		<path id="Person-2-8" class="st2" d="M764.1,875c0-4.7,4.5-8.5,10-8.5s10.1,3.8,10.1,8.5L764.1,875z M768.4,859.4
			c0-3.2,2.5-5.8,5.7-5.8s5.8,2.5,5.8,5.7c0,3.2-2.5,5.8-5.7,5.8c0,0-0.1,0-0.1,0C770.9,865.1,768.4,862.6,768.4,859.4z"/>
		<path id="Person-2-9" class="st2" d="M738.8,875.1c0-4.7,4.5-8.5,10-8.5s10.1,3.8,10.1,8.5L738.8,875.1z M743.1,859.5
			c0-3.2,2.5-5.8,5.7-5.8s5.8,2.5,5.8,5.7c0,3.2-2.5,5.8-5.7,5.8c0,0-0.1,0-0.1,0C745.7,865.1,743.1,862.6,743.1,859.5L743.1,859.5z
			"/>
		<path id="Person-2-10" class="st2" d="M713.6,875.1c0-4.7,4.5-8.5,10-8.5s10.1,3.8,10.1,8.5L713.6,875.1z M717.8,859.5
			c0-3.2,2.5-5.8,5.7-5.8s5.8,2.5,5.8,5.7c0,3.2-2.5,5.8-5.7,5.8c0,0-0.1,0-0.1,0C720.4,865.1,717.9,862.6,717.8,859.5L717.8,859.5z
			"/>
		<path id="Person-2-11" class="st2" d="M814.6,875c0-4.7,4.5-8.5,10-8.5s10.1,3.8,10.1,8.5L814.6,875z M818.9,859.4
			c0-3.2,2.5-5.8,5.7-5.8s5.8,2.5,5.8,5.7c0,3.2-2.5,5.8-5.7,5.8c0,0-0.1,0-0.1,0C821.4,865,818.9,862.5,818.9,859.4z"/>
		<path id="Person-2-12" class="st2" d="M915.6,874.8c0-4.7,4.5-8.5,10-8.5s10.1,3.8,10.1,8.5L915.6,874.8z M919.9,859.2
			c0-3.2,2.5-5.8,5.7-5.8s5.8,2.5,5.8,5.7c0,3.2-2.5,5.8-5.7,5.8c0,0-0.1,0-0.1,0C922.4,864.8,919.9,862.3,919.9,859.2z"/>
		<path id="Person-2-13" class="st2" d="M890.3,874.9c0-4.7,4.5-8.5,10-8.5s10.1,3.8,10.1,8.5L890.3,874.9z M894.6,859.2
			c0-3.2,2.5-5.8,5.7-5.8s5.8,2.5,5.8,5.7c0,3.2-2.5,5.8-5.7,5.8c0,0-0.1,0-0.1,0C897.2,864.9,894.7,862.4,894.6,859.2z"/>
		<path id="Person-2-14" class="st2" d="M865.1,874.9c0-4.7,4.5-8.5,10-8.5s10.1,3.8,10.1,8.5L865.1,874.9z M869.4,859.3
			c0-3.2,2.5-5.8,5.7-5.8s5.8,2.5,5.8,5.7c0,3.2-2.5,5.8-5.7,5.8c0,0-0.1,0-0.1,0C871.9,864.9,869.4,862.4,869.4,859.3L869.4,859.3z
			"/>
		<path id="Person-2-15" class="st2" d="M839.8,874.9c0-4.7,4.5-8.5,10-8.5s10.1,3.8,10.1,8.5L839.8,874.9z M844.1,859.3
			c0-3.2,2.5-5.8,5.7-5.8s5.8,2.5,5.8,5.7c0,3.2-2.5,5.8-5.7,5.8c0,0-0.1,0-0.1,0C846.7,865,844.1,862.4,844.1,859.3z"/>
		<path id="Person-2-16" class="st2" d="M940.8,874.8c0-4.7,4.5-8.5,10-8.5s10.1,3.8,10.1,8.5L940.8,874.8z M945.1,859.2
			c0-3.2,2.5-5.8,5.7-5.8c3.2,0,5.8,2.5,5.8,5.7c0,3.2-2.5,5.8-5.7,5.8c0,0-0.1,0-0.1,0C947.7,864.8,945.2,862.3,945.1,859.2
			L945.1,859.2z"/>
		<path id="Person-2-17" class="st2" d="M1041.8,874.6c0-4.7,4.5-8.5,10-8.5s10.1,3.8,10.1,8.5L1041.8,874.6z M1046.1,859
			c0-3.2,2.5-5.8,5.7-5.8s5.8,2.5,5.8,5.7c0,3.2-2.5,5.8-5.7,5.8c0,0-0.1,0-0.1,0C1048.7,864.7,1046.2,862.1,1046.1,859z"/>
		<path id="Person-2-18" class="st2" d="M1016.6,874.7c0-4.7,4.5-8.5,10-8.5s10.1,3.8,10.1,8.5L1016.6,874.7z M1020.9,859.1
			c0-3.2,2.5-5.8,5.7-5.8c3.2,0,5.8,2.5,5.8,5.7c0,3.2-2.5,5.8-5.7,5.8c0,0-0.1,0-0.1,0C1023.4,864.7,1020.9,862.2,1020.9,859.1z"/>
		<path id="Person-2-19" class="st2" d="M991.3,874.7c0-4.7,4.5-8.5,10-8.5s10.1,3.8,10.1,8.5L991.3,874.7z M995.6,859.1
			c0-3.2,2.5-5.8,5.7-5.8s5.8,2.5,5.8,5.7c0,3.2-2.5,5.8-5.7,5.8c0,0-0.1,0-0.1,0C998.2,864.7,995.7,862.2,995.6,859.1L995.6,859.1z
			"/>
		<path id="Person-2-20" class="st2" d="M966.1,874.8c0-4.7,4.5-8.5,10-8.5s10.1,3.8,10.1,8.5L966.1,874.8z M970.4,859.1
			c0-3.2,2.5-5.8,5.7-5.8s5.8,2.5,5.8,5.7c0,3.2-2.5,5.8-5.7,5.8c0,0-0.1,0-0.1,0C972.9,864.8,970.4,862.3,970.4,859.1z"/>
		<path id="Person-2-21" class="st2" d="M1067.1,874.6c0-4.7,4.5-8.5,10-8.5s10.1,3.8,10.1,8.5L1067.1,874.6z M1071.4,859
			c0-3.2,2.5-5.8,5.7-5.8s5.8,2.5,5.8,5.7c0,3.2-2.5,5.8-5.7,5.8c0,0-0.1,0-0.1,0C1074,864.6,1071.4,862.1,1071.4,859L1071.4,859z"
			/>
		<path id="Person-2-22" class="st2" d="M1168.1,874.5c0-4.7,4.5-8.5,10-8.5s10.1,3.8,10.1,8.5L1168.1,874.5z M1172.4,858.8
			c0-3.2,2.5-5.8,5.7-5.8s5.8,2.5,5.8,5.7c0,3.2-2.5,5.8-5.7,5.8c0,0-0.1,0-0.1,0C1175,864.5,1172.4,862,1172.4,858.8L1172.4,858.8z
			"/>
		<path id="Person-2-23" class="st2" d="M1142.9,874.5c0-4.7,4.5-8.5,10-8.5s10.1,3.8,10.1,8.5L1142.9,874.5z M1147.1,858.9
			c0-3.2,2.5-5.8,5.7-5.8s5.8,2.5,5.8,5.7c0,3.2-2.5,5.8-5.7,5.8c0,0-0.1,0-0.1,0C1149.7,864.5,1147.2,862,1147.1,858.9
			L1147.1,858.9z"/>
		<path id="Person-2-24" class="st2" d="M1117.6,874.5c0-4.7,4.5-8.5,10-8.5s10.1,3.8,10.1,8.5L1117.6,874.5z M1121.9,858.9
			c0-3.2,2.5-5.8,5.7-5.8c3.2,0,5.8,2.5,5.8,5.7c0,3.2-2.5,5.8-5.7,5.8c0,0-0.1,0-0.1,0C1124.5,864.6,1121.9,862,1121.9,858.9
			L1121.9,858.9z"/>
		<path id="Person-2-25" class="st2" d="M1092.4,874.6c0-4.7,4.5-8.5,10-8.5s10.1,3.8,10.1,8.5L1092.4,874.6z M1096.6,858.9
			c0-3.2,2.5-5.8,5.7-5.8s5.8,2.5,5.8,5.7c0,3.2-2.5,5.8-5.7,5.8c0,0-0.1,0-0.1,0C1099.2,864.6,1096.7,862.1,1096.6,858.9
			L1096.6,858.9z"/>
		<path id="Person-2-26" class="st2" d="M1193.4,874.4c0-4.7,4.5-8.5,10-8.5s10.1,3.8,10.1,8.5L1193.4,874.4z M1197.7,858.8
			c0-3.2,2.5-5.8,5.7-5.8s5.8,2.5,5.8,5.7c0,3.2-2.5,5.8-5.7,5.8c0,0-0.1,0-0.1,0C1200.2,864.4,1197.7,861.9,1197.7,858.8
			L1197.7,858.8z"/>
		<path id="Person-2-27" class="st2" d="M663.1,910.3c0-4.7,4.5-8.5,10-8.5s10.1,3.8,10.1,8.5L663.1,910.3z M667.4,894.7
			c0-3.2,2.5-5.8,5.7-5.8s5.8,2.5,5.8,5.7c0,3.2-2.5,5.8-5.7,5.8c0,0-0.1,0-0.1,0C670,900.3,667.4,897.8,667.4,894.7L667.4,894.7z"
			/>
		<path id="Person-2-28" class="st2" d="M637.8,910.3c0-4.7,4.5-8.5,10-8.5s10.1,3.8,10.1,8.5L637.8,910.3z M642.1,894.7
			c0-3.2,2.5-5.8,5.7-5.8s5.8,2.5,5.8,5.7c0,3.2-2.5,5.8-5.7,5.8c0,0-0.1,0-0.1,0C644.7,900.4,642.2,897.8,642.1,894.7L642.1,894.7z
			"/>
		<path id="Person-2-29" class="st2" d="M612.6,910.4c0-4.7,4.5-8.5,10-8.5s10.1,3.8,10.1,8.5L612.6,910.4z M616.9,894.8
			c0-3.2,2.5-5.8,5.7-5.8s5.8,2.5,5.8,5.7c0,3.2-2.5,5.8-5.7,5.8c0,0-0.1,0-0.1,0C619.4,900.4,616.9,897.9,616.9,894.8L616.9,894.8z
			"/>
		<path id="Person-2-30" class="st2" d="M587.3,910.4c0-4.7,4.5-8.5,10-8.5s10.1,3.8,10.1,8.5L587.3,910.4z M591.6,894.8
			c0-3.2,2.5-5.8,5.7-5.8s5.8,2.5,5.8,5.7c0,3.2-2.5,5.8-5.7,5.8c0,0-0.1,0-0.1,0C594.2,900.4,591.7,897.9,591.6,894.8L591.6,894.8z
			"/>
		<path id="Person-2-31" class="st2" d="M688.4,910.3c0-4.7,4.5-8.5,10-8.5s10.1,3.8,10.1,8.5L688.4,910.3z M692.6,894.6
			c0-3.2,2.5-5.8,5.7-5.8s5.8,2.5,5.8,5.7c0,3.2-2.5,5.8-5.7,5.8c0,0-0.1,0-0.1,0C695.2,900.3,692.7,897.8,692.6,894.6z"/>
		<path id="Person-2-32" class="st2" d="M789.4,910.1c0-4.7,4.5-8.5,10-8.5s10.1,3.8,10.1,8.5L789.4,910.1z M793.6,894.5
			c0-3.2,2.5-5.8,5.7-5.8c3.2,0,5.8,2.5,5.8,5.7c0,3.2-2.5,5.8-5.7,5.8c0,0-0.1,0-0.1,0C796.2,900.1,793.7,897.6,793.6,894.5
			L793.6,894.5z"/>
		<path id="Person-2-33" class="st2" d="M764.1,910.2c0-4.7,4.5-8.5,10-8.5s10.1,3.8,10.1,8.5L764.1,910.2z M768.4,894.5
			c0-3.2,2.5-5.8,5.7-5.8s5.8,2.5,5.8,5.7c0,3.2-2.5,5.8-5.7,5.8c0,0-0.1,0-0.1,0C771,900.2,768.4,897.7,768.4,894.5L768.4,894.5z"
			/>
		<path id="Person-2-34" class="st2" d="M738.9,910.2c0-4.7,4.5-8.5,10-8.5s10.1,3.8,10.1,8.5L738.9,910.2z M743.1,894.6
			c0-3.2,2.5-5.8,5.7-5.8s5.8,2.5,5.8,5.7c0,3.2-2.5,5.8-5.7,5.8c0,0-0.1,0-0.1,0C745.7,900.2,743.2,897.7,743.1,894.6L743.1,894.6z
			"/>
		<path id="Person-2-35" class="st2" d="M713.6,910.2c0-4.7,4.5-8.5,10-8.5s10.1,3.8,10.1,8.5L713.6,910.2z M717.9,894.6
			c0-3.2,2.5-5.8,5.7-5.8s5.8,2.5,5.8,5.7c0,3.2-2.5,5.8-5.7,5.8c0,0-0.1,0-0.1,0C720.5,900.3,717.9,897.7,717.9,894.6L717.9,894.6z
			"/>
		<path id="Person-2-36" class="st2" d="M814.6,910.1c0-4.7,4.5-8.5,10-8.5s10.1,3.8,10.1,8.5L814.6,910.1z M818.9,894.5
			c0-3.2,2.5-5.8,5.7-5.8s5.8,2.5,5.8,5.7c0,3.2-2.5,5.8-5.7,5.8c0,0-0.1,0-0.1,0C821.5,900.1,818.9,897.6,818.9,894.5L818.9,894.5z
			"/>
		<path id="Person-2-37" class="st2" d="M915.6,909.9c0-4.7,4.5-8.5,10-8.5s10.1,3.8,10.1,8.5L915.6,909.9z M919.9,894.3
			c0-3.2,2.5-5.8,5.7-5.8s5.8,2.5,5.8,5.7c0,3.2-2.5,5.8-5.7,5.8c0,0-0.1,0-0.1,0C922.5,900,920,897.4,919.9,894.3z"/>
		<path id="Person-2-38" class="st2" d="M890.4,910c0-4.7,4.5-8.5,10-8.5s10.1,3.8,10.1,8.5L890.4,910z M894.7,894.4
			c0-3.2,2.5-5.8,5.7-5.8s5.8,2.5,5.8,5.7c0,3.2-2.5,5.8-5.7,5.8c0,0-0.1,0-0.1,0C897.2,900,894.7,897.5,894.7,894.4L894.7,894.4z"
			/>
		<path id="Person-2-39" class="st2" d="M865.1,910c0-4.7,4.5-8.5,10-8.5s10.1,3.8,10.1,8.5L865.1,910z M869.4,894.4
			c0-3.2,2.5-5.8,5.7-5.8s5.8,2.5,5.8,5.7c0,3.2-2.5,5.8-5.7,5.8c0,0-0.1,0-0.1,0C872,900,869.4,897.5,869.4,894.4z"/>
		<path id="Person-2-40" class="st2" d="M839.9,910c0-4.7,4.5-8.5,10-8.5s10.1,3.8,10.1,8.5L839.9,910z M844.2,894.4
			c0-3.2,2.5-5.8,5.7-5.8s5.8,2.5,5.8,5.7c0,3.2-2.5,5.8-5.7,5.8c0,0-0.1,0-0.1,0C846.7,900.1,844.2,897.6,844.2,894.4z"/>
		<path id="Person-2-41" class="st2" d="M940.9,909.9c0-4.7,4.5-8.5,10-8.5s10.1,3.8,10.1,8.5L940.9,909.9z M945.2,894.3
			c0-3.2,2.5-5.8,5.7-5.8s5.8,2.5,5.8,5.7c0,3.2-2.5,5.8-5.7,5.8c0,0-0.1,0-0.1,0C947.7,899.9,945.2,897.4,945.2,894.3L945.2,894.3z
			"/>
		<path id="Person-2-42" class="st2" d="M1041.9,909.8c0-4.7,4.5-8.5,10-8.5s10.1,3.8,10.1,8.5L1041.9,909.8z M1046.2,894.1
			c0-3.2,2.5-5.8,5.7-5.8s5.8,2.5,5.8,5.7c0,3.2-2.5,5.8-5.7,5.8c0,0-0.1,0-0.1,0C1048.7,899.8,1046.2,897.3,1046.2,894.1z"/>
		<path id="Person-2-43" class="st2" d="M1016.6,909.8c0-4.7,4.5-8.5,10-8.5c5.6,0,10.1,3.8,10.1,8.5L1016.6,909.8z M1020.9,894.2
			c0-3.2,2.5-5.8,5.7-5.8c3.2,0,5.8,2.5,5.8,5.7c0,3.2-2.5,5.8-5.7,5.8c0,0-0.1,0-0.1,0C1023.5,899.8,1021,897.3,1020.9,894.2z"/>
		<path id="Person-2-44" class="st2" d="M991.4,909.8c0-4.7,4.5-8.5,10-8.5s10.1,3.8,10.1,8.5L991.4,909.8z M995.7,894.2
			c0-3.2,2.5-5.8,5.7-5.8s5.8,2.5,5.8,5.7c0,3.2-2.5,5.8-5.7,5.8c0,0-0.1,0-0.1,0C998.2,899.9,995.7,897.3,995.7,894.2z"/>
		<path id="Person-2-45" class="st2" d="M966.1,909.9c0-4.7,4.5-8.5,10-8.5s10.1,3.8,10.1,8.5L966.1,909.9z M970.4,894.2
			c0-3.2,2.5-5.8,5.7-5.8s5.8,2.5,5.8,5.7c0,3.2-2.5,5.8-5.7,5.8c0,0-0.1,0-0.1,0C973,899.9,970.5,897.4,970.4,894.2z"/>
		<path id="Person-2-46" class="st2" d="M1067.1,909.7c0-4.7,4.5-8.5,10-8.5s10.1,3.8,10.1,8.5L1067.1,909.7z M1071.4,894.1
			c0-3.2,2.5-5.8,5.7-5.8s5.8,2.5,5.8,5.7c0,3.2-2.5,5.8-5.7,5.8c0,0-0.1,0-0.1,0C1074,899.7,1071.5,897.2,1071.4,894.1
			L1071.4,894.1z"/>
		<path id="Person-2-47" class="st2" d="M1168.2,909.6c0-4.7,4.5-8.5,10-8.5s10.1,3.8,10.1,8.5L1168.2,909.6z M1172.4,893.9
			c0-3.2,2.5-5.8,5.7-5.8s5.8,2.5,5.8,5.7c0,3.2-2.5,5.8-5.7,5.8c0,0-0.1,0-0.1,0C1175,899.6,1172.5,897.1,1172.4,893.9z"/>
		<path id="Person-2-48" class="st2" d="M1142.9,909.6c0-4.7,4.5-8.5,10-8.5s10.1,3.8,10.1,8.5L1142.9,909.6z M1147.2,894
			c0-3.2,2.5-5.8,5.7-5.8s5.8,2.5,5.8,5.7c0,3.2-2.5,5.8-5.7,5.8c0,0-0.1,0-0.1,0C1149.8,899.6,1147.2,897.1,1147.2,894L1147.2,894z
			"/>
		<path id="Person-2-49" class="st2" d="M1117.7,909.6c0-4.7,4.5-8.5,10-8.5s10.1,3.8,10.1,8.5L1117.7,909.6z M1121.9,894
			c0-3.2,2.5-5.8,5.7-5.8c3.2,0,5.8,2.5,5.8,5.7c0,3.2-2.5,5.8-5.7,5.8c0,0-0.1,0-0.1,0C1124.5,899.7,1122,897.1,1121.9,894
			L1121.9,894z"/>
		<path id="Person-2-50" class="st2" d="M1092.4,909.7c0-4.7,4.5-8.5,10-8.5s10.1,3.8,10.1,8.5L1092.4,909.7z M1096.7,894.1
			c0-3.2,2.5-5.8,5.7-5.8s5.8,2.5,5.8,5.7c0,3.2-2.5,5.8-5.7,5.8c0,0-0.1,0-0.1,0C1099.3,899.7,1096.7,897.2,1096.7,894.1
			L1096.7,894.1z"/>
		<path id="Person-2-51" class="st2" d="M1193.4,909.5c0-4.7,4.5-8.5,10-8.5s10.1,3.8,10.1,8.5L1193.4,909.5z M1197.7,893.9
			c0-3.2,2.5-5.8,5.7-5.8s5.8,2.5,5.8,5.7c0,3.2-2.5,5.8-5.7,5.8c0,0-0.1,0-0.1,0C1200.3,899.6,1197.7,897,1197.7,893.9z"/>
		<path id="Person-2-52" class="st2" d="M663.1,945.4c0-4.7,4.5-8.5,10-8.5s10.1,3.8,10.1,8.5L663.1,945.4z M667.4,929.8
			c0-3.2,2.5-5.8,5.7-5.8s5.8,2.5,5.8,5.7c0,3.2-2.5,5.8-5.7,5.8c0,0-0.1,0-0.1,0C670,935.4,667.5,932.9,667.4,929.8L667.4,929.8z"
			/>
		<path id="Person-2-53" class="st2" d="M637.9,945.5c0-4.7,4.5-8.5,10-8.5s10.1,3.8,10.1,8.5L637.9,945.5z M642.2,929.8
			c0-3.2,2.5-5.8,5.7-5.8s5.8,2.5,5.8,5.7c0,3.2-2.5,5.8-5.7,5.8c0,0-0.1,0-0.1,0C644.7,935.5,642.2,933,642.2,929.8z"/>
		<path id="Person-2-54" class="st2" d="M612.6,945.5c0-4.7,4.5-8.5,10-8.5s10.1,3.8,10.1,8.5L612.6,945.5z M616.9,929.9
			c0-3.2,2.5-5.8,5.7-5.8s5.8,2.5,5.8,5.7c0,3.2-2.5,5.8-5.7,5.8c0,0-0.1,0-0.1,0C619.5,935.5,617,933,616.9,929.9L616.9,929.9z"/>
		<path id="Person-2-55" class="st2" d="M587.4,945.5c0-4.7,4.5-8.5,10-8.5s10.1,3.8,10.1,8.5L587.4,945.5z M591.7,929.9
			c0-3.2,2.5-5.8,5.7-5.8s5.8,2.5,5.8,5.7c0,3.2-2.5,5.8-5.7,5.8c0,0-0.1,0-0.1,0C594.2,935.6,591.7,933,591.7,929.9z"/>
		<path id="Person-2-56" class="st2" d="M688.4,945.4c0-4.7,4.5-8.5,10-8.5s10.1,3.8,10.1,8.5L688.4,945.4z M692.7,929.8
			c0-3.2,2.5-5.8,5.7-5.8s5.8,2.5,5.8,5.7c0,3.2-2.5,5.8-5.7,5.8c0,0-0.1,0-0.1,0C695.3,935.4,692.7,932.9,692.7,929.8L692.7,929.8z
			"/>
		<path id="Person-2-57" class="st2" d="M789.4,945.2c0-4.7,4.5-8.5,10-8.5s10.1,3.8,10.1,8.5L789.4,945.2z M793.7,929.6
			c0-3.2,2.5-5.8,5.7-5.8c3.2,0,5.8,2.5,5.8,5.7c0,3.2-2.5,5.8-5.7,5.8c0,0-0.1,0-0.1,0C796.3,935.3,793.7,932.7,793.7,929.6z"/>
		<path id="Person-2-58" class="st2" d="M764.2,945.3c0-4.7,4.5-8.5,10-8.5s10.1,3.8,10.1,8.5L764.2,945.3z M768.4,929.6
			c0-3.2,2.5-5.8,5.7-5.8s5.8,2.5,5.8,5.7c0,3.2-2.5,5.8-5.7,5.8c0,0-0.1,0-0.1,0C771,935.3,768.5,932.8,768.4,929.6z"/>
		<path id="Person-2-59" class="st2" d="M738.9,945.3c0-4.7,4.5-8.5,10-8.5s10.1,3.8,10.1,8.5L738.9,945.3z M743.2,929.7
			c0-3.2,2.5-5.8,5.7-5.8s5.8,2.5,5.8,5.7c0,3.2-2.5,5.8-5.7,5.8c0,0-0.1,0-0.1,0C745.8,935.3,743.2,932.8,743.2,929.7L743.2,929.7z
			"/>
		<path id="Person-2-60" class="st2" d="M713.6,945.3c0-4.7,4.5-8.5,10-8.5s10.1,3.8,10.1,8.5L713.6,945.3z M717.9,929.7
			c0-3.2,2.5-5.8,5.7-5.8s5.8,2.5,5.8,5.7c0,3.2-2.5,5.8-5.7,5.8c0,0-0.1,0-0.1,0C720.5,935.4,718,932.8,717.9,929.7L717.9,929.7z"
			/>
		<path id="Person-2-61" class="st2" d="M814.7,945.2c0-4.7,4.5-8.5,10-8.5s10.1,3.8,10.1,8.5L814.7,945.2z M818.9,929.6
			c0-3.2,2.5-5.8,5.7-5.8s5.8,2.5,5.8,5.7c0,3.2-2.5,5.8-5.7,5.8c0,0-0.1,0-0.1,0C821.5,935.2,819,932.7,818.9,929.6L818.9,929.6z"
			/>
		<path id="Person-2-62" class="st2" d="M890.4,945.1c0-4.7,4.5-8.5,10-8.5s10.1,3.8,10.1,8.5L890.4,945.1z M894.7,929.5
			c0-3.2,2.5-5.8,5.7-5.8s5.8,2.5,5.8,5.7c0,3.2-2.5,5.8-5.7,5.8c0,0-0.1,0-0.1,0C897.3,935.1,894.7,932.6,894.7,929.5L894.7,929.5z
			"/>
		<path id="Person-2-63" class="st2" d="M865.2,945.1c0-4.7,4.5-8.5,10-8.5s10.1,3.8,10.1,8.5L865.2,945.1z M869.5,929.5
			c0-3.2,2.5-5.8,5.7-5.8s5.8,2.5,5.8,5.7c0,3.2-2.5,5.8-5.7,5.8c0,0-0.1,0-0.1,0C872,935.1,869.5,932.6,869.5,929.5L869.5,929.5z"
			/>
		<path id="Person-2-64" class="st2" d="M839.9,945.2c0-4.7,4.5-8.5,10-8.5s10.1,3.8,10.1,8.5L839.9,945.2z M844.2,929.5
			c0-3.2,2.5-5.8,5.7-5.8s5.8,2.5,5.8,5.7c0,3.2-2.5,5.8-5.7,5.8c0,0-0.1,0-0.1,0C846.8,935.2,844.2,932.7,844.2,929.5L844.2,929.5z
			"/>
	</g>
	<path id="Person-2-65" class="st1" d="M774.9,1320.2c0-4.7,4.5-8.5,10-8.5s10.1,3.8,10.1,8.5L774.9,1320.2z M779.2,1304.6
		c0-3.2,2.5-5.8,5.7-5.8c3.2,0,5.8,2.5,5.8,5.7s-2.5,5.8-5.7,5.8c0,0-0.1,0-0.1,0C781.8,1310.2,779.2,1307.7,779.2,1304.6z"/>
	<path id="Person-2-66" class="st1" d="M875.9,1320.1c0-4.7,4.5-8.5,10-8.5c5.6,0,10.1,3.8,10.1,8.5L875.9,1320.1z M880.2,1304.4
		c0-3.2,2.5-5.8,5.7-5.8c3.2,0,5.8,2.5,5.8,5.7c0,3.2-2.5,5.8-5.7,5.8c0,0-0.1,0-0.1,0C882.8,1310.1,880.3,1307.6,880.2,1304.4
		L880.2,1304.4z"/>
	<path id="Person-2-67" class="st1" d="M850.7,1320.1c0-4.7,4.5-8.5,10-8.5c5.6,0,10.1,3.8,10.1,8.5L850.7,1320.1z M855,1304.5
		c0-3.2,2.5-5.8,5.7-5.8c3.2,0,5.8,2.5,5.8,5.7c0,3.2-2.5,5.8-5.7,5.8c0,0-0.1,0-0.1,0C857.5,1310.1,855,1307.6,855,1304.5
		L855,1304.5z"/>
	<path id="Person-2-68" class="st1" d="M825.4,1320.1c0-4.7,4.5-8.5,10-8.5c5.6,0,10.1,3.8,10.1,8.5L825.4,1320.1z M829.7,1304.5
		c0-3.2,2.5-5.8,5.7-5.8c3.2,0,5.8,2.5,5.8,5.7s-2.5,5.8-5.7,5.8c0,0-0.1,0-0.1,0C832.3,1310.1,829.8,1307.6,829.7,1304.5z"/>
	<path id="Person-2-69" class="st1" d="M800.2,1320.2c0-4.7,4.5-8.5,10-8.5c5.6,0,10.1,3.8,10.1,8.5L800.2,1320.2z M804.5,1304.5
		c0-3.2,2.5-5.8,5.7-5.8c3.2,0,5.8,2.5,5.8,5.7s-2.5,5.8-5.7,5.8c0,0-0.1,0-0.1,0C807,1310.2,804.5,1307.7,804.5,1304.5z"/>
	<path id="Person-2-70" class="st1" d="M901.2,1320c0-4.7,4.5-8.5,10-8.5c5.6,0,10.1,3.8,10.1,8.5L901.2,1320z M905.5,1304.4
		c0-3.2,2.5-5.8,5.7-5.8c3.2,0,5.8,2.5,5.8,5.7c0,3.2-2.5,5.8-5.7,5.8c0,0-0.1,0-0.1,0C908,1310,905.5,1307.5,905.5,1304.4z"/>
	<path id="Person-2-71" class="st1" d="M1002.2,1319.9c0-4.7,4.5-8.5,10-8.5c5.6,0,10.1,3.8,10.1,8.5L1002.2,1319.9z M1006.5,1304.2
		c0-3.2,2.5-5.8,5.7-5.8c3.2,0,5.8,2.5,5.8,5.7c0,3.2-2.5,5.8-5.7,5.8c0,0-0.1,0-0.1,0C1009.1,1309.9,1006.5,1307.4,1006.5,1304.2
		L1006.5,1304.2z"/>
	<path id="Person-2-72" class="st1" d="M976.9,1319.9c0-4.7,4.5-8.5,10-8.5c5.6,0,10.1,3.8,10.1,8.5L976.9,1319.9z M981.2,1304.3
		c0-3.2,2.5-5.8,5.7-5.8c3.2,0,5.8,2.5,5.8,5.7c0,3.2-2.5,5.8-5.7,5.8c0,0-0.1,0-0.1,0C983.8,1309.9,981.3,1307.4,981.2,1304.3
		L981.2,1304.3z"/>
	<path id="Person-2-73" class="st1" d="M951.7,1319.9c0-4.7,4.5-8.5,10-8.5c5.6,0,10.1,3.8,10.1,8.5L951.7,1319.9z M956,1304.3
		c0-3.2,2.5-5.8,5.7-5.8c3.2,0,5.8,2.5,5.8,5.7c0,3.2-2.5,5.8-5.7,5.8c0,0-0.1,0-0.1,0C958.5,1310,956,1307.4,956,1304.3z"/>
	<path id="Person-2-74" class="st1" d="M926.4,1320c0-4.7,4.5-8.5,10-8.5c5.6,0,10.1,3.8,10.1,8.5L926.4,1320z M930.7,1304.4
		c0-3.2,2.5-5.8,5.7-5.8c3.2,0,5.8,2.5,5.8,5.7c0,3.2-2.5,5.8-5.7,5.8c0,0-0.1,0-0.1,0C933.3,1310,930.8,1307.5,930.7,1304.4
		L930.7,1304.4z"/>
	<path id="Person-2-75" class="st1" d="M1027.5,1319.8c0-4.7,4.5-8.5,10-8.5c5.6,0,10.1,3.8,10.1,8.5L1027.5,1319.8z M1031.7,1304.2
		c0-3.2,2.5-5.8,5.7-5.8c3.2,0,5.8,2.5,5.8,5.7c0,3.2-2.5,5.8-5.7,5.8c0,0-0.1,0-0.1,0C1034.3,1309.9,1031.8,1307.3,1031.7,1304.2z"
		/>
	<g id="Group_4619" transform="translate(-166 375.184)">
		<path id="Person-2-76" class="st1" d="M663.2,980.5c0-4.7,4.5-8.5,10-8.5s10.1,3.8,10.1,8.5L663.2,980.5z M667.5,964.9
			c0-3.2,2.5-5.8,5.7-5.8s5.8,2.5,5.8,5.7c0,3.2-2.5,5.8-5.7,5.8c0,0-0.1,0-0.1,0C670,970.6,667.5,968,667.5,964.9z"/>
		<path id="Person-2-77" class="st1" d="M637.9,980.6c0-4.7,4.5-8.5,10-8.5s10.1,3.8,10.1,8.5L637.9,980.6z M642.2,964.9
			c0-3.2,2.5-5.8,5.7-5.8c3.2,0,5.8,2.5,5.8,5.7c0,3.2-2.5,5.8-5.7,5.8c0,0-0.1,0-0.1,0C644.8,970.6,642.3,968.1,642.2,964.9
			L642.2,964.9z"/>
		<path id="Person-2-78" class="st1" d="M612.7,980.6c0-4.7,4.5-8.5,10-8.5s10.1,3.8,10.1,8.5L612.7,980.6z M617,965
			c0-3.2,2.5-5.8,5.7-5.8s5.8,2.5,5.8,5.7c0,3.2-2.5,5.8-5.7,5.8c0,0-0.1,0-0.1,0C619.5,970.6,617,968.1,617,965L617,965z"/>
		<path id="Person-2-79" class="st1" d="M587.4,980.6c0-4.7,4.5-8.5,10-8.5s10.1,3.8,10.1,8.5L587.4,980.6z M591.7,965
			c0-3.2,2.5-5.8,5.7-5.8s5.8,2.5,5.8,5.7c0,3.2-2.5,5.8-5.7,5.8c0,0-0.1,0-0.1,0C594.3,970.7,591.8,968.1,591.7,965z"/>
		<path id="Person-2-80" class="st1" d="M688.4,980.5c0-4.7,4.5-8.5,10-8.5s10.1,3.8,10.1,8.5L688.4,980.5z M692.7,964.9
			c0-3.2,2.5-5.8,5.7-5.8s5.8,2.5,5.8,5.7c0,3.2-2.5,5.8-5.7,5.8c0,0-0.1,0-0.1,0C695.3,970.5,692.8,968,692.7,964.9z"/>
		<path id="Person-2-81" class="st1" d="M789.5,980.3c0-4.7,4.5-8.5,10-8.5s10.1,3.8,10.1,8.5L789.5,980.3z M793.7,964.7
			c0-3.2,2.5-5.8,5.7-5.8c3.2,0,5.8,2.5,5.8,5.7c0,3.2-2.5,5.8-5.7,5.8c0,0-0.1,0-0.1,0C796.3,970.4,793.8,967.8,793.7,964.7
			L793.7,964.7z"/>
		<path id="Person-2-82" class="st1" d="M764.2,980.4c0-4.7,4.5-8.5,10-8.5s10.1,3.8,10.1,8.5L764.2,980.4z M768.5,964.8
			c0-3.2,2.5-5.8,5.7-5.8s5.8,2.5,5.8,5.7c0,3.2-2.5,5.8-5.7,5.8c0,0-0.1,0-0.1,0C771.1,970.4,768.5,967.9,768.5,964.8L768.5,964.8z
			"/>
		<path id="Person-2-83" class="st1" d="M738.9,980.4c0-4.7,4.5-8.5,10-8.5s10.1,3.8,10.1,8.5L738.9,980.4z M743.2,964.8
			c0-3.2,2.5-5.8,5.7-5.8s5.8,2.5,5.8,5.7c0,3.2-2.5,5.8-5.7,5.8c0,0-0.1,0-0.1,0C745.8,970.4,743.3,967.9,743.2,964.8L743.2,964.8z
			"/>
		<path id="Person-2-84" class="st1" d="M713.7,980.5c0-4.7,4.5-8.5,10-8.5s10.1,3.8,10.1,8.5L713.7,980.5z M718,964.8
			c0-3.2,2.5-5.8,5.7-5.8s5.8,2.5,5.8,5.7c0,3.2-2.5,5.8-5.7,5.8c0,0-0.1,0-0.1,0C720.5,970.5,718,968,718,964.8z"/>
		<path id="Person-2-85" class="st1" d="M814.7,980.3c0-4.7,4.5-8.5,10-8.5s10.1,3.8,10.1,8.5L814.7,980.3z M819,964.7
			c0-3.2,2.5-5.8,5.7-5.8s5.8,2.5,5.8,5.7c0,3.2-2.5,5.8-5.7,5.8c0,0-0.1,0-0.1,0C821.6,970.3,819,967.8,819,964.7L819,964.7z"/>
		<path id="Person-2-86" class="st1" d="M915.7,980.2c0-4.7,4.5-8.5,10-8.5s10.1,3.8,10.1,8.5L915.7,980.2z M920,964.5
			c0-3.2,2.5-5.8,5.7-5.8s5.8,2.5,5.8,5.7c0,3.2-2.5,5.8-5.7,5.8c0,0-0.1,0-0.1,0C922.6,970.2,920,967.7,920,964.5z"/>
		<path id="Person-2-87" class="st1" d="M890.5,980.2c0-4.7,4.5-8.5,10-8.5s10.1,3.8,10.1,8.5L890.5,980.2z M894.7,964.6
			c0-3.2,2.5-5.8,5.7-5.8s5.8,2.5,5.8,5.7c0,3.2-2.5,5.8-5.7,5.8c0,0-0.1,0-0.1,0C897.3,970.2,894.8,967.7,894.7,964.6L894.7,964.6z
			"/>
		<path id="Person-2-88" class="st1" d="M865.2,980.2c0-4.7,4.5-8.5,10-8.5s10.1,3.8,10.1,8.5L865.2,980.2z M869.5,964.6
			c0-3.2,2.5-5.8,5.7-5.8s5.8,2.5,5.8,5.7c0,3.2-2.5,5.8-5.7,5.8c0,0-0.1,0-0.1,0C872.1,970.3,869.5,967.7,869.5,964.6L869.5,964.6z
			"/>
		<path id="Person-2-89" class="st1" d="M840,980.3c0-4.7,4.5-8.5,10-8.5s10.1,3.8,10.1,8.5L840,980.3z M844.2,964.6
			c0-3.2,2.5-5.8,5.7-5.8s5.8,2.5,5.8,5.7c0,3.2-2.5,5.8-5.7,5.8c0,0-0.1,0-0.1,0C846.8,970.3,844.3,967.8,844.2,964.6L844.2,964.6z
			"/>
		<path id="Person-2-90" class="st1" d="M941,980.1c0-4.7,4.5-8.5,10-8.5s10.1,3.8,10.1,8.5L941,980.1z M945.3,964.5
			c0-3.2,2.5-5.8,5.7-5.8s5.8,2.5,5.8,5.7c0,3.2-2.5,5.8-5.7,5.8c0,0-0.1,0-0.1,0C947.8,970.1,945.3,967.6,945.3,964.5L945.3,964.5z
			"/>
		<path id="Person-2-91" class="st1" d="M1042,980c0-4.7,4.5-8.5,10-8.5s10.1,3.8,10.1,8.5L1042,980z M1046.3,964.4
			c0-3.2,2.5-5.8,5.7-5.8s5.8,2.5,5.8,5.7c0,3.2-2.5,5.8-5.7,5.8c0,0-0.1,0-0.1,0C1048.8,970,1046.3,967.5,1046.3,964.4z"/>
		<path id="Person-2-92" class="st1" d="M1016.7,980c0-4.7,4.5-8.5,10-8.5c5.6,0,10.1,3.8,10.1,8.5L1016.7,980z M1021,964.4
			c0-3.2,2.5-5.8,5.7-5.8c3.2,0,5.8,2.5,5.8,5.7c0,3.2-2.5,5.8-5.7,5.8c0,0-0.1,0-0.1,0C1023.6,970,1021.1,967.5,1021,964.4
			L1021,964.4z"/>
		<path id="Person-2-93" class="st1" d="M991.5,980.1c0-4.7,4.5-8.5,10-8.5s10.1,3.8,10.1,8.5L991.5,980.1z M995.8,964.4
			c0-3.2,2.5-5.8,5.7-5.8s5.8,2.5,5.8,5.7c0,3.2-2.5,5.8-5.7,5.8c0,0-0.1,0-0.1,0C998.3,970.1,995.8,967.6,995.8,964.4z"/>
		<path id="Person-2-94" class="st1" d="M966.2,980.1c0-4.7,4.5-8.5,10-8.5s10.1,3.8,10.1,8.5L966.2,980.1z M970.5,964.5
			c0-3.2,2.5-5.8,5.7-5.8c3.2,0,5.8,2.5,5.8,5.7c0,3.2-2.5,5.8-5.7,5.8c0,0-0.1,0-0.1,0C973.1,970.1,970.5,967.6,970.5,964.5z"/>
		<path id="Person-2-95" class="st1" d="M1067.2,979.9c0-4.7,4.5-8.5,10-8.5s10.1,3.8,10.1,8.5L1067.2,979.9z M1071.5,964.3
			c0-3.2,2.5-5.8,5.7-5.8s5.8,2.5,5.8,5.7c0,3.2-2.5,5.8-5.7,5.8c0,0-0.1,0-0.1,0C1074.1,970,1071.6,967.4,1071.5,964.3z"/>
		<path id="Person-2-96" class="st1" d="M1168.2,979.8c0-4.7,4.5-8.5,10-8.5s10.1,3.8,10.1,8.5L1168.2,979.8z M1172.5,964.2
			c0-3.2,2.5-5.8,5.7-5.8s5.8,2.5,5.8,5.7c0,3.2-2.5,5.8-5.7,5.8c0,0-0.1,0-0.1,0C1175.1,969.8,1172.6,967.3,1172.5,964.2z"/>
		<path id="Person-2-97" class="st1" d="M1143,979.8c0-4.7,4.5-8.5,10-8.5s10.1,3.8,10.1,8.5L1143,979.8z M1147.3,964.2
			c0-3.2,2.5-5.8,5.7-5.8s5.8,2.5,5.8,5.7c0,3.2-2.5,5.8-5.7,5.8c0,0-0.1,0-0.1,0C1149.8,969.9,1147.3,967.3,1147.3,964.2z"/>
		<path id="Person-2-98" class="st1" d="M1117.7,979.9c0-4.7,4.5-8.5,10-8.5s10.1,3.8,10.1,8.5L1117.7,979.9z M1122,964.2
			c0-3.2,2.5-5.8,5.7-5.8c3.2,0,5.8,2.5,5.8,5.7c0,3.2-2.5,5.8-5.7,5.8c0,0-0.1,0-0.1,0C1124.6,969.9,1122.1,967.4,1122,964.2z"/>
		<path id="Person-2-99" class="st1" d="M1092.5,979.9c0-4.7,4.5-8.5,10-8.5s10.1,3.8,10.1,8.5L1092.5,979.9z M1096.8,964.3
			c0-3.2,2.5-5.8,5.7-5.8s5.8,2.5,5.8,5.7c0,3.2-2.5,5.8-5.7,5.8c0,0-0.1,0-0.1,0C1099.3,969.9,1096.8,967.4,1096.8,964.3
			L1096.8,964.3z"/>
		<path id="Person-2-100" class="st1" d="M1193.5,979.8c0-4.7,4.5-8.5,10-8.5s10.1,3.8,10.1,8.5L1193.5,979.8z M1197.8,964.1
			c0-3.2,2.5-5.8,5.7-5.8s5.8,2.5,5.8,5.7c0,3.2-2.5,5.8-5.7,5.8c0,0-0.1,0-0.1,0C1200.4,969.8,1197.8,967.3,1197.8,964.1
			L1197.8,964.1z"/>
	</g>
	<g class="st3">
		<path class="st0" d="M321.4,1279.3h-35.9v-7.6l12.9-13c3.8-3.9,6.3-6.6,7.5-8.1c1.2-1.5,2-2.9,2.5-4.2c0.5-1.3,0.8-2.6,0.8-4
			c0-2.1-0.6-3.6-1.7-4.6c-1.1-1-2.7-1.5-4.6-1.5c-2,0-3.9,0.5-5.8,1.4c-1.9,0.9-3.8,2.2-5.9,3.9l-5.9-7c2.5-2.2,4.6-3.7,6.3-4.6
			c1.7-0.9,3.5-1.6,5.4-2.1s4.2-0.7,6.6-0.7c3.2,0,6,0.6,8.5,1.8s4.4,2.8,5.7,4.9c1.4,2.1,2,4.5,2,7.2c0,2.4-0.4,4.6-1.2,6.7
			c-0.8,2.1-2.1,4.2-3.9,6.4c-1.7,2.2-4.8,5.3-9.2,9.3l-6.6,6.2v0.5h22.4V1279.3z"/>
		<path class="st0" d="M350.3,1243.3c0,5.4-1,9.4-3.1,12.1c-2.1,2.7-5.1,4.1-9.2,4.1c-3.9,0-6.9-1.4-9-4.2s-3.2-6.8-3.2-12
			c0-10.7,4-16.1,12.1-16.1c4,0,7,1.4,9.1,4.2C349.3,1234.1,350.3,1238.1,350.3,1243.3z M334.8,1243.3c0,3,0.3,5.2,0.8,6.7
			s1.4,2.2,2.5,2.2c2.2,0,3.4-3,3.4-8.9c0-5.9-1.1-8.8-3.4-8.8c-1.2,0-2,0.7-2.5,2.2S334.8,1240.4,334.8,1243.3z M374.5,1227.9
			l-28.5,51.4h-8.4l28.5-51.4H374.5z M386.3,1263.8c0,5.4-1,9.4-3.1,12.1c-2.1,2.7-5.1,4.1-9.2,4.1c-3.9,0-6.9-1.4-9-4.2
			s-3.2-6.8-3.2-12c0-10.7,4-16.1,12.1-16.1c4,0,7,1.4,9.1,4.2C385.3,1254.7,386.3,1258.6,386.3,1263.8z M370.8,1263.9
			c0,3,0.3,5.2,0.8,6.7s1.4,2.2,2.5,2.2c2.2,0,3.4-3,3.4-8.9c0-5.9-1.1-8.8-3.4-8.8c-1.2,0-2,0.7-2.5,2.2S370.8,1260.9,370.8,1263.9
			z"/>
	</g>
	<g class="st3">
		<path class="st4" d="M292.8,1307.2c0,1.5-0.4,2.6-1.1,3.5s-1.8,1.2-3.1,1.2c-0.8,0-1.5-0.2-2.2-0.6c-0.6-0.4-1.1-0.9-1.5-1.6
			c-0.3-0.7-0.5-1.5-0.5-2.5c0-1.5,0.4-2.6,1.1-3.5s1.8-1.2,3.1-1.2c1.3,0,2.3,0.4,3,1.3C292.4,1304.6,292.8,1305.8,292.8,1307.2z
			 M285.9,1307.2c0,1.2,0.2,2,0.7,2.7c0.5,0.6,1.1,0.9,2.1,0.9s1.6-0.3,2.1-0.9c0.5-0.6,0.7-1.5,0.7-2.7c0-1.2-0.2-2-0.7-2.6
			c-0.5-0.6-1.2-0.9-2.1-0.9c-0.9,0-1.6,0.3-2,0.9S285.9,1306,285.9,1307.2z"/>
		<path class="st4" d="M299.3,1303.7H297v8h-1.4v-8H294v-0.6l1.6-0.5v-0.5c0-2.2,1-3.4,2.9-3.4c0.5,0,1,0.1,1.7,0.3l-0.4,1.1
			c-0.5-0.2-1-0.3-1.4-0.3c-0.5,0-0.9,0.2-1.2,0.5s-0.4,0.9-0.4,1.7v0.6h2.3V1303.7z"/>
		<path class="st4" d="M306.7,1302.7v5.9c0,0.7,0.2,1.3,0.5,1.7s0.9,0.5,1.6,0.5c1,0,1.6-0.3,2.1-0.8c0.4-0.5,0.7-1.4,0.7-2.5v-4.8
			h1.4v9.1h-1.1l-0.2-1.2h-0.1c-0.3,0.4-0.7,0.8-1.2,1c-0.5,0.2-1.1,0.4-1.7,0.4c-1.1,0-1.9-0.3-2.5-0.8c-0.6-0.5-0.8-1.4-0.8-2.5
			v-6H306.7z"/>
		<path class="st4" d="M321.7,1309.3c0,0.8-0.3,1.5-0.9,2c-0.6,0.5-1.5,0.7-2.7,0.7c-1.2,0-2.1-0.2-2.8-0.6v-1.3
			c0.4,0.2,0.9,0.4,1.4,0.5c0.5,0.1,1,0.2,1.4,0.2c0.7,0,1.3-0.1,1.7-0.3s0.6-0.6,0.6-1c0-0.4-0.2-0.7-0.5-0.9
			c-0.3-0.3-0.9-0.5-1.8-0.9c-0.8-0.3-1.4-0.6-1.8-0.8c-0.4-0.2-0.6-0.5-0.8-0.8c-0.2-0.3-0.3-0.7-0.3-1.1c0-0.7,0.3-1.3,0.9-1.8
			s1.4-0.6,2.5-0.6c1,0,1.9,0.2,2.9,0.6l-0.5,1.1c-0.9-0.4-1.7-0.6-2.5-0.6c-0.7,0-1.1,0.1-1.5,0.3s-0.5,0.5-0.5,0.8
			c0,0.2,0.1,0.5,0.2,0.6c0.1,0.2,0.3,0.3,0.6,0.5s0.8,0.4,1.6,0.7c1.1,0.4,1.8,0.8,2.2,1.2C321.5,1308.2,321.7,1308.7,321.7,1309.3
			z"/>
		<path class="st4" d="M327.8,1311.9c-1.3,0-2.4-0.4-3.2-1.2c-0.8-0.8-1.2-2-1.2-3.4c0-1.5,0.4-2.6,1.1-3.5c0.7-0.9,1.7-1.3,2.9-1.3
			c1.1,0,2,0.4,2.7,1.1s1,1.7,1,3v0.9h-6.3c0,1.1,0.3,1.9,0.8,2.4c0.5,0.6,1.2,0.8,2.2,0.8c1,0,1.9-0.2,2.9-0.6v1.2
			c-0.5,0.2-0.9,0.4-1.4,0.5C328.9,1311.9,328.4,1311.9,327.8,1311.9z M327.4,1303.6c-0.7,0-1.3,0.2-1.7,0.7c-0.4,0.5-0.7,1.1-0.8,2
			h4.8c0-0.9-0.2-1.5-0.6-2S328.1,1303.6,327.4,1303.6z"/>
		<path class="st4" d="M337.6,1302.5c0.4,0,0.8,0,1.1,0.1l-0.2,1.3c-0.4-0.1-0.7-0.1-1-0.1c-0.7,0-1.4,0.3-1.9,0.9
			c-0.5,0.6-0.8,1.3-0.8,2.2v4.9h-1.4v-9.1h1.1l0.2,1.7h0.1c0.3-0.6,0.7-1,1.2-1.4S337.1,1302.5,337.6,1302.5z"/>
		<path class="st4" d="M346.3,1309.3c0,0.8-0.3,1.5-0.9,2c-0.6,0.5-1.5,0.7-2.7,0.7c-1.2,0-2.1-0.2-2.8-0.6v-1.3
			c0.4,0.2,0.9,0.4,1.4,0.5c0.5,0.1,1,0.2,1.4,0.2c0.7,0,1.3-0.1,1.7-0.3s0.6-0.6,0.6-1c0-0.4-0.2-0.7-0.5-0.9
			c-0.3-0.3-0.9-0.5-1.8-0.9c-0.8-0.3-1.4-0.6-1.8-0.8c-0.4-0.2-0.6-0.5-0.8-0.8c-0.2-0.3-0.3-0.7-0.3-1.1c0-0.7,0.3-1.3,0.9-1.8
			s1.4-0.6,2.5-0.6c1,0,1.9,0.2,2.9,0.6l-0.5,1.1c-0.9-0.4-1.7-0.6-2.5-0.6c-0.7,0-1.1,0.1-1.5,0.3s-0.5,0.5-0.5,0.8
			c0,0.2,0.1,0.5,0.2,0.6c0.1,0.2,0.3,0.3,0.6,0.5s0.8,0.4,1.6,0.7c1.1,0.4,1.8,0.8,2.2,1.2C346.1,1308.2,346.3,1308.7,346.3,1309.3
			z"/>
		<path class="st4" d="M357.1,1303.7h-2.3v8h-1.4v-8h-1.6v-0.6l1.6-0.5v-0.5c0-2.2,1-3.4,2.9-3.4c0.5,0,1,0.1,1.7,0.3l-0.4,1.1
			c-0.5-0.2-1-0.3-1.4-0.3c-0.5,0-0.9,0.2-1.2,0.5s-0.4,0.9-0.4,1.7v0.6h2.3V1303.7z M358.6,1300.2c0-0.3,0.1-0.5,0.2-0.7
			s0.3-0.2,0.6-0.2c0.2,0,0.4,0.1,0.6,0.2s0.2,0.4,0.2,0.7c0,0.3-0.1,0.5-0.2,0.7s-0.4,0.2-0.6,0.2c-0.2,0-0.4-0.1-0.6-0.2
			S358.6,1300.5,358.6,1300.2z M360.1,1311.8h-1.4v-9.1h1.4V1311.8z"/>
		<path class="st4" d="M369.2,1311.8v-5.9c0-0.7-0.2-1.3-0.5-1.7s-0.9-0.5-1.6-0.5c-1,0-1.6,0.3-2.1,0.8s-0.7,1.4-0.7,2.5v4.8H363
			v-9.1h1.1l0.2,1.2h0.1c0.3-0.4,0.7-0.8,1.2-1s1.1-0.4,1.7-0.4c1.1,0,1.9,0.3,2.5,0.8s0.8,1.4,0.8,2.5v5.9H369.2z"/>
		<path class="st4" d="M379.6,1310.5L379.6,1310.5c-0.7,0.9-1.7,1.4-2.9,1.4c-1.2,0-2.1-0.4-2.8-1.2c-0.7-0.8-1-2-1-3.5
			c0-1.5,0.3-2.7,1-3.5s1.6-1.2,2.8-1.2c1.2,0,2.2,0.4,2.8,1.3h0.1l-0.1-0.7l0-0.6v-3.7h1.4v12.9h-1.1L379.6,1310.5z M376.9,1310.8
			c0.9,0,1.6-0.3,2-0.8c0.4-0.5,0.6-1.3,0.6-2.5v-0.3c0-1.3-0.2-2.2-0.6-2.8c-0.4-0.6-1.1-0.8-2.1-0.8c-0.8,0-1.4,0.3-1.9,0.9
			c-0.4,0.6-0.6,1.5-0.6,2.7c0,1.2,0.2,2,0.6,2.6S376.1,1310.8,376.9,1310.8z"/>
	</g>
	<g class="st3">
		<path class="st4" d="M287.9,1332.8c0.2,0,0.5,0,0.7-0.1s0.4-0.1,0.5-0.1v1.1c-0.1,0.1-0.4,0.1-0.7,0.2c-0.3,0-0.6,0.1-0.8,0.1
			c-1.8,0-2.6-0.9-2.6-2.8v-5.4h-1.3v-0.7l1.3-0.6l0.6-1.9h0.8v2.1h2.6v1.1h-2.6v5.4c0,0.5,0.1,1,0.4,1.3S287.4,1332.8,287.9,1332.8
			z"/>
		<path class="st4" d="M297.2,1333.8v-5.9c0-0.7-0.2-1.3-0.5-1.7s-0.9-0.5-1.6-0.5c-1,0-1.7,0.3-2.1,0.8c-0.4,0.5-0.7,1.4-0.7,2.6
			v4.8H291v-12.9h1.4v3.9c0,0.5,0,0.9-0.1,1.2h0.1c0.3-0.4,0.7-0.8,1.2-1c0.5-0.3,1.1-0.4,1.7-0.4c1.1,0,1.9,0.3,2.5,0.8
			c0.6,0.5,0.8,1.4,0.8,2.5v5.9H297.2z"/>
		<path class="st4" d="M305.2,1333.9c-1.3,0-2.4-0.4-3.2-1.2c-0.8-0.8-1.2-2-1.2-3.4c0-1.5,0.4-2.6,1.1-3.5c0.7-0.9,1.7-1.3,2.9-1.3
			c1.1,0,2,0.4,2.7,1.1s1,1.7,1,3v0.9h-6.3c0,1.1,0.3,1.9,0.8,2.4c0.5,0.6,1.2,0.8,2.2,0.8c1,0,1.9-0.2,2.9-0.6v1.2
			c-0.5,0.2-0.9,0.4-1.4,0.5C306.4,1333.9,305.9,1333.9,305.2,1333.9z M304.9,1325.6c-0.7,0-1.3,0.2-1.7,0.7c-0.4,0.5-0.7,1.1-0.8,2
			h4.8c0-0.9-0.2-1.5-0.6-2S305.6,1325.6,304.9,1325.6z"/>
		<path class="st4" d="M321.2,1331.3c0,0.8-0.3,1.5-0.9,2c-0.6,0.5-1.5,0.7-2.7,0.7c-1.2,0-2.1-0.2-2.8-0.6v-1.3
			c0.4,0.2,0.9,0.4,1.4,0.5c0.5,0.1,1,0.2,1.4,0.2c0.7,0,1.3-0.1,1.7-0.3s0.6-0.6,0.6-1c0-0.4-0.2-0.7-0.5-0.9
			c-0.3-0.3-0.9-0.5-1.8-0.9c-0.8-0.3-1.4-0.6-1.8-0.8c-0.4-0.2-0.6-0.5-0.8-0.8c-0.2-0.3-0.3-0.7-0.3-1.1c0-0.7,0.3-1.3,0.9-1.8
			s1.4-0.6,2.5-0.6c1,0,1.9,0.2,2.9,0.6l-0.5,1.1c-0.9-0.4-1.7-0.6-2.5-0.6c-0.7,0-1.1,0.1-1.5,0.3s-0.5,0.5-0.5,0.8
			c0,0.2,0.1,0.5,0.2,0.6c0.1,0.2,0.3,0.3,0.6,0.5s0.8,0.4,1.6,0.7c1.1,0.4,1.8,0.8,2.2,1.2C321,1330.2,321.2,1330.7,321.2,1331.3z"
			/>
		<path class="st4" d="M323.3,1322.2c0-0.3,0.1-0.5,0.2-0.7s0.3-0.2,0.6-0.2c0.2,0,0.4,0.1,0.6,0.2s0.2,0.4,0.2,0.7
			c0,0.3-0.1,0.5-0.2,0.7s-0.4,0.2-0.6,0.2c-0.2,0-0.4-0.1-0.6-0.2S323.3,1322.5,323.3,1322.2z M324.8,1333.8h-1.4v-9.1h1.4V1333.8z
			"/>
		<path class="st4" d="M330.7,1332.8c0.2,0,0.5,0,0.7-0.1s0.4-0.1,0.5-0.1v1.1c-0.1,0.1-0.4,0.1-0.7,0.2c-0.3,0-0.6,0.1-0.8,0.1
			c-1.8,0-2.6-0.9-2.6-2.8v-5.4h-1.3v-0.7l1.3-0.6l0.6-1.9h0.8v2.1h2.6v1.1h-2.6v5.4c0,0.5,0.1,1,0.4,1.3S330.2,1332.8,330.7,1332.8
			z"/>
		<path class="st4" d="M337.6,1333.9c-1.3,0-2.4-0.4-3.2-1.2c-0.8-0.8-1.2-2-1.2-3.4c0-1.5,0.4-2.6,1.1-3.5c0.7-0.9,1.7-1.3,2.9-1.3
			c1.1,0,2,0.4,2.7,1.1s1,1.7,1,3v0.9h-6.3c0,1.1,0.3,1.9,0.8,2.4c0.5,0.6,1.2,0.8,2.2,0.8c1,0,1.9-0.2,2.9-0.6v1.2
			c-0.5,0.2-0.9,0.4-1.4,0.5C338.7,1333.9,338.2,1333.9,337.6,1333.9z M337.2,1325.6c-0.7,0-1.3,0.2-1.7,0.7c-0.4,0.5-0.7,1.1-0.8,2
			h4.8c0-0.9-0.2-1.5-0.6-2S337.9,1325.6,337.2,1325.6z"/>
		<path class="st4" d="M353.9,1333.8v-5.9c0-0.7-0.2-1.3-0.5-1.7s-0.9-0.5-1.6-0.5c-1,0-1.7,0.3-2.1,0.8c-0.4,0.5-0.7,1.4-0.7,2.6
			v4.8h-1.4v-12.9h1.4v3.9c0,0.5,0,0.9-0.1,1.2h0.1c0.3-0.4,0.7-0.8,1.2-1c0.5-0.3,1.1-0.4,1.7-0.4c1.1,0,1.9,0.3,2.5,0.8
			c0.6,0.5,0.8,1.4,0.8,2.5v5.9H353.9z"/>
		<path class="st4" d="M363.7,1333.8l-0.3-1.3h-0.1c-0.5,0.6-0.9,1-1.4,1.2c-0.5,0.2-1,0.3-1.7,0.3c-0.9,0-1.6-0.2-2.1-0.7
			c-0.5-0.5-0.8-1.1-0.8-2c0-1.8,1.5-2.8,4.4-2.9l1.5,0v-0.6c0-0.7-0.2-1.2-0.5-1.6c-0.3-0.3-0.8-0.5-1.5-0.5
			c-0.8,0-1.6,0.2-2.6,0.7l-0.4-1.1c0.4-0.2,0.9-0.4,1.5-0.6c0.5-0.1,1.1-0.2,1.6-0.2c1.1,0,1.9,0.2,2.4,0.7
			c0.5,0.5,0.8,1.3,0.8,2.3v6.2H363.7z M360.6,1332.8c0.9,0,1.5-0.2,2-0.7c0.5-0.5,0.7-1.1,0.7-2v-0.8l-1.4,0.1
			c-1.1,0-1.9,0.2-2.4,0.5c-0.5,0.3-0.7,0.8-0.7,1.4c0,0.5,0.2,0.9,0.5,1.1C359.7,1332.7,360.1,1332.8,360.6,1332.8z"/>
		<path class="st4" d="M371.8,1324.5c0.4,0,0.8,0,1.1,0.1l-0.2,1.3c-0.4-0.1-0.7-0.1-1-0.1c-0.7,0-1.4,0.3-1.9,0.9
			c-0.5,0.6-0.8,1.3-0.8,2.2v4.9h-1.4v-9.1h1.1l0.2,1.7h0.1c0.3-0.6,0.7-1,1.2-1.4S371.2,1324.5,371.8,1324.5z"/>
		<path class="st4" d="M380.7,1332.5L380.7,1332.5c-0.7,0.9-1.7,1.4-2.9,1.4c-1.2,0-2.1-0.4-2.8-1.2c-0.7-0.8-1-2-1-3.5
			c0-1.5,0.3-2.7,1-3.5s1.6-1.2,2.8-1.2c1.2,0,2.2,0.4,2.8,1.3h0.1l-0.1-0.7l0-0.6v-3.7h1.4v12.9h-1.1L380.7,1332.5z M378,1332.8
			c0.9,0,1.6-0.3,2-0.8c0.4-0.5,0.6-1.3,0.6-2.5v-0.3c0-1.3-0.2-2.2-0.6-2.8c-0.4-0.6-1.1-0.8-2.1-0.8c-0.8,0-1.4,0.3-1.9,0.9
			c-0.4,0.6-0.6,1.5-0.6,2.7c0,1.2,0.2,2,0.6,2.6S377.2,1332.8,378,1332.8z"/>
	</g>
	<g class="st3">
		<path class="st4" d="M287.9,1354.8c0.2,0,0.5,0,0.7-0.1s0.4-0.1,0.5-0.1v1.1c-0.1,0.1-0.4,0.1-0.7,0.2c-0.3,0-0.6,0.1-0.8,0.1
			c-1.8,0-2.6-0.9-2.6-2.8v-5.4h-1.3v-0.7l1.3-0.6l0.6-1.9h0.8v2.1h2.6v1.1h-2.6v5.4c0,0.5,0.1,1,0.4,1.3S287.4,1354.8,287.9,1354.8
			z"/>
		<path class="st4" d="M298.8,1351.2c0,1.5-0.4,2.6-1.1,3.5s-1.8,1.2-3.1,1.2c-0.8,0-1.5-0.2-2.2-0.6c-0.6-0.4-1.1-0.9-1.5-1.6
			c-0.3-0.7-0.5-1.5-0.5-2.5c0-1.5,0.4-2.6,1.1-3.5s1.8-1.2,3.1-1.2c1.3,0,2.3,0.4,3,1.3C298.4,1348.6,298.8,1349.8,298.8,1351.2z
			 M291.9,1351.2c0,1.2,0.2,2,0.7,2.7c0.5,0.6,1.1,0.9,2.1,0.9s1.6-0.3,2.1-0.9c0.5-0.6,0.7-1.5,0.7-2.7c0-1.2-0.2-2-0.7-2.6
			c-0.5-0.6-1.2-0.9-2.1-0.9c-0.9,0-1.6,0.3-2,0.9S291.9,1350,291.9,1351.2z"/>
		<path class="st4" d="M311.9,1355.8v-5.9c0-0.7-0.2-1.3-0.5-1.7s-0.9-0.5-1.6-0.5c-1,0-1.6,0.3-2.1,0.8s-0.7,1.4-0.7,2.5v4.8h-1.4
			v-9.1h1.1l0.2,1.2h0.1c0.3-0.4,0.7-0.8,1.2-1s1.1-0.4,1.7-0.4c1.1,0,1.9,0.3,2.5,0.8s0.8,1.4,0.8,2.5v5.9H311.9z"/>
		<path class="st4" d="M321.7,1355.8l-0.3-1.3h-0.1c-0.5,0.6-0.9,1-1.4,1.2c-0.5,0.2-1,0.3-1.7,0.3c-0.9,0-1.6-0.2-2.1-0.7
			c-0.5-0.5-0.8-1.1-0.8-2c0-1.8,1.5-2.8,4.4-2.9l1.5,0v-0.6c0-0.7-0.2-1.2-0.5-1.6c-0.3-0.3-0.8-0.5-1.5-0.5
			c-0.8,0-1.6,0.2-2.6,0.7l-0.4-1.1c0.4-0.2,0.9-0.4,1.5-0.6c0.5-0.1,1.1-0.2,1.6-0.2c1.1,0,1.9,0.2,2.4,0.7
			c0.5,0.5,0.8,1.3,0.8,2.3v6.2H321.7z M318.6,1354.8c0.9,0,1.5-0.2,2-0.7c0.5-0.5,0.7-1.1,0.7-2v-0.8l-1.4,0.1
			c-1.1,0-1.9,0.2-2.4,0.5c-0.5,0.3-0.7,0.8-0.7,1.4c0,0.5,0.2,0.9,0.5,1.1C317.6,1354.7,318,1354.8,318.6,1354.8z"/>
		<path class="st4" d="M327.5,1355.8l-3.5-9.1h1.5l2,5.4c0.4,1.3,0.7,2.1,0.8,2.5h0.1c0.1-0.3,0.3-0.9,0.6-1.8c0.3-0.9,1-2.9,2.2-6
			h1.5l-3.5,9.1H327.5z"/>
		<path class="st4" d="M333.9,1344.2c0-0.3,0.1-0.5,0.2-0.7s0.3-0.2,0.6-0.2c0.2,0,0.4,0.1,0.6,0.2s0.2,0.4,0.2,0.7
			c0,0.3-0.1,0.5-0.2,0.7s-0.4,0.2-0.6,0.2c-0.2,0-0.4-0.1-0.6-0.2S333.9,1344.5,333.9,1344.2z M335.4,1355.8H334v-9.1h1.4V1355.8z"
			/>
		<path class="st4" d="M345.8,1346.7v0.9l-1.7,0.2c0.2,0.2,0.3,0.4,0.4,0.8s0.2,0.7,0.2,1.1c0,0.9-0.3,1.6-0.9,2.1s-1.4,0.8-2.5,0.8
			c-0.3,0-0.5,0-0.8-0.1c-0.6,0.3-0.9,0.7-0.9,1.2c0,0.2,0.1,0.4,0.3,0.6s0.6,0.2,1.1,0.2h1.6c1,0,1.7,0.2,2.3,0.6
			c0.5,0.4,0.8,1,0.8,1.8c0,1-0.4,1.8-1.2,2.3s-2,0.8-3.5,0.8c-1.2,0-2.1-0.2-2.8-0.7c-0.6-0.4-1-1.1-1-1.9c0-0.6,0.2-1,0.5-1.4
			c0.4-0.4,0.9-0.7,1.5-0.8c-0.2-0.1-0.4-0.3-0.6-0.5c-0.2-0.2-0.2-0.5-0.2-0.8c0-0.3,0.1-0.6,0.3-0.9c0.2-0.2,0.5-0.5,0.8-0.7
			c-0.5-0.2-0.9-0.5-1.1-1c-0.3-0.5-0.4-1-0.4-1.6c0-1,0.3-1.8,0.9-2.3c0.6-0.5,1.4-0.8,2.5-0.8c0.5,0,0.9,0.1,1.3,0.2H345.8z
			 M338.5,1357.3c0,0.5,0.2,0.9,0.6,1.1c0.4,0.3,1,0.4,1.8,0.4c1.2,0,2-0.2,2.6-0.5c0.6-0.3,0.8-0.8,0.8-1.4c0-0.5-0.2-0.8-0.5-1
			c-0.3-0.2-0.9-0.3-1.7-0.3h-1.7c-0.6,0-1.1,0.1-1.5,0.4S338.5,1356.7,338.5,1357.3z M339.3,1349.6c0,0.6,0.2,1.1,0.5,1.4
			c0.4,0.3,0.9,0.5,1.5,0.5c1.3,0,2-0.7,2-2c0-1.4-0.7-2.1-2-2.1c-0.6,0-1.1,0.2-1.5,0.5S339.3,1348.9,339.3,1349.6z"/>
		<path class="st4" d="M353.3,1355.8l-0.3-1.3h-0.1c-0.5,0.6-0.9,1-1.4,1.2c-0.5,0.2-1,0.3-1.7,0.3c-0.9,0-1.6-0.2-2.1-0.7
			c-0.5-0.5-0.8-1.1-0.8-2c0-1.8,1.5-2.8,4.4-2.9l1.5,0v-0.6c0-0.7-0.2-1.2-0.5-1.6c-0.3-0.3-0.8-0.5-1.5-0.5
			c-0.8,0-1.6,0.2-2.6,0.7l-0.4-1.1c0.4-0.2,0.9-0.4,1.5-0.6c0.5-0.1,1.1-0.2,1.6-0.2c1.1,0,1.9,0.2,2.4,0.7
			c0.5,0.5,0.8,1.3,0.8,2.3v6.2H353.3z M350.1,1354.8c0.9,0,1.5-0.2,2-0.7c0.5-0.5,0.7-1.1,0.7-2v-0.8l-1.4,0.1
			c-1.1,0-1.9,0.2-2.4,0.5c-0.5,0.3-0.7,0.8-0.7,1.4c0,0.5,0.2,0.9,0.5,1.1C349.2,1354.7,349.6,1354.8,350.1,1354.8z"/>
		<path class="st4" d="M360.1,1354.8c0.2,0,0.5,0,0.7-0.1s0.4-0.1,0.5-0.1v1.1c-0.1,0.1-0.4,0.1-0.7,0.2c-0.3,0-0.6,0.1-0.8,0.1
			c-1.8,0-2.6-0.9-2.6-2.8v-5.4h-1.3v-0.7l1.3-0.6l0.6-1.9h0.8v2.1h2.6v1.1h-2.6v5.4c0,0.5,0.1,1,0.4,1.3S359.6,1354.8,360.1,1354.8
			z"/>
		<path class="st4" d="M367,1355.9c-1.3,0-2.4-0.4-3.2-1.2c-0.8-0.8-1.2-2-1.2-3.4c0-1.5,0.4-2.6,1.1-3.5c0.7-0.9,1.7-1.3,2.9-1.3
			c1.1,0,2,0.4,2.7,1.1s1,1.7,1,3v0.9H364c0,1.1,0.3,1.9,0.8,2.4c0.5,0.6,1.2,0.8,2.2,0.8c1,0,1.9-0.2,2.9-0.6v1.2
			c-0.5,0.2-0.9,0.4-1.4,0.5C368.1,1355.9,367.6,1355.9,367,1355.9z M366.6,1347.6c-0.7,0-1.3,0.2-1.7,0.7c-0.4,0.5-0.7,1.1-0.8,2
			h4.8c0-0.9-0.2-1.5-0.6-2S367.3,1347.6,366.6,1347.6z"/>
	</g>
	<g class="st3">
		<path class="st1" d="M1118.3,1239.7c0,3.2-1,5.9-2.9,8.2s-4.7,3.8-8.2,4.6v0.2c4.1,0.5,7.3,1.8,9.4,3.8s3.2,4.7,3.2,8.1
			c0,4.9-1.8,8.8-5.4,11.5s-8.7,4.1-15.4,4.1c-5.6,0-10.5-0.9-14.8-2.8v-9.2c2,1,4.2,1.8,6.6,2.5s4.8,0.9,7.1,0.9
			c3.6,0,6.2-0.6,7.9-1.8s2.6-3.2,2.6-5.9c0-2.4-1-4.1-3-5.1s-5.1-1.5-9.4-1.5h-3.9v-8.3h4c4,0,6.9-0.5,8.7-1.6s2.8-2.8,2.8-5.4
			c0-3.9-2.4-5.8-7.3-5.8c-1.7,0-3.4,0.3-5.2,0.8s-3.7,1.5-5.8,2.9l-5-7.5c4.7-3.4,10.3-5.1,16.8-5.1c5.3,0,9.5,1.1,12.6,3.2
			S1118.3,1235.8,1118.3,1239.7z"/>
		<path class="st1" d="M1130.6,1279.6l19.3-42.2h-25.3v-9.1h36.9v6.8l-19.4,44.5H1130.6z"/>
		<path class="st1" d="M1190.4,1243.5c0,5.4-1,9.4-3.1,12.1s-5.1,4.1-9.2,4.1c-3.9,0-6.9-1.4-9-4.2s-3.2-6.8-3.2-12
			c0-10.7,4-16.1,12.1-16.1c4,0,7,1.4,9.1,4.2S1190.4,1238.3,1190.4,1243.5z M1174.8,1243.6c0,3,0.3,5.2,0.8,6.7s1.4,2.2,2.5,2.2
			c2.2,0,3.4-3,3.4-8.9c0-5.9-1.1-8.8-3.4-8.8c-1.2,0-2,0.7-2.5,2.2S1174.8,1240.6,1174.8,1243.6z M1214.5,1228.2l-28.5,51.4h-8.4
			l28.5-51.4H1214.5z M1226.4,1264c0,5.4-1,9.4-3.1,12.1s-5.1,4.1-9.2,4.1c-3.9,0-6.9-1.4-9-4.2s-3.2-6.8-3.2-12
			c0-10.7,4-16.1,12.1-16.1c4,0,7,1.4,9.1,4.2S1226.4,1258.9,1226.4,1264z M1210.8,1264.1c0,3,0.3,5.2,0.8,6.7s1.4,2.2,2.5,2.2
			c2.2,0,3.4-3,3.4-8.9c0-5.9-1.1-8.8-3.4-8.8c-1.2,0-2,0.7-2.5,2.2S1210.8,1261.1,1210.8,1264.1z"/>
	</g>
	<g id="Group" transform="translate(-166 375.184)">
		<g class="st3">
			<path class="st4" d="M1255.8,931.9c0,1.5-0.4,2.6-1.1,3.5s-1.8,1.2-3.1,1.2c-0.8,0-1.5-0.2-2.2-0.6c-0.6-0.4-1.1-0.9-1.5-1.6
				c-0.3-0.7-0.5-1.5-0.5-2.5c0-1.5,0.4-2.6,1.1-3.5c0.7-0.8,1.8-1.2,3.1-1.2c1.3,0,2.3,0.4,3,1.3
				C1255.4,929.3,1255.8,930.5,1255.8,931.9z M1248.9,931.9c0,1.2,0.2,2,0.7,2.7c0.5,0.6,1.1,0.9,2,0.9c0.9,0,1.6-0.3,2.1-0.9
				c0.5-0.6,0.7-1.5,0.7-2.7c0-1.2-0.2-2-0.7-2.6s-1.2-0.9-2.1-0.9c-0.9,0-1.6,0.3-2,0.9C1249.1,929.9,1248.9,930.7,1248.9,931.9z"
				/>
			<path class="st4" d="M1262.3,928.4h-2.3v8h-1.4v-8h-1.6v-0.6l1.6-0.5v-0.5c0-2.2,1-3.4,2.9-3.4c0.5,0,1,0.1,1.7,0.3l-0.4,1.1
				c-0.5-0.2-1-0.3-1.4-0.3c-0.5,0-0.9,0.2-1.2,0.5s-0.4,0.9-0.4,1.7v0.6h2.3V928.4z"/>
			<path class="st4" d="M1269.7,927.4v5.9c0,0.7,0.2,1.3,0.5,1.7c0.3,0.4,0.9,0.5,1.6,0.5c1,0,1.6-0.3,2.1-0.8
				c0.4-0.5,0.7-1.4,0.7-2.5v-4.8h1.4v9.1h-1.1l-0.2-1.2h-0.1c-0.3,0.4-0.7,0.8-1.2,1c-0.5,0.2-1.1,0.4-1.7,0.4
				c-1.1,0-1.9-0.3-2.5-0.8c-0.6-0.5-0.8-1.4-0.8-2.5v-6H1269.7z"/>
			<path class="st4" d="M1284.7,934c0,0.8-0.3,1.5-0.9,2c-0.6,0.5-1.5,0.7-2.7,0.7c-1.2,0-2.1-0.2-2.8-0.6v-1.3
				c0.4,0.2,0.9,0.4,1.4,0.5c0.5,0.1,1,0.2,1.4,0.2c0.7,0,1.3-0.1,1.7-0.3c0.4-0.2,0.6-0.6,0.6-1c0-0.4-0.2-0.7-0.5-0.9
				c-0.3-0.3-0.9-0.5-1.8-0.9c-0.8-0.3-1.4-0.6-1.8-0.8c-0.4-0.2-0.6-0.5-0.8-0.8c-0.2-0.3-0.3-0.7-0.3-1.1c0-0.7,0.3-1.3,0.9-1.8
				c0.6-0.4,1.4-0.6,2.5-0.6c1,0,1.9,0.2,2.9,0.6l-0.5,1.1c-0.9-0.4-1.7-0.6-2.5-0.6c-0.7,0-1.1,0.1-1.5,0.3s-0.5,0.5-0.5,0.8
				c0,0.2,0.1,0.5,0.2,0.6c0.1,0.2,0.3,0.3,0.6,0.5c0.3,0.2,0.8,0.4,1.6,0.7c1.1,0.4,1.8,0.8,2.2,1.2
				C1284.5,932.9,1284.7,933.4,1284.7,934z"/>
			<path class="st4" d="M1290.8,936.6c-1.3,0-2.4-0.4-3.2-1.2c-0.8-0.8-1.2-2-1.2-3.4c0-1.5,0.4-2.6,1.1-3.5
				c0.7-0.9,1.7-1.3,2.9-1.3c1.1,0,2,0.4,2.7,1.1s1,1.7,1,3v0.9h-6.3c0,1.1,0.3,1.9,0.8,2.4c0.5,0.6,1.2,0.8,2.2,0.8
				c1,0,1.9-0.2,2.9-0.6v1.2c-0.5,0.2-0.9,0.4-1.4,0.5C1291.9,936.6,1291.4,936.6,1290.8,936.6z M1290.4,928.4
				c-0.7,0-1.3,0.2-1.7,0.7c-0.4,0.5-0.7,1.1-0.8,2h4.8c0-0.9-0.2-1.5-0.6-2C1291.7,928.6,1291.1,928.4,1290.4,928.4z"/>
			<path class="st4" d="M1300.6,927.2c0.4,0,0.8,0,1.1,0.1l-0.2,1.3c-0.4-0.1-0.7-0.1-1-0.1c-0.7,0-1.4,0.3-1.9,0.9
				c-0.5,0.6-0.8,1.3-0.8,2.2v4.9h-1.4v-9.1h1.1l0.2,1.7h0.1c0.3-0.6,0.7-1,1.2-1.4C1299.5,927.4,1300,927.2,1300.6,927.2z"/>
			<path class="st4" d="M1309.3,934c0,0.8-0.3,1.5-0.9,2c-0.6,0.5-1.5,0.7-2.7,0.7c-1.2,0-2.1-0.2-2.8-0.6v-1.3
				c0.4,0.2,0.9,0.4,1.4,0.5c0.5,0.1,1,0.2,1.4,0.2c0.7,0,1.3-0.1,1.7-0.3c0.4-0.2,0.6-0.6,0.6-1c0-0.4-0.2-0.7-0.5-0.9
				c-0.3-0.3-0.9-0.5-1.8-0.9c-0.8-0.3-1.4-0.6-1.8-0.8c-0.4-0.2-0.6-0.5-0.8-0.8c-0.2-0.3-0.3-0.7-0.3-1.1c0-0.7,0.3-1.3,0.9-1.8
				c0.6-0.4,1.4-0.6,2.5-0.6c1,0,1.9,0.2,2.9,0.6l-0.5,1.1c-0.9-0.4-1.7-0.6-2.5-0.6c-0.7,0-1.1,0.1-1.5,0.3s-0.5,0.5-0.5,0.8
				c0,0.2,0.1,0.5,0.2,0.6c0.1,0.2,0.3,0.3,0.6,0.5c0.3,0.2,0.8,0.4,1.6,0.7c1.1,0.4,1.8,0.8,2.2,1.2
				C1309.1,932.9,1309.3,933.4,1309.3,934z"/>
			<path class="st4" d="M1320,928.4h-2.3v8h-1.4v-8h-1.6v-0.6l1.6-0.5v-0.5c0-2.2,1-3.4,2.9-3.4c0.5,0,1,0.1,1.7,0.3l-0.4,1.1
				c-0.5-0.2-1-0.3-1.4-0.3c-0.5,0-0.9,0.2-1.2,0.5s-0.4,0.9-0.4,1.7v0.6h2.3V928.4z M1321.6,924.9c0-0.3,0.1-0.5,0.2-0.7
				c0.2-0.1,0.3-0.2,0.6-0.2c0.2,0,0.4,0.1,0.6,0.2c0.2,0.1,0.2,0.4,0.2,0.7c0,0.3-0.1,0.5-0.2,0.7c-0.2,0.2-0.4,0.2-0.6,0.2
				c-0.2,0-0.4-0.1-0.6-0.2C1321.7,925.5,1321.6,925.2,1321.6,924.9z M1323.1,936.5h-1.4v-9.1h1.4V936.5z"/>
			<path class="st4" d="M1332.2,936.5v-5.9c0-0.7-0.2-1.3-0.5-1.7c-0.3-0.4-0.9-0.5-1.6-0.5c-1,0-1.6,0.3-2.1,0.8
				c-0.4,0.5-0.7,1.4-0.7,2.5v4.8h-1.4v-9.1h1.1l0.2,1.2h0.1c0.3-0.4,0.7-0.8,1.2-1c0.5-0.2,1.1-0.4,1.7-0.4c1.1,0,1.9,0.3,2.5,0.8
				c0.6,0.5,0.8,1.4,0.8,2.5v5.9H1332.2z"/>
			<path class="st4" d="M1342.6,935.3L1342.6,935.3c-0.7,0.9-1.7,1.4-2.9,1.4c-1.2,0-2.1-0.4-2.8-1.2c-0.7-0.8-1-2-1-3.5
				c0-1.5,0.3-2.7,1-3.5s1.6-1.2,2.8-1.2c1.2,0,2.2,0.4,2.8,1.3h0.1l-0.1-0.7l0-0.6v-3.7h1.4v12.9h-1.1L1342.6,935.3z M1339.9,935.5
				c0.9,0,1.6-0.3,2-0.8c0.4-0.5,0.6-1.3,0.6-2.5V932c0-1.3-0.2-2.2-0.6-2.8s-1.1-0.8-2.1-0.8c-0.8,0-1.4,0.3-1.9,0.9
				c-0.4,0.6-0.6,1.5-0.6,2.7c0,1.2,0.2,2,0.6,2.6C1338.4,935.2,1339,935.5,1339.9,935.5z"/>
			<path class="st4" d="M1354.2,935.5c0.2,0,0.5,0,0.7-0.1c0.2,0,0.4-0.1,0.5-0.1v1.1c-0.1,0.1-0.4,0.1-0.7,0.2
				c-0.3,0-0.6,0.1-0.8,0.1c-1.8,0-2.6-0.9-2.6-2.8v-5.4h-1.3v-0.7l1.3-0.6l0.6-1.9h0.8v2.1h2.6v1.1h-2.6v5.4c0,0.5,0.1,1,0.4,1.3
				C1353.4,935.4,1353.7,935.5,1354.2,935.5z"/>
			<path class="st4" d="M1363.5,936.5v-5.9c0-0.7-0.2-1.3-0.5-1.7c-0.3-0.4-0.9-0.5-1.6-0.5c-1,0-1.7,0.3-2.1,0.8
				c-0.4,0.5-0.7,1.4-0.7,2.6v4.8h-1.4v-12.9h1.4v3.9c0,0.5,0,0.9-0.1,1.2h0.1c0.3-0.4,0.7-0.8,1.2-1s1.1-0.4,1.7-0.4
				c1.1,0,1.9,0.3,2.5,0.8c0.6,0.5,0.8,1.4,0.8,2.5v5.9H1363.5z"/>
			<path class="st4" d="M1371.5,936.6c-1.3,0-2.4-0.4-3.2-1.2c-0.8-0.8-1.2-2-1.2-3.4c0-1.5,0.4-2.6,1.1-3.5
				c0.7-0.9,1.7-1.3,2.9-1.3c1.1,0,2,0.4,2.7,1.1s1,1.7,1,3v0.9h-6.3c0,1.1,0.3,1.9,0.8,2.4c0.5,0.6,1.2,0.8,2.2,0.8
				c1,0,1.9-0.2,2.9-0.6v1.2c-0.5,0.2-0.9,0.4-1.4,0.5C1372.7,936.6,1372.2,936.6,1371.5,936.6z M1371.2,928.4
				c-0.7,0-1.3,0.2-1.7,0.7c-0.4,0.5-0.7,1.1-0.8,2h4.8c0-0.9-0.2-1.5-0.6-2C1372.4,928.6,1371.9,928.4,1371.2,928.4z"/>
		</g>
		<g class="st3">
			<path class="st4" d="M1253.8,956c0,0.8-0.3,1.5-0.9,2c-0.6,0.5-1.5,0.7-2.7,0.7c-1.2,0-2.1-0.2-2.8-0.6v-1.3
				c0.4,0.2,0.9,0.4,1.4,0.5s1,0.2,1.4,0.2c0.7,0,1.3-0.1,1.7-0.3c0.4-0.2,0.6-0.6,0.6-1c0-0.4-0.2-0.7-0.5-0.9
				c-0.3-0.3-0.9-0.5-1.8-0.9c-0.8-0.3-1.4-0.6-1.8-0.8c-0.4-0.2-0.6-0.5-0.8-0.8c-0.2-0.3-0.3-0.7-0.3-1.1c0-0.7,0.3-1.3,0.9-1.8
				c0.6-0.4,1.4-0.6,2.5-0.6c1,0,1.9,0.2,2.9,0.6l-0.5,1.1c-0.9-0.4-1.7-0.6-2.5-0.6c-0.7,0-1.1,0.1-1.5,0.3s-0.5,0.5-0.5,0.8
				c0,0.2,0.1,0.5,0.2,0.6c0.1,0.2,0.3,0.3,0.6,0.5c0.3,0.2,0.8,0.4,1.6,0.7c1.1,0.4,1.8,0.8,2.2,1.2S1253.8,955.4,1253.8,956z"/>
			<path class="st4" d="M1256,946.9c0-0.3,0.1-0.5,0.2-0.7c0.2-0.1,0.3-0.2,0.6-0.2c0.2,0,0.4,0.1,0.6,0.2c0.2,0.1,0.2,0.4,0.2,0.7
				c0,0.3-0.1,0.5-0.2,0.7c-0.2,0.2-0.4,0.2-0.6,0.2c-0.2,0-0.4-0.1-0.6-0.2C1256,947.5,1256,947.2,1256,946.9z M1257.5,958.5h-1.4
				v-9.1h1.4V958.5z"/>
			<path class="st4" d="M1263.3,957.5c0.2,0,0.5,0,0.7-0.1c0.2,0,0.4-0.1,0.5-0.1v1.1c-0.1,0.1-0.4,0.1-0.7,0.2
				c-0.3,0-0.6,0.1-0.8,0.1c-1.8,0-2.6-0.9-2.6-2.8v-5.4h-1.3v-0.7l1.3-0.6l0.6-1.9h0.8v2.1h2.6v1.1h-2.6v5.4c0,0.5,0.1,1,0.4,1.3
				C1262.5,957.4,1262.9,957.5,1263.3,957.5z"/>
			<path class="st4" d="M1270.2,958.6c-1.3,0-2.4-0.4-3.2-1.2c-0.8-0.8-1.2-2-1.2-3.4c0-1.5,0.4-2.6,1.1-3.5
				c0.7-0.9,1.7-1.3,2.9-1.3c1.1,0,2,0.4,2.7,1.1s1,1.7,1,3v0.9h-6.3c0,1.1,0.3,1.9,0.8,2.4c0.5,0.6,1.2,0.8,2.2,0.8
				c1,0,1.9-0.2,2.9-0.6v1.2c-0.5,0.2-0.9,0.4-1.4,0.5C1271.4,958.6,1270.8,958.6,1270.2,958.6z M1269.8,950.4
				c-0.7,0-1.3,0.2-1.7,0.7c-0.4,0.5-0.7,1.1-0.8,2h4.8c0-0.9-0.2-1.5-0.6-2C1271.1,950.6,1270.6,950.4,1269.8,950.4z"/>
			<path class="st4" d="M1284.2,958.6c-1.3,0-2.4-0.4-3.2-1.2s-1.2-2-1.2-3.4c0-1.5,0.4-2.6,1.1-3.5c0.7-0.9,1.7-1.3,2.9-1.3
				c1.1,0,2,0.4,2.7,1.1s1,1.7,1,3v0.9h-6.3c0,1.1,0.3,1.9,0.8,2.4c0.5,0.6,1.2,0.8,2.2,0.8c1,0,1.9-0.2,2.9-0.6v1.2
				c-0.5,0.2-0.9,0.4-1.4,0.5C1285.3,958.6,1284.8,958.6,1284.2,958.6z M1283.8,950.4c-0.7,0-1.3,0.2-1.7,0.7
				c-0.4,0.5-0.7,1.1-0.8,2h4.8c0-0.9-0.2-1.5-0.6-2C1285.1,950.6,1284.5,950.4,1283.8,950.4z"/>
			<path class="st4" d="M1295.5,958.5l-0.3-1.3h-0.1c-0.5,0.6-0.9,1-1.4,1.2c-0.5,0.2-1,0.3-1.7,0.3c-0.9,0-1.6-0.2-2.1-0.7
				s-0.8-1.1-0.8-2c0-1.8,1.5-2.8,4.4-2.9l1.5,0v-0.6c0-0.7-0.2-1.2-0.5-1.6c-0.3-0.3-0.8-0.5-1.5-0.5c-0.8,0-1.6,0.2-2.6,0.7
				l-0.4-1.1c0.4-0.2,0.9-0.4,1.5-0.6c0.5-0.1,1.1-0.2,1.6-0.2c1.1,0,1.9,0.2,2.4,0.7c0.5,0.5,0.8,1.3,0.8,2.3v6.2H1295.5z
				 M1292.4,957.5c0.9,0,1.5-0.2,2-0.7c0.5-0.5,0.7-1.1,0.7-2V954l-1.4,0.1c-1.1,0-1.9,0.2-2.4,0.5c-0.5,0.3-0.7,0.8-0.7,1.4
				c0,0.5,0.2,0.9,0.5,1.1S1291.8,957.5,1292.4,957.5z"/>
			<path class="st4" d="M1305.2,956c0,0.8-0.3,1.5-0.9,2c-0.6,0.5-1.5,0.7-2.7,0.7c-1.2,0-2.1-0.2-2.8-0.6v-1.3
				c0.4,0.2,0.9,0.4,1.4,0.5c0.5,0.1,1,0.2,1.4,0.2c0.7,0,1.3-0.1,1.7-0.3c0.4-0.2,0.6-0.6,0.6-1c0-0.4-0.2-0.7-0.5-0.9
				c-0.3-0.3-0.9-0.5-1.8-0.9c-0.8-0.3-1.4-0.6-1.8-0.8c-0.4-0.2-0.6-0.5-0.8-0.8c-0.2-0.3-0.3-0.7-0.3-1.1c0-0.7,0.3-1.3,0.9-1.8
				c0.6-0.4,1.4-0.6,2.5-0.6c1,0,1.9,0.2,2.9,0.6l-0.5,1.1c-0.9-0.4-1.7-0.6-2.5-0.6c-0.7,0-1.1,0.1-1.5,0.3s-0.5,0.5-0.5,0.8
				c0,0.2,0.1,0.5,0.2,0.6c0.1,0.2,0.3,0.3,0.6,0.5c0.3,0.2,0.8,0.4,1.6,0.7c1.1,0.4,1.8,0.8,2.2,1.2
				C1305,954.9,1305.2,955.4,1305.2,956z"/>
			<path class="st4" d="M1306,949.4h1.5l2,5.2c0.4,1.2,0.7,2,0.8,2.6h0.1c0.1-0.3,0.2-0.8,0.5-1.4s1-2.8,2.3-6.3h1.5l-3.9,10.4
				c-0.4,1-0.8,1.8-1.4,2.2c-0.5,0.4-1.2,0.6-1.9,0.6c-0.4,0-0.8,0-1.2-0.1v-1.1c0.3,0.1,0.6,0.1,1,0.1c0.9,0,1.6-0.5,2-1.6l0.5-1.3
				L1306,949.4z"/>
			<path class="st4" d="M1323.4,957.5c0.2,0,0.5,0,0.7-0.1c0.2,0,0.4-0.1,0.5-0.1v1.1c-0.1,0.1-0.4,0.1-0.7,0.2
				c-0.3,0-0.6,0.1-0.8,0.1c-1.8,0-2.6-0.9-2.6-2.8v-5.4h-1.3v-0.7l1.3-0.6l0.6-1.9h0.8v2.1h2.6v1.1h-2.6v5.4c0,0.5,0.1,1,0.4,1.3
				C1322.5,957.4,1322.9,957.5,1323.4,957.5z"/>
			<path class="st4" d="M1334.3,953.9c0,1.5-0.4,2.6-1.1,3.5s-1.8,1.2-3.1,1.2c-0.8,0-1.5-0.2-2.2-0.6c-0.6-0.4-1.1-0.9-1.5-1.6
				c-0.3-0.7-0.5-1.5-0.5-2.5c0-1.5,0.4-2.6,1.1-3.5c0.7-0.8,1.8-1.2,3.1-1.2c1.3,0,2.3,0.4,3,1.3
				C1333.9,951.3,1334.3,952.5,1334.3,953.9z M1327.3,953.9c0,1.2,0.2,2,0.7,2.7c0.5,0.6,1.1,0.9,2,0.9c0.9,0,1.6-0.3,2.1-0.9
				c0.5-0.6,0.7-1.5,0.7-2.7c0-1.2-0.2-2-0.7-2.6s-1.2-0.9-2.1-0.9c-0.9,0-1.6,0.3-2,0.9C1327.6,951.9,1327.3,952.7,1327.3,953.9z"
				/>
		</g>
		<g class="st3">
			<path class="st4" d="M1254.2,980.5v-5.9c0-0.7-0.2-1.3-0.5-1.7c-0.3-0.4-0.9-0.5-1.6-0.5c-1,0-1.6,0.3-2.1,0.8
				c-0.4,0.5-0.7,1.4-0.7,2.5v4.8h-1.4v-9.1h1.1l0.2,1.2h0.1c0.3-0.4,0.7-0.8,1.2-1c0.5-0.2,1.1-0.4,1.7-0.4c1.1,0,1.9,0.3,2.5,0.8
				c0.6,0.5,0.8,1.4,0.8,2.5v5.9H1254.2z"/>
			<path class="st4" d="M1264,980.5l-0.3-1.3h-0.1c-0.5,0.6-0.9,1-1.4,1.2s-1,0.3-1.7,0.3c-0.9,0-1.6-0.2-2.1-0.7
				c-0.5-0.5-0.8-1.1-0.8-2c0-1.8,1.5-2.8,4.4-2.9l1.5,0v-0.6c0-0.7-0.2-1.2-0.5-1.6c-0.3-0.3-0.8-0.5-1.5-0.5
				c-0.8,0-1.6,0.2-2.6,0.7l-0.4-1.1c0.4-0.2,0.9-0.4,1.5-0.6c0.5-0.1,1.1-0.2,1.6-0.2c1.1,0,1.9,0.2,2.4,0.7
				c0.5,0.5,0.8,1.3,0.8,2.3v6.2H1264z M1260.9,979.5c0.9,0,1.5-0.2,2-0.7c0.5-0.5,0.7-1.1,0.7-2V976l-1.4,0.1
				c-1.1,0-1.9,0.2-2.4,0.5s-0.7,0.8-0.7,1.4c0,0.5,0.2,0.9,0.5,1.1C1259.9,979.4,1260.4,979.5,1260.9,979.5z"/>
			<path class="st4" d="M1269.9,980.5l-3.5-9.1h1.5l2,5.4c0.4,1.3,0.7,2.1,0.8,2.5h0.1c0.1-0.3,0.3-0.9,0.6-1.8c0.3-0.9,1-2.9,2.2-6
				h1.5l-3.5,9.1H1269.9z"/>
			<path class="st4" d="M1276.3,968.9c0-0.3,0.1-0.5,0.2-0.7c0.2-0.1,0.3-0.2,0.6-0.2c0.2,0,0.4,0.1,0.6,0.2
				c0.2,0.1,0.2,0.4,0.2,0.7c0,0.3-0.1,0.5-0.2,0.7c-0.2,0.2-0.4,0.2-0.6,0.2c-0.2,0-0.4-0.1-0.6-0.2
				C1276.4,969.5,1276.3,969.2,1276.3,968.9z M1277.8,980.5h-1.4v-9.1h1.4V980.5z"/>
			<path class="st4" d="M1288.1,971.4v0.9l-1.7,0.2c0.2,0.2,0.3,0.4,0.4,0.8c0.1,0.3,0.2,0.7,0.2,1.1c0,0.9-0.3,1.6-0.9,2.1
				c-0.6,0.5-1.4,0.8-2.5,0.8c-0.3,0-0.5,0-0.8-0.1c-0.6,0.3-0.9,0.7-0.9,1.2c0,0.2,0.1,0.4,0.3,0.6c0.2,0.1,0.6,0.2,1.1,0.2h1.6
				c1,0,1.7,0.2,2.3,0.6c0.5,0.4,0.8,1,0.8,1.8c0,1-0.4,1.8-1.2,2.3c-0.8,0.5-2,0.8-3.5,0.8c-1.2,0-2.1-0.2-2.8-0.7
				c-0.6-0.4-1-1.1-1-1.9c0-0.6,0.2-1,0.5-1.4c0.4-0.4,0.9-0.7,1.5-0.8c-0.2-0.1-0.4-0.3-0.6-0.5c-0.2-0.2-0.2-0.5-0.2-0.8
				c0-0.3,0.1-0.6,0.3-0.9c0.2-0.2,0.5-0.5,0.8-0.7c-0.5-0.2-0.9-0.5-1.1-1s-0.4-1-0.4-1.6c0-1,0.3-1.8,0.9-2.3
				c0.6-0.5,1.4-0.8,2.5-0.8c0.5,0,0.9,0.1,1.3,0.2H1288.1z M1280.9,982c0,0.5,0.2,0.9,0.6,1.1c0.4,0.3,1,0.4,1.8,0.4
				c1.2,0,2-0.2,2.6-0.5c0.6-0.3,0.8-0.8,0.8-1.4c0-0.5-0.2-0.8-0.5-1c-0.3-0.2-0.9-0.3-1.7-0.3h-1.7c-0.6,0-1.1,0.1-1.5,0.4
				S1280.9,981.4,1280.9,982z M1281.6,974.3c0,0.6,0.2,1.1,0.5,1.4c0.4,0.3,0.9,0.5,1.5,0.5c1.3,0,2-0.7,2-2c0-1.4-0.7-2.1-2-2.1
				c-0.6,0-1.1,0.2-1.5,0.5S1281.6,973.6,1281.6,974.3z"/>
			<path class="st4" d="M1295.6,980.5l-0.3-1.3h-0.1c-0.5,0.6-0.9,1-1.4,1.2c-0.5,0.2-1,0.3-1.7,0.3c-0.9,0-1.6-0.2-2.1-0.7
				s-0.8-1.1-0.8-2c0-1.8,1.5-2.8,4.4-2.9l1.5,0v-0.6c0-0.7-0.2-1.2-0.5-1.6c-0.3-0.3-0.8-0.5-1.5-0.5c-0.8,0-1.6,0.2-2.6,0.7
				l-0.4-1.1c0.4-0.2,0.9-0.4,1.5-0.6c0.5-0.1,1.1-0.2,1.6-0.2c1.1,0,1.9,0.2,2.4,0.7c0.5,0.5,0.8,1.3,0.8,2.3v6.2H1295.6z
				 M1292.5,979.5c0.9,0,1.5-0.2,2-0.7c0.5-0.5,0.7-1.1,0.7-2V976l-1.4,0.1c-1.1,0-1.9,0.2-2.4,0.5c-0.5,0.3-0.7,0.8-0.7,1.4
				c0,0.5,0.2,0.9,0.5,1.1S1292,979.5,1292.5,979.5z"/>
			<path class="st4" d="M1302.4,979.5c0.2,0,0.5,0,0.7-0.1c0.2,0,0.4-0.1,0.5-0.1v1.1c-0.1,0.1-0.4,0.1-0.7,0.2
				c-0.3,0-0.6,0.1-0.8,0.1c-1.8,0-2.6-0.9-2.6-2.8v-5.4h-1.3v-0.7l1.3-0.6l0.6-1.9h0.8v2.1h2.6v1.1h-2.6v5.4c0,0.5,0.1,1,0.4,1.3
				C1301.6,979.4,1302,979.5,1302.4,979.5z"/>
			<path class="st4" d="M1309.3,980.6c-1.3,0-2.4-0.4-3.2-1.2c-0.8-0.8-1.2-2-1.2-3.4c0-1.5,0.4-2.6,1.1-3.5
				c0.7-0.9,1.7-1.3,2.9-1.3c1.1,0,2,0.4,2.7,1.1s1,1.7,1,3v0.9h-6.3c0,1.1,0.3,1.9,0.8,2.4c0.5,0.6,1.2,0.8,2.2,0.8
				c1,0,1.9-0.2,2.9-0.6v1.2c-0.5,0.2-0.9,0.4-1.4,0.5C1310.5,980.6,1309.9,980.6,1309.3,980.6z M1308.9,972.4
				c-0.7,0-1.3,0.2-1.7,0.7c-0.4,0.5-0.7,1.1-0.8,2h4.8c0-0.9-0.2-1.5-0.6-2C1310.2,972.6,1309.7,972.4,1308.9,972.4z"/>
		</g>
	</g>
	<path id="Path_4370" class="st5" d="M410.6,1247.4h-11.9v42H285.6"/>
	<g id="Group_4620" transform="translate(-166 375.184)">
		<circle id="Ellipse_144" class="st1" cx="1222.6" cy="942" r="4"/>
	</g>
	<path id="Path_4371" class="st6" d="M1060.6,1317.2l11.6,0l0.1-30l154.3,0.4"/>
</g>
</svg>
