<svg xmlns="http://www.w3.org/2000/svg" width="440" height="252" viewBox="0 0 440 252">
  <g id="Group_6369" data-name="Group 6369" transform="translate(-488.263 -1.197)">
    <g id="Background">
      <rect id="Rectangle_665" data-name="Rectangle 665" width="440" height="252" transform="translate(488.263 1.197)" fill="#ffe4de"/>
      <g id="Group_6304" data-name="Group 6304">
        <g id="Group_6274" data-name="Group 6274">
          <g id="Group_6272" data-name="Group 6272">
            <path id="Path_5388" data-name="Path 5388" d="M665.426,210.153H500.153a1,1,0,1,1,0-2H665.426a1,1,0,0,1,0,2Z" fill="#ffb7a7"/>
          </g>
          <g id="Group_6273" data-name="Group 6273">
            <path id="Path_5389" data-name="Path 5389" d="M673.185,191.974H500.153a1,1,0,1,1,0-2H673.185a1,1,0,0,1,0,2Z" fill="#ffb7a7"/>
          </g>
        </g>
        <g id="Group_6275" data-name="Group 6275">
          <path id="Path_5390" data-name="Path 5390" d="M665.537,171.134a7.418,7.418,0,0,1-4.7-2.066l-77.77-68.9a29.916,29.916,0,0,0-17.355-7.289c-12.074-.727-20.34,8.281-20.422,8.372L503.5,140.931a1,1,0,1,1-1.376-1.451l41.733-39.627c.3-.344,8.9-9.77,21.976-8.975a31.4,31.4,0,0,1,18.592,7.817l77.782,68.918a5.489,5.489,0,0,0,3.328,1.521,1,1,0,0,1,0,2Z" fill="#ffb7a7"/>
        </g>
        <g id="Group_6276" data-name="Group 6276">
          <path id="Path_5391" data-name="Path 5391" d="M538.566,124.373a3.343,3.343,0,0,1-.4-.023c-4.138-.487-8.048-5.489-8.212-5.7a1,1,0,0,1,1.582-1.224c.035.046,3.561,4.551,6.864,4.94,1.354.17,3.266-1.951,4.942-3.815,2.141-2.379,4.355-4.838,6.912-4.838,2.43,0,4.691,1.986,7.084,4.089,2.178,1.913,4.43,3.892,6.44,3.892,1.817,0,3.71-1.85,5.714-3.808,2.456-2.4,4.974-4.891,8.118-4.613,3.1.27,5.668,2.954,7.932,5.321,1.6,1.67,3.2,3.385,4.329,3.324,2.889-.193,6.178-3.644,6.211-3.679a1,1,0,0,1,1.457,1.372c-.157.165-3.86,4.057-7.536,4.3-2.01.141-3.817-1.752-5.906-3.936-2.02-2.113-4.309-4.507-6.661-4.711-2.216-.2-4.412,1.965-6.546,4.05-2.2,2.153-4.479,4.378-7.112,4.378-2.764,0-5.3-2.232-7.759-4.389-2.01-1.766-4.088-3.592-5.765-3.592s-3.664,2.219-5.425,4.176C542.758,122.19,540.793,124.373,538.566,124.373Z" fill="#ffb7a7"/>
        </g>
        <g id="Group_6277" data-name="Group 6277">
          <path id="Path_5392" data-name="Path 5392" d="M587.168,52.858H561.334a9.092,9.092,0,1,1,0-18.183h6.945a9.192,9.192,0,0,1,17.388,0h1.5a9.092,9.092,0,1,1,0,18.183ZM561.334,36.675a7.092,7.092,0,1,0,0,14.183h25.834a7.092,7.092,0,1,0,0-14.183H584.92a1,1,0,0,1-.969-.758,7.192,7.192,0,0,0-13.956,0,1,1,0,0,1-.97.758Z" fill="#ffb7a7"/>
        </g>
        <g id="Group_6278" data-name="Group 6278">
          <path id="Path_5393" data-name="Path 5393" d="M526.979,111.056a1,1,0,0,1-.853-.478c-7.991-13.039-23.521-11.951-23.674-11.941a.986.986,0,0,1-1.077-.915,1,1,0,0,1,.914-1.078c.17-.015,16.9-1.218,25.542,12.889a1,1,0,0,1-.852,1.523Z" fill="#ffb7a7"/>
        </g>
        <g id="Group_6279" data-name="Group 6279">
          <path id="Path_5394" data-name="Path 5394" d="M602.8,112.164a1,1,0,0,1-.754-1.656c.492-.566,12.153-13.83,21.812-13.205,8.841-.629,17.075,9.917,17.423,10.368a1,1,0,0,1-1.584,1.222c-.078-.1-8.021-10.229-15.756-9.59a.939.939,0,0,1-.15,0c-8.762-.625-20.121,12.385-20.236,12.517A1,1,0,0,1,602.8,112.164Z" fill="#ffb7a7"/>
        </g>
        <g id="Group_6287" data-name="Group 6287">
          <g id="Group_6283" data-name="Group 6283">
            <g id="Group_6280" data-name="Group 6280">
              <path id="Path_5395" data-name="Path 5395" d="M541.464,151.459H526.348a4,4,0,0,1-4-4v-.817c0-1.709,6.786-11.195,10.832-16.7a1,1,0,0,1,.806-.407.967.967,0,0,1,.81.414c3.984,5.5,10.668,14.993,10.668,16.691v.817A4,4,0,0,1,541.464,151.459Zm-7.484-19.221c-4.687,6.428-9.4,13.344-9.638,14.482l.006.739a2,2,0,0,0,2,2h15.116a2,2,0,0,0,2-2v-.817C543.239,145.583,538.6,138.671,533.98,132.238Z" fill="#ffb7a7"/>
            </g>
            <g id="Group_6281" data-name="Group 6281">
              <path id="Path_5396" data-name="Path 5396" d="M543.428,164.262H524.384c-2.635,0-4.779-1.794-4.779-4v-.817c0-1.157,2.045-4.418,3.521-6.327a1,1,0,0,1,1.582,1.222,21.049,21.049,0,0,0-3.108,5.174l.005.748c0,1.084,1.272,2,2.779,2h19.044c1.507,0,2.78-.916,2.78-2v-.749a33.338,33.338,0,0,0-3.165-5.221,1,1,0,0,1,1.652-1.127c3.513,5.154,3.513,5.972,3.513,6.28v.817C548.208,162.468,546.064,164.262,543.428,164.262Zm2.788-4.716Z" fill="#ffb7a7"/>
            </g>
            <g id="Group_6282" data-name="Group 6282">
              <path id="Path_5397" data-name="Path 5397" d="M545.392,177.231H522.42c-3.117,0-5.559-1.757-5.559-4v-.817c0-.692.523-1.824,3.384-6.091a1,1,0,1,1,1.662,1.113c-2.4,3.575-2.983,4.722-3.052,5.054l.006.741c0,.946,1.462,2,3.559,2h22.972c2.1,0,3.56-1.054,3.56-2v-.743a50.154,50.154,0,0,0-3.325-5.346,1,1,0,0,1,1.665-1.109c2.879,4.32,3.66,5.6,3.66,6.381v.817C550.952,175.474,548.509,177.231,545.392,177.231Z" fill="#ffb7a7"/>
            </g>
          </g>
          <g id="Group_6286" data-name="Group 6286">
            <g id="Group_6284" data-name="Group 6284">
              <path id="Path_5398" data-name="Path 5398" d="M530.914,185.656a1,1,0,0,1-1-1v-5.987a1,1,0,0,1,2,0v5.987A1,1,0,0,1,530.914,185.656Z" fill="#ffb7a7"/>
            </g>
            <g id="Group_6285" data-name="Group 6285">
              <path id="Path_5399" data-name="Path 5399" d="M536.9,185.656a1,1,0,0,1-1-1v-5.987a1,1,0,0,1,2,0v5.987A1,1,0,0,1,536.9,185.656Z" fill="#ffb7a7"/>
            </g>
          </g>
        </g>
        <g id="Group_6295" data-name="Group 6295">
          <g id="Group_6291" data-name="Group 6291">
            <g id="Group_6288" data-name="Group 6288">
              <path id="Path_5400" data-name="Path 5400" d="M579.919,153.862h-13.9a3.738,3.738,0,0,1-3.759-3.707v-.738c0-1.5,5.429-9.055,9.983-15.134a1,1,0,0,1,.8-.4,1.118,1.118,0,0,1,.8.407c4.486,6.081,9.832,13.642,9.832,15.128v.738A3.737,3.737,0,0,1,579.919,153.862Zm-6.883-17.3c-4.262,5.739-8.541,11.9-8.785,12.95l.007.642a1.736,1.736,0,0,0,1.759,1.707h13.9a1.736,1.736,0,0,0,1.759-1.707v-.738C581.447,148.461,577.234,142.306,573.036,136.563Z" fill="#ffb7a7"/>
            </g>
            <g id="Group_6289" data-name="Group 6289">
              <path id="Path_5401" data-name="Path 5401" d="M581.726,165.416H564.21c-2.467,0-4.475-1.663-4.475-3.708v-.737c0-1.116,1.945-4.107,3.261-5.777a1,1,0,1,1,1.57,1.238,19.223,19.223,0,0,0-2.838,4.624l.007.652c0,.926,1.134,1.708,2.475,1.708h17.516c1.342,0,2.476-.782,2.476-1.708v-.657a31.077,31.077,0,0,0-2.893-4.668,1,1,0,0,1,1.643-1.14c3.25,4.677,3.25,5.414,3.25,5.728v.737C586.2,163.753,584.194,165.416,581.726,165.416Zm2.487-4.326Z" fill="#ffb7a7"/>
            </g>
            <g id="Group_6290" data-name="Group 6290">
              <path id="Path_5402" data-name="Path 5402" d="M583.532,177.121H562.405c-2.912,0-5.194-1.629-5.194-3.708v-.738c0-.66.469-1.661,3.131-5.558a1,1,0,0,1,1.653,1.129c-2.178,3.186-2.72,4.218-2.791,4.522l.007.645c0,.806,1.366,1.708,3.194,1.708h21.127c1.828,0,3.193-.9,3.193-1.708v-.651a47.662,47.662,0,0,0-3.039-4.782,1,1,0,1,1,1.654-1.125c2.663,3.918,3.385,5.084,3.385,5.82v.738C588.725,175.492,586.444,177.121,583.532,177.121Z" fill="#ffb7a7"/>
            </g>
          </g>
          <g id="Group_6294" data-name="Group 6294">
            <g id="Group_6292" data-name="Group 6292">
              <path id="Path_5403" data-name="Path 5403" d="M570.215,185.656a1,1,0,0,1-1-1v-5.505a1,1,0,0,1,2,0v5.505A1,1,0,0,1,570.215,185.656Z" fill="#ffb7a7"/>
            </g>
            <g id="Group_6293" data-name="Group 6293">
              <path id="Path_5404" data-name="Path 5404" d="M575.721,185.656a1,1,0,0,1-1-1v-5.505a1,1,0,0,1,2,0v5.505A1,1,0,0,1,575.721,185.656Z" fill="#ffb7a7"/>
            </g>
          </g>
        </g>
        <g id="Group_6303" data-name="Group 6303">
          <g id="Group_6299" data-name="Group 6299">
            <g id="Group_6296" data-name="Group 6296">
              <path id="Path_5405" data-name="Path 5405" d="M615.511,156.241h-12.7a3.474,3.474,0,0,1-3.52-3.417v-.659c0-1.1,3.076-5.671,9.143-13.587a.949.949,0,0,1,.8-.392,1,1,0,0,1,.794.4c5.975,7.919,9.006,12.49,9.006,13.582v.659A3.474,3.474,0,0,1,615.511,156.241Zm-14.22-4v.581a1.473,1.473,0,0,0,1.52,1.417h12.7a1.473,1.473,0,0,0,1.521-1.417v-.583c-.328-1.051-4.073-6.4-7.81-11.4C605.43,145.838,601.627,151.185,601.291,152.243Zm-.012.039Zm15.764,0Z" fill="#ffb7a7"/>
            </g>
            <g id="Group_6297" data-name="Group 6297">
              <path id="Path_5406" data-name="Path 5406" d="M617.162,166.558h-16c-2.3,0-4.175-1.533-4.175-3.417v-.659c0-1.028,1.792-3.731,3-5.234a1,1,0,0,1,1.556,1.256,17.935,17.935,0,0,0-2.56,4.047v.59c0,.755,1.016,1.417,2.175,1.417h16c1.158,0,2.174-.662,2.174-1.417v-.564a28.89,28.89,0,0,0-2.62-4.121,1,1,0,1,1,1.629-1.159c2.991,4.2,2.991,4.867,2.991,5.185v.659C621.336,165.025,619.463,166.558,617.162,166.558Zm2.189-3.936Z" fill="#ffb7a7"/>
            </g>
            <g id="Group_6298" data-name="Group 6298">
              <path id="Path_5407" data-name="Path 5407" d="M618.811,177.009h-19.3c-2.709,0-4.831-1.5-4.831-3.417v-.659c0-.628.416-1.5,2.882-5.032a1,1,0,0,1,1.639,1.144,25.608,25.608,0,0,0-2.521,3.965v.582c0,.578,1.1,1.417,2.831,1.417h19.3c1.729,0,2.831-.839,2.831-1.417v-.557a44.2,44.2,0,0,0-2.748-4.217l1.636-1.151c2.488,3.583,3.112,4.575,3.112,5.266v.659C623.642,175.508,621.52,177.009,618.811,177.009Zm2.849-3.924Zm-24.991-.038Z" fill="#ffb7a7"/>
            </g>
          </g>
          <g id="Group_6302" data-name="Group 6302">
            <g id="Group_6300" data-name="Group 6300">
              <path id="Path_5408" data-name="Path 5408" d="M606.647,185.656a1,1,0,0,1-1-1v-5.03a1,1,0,0,1,2,0v5.03A1,1,0,0,1,606.647,185.656Z" fill="#ffb7a7"/>
            </g>
            <g id="Group_6301" data-name="Group 6301">
              <path id="Path_5409" data-name="Path 5409" d="M611.675,185.656a1,1,0,0,1-1-1v-5.03a1,1,0,0,1,2,0v5.03A1,1,0,0,1,611.675,185.656Z" fill="#ffb7a7"/>
            </g>
          </g>
        </g>
      </g>
      <g id="Group_6337" data-name="Group 6337">
        <g id="Group_6307" data-name="Group 6307">
          <g id="Group_6305" data-name="Group 6305">
            <path id="Path_5410" data-name="Path 5410" d="M913.945,210.153H748.672a1,1,0,0,1,0-2H913.945a1,1,0,0,1,0,2Z" fill="#ffb7a7"/>
          </g>
          <g id="Group_6306" data-name="Group 6306">
            <path id="Path_5411" data-name="Path 5411" d="M913.945,191.974H740.913a1,1,0,0,1,0-2H913.945a1,1,0,0,1,0,2Z" fill="#ffb7a7"/>
          </g>
        </g>
        <g id="Group_6308" data-name="Group 6308">
          <path id="Path_5412" data-name="Path 5412" d="M748.561,171.134a1,1,0,0,1,0-2,5.465,5.465,0,0,0,3.284-1.48L829.7,98.665a31.39,31.39,0,0,1,18.559-7.787c13.107-.795,21.675,8.632,22.033,9.033l41.677,39.569a1,1,0,0,1-1.377,1.451L868.863,101.3c-.139-.148-8.393-9.166-20.479-8.429a29.908,29.908,0,0,0-17.323,7.26l-77.846,68.975A7.376,7.376,0,0,1,748.561,171.134Z" fill="#ffb7a7"/>
        </g>
        <g id="Group_6309" data-name="Group 6309">
          <path id="Path_5413" data-name="Path 5413" d="M875.533,124.373c-2.228,0-4.193-2.183-6.266-4.486-1.762-1.958-3.759-4.176-5.425-4.176s-3.755,1.826-5.764,3.592c-2.456,2.158-5,4.389-7.759,4.389-2.633,0-4.91-2.225-7.112-4.378-2.134-2.085-4.346-4.245-6.546-4.05-2.352.2-4.641,2.6-6.661,4.71-2.089,2.185-3.915,4.078-5.908,3.937-3.675-.245-7.378-4.137-7.534-4.3a1,1,0,0,1,1.456-1.372c.033.035,3.322,3.486,6.211,3.679,1.06.057,2.733-1.654,4.329-3.324,2.265-2.367,4.831-5.051,7.933-5.321,3.132-.278,5.661,2.212,8.118,4.613,2,1.958,3.9,3.808,5.714,3.808,2.009,0,4.261-1.979,6.438-3.892,2.394-2.1,4.656-4.089,7.085-4.089,2.557,0,4.771,2.459,6.911,4.838,1.678,1.864,3.589,3.987,4.944,3.815,2.749-.324,5.887-3.675,6.863-4.939a1,1,0,1,1,1.582,1.223c-.164.213-4.073,5.215-8.211,5.7A3.345,3.345,0,0,1,875.533,124.373Z" fill="#ffb7a7"/>
        </g>
        <g id="Group_6310" data-name="Group 6310">
          <path id="Path_5414" data-name="Path 5414" d="M872.766,52.858H846.931a9.092,9.092,0,1,1,0-18.183h1.5a9.192,9.192,0,0,1,17.388,0h6.945a9.092,9.092,0,1,1,0,18.183ZM846.931,36.675a7.092,7.092,0,1,0,0,14.183h25.835a7.092,7.092,0,1,0,0-14.183h-7.691a1,1,0,0,1-.97-.758,7.192,7.192,0,0,0-13.956,0,1,1,0,0,1-.97.758Z" fill="#ffb7a7"/>
        </g>
        <g id="Group_6311" data-name="Group 6311">
          <path id="Path_5415" data-name="Path 5415" d="M887.12,111.056a1,1,0,0,1-.852-1.523c8.645-14.1,25.374-12.9,25.542-12.889a1,1,0,0,1,.914,1.078.987.987,0,0,1-1.077.915c-.153-.011-15.684-1.1-23.674,11.941A1,1,0,0,1,887.12,111.056Z" fill="#ffb7a7"/>
        </g>
        <g id="Group_6312" data-name="Group 6312">
          <path id="Path_5416" data-name="Path 5416" d="M811.3,112.164a1,1,0,0,1-.755-.344c-.114-.131-11.534-13.136-20.235-12.517a.939.939,0,0,1-.15,0c-7.755-.631-15.678,9.486-15.756,9.589a1,1,0,1,1-1.584-1.221c.347-.451,8.582-11,17.423-10.368,9.7-.618,21.32,12.639,21.812,13.205a1,1,0,0,1-.755,1.656Z" fill="#ffb7a7"/>
        </g>
        <g id="Group_6320" data-name="Group 6320">
          <g id="Group_6316" data-name="Group 6316">
            <g id="Group_6313" data-name="Group 6313">
              <path id="Path_5417" data-name="Path 5417" d="M887.751,151.459H872.634a4,4,0,0,1-4-4v-.817c0-1.7,6.685-11.186,10.668-16.691a1,1,0,0,1,.807-.414h0a1,1,0,0,1,.805.407c4.046,5.5,10.833,14.989,10.833,16.7v.817A4,4,0,0,1,887.751,151.459Zm-7.632-19.221c-4.618,6.433-9.259,13.349-9.491,14.481l.006.74a2,2,0,0,0,2,2h15.117a2,2,0,0,0,2-2v-.817C889.519,145.579,884.806,138.666,880.119,132.238Z" fill="#ffb7a7"/>
            </g>
            <g id="Group_6314" data-name="Group 6314">
              <path id="Path_5418" data-name="Path 5418" d="M889.714,164.262H870.67c-2.635,0-4.78-1.794-4.78-4v-.817c0-.309,0-1.127,3.514-6.28a1,1,0,0,1,1.652,1.127,33.2,33.2,0,0,0-3.166,5.221v.749c0,1.084,1.274,2,2.78,2h19.044c1.507,0,2.78-.916,2.78-2v-.817a22.422,22.422,0,0,0-3.1-5.105,1,1,0,0,1,1.582-1.222c1.476,1.909,3.521,5.17,3.521,6.327v.817C894.494,162.468,892.35,164.262,889.714,164.262Zm-21.833-4.716Z" fill="#ffb7a7"/>
            </g>
            <g id="Group_6315" data-name="Group 6315">
              <path id="Path_5419" data-name="Path 5419" d="M891.678,177.231H868.707c-3.118,0-5.56-1.757-5.56-4v-.817c0-.781.78-2.061,3.66-6.381a1,1,0,1,1,1.664,1.109,50.267,50.267,0,0,0-3.324,5.346v.743c0,.946,1.462,2,3.56,2h22.971c2.1,0,3.56-1.054,3.56-2v-.817a32.387,32.387,0,0,0-3.046-4.978,1,1,0,1,1,1.662-1.113c2.86,4.269,3.384,5.4,3.384,6.091v.817C897.238,175.474,894.795,177.231,891.678,177.231Z" fill="#ffb7a7"/>
            </g>
          </g>
          <g id="Group_6319" data-name="Group 6319">
            <g id="Group_6317" data-name="Group 6317">
              <path id="Path_5420" data-name="Path 5420" d="M883.185,185.656a1,1,0,0,1-1-1v-5.987a1,1,0,0,1,2,0v5.987A1,1,0,0,1,883.185,185.656Z" fill="#ffb7a7"/>
            </g>
            <g id="Group_6318" data-name="Group 6318">
              <path id="Path_5421" data-name="Path 5421" d="M877.2,185.656a1,1,0,0,1-1-1v-5.987a1,1,0,0,1,2,0v5.987A1,1,0,0,1,877.2,185.656Z" fill="#ffb7a7"/>
            </g>
          </g>
        </g>
        <g id="Group_6328" data-name="Group 6328">
          <g id="Group_6324" data-name="Group 6324">
            <g id="Group_6321" data-name="Group 6321">
              <path id="Path_5422" data-name="Path 5422" d="M848.082,153.862h-13.9a3.738,3.738,0,0,1-3.76-3.707v-.738c0-1.486,5.348-9.047,9.833-15.128a1,1,0,0,1,.8-.407h0a1,1,0,0,1,.8.4c4.554,6.079,9.982,13.639,9.982,15.134v.738A3.737,3.737,0,0,1,848.082,153.862Zm-7.019-17.3c-4.2,5.743-8.413,11.9-8.651,12.948l.007.644a1.737,1.737,0,0,0,1.76,1.707h13.9a1.735,1.735,0,0,0,1.758-1.707v-.738C849.6,148.458,845.325,142.3,841.063,136.563Z" fill="#ffb7a7"/>
            </g>
            <g id="Group_6322" data-name="Group 6322">
              <path id="Path_5423" data-name="Path 5423" d="M849.887,165.416H832.373c-2.468,0-4.476-1.663-4.476-3.708v-.737c0-.314,0-1.051,3.25-5.728a1,1,0,0,1,1.643,1.14,30.975,30.975,0,0,0-2.893,4.668v.657c0,.926,1.134,1.708,2.476,1.708h17.514c1.343,0,2.477-.782,2.477-1.708v-.737a21.043,21.043,0,0,0-2.831-4.539,1,1,0,1,1,1.57-1.238c1.315,1.67,3.261,4.661,3.261,5.777v.737C854.364,163.753,852.356,165.416,849.887,165.416Zm-20-4.326Z" fill="#ffb7a7"/>
            </g>
            <g id="Group_6323" data-name="Group 6323">
              <path id="Path_5424" data-name="Path 5424" d="M851.694,177.121H830.567c-2.912,0-5.193-1.629-5.193-3.708v-.738c0-.735.72-1.9,3.383-5.819a1,1,0,1,1,1.655,1.123,47.886,47.886,0,0,0-3.038,4.783v.651c0,.806,1.365,1.708,3.193,1.708h21.127c1.827,0,3.192-.9,3.192-1.708v-.738a31.826,31.826,0,0,0-2.782-4.429,1,1,0,1,1,1.652-1.129c2.662,3.9,3.13,4.9,3.13,5.558v.738C856.886,175.492,854.6,177.121,851.694,177.121ZM827.36,172.8Z" fill="#ffb7a7"/>
            </g>
          </g>
          <g id="Group_6327" data-name="Group 6327">
            <g id="Group_6325" data-name="Group 6325">
              <path id="Path_5425" data-name="Path 5425" d="M843.882,185.656a1,1,0,0,1-1-1v-5.505a1,1,0,0,1,2,0v5.505A1,1,0,0,1,843.882,185.656Z" fill="#ffb7a7"/>
            </g>
            <g id="Group_6326" data-name="Group 6326">
              <path id="Path_5426" data-name="Path 5426" d="M838.377,185.656a1,1,0,0,1-1-1v-5.505a1,1,0,0,1,2,0v5.505A1,1,0,0,1,838.377,185.656Z" fill="#ffb7a7"/>
            </g>
          </g>
        </g>
        <g id="Group_6336" data-name="Group 6336">
          <g id="Group_6332" data-name="Group 6332">
            <g id="Group_6329" data-name="Group 6329">
              <path id="Path_5427" data-name="Path 5427" d="M811.288,156.241h-12.7a3.474,3.474,0,0,1-3.52-3.417v-.659c0-1.092,3.03-5.663,9.006-13.582a1,1,0,0,1,.794-.4h0a1,1,0,0,1,.794.392c6.067,7.916,9.143,12.488,9.143,13.587v.659A3.474,3.474,0,0,1,811.288,156.241Zm-14.221-4v.583a1.473,1.473,0,0,0,1.52,1.417h12.7a1.473,1.473,0,0,0,1.52-1.417v-.581c-.337-1.058-4.14-6.4-7.932-11.4C801.14,145.843,797.4,151.19,797.067,152.241Zm15.753.041Zm-15.764,0Z" fill="#ffb7a7"/>
            </g>
            <g id="Group_6330" data-name="Group 6330">
              <path id="Path_5428" data-name="Path 5428" d="M812.937,166.558h-16c-2.3,0-4.176-1.533-4.176-3.417v-.659c0-.318,0-.978,2.99-5.185a1,1,0,0,1,1.631,1.159,28.52,28.52,0,0,0-2.621,4.121v.564c0,.755,1.017,1.417,2.176,1.417h16c1.159,0,2.176-.662,2.176-1.417v-.59a17.982,17.982,0,0,0-2.561-4.048,1,1,0,0,1,1.557-1.254c1.212,1.5,3,4.207,3,5.233v.659C817.113,165.025,815.24,166.558,812.937,166.558Zm-18.19-3.936Zm20.375-.038h0Z" fill="#ffb7a7"/>
            </g>
            <g id="Group_6331" data-name="Group 6331">
              <path id="Path_5429" data-name="Path 5429" d="M814.587,177.009h-19.3c-2.709,0-4.831-1.5-4.831-3.417v-.659c0-.694.626-1.687,3.112-5.266a1,1,0,1,1,1.642,1.141,44.867,44.867,0,0,0-2.754,4.227v.557c0,.578,1.1,1.417,2.831,1.417h19.3c1.728,0,2.831-.839,2.831-1.417v-.582a25.162,25.162,0,0,0-2.52-3.965,1,1,0,0,1,1.639-1.144c2.45,3.505,2.881,4.416,2.881,5.032v.659C819.418,175.508,817.295,177.009,814.587,177.009Zm-22.148-3.925Zm24.989-.038h0Z" fill="#ffb7a7"/>
            </g>
          </g>
          <g id="Group_6335" data-name="Group 6335">
            <g id="Group_6333" data-name="Group 6333">
              <path id="Path_5430" data-name="Path 5430" d="M807.452,185.656a1,1,0,0,1-1-1v-5.03a1,1,0,0,1,2,0v5.03A1,1,0,0,1,807.452,185.656Z" fill="#ffb7a7"/>
            </g>
            <g id="Group_6334" data-name="Group 6334">
              <path id="Path_5431" data-name="Path 5431" d="M802.422,185.656a1,1,0,0,1-1-1v-5.03a1,1,0,0,1,2,0v5.03A1,1,0,0,1,802.422,185.656Z" fill="#ffb7a7"/>
            </g>
          </g>
        </g>
      </g>
    </g>
    <g id="Fill">
      <g id="Group_6338" data-name="Group 6338">
        <path id="Path_5432" data-name="Path 5432" d="M708.254,65.013a1.008,1.008,0,0,0-.99-.326l-3.547.832a1.009,1.009,0,0,0-.451.24l-72.937,67.505a1,1,0,0,0,.028,1.493l35.637,30.594a1,1,0,0,0,.651.241,1.021,1.021,0,0,0,.232-.027,1,1,0,0,0,.692-.591l40.848-98.931A1,1,0,0,0,708.254,65.013Z" fill="#fe704f"/>
        <path id="Path_5433" data-name="Path 5433" d="M716.109,30.471,707.13,25.7a1,1,0,0,0-1.468.888l.11,23.389a1,1,0,0,0,1.5.862l8.868-5.1a1,1,0,0,0,.5-.867V31.354A1,1,0,0,0,716.109,30.471Z" fill="#fe704f"/>
        <path id="Path_5434" data-name="Path 5434" d="M714.261,151.635c-.371-.063-9.175-1.567-16.715.5-8.618,3.3-11.453,7.637-16.15,14.815l-1.259,1.918c-2.227,3.375-2.27,17.122-2.136,29.743.027,2.452.047,4.389,0,4.913-.121,1.315-3.381,3.328-5.547,4.273a1,1,0,0,0-.3,1.629c.35.347,8.666,8.512,14.526,10.806,5.329,2.084,18.545,4.3,20.353,4.3a.863.863,0,0,0,.159-.011,1.01,1.01,0,0,0,.8-.875c.085-.767-.169-.879-2.142-1.753-10.671-4.727-16.865-8.572-18.457-11.45,4.152-1.308,6.136-8.236,6.189-11.021.014-.8.064-2.066.129-3.745.172-4.414.46-11.8.536-21.316.1-13.14,19.989-20.723,20.189-20.8a1,1,0,0,0-.177-1.922Z" fill="#fe704f"/>
      </g>
    </g>
    <g id="Outlines">
      <g id="Group_6368" data-name="Group 6368">
        <g id="Group_6339" data-name="Group 6339">
          <path id="Path_5435" data-name="Path 5435" d="M783.977,136.33a1.492,1.492,0,0,1-1.032-.413L712.707,69.244h0a8.984,8.984,0,0,0-5.214-2.083,9.624,9.624,0,0,0-5.439,2.21l-70.019,65.721a1.5,1.5,0,1,1-2.053-2.187l70.059-65.757a12.573,12.573,0,0,1,7.452-2.987,11.938,11.938,0,0,1,7.253,2.883l70.263,66.7a1.5,1.5,0,0,1-1.032,2.588Z" fill="#333"/>
        </g>
        <g id="Group_6340" data-name="Group 6340">
          <path id="Path_5436" data-name="Path 5436" d="M706.994,61.674a1.5,1.5,0,0,1-1.5-1.5V20.048a1.5,1.5,0,0,1,3,0V60.174A1.5,1.5,0,0,1,706.994,61.674Z" fill="#333"/>
        </g>
        <g id="Group_6341" data-name="Group 6341">
          <path id="Path_5437" data-name="Path 5437" d="M712.759,48.816a1.5,1.5,0,0,1-.691-2.832l15.259-7.912-15.205-7.134a1.5,1.5,0,1,1,1.273-2.715l17.957,8.424a1.5,1.5,0,0,1,.054,2.689l-17.957,9.311A1.489,1.489,0,0,1,712.759,48.816Z" fill="#333"/>
        </g>
        <g id="Group_6342" data-name="Group 6342">
          <path id="Path_5438" data-name="Path 5438" d="M788.467,57.9A11.809,11.809,0,1,1,800.276,46.1,11.821,11.821,0,0,1,788.467,57.9Zm0-20.617a8.809,8.809,0,1,0,8.809,8.809A8.818,8.818,0,0,0,788.467,37.288Z" fill="#333"/>
        </g>
        <g id="Group_6358" data-name="Group 6358">
          <g id="Group_6347" data-name="Group 6347">
            <g id="Group_6343" data-name="Group 6343">
              <path id="Path_5439" data-name="Path 5439" d="M788.467,31.081a1.5,1.5,0,0,1-1.5-1.5V22.708a1.5,1.5,0,0,1,3,0v6.873A1.5,1.5,0,0,1,788.467,31.081Z" fill="#333"/>
            </g>
            <g id="Group_6344" data-name="Group 6344">
              <path id="Path_5440" data-name="Path 5440" d="M788.467,70.985a1.5,1.5,0,0,1-1.5-1.5V62.613a1.5,1.5,0,0,1,3,0v6.872A1.5,1.5,0,0,1,788.467,70.985Z" fill="#333"/>
            </g>
            <g id="Group_6345" data-name="Group 6345">
              <path id="Path_5441" data-name="Path 5441" d="M771.952,47.6h-6.873a1.5,1.5,0,0,1,0-3h6.873a1.5,1.5,0,0,1,0,3Z" fill="#333"/>
            </g>
            <g id="Group_6346" data-name="Group 6346">
              <path id="Path_5442" data-name="Path 5442" d="M811.856,47.6h-6.872a1.5,1.5,0,0,1,0-3h6.872a1.5,1.5,0,0,1,0,3Z" fill="#333"/>
            </g>
          </g>
          <g id="Group_6352" data-name="Group 6352">
            <g id="Group_6348" data-name="Group 6348">
              <path id="Path_5443" data-name="Path 5443" d="M802.764,39.325a1.5,1.5,0,0,1-.752-2.8l5.948-3.442a1.5,1.5,0,0,1,1.5,2.6l-5.948,3.442A1.491,1.491,0,0,1,802.764,39.325Z" fill="#333"/>
            </g>
            <g id="Group_6349" data-name="Group 6349">
              <path id="Path_5444" data-name="Path 5444" d="M768.224,59.311a1.5,1.5,0,0,1-.752-2.8l5.949-3.442a1.5,1.5,0,1,1,1.5,2.6l-5.949,3.442A1.491,1.491,0,0,1,768.224,59.311Z" fill="#333"/>
            </g>
            <g id="Group_6350" data-name="Group 6350">
              <path id="Path_5445" data-name="Path 5445" d="M780.2,33.3a1.5,1.5,0,0,1-1.3-.749L775.456,26.6a1.5,1.5,0,1,1,2.6-1.5l3.443,5.949a1.5,1.5,0,0,1-1.3,2.252Z" fill="#333"/>
            </g>
            <g id="Group_6351" data-name="Group 6351">
              <path id="Path_5446" data-name="Path 5446" d="M800.182,67.841a1.5,1.5,0,0,1-1.3-.749l-3.441-5.949a1.5,1.5,0,0,1,2.6-1.5l3.441,5.949a1.5,1.5,0,0,1-1.3,2.251Z" fill="#333"/>
            </g>
          </g>
          <g id="Group_6357" data-name="Group 6357">
            <g id="Group_6353" data-name="Group 6353">
              <path id="Path_5447" data-name="Path 5447" d="M797.04,33.479a1.5,1.5,0,0,1-1.282-2.278l3.567-5.874a1.5,1.5,0,1,1,2.564,1.556l-3.566,5.875A1.5,1.5,0,0,1,797.04,33.479Z" fill="#333"/>
            </g>
            <g id="Group_6354" data-name="Group 6354">
              <path id="Path_5448" data-name="Path 5448" d="M776.327,67.588a1.5,1.5,0,0,1-1.282-2.278l3.568-5.875a1.5,1.5,0,0,1,2.564,1.558l-3.567,5.874A1.5,1.5,0,0,1,776.327,67.588Z" fill="#333"/>
            </g>
            <g id="Group_6355" data-name="Group 6355">
              <path id="Path_5449" data-name="Path 5449" d="M774.349,39.024a1.49,1.49,0,0,1-.777-.218L767.7,35.239a1.5,1.5,0,1,1,1.556-2.564l5.874,3.567a1.5,1.5,0,0,1-.779,2.782Z" fill="#333"/>
            </g>
            <g id="Group_6356" data-name="Group 6356">
              <path id="Path_5450" data-name="Path 5450" d="M808.459,59.736a1.5,1.5,0,0,1-.778-.217l-5.875-3.567a1.5,1.5,0,1,1,1.557-2.565l5.875,3.567a1.5,1.5,0,0,1-.779,2.782Z" fill="#333"/>
            </g>
          </g>
        </g>
        <g id="Group_6359" data-name="Group 6359">
          <path id="Path_5451" data-name="Path 5451" d="M642.924,133.947a1.5,1.5,0,0,1-1.008-2.611L661.424,113.6a1.5,1.5,0,1,1,2.018,2.22l-19.509,17.736A1.494,1.494,0,0,1,642.924,133.947Z" fill="#333"/>
        </g>
        <g id="Group_6360" data-name="Group 6360">
          <path id="Path_5452" data-name="Path 5452" d="M681.942,97.367a1.5,1.5,0,0,1-1.016-2.6l13.745-12.637a1.5,1.5,0,1,1,2.032,2.209L682.958,96.972A1.5,1.5,0,0,1,681.942,97.367Z" fill="#333"/>
        </g>
        <g id="Group_6361" data-name="Group 6361">
          <path id="Path_5453" data-name="Path 5453" d="M731.887,104.959c-2.245,0-5.111-2.474-9.041-6.1a42.074,42.074,0,0,0-3.365-2.922c-.794.539-2.458,2.044-3.719,3.185-3.858,3.488-6.327,5.619-8.076,5.777-1.811.171-3.806-1.728-7.133-5.094-1.464-1.481-3.892-3.937-4.781-4.2-.779.235-3.131,2.279-4.7,3.642-3.934,3.421-6.679,5.663-8.91,5.663a1.489,1.489,0,0,1-.212-.015c-1.763-.252-5.9-3.4-7.591-4.744a1.5,1.5,0,0,1,1.861-2.352,35.839,35.839,0,0,0,6.072,4.1c1.374-.188,4.761-3.133,6.812-4.917,3.111-2.7,4.944-4.242,6.445-4.378,1.822-.164,3.808,1.729,7.135,5.1,1.465,1.482,3.9,3.941,4.782,4.2,1.063-.283,4.449-3.344,6.282-5,3.2-2.892,4.41-3.917,5.447-4.065,1.268-.186,2.452.84,5.683,3.823,1.886,1.741,5.827,5.372,7,5.306a34.959,34.959,0,0,0,6.208-3.353,1.5,1.5,0,0,1,1.657,2.5,37.938,37.938,0,0,1-7.037,3.73A2.763,2.763,0,0,1,731.887,104.959Zm-24.363-3.046Zm12.257-6.152-24.068-.176Z" fill="#333"/>
        </g>
        <g id="Group_6367" data-name="Group 6367">
          <g id="Group_6362" data-name="Group 6362">
            <path id="Path_5454" data-name="Path 5454" d="M707.439,225.049c-14.618,0-28.164-5.746-36.243-15.376a1.5,1.5,0,0,1,.964-2.452c2.122-.265,4.37-2.775,5.337-4.087V179.342c0-5.978,5.063-28.438,29.837-29.107h.251c24.814.67,29.877,23.13,29.877,29.108v23.792c.967,1.312,3.215,3.822,5.337,4.087a1.5,1.5,0,0,1,.965,2.45c-8.035,9.616-21.595,15.365-36.271,15.378ZM674.981,209.4c7.637,7.958,19.585,12.648,32.458,12.648h.051c12.927-.012,24.887-4.7,32.491-12.647a16.3,16.3,0,0,1-5.267-4.96,1.5,1.5,0,0,1-.252-.832V179.342c0-5.361-4.568-25.5-26.917-26.109h-.171c-22.309.6-26.877,20.747-26.877,26.108V203.61a1.5,1.5,0,0,1-.252.832A16.3,16.3,0,0,1,674.981,209.4Zm60.981-5.791h0Z" fill="#333"/>
          </g>
          <g id="Group_6365" data-name="Group 6365">
            <g id="Group_6363" data-name="Group 6363">
              <path id="Path_5455" data-name="Path 5455" d="M658.506,237.921a1.5,1.5,0,0,1-1.5-1.5c0-.219.088-5.394,7.7-6.889,1.893-.372,4.118-.737,6.473-1.123,5.147-.843,11.553-1.893,13.31-2.983a13.5,13.5,0,0,0,4.094-4.949,1.5,1.5,0,1,1,2.707,1.295c-.083.172-2.056,4.243-5.22,6.2-2.107,1.307-7.071,2.191-14.4,3.394-2.332.381-4.535.743-6.381,1.105-5.13,1.009-5.274,3.917-5.274,3.946A1.5,1.5,0,0,1,658.506,237.921Z" fill="#333"/>
            </g>
            <g id="Group_6364" data-name="Group 6364">
              <path id="Path_5456" data-name="Path 5456" d="M756.452,237.921a1.5,1.5,0,0,1-1.5-1.472c-.009-.173-.241-2.985-5.274-3.974-1.846-.363-4.05-.724-6.382-1.105-7.333-1.2-12.3-2.087-14.4-3.395-3.163-1.96-5.136-6.031-5.219-6.2a1.5,1.5,0,0,1,2.707-1.295c.016.033,1.684,3.456,4.092,4.948,1.759,1.091,8.163,2.141,13.31,2.984,2.356.385,4.581.751,6.474,1.123,7.608,1.495,7.7,6.67,7.7,6.889A1.5,1.5,0,0,1,756.452,237.921Z" fill="#333"/>
            </g>
          </g>
          <g id="Group_6366" data-name="Group 6366">
            <path id="Path_5457" data-name="Path 5457" d="M707.744,236.689c-13.66,0-23.343-8.754-23.488-8.888a1.5,1.5,0,0,1,2.037-2.2c.811.745,20.08,18.065,42.445-.063a1.5,1.5,0,1,1,1.888,2.33C722.465,234.481,714.6,236.689,707.744,236.689Z" fill="#333"/>
          </g>
        </g>
      </g>
    </g>
  </g>
</svg>
