<svg xmlns="http://www.w3.org/2000/svg" width="400" height="213.361" viewBox="0 0 400 213.361">
  <g data-name="Group 6144" transform="translate(-12.955 -11.2)">
    <path data-name="Path 6608" d="M423.561,57.694H348.073a1.037,1.037,0,0,0-.992,1.076v61.969a1.037,1.037,0,0,0,.992,1.076h75.342a1.08,1.08,0,0,0,0-2.153H349.066V59.847h74.5a1.08,1.08,0,0,0,0-2.153Z" transform="translate(-11.598 -1.614)" fill="#c1b8ed"></path>
    <path data-name="Path 6609" d="M423.2,125.925H342.862V53.117H423.2a1.08,1.08,0,0,0,0-2.153H341.869a1.037,1.037,0,0,0-.993,1.076V127a1.037,1.037,0,0,0,.993,1.076H423.2a1.08,1.08,0,0,0,0-2.153Z" transform="translate(-11.383 -1.38)" fill="#c1b8ed"></path>
    <path data-name="Path 6610" d="M423.867,76.3a1.08,1.08,0,0,0,0-2.154H361.094a1.037,1.037,0,0,0-.992,1.077v30.2a1.037,1.037,0,0,0,.992,1.076h62.773a1.08,1.08,0,0,0,0-2.153h-61.78V76.3Z" transform="translate(-12.05 -2.185)" fill="#c1b8ed"></path>
    <path data-name="Path 6611" d="M390.312,26.683a1.216,1.216,0,0,1,.21.031A1.2,1.2,0,0,0,390.312,26.683Z" transform="translate(-13.099 -0.537)" fill="#c1b8ed"></path>
    <path data-name="Path 6612" d="M390.744,26.764a1.1,1.1,0,0,1,.191.112A1.161,1.161,0,0,0,390.744,26.764Z" transform="translate(-13.114 -0.54)" fill="#c1b8ed"></path>
    <path data-name="Path 6613" d="M388.691,27.029a1.083,1.083,0,0,1,.215-.149.988.988,0,0,0-.151.088L367.7,45.646a1.048,1.048,0,0,0-.064,1.521,1.152,1.152,0,0,0,1.582.061l20.294-18-.76-.674A1.049,1.049,0,0,1,388.691,27.029Z" transform="translate(-12.301 -0.544)" fill="#c1b8ed"></path>
    <path data-name="Path 6614" d="M390.087,26.715a1.145,1.145,0,0,0-.207.047A1.164,1.164,0,0,1,390.087,26.715Z" transform="translate(-13.084 -0.539)" fill="#c1b8ed"></path>
    <path data-name="Path 6615" d="M390.53,26.715a1.165,1.165,0,0,1,.207.047A1.165,1.165,0,0,0,390.53,26.715Z" transform="translate(-13.106 -0.539)" fill="#c1b8ed"></path>
    <path data-name="Path 6616" d="M391.071,28.55l-.759.674,20.294,18a1.152,1.152,0,0,0,1.582-.061,1.048,1.048,0,0,0-.064-1.521L391.071,26.968a.94.94,0,0,0-.151-.088,1.077,1.077,0,0,1,.214.149A1.047,1.047,0,0,1,391.071,28.55Z" transform="translate(-13.099 -0.544)" fill="#c1b8ed"></path>
    <path data-name="Path 6617" d="M390.094,26.714a1.2,1.2,0,0,1,.21-.031A1.19,1.19,0,0,0,390.094,26.714Z" transform="translate(-13.091 -0.537)" fill="#c1b8ed"></path>
    <path data-name="Path 6618" d="M389.682,26.876a1.062,1.062,0,0,1,.191-.112A1.124,1.124,0,0,0,389.682,26.876Z" transform="translate(-13.077 -0.54)" fill="#c1b8ed"></path>
    <path data-name="Path 6619" d="M389.664,26.873a1.083,1.083,0,0,0-.215.149,1.049,1.049,0,0,0,.064,1.521l.76.674.759-.674a1.047,1.047,0,0,0,.064-1.521,1.077,1.077,0,0,0-.214-.149,1.1,1.1,0,0,0-.191-.112,1.165,1.165,0,0,0-.207-.047,1.216,1.216,0,0,0-.21-.031,1.2,1.2,0,0,0-.21.031,1.164,1.164,0,0,0-.207.047A1.062,1.062,0,0,0,389.664,26.873Z" transform="translate(-13.058 -0.537)" fill="#c1b8ed"></path>
    <path data-name="Path 6620" d="M22.928,29.381H16.5a3.6,3.6,0,0,0-3.546,3.652V81.194A3.6,3.6,0,0,0,16.5,84.845h6.427a3.6,3.6,0,0,0,3.546-3.651V33.033A3.6,3.6,0,0,0,22.928,29.381ZM24.4,81.194a1.492,1.492,0,0,1-1.469,1.513H16.5a1.492,1.492,0,0,1-1.47-1.513V33.033A1.492,1.492,0,0,1,16.5,31.52h6.427A1.491,1.491,0,0,1,24.4,33.033Z" transform="translate(0 -0.631)" fill="#c1b8ed"></path>
    <path data-name="Path 6621" d="M21.938,54.464H17.753a1.07,1.07,0,0,0,0,2.139h4.185a1.07,1.07,0,0,0,0-2.139Z" transform="translate(-0.13 -1.502)" fill="#c1b8ed"></path>
    <path data-name="Path 6622" d="M21.938,59.459H17.753a1.07,1.07,0,0,0,0,2.138h4.185a1.07,1.07,0,0,0,0-2.138Z" transform="translate(-0.13 -1.675)" fill="#c1b8ed"></path>
    <path data-name="Path 6623" d="M40.745,29.381H34.318a3.6,3.6,0,0,0-3.546,3.652V81.194a3.6,3.6,0,0,0,3.546,3.651h6.428a3.6,3.6,0,0,0,3.545-3.651V33.033A3.6,3.6,0,0,0,40.745,29.381Zm1.468,51.813a1.491,1.491,0,0,1-1.468,1.513H34.318a1.491,1.491,0,0,1-1.469-1.513V33.033a1.491,1.491,0,0,1,1.469-1.513h6.428a1.491,1.491,0,0,1,1.468,1.513Z" transform="translate(-0.618 -0.631)" fill="#c1b8ed"></path>
    <path data-name="Path 6624" d="M39.755,54.464H35.569a1.07,1.07,0,0,0,0,2.139h4.186a1.07,1.07,0,0,0,0-2.139Z" transform="translate(-0.749 -1.502)" fill="#c1b8ed"></path>
    <path data-name="Path 6625" d="M39.755,59.459H35.569a1.07,1.07,0,0,0,0,2.138h4.186a1.07,1.07,0,0,0,0-2.138Z" transform="translate(-0.749 -1.675)" fill="#c1b8ed"></path>
    <path data-name="Path 6626" d="M75.469,29.381H69.042A3.6,3.6,0,0,0,65.5,33.033V81.194a3.6,3.6,0,0,0,3.545,3.651h6.427a3.6,3.6,0,0,0,3.546-3.651V33.033A3.6,3.6,0,0,0,75.469,29.381Zm1.469,51.813a1.491,1.491,0,0,1-1.469,1.513H69.042a1.491,1.491,0,0,1-1.469-1.513V33.033a1.491,1.491,0,0,1,1.469-1.513h6.427a1.491,1.491,0,0,1,1.469,1.513Z" transform="translate(-1.824 -0.631)" fill="#c1b8ed"></path>
    <path data-name="Path 6627" d="M70.294,56.6h4.185a1.07,1.07,0,0,0,0-2.139H70.294a1.07,1.07,0,0,0,0,2.139Z" transform="translate(-1.954 -1.502)" fill="#c1b8ed"></path>
    <path data-name="Path 6628" d="M70.294,61.6h4.185a1.07,1.07,0,0,0,0-2.138H70.294a1.07,1.07,0,0,0,0,2.138Z" transform="translate(-1.954 -1.675)" fill="#c1b8ed"></path>
    <path data-name="Path 6629" d="M83.313,33.033V81.194a3.6,3.6,0,0,0,3.546,3.651h6.427a3.6,3.6,0,0,0,3.546-3.651V33.033a3.6,3.6,0,0,0-3.546-3.652H86.859A3.6,3.6,0,0,0,83.313,33.033Zm3.546-1.513h6.427a1.491,1.491,0,0,1,1.469,1.513V81.194a1.491,1.491,0,0,1-1.469,1.513H86.859a1.491,1.491,0,0,1-1.469-1.513V33.033A1.491,1.491,0,0,1,86.859,31.52Z" transform="translate(-2.442 -0.631)" fill="#c1b8ed"></path>
    <path data-name="Path 6630" d="M92.3,54.464H88.11a1.07,1.07,0,0,0,0,2.139H92.3a1.07,1.07,0,0,0,0-2.139Z" transform="translate(-2.573 -1.502)" fill="#c1b8ed"></path>
    <path data-name="Path 6631" d="M92.3,59.459H88.11a1.07,1.07,0,0,0,0,2.138H92.3a1.07,1.07,0,0,0,0-2.138Z" transform="translate(-2.573 -1.675)" fill="#c1b8ed"></path>
    <path data-name="Path 6632" d="M112.049,29.381h-6.427a3.6,3.6,0,0,0-3.546,3.652V81.194a3.6,3.6,0,0,0,3.546,3.651h6.427a3.6,3.6,0,0,0,3.546-3.651V33.033A3.6,3.6,0,0,0,112.049,29.381Zm1.469,51.813a1.491,1.491,0,0,1-1.469,1.513h-6.427a1.491,1.491,0,0,1-1.469-1.513V33.033a1.491,1.491,0,0,1,1.469-1.513h6.427a1.491,1.491,0,0,1,1.469,1.513Z" transform="translate(-3.094 -0.631)" fill="#c1b8ed"></path>
    <path data-name="Path 6633" d="M111.059,54.464h-4.186a1.07,1.07,0,0,0,0,2.139h4.186a1.07,1.07,0,0,0,0-2.139Z" transform="translate(-3.224 -1.502)" fill="#c1b8ed"></path>
    <path data-name="Path 6634" d="M111.059,59.459h-4.186a1.07,1.07,0,0,0,0,2.138h4.186a1.07,1.07,0,0,0,0-2.138Z" transform="translate(-3.224 -1.675)" fill="#c1b8ed"></path>
    <path data-name="Path 6635" d="M17.753,142.728h4.185a1.069,1.069,0,0,0,0-2.138H17.753a1.069,1.069,0,0,0,0,2.138Z" transform="translate(-0.13 -4.491)" fill="#c1b8ed"></path>
    <path data-name="Path 6636" d="M17.753,147.723h4.185a1.07,1.07,0,0,0,0-2.139H17.753a1.07,1.07,0,0,0,0,2.139Z" transform="translate(-0.13 -4.665)" fill="#c1b8ed"></path>
    <path data-name="Path 6637" d="M39.755,140.59H35.569a1.07,1.07,0,0,0,0,2.138h4.186a1.07,1.07,0,0,0,0-2.138Z" transform="translate(-0.749 -4.491)" fill="#c1b8ed"></path>
    <path data-name="Path 6638" d="M39.755,145.584H35.569a1.07,1.07,0,0,0,0,2.139h4.186a1.07,1.07,0,0,0,0-2.139Z" transform="translate(-0.749 -4.665)" fill="#c1b8ed"></path>
    <path data-name="Path 6639" d="M70.294,142.728h4.185a1.069,1.069,0,0,0,0-2.138H70.294a1.069,1.069,0,0,0,0,2.138Z" transform="translate(-1.954 -4.491)" fill="#c1b8ed"></path>
    <path data-name="Path 6640" d="M70.294,147.723h4.185a1.07,1.07,0,0,0,0-2.139H70.294a1.07,1.07,0,0,0,0,2.139Z" transform="translate(-1.954 -4.665)" fill="#c1b8ed"></path>
    <path data-name="Path 6641" d="M92.3,140.59H88.11a1.07,1.07,0,0,0,0,2.138H92.3a1.069,1.069,0,0,0,0-2.138Z" transform="translate(-2.573 -4.491)" fill="#c1b8ed"></path>
    <path data-name="Path 6642" d="M92.3,145.584H88.11a1.07,1.07,0,0,0,0,2.139H92.3a1.07,1.07,0,0,0,0-2.139Z" transform="translate(-2.573 -4.665)" fill="#c1b8ed"></path>
    <path data-name="Path 6643" d="M22.928,115.507H16.5a3.6,3.6,0,0,0-3.546,3.651v48.161a3.6,3.6,0,0,0,3.546,3.652h6.427a3.6,3.6,0,0,0,3.546-3.652V119.158A3.6,3.6,0,0,0,22.928,115.507ZM24.4,167.319a1.491,1.491,0,0,1-1.469,1.513H16.5a1.492,1.492,0,0,1-1.47-1.513V119.158a1.492,1.492,0,0,1,1.47-1.513h6.427a1.492,1.492,0,0,1,1.469,1.513Z" transform="translate(0 -3.621)" fill="#c1b8ed"></path>
    <path data-name="Path 6644" d="M40.745,115.507H34.318a3.6,3.6,0,0,0-3.546,3.651v48.161a3.6,3.6,0,0,0,3.546,3.652h6.428a3.6,3.6,0,0,0,3.545-3.652V119.158A3.6,3.6,0,0,0,40.745,115.507Zm1.468,51.812a1.491,1.491,0,0,1-1.468,1.513H34.318a1.491,1.491,0,0,1-1.469-1.513V119.158a1.491,1.491,0,0,1,1.469-1.513h6.428a1.491,1.491,0,0,1,1.468,1.513Z" transform="translate(-0.618 -3.621)" fill="#c1b8ed"></path>
    <path data-name="Path 6645" d="M75.469,115.507H69.042a3.6,3.6,0,0,0-3.545,3.651v48.161a3.6,3.6,0,0,0,3.545,3.652h6.427a3.6,3.6,0,0,0,3.546-3.652V119.158A3.6,3.6,0,0,0,75.469,115.507Zm1.469,51.812a1.491,1.491,0,0,1-1.469,1.513H69.042a1.491,1.491,0,0,1-1.469-1.513V119.158a1.491,1.491,0,0,1,1.469-1.513h6.427a1.491,1.491,0,0,1,1.469,1.513Z" transform="translate(-1.824 -3.621)" fill="#c1b8ed"></path>
    <path data-name="Path 6646" d="M93.286,115.507H86.859a3.6,3.6,0,0,0-3.546,3.651v48.161a3.6,3.6,0,0,0,3.546,3.652h6.427a3.6,3.6,0,0,0,3.546-3.652V119.158A3.6,3.6,0,0,0,93.286,115.507Zm1.469,51.812a1.491,1.491,0,0,1-1.469,1.513H86.859a1.491,1.491,0,0,1-1.469-1.513V119.158a1.491,1.491,0,0,1,1.469-1.513h6.427a1.491,1.491,0,0,1,1.469,1.513Z" transform="translate(-2.442 -3.621)" fill="#c1b8ed"></path>
    <path data-name="Path 6647" d="M112.049,115.507h-6.427a3.6,3.6,0,0,0-3.546,3.651v48.161a3.6,3.6,0,0,0,3.546,3.652h6.427a3.6,3.6,0,0,0,3.546-3.652V119.158A3.6,3.6,0,0,0,112.049,115.507Zm1.469,51.812a1.491,1.491,0,0,1-1.469,1.513h-6.427a1.491,1.491,0,0,1-1.469-1.513V119.158a1.491,1.491,0,0,1,1.469-1.513h6.427a1.491,1.491,0,0,1,1.469,1.513Z" transform="translate(-3.094 -3.621)" fill="#c1b8ed"></path>
    <path data-name="Path 6648" d="M106.873,142.728h4.186a1.069,1.069,0,0,0,0-2.138h-4.186a1.07,1.07,0,0,0,0,2.138Z" transform="translate(-3.224 -4.491)" fill="#c1b8ed"></path>
    <path data-name="Path 6649" d="M106.873,147.723h4.186a1.07,1.07,0,0,0,0-2.139h-4.186a1.07,1.07,0,0,0,0,2.139Z" transform="translate(-3.224 -4.665)" fill="#c1b8ed"></path>
    <path data-name="Path 6650" d="M303.317,46.951a28.181,28.181,0,1,0-49.293,18.656h3.321a25.787,25.787,0,1,1,35.584,0h3.32A28.069,28.069,0,0,0,303.317,46.951Z" transform="translate(-8.123 -0.263)" fill="#c1b8ed"></path>
    <path data-name="Path 6651" d="M249.028,65.386a31.916,31.916,0,1,1,51.775,0h2.9a34.308,34.308,0,1,0-57.573,0Z" transform="translate(-7.902 -0.042)" fill="#c1b8ed"></path>
    <path data-name="Path 6652" d="M275.666,23.726a.964.964,0,0,0-.965.965V46.2a.965.965,0,0,0,.965.965H293a.965.965,0,1,0,0-1.931H276.632V24.691A.964.964,0,0,0,275.666,23.726Z" transform="translate(-9.086 -0.435)" fill="#c1b8ed"></path>
    <path data-name="Path 6653" d="M411.042,230.233H14.286a.965.965,0,1,0,0,1.931H411.042a.965.965,0,0,0,0-1.931Z" transform="translate(-0.013 -7.603)" fill="#c1b8ed"></path>
    <path data-name="Path 6654" d="M14.286,179.022a.965.965,0,1,0,0,1.931h179.12a.965.965,0,0,0,0-1.931Z" transform="translate(-0.013 -5.825)" fill="#c1b8ed"></path>
    <path data-name="Path 6655" d="M418.857,179.022H239.419a.965.965,0,0,0,0,1.931H418.857a.965.965,0,0,0,0-1.931Z" transform="translate(-7.827 -5.825)" fill="#c1b8ed"></path>
    <path data-name="Path 6656" d="M48.573,167.315a.965.965,0,0,0,1.931,0V12.165a.965.965,0,1,0-1.931,0Z" transform="translate(-1.236)" fill="#c1b8ed"></path>
    <path data-name="Path 6657" d="M60.4,168.28a.965.965,0,0,0,.965-.965V12.165a.965.965,0,1,0-1.931,0v155.15A.966.966,0,0,0,60.4,168.28Z" transform="translate(-1.613)" fill="#c1b8ed"></path>
    <path data-name="Path 6658" d="M188.318,67.915a.965.965,0,0,0,.965-.965V12.165a.965.965,0,1,0-1.931,0V66.949A.966.966,0,0,0,188.318,67.915Z" transform="translate(-6.054)" fill="#c1b8ed"></path>
    <path data-name="Path 6659" d="M199.182,67.915a.966.966,0,0,0,.965-.965V12.165a.965.965,0,1,0-1.931,0V66.949A.965.965,0,0,0,199.182,67.915Z" transform="translate(-6.431)" fill="#c1b8ed"></path>
    <path data-name="Path 6660" d="M188.318,171a.965.965,0,0,0,.965-.965V90.423a.965.965,0,0,0-1.931,0v79.608A.966.966,0,0,0,188.318,171Z" transform="translate(-6.054 -2.716)" fill="#c1b8ed"></path>
    <path data-name="Path 6661" d="M199.182,171a.966.966,0,0,0,.965-.965V90.423a.965.965,0,0,0-1.931,0v79.608A.965.965,0,0,0,199.182,171Z" transform="translate(-6.431 -2.716)" fill="#c1b8ed"></path>
    <path data-name="Path 6662" d="M14.288,102.806H43.82a.965.965,0,1,0,0-1.931H14.288a.965.965,0,1,0,0,1.931Z" transform="translate(-0.013 -3.113)" fill="#c1b8ed"></path>
    <path data-name="Path 6663" d="M14.288,91.943H43.82a.965.965,0,1,0,0-1.931H14.288a.965.965,0,1,0,0,1.931Z" transform="translate(-0.013 -2.736)" fill="#c1b8ed"></path>
    <path data-name="Path 6664" d="M65.057,102.806h71.475a.965.965,0,0,0,0-1.931H65.057a.965.965,0,1,0,0,1.931Z" transform="translate(-1.775 -3.113)" fill="#c1b8ed"></path>
    <path data-name="Path 6665" d="M65.057,91.943h75.327a.965.965,0,0,0,0-1.931H65.057a.965.965,0,0,0,0,1.931Z" transform="translate(-1.775 -2.736)" fill="#c1b8ed"></path>
    <path data-name="Path 6666" d="M182.817,102.806a.965.965,0,0,0,0-1.931H162.38a.965.965,0,1,0,0,1.931Z" transform="translate(-5.153 -3.113)" fill="#c1b8ed"></path>
    <path data-name="Path 6667" d="M157.646,90.977a.966.966,0,0,0,.965.965h24.075a.965.965,0,0,0,0-1.931H158.611A.966.966,0,0,0,157.646,90.977Z" transform="translate(-5.022 -2.736)" fill="#c1b8ed"></path>
    <path data-name="Path 6668" d="M119.893,33.033V81.194a3.655,3.655,0,0,0,1.777,3.147l.428-.069-.128-16.816V33.033a1.491,1.491,0,0,1,1.469-1.513h6.427a1.491,1.491,0,0,1,1.469,1.513V67.456h2.076V33.033a3.6,3.6,0,0,0-3.546-3.652h-6.427A3.6,3.6,0,0,0,119.893,33.033Z" transform="translate(-3.712 -0.631)" fill="#c1b8ed"></path>
    <path data-name="Path 6669" d="M124.69,56.6h4.186a1.07,1.07,0,0,0,0-2.139H124.69a1.07,1.07,0,0,0,0,2.139Z" transform="translate(-3.842 -1.502)" fill="#c1b8ed"></path>
    <path data-name="Path 6670" d="M124.69,61.6h4.186a1.07,1.07,0,0,0,0-2.138H124.69a1.07,1.07,0,0,0,0,2.138Z" transform="translate(-3.842 -1.675)" fill="#c1b8ed"></path>
    <path data-name="Path 6671" d="M139.594,33.033a1.491,1.491,0,0,1,1.469-1.513h6.427a1.491,1.491,0,0,1,1.469,1.513V67.456h2.076V33.033a3.6,3.6,0,0,0-3.546-3.652h-6.427a3.6,3.6,0,0,0-3.546,3.652V67.456h2.076Z" transform="translate(-4.324 -0.631)" fill="#c1b8ed"></path>
    <path data-name="Path 6672" d="M142.315,56.6H146.5a1.07,1.07,0,0,0,0-2.139h-4.185a1.07,1.07,0,0,0,0,2.139Z" transform="translate(-4.454 -1.502)" fill="#c1b8ed"></path>
    <path data-name="Path 6673" d="M142.315,61.6H146.5a1.07,1.07,0,0,0,0-2.138h-4.185a1.07,1.07,0,0,0,0,2.138Z" transform="translate(-4.454 -1.675)" fill="#c1b8ed"></path>
    <path data-name="Path 6674" d="M166.244,67.462h2.179L158.3,35.586a1.491,1.491,0,0,1,.942-1.886l6.126-1.946a1.491,1.491,0,0,1,1.858,1l11.026,34.711h2.179L169.2,32.122a3.6,3.6,0,0,0-4.484-2.406l-6.126,1.945a3.6,3.6,0,0,0-2.274,4.553Z" transform="translate(-4.97 -0.637)" fill="#c1b8ed"></path>
    <path data-name="Path 6675" d="M172.657,54.682a1.053,1.053,0,0,0-1.313-.7l-3.99,1.267A1.07,1.07,0,0,0,168,57.282l3.99-1.267A1.053,1.053,0,0,0,172.657,54.682Z" transform="translate(-5.335 -1.483)" fill="#c1b8ed"></path>
    <path data-name="Path 6676" d="M169.513,62.042l3.991-1.267a1.07,1.07,0,0,0-.648-2.038L168.866,60a1.069,1.069,0,0,0,.647,2.038Z" transform="translate(-5.387 -1.648)" fill="#c1b8ed"></path>
    <g data-name="Group 6108" transform="translate(122.892 38.434)">
      <path data-name="Path 6677" d="M135.875,123.484v18.458s2.246,5.617,2.407,6.58,5.3,3.531,5.3,3.531l2.889,1.766s16.21,2.728,22.951-.963c-4.493,3.852-5.457,4.494-5.457,4.494s-24.556,11.234-37.075-10.273a142.009,142.009,0,0,1,1.284-23.754Z" transform="translate(-126.845 -42.326)" fill="#745fd7"></path>
      <path data-name="Path 6678" d="M271.715,123.484v18.458s2.247,5.617,2.407,6.58,5.3,3.531,5.3,3.531l2.889,1.766s16.21,2.728,22.952-.963c-4.494,3.852-5.457,4.494-5.457,4.494s-24.557,11.234-37.076-10.273a142.138,142.138,0,0,1,1.284-23.754Z" transform="translate(-131.56 -42.326)" fill="#745fd7"></path>
      <path data-name="Path 6679" d="M157.537,203.511s-.642,4.922,3.21,5.351,111.921,0,111.921,0,9.012.37,4.922-5.992c-3.852-5.992-16.477-11.984-16.477-11.984l9.415,8.989,3.211,3.424s-1.5,2.14-2.14,2.14-94.8-.429-94.8-.429Z" transform="translate(-127.909 -44.671)" fill="#745fd7"></path>
      <g data-name="Group 6107" transform="translate(68.789)">
        <path data-name="Path 6680" d="M218.425,64.566v-25.1s1.07-.213-2.782.214-5.564,6.206-5.564,6.206.032,8.955.048,22.1A13.8,13.8,0,0,1,218.425,64.566Z" transform="translate(-198.524 -39.413)" fill="#745fd7"></path>
        <path data-name="Path 6681" d="M225.928,91.319l-7.918,2.693L209.718,90.6c-.02,35.422-.226,80.458-1.125,84.182-1.5,6.207-10.486,12.413-10.486,12.413l19.9.213V100.245a12.99,12.99,0,0,0,7.918-2.293A64.484,64.484,0,0,1,225.928,91.319Z" transform="translate(-198.108 -41.19)" fill="#745fd7"></path>
      </g>
    </g>
    <g data-name="Group 6143" transform="translate(121.807 37.253)">
      <g data-name="Group 6111" transform="translate(0 33.058)">
        <g data-name="Group 6110">
          <g data-name="Group 6109">
            <path data-name="Path 6682" d="M131.443,85.313a5.8,5.8,0,0,1-3.8-1.341,6.238,6.238,0,0,1-1.918-4.946,6.564,6.564,0,0,1,1.892-5.02,6.187,6.187,0,0,1,4.332-1.564H195.7a1.448,1.448,0,1,1,0,2.9h-63.8c-.034,0-.066,0-.1,0h0a3.4,3.4,0,0,0-2.235.8,3.843,3.843,0,0,0-.957,2.888,3.537,3.537,0,0,0,.927,2.765,3.126,3.126,0,0,0,2.168.615,1.459,1.459,0,0,1,.195-.014h63.8a1.448,1.448,0,1,1,0,2.9H131.987A5.292,5.292,0,0,1,131.443,85.313Z" transform="translate(-125.721 -72.437)" fill="#333"></path>
          </g>
        </g>
      </g>
      <g data-name="Group 6118" transform="translate(0.053 50.501)">
        <g data-name="Group 6113" transform="translate(8.881)">
          <g data-name="Group 6112">
            <path data-name="Path 6683" d="M164.245,118.23a1.448,1.448,0,0,1-1.274-.758L150.724,94.92l-13.046,22.586a1.448,1.448,0,0,1-2.508-1.448l14.338-24.824a1.413,1.413,0,0,1,1.272-.724,1.449,1.449,0,0,1,1.254.757l13.482,24.824a1.449,1.449,0,0,1-1.271,2.139Z" transform="translate(-134.976 -90.507)" fill="#333"></path>
          </g>
        </g>
        <g data-name="Group 6115" transform="translate(0 30.39)">
          <g data-name="Group 6114">
            <path data-name="Path 6684" d="M150.391,161.909c-13.572,0-24.615-8.06-24.615-17.968,0-.405.025-.807.062-1.208v-19.3a1.448,1.448,0,0,1,1.448-1.448H173.62a1.448,1.448,0,0,1,1.448,1.448v20.036a1.461,1.461,0,0,1-.062.419v.048C175.006,153.848,163.964,161.909,150.391,161.909Zm-21.657-37.023V142.8a1.261,1.261,0,0,1-.007.136c-.031.332-.055.666-.055,1,0,8.311,9.744,15.072,21.719,15.072s21.719-6.761,21.719-15.072c0-.085,0-.17-.009-.255l-.007-.159a1.447,1.447,0,0,1,.077-.519V124.886Z" transform="translate(-125.776 -121.99)" fill="#333"></path>
          </g>
        </g>
        <g data-name="Group 6117" transform="translate(8.851 37.453)">
          <g data-name="Group 6116">
            <path data-name="Path 6685" d="M150.722,155.1c-8.7,0-15.777-5.233-15.777-11.665,0-.26.014-.517.038-.772V130.755a1.448,1.448,0,1,1,2.9,0V142.73a1.347,1.347,0,0,1-.007.14c-.017.187-.031.375-.031.565,0,4.835,5.778,8.769,12.881,8.769a1.448,1.448,0,0,1,0,2.9Z" transform="translate(-134.945 -129.307)" fill="#333"></path>
          </g>
        </g>
      </g>
      <g data-name="Group 6121" transform="translate(109.839 33.058)">
        <g data-name="Group 6120">
          <g data-name="Group 6119">
            <path data-name="Path 6686" d="M305.216,85.313a5.8,5.8,0,0,0,3.805-1.341,6.241,6.241,0,0,0,1.917-4.946,6.561,6.561,0,0,0-1.892-5.02,6.184,6.184,0,0,0-4.331-1.564H240.958a1.448,1.448,0,0,0,0,2.9h63.8c.033,0,.065,0,.1,0h0a3.4,3.4,0,0,1,2.235.8,3.847,3.847,0,0,1,.956,2.888,3.533,3.533,0,0,1-.927,2.765,3.124,3.124,0,0,1-2.168.615,1.445,1.445,0,0,0-.194-.014h-63.8a1.448,1.448,0,0,0,0,2.9h63.716A5.269,5.269,0,0,0,305.216,85.313Z" transform="translate(-239.51 -72.437)" fill="#333"></path>
          </g>
        </g>
      </g>
      <g data-name="Group 6128" transform="translate(131.13 50.504)">
        <g data-name="Group 6123" transform="translate(8.881)">
          <g data-name="Group 6122">
            <path data-name="Path 6687" d="M300.035,118.23a1.448,1.448,0,0,1-1.274-.758L286.514,94.92l-13.046,22.586a1.447,1.447,0,0,1-2.507-1.448L285.3,91.234a1.448,1.448,0,0,1,1.254-.724h.018a1.449,1.449,0,0,1,1.254.757l13.482,24.824a1.449,1.449,0,0,1-1.271,2.139Z" transform="translate(-270.766 -90.51)" fill="#333"></path>
          </g>
        </g>
        <g data-name="Group 6125" transform="translate(0 30.387)">
          <g data-name="Group 6124">
            <path data-name="Path 6688" d="M286.181,161.909c-13.572,0-24.615-8.06-24.615-17.968,0-.405.025-.807.062-1.208v-19.3a1.448,1.448,0,0,1,1.448-1.448H309.41a1.448,1.448,0,0,1,1.448,1.448v20.036a1.461,1.461,0,0,1-.062.419v.048C310.8,153.848,299.754,161.909,286.181,161.909Zm-21.657-37.023V142.8a1.261,1.261,0,0,1-.007.136c-.031.332-.055.666-.055,1,0,8.311,9.744,15.072,21.719,15.072s21.719-6.761,21.719-15.072c0-.085,0-.17-.009-.255l-.006-.159a1.426,1.426,0,0,1,.076-.519V124.886Z" transform="translate(-261.566 -121.99)" fill="#333"></path>
          </g>
        </g>
        <g data-name="Group 6127" transform="translate(8.851 37.45)">
          <g data-name="Group 6126">
            <path data-name="Path 6689" d="M286.512,155.1c-8.7,0-15.777-5.233-15.777-11.665,0-.26.014-.517.038-.772V130.755a1.448,1.448,0,0,1,2.9,0V142.73a1.347,1.347,0,0,1-.007.14c-.017.187-.031.375-.031.565,0,4.835,5.778,8.769,12.881,8.769a1.448,1.448,0,1,1,0,2.9Z" transform="translate(-270.735 -129.307)" fill="#333"></path>
          </g>
        </g>
      </g>
      <g data-name="Group 6140" transform="translate(75.722)">
        <g data-name="Group 6130" transform="translate(0 25.309)">
          <g data-name="Group 6129">
            <path data-name="Path 6690" d="M219.128,94.333A14.962,14.962,0,1,1,234.09,79.371,14.979,14.979,0,0,1,219.128,94.333Zm0-27.028a12.066,12.066,0,1,0,12.066,12.066A12.079,12.079,0,0,0,219.128,67.3Z" transform="translate(-204.166 -64.409)" fill="#333"></path>
          </g>
        </g>
        <g data-name="Group 6132" transform="translate(6.859 32.168)">
          <g data-name="Group 6131">
            <path data-name="Path 6691" d="M219.375,87.719a8.1,8.1,0,1,1,0-16.2,1.448,1.448,0,1,1,0,2.9,5.206,5.206,0,1,0,0,10.413,1.448,1.448,0,1,1,0,2.9Z" transform="translate(-211.272 -71.515)" fill="#333"></path>
          </g>
        </g>
        <g data-name="Group 6139" transform="translate(0.622)">
          <g data-name="Group 6134" transform="translate(3.638)">
            <g data-name="Group 6133">
              <path data-name="Path 6692" d="M226.72,61.63a1.448,1.448,0,0,1-1.448-1.448V45.742a7.516,7.516,0,0,0-7.112-4.657,6.748,6.748,0,0,0-6.685,4.605V59.78a1.448,1.448,0,1,1-2.9,0v-14.3a1.408,1.408,0,0,1,.045-.359,9.633,9.633,0,0,1,9.535-6.93,10.44,10.44,0,0,1,9.936,6.835,1.482,1.482,0,0,1,.072.454v14.7A1.448,1.448,0,0,1,226.72,61.63Z" transform="translate(-208.579 -38.19)" fill="#333"></path>
            </g>
          </g>
          <g data-name="Group 6136" transform="translate(0 55.854)">
            <g data-name="Group 6135">
              <path data-name="Path 6693" d="M206.259,181.979a1.448,1.448,0,0,1-.82-2.641c3.133-2.154,3.224-7.222,3.224-7.794V97.5a1.448,1.448,0,1,1,2.9,0v74.044c0,1.185-.216,7.249-4.48,10.181A1.453,1.453,0,0,1,206.259,181.979Z" transform="translate(-204.81 -96.052)" fill="#333"></path>
            </g>
          </g>
          <g data-name="Group 6138" transform="translate(19.909 55.854)">
            <g data-name="Group 6137">
              <path data-name="Path 6694" d="M230.734,181.979a1.446,1.446,0,0,1-.82-.254c-4.264-2.932-4.48-9-4.48-10.181V97.5a1.448,1.448,0,0,1,2.9,0v74.044c0,.571.091,5.64,3.224,7.794a1.448,1.448,0,0,1-.82,2.641Z" transform="translate(-225.435 -96.052)" fill="#333"></path>
            </g>
          </g>
        </g>
      </g>
      <g data-name="Group 6142" transform="translate(30.507 146.161)">
        <g data-name="Group 6141" transform="translate(0 0)">
          <path data-name="Path 6695" d="M272.549,206.2H159.78a2.546,2.546,0,0,1-1.706-.562,2.19,2.19,0,0,1-.749-1.7c0-3.775,10.773-14.327,15.723-14.327h86.233c3.236,0,7.86,4,9.7,5.724,1.414,1.322,6.024,5.854,6.024,8.6a2.191,2.191,0,0,1-.749,1.7A2.546,2.546,0,0,1,272.549,206.2Zm-.441-2.263h0ZM160.442,203.3l111.473,0c-1.355-2.9-9.474-10.8-12.635-10.8H173.048c-1.165,0-4.058,1.528-7.658,4.884A24.19,24.19,0,0,0,160.442,203.3Z" transform="translate(-157.325 -189.607)" fill="#333"></path>
        </g>
      </g>
    </g>
  </g>
</svg>