<svg id="Group_6271" data-name="Group 6271" xmlns="http://www.w3.org/2000/svg" xmlns:xlink="http://www.w3.org/1999/xlink" width="440" height="252" viewBox="0 0 440 252">
  <defs>
    <clipPath id="clip-path">
      <path id="Path_5385" data-name="Path 5385" d="M135.425,167.311s.056-7.476,5.814-6.241v37.653c-2.791-.638-5.814-2.579-5.814-8Zm162.79,31.074s-6.35,1.685-11.431-2.47l-.062-.052a14.126,14.126,0,0,1-3.689-4.869,18.9,18.9,0,0,1-1.776-5.574c-.027-.136-.054-.269-.08-.408,0,0-1.98-11.625,2.827-16.507a6.008,6.008,0,0,1,2.893-1.759v20.717C286.9,187.967,287.073,198.049,298.215,198.385Zm-140.988-76.7,63.953,23.469v1.24l-63.953-18.964Zm50.36-23.13a27.681,27.681,0,0,0,12.923,9.953,25.564,25.564,0,0,0,5.031,1.273,25.308,25.308,0,0,1-3.685.276h-1.77a25.376,25.376,0,0,1-8.716-1.549,27.681,27.681,0,0,1-12.923-9.953l-4.412-6.138c-2.937-4.088-4.851-10.523-5.568-15.643,0,0-.1-1.279-.866-1.294-3.381-.068-5.871-4.176-6.587-10.008,0,0-3.052-15.251,5.478-15.2a27.375,27.375,0,0,1,.452-3.919l.628-3.561c1.774-10.055,8.086-15.967,16.658-19.78a41.941,41.941,0,0,1,15.856-3.07h1.77c1.283,0,2.513.061,3.685.163a41.154,41.154,0,0,0-12.171,2.907c-8.571,3.813-14.883,9.725-16.658,19.78l-.219,1.246a78.851,78.851,0,0,0-.757,10.922c.173,6,.616,16.209,1.685,21.073h0a2.556,2.556,0,0,1,.187.742c.717,5.12,2.632,11.555,5.568,15.643ZM193.564,233.4l-43.6.205V204.4a19.525,19.525,0,0,0,8.415-5.813A23.893,23.893,0,0,0,163.909,183v-5.867a18.064,18.064,0,0,0-2.407-9.087,15.165,15.165,0,0,0-6.984-6.359l-4.558-2V131.863l25.546,7.862ZM204.991,105.89s2.287,15.931-8.564,23.4a6.317,6.317,0,0,1-5.829.7l-1.514-.578a2.05,2.05,0,0,1-.355-3.668c5-3.14,12.686-10.36,10.688-24.411Zm29.271,42.186,11.628-3.132v26.684l-5.8-2.592-5.832,6.431Z" fill="#4569a0" clip-rule="evenodd"/>
    </clipPath>
    <clipPath id="clip-path-2">
      <path id="Path_5387" data-name="Path 5387" d="M253.5,70.9a1.648,1.648,0,0,1-2,1.314,1.815,1.815,0,0,1-1.2-2.179c.007-.029.02-.092.041-.187.034-.161.073-.349.115-.56.121-.606.242-1.273.355-1.979.219-1.37.38-2.713.459-3.958.02-.332.035-.655.043-.966a1.719,1.719,0,0,1,1.7-1.745,1.739,1.739,0,0,1,1.6,1.85c-.01.359-.027.729-.05,1.107-.087,1.383-.263,2.846-.5,4.331-.121.757-.251,1.472-.381,2.124C253.6,70.45,253.538,70.74,253.5,70.9Zm-64.346-.865a1.815,1.815,0,0,1-1.205,2.179,1.647,1.647,0,0,1-2-1.314c-.037-.163-.1-.453-.178-.848-.13-.652-.26-1.367-.381-2.124-.237-1.485-.413-2.949-.5-4.331-.023-.378-.04-.748-.05-1.107a1.739,1.739,0,0,1,1.6-1.85,1.719,1.719,0,0,1,1.7,1.745c.008.311.023.634.044.966.078,1.245.239,2.588.458,3.958.113.706.234,1.373.355,1.979.042.211.081.4.115.56C189.134,69.946,189.148,70.009,189.155,70.038Zm65.751-27.4.616,3.537c.164.944.281,1.813.36,2.6a6.481,6.481,0,0,1,4.2,3,13.1,13.1,0,0,1,1.717,6.008,31.237,31.237,0,0,1-.2,6.2c-.06.48-.124.919-.189,1.31-.032.193-.058.343-.078.446-.769,6.233-3.418,10.72-7.32,11.352-.845,5.961-2.949,12.216-5.74,16.154l-4.321,6.1a28.927,28.927,0,0,1-13.485,10.517,26.306,26.306,0,0,1-9.149,1.649h-1.735a26.3,26.3,0,0,1-9.148-1.649,28.934,28.934,0,0,1-13.486-10.517l-4.321-6.1c-2.791-3.937-4.9-10.193-5.74-16.154-3.9-.632-6.551-5.119-7.32-11.352-.019-.1-.046-.253-.078-.446-.064-.391-.129-.83-.189-1.31a31.3,31.3,0,0,1-.2-6.2,13.1,13.1,0,0,1,1.717-6.009,6.481,6.481,0,0,1,4.2-3c.079-.785.2-1.653.361-2.6L186,42.643c1.723-9.9,7.6-16.559,17.33-20.948a41.508,41.508,0,0,1,16.255-3.2h1.736a41.5,41.5,0,0,1,16.226,3.191c.3.134.562.257.824.381l2.6-1.784a1.761,1.761,0,0,1,2.494.523l1.462,2.356,3.384.774a1.763,1.763,0,0,1,1.189,2.493l-1.255,2.563A25.813,25.813,0,0,1,254.906,42.643ZM139.486,197.082c7.553,3.506,15.719-3.736,15.719-14.446v-6.065c0-4.023-1.949-7.56-4.768-8.869l-9.447-4.385c-1.64-.761-3.543.926-3.543,3.648v26.2A4.258,4.258,0,0,0,139.486,197.082Zm-1.41,3.321a7.848,7.848,0,0,1-4.105-7.236v-26.2c0-5.134,4.255-8.907,8.429-6.97l9.447,4.385c4.148,1.926,6.834,6.8,6.834,12.191v6.065C158.681,195.758,148.163,205.086,138.076,200.4Zm160.438-3.321a4.258,4.258,0,0,0,2.039-3.915v-26.2c0-2.722-1.9-4.409-3.543-3.648l-9.446,4.385c-2.82,1.309-4.769,4.846-4.769,8.869v6.065C282.8,193.346,290.961,200.588,298.514,197.082Zm1.41,3.321c-10.087,4.683-20.6-4.645-20.6-17.767v-6.065c0-5.39,2.685-10.265,6.834-12.191l9.446-4.385c4.174-1.937,8.429,1.836,8.429,6.97v26.2A7.848,7.848,0,0,1,299.924,200.4Zm-77.29-40.611a1.481,1.481,0,1,1,2.907,0v73.5a1.481,1.481,0,1,1-2.907,0Zm-8.721,0a1.481,1.481,0,1,1,2.907,0v73.5a1.481,1.481,0,1,1-2.907,0Zm31.333,53.385a1.738,1.738,0,0,1-2.183-1.158,1.769,1.769,0,0,1,1.143-2.212l25.583-8.1a1.739,1.739,0,0,1,2.184,1.158,1.77,1.77,0,0,1-1.144,2.211ZM233.7,205.912a1.831,1.831,0,0,1-2.264-1.113,1.681,1.681,0,0,1,1.186-2.127l42.9-12.592a1.831,1.831,0,0,1,2.264,1.113,1.681,1.681,0,0,1-1.185,2.127Zm-.015-11.627a1.82,1.82,0,0,1-2.25-1.108,1.672,1.672,0,0,1,1.178-2.115l42.919-12.611a1.82,1.82,0,0,1,2.25,1.108,1.671,1.671,0,0,1-1.179,2.115Zm-23.945,12.628a1.752,1.752,0,0,1,1.183,2.2,1.8,1.8,0,0,1-2.248,1.158l-45.825-13.924a1.752,1.752,0,0,1-1.183-2.2,1.8,1.8,0,0,1,2.248-1.158Zm-.011-15.808a1.645,1.645,0,0,1,1.193,2.085,1.845,1.845,0,0,1-2.268,1.1l-44.34-12.656a1.645,1.645,0,0,1-1.193-2.085,1.847,1.847,0,0,1,2.268-1.1Zm.011-14.716a1.753,1.753,0,0,1,1.183,2.2,1.8,1.8,0,0,1-2.248,1.158l-45.825-13.924a1.752,1.752,0,0,1-1.183-2.2,1.8,1.8,0,0,1,2.248-1.158Zm79.752,29.918a1.482,1.482,0,1,1,2.907,0v28.436a1.482,1.482,0,1,1-2.907,0Zm-142.441-.2a1.458,1.458,0,1,1,2.907,0v27.372a1.458,1.458,0,1,1-2.907,0Zm71.142-63.16,63.134-22.612a1.751,1.751,0,0,1,2.351,1.631v3.34a1.754,1.754,0,0,1-3.508,0v-.866l-61,21.848a1.764,1.764,0,0,1-.9.079,1.792,1.792,0,0,1-.91-.081l-60.99-21.9v1.272a1.755,1.755,0,0,1-3.508,0v-3.721a1.748,1.748,0,0,1,2.361-1.6Zm17.52,29.506,3.082-3.648a1.679,1.679,0,0,1,2.019-.445l3.62,1.738V147.7l-8.721,2.681Zm-1.327,5.91q-.063.006-.126.006a1.613,1.613,0,0,1-1.454-1.734V151.271l-12.264,3.771a4.968,4.968,0,0,0-3.088,0L150.55,134.47v23.289a1.749,1.749,0,0,1-3.5,0V132.13a1.743,1.743,0,0,1,2.27-1.641L218.5,151.758a1.766,1.766,0,0,1,.5.246,1.786,1.786,0,0,1,.5-.246l25.42-7.816a1.312,1.312,0,0,1,.969-.452,1.183,1.183,0,0,1,.341.05l42.446-13.051a1.744,1.744,0,0,1,2.271,1.641v25.629a1.749,1.749,0,0,1-3.5,0V134.47L247.343,146.8v25.436c0,.073,0,.144-.01.214a1.863,1.863,0,0,1-.149.949,1.7,1.7,0,0,1-2.29.879l-4.355-2.09-4.708,5.574A1.692,1.692,0,0,1,234.388,178.368Zm8.342-59.455c-4.82,5.429-12.956,8.589-22.292,8.589-9.5,0-17.691-3.208-22.463-8.771a23.391,23.391,0,0,1-5.486,5.447c-.058.042-.161.116-.306.217-.238.166-.507.35-.8.547-.846.565-1.743,1.129-2.657,1.658q-.63.366-1.245.691a1.808,1.808,0,0,1-2.418-.7,1.715,1.715,0,0,1,.716-2.357c.367-.194.743-.4,1.125-.625.843-.488,1.677-1.013,2.464-1.538.275-.183.524-.353.742-.5l.2-.139.056-.04c4.4-3.2,6.807-7.02,6.906-11.086a1.784,1.784,0,0,1,3.565.082,14.358,14.358,0,0,1-1.024,4.973c3.826,5.393,11.448,8.662,20.631,8.662,8.78,0,16.212-3.057,20.195-8.085a14.958,14.958,0,0,1-2.01-7.024,1.784,1.784,0,0,1,3.565-.082c.1,4.08,2.576,8.063,6.9,11.174l.062.044c.055.039.121.084.2.136.218.151.466.319.741.5.787.519,1.621,1.037,2.463,1.519.383.219.76.426,1.127.618a1.686,1.686,0,0,1,.716,2.33,1.819,1.819,0,0,1-2.418.689q-.613-.321-1.247-.684c-.913-.522-1.81-1.08-2.655-1.637-.3-.2-.566-.378-.8-.541-.145-.1-.249-.173-.312-.218A23.946,23.946,0,0,1,242.73,118.913Zm-54.223-69.54c.409.207.868.414,1.373.61.165.064.333.127.5.187a1.7,1.7,0,0,1,1.148,1.486c0,.006,0,.053.017.135a5.449,5.449,0,0,0,.111.537,5.7,5.7,0,0,0,.719,1.66,4.735,4.735,0,0,0,2.72,2.017c-.043-1.634-.055-3.3-.018-4.872a34.131,34.131,0,0,1,.423-5.144,6.531,6.531,0,0,1,.659-2.032,2.3,2.3,0,0,1,2.8-1.195,33.11,33.11,0,0,0,15.415,1.452A28.191,28.191,0,0,0,224.624,40.5a26.2,26.2,0,0,0,3.824-2.779c.37-.327.687-.627.949-.893.149-.152.242-.253.278-.294a1.775,1.775,0,0,1,3.02.613,7.077,7.077,0,0,0,4.479,4.68,12.552,12.552,0,0,0,3.2.769,13.081,13.081,0,0,0,1.912.085,1.81,1.81,0,0,1,1.74.849c.661,1.126,1.03,3.714,1.337,7.875.121,1.641.217,3.4.291,5.148q.008.18.015.357a4.486,4.486,0,0,0,1.854-2.127,9.981,9.981,0,0,0,.715-2.021c.059-.244.1-.469.138-.669.02-.111.03-.184.033-.21a1.716,1.716,0,0,1,1.355-1.462,13.74,13.74,0,0,0,1.775-.5,7.148,7.148,0,0,0,.881-.383l0-.053c-.069-.789-.185-1.695-.36-2.7l-.616-3.537a22.191,22.191,0,0,0-6.547-12.638,1.765,1.765,0,0,1-.362-2.047l.828-1.69-1.933-.443a1.758,1.758,0,0,1-1.1-.788l-.876-1.412-1.92,1.32a1.76,1.76,0,0,1-1.79.122q-.771-.389-1.588-.757a38.037,38.037,0,0,0-14.822-2.9h-1.733a38.04,38.04,0,0,0-14.824,2.9c-8.723,3.937-13.787,9.684-15.292,18.333l-.616,3.537C188.689,47.744,188.576,48.612,188.507,49.373Zm-2.072,2.769c-2.327.11-3.523,2.11-3.819,5.917a27.859,27.859,0,0,0,.184,5.493c.054.432.112.826.169,1.172q.03.18.054.312c.664,5.4,2.678,8.571,4.778,8.613a2.464,2.464,0,0,1,2.318,1.788,4.26,4.26,0,0,1,.2.754c.021.117.034.22.043.3.763,5.483,2.7,11.279,5.14,14.718l4.322,6.1a25.419,25.419,0,0,0,11.834,9.251,22.811,22.811,0,0,0,7.926,1.429h1.735a22.821,22.821,0,0,0,7.927-1.429,25.417,25.417,0,0,0,11.833-9.251l4.322-6.1c2.437-3.439,4.378-9.236,5.141-14.718.008-.083.022-.186.042-.3a4.26,4.26,0,0,1,.2-.754,2.464,2.464,0,0,1,2.318-1.788c2.1-.042,4.114-3.217,4.741-8.39.054-.311.072-.415.092-.535.057-.346.114-.74.168-1.172a27.847,27.847,0,0,0,.184-5.492c-.286-3.676-1.41-5.668-3.581-5.9a9.51,9.51,0,0,1-1.94.937q-.516.188-1.106.354l-.02.087a13.238,13.238,0,0,1-.961,2.7c-1.362,2.78-3.6,4.526-6.774,4.4a1.723,1.723,0,0,1-1.678-1.65l0-.161c0-.134-.009-.29-.015-.465-.017-.5-.038-1.062-.063-1.665-.073-1.721-.167-3.442-.285-5.044-.126-1.7-.27-3.159-.434-4.306-.071-.5-.147-.933-.218-1.279-.389-.017-.807-.048-1.25-.1a16.133,16.133,0,0,1-4.111-1,10.772,10.772,0,0,1-5.429-4.407,30.072,30.072,0,0,1-3.949,2.821,31.73,31.73,0,0,1-11.539,4.177,36.254,36.254,0,0,1-15.929-1.228c-.018.082-.035.168-.052.259a31.322,31.322,0,0,0-.369,4.618c-.039,1.694-.021,3.516.035,5.281.012.386.025.737.038,1.047.005.108.009.2.013.283l0,.1a1.723,1.723,0,0,1-1.827,1.777,8.805,8.805,0,0,1-7.438-3.908,9,9,0,0,1-1.146-2.634c-.014-.055-.028-.109-.041-.162A18.113,18.113,0,0,1,186.435,52.142Z" fill="#333" clip-rule="evenodd"/>
    </clipPath>
  </defs>
  <g id="Background">
    <rect id="Rectangle_662" data-name="Rectangle 662" width="440" height="252" transform="translate(0 0)" fill="#ebf4ff"/>
    <g id="Group_6263" data-name="Group 6263">
      <g id="Group_6262" data-name="Group 6262">
        <path id="Path_5382" data-name="Path 5382" d="M16.195,156.818a1.11,1.11,0,1,1,2.22,0v19.944a1.11,1.11,0,1,1-2.22,0Zm11.3,0a1.11,1.11,0,1,1,2.22,0v19.944a1.11,1.11,0,1,1-2.22,0Zm11.3,0a1.11,1.11,0,1,1,2.22,0v19.944a1.11,1.11,0,1,1-2.22,0Zm11.3,0a1.11,1.11,0,1,1,2.22,0v19.944a1.11,1.11,0,1,1-2.22,0Zm11.3,0a1.11,1.11,0,1,1,2.22,0v19.944a1.11,1.11,0,1,1-2.22,0ZM16.195,123.806a1.11,1.11,0,1,1,2.22,0V143.75a1.11,1.11,0,1,1-2.22,0Zm11.3,0a1.11,1.11,0,1,1,2.22,0V143.75a1.11,1.11,0,1,1-2.22,0Zm11.3,0a1.11,1.11,0,1,1,2.22,0V143.75a1.11,1.11,0,1,1-2.22,0Zm11.3,0a1.11,1.11,0,1,1,2.22,0V143.75a1.11,1.11,0,1,1-2.22,0Zm11.3,0a1.11,1.11,0,1,1,2.22,0V143.75a1.11,1.11,0,1,1-2.22,0ZM16.195,90.794a1.11,1.11,0,1,1,2.22,0v19.944a1.11,1.11,0,1,1-2.22,0Zm11.3,0a1.11,1.11,0,1,1,2.22,0v19.944a1.11,1.11,0,1,1-2.22,0Zm11.3,0a1.11,1.11,0,1,1,2.22,0v19.944a1.11,1.11,0,1,1-2.22,0Zm11.3,0a1.11,1.11,0,1,1,2.22,0v19.944a1.11,1.11,0,1,1-2.22,0Zm11.3,0a1.11,1.11,0,1,1,2.22,0v19.944a1.11,1.11,0,1,1-2.22,0Zm21.9,86.121a1.121,1.121,0,0,1,0-2.241h45.522a1.121,1.121,0,0,1,0,2.241Zm0-10.819a1.121,1.121,0,0,1,0-2.242h45.522a1.121,1.121,0,0,1,0,2.242Zm0-10.82a1.121,1.121,0,0,1,0-2.242h45.522a1.121,1.121,0,0,1,0,2.242Zm0-10.819a1.121,1.121,0,0,1,0-2.242h45.522a1.121,1.121,0,0,1,0,2.242Zm0-10.82a1.121,1.121,0,0,1,0-2.242h45.522a1.121,1.121,0,0,1,0,2.242Zm0-10.819a1.121,1.121,0,0,1,0-2.242h45.522a1.121,1.121,0,0,1,0,2.242Zm0-10.82a1.121,1.121,0,0,1,0-2.242h45.522a1.121,1.121,0,0,1,0,2.242Zm0-10.819a1.121,1.121,0,0,1,0-2.242h45.522a1.121,1.121,0,0,1,0,2.242ZM180.43,82.208a1.11,1.11,0,1,1,2.22,0v37.131a1.11,1.11,0,1,1-2.22,0Zm-8.95-18.679a1.11,1.11,0,1,1,2.22,0v57.617a1.11,1.11,0,1,1-2.22,0Zm-8.726-2.259a1.11,1.11,0,1,1,2.22,0v56.713a1.11,1.11,0,1,1-2.22,0Zm-8.727,0a1.11,1.11,0,1,1,2.22,0v53.55a1.11,1.11,0,1,1-2.22,0Zm-8.726,0a1.11,1.11,0,1,1,2.22,0v61.458a1.11,1.11,0,1,1-2.22,0Zm-8.726,0a1.11,1.11,0,1,1,2.22,0v7.456a1.11,1.11,0,1,1-2.22,0Zm-5.5,7.456a1.11,1.11,0,1,1-2.22,0V54.943a1.116,1.116,0,0,1,1.11-1.121h41.058a1.121,1.121,0,0,1,0,2.242H131.076ZM17.305,187.883a1.121,1.121,0,0,1,0-2.242H128.834a1.121,1.121,0,0,1,0,2.242Zm0,18.388a1.121,1.121,0,0,1,0-2.242h121.15a1.121,1.121,0,0,1,0,2.242ZM77.088,78.358V179.893a1.11,1.11,0,1,1-2.22,0V78.358H17.305a1.121,1.121,0,0,1,0-2.242h59.51L75.1,68.74H17.305a1.121,1.121,0,0,1,0-2.241H75.978a1.112,1.112,0,0,1,1.081.864L79.3,76.98a1.118,1.118,0,0,1-1.08,1.378ZM136.575,89V76.1H83.312a1.121,1.121,0,0,1,0-2.242h54.373a1.116,1.116,0,0,1,1.11,1.121v79.187a1.11,1.11,0,1,1-2.22,0V91.237H83.312a1.121,1.121,0,0,1,0-2.242ZM57.7,53.822V48.967H43.848v4.855Zm2.22-5.029v5.029h46V29.071ZM41.628,51.205V47.846a1.116,1.116,0,0,1,1.11-1.121H58.811a1.1,1.1,0,0,1,.208.02l47.578-20.4a1.111,1.111,0,0,1,1.543,1.032v42.54a1.11,1.11,0,1,1-2.22,0V56.064h-46V62.4a1.11,1.11,0,1,1-2.22,0V56.064H43.848V62.4a1.11,1.11,0,1,1-2.22,0V51.205Z" fill="#b1c0d8" fill-rule="evenodd"/>
      </g>
    </g>
    <g id="Group_6265" data-name="Group 6265">
      <g id="Group_6264" data-name="Group 6264">
        <path id="Path_5383" data-name="Path 5383" d="M392.231,130.206a1.113,1.113,0,1,1,2.226,0v38.181a1.113,1.113,0,1,1-2.226,0Zm0-35.381a1.113,1.113,0,1,1,2.226,0v17.73a1.113,1.113,0,1,1-2.226,0Zm10.146,35.381a1.113,1.113,0,1,1,2.226,0v38.181a1.113,1.113,0,1,1-2.226,0Zm0-55.831a1.113,1.113,0,1,1,2.226,0v38.18a1.113,1.113,0,1,1-2.226,0Zm10.145,55.831a1.113,1.113,0,1,1,2.226,0v38.181a1.113,1.113,0,1,1-2.226,0Zm0-55.831a1.113,1.113,0,1,1,2.226,0v38.18a1.113,1.113,0,1,1-2.226,0Zm10.146,55.831a1.113,1.113,0,1,1,2.226,0v38.181a1.113,1.113,0,1,1-2.226,0Zm0-55.831a1.113,1.113,0,1,1,2.226,0v38.18a1.113,1.113,0,1,1-2.226,0ZM303.516,205.714a1.124,1.124,0,0,1,0-2.248H424.439a1.124,1.124,0,0,1,0,2.248Zm9.322-18.437a1.124,1.124,0,0,1,0-2.247h111.6a1.124,1.124,0,0,1,0,2.247Zm62.248-6.872a1.113,1.113,0,1,1-2.226,0V157.38a10.291,10.291,0,1,0-20.582,0V180.4a1.113,1.113,0,1,1-2.226,0V157.38a12.518,12.518,0,1,1,25.034,0Zm-33.61,0a1.113,1.113,0,1,1-2.225,0V157.38a10.292,10.292,0,1,0-20.583,0V180.4a1.113,1.113,0,1,1-2.225,0V157.38a12.517,12.517,0,1,1,25.033,0Zm33.2-55.221a5.439,5.439,0,1,0-10.878,0v9.932h10.878Zm-5.439-7.74a7.7,7.7,0,0,1,7.664,7.74v11.055a1.118,1.118,0,0,1-1.112,1.124h-13.1a1.118,1.118,0,0,1-1.113-1.124V125.184A7.7,7.7,0,0,1,369.235,117.444Zm-18.358,7.74a5.439,5.439,0,1,0-10.878,0v9.932h10.878Zm2.226,11.055a1.118,1.118,0,0,1-1.113,1.124h-13.1a1.118,1.118,0,0,1-1.112-1.124V125.184a7.665,7.665,0,1,1,15.329,0Zm-26.022-11.055a5.439,5.439,0,1,0-10.878,0v9.932h10.878Zm-5.439-7.74a7.7,7.7,0,0,1,7.665,7.74v11.055a1.119,1.119,0,0,1-1.113,1.124h-13.1a1.119,1.119,0,0,1-1.113-1.124V125.184A7.7,7.7,0,0,1,321.642,117.444Zm53.032-19.556a5.439,5.439,0,1,0-10.878,0v9.931h10.878Zm-5.439-7.74a7.7,7.7,0,0,1,7.664,7.74v11.055a1.118,1.118,0,0,1-1.112,1.124h-13.1a1.118,1.118,0,0,1-1.113-1.124V97.888A7.7,7.7,0,0,1,369.235,90.148Zm-18.358,7.74a5.439,5.439,0,1,0-10.878,0v9.931h10.878Zm2.226,11.055a1.118,1.118,0,0,1-1.113,1.124h-13.1a1.118,1.118,0,0,1-1.112-1.124V97.888a7.665,7.665,0,1,1,15.329,0ZM327.081,97.888a5.439,5.439,0,1,0-10.878,0v9.931h10.878Zm-5.439-7.74a7.7,7.7,0,0,1,7.665,7.74v11.055a1.119,1.119,0,0,1-1.113,1.124h-13.1a1.119,1.119,0,0,1-1.113-1.124V97.888A7.7,7.7,0,0,1,321.642,90.148ZM301.833,150.5a1.124,1.124,0,0,1,0,2.248h-4.326a1.124,1.124,0,0,1,0-2.248Zm0-10.491a1.124,1.124,0,0,1,0,2.247h-4.326a1.124,1.124,0,0,1,0-2.247Zm0-10.515a1.124,1.124,0,0,1,0,2.247h-4.326a1.124,1.124,0,0,1,0-2.247Zm0-10.487a1.124,1.124,0,0,1,0,2.248H290.777a1.124,1.124,0,0,1,0-2.248ZM274.1,119a1.124,1.124,0,0,1,0,2.248H262.593a1.124,1.124,0,0,1,0-2.248Zm27.735-10.412a1.124,1.124,0,0,1,0,2.247h-39.24a1.124,1.124,0,0,1,0-2.247Zm.337-10.5a1.124,1.124,0,0,1,0,2.247H262.593a1.124,1.124,0,0,1,0-2.247Zm0-10.5a1.124,1.124,0,0,1,0,2.248H262.593a1.124,1.124,0,0,1,0-2.248Zm0-10.5a1.124,1.124,0,0,1,0,2.248H262.593a1.124,1.124,0,0,1,0-2.248Zm0-10.5a1.124,1.124,0,0,1,0,2.247H267.977a1.124,1.124,0,0,1,0-2.247ZM255.291,93.254a1.113,1.113,0,1,1,2.226,0v23.032a1.113,1.113,0,1,1-2.226,0ZM384.047,86V180.4a1.113,1.113,0,1,1-2.226,0V86H315.308a1.124,1.124,0,0,1,0-2.247h73.057L382.37,75.5H315.308a1.124,1.124,0,0,1,0-2.248h67.626a1.109,1.109,0,0,1,.9.459l7.628,10.5a1.124,1.124,0,0,1-.9,1.788Zm-101.419-51.1L266.435,52.035a1.106,1.106,0,0,1-1.574.037,1.132,1.132,0,0,1-.037-1.589L281.406,32.93a1.127,1.127,0,0,1,.318-.594,1.454,1.454,0,0,1,1.787-.006,1.125,1.125,0,0,1,.323.589l25.559,26.628a1.125,1.125,0,0,1,.314.782V157.8a1.113,1.113,0,1,1-2.226,0V60.784ZM394.457,56.109h29.982a1.124,1.124,0,0,1,0,2.247H365.763v3.456h58.676a1.124,1.124,0,0,1,0,2.248H365.763v4.126a1.113,1.113,0,1,1-2.226,0V57.233a1.119,1.119,0,0,1,1.113-1.124h27.581V42.2a1.119,1.119,0,0,1,1.113-1.124h30.437a1.124,1.124,0,0,1,0,2.248H394.457Z" fill="#b1c0d8" fill-rule="evenodd"/>
      </g>
    </g>
  </g>
  <g id="Fill">
    <g id="Group_6267" data-name="Group 6267">
      <path id="Path_5384" data-name="Path 5384" d="M135.425,167.311s.056-7.476,5.814-6.241v37.653c-2.791-.638-5.814-2.579-5.814-8Zm162.79,31.074s-6.35,1.685-11.431-2.47l-.062-.052a14.126,14.126,0,0,1-3.689-4.869,18.9,18.9,0,0,1-1.776-5.574c-.027-.136-.054-.269-.08-.408,0,0-1.98-11.625,2.827-16.507a6.008,6.008,0,0,1,2.893-1.759v20.717C286.9,187.967,287.073,198.049,298.215,198.385Zm-140.988-76.7,63.953,23.469v1.24l-63.953-18.964Zm50.36-23.13a27.681,27.681,0,0,0,12.923,9.953,25.564,25.564,0,0,0,5.031,1.273,25.308,25.308,0,0,1-3.685.276h-1.77a25.376,25.376,0,0,1-8.716-1.549,27.681,27.681,0,0,1-12.923-9.953l-4.412-6.138c-2.937-4.088-4.851-10.523-5.568-15.643,0,0-.1-1.279-.866-1.294-3.381-.068-5.871-4.176-6.587-10.008,0,0-3.052-15.251,5.478-15.2a27.375,27.375,0,0,1,.452-3.919l.628-3.561c1.774-10.055,8.086-15.967,16.658-19.78a41.941,41.941,0,0,1,15.856-3.07h1.77c1.283,0,2.513.061,3.685.163a41.154,41.154,0,0,0-12.171,2.907c-8.571,3.813-14.883,9.725-16.658,19.78l-.219,1.246a78.851,78.851,0,0,0-.757,10.922c.173,6,.616,16.209,1.685,21.073h0a2.556,2.556,0,0,1,.187.742c.717,5.12,2.632,11.555,5.568,15.643ZM193.564,233.4l-43.6.205V204.4a19.525,19.525,0,0,0,8.415-5.813A23.893,23.893,0,0,0,163.909,183v-5.867a18.064,18.064,0,0,0-2.407-9.087,15.165,15.165,0,0,0-6.984-6.359l-4.558-2V131.863l25.546,7.862ZM204.991,105.89s2.287,15.931-8.564,23.4a6.317,6.317,0,0,1-5.829.7l-1.514-.578a2.05,2.05,0,0,1-.355-3.668c5-3.14,12.686-10.36,10.688-24.411Zm29.271,42.186,11.628-3.132v26.684l-5.8-2.592-5.832,6.431Z" fill="#4569a0" fill-rule="evenodd"/>
      <g id="Group_6266" data-name="Group 6266" clip-path="url(#clip-path)">
        <rect id="Rectangle_663" data-name="Rectangle 663" width="177.325" height="228.197" transform="translate(128.158 12.677)" fill="#4569a0"/>
      </g>
    </g>
  </g>
  <g id="Outlines">
    <g id="Group_6270" data-name="Group 6270">
      <path id="Path_5386" data-name="Path 5386" d="M253.5,70.9a1.648,1.648,0,0,1-2,1.314,1.815,1.815,0,0,1-1.2-2.179c.007-.029.02-.092.041-.187.034-.161.073-.349.115-.56.121-.606.242-1.273.355-1.979.219-1.37.38-2.713.459-3.958.02-.332.035-.655.043-.966a1.719,1.719,0,0,1,1.7-1.745,1.739,1.739,0,0,1,1.6,1.85c-.01.359-.027.729-.05,1.107-.087,1.383-.263,2.846-.5,4.331-.121.757-.251,1.472-.381,2.124C253.6,70.45,253.538,70.74,253.5,70.9Zm-64.346-.865a1.815,1.815,0,0,1-1.205,2.179,1.647,1.647,0,0,1-2-1.314c-.037-.163-.1-.453-.178-.848-.13-.652-.26-1.367-.381-2.124-.237-1.485-.413-2.949-.5-4.331-.023-.378-.04-.748-.05-1.107a1.739,1.739,0,0,1,1.6-1.85,1.719,1.719,0,0,1,1.7,1.745c.008.311.023.634.044.966.078,1.245.239,2.588.458,3.958.113.706.234,1.373.355,1.979.042.211.081.4.115.56C189.134,69.946,189.148,70.009,189.155,70.038Zm65.751-27.4.616,3.537c.164.944.281,1.813.36,2.6a6.481,6.481,0,0,1,4.2,3,13.1,13.1,0,0,1,1.717,6.008,31.237,31.237,0,0,1-.2,6.2c-.06.48-.124.919-.189,1.31-.032.193-.058.343-.078.446-.769,6.233-3.418,10.72-7.32,11.352-.845,5.961-2.949,12.216-5.74,16.154l-4.321,6.1a28.927,28.927,0,0,1-13.485,10.517,26.306,26.306,0,0,1-9.149,1.649h-1.735a26.3,26.3,0,0,1-9.148-1.649,28.934,28.934,0,0,1-13.486-10.517l-4.321-6.1c-2.791-3.937-4.9-10.193-5.74-16.154-3.9-.632-6.551-5.119-7.32-11.352-.019-.1-.046-.253-.078-.446-.064-.391-.129-.83-.189-1.31a31.3,31.3,0,0,1-.2-6.2,13.1,13.1,0,0,1,1.717-6.009,6.481,6.481,0,0,1,4.2-3c.079-.785.2-1.653.361-2.6L186,42.643c1.723-9.9,7.6-16.559,17.33-20.948a41.508,41.508,0,0,1,16.255-3.2h1.736a41.5,41.5,0,0,1,16.226,3.191c.3.134.562.257.824.381l2.6-1.784a1.761,1.761,0,0,1,2.494.523l1.462,2.356,3.384.774a1.763,1.763,0,0,1,1.189,2.493l-1.255,2.563A25.813,25.813,0,0,1,254.906,42.643ZM139.486,197.082c7.553,3.506,15.719-3.736,15.719-14.446v-6.065c0-4.023-1.949-7.56-4.768-8.869l-9.447-4.385c-1.64-.761-3.543.926-3.543,3.648v26.2A4.258,4.258,0,0,0,139.486,197.082Zm-1.41,3.321a7.848,7.848,0,0,1-4.105-7.236v-26.2c0-5.134,4.255-8.907,8.429-6.97l9.447,4.385c4.148,1.926,6.834,6.8,6.834,12.191v6.065C158.681,195.758,148.163,205.086,138.076,200.4Zm160.438-3.321a4.258,4.258,0,0,0,2.039-3.915v-26.2c0-2.722-1.9-4.409-3.543-3.648l-9.446,4.385c-2.82,1.309-4.769,4.846-4.769,8.869v6.065C282.8,193.346,290.961,200.588,298.514,197.082Zm1.41,3.321c-10.087,4.683-20.6-4.645-20.6-17.767v-6.065c0-5.39,2.685-10.265,6.834-12.191l9.446-4.385c4.174-1.937,8.429,1.836,8.429,6.97v26.2A7.848,7.848,0,0,1,299.924,200.4Zm-77.29-40.611a1.481,1.481,0,1,1,2.907,0v73.5a1.481,1.481,0,1,1-2.907,0Zm-8.721,0a1.481,1.481,0,1,1,2.907,0v73.5a1.481,1.481,0,1,1-2.907,0Zm31.333,53.385a1.738,1.738,0,0,1-2.183-1.158,1.769,1.769,0,0,1,1.143-2.212l25.583-8.1a1.739,1.739,0,0,1,2.184,1.158,1.77,1.77,0,0,1-1.144,2.211ZM233.7,205.912a1.831,1.831,0,0,1-2.264-1.113,1.681,1.681,0,0,1,1.186-2.127l42.9-12.592a1.831,1.831,0,0,1,2.264,1.113,1.681,1.681,0,0,1-1.185,2.127Zm-.015-11.627a1.82,1.82,0,0,1-2.25-1.108,1.672,1.672,0,0,1,1.178-2.115l42.919-12.611a1.82,1.82,0,0,1,2.25,1.108,1.671,1.671,0,0,1-1.179,2.115Zm-23.945,12.628a1.752,1.752,0,0,1,1.183,2.2,1.8,1.8,0,0,1-2.248,1.158l-45.825-13.924a1.752,1.752,0,0,1-1.183-2.2,1.8,1.8,0,0,1,2.248-1.158Zm-.011-15.808a1.645,1.645,0,0,1,1.193,2.085,1.845,1.845,0,0,1-2.268,1.1l-44.34-12.656a1.645,1.645,0,0,1-1.193-2.085,1.847,1.847,0,0,1,2.268-1.1Zm.011-14.716a1.753,1.753,0,0,1,1.183,2.2,1.8,1.8,0,0,1-2.248,1.158l-45.825-13.924a1.752,1.752,0,0,1-1.183-2.2,1.8,1.8,0,0,1,2.248-1.158Zm79.752,29.918a1.482,1.482,0,1,1,2.907,0v28.436a1.482,1.482,0,1,1-2.907,0Zm-142.441-.2a1.458,1.458,0,1,1,2.907,0v27.372a1.458,1.458,0,1,1-2.907,0Zm71.142-63.16,63.134-22.612a1.751,1.751,0,0,1,2.351,1.631v3.34a1.754,1.754,0,0,1-3.508,0v-.866l-61,21.848a1.764,1.764,0,0,1-.9.079,1.792,1.792,0,0,1-.91-.081l-60.99-21.9v1.272a1.755,1.755,0,0,1-3.508,0v-3.721a1.748,1.748,0,0,1,2.361-1.6Zm17.52,29.506,3.082-3.648a1.679,1.679,0,0,1,2.019-.445l3.62,1.738V147.7l-8.721,2.681Zm-1.327,5.91q-.063.006-.126.006a1.613,1.613,0,0,1-1.454-1.734V151.271l-12.264,3.771a4.968,4.968,0,0,0-3.088,0L150.55,134.47v23.289a1.749,1.749,0,0,1-3.5,0V132.13a1.743,1.743,0,0,1,2.27-1.641L218.5,151.758a1.766,1.766,0,0,1,.5.246,1.786,1.786,0,0,1,.5-.246l25.42-7.816a1.312,1.312,0,0,1,.969-.452,1.183,1.183,0,0,1,.341.05l42.446-13.051a1.744,1.744,0,0,1,2.271,1.641v25.629a1.749,1.749,0,0,1-3.5,0V134.47L247.343,146.8v25.436c0,.073,0,.144-.01.214a1.863,1.863,0,0,1-.149.949,1.7,1.7,0,0,1-2.29.879l-4.355-2.09-4.708,5.574A1.692,1.692,0,0,1,234.388,178.368Zm8.342-59.455c-4.82,5.429-12.956,8.589-22.292,8.589-9.5,0-17.691-3.208-22.463-8.771a23.391,23.391,0,0,1-5.486,5.447c-.058.042-.161.116-.306.217-.238.166-.507.35-.8.547-.846.565-1.743,1.129-2.657,1.658q-.63.366-1.245.691a1.808,1.808,0,0,1-2.418-.7,1.715,1.715,0,0,1,.716-2.357c.367-.194.743-.4,1.125-.625.843-.488,1.677-1.013,2.464-1.538.275-.183.524-.353.742-.5l.2-.139.056-.04c4.4-3.2,6.807-7.02,6.906-11.086a1.784,1.784,0,0,1,3.565.082,14.358,14.358,0,0,1-1.024,4.973c3.826,5.393,11.448,8.662,20.631,8.662,8.78,0,16.212-3.057,20.195-8.085a14.958,14.958,0,0,1-2.01-7.024,1.784,1.784,0,0,1,3.565-.082c.1,4.08,2.576,8.063,6.9,11.174l.062.044c.055.039.121.084.2.136.218.151.466.319.741.5.787.519,1.621,1.037,2.463,1.519.383.219.76.426,1.127.618a1.686,1.686,0,0,1,.716,2.33,1.819,1.819,0,0,1-2.418.689q-.613-.321-1.247-.684c-.913-.522-1.81-1.08-2.655-1.637-.3-.2-.566-.378-.8-.541-.145-.1-.249-.173-.312-.218A23.946,23.946,0,0,1,242.73,118.913Zm-54.223-69.54c.409.207.868.414,1.373.61.165.064.333.127.5.187a1.7,1.7,0,0,1,1.148,1.486c0,.006,0,.053.017.135a5.449,5.449,0,0,0,.111.537,5.7,5.7,0,0,0,.719,1.66,4.735,4.735,0,0,0,2.72,2.017c-.043-1.634-.055-3.3-.018-4.872a34.131,34.131,0,0,1,.423-5.144,6.531,6.531,0,0,1,.659-2.032,2.3,2.3,0,0,1,2.8-1.195,33.11,33.11,0,0,0,15.415,1.452A28.191,28.191,0,0,0,224.624,40.5a26.2,26.2,0,0,0,3.824-2.779c.37-.327.687-.627.949-.893.149-.152.242-.253.278-.294a1.775,1.775,0,0,1,3.02.613,7.077,7.077,0,0,0,4.479,4.68,12.552,12.552,0,0,0,3.2.769,13.081,13.081,0,0,0,1.912.085,1.81,1.81,0,0,1,1.74.849c.661,1.126,1.03,3.714,1.337,7.875.121,1.641.217,3.4.291,5.148q.008.18.015.357a4.486,4.486,0,0,0,1.854-2.127,9.981,9.981,0,0,0,.715-2.021c.059-.244.1-.469.138-.669.02-.111.03-.184.033-.21a1.716,1.716,0,0,1,1.355-1.462,13.74,13.74,0,0,0,1.775-.5,7.148,7.148,0,0,0,.881-.383l0-.053c-.069-.789-.185-1.695-.36-2.7l-.616-3.537a22.191,22.191,0,0,0-6.547-12.638,1.765,1.765,0,0,1-.362-2.047l.828-1.69-1.933-.443a1.758,1.758,0,0,1-1.1-.788l-.876-1.412-1.92,1.32a1.76,1.76,0,0,1-1.79.122q-.771-.389-1.588-.757a38.037,38.037,0,0,0-14.822-2.9h-1.733a38.04,38.04,0,0,0-14.824,2.9c-8.723,3.937-13.787,9.684-15.292,18.333l-.616,3.537C188.689,47.744,188.576,48.612,188.507,49.373Zm-2.072,2.769c-2.327.11-3.523,2.11-3.819,5.917a27.859,27.859,0,0,0,.184,5.493c.054.432.112.826.169,1.172q.03.18.054.312c.664,5.4,2.678,8.571,4.778,8.613a2.464,2.464,0,0,1,2.318,1.788,4.26,4.26,0,0,1,.2.754c.021.117.034.22.043.3.763,5.483,2.7,11.279,5.14,14.718l4.322,6.1a25.419,25.419,0,0,0,11.834,9.251,22.811,22.811,0,0,0,7.926,1.429h1.735a22.821,22.821,0,0,0,7.927-1.429,25.417,25.417,0,0,0,11.833-9.251l4.322-6.1c2.437-3.439,4.378-9.236,5.141-14.718.008-.083.022-.186.042-.3a4.26,4.26,0,0,1,.2-.754,2.464,2.464,0,0,1,2.318-1.788c2.1-.042,4.114-3.217,4.741-8.39.054-.311.072-.415.092-.535.057-.346.114-.74.168-1.172a27.847,27.847,0,0,0,.184-5.492c-.286-3.676-1.41-5.668-3.581-5.9a9.51,9.51,0,0,1-1.94.937q-.516.188-1.106.354l-.02.087a13.238,13.238,0,0,1-.961,2.7c-1.362,2.78-3.6,4.526-6.774,4.4a1.723,1.723,0,0,1-1.678-1.65l0-.161c0-.134-.009-.29-.015-.465-.017-.5-.038-1.062-.063-1.665-.073-1.721-.167-3.442-.285-5.044-.126-1.7-.27-3.159-.434-4.306-.071-.5-.147-.933-.218-1.279-.389-.017-.807-.048-1.25-.1a16.133,16.133,0,0,1-4.111-1,10.772,10.772,0,0,1-5.429-4.407,30.072,30.072,0,0,1-3.949,2.821,31.73,31.73,0,0,1-11.539,4.177,36.254,36.254,0,0,1-15.929-1.228c-.018.082-.035.168-.052.259a31.322,31.322,0,0,0-.369,4.618c-.039,1.694-.021,3.516.035,5.281.012.386.025.737.038,1.047.005.108.009.2.013.283l0,.1a1.723,1.723,0,0,1-1.827,1.777,8.805,8.805,0,0,1-7.438-3.908,9,9,0,0,1-1.146-2.634c-.014-.055-.028-.109-.041-.162A18.113,18.113,0,0,1,186.435,52.142Z" fill="#333" fill-rule="evenodd"/>
      <g id="Group_6269" data-name="Group 6269" clip-path="url(#clip-path-2)">
        <g id="Group_6268" data-name="Group 6268">
          <rect id="Rectangle_664" data-name="Rectangle 664" width="184.592" height="232.557" transform="translate(126.704 11.223)" fill="#333"/>
        </g>
      </g>
    </g>
  </g>
</svg>
