<svg xmlns="http://www.w3.org/2000/svg" width="400" height="216.675" viewBox="0 0 400 216.675">
  <g data-name="Group 6779" transform="translate(-9.409 -13.417)">
    <g transform="translate(9.409 13.417)">
      <g data-name="Group 6701">
        <g data-name="Group 6660" transform="translate(49.828 164.701)">
          <path data-name="Path 7075" d="M191.858,188.169H62.654a.953.953,0,0,1,0-1.906h129.2a.953.953,0,1,1,0,1.906Z" transform="translate(-61.701 -186.263)" fill="#f7d176"></path>
        </g>
        <g data-name="Group 6661" transform="translate(225.36 164.701)">
          <path data-name="Path 7076" d="M335.525,188.169H246.867a.953.953,0,0,1,0-1.906h88.658a.953.953,0,0,1,0,1.906Z" transform="translate(-245.914 -186.263)" fill="#f7d176"></path>
        </g>
        <g data-name="Group 6662" transform="translate(368.762 164.7)">
          <path data-name="Path 7077" d="M426.693,188.168H397.361a.953.953,0,0,1,0-1.906h29.332a.953.953,0,0,1,0,1.906Z" transform="translate(-396.408 -186.262)" fill="#f7d176"></path>
        </g>
        <g data-name="Group 6663" transform="translate(0.158 32.169)">
          <path data-name="Path 7078" d="M95.783,95.655a.953.953,0,0,1-.953-.953V49.083h-84.3a.953.953,0,0,1,0-1.906H95.783a.953.953,0,0,1,.953.953V94.7A.953.953,0,0,1,95.783,95.655Z" transform="translate(-9.575 -47.177)" fill="#f7d176"></path>
        </g>
        <g data-name="Group 6664" transform="translate(0.158 92.243)">
          <path data-name="Path 7079" d="M49.979,112.128H10.528a.953.953,0,0,1,0-1.906H49.979a.953.953,0,1,1,0,1.906Z" transform="translate(-9.575 -110.222)" fill="#f7d176"></path>
        </g>
        <g data-name="Group 6665" transform="translate(0.159 99.177)">
          <path data-name="Path 7080" d="M47.517,119.4H10.529a.953.953,0,1,1,0-1.906H47.517a.953.953,0,1,1,0,1.906Z" transform="translate(-9.576 -117.499)" fill="#f7d176"></path>
        </g>
        <g data-name="Group 6666" transform="translate(0.331 25.235)">
          <path data-name="Path 7081" d="M102.8,97.373a.953.953,0,0,1-.953-.953V41.806H10.709a.953.953,0,1,1,0-1.906H102.8a.953.953,0,0,1,.953.953V96.42A.953.953,0,0,1,102.8,97.373Z" transform="translate(-9.756 -39.9)" fill="#f7d176"></path>
        </g>
        <g data-name="Group 6667" transform="translate(0.329 47.848)">
          <path data-name="Path 7082" d="M81.085,93.58H10.707a.953.953,0,1,1,0-1.906H80.132V65.537H10.707a.953.953,0,0,1,0-1.906H81.085a.953.953,0,0,1,.953.953V92.627A.953.953,0,0,1,81.085,93.58Z" transform="translate(-9.754 -63.631)" fill="#f7d176"></path>
        </g>
        <g data-name="Group 6670" transform="translate(12.675 0.211)">
          <g data-name="Group 6668" transform="translate(20.279)">
            <path data-name="Path 7083" d="M65.225,35.481a.951.951,0,0,1-.668-.274L44.278,15.271a.953.953,0,1,1,1.336-1.359l20.28,19.936a.953.953,0,0,1-.669,1.632Z" transform="translate(-43.993 -13.638)" fill="#f7d176"></path>
          </g>
          <g data-name="Group 6669" transform="translate(0 0)">
            <path data-name="Path 7084" d="M23.664,35.481A.953.953,0,0,1,23,33.849L43.275,13.912a.953.953,0,1,1,1.336,1.359L24.332,35.206A.949.949,0,0,1,23.664,35.481Z" transform="translate(-22.711 -13.638)" fill="#f7d176"></path>
          </g>
        </g>
        <g data-name="Group 6671" transform="translate(14.417 185.662)">
          <path data-name="Path 7085" d="M85.064,221.281H25.492a.952.952,0,0,1-.953-.953V218.9a10.647,10.647,0,0,1,10.635-10.634H75.382A10.647,10.647,0,0,1,86.017,218.9v1.433A.953.953,0,0,1,85.064,221.281Zm-58.619-1.906H84.111v-.48a8.739,8.739,0,0,0-8.729-8.728H35.174a8.738,8.738,0,0,0-8.729,8.728Z" transform="translate(-24.539 -208.261)" fill="#f7d176"></path>
        </g>
        <g data-name="Group 6674" transform="translate(28.854 144.835)">
          <g data-name="Group 6672" transform="translate(6.501)">
            <path data-name="Path 7086" d="M59.8,205.108a.952.952,0,0,1-.905-.657L46.56,166.665a.953.953,0,0,1,1.81-.593L60.7,203.86a.951.951,0,0,1-.609,1.2A.922.922,0,0,1,59.8,205.108Z" transform="translate(-46.512 -165.415)" fill="#f7d176"></path>
          </g>
          <g data-name="Group 6673" transform="translate(0 1.669)">
            <path data-name="Path 7087" d="M52.419,205.191a.951.951,0,0,1-.906-.657L39.737,168.414a.954.954,0,0,1,1.813-.591l11.776,36.12a.953.953,0,0,1-.612,1.2A.932.932,0,0,1,52.419,205.191Z" transform="translate(-39.69 -167.167)" fill="#f7d176"></path>
          </g>
        </g>
        <g data-name="Group 6677" transform="translate(29.186 90.625)">
          <g data-name="Group 6675" transform="translate(6.472 5.863)">
            <path data-name="Path 7088" d="M47.784,152.546a.967.967,0,0,1-.328-.058.953.953,0,0,1-.567-1.223L60.047,115.3a.954.954,0,0,1,.9-.625h3.839a.953.953,0,0,1,0,1.906H61.609L48.679,151.921A.952.952,0,0,1,47.784,152.546Z" transform="translate(-46.831 -114.677)" fill="#f7d176"></path>
          </g>
          <g data-name="Group 6676">
            <path data-name="Path 7089" d="M40.992,150.44a.941.941,0,0,1-.339-.063.954.954,0,0,1-.552-1.23l15.276-40.01a.953.953,0,0,1,.89-.613H66.756a.953.953,0,0,1,0,1.906H56.923l-15.04,39.4A.955.955,0,0,1,40.992,150.44Z" transform="translate(-40.038 -108.524)" fill="#f7d176"></path>
          </g>
        </g>
        <g data-name="Group 6678" transform="translate(25.931 134.758)">
          <path data-name="Path 7090" d="M42.064,165.213a5.193,5.193,0,1,1,5.441-5.187A5.325,5.325,0,0,1,42.064,165.213Zm0-8.468a3.29,3.29,0,1,0,3.535,3.281A3.42,3.42,0,0,0,42.064,156.745Z" transform="translate(-36.622 -154.839)" fill="#f7d176"></path>
        </g>
        <g data-name="Group 6681" transform="translate(54.748 81.374)">
          <g data-name="Group 6679">
            <path data-name="Path 7091" d="M78.306,143.952a.946.946,0,0,1-.513-.151,23.77,23.77,0,0,1-10.475-15.875c-1.254-6.646.126-13.538,3.689-18.435,8.167-11.227,24.677-14.054,36.8-6.3a.955.955,0,0,1,.252,1.371l-28.987,39A.954.954,0,0,1,78.306,143.952Zm14.407-43.239a24.815,24.815,0,0,0-20.165,9.9c-3.26,4.48-4.514,10.821-3.356,16.961A21.956,21.956,0,0,0,78.083,141.7l27.825-37.439A26.134,26.134,0,0,0,92.713,100.713Z" transform="translate(-66.864 -98.816)" fill="#f7d176"></path>
          </g>
          <g data-name="Group 6680" transform="translate(20.191 17.232)">
            <path data-name="Path 7092" d="M92.27,132.349a10.039,10.039,0,0,1-3.6-.663.953.953,0,0,1,.685-1.779,8.1,8.1,0,0,0,9.3-2.535,6.654,6.654,0,0,0-.772-8.835.953.953,0,1,1,1.324-1.37,8.539,8.539,0,0,1,.978,11.342A9.867,9.867,0,0,1,92.27,132.349Z" transform="translate(-88.054 -116.899)" fill="#f7d176"></path>
          </g>
        </g>
        <g data-name="Group 6682" transform="translate(0 164.701)">
          <path data-name="Path 7093" d="M36.725,188.169H10.362a.953.953,0,0,1,0-1.906H36.725a.953.953,0,0,1,0,1.906Z" transform="translate(-9.409 -186.263)" fill="#f7d176"></path>
        </g>
        <g data-name="Group 6683" transform="translate(0.001 214.77)">
          <path data-name="Path 7094" d="M408.246,240.714H10.363a.953.953,0,1,1,0-1.906H408.246a.953.953,0,1,1,0,1.906Z" transform="translate(-9.41 -238.808)" fill="#f7d176"></path>
        </g>
        <g data-name="Group 6684" transform="translate(92.858 183.74)">
          <path data-name="Path 7095" d="M106.859,206.521l.692.3,0-.583Z" transform="translate(-106.859 -206.244)" fill="#f7d176"></path>
        </g>
        <g data-name="Group 6685" transform="translate(95.393 182.787)">
          <path data-name="Path 7096" d="M109.519,205.743l.013,1.948,29.223-.5-.013-1.948Z" transform="translate(-109.519 -205.244)" fill="#f7d176"></path>
        </g>
        <g data-name="Group 6686" transform="translate(126.814 182.627)">
          <path data-name="Path 7097" d="M142.495,205.113l.008,1.9,1.884-.037-.008-1.9Z" transform="translate(-142.495 -205.076)" fill="#f7d176"></path>
        </g>
        <g data-name="Group 6687" transform="translate(88.592 179.839)">
          <path data-name="Path 7098" d="M139.282,212.774h0l-11.1-.027a1.9,1.9,0,0,1-1.893-1.832,1.817,1.817,0,0,1,.183-.85l-18.167.31h-.032a1.877,1.877,0,0,1-1.665-1.023l-3.079-1.358a1.9,1.9,0,0,1-1.142-1.768,1.822,1.822,0,0,1,1.159-1.683l4.417-1.783a1.9,1.9,0,0,1,1.461.018l29.883-.511h0a1.889,1.889,0,0,1,.374-.045l3.687-.072a1.82,1.82,0,0,1,1.317.52,1.842,1.842,0,0,1,.558,1.318v0l.016,3.719a1.878,1.878,0,0,1-1.831,1.883l-2.329.046.033,1.257a1.8,1.8,0,0,1-.516,1.322A1.838,1.838,0,0,1,139.282,212.774Zm0-1.906Zm-.547,0h.485l-.014-.519a.945.945,0,0,1-.471.519Zm-.449-2.911a.953.953,0,0,1,.887.606.955.955,0,0,1,.924-.813l.132,0a.926.926,0,0,1-.283-.191.948.948,0,0,1-.287-.677l-.008-1.9a.952.952,0,0,1,.54-.862l-.477.012a.852.852,0,0,1-.4.043l-30.105.516a1.131,1.131,0,0,1-.537-.156l-1.411.569a.964.964,0,0,1,.605.158.953.953,0,0,1,.422.785l0,.583a.952.952,0,0,1-.43.8.97.97,0,0,1-.564.156l.449.188a.955.955,0,0,1,.557.725l29.965-.541Zm5.093-.758a.954.954,0,0,1-.463.5l.471-.01Zm-37.332-1.61-1.793.722,1.776.743a.952.952,0,0,1,.017-1.466Zm36.782-1.54a.946.946,0,0,1,.511.463l-.007-.476Zm.5-.05h0Z" transform="translate(-102.383 -202.15)" fill="#f7d176"></path>
        </g>
        <g data-name="Group 6688" transform="translate(200.382 13.721)">
          <path data-name="Path 7099" d="M222,28.966a1.15,1.15,0,0,0-2.3,0V39.445H222Z" transform="translate(-219.701 -27.817)" fill="#f7d176"></path>
        </g>
        <g data-name="Group 6689" transform="translate(176.132 7.674)">
          <path data-name="Path 7100" d="M219.651,23.77a24.78,24.78,0,0,1,22.927,15.376h2.472a27.087,27.087,0,0,0-50.8,0h2.472A24.782,24.782,0,0,1,219.651,23.77Z" transform="translate(-194.252 -21.471)" fill="#f7d176"></path>
        </g>
        <g data-name="Group 6690" transform="translate(169.934 1.786)">
          <path data-name="Path 7101" d="M219.344,17.59a30.676,30.676,0,0,1,29.193,21.264h2.405a32.967,32.967,0,0,0-63.2,0h2.405A30.676,30.676,0,0,1,219.344,17.59Z" transform="translate(-187.747 -15.291)" fill="#f7d176"></path>
        </g>
        <g data-name="Group 6691" transform="translate(318.033 156.143)">
          <path data-name="Path 7102" d="M369.927,215.586H352.19a9.029,9.029,0,0,1-9.02-9.019V178.235a.952.952,0,0,1,.953-.953h33.871a.952.952,0,0,1,.953.953v28.332A9.029,9.029,0,0,1,369.927,215.586Zm-24.851-36.4v27.379a7.122,7.122,0,0,0,7.114,7.113h17.737a7.122,7.122,0,0,0,7.114-7.113V179.188Z" transform="translate(-343.17 -177.282)" fill="#f7d176"></path>
        </g>
        <g data-name="Group 6692" transform="translate(356.439 163.812)">
          <path data-name="Path 7103" d="M387.068,204.189h-2.639a.953.953,0,0,1,0-1.906h2.639a7.53,7.53,0,0,0,0-15.048h-2.639a.953.953,0,0,1,0-1.906h2.639a9.435,9.435,0,0,1,0,18.859Z" transform="translate(-383.476 -185.33)" fill="#f7d176"></path>
        </g>
        <g data-name="Group 6693" transform="translate(318.033 197.197)">
          <path data-name="Path 7104" d="M377.994,222.272H344.123a.953.953,0,0,1,0-1.906h33.871a.953.953,0,0,1,0,1.906Z" transform="translate(-343.17 -220.366)" fill="#f7d176"></path>
        </g>
        <g data-name="Group 6694" transform="translate(304.934 119.354)">
          <path data-name="Path 7105" d="M423.326,148.4H330.377a.952.952,0,0,1-.953-.953v-7.816a.952.952,0,0,1,.953-.953h93.16a.953.953,0,1,1,0,1.906H331.33v5.911h92a.953.953,0,1,1,0,1.906Z" transform="translate(-329.424 -138.674)" fill="#f7d176"></path>
        </g>
        <g data-name="Group 6695" transform="translate(309.16 131.396)">
          <path data-name="Path 7106" d="M423.746,153.217H334.811a.953.953,0,0,1,0-1.906h88.935a.953.953,0,0,1,0,1.906Z" transform="translate(-333.858 -151.311)" fill="#f7d176"></path>
        </g>
        <g data-name="Group 6696" transform="translate(331.763 56.826)">
          <path data-name="Path 7107" d="M424.863,74.959H358.532a.953.953,0,1,1,0-1.906h66.332a.953.953,0,1,1,0,1.906Z" transform="translate(-357.579 -73.053)" fill="#f7d176"></path>
        </g>
        <g data-name="Group 6697" transform="translate(331.763 46.052)">
          <path data-name="Path 7108" d="M424.863,63.652H358.532a.953.953,0,1,1,0-1.906h66.332a.953.953,0,1,1,0,1.906Z" transform="translate(-357.579 -61.746)" fill="#f7d176"></path>
        </g>
        <g data-name="Group 6698" transform="translate(325.637)">
          <path data-name="Path 7109" d="M352.1,130.241a.953.953,0,0,1-.953-.953V14.37a.953.953,0,1,1,1.906,0V129.289A.953.953,0,0,1,352.1,130.241Z" transform="translate(-351.15 -13.417)" fill="#f7d176"></path>
        </g>
        <g data-name="Group 6699" transform="translate(315.388)">
          <path data-name="Path 7110" d="M341.348,130.241a.953.953,0,0,1-.953-.953V14.37a.953.953,0,0,1,1.906,0V129.289A.953.953,0,0,1,341.348,130.241Z" transform="translate(-340.395 -13.417)" fill="#f7d176"></path>
        </g>
        <g data-name="Group 6700" transform="translate(310.216)">
          <path data-name="Path 7111" d="M335.92,130.241a.953.953,0,0,1-.953-.953V14.37a.953.953,0,0,1,1.906,0V129.289A.953.953,0,0,1,335.92,130.241Z" transform="translate(-334.967 -13.417)" fill="#f7d176"></path>
        </g>
      </g>
    </g>
    <g transform="translate(121.372 45.308)">
      <g data-name="Group 6703">
        <path data-name="Path 7112" d="M156.865,46.885,175.6,167.727H132.988s-6.079-.416-6.079-7.61V54.495s-.078-7.61,6.079-7.61Z" transform="translate(-126.909 -46.885)" fill="#edca73"></path>
        <path data-name="Path 7113" d="M281.345,222.65l-5.889-6.419,2.2,5.068H157.27l.243-5.126-3.981,6.477a1.875,1.875,0,0,0,1.381,3.143H279.964A1.875,1.875,0,0,0,281.345,222.65Z" transform="translate(-128.14 -54.863)" fill="#edca73"></path>
        <path data-name="Path 7114" d="M233.349,173.7H205.813l-.422,7.972h28.381Z" transform="translate(-130.607 -52.861)" fill="#edca73"></path>
        <g data-name="Group 6702" transform="translate(156.96 149.56)">
          <path data-name="Path 7115" d="M306.1,211.16c-6.514,0-12.021-3.755-13.835-7.318a4.06,4.06,0,0,0-.634,2.132c0,4.015,6.478,9.666,14.468,9.666s14.469-5.651,14.469-9.666a4.068,4.068,0,0,0-.634-2.132C318.122,207.4,312.614,211.16,306.1,211.16Z" transform="translate(-291.631 -203.842)" fill="#edca73"></path>
        </g>
      </g>
    </g>
    <g transform="translate(119.955 43.451)">
      <g data-name="Group 6778">
        <g data-name="Group 6705" transform="translate(75.783 175.828)">
          <g data-name="Group 6704">
            <path data-name="Path 7116" d="M204.953,229.46" transform="translate(-204.953 -229.46)" fill="#333" stroke="#231f20" stroke-linecap="round" stroke-linejoin="round" stroke-width="3"></path>
          </g>
        </g>
        <g data-name="Group 6707" transform="translate(157.985 142.029)">
          <g data-name="Group 6706">
            <path data-name="Path 7117" d="M306.08,212.569c-8,0-14.86-5.719-14.86-10.4,0-4.585,6.527-8.179,14.86-8.179s14.861,3.593,14.861,8.179C320.941,206.85,314.084,212.569,306.08,212.569Zm0-15.721c-7.072,0-12,2.8-12,5.32,0,1.386,1.314,3.244,3.347,4.73a14.719,14.719,0,0,0,17.308,0c2.034-1.486,3.348-3.344,3.348-4.73C318.083,199.652,313.153,196.848,306.08,196.848Z" transform="translate(-291.22 -193.989)" fill="#333"></path>
          </g>
        </g>
        <g data-name="Group 6709" transform="translate(28.698 160.984)">
          <g data-name="Group 6708">
            <path data-name="Path 7118" d="M277.506,222.081H156.968a1.43,1.43,0,0,1-1.429-1.429V215.31a1.43,1.43,0,0,1,1.429-1.429H277.506a1.43,1.43,0,0,1,1.429,1.429v5.342A1.43,1.43,0,0,1,277.506,222.081ZM158.4,219.223H276.077V216.74H158.4Z" transform="translate(-155.539 -213.881)" fill="#333"></path>
          </g>
        </g>
        <g data-name="Group 6711" transform="translate(72.866 126.773)">
          <g data-name="Group 6710">
            <path data-name="Path 7119" d="M203.321,190.384a1.428,1.428,0,0,1-1.289-2.046,26.548,26.548,0,0,0,2.03-9.037,1.41,1.41,0,0,1,1.535-1.314,1.429,1.429,0,0,1,1.314,1.536,28.9,28.9,0,0,1-2.3,10.049A1.43,1.43,0,0,1,203.321,190.384Z" transform="translate(-201.892 -177.979)" fill="#333"></path>
          </g>
        </g>
        <g data-name="Group 6713" transform="translate(102.902 126.775)">
          <g data-name="Group 6712">
            <path data-name="Path 7120" d="M237.008,190.384a1.427,1.427,0,0,1-1.29-.812,28.854,28.854,0,0,1-2.3-10.048,1.429,1.429,0,1,1,2.849-.222,26.539,26.539,0,0,0,2.029,9.036,1.429,1.429,0,0,1-1.287,2.046Z" transform="translate(-233.413 -177.981)" fill="#333"></path>
          </g>
        </g>
        <g data-name="Group 6715" transform="translate(84.578 105.337)">
          <g data-name="Group 6714">
            <path data-name="Path 7121" d="M220,167.119a5.818,5.818,0,1,1,5.819-5.818A5.824,5.824,0,0,1,220,167.119Zm0-8.778a2.96,2.96,0,1,0,2.961,2.96A2.963,2.963,0,0,0,220,158.341Z" transform="translate(-214.183 -155.482)" fill="#333"></path>
          </g>
        </g>
        <g data-name="Group 6717" transform="translate(28.698 141.939)">
          <g data-name="Group 6716">
            <path data-name="Path 7122" d="M277.506,215.8H156.968a1.43,1.43,0,0,1-1.07-2.377l16.871-19.045a1.429,1.429,0,0,1,1.07-.48h86.8a1.429,1.429,0,0,1,1.07.48l16.871,19.045a1.43,1.43,0,0,1-1.07,2.377Zm-117.362-2.859H274.33l-14.338-16.186h-85.51Z" transform="translate(-155.539 -193.895)" fill="#333"></path>
          </g>
        </g>
        <g data-name="Group 6719" transform="translate(80.251 154.625)">
          <g data-name="Group 6718">
            <path data-name="Path 7123" d="M228,210.067H211.071a1.429,1.429,0,0,1,0-2.859H228a1.429,1.429,0,1,1,0,2.859Z" transform="translate(-209.642 -207.208)" fill="#333"></path>
          </g>
        </g>
        <g data-name="Group 6749" transform="translate(43.827 148.318)">
          <g data-name="Group 6736" transform="translate(5.198)">
            <g data-name="Group 6721">
              <g data-name="Group 6720">
                <path data-name="Path 7124" d="M182.982,203.448H178.3a1.429,1.429,0,1,1,0-2.859h4.681a1.429,1.429,0,0,1,0,2.859Z" transform="translate(-176.871 -200.589)" fill="#333"></path>
              </g>
            </g>
            <g data-name="Group 6723" transform="translate(10.743)">
              <g data-name="Group 6722">
                <path data-name="Path 7125" d="M194.257,203.448h-4.682a1.429,1.429,0,1,1,0-2.859h4.682a1.429,1.429,0,1,1,0,2.859Z" transform="translate(-188.145 -200.589)" fill="#333"></path>
              </g>
            </g>
            <g data-name="Group 6725" transform="translate(21.486)">
              <g data-name="Group 6724">
                <path data-name="Path 7126" d="M205.531,203.448h-4.681a1.429,1.429,0,0,1,0-2.859h4.681a1.429,1.429,0,1,1,0,2.859Z" transform="translate(-199.42 -200.589)" fill="#333"></path>
              </g>
            </g>
            <g data-name="Group 6727" transform="translate(32.229)">
              <g data-name="Group 6726">
                <path data-name="Path 7127" d="M216.806,203.448h-4.682a1.429,1.429,0,0,1,0-2.859h4.682a1.429,1.429,0,1,1,0,2.859Z" transform="translate(-210.694 -200.589)" fill="#333"></path>
              </g>
            </g>
            <g data-name="Group 6729" transform="translate(42.973)">
              <g data-name="Group 6728">
                <path data-name="Path 7128" d="M228.081,203.448H223.4a1.429,1.429,0,0,1,0-2.859h4.682a1.429,1.429,0,0,1,0,2.859Z" transform="translate(-221.969 -200.589)" fill="#333"></path>
              </g>
            </g>
            <g data-name="Group 6731" transform="translate(53.715)">
              <g data-name="Group 6730">
                <path data-name="Path 7129" d="M239.355,203.448h-4.682a1.429,1.429,0,0,1,0-2.859h4.682a1.429,1.429,0,0,1,0,2.859Z" transform="translate(-233.243 -200.589)" fill="#333"></path>
              </g>
            </g>
            <g data-name="Group 6733" transform="translate(64.46)">
              <g data-name="Group 6732">
                <path data-name="Path 7130" d="M250.63,203.448h-4.681a1.429,1.429,0,1,1,0-2.859h4.681a1.429,1.429,0,0,1,0,2.859Z" transform="translate(-244.519 -200.589)" fill="#333"></path>
              </g>
            </g>
            <g data-name="Group 6735" transform="translate(75.203)">
              <g data-name="Group 6734">
                <path data-name="Path 7131" d="M261.9,203.448h-4.681a1.429,1.429,0,1,1,0-2.859H261.9a1.429,1.429,0,1,1,0,2.859Z" transform="translate(-255.793 -200.589)" fill="#333"></path>
              </g>
            </g>
          </g>
          <g data-name="Group 6738" transform="translate(0 6.307)">
            <g data-name="Group 6737">
              <path data-name="Path 7132" d="M178.137,210.067h-5.291a1.429,1.429,0,1,1,0-2.859h5.291a1.429,1.429,0,0,1,0,2.859Z" transform="translate(-171.416 -207.208)" fill="#333"></path>
            </g>
          </g>
          <g data-name="Group 6740" transform="translate(12.141 6.307)">
            <g data-name="Group 6739">
              <path data-name="Path 7133" d="M190.879,210.067h-5.292a1.429,1.429,0,1,1,0-2.859h5.292a1.429,1.429,0,1,1,0,2.859Z" transform="translate(-184.157 -207.208)" fill="#333"></path>
            </g>
          </g>
          <g data-name="Group 6742" transform="translate(24.282 6.307)">
            <g data-name="Group 6741">
              <path data-name="Path 7134" d="M203.62,210.067h-5.291a1.429,1.429,0,0,1,0-2.859h5.291a1.429,1.429,0,0,1,0,2.859Z" transform="translate(-196.899 -207.208)" fill="#333"></path>
            </g>
          </g>
          <g data-name="Group 6744" transform="translate(60.707 6.307)">
            <g data-name="Group 6743">
              <path data-name="Path 7135" d="M241.846,210.067h-5.291a1.429,1.429,0,1,1,0-2.859h5.291a1.429,1.429,0,1,1,0,2.859Z" transform="translate(-235.125 -207.208)" fill="#333"></path>
            </g>
          </g>
          <g data-name="Group 6746" transform="translate(72.847 6.307)">
            <g data-name="Group 6745">
              <path data-name="Path 7136" d="M254.587,210.067H249.3a1.429,1.429,0,0,1,0-2.859h5.291a1.429,1.429,0,1,1,0,2.859Z" transform="translate(-247.866 -207.208)" fill="#333"></path>
            </g>
          </g>
          <g data-name="Group 6748" transform="translate(84.989 6.307)">
            <g data-name="Group 6747">
              <path data-name="Path 7137" d="M267.329,210.067h-5.291a1.429,1.429,0,0,1,0-2.859h5.291a1.429,1.429,0,0,1,0,2.859Z" transform="translate(-260.608 -207.208)" fill="#333"></path>
            </g>
          </g>
        </g>
        <g data-name="Group 6751" transform="translate(28.698 166.548)">
          <g data-name="Group 6750">
            <path data-name="Path 7138" d="M277.506,222.58H156.968a1.429,1.429,0,0,1,0-2.859H277.506a1.429,1.429,0,1,1,0,2.859Z" transform="translate(-155.539 -219.721)" fill="#333"></path>
          </g>
        </g>
        <g data-name="Group 6753">
          <g data-name="Group 6752">
            <path data-name="Path 7139" d="M298.241,169.064H133.395a7.982,7.982,0,0,1-7.973-7.973V52.909a7.982,7.982,0,0,1,7.973-7.973H298.241a7.982,7.982,0,0,1,7.973,7.973V161.092A7.982,7.982,0,0,1,298.241,169.064ZM133.395,47.795a5.12,5.12,0,0,0-5.114,5.114V161.092a5.119,5.119,0,0,0,5.114,5.114H298.241a5.119,5.119,0,0,0,5.114-5.114V52.909a5.12,5.12,0,0,0-5.114-5.114Z" transform="translate(-125.422 -44.936)" fill="#333"></path>
          </g>
        </g>
        <g data-name="Group 6755" transform="translate(8.469 98.575)">
          <g data-name="Group 6754">
            <path data-name="Path 7140" d="M296.248,151.245H135.739a1.429,1.429,0,0,1,0-2.859H296.248a1.429,1.429,0,0,1,0,2.859Z" transform="translate(-134.31 -148.386)" fill="#333"></path>
          </g>
        </g>
        <g data-name="Group 6757" transform="translate(8.469 8.507)">
          <g data-name="Group 6756">
            <path data-name="Path 7141" d="M296.735,139.616h-161a1.429,1.429,0,0,1-1.429-1.429V55.293a1.429,1.429,0,0,1,1.429-1.429h161a1.429,1.429,0,0,1,1.429,1.429v82.894A1.429,1.429,0,0,1,296.735,139.616Zm-159.567-2.859H295.306V56.723H137.169Z" transform="translate(-134.31 -53.864)" fill="#333"></path>
          </g>
        </g>
        <g data-name="Group 6759" transform="translate(33.619 17.338)">
          <g data-name="Group 6758">
            <path data-name="Path 7142" d="M272.828,131.9H162.133a1.43,1.43,0,0,1-1.429-1.429V64.56a1.429,1.429,0,0,1,1.429-1.429H272.828a1.429,1.429,0,0,1,1.429,1.429v65.908A1.43,1.43,0,0,1,272.828,131.9Zm-109.265-2.859H271.4V65.99H163.563Z" transform="translate(-160.704 -63.131)" fill="#333"></path>
          </g>
        </g>
        <g data-name="Group 6761" transform="translate(50.581 37.776)">
          <g data-name="Group 6760">
            <path data-name="Path 7143" d="M209.721,94.885H179.934a1.43,1.43,0,0,1-1.429-1.429V86.009a1.429,1.429,0,0,1,1.429-1.429h29.787a1.429,1.429,0,0,1,1.429,1.429v7.447A1.43,1.43,0,0,1,209.721,94.885Zm-28.358-2.859h26.928V87.439H181.364Z" transform="translate(-178.505 -84.58)" fill="#333"></path>
          </g>
        </g>
        <g data-name="Group 6763" transform="translate(89.083 37.776)">
          <g data-name="Group 6762">
            <path data-name="Path 7144" d="M256.55,123.648H220.34a1.43,1.43,0,0,1-1.429-1.429V86.009a1.429,1.429,0,0,1,1.429-1.429H256.55a1.429,1.429,0,0,1,1.429,1.429v36.209A1.43,1.43,0,0,1,256.55,123.648Zm-34.78-2.859H255.12V87.439H221.77Z" transform="translate(-218.911 -84.58)" fill="#333"></path>
          </g>
        </g>
        <g data-name="Group 6765" transform="translate(50.581 51.956)">
          <g data-name="Group 6764">
            <path data-name="Path 7145" d="M209.721,109.765H179.934a1.429,1.429,0,0,1-1.429-1.429V100.89a1.429,1.429,0,0,1,1.429-1.429h29.787a1.429,1.429,0,0,1,1.429,1.429v7.446A1.429,1.429,0,0,1,209.721,109.765Zm-28.358-2.859h26.928V102.32H181.364Z" transform="translate(-178.505 -99.461)" fill="#333"></path>
          </g>
        </g>
        <g data-name="Group 6767" transform="translate(50.581 66.135)">
          <g data-name="Group 6766" transform="translate(0 0)">
            <path data-name="Path 7146" d="M209.721,124.647H179.934a1.43,1.43,0,0,1-1.429-1.429v-7.447a1.429,1.429,0,0,1,1.429-1.429h29.787a1.429,1.429,0,0,1,1.429,1.429v7.447A1.43,1.43,0,0,1,209.721,124.647Zm-28.358-2.859h26.928V117.2H181.364Z" transform="translate(-178.505 -114.342)" fill="#333"></path>
          </g>
        </g>
        <g data-name="Group 6769" transform="translate(33.471 30.012)">
          <g data-name="Group 6768">
            <path data-name="Path 7147" d="M272.247,79.291H161.977a1.429,1.429,0,1,1,0-2.859h110.27a1.429,1.429,0,0,1,0,2.859Z" transform="translate(-160.548 -76.432)" fill="#333"></path>
          </g>
        </g>
        <g data-name="Group 6771" transform="translate(50.106 23.991)">
          <g data-name="Group 6770">
            <path data-name="Path 7148" d="M256.592,72.973H179.435a1.429,1.429,0,0,1,0-2.859h77.157a1.429,1.429,0,1,1,0,2.859Z" transform="translate(-178.006 -70.114)" fill="#333"></path>
          </g>
        </g>
        <g data-name="Group 6773" transform="translate(44.987 23.995)">
          <g data-name="Group 6772">
            <circle data-name="Ellipse 88" cx="1.426" cy="1.426" r="1.426" fill="#333"></circle>
          </g>
        </g>
        <g data-name="Group 6775" transform="translate(40.867 23.995)">
          <g data-name="Group 6774">
            <circle data-name="Ellipse 89" cx="1.426" cy="1.426" r="1.426" fill="#333"></circle>
          </g>
        </g>
        <g data-name="Group 6777" transform="translate(99.221 49.974)">
          <g data-name="Group 6776">
            <path data-name="Path 7149" d="M234.623,112.282a1.428,1.428,0,0,1-.988-.4l-3.644-3.486a1.429,1.429,0,1,1,1.976-2.066l2.646,2.532,11.37-11.078a1.43,1.43,0,1,1,2,2.048l-12.358,12.041A1.424,1.424,0,0,1,234.623,112.282Z" transform="translate(-229.55 -97.381)" fill="#333"></path>
          </g>
        </g>
      </g>
    </g>
  </g>
</svg>