<svg xmlns="http://www.w3.org/2000/svg" width="250" height="135" viewBox="0 0 250 135"><g data-name="Layer 2"><path d="M249.4,132.33H.6a.6.6,0,0,0-.6.6.59.59,0,0,0,.6.59H249.4a.59.59,0,0,0,.6-.59A.6.6,0,0,0,249.4,132.33Z" style="fill:#9bc8ff"></path><path d="M39.89,101.28a.63.63,0,0,0-.66.57.62.62,0,0,0,.66.57H67.31a.62.62,0,0,0,.66-.57.63.63,0,0,0-.66-.57Z" style="fill:#9bc8ff"></path><path d="M2.15,59.46H52.94a.67.67,0,0,0,.67-.67V20.27a.66.66,0,0,0-.67-.66H2.06a.66.66,0,0,0-.67.66.67.67,0,0,0,.67.67H52.27V58.12H2.15a.67.67,0,0,0,0,1.34Z" style="fill:#9bc8ff"></path><path d="M2.15,16.91H56.31V62.16H2.15a.67.67,0,0,0,0,1.34H57a.67.67,0,0,0,.67-.67V16.24a.67.67,0,0,0-.67-.67H2.15a.67.67,0,0,0,0,1.34Z" style="fill:#9bc8ff"></path><path d="M2.15,48.25a.67.67,0,1,0,0,1.34H44.47a.67.67,0,0,0,.67-.67V30.14a.67.67,0,0,0-.67-.66H2.15a.67.67,0,1,0,0,1.33H43.8V48.25Z" style="fill:#9bc8ff"></path><path d="M20.63,1l.12,0Z" style="fill:#9bc8ff"></path><path d="M20.88,1a.53.53,0,0,1,.12,0A.53.53,0,0,0,20.88,1Z" style="fill:#9bc8ff"></path><path d="M21.21,2.16l-.46.41,12.13,11.2a.67.67,0,0,0,.91-1L21.21,1.17l-.1,0a.43.43,0,0,1,.13.09A.68.68,0,0,1,21.21,2.16Z" style="fill:#9bc8ff"></path><path d="M20.39,1.12a.34.34,0,0,1,.11-.07Z" style="fill:#9bc8ff"></path><path d="M20.26,1.21a.6.6,0,0,1,.13-.09l-.09,0L7.72,12.78a.67.67,0,0,0,.9,1L20.75,2.57l-.45-.41A.68.68,0,0,1,20.26,1.21Z" style="fill:#9bc8ff"></path><path d="M20.63,1a.5.5,0,0,0-.13,0A.5.5,0,0,1,20.63,1Z" style="fill:#9bc8ff"></path><path d="M20.75,1l.13,0Z" style="fill:#9bc8ff"></path><path d="M21,1.05a.26.26,0,0,1,.11.07A.41.41,0,0,0,21,1.05Z" style="fill:#9bc8ff"></path><path d="M20.39,1.12a.6.6,0,0,0-.13.09.68.68,0,0,0,0,1l.45.41.46-.41a.68.68,0,0,0,0-1,.43.43,0,0,0-.13-.09A.26.26,0,0,0,21,1.05a.53.53,0,0,0-.12,0l-.13,0-.12,0a.5.5,0,0,0-.13,0A.34.34,0,0,0,20.39,1.12Z" style="fill:#9bc8ff"></path><path d="M2.11,119h15.1a.67.67,0,0,0,.67-.67V69.51a.67.67,0,0,0-.67-.67H2.11a.67.67,0,0,0-.67.67V118.3A.67.67,0,0,0,2.11,119ZM16.54,70.18v47.45H2.77V70.18Z" style="fill:#9bc8ff"></path><path d="M9.66,107.82A3.18,3.18,0,1,0,12.84,111,3.18,3.18,0,0,0,9.66,107.82Zm0,5A1.84,1.84,0,1,1,11.5,111,1.84,1.84,0,0,1,9.66,112.84Z" style="fill:#9bc8ff"></path><path d="M13.25,100.52H6.06a.67.67,0,1,0,0,1.34h7.19a.67.67,0,0,0,0-1.34Z" style="fill:#9bc8ff"></path><path d="M11.9,104.51a.66.66,0,0,0,.67-.66.67.67,0,0,0-.67-.67H7.41a.67.67,0,0,0-.67.67.66.66,0,0,0,.67.66Z" style="fill:#9bc8ff"></path><path d="M20.75,119h15.1a.67.67,0,0,0,.67-.67V69.51a.67.67,0,0,0-.67-.67H20.75a.67.67,0,0,0-.67.67V118.3A.67.67,0,0,0,20.75,119ZM35.19,70.18v47.45H21.42V70.18Z" style="fill:#9bc8ff"></path><path d="M28.3,107.82A3.18,3.18,0,1,0,31.48,111,3.18,3.18,0,0,0,28.3,107.82Zm0,5A1.84,1.84,0,1,1,30.14,111,1.84,1.84,0,0,1,28.3,112.84Z" style="fill:#9bc8ff"></path><path d="M31.9,100.52H24.71a.67.67,0,0,0,0,1.34H31.9a.67.67,0,0,0,0-1.34Z" style="fill:#9bc8ff"></path><path d="M30.55,104.51a.66.66,0,0,0,.67-.66.67.67,0,0,0-.67-.67H26.06a.67.67,0,0,0-.67.67.66.66,0,0,0,.67.66Z" style="fill:#9bc8ff"></path><path d="M181.84,53.86a.6.6,0,1,0,0,1.19H245a.6.6,0,1,0,0-1.19Z" style="fill:#9bc8ff"></path><path d="M179.32,49H245a.64.64,0,0,0,.68-.6.63.63,0,0,0-.68-.59H179.32a.63.63,0,0,0-.68.59A.64.64,0,0,0,179.32,49Z" style="fill:#9bc8ff"></path><path d="M199.34,11.8h-4.1A2.27,2.27,0,0,0,193,14.06V43.89a2.27,2.27,0,0,0,2.27,2.26h4.1a2.26,2.26,0,0,0,2.26-2.26V14.06A2.26,2.26,0,0,0,199.34,11.8Zm.93,32.09a.94.94,0,0,1-.93.94h-4.1a.94.94,0,0,1-.94-.94V14.06a.94.94,0,0,1,.94-.93h4.1a.93.93,0,0,1,.93.93Z" style="fill:#9bc8ff"></path><path d="M198.62,26.8H196a.66.66,0,1,0,0,1.32h2.67a.66.66,0,0,0,0-1.32Z" style="fill:#9bc8ff"></path><path d="M198.62,29.78H196a.67.67,0,0,0,0,1.33h2.67a.67.67,0,0,0,0-1.33Z" style="fill:#9bc8ff"></path><path d="M220.73,42,212,13.46a2.25,2.25,0,0,0-2.82-1.5l-3.92,1.2a2.25,2.25,0,0,0-1.5,2.82l8.73,28.52a2.27,2.27,0,0,0,2.82,1.5l3.92-1.2A2.26,2.26,0,0,0,220.73,42Zm-1.89,1.56-3.91,1.2a.94.94,0,0,1-1.17-.62L205,15.59a.94.94,0,0,1,.62-1.17l3.92-1.2a.94.94,0,0,1,1.17.62l8.74,28.52A.94.94,0,0,1,218.84,43.53Z" style="fill:#9bc8ff"></path><path d="M213.71,26.94a.66.66,0,0,0-.83-.44l-2.55.78a.66.66,0,1,0,.39,1.27l2.55-.78A.66.66,0,0,0,213.71,26.94Z" style="fill:#9bc8ff"></path><path d="M213.76,29.36l-2.56.78a.66.66,0,0,0-.43.83.65.65,0,0,0,.82.43l2.55-.78a.66.66,0,0,0-.38-1.26Z" style="fill:#9bc8ff"></path><path d="M189.26,11.8h-4.1a2.26,2.26,0,0,0-2.26,2.26V43.89a2.26,2.26,0,0,0,2.26,2.26h4.1a2.26,2.26,0,0,0,2.26-2.26V14.06A2.26,2.26,0,0,0,189.26,11.8Zm.94,32.09a.94.94,0,0,1-.94.94h-4.1a.94.94,0,0,1-.94-.94V14.06a.94.94,0,0,1,.94-.93h4.1a.94.94,0,0,1,.94.93Z" style="fill:#9bc8ff"></path><path d="M188.54,26.8h-2.67a.66.66,0,1,0,0,1.32h2.67a.66.66,0,1,0,0-1.32Z" style="fill:#9bc8ff"></path><path d="M188.54,29.78h-2.67a.67.67,0,0,0,0,1.33h2.67a.67.67,0,1,0,0-1.33Z" style="fill:#9bc8ff"></path><path d="M169.17,11.8h-4.09a2.27,2.27,0,0,0-2.27,2.26V43.89a2.27,2.27,0,0,0,2.27,2.26h4.09a2.27,2.27,0,0,0,2.27-2.26V14.06A2.27,2.27,0,0,0,169.17,11.8Zm.94,32.09a.94.94,0,0,1-.94.94h-4.09a.94.94,0,0,1-.94-.94V14.06a.94.94,0,0,1,.94-.93h4.09a.94.94,0,0,1,.94.93Z" style="fill:#9bc8ff"></path><path d="M179.18,11.8h-4.1a2.26,2.26,0,0,0-2.26,2.26V43.89a2.26,2.26,0,0,0,2.26,2.26h4.1a2.26,2.26,0,0,0,2.26-2.26V14.06A2.26,2.26,0,0,0,179.18,11.8Zm.94,32.09a.94.94,0,0,1-.94.94h-4.1a.94.94,0,0,1-.93-.94V14.06a.93.93,0,0,1,.93-.93h4.1a.94.94,0,0,1,.94.93Z" style="fill:#9bc8ff"></path><path d="M168.46,26.8h-2.67a.66.66,0,1,0,0,1.32h2.67a.66.66,0,0,0,0-1.32Z" style="fill:#9bc8ff"></path><path d="M168.46,29.78h-2.67a.67.67,0,0,0,0,1.33h2.67a.67.67,0,0,0,0-1.33Z" style="fill:#9bc8ff"></path><path d="M178.47,26.8H175.8a.66.66,0,0,0,0,1.32h2.67a.66.66,0,0,0,0-1.32Z" style="fill:#9bc8ff"></path><path d="M178.47,29.78H175.8a.67.67,0,0,0,0,1.33h2.67a.67.67,0,0,0,0-1.33Z" style="fill:#9bc8ff"></path><path d="M194.1,101.28H181.65a.63.63,0,0,0-.66.57.62.62,0,0,0,.66.57H194.1a.61.61,0,0,0,.65-.57A.62.62,0,0,0,194.1,101.28Z" style="fill:#9bc8ff"></path><path d="M223.82,101.44h-3.33a.68.68,0,0,0,0,1.36h3.33a.68.68,0,0,0,0-1.36Z" style="fill:#9bc8ff"></path><path d="M245,102.53a.63.63,0,0,0,0-1.25H230.22a.63.63,0,1,0,0,1.25Z" style="fill:#9bc8ff"></path><path d="M219.14,93.64a.67.67,0,0,0-.66-.66H198a.66.66,0,0,0-.66.66v14.82a7.08,7.08,0,0,0,7.08,7.08h7.66a7.09,7.09,0,0,0,7.09-7.08Zm-7.09,20.58h-7.66a5.76,5.76,0,0,1-5.76-5.76V94.3h19.19v14.16A5.76,5.76,0,0,1,212.05,114.22Z" style="fill:#9bc8ff"></path><path d="M222.14,107.86a5.78,5.78,0,0,0,0-11.55h-1.65a.68.68,0,0,0,0,1.36h1.65a4.42,4.42,0,0,1,0,8.83h-1.65a.68.68,0,0,0,0,1.36Z" style="fill:#9bc8ff"></path><path d="M218.48,116.74H198a.66.66,0,1,0,0,1.31h20.51a.66.66,0,1,0,0-1.31Z" style="fill:#9bc8ff"></path><path d="M124.31,8.94a.65.65,0,0,0-.65.65v11l-6,6.52a.65.65,0,0,0,1,.88l6.17-6.7a.66.66,0,0,0,.17-.44V9.59A.65.65,0,0,0,124.31,8.94Z" style="fill:#9bc8ff"></path><path d="M124.31,5.53a15.28,15.28,0,1,0,15.28,15.28A15.28,15.28,0,0,0,124.31,5.53Zm0,29.26a14,14,0,1,1,14-14A14,14,0,0,1,124.31,34.79Z" style="fill:#9bc8ff"></path><path d="M124.31,2.21a18.6,18.6,0,1,0,18.6,18.6A18.6,18.6,0,0,0,124.31,2.21Zm0,35.9a17.31,17.31,0,1,1,17.3-17.3A17.3,17.3,0,0,1,124.31,38.11Z" style="fill:#9bc8ff"></path><path d="M244.89,26.71H226.06a.66.66,0,0,0-.67.66v5.74a.67.67,0,0,0,.67.67h1.13l1.52,11.52a.66.66,0,0,0,1.31-.17l-1.49-11.35h14.09l-1.5,11.35a.66.66,0,0,0,.57.74.65.65,0,0,0,.74-.57L244,33.78h.94a.66.66,0,0,0,.66-.67V27.37A.65.65,0,0,0,244.89,26.71Zm-.56,5.77H226.82V28.06h17.51Z" style="fill:#9bc8ff"></path><path d="M244.13,14.45a.66.66,0,0,0-.46-.47,7,7,0,0,0-6.73,1.79,6.84,6.84,0,0,0-.7.83c0-.28,0-.66,0-1.24V7.92a.66.66,0,1,0-1.32,0v3.35a6.2,6.2,0,0,0-.71-.84,6.93,6.93,0,0,0-6.72-1.79.67.67,0,0,0-.47.47,6.93,6.93,0,0,0,1.79,6.72,7.23,7.23,0,0,0,6.13,1.91h0V25a.66.66,0,1,0,1.32,0V23.08a6.92,6.92,0,0,0,7.9-8.63Zm-14.39.45a5.61,5.61,0,0,1-1.54-5.07,5.61,5.61,0,0,1,6.7,5.76h0L232,12.66a.66.66,0,1,0-.94.94L234,16.53A5.58,5.58,0,0,1,229.74,14.9Zm11.67,5.34a5.64,5.64,0,0,1-4.23,1.63l2.93-2.93a.66.66,0,0,0-.94-.94l-2.92,2.93a5.61,5.61,0,0,1,6.69-5.76A5.63,5.63,0,0,1,241.41,20.24Z" style="fill:#9bc8ff"></path></g><g data-name="Layer 3"><path d="M71.81,108.89v2.76h53.44L124,108.89,97.26,49.49H76.43c-5.1,0-4.62,4.62-4.62,4.62Z" style="fill:#70b0ff"></path><path d="M73.57,114.69c-4.38,0-4.2-1.3-4.8-2.2a6.24,6.24,0,0,1-.35-.84H62.9a7.59,7.59,0,0,0,.58,3c1.81,4.14,7.16,4.24,7.16,4.24H176.76c5.45,0,7.72-2.24,8.66-4.24Z" style="fill:#70b0ff"></path></g><g data-name="Layer 4"><path d="M137.23,75.33a7.41,7.41,0,0,0-1.15-.43,8.41,8.41,0,0,0-1.15-.26,2.39,2.39,0,0,1-.94-.34.83.83,0,0,1-.41-.71.82.82,0,0,1,.35-.69,1.33,1.33,0,0,1,.82-.24,1.46,1.46,0,0,1,.81.21l.24.18a3.72,3.72,0,0,0,.34.26.76.76,0,0,0,.48.14,1.05,1.05,0,0,0,.83-.57,1.84,1.84,0,0,0,.4-.83c0-.1-.07-.29-.41-.6l-.06,0-.17-.15a2.87,2.87,0,0,0-.54-.3,4,4,0,0,0-.88-.3.1.1,0,0,1-.08-.1v-1a3.51,3.51,0,0,0,0-.65.6.6,0,0,0-.24-.37,1,1,0,0,0-.65-.18q-.69,0-.84.36a2.33,2.33,0,0,0-.1.83v1a.11.11,0,0,1-.08.1,3,3,0,0,0-1.8,1.06,2.89,2.89,0,0,0-.65,1.84,2.83,2.83,0,0,0,.48,1.7,2.57,2.57,0,0,0,1.15.93,9.59,9.59,0,0,0,1.41.45,7.86,7.86,0,0,1,1.21.39c.37.16.56.39.56.69,0,.54-.24,1.18-1.41,1.18a1.7,1.7,0,0,1-1.32-.71c-.55-.55-.86-.67-1-.67a1,1,0,0,0-.69.31c-.47.46-.57.72-.57.86a1.33,1.33,0,0,0,.35.77l.24.31a3.68,3.68,0,0,0,.78.63,3.9,3.9,0,0,0,1.28.51.1.1,0,0,1,.08.1v1.1A2.31,2.31,0,0,0,134,83a.45.45,0,0,0,.25.27,1.6,1.6,0,0,0,.55.08,1.62,1.62,0,0,0,.56-.08.53.53,0,0,0,.28-.29,2.18,2.18,0,0,0,.11-.82V81a.1.1,0,0,1,.07-.09,3.74,3.74,0,0,0,1.88-1.07,3,3,0,0,0,.77-2.14,3,3,0,0,0-.35-1.52A1.88,1.88,0,0,0,137.23,75.33Z" style="fill:#333"></path><path d="M147,75.33a7.17,7.17,0,0,0-1.16-.43,8.41,8.41,0,0,0-1.15-.26,2.28,2.28,0,0,1-.93-.34.83.83,0,0,1-.41-.71.8.8,0,0,1,.34-.69,1.35,1.35,0,0,1,.82-.24,1.49,1.49,0,0,1,.82.21l.24.18a2.54,2.54,0,0,0,.33.26.79.79,0,0,0,.49.14,1,1,0,0,0,.82-.57,1.84,1.84,0,0,0,.4-.83c0-.1-.07-.29-.41-.6l-.06,0-.17-.15a2.57,2.57,0,0,0-.54-.3,3.79,3.79,0,0,0-.88-.3.1.1,0,0,1-.08-.1v-1a5.1,5.1,0,0,0,0-.65.6.6,0,0,0-.24-.37,1,1,0,0,0-.65-.18c-.46,0-.75.12-.85.36a2.59,2.59,0,0,0-.1.83v1a.11.11,0,0,1-.08.1,3.09,3.09,0,0,0-1.71,1l-.09.1a2.89,2.89,0,0,0-.65,1.84,2.83,2.83,0,0,0,.48,1.7c.08.11.18.18.26.28a2.56,2.56,0,0,0,.9.65,9.87,9.87,0,0,0,1.4.45,8,8,0,0,1,1.22.39.75.75,0,0,1,.55.69c0,.54-.24,1.18-1.4,1.18a1.67,1.67,0,0,1-1.32-.71c-.56-.55-.87-.67-1-.67a.92.92,0,0,0-.32.07,1.26,1.26,0,0,0-.36.24c-.47.46-.57.72-.57.86a1.33,1.33,0,0,0,.35.77l.23.31a3,3,0,0,0,.35.32l.44.31a3.76,3.76,0,0,0,1.27.51.1.1,0,0,1,.08.1v1.1a2.35,2.35,0,0,0,.12.86.45.45,0,0,0,.25.27,1.66,1.66,0,0,0,.56.08,1.6,1.6,0,0,0,.55-.08.55.55,0,0,0,.29-.29,2.23,2.23,0,0,0,.1-.82V81a.09.09,0,0,1,.08-.09,3.82,3.82,0,0,0,1.88-1.07,3,3,0,0,0,.77-2.14,3,3,0,0,0-.35-1.52A1.93,1.93,0,0,0,147,75.33Z" style="fill:#333"></path><path d="M157.53,76.16h0a1.93,1.93,0,0,0-.85-.83,7.41,7.41,0,0,0-1.15-.43,8.53,8.53,0,0,0-1.16-.26,2.34,2.34,0,0,1-.93-.34.84.84,0,0,1-.07-1.4,1.37,1.37,0,0,1,.82-.24,1.49,1.49,0,0,1,.82.21,3,3,0,0,1,.24.18,3.72,3.72,0,0,0,.34.26.76.76,0,0,0,.48.14,1.07,1.07,0,0,0,.83-.57,1.84,1.84,0,0,0,.4-.83c0-.1-.08-.29-.41-.6l-.07,0-.16-.15a2.72,2.72,0,0,0-.55-.3,3.79,3.79,0,0,0-.88-.3.1.1,0,0,1-.07-.1v-1a4.71,4.71,0,0,0,0-.65.6.6,0,0,0-.24-.37,1,1,0,0,0-.65-.18q-.69,0-.84.36a2.33,2.33,0,0,0-.1.83v1a.12.12,0,0,1-.08.1,3,3,0,0,0-1.8,1.06.21.21,0,0,0,0,.06,3.08,3.08,0,0,0-.14,3.48l.14.14a2.48,2.48,0,0,0,1,.79,9.87,9.87,0,0,0,1.4.45A8,8,0,0,1,155,77c.37.16.56.39.56.69,0,.54-.25,1.18-1.41,1.18a1.7,1.7,0,0,1-1.32-.71c-.55-.55-.86-.67-1-.67a.83.83,0,0,0-.45.15,1.11,1.11,0,0,0-.24.16c-.47.46-.57.72-.57.86a1.33,1.33,0,0,0,.35.77l.23.31.23.21a4.49,4.49,0,0,0,.56.42,3.9,3.9,0,0,0,1.28.51.11.11,0,0,1,.08.1v1.1a2.59,2.59,0,0,0,.11.86.46.46,0,0,0,.26.27,1.6,1.6,0,0,0,.55.08,1.66,1.66,0,0,0,.56-.08.57.57,0,0,0,.28-.29,2.18,2.18,0,0,0,.11-.82V81a.1.1,0,0,1,.07-.09,3.85,3.85,0,0,0,1.88-1.07,3,3,0,0,0,.77-2.14A3,3,0,0,0,157.53,76.16Z" style="fill:#333"></path><path d="M71.81,108.16a1,1,0,0,0,1-1v-53a3.57,3.57,0,0,1,3.57-3.57h96.11a3.57,3.57,0,0,1,3.57,3.57v53a1,1,0,1,0,2.09,0v-53a5.66,5.66,0,0,0-5.66-5.67H76.43a5.66,5.66,0,0,0-5.66,5.67v53A1,1,0,0,0,71.81,108.16Z" style="fill:#333"></path><path d="M171.1,107.61a1,1,0,0,0,1.05-1V55a1,1,0,0,0-1.05-1.05H77.86a1,1,0,0,0-1,1.05v51.57a1,1,0,1,0,2.09,0V56h91.15v50.53A1,1,0,0,0,171.1,107.61Z" style="fill:#333"></path><path d="M125.7,62.58a1,1,0,0,0-1,1.05V99.86a1,1,0,0,0,1,1h37.67a1,1,0,0,0,1-1V63.63a1,1,0,0,0-1-1.05Zm36.62,36.23H126.75V64.67h35.57Z" style="fill:#333"></path><path d="M131.94,94.87h25.19a1,1,0,1,0,0-2.1H131.94a1.05,1.05,0,1,0,0,2.1Z" style="fill:#333"></path><path d="M157.13,88.82a1,1,0,1,0,0-2.09H131.94a1,1,0,1,0,0,2.09Z" style="fill:#333"></path><path d="M186.07,110.6H62.9a1,1,0,0,0-1,1.05A8.33,8.33,0,0,0,70.18,120H178.79a8.33,8.33,0,0,0,8.33-8.33A1,1,0,0,0,186.07,110.6Zm-7.28,7.28H70.18A6.24,6.24,0,0,1,64,112.7h47.89a3,3,0,0,0,2.85,2H134.2a3,3,0,0,0,2.84-2h47.89A6.23,6.23,0,0,1,178.79,117.88Z" style="fill:#333"></path><path d="M85.12,84.18a1,1,0,0,0-1.05,1V99.86a1,1,0,1,0,2.09,0V85.22A1,1,0,0,0,85.12,84.18Z" style="fill:#333"></path><path d="M93.18,78.43a1,1,0,0,0-1.05,1V99.86a1.05,1.05,0,1,0,2.1,0V79.48A1,1,0,0,0,93.18,78.43Z" style="fill:#333"></path><path d="M101.24,70.63a1,1,0,0,0-1,1.05V99.86a1,1,0,1,0,2.09,0V71.68A1,1,0,0,0,101.24,70.63Z" style="fill:#333"></path><path d="M109.31,76.55a1,1,0,0,0-1,1V99.86a1,1,0,0,0,2.1,0V77.59A1,1,0,0,0,109.31,76.55Z" style="fill:#333"></path><path d="M117.37,70.78a1,1,0,0,0-1.05,1v28a1.05,1.05,0,1,0,2.1,0v-28A1,1,0,0,0,117.37,70.78Z" style="fill:#333"></path><path d="M117.86,67.57l1-3.89a.66.66,0,0,0-.8-.8l-3.89,1a.65.65,0,0,0-.29,1.08l.68.68-2.5,2.51L109.34,71,102,63.65a1.06,1.06,0,0,0-1.48,0L84.37,79.83a1.06,1.06,0,0,0,0,1.48,1.05,1.05,0,0,0,1.49,0l15.43-15.43,7.31,7.31a1,1,0,0,0,1.48,0l2.73-2.73,3.29-3.28.68.68A.65.65,0,0,0,117.86,67.57Z" style="fill:#333"></path></g></svg>