<svg xmlns="http://www.w3.org/2000/svg" width="400" height="181.047" viewBox="0 0 400 181.047">
  <g data-name="Group 6534" transform="translate(491.027 -130.315)">
    <g transform="translate(-491.027 133.369)">
      <g data-name="Group 6482">
        <g data-name="Group 6424" transform="translate(1.07 176.061)">
          <path data-name="Path 6915" d="M-93.777,317.639H-488.953a.966.966,0,0,1-.966-.966.966.966,0,0,1,.966-.966H-93.777a.965.965,0,0,1,.966.966A.965.965,0,0,1-93.777,317.639Z" transform="translate(489.919 -315.707)" fill="#b1c0d8"></path>
        </g>
        <g data-name="Group 6425" transform="translate(1.07 158.497)">
          <path data-name="Path 6916" d="M-93.777,299.46H-488.953a.966.966,0,0,1-.966-.966.966.966,0,0,1,.966-.966H-93.777a.966.966,0,0,1,.966.966A.965.965,0,0,1-93.777,299.46Z" transform="translate(489.919 -297.528)" fill="#b1c0d8"></path>
        </g>
        <g data-name="Group 6426" transform="translate(0.322 41.872)">
          <path data-name="Path 6917" d="M-429.006,188.709h-60.722a.965.965,0,0,1-.966-.966.965.965,0,0,1,.966-.966h59.135l-4.143-8.03h-54.993a.965.965,0,0,1-.966-.966.966.966,0,0,1,.966-.966h55.581a.968.968,0,0,1,.859.523l5.14,9.962a.965.965,0,0,1-.034.946A.965.965,0,0,1-429.006,188.709Z" transform="translate(490.694 -176.815)" fill="#b1c0d8"></path>
        </g>
        <g data-name="Group 6427" transform="translate(0 63.721)">
          <path data-name="Path 6918" d="M-444.117,214.535h-45.944a.965.965,0,0,1-.966-.966.966.966,0,0,1,.966-.966h44.978v-11.24h-44.978a.966.966,0,0,1-.966-.966.965.965,0,0,1,.966-.966h45.944a.966.966,0,0,1,.966.966v13.172A.966.966,0,0,1-444.117,214.535Z" transform="translate(491.027 -199.43)" fill="#b1c0d8"></path>
        </g>
        <g data-name="Group 6428" transform="translate(0 90.386)">
          <path data-name="Path 6919" d="M-444.117,242.136h-45.944a.965.965,0,0,1-.966-.966.965.965,0,0,1,.966-.966h44.978V228.962h-44.978a.965.965,0,0,1-.966-.966.965.965,0,0,1,.966-.966h45.944a.966.966,0,0,1,.966.966v13.173A.966.966,0,0,1-444.117,242.136Z" transform="translate(491.027 -227.03)" fill="#b1c0d8"></path>
        </g>
        <g data-name="Group 6429" transform="translate(0 117.054)">
          <path data-name="Path 6920" d="M-444.117,269.737h-45.944a.966.966,0,0,1-.966-.966.965.965,0,0,1,.966-.966h44.978v-11.24h-44.978a.966.966,0,0,1-.966-.966.965.965,0,0,1,.966-.966h45.944a.966.966,0,0,1,.966.966V268.77A.966.966,0,0,1-444.117,269.737Z" transform="translate(491.027 -254.632)" fill="#b1c0d8"></path>
        </g>
        <g data-name="Group 6430" transform="translate(59.116 52.476)">
          <path data-name="Path 6921" d="M-428.873,289.321a.965.965,0,0,1-.966-.966v-99.6a.965.965,0,0,1,.966-.966.966.966,0,0,1,.966.966v99.6A.966.966,0,0,1-428.873,289.321Z" transform="translate(429.839 -187.791)" fill="#b1c0d8"></path>
        </g>
        <g data-name="Group 6431" transform="translate(26.025 29.344)">
          <path data-name="Path 6922" d="M-463.124,173.812a.965.965,0,0,1-.966-.966v-8.032a.965.965,0,0,1,.966-.966h36.947a.966.966,0,0,1,.966.966.967.967,0,0,1-.966.966h-35.981v7.065A.966.966,0,0,1-463.124,173.812Z" transform="translate(464.09 -163.848)" fill="#b1c0d8"></path>
        </g>
        <g data-name="Group 6433" transform="translate(68.646 132.155)">
          <g data-name="Group 6432">
            <path data-name="Path 6923" d="M-405.987,288.739H-419.06a.906.906,0,0,1-.915-.9V275.131a.876.876,0,0,1,.081-.367,8.238,8.238,0,0,1,7.421-4.5,8,8,0,0,1,7.327,4.519.869.869,0,0,1,.073.35v12.712A.9.9,0,0,1-405.987,288.739Zm-12.159-1.792H-406.9V275.333a6.192,6.192,0,0,0-5.572-3.278,6.416,6.416,0,0,0-5.673,3.289Z" transform="translate(419.975 -270.263)" fill="#b1c0d8"></path>
          </g>
        </g>
        <g data-name="Group 6435" transform="translate(91.935 132.155)">
          <g data-name="Group 6434">
            <path data-name="Path 6924" d="M-381.881,288.739h-13.075a.9.9,0,0,1-.914-.9V275.131a.875.875,0,0,1,.08-.367,8.241,8.241,0,0,1,7.422-4.5,8,8,0,0,1,7.327,4.518.878.878,0,0,1,.073.351v12.712A.9.9,0,0,1-381.881,288.739Zm-12.16-1.792H-382.8V275.333a6.2,6.2,0,0,0-5.573-3.278,6.419,6.419,0,0,0-5.673,3.289Z" transform="translate(395.87 -270.263)" fill="#b1c0d8"></path>
          </g>
        </g>
        <g data-name="Group 6437" transform="translate(115.224 132.155)">
          <g data-name="Group 6436">
            <path data-name="Path 6925" d="M-357.777,288.739H-370.85a.9.9,0,0,1-.915-.9V275.131a.891.891,0,0,1,.08-.367,8.241,8.241,0,0,1,7.422-4.5,8,8,0,0,1,7.327,4.519.87.87,0,0,1,.073.35v12.712A.906.906,0,0,1-357.777,288.739Zm-12.159-1.792h11.245V275.333a6.193,6.193,0,0,0-5.572-3.278,6.416,6.416,0,0,0-5.673,3.289Z" transform="translate(371.765 -270.263)" fill="#b1c0d8"></path>
          </g>
        </g>
        <g data-name="Group 6439" transform="translate(68.646 105.489)">
          <g data-name="Group 6438">
            <path data-name="Path 6926" d="M-405.987,261.138H-419.06a.905.905,0,0,1-.915-.9V247.53a.876.876,0,0,1,.081-.367,8.238,8.238,0,0,1,7.421-4.5,8,8,0,0,1,7.327,4.519.869.869,0,0,1,.073.35v12.712A.9.9,0,0,1-405.987,261.138Zm-12.159-1.792H-406.9V247.732a6.192,6.192,0,0,0-5.572-3.278,6.416,6.416,0,0,0-5.673,3.289Z" transform="translate(419.975 -242.662)" fill="#b1c0d8"></path>
          </g>
        </g>
        <g data-name="Group 6441" transform="translate(91.935 105.489)">
          <g data-name="Group 6440">
            <path data-name="Path 6927" d="M-381.881,261.138h-13.075a.9.9,0,0,1-.914-.9V247.53a.875.875,0,0,1,.08-.367,8.241,8.241,0,0,1,7.422-4.5,8,8,0,0,1,7.327,4.518.878.878,0,0,1,.073.351v12.712A.9.9,0,0,1-381.881,261.138Zm-12.16-1.792H-382.8V247.732a6.2,6.2,0,0,0-5.573-3.278,6.419,6.419,0,0,0-5.673,3.289Z" transform="translate(395.87 -242.662)" fill="#b1c0d8"></path>
          </g>
        </g>
        <g data-name="Group 6443" transform="translate(115.224 105.489)">
          <g data-name="Group 6442">
            <path data-name="Path 6928" d="M-357.777,261.138H-370.85a.9.9,0,0,1-.915-.9V247.53a.891.891,0,0,1,.08-.367,8.241,8.241,0,0,1,7.422-4.5,8,8,0,0,1,7.327,4.519.87.87,0,0,1,.073.35v12.712A.905.905,0,0,1-357.777,261.138Zm-12.159-1.792h11.245V247.732a6.193,6.193,0,0,0-5.572-3.278,6.416,6.416,0,0,0-5.673,3.289Z" transform="translate(371.765 -242.662)" fill="#b1c0d8"></path>
          </g>
        </g>
        <g data-name="Group 6445" transform="translate(68.646 79.466)">
          <g data-name="Group 6444">
            <path data-name="Path 6929" d="M-405.987,234.2H-419.06a.905.905,0,0,1-.915-.9V220.594a.88.88,0,0,1,.081-.367,8.238,8.238,0,0,1,7.421-4.5,8,8,0,0,1,7.327,4.518.869.869,0,0,1,.073.35v12.712A.9.9,0,0,1-405.987,234.2Zm-12.159-1.792H-406.9V220.8a6.191,6.191,0,0,0-5.572-3.279,6.416,6.416,0,0,0-5.673,3.289Z" transform="translate(419.975 -215.727)" fill="#b1c0d8"></path>
          </g>
        </g>
        <g data-name="Group 6447" transform="translate(91.935 79.466)">
          <g data-name="Group 6446">
            <path data-name="Path 6930" d="M-381.881,234.2h-13.075a.9.9,0,0,1-.914-.9V220.594a.879.879,0,0,1,.08-.367,8.241,8.241,0,0,1,7.422-4.5,8,8,0,0,1,7.327,4.517.878.878,0,0,1,.073.351v12.712A.9.9,0,0,1-381.881,234.2Zm-12.16-1.792H-382.8V220.8a6.2,6.2,0,0,0-5.573-3.279,6.419,6.419,0,0,0-5.673,3.289Z" transform="translate(395.87 -215.727)" fill="#b1c0d8"></path>
          </g>
        </g>
        <g data-name="Group 6449" transform="translate(68.646 53.763)">
          <g data-name="Group 6448">
            <path data-name="Path 6931" d="M-405.987,207.6H-419.06a.906.906,0,0,1-.915-.9V193.991a.876.876,0,0,1,.081-.367,8.238,8.238,0,0,1,7.421-4.5,8,8,0,0,1,7.327,4.519.869.869,0,0,1,.073.35V206.7A.9.9,0,0,1-405.987,207.6Zm-12.159-1.792H-406.9V194.193a6.192,6.192,0,0,0-5.572-3.278,6.416,6.416,0,0,0-5.673,3.289Z" transform="translate(419.975 -189.123)" fill="#b1c0d8"></path>
          </g>
        </g>
        <g data-name="Group 6450" transform="translate(115.224 79.617)">
          <path data-name="Path 6932" d="M-358.691,232.416h-11.245v-11.6a6.416,6.416,0,0,1,5.673-3.289c.1,0,.185.009.278.013l-1.89-1.653a8.291,8.291,0,0,0-5.81,4.35.894.894,0,0,0-.08.367v12.712a.905.905,0,0,0,.915.9h13.073a.905.905,0,0,0,.915-.9v-9.544l-1.829-1.6Z" transform="translate(371.765 -215.883)" fill="#b1c0d8"></path>
        </g>
        <g data-name="Group 6451" transform="translate(91.935 55.82)">
          <path data-name="Path 6933" d="M-382.8,205.879h-11.245v-11.6a6.621,6.621,0,0,1,1.526-1.823l-1.373-1.2a8.258,8.258,0,0,0-1.9,2.444.875.875,0,0,0-.08.367v12.711a.9.9,0,0,0,.914.9h13.075a.9.9,0,0,0,.914-.9v-4.218l-1.829-1.6Z" transform="translate(395.87 -191.252)" fill="#b1c0d8"></path>
        </g>
        <g data-name="Group 6452" transform="translate(148.754 125.728)">
          <path data-name="Path 6934" d="M-319.066,290.924h-17.028a.965.965,0,0,1-.966-.966V264.576a.966.966,0,0,1,.966-.966h5.782a.966.966,0,0,1,.966.966.965.965,0,0,1-.966.966h-4.816v23.449h15.1V276.464a.965.965,0,0,1,.966-.966.965.965,0,0,1,.966.966v13.494A.965.965,0,0,1-319.066,290.924Z" transform="translate(337.06 -263.61)" fill="#b1c0d8"></path>
        </g>
        <g data-name="Group 6459" transform="translate(167.342 14.888)">
          <g data-name="Group 6453" transform="translate(3.428 18.311)">
            <path data-name="Path 6935" d="M-250.977,169.771h-62.329a.965.965,0,0,1-.966-.966.965.965,0,0,1,.966-.966h62.329a.966.966,0,0,1,.966.966A.966.966,0,0,1-250.977,169.771Z" transform="translate(314.272 -167.839)" fill="#b1c0d8"></path>
          </g>
          <g data-name="Group 6454" transform="translate(8.568 26.985)">
            <path data-name="Path 6936" d="M-255.938,178.749h-52.048a.965.965,0,0,1-.966-.966.966.966,0,0,1,.966-.966h52.048a.966.966,0,0,1,.966.966A.965.965,0,0,1-255.938,178.749Z" transform="translate(308.952 -176.817)" fill="#b1c0d8"></path>
          </g>
          <g data-name="Group 6458">
            <g data-name="Group 6455">
              <path data-name="Path 6937" d="M-311.284,161.956a6.542,6.542,0,0,1-6.536-6.535,6.542,6.542,0,0,1,6.536-6.535,6.542,6.542,0,0,1,6.534,6.535A6.542,6.542,0,0,1-311.284,161.956Zm0-11.138a4.609,4.609,0,0,0-4.6,4.6,4.609,4.609,0,0,0,4.6,4.6,4.607,4.607,0,0,0,4.6-4.6A4.607,4.607,0,0,0-311.284,150.818Z" transform="translate(317.82 -148.886)" fill="#b1c0d8"></path>
            </g>
            <g data-name="Group 6456" transform="translate(29.023 0)">
              <path data-name="Path 6938" d="M-281.255,161.957a6.486,6.486,0,0,1-4.266-1.593,6.5,6.5,0,0,1-2.242-4.469,6.488,6.488,0,0,1,1.576-4.748,6.487,6.487,0,0,1,4.468-2.244,6.525,6.525,0,0,1,4.749,1.575,6.5,6.5,0,0,1,2.243,4.471A6.5,6.5,0,0,1-276.3,159.7h0a6.493,6.493,0,0,1-4.471,2.242C-280.934,161.95-281.1,161.957-281.255,161.957Zm.017-11.139c-.114,0-.227,0-.341.012a4.569,4.569,0,0,0-3.148,1.581,4.567,4.567,0,0,0-1.109,3.344,4.572,4.572,0,0,0,1.58,3.149,4.566,4.566,0,0,0,3.343,1.108,4.571,4.571,0,0,0,3.149-1.579h0a4.572,4.572,0,0,0,1.11-3.344,4.569,4.569,0,0,0-1.581-3.149A4.564,4.564,0,0,0-281.237,150.818Zm4.2,8.246h0Z" transform="translate(287.78 -148.886)" fill="#b1c0d8"></path>
            </g>
            <g data-name="Group 6457" transform="translate(58.045 0.003)">
              <path data-name="Path 6939" d="M-251.216,161.957a6.483,6.483,0,0,1-4.265-1.593,6.494,6.494,0,0,1-2.243-4.469,6.5,6.5,0,0,1,1.575-4.748,6.546,6.546,0,0,1,9.219-.67,6.5,6.5,0,0,1,2.242,4.471,6.488,6.488,0,0,1-1.576,4.748h0a6.489,6.489,0,0,1-4.469,2.242C-250.894,161.95-251.055,161.957-251.216,161.957Zm.014-11.136a4.6,4.6,0,0,0-3.487,1.589,4.575,4.575,0,0,0-1.108,3.344,4.569,4.569,0,0,0,1.581,3.148,4.555,4.555,0,0,0,3.344,1.109,4.575,4.575,0,0,0,3.148-1.579h0a4.571,4.571,0,0,0,1.109-3.344,4.568,4.568,0,0,0-1.58-3.149A4.579,4.579,0,0,0-251.2,150.821Z" transform="translate(257.741 -148.889)" fill="#b1c0d8"></path>
            </g>
          </g>
        </g>
        <g data-name="Group 6460" transform="translate(150.559)">
          <path data-name="Path 6940" d="M-233.327,142.049h-100.9a.966.966,0,0,1-.966-.966v-6.64a.965.965,0,0,1,.966-.966h100.9a.966.966,0,0,1,.966.966v6.64A.966.966,0,0,1-233.327,142.049Zm-99.932-1.932h98.966v-4.708h-98.966Z" transform="translate(335.191 -133.476)" fill="#b1c0d8"></path>
        </g>
        <g data-name="Group 6461" transform="translate(259.151 88.673)">
          <path data-name="Path 6941" d="M-150.7,236.4h-71.126a.966.966,0,0,1-.966-.966v-9.21a.966.966,0,0,1,.966-.966h70.911a.965.965,0,0,1,.966.966.966.966,0,0,1-.966.966h-69.945v7.278h70.16a.966.966,0,0,1,.966.966A.966.966,0,0,1-150.7,236.4Z" transform="translate(222.793 -225.257)" fill="#b1c0d8"></path>
        </g>
        <g data-name="Group 6462" transform="translate(138.151 111.806)">
          <path data-name="Path 6942" d="M-347.068,291.4a.965.965,0,0,1-.966-.966V250.166a.965.965,0,0,1,.966-.966.965.965,0,0,1,.966.966v40.268A.965.965,0,0,1-347.068,291.4Z" transform="translate(348.034 -249.2)" fill="#b1c0d8"></path>
        </g>
        <g data-name="Group 6463" transform="translate(215.259 143.719)">
          <path data-name="Path 6943" d="M-267.258,292.518a.965.965,0,0,1-.966-.966V283.2a.966.966,0,0,1,.966-.966.966.966,0,0,1,.966.966v8.354A.966.966,0,0,1-267.258,292.518Z" transform="translate(268.224 -282.232)" fill="#b1c0d8"></path>
        </g>
        <g data-name="Group 6464" transform="translate(228.753 133.224)">
          <path data-name="Path 6944" d="M-253.291,292.151a.965.965,0,0,1-.966-.966V272.335a.965.965,0,0,1,.966-.966.966.966,0,0,1,.966.966v18.849A.966.966,0,0,1-253.291,292.151Z" transform="translate(254.257 -271.369)" fill="#b1c0d8"></path>
        </g>
        <g data-name="Group 6465" transform="translate(155.654 7.068)">
          <path data-name="Path 6945" d="M-328.952,155.147a.966.966,0,0,1-.966-.966V141.758a.966.966,0,0,1,.966-.966.965.965,0,0,1,.966.966v12.423A.965.965,0,0,1-328.952,155.147Z" transform="translate(329.918 -140.792)" fill="#b1c0d8"></path>
        </g>
        <g data-name="Group 6466" transform="translate(246.255 7.068)">
          <path data-name="Path 6946" d="M-235.175,162.429a.965.965,0,0,1-.966-.966v-19.7a.965.965,0,0,1,.966-.966.966.966,0,0,1,.966.966v19.7A.966.966,0,0,1-235.175,162.429Z" transform="translate(236.141 -140.792)" fill="#b1c0d8"></path>
        </g>
        <g data-name="Group 6467" transform="translate(246.255 98.311)">
          <path data-name="Path 6947" d="M-235.175,290.927a.965.965,0,0,1-.966-.966V236.2a.966.966,0,0,1,.966-.966.966.966,0,0,1,.966.966v53.762A.966.966,0,0,1-235.175,290.927Z" transform="translate(236.141 -235.233)" fill="#b1c0d8"></path>
        </g>
        <g data-name="Group 6468" transform="translate(264.521 97.883)">
          <path data-name="Path 6948" d="M-216.269,290.912a.965.965,0,0,1-.966-.966v-54.19a.965.965,0,0,1,.966-.966.965.965,0,0,1,.966.966v54.19A.965.965,0,0,1-216.269,290.912Z" transform="translate(217.235 -234.79)" fill="#b1c0d8"></path>
        </g>
        <g data-name="Group 6469" transform="translate(335.203 38.767)">
          <path data-name="Path 6949" d="M-143.11,288.84a.965.965,0,0,1-.966-.966V174.568a.966.966,0,0,1,.966-.966h62.33a.966.966,0,0,1,.966.966.965.965,0,0,1-.966.966h-61.363v112.34A.965.965,0,0,1-143.11,288.84Z" transform="translate(144.076 -173.602)" fill="#b1c0d8"></path>
        </g>
        <g data-name="Group 6470" transform="translate(282.299 77.108)">
          <path data-name="Path 6950" d="M-149.889,215.218h-47.978a.966.966,0,0,1-.966-.966.966.966,0,0,1,.966-.966h47.978a.966.966,0,0,1,.966.966A.966.966,0,0,1-149.889,215.218Z" transform="translate(198.834 -213.286)" fill="#b1c0d8"></path>
        </g>
        <g data-name="Group 6471" transform="translate(294.187 64.897)">
          <path data-name="Path 6951" d="M-149.473,202.579h-36.091a.965.965,0,0,1-.966-.966.966.966,0,0,1,.966-.966h36.091a.966.966,0,0,1,.966.966A.966.966,0,0,1-149.473,202.579Z" transform="translate(186.53 -200.647)" fill="#b1c0d8"></path>
        </g>
        <g data-name="Group 6472" transform="translate(307.895 52.687)">
          <path data-name="Path 6952" d="M-148.992,189.942h-22.383a.966.966,0,0,1-.966-.966.965.965,0,0,1,.966-.966h22.383a.966.966,0,0,1,.966.966A.966.966,0,0,1-148.992,189.942Z" transform="translate(172.341 -188.01)" fill="#b1c0d8"></path>
        </g>
        <g data-name="Group 6473" transform="translate(345.485 48.834)">
          <path data-name="Path 6953" d="M-122.187,223.866h-10.281a.966.966,0,0,1-.966-.966V184.988a.966.966,0,0,1,.966-.966h10.281a.966.966,0,0,1,.966.966V222.9A.966.966,0,0,1-122.187,223.866Zm-9.315-1.932h8.348V185.954H-131.5Z" transform="translate(133.434 -184.022)" fill="#b1c0d8"></path>
        </g>
        <g data-name="Group 6474" transform="translate(365.94 48.834)">
          <path data-name="Path 6954" d="M-101.015,223.866H-111.3a.966.966,0,0,1-.966-.966V184.988a.966.966,0,0,1,.966-.966h10.281a.966.966,0,0,1,.966.966V222.9A.966.966,0,0,1-101.015,223.866Zm-9.315-1.932h8.348V185.954h-8.348Z" transform="translate(112.262 -184.022)" fill="#b1c0d8"></path>
        </g>
        <g data-name="Group 6475" transform="translate(386.395 48.834)">
          <path data-name="Path 6955" d="M-79.843,223.866H-90.124a.966.966,0,0,1-.966-.966V184.988a.966.966,0,0,1,.966-.966h10.281a.966.966,0,0,1,.966.966V222.9A.966.966,0,0,1-79.843,223.866Zm-9.315-1.932h8.348V185.954h-8.348Z" transform="translate(91.09 -184.022)" fill="#b1c0d8"></path>
        </g>
        <g data-name="Group 6476" transform="translate(345.485 103.452)">
          <path data-name="Path 6956" d="M-122.187,280.4h-10.281a.965.965,0,0,1-.966-.966V241.52a.965.965,0,0,1,.966-.966h10.281a.965.965,0,0,1,.966.966v37.911A.965.965,0,0,1-122.187,280.4Zm-9.315-1.932h8.348V242.486H-131.5Z" transform="translate(133.434 -240.554)" fill="#b1c0d8"></path>
        </g>
        <g data-name="Group 6477" transform="translate(365.94 103.452)">
          <path data-name="Path 6957" d="M-101.015,280.4H-111.3a.965.965,0,0,1-.966-.966V241.52a.965.965,0,0,1,.966-.966h10.281a.965.965,0,0,1,.966.966v37.911A.965.965,0,0,1-101.015,280.4Zm-9.315-1.932h8.348V242.486h-8.348Z" transform="translate(112.262 -240.554)" fill="#b1c0d8"></path>
        </g>
        <g data-name="Group 6478" transform="translate(386.395 103.452)">
          <path data-name="Path 6958" d="M-79.843,280.4H-90.124a.965.965,0,0,1-.966-.966V241.52a.965.965,0,0,1,.966-.966h10.281a.965.965,0,0,1,.966.966v37.911A.965.965,0,0,1-79.843,280.4Zm-9.315-1.932h8.348V242.486h-8.348Z" transform="translate(91.09 -240.554)" fill="#b1c0d8"></path>
        </g>
        <g data-name="Group 6479" transform="translate(331.776 33.306)">
          <path data-name="Path 6959" d="M-80.686,169.881h-65.971a.966.966,0,0,1-.966-.966.966.966,0,0,1,.966-.966h65.971a.966.966,0,0,1,.966.966A.966.966,0,0,1-80.686,169.881Z" transform="translate(147.623 -167.949)" fill="#b1c0d8"></path>
        </g>
        <g data-name="Group 6480" transform="translate(366.474 14.3)">
          <path data-name="Path 6960" d="M-110.742,168.466a.89.89,0,0,1-.174-.016.964.964,0,0,1-.777-1.124c.037-.2,4-20.193,32.584-19a.966.966,0,0,1,.925,1.006.963.963,0,0,1-1.006.925c-11.172-.472-20.025,2.42-25.572,8.356a20.156,20.156,0,0,0-5.031,9.059A.967.967,0,0,1-110.742,168.466Z" transform="translate(111.709 -148.277)" fill="#b1c0d8"></path>
        </g>
        <g data-name="Group 6481" transform="translate(285.619 119.412)">
          <path data-name="Path 6961" d="M-194.432,291.881a.966.966,0,0,1-.966-.966V268.66c.2-4.039,3.663-11.587,15.311-11.587h0c5.478,0,9.65,1.409,12.4,4.185a11.182,11.182,0,0,1,3.242,7.411v22.144a.965.965,0,0,1-.966.966.965.965,0,0,1-.966-.966V268.66a9.4,9.4,0,0,0-2.709-6.068c-2.373-2.379-6.072-3.585-11-3.586h0c-12.681,0-13.358,9.311-13.38,9.707v22.2A.966.966,0,0,1-194.432,291.881Z" transform="translate(195.398 -257.073)" fill="#b1c0d8"></path>
        </g>
      </g>
    </g>
    <g transform="translate(-444.708 132.36)">
      <g data-name="Group 6490">
        <g data-name="Group 6483">
          <path data-name="Path 6962" d="M-440.888,141.9c-1.713-1.285-5.14-8.568,3-9.21,5.462,0,12.209-.857,15.314.535s1.407.213,5.141,3.534c3.912,3.482,85.354,84.176,84.818,87.068,0,0-9,7.389-9.639,6.426s-13.815-17.028-13.815-17.028l-2.892-4.5s-2.248,1.285-3.534.963S-439.174,143.188-440.888,141.9Z" transform="translate(443.085 -132.432)" fill="#4569a0"></path>
        </g>
        <g data-name="Group 6484" transform="translate(138.206 68.801)">
          <path data-name="Path 6963" d="M-300.035,211.784a11.376,11.376,0,0,0,13.065,2.57c2.674-1.156,6.855-5.783,6.855-5.783l-2.356-4.926s-8.406,6.051-9.425,7.5S-300.035,211.784-300.035,211.784Z" transform="translate(300.035 -203.644)" fill="#4569a0"></path>
        </g>
        <g data-name="Group 6485" transform="translate(181.901 0.252)">
          <path data-name="Path 6964" d="M-142.146,141.484s-103.881,94.67-104.524,94.67-6.211-6-6.211-6l18.206-17.349s6.211-3.856-.214-10.282-19.919-16.706-19.919-16.706,6-3.427,11.566-6.211c2.784,6.426,17.135,16.921,17.135,16.921l61.9-59.115s4.694-3.992,9-4.5c3.641-.428,9.853-.428,13.28,1.713C-139.657,136.052-139.577,138.913-142.146,141.484Z" transform="translate(254.809 -132.693)" fill="#4569a0"></path>
        </g>
        <g data-name="Group 6486" transform="translate(126.659 127.488)">
          <path data-name="Path 6965" d="M-280.734,274.883c-.642-.428-11.995-10.5-11.995-10.5a42.641,42.641,0,0,1-6.639,7.283c-6.64,5.569-10.067,3.856-12.209,3.641-1.757-.176,2.57,4.712,4.926,4.5s6.426-3.64,6.426-3.64,5.14,7.5,7.5,8.781c3.246,1.771,7.711.215,7.711.215l2.784-3.641Z" transform="translate(311.987 -264.388)" fill="#4569a0"></path>
        </g>
        <g data-name="Group 6487" transform="translate(116.352 110.608)">
          <path data-name="Path 6966" d="M-322.648,262.726c-.214.642,4.554,3.39,9.21.642,13.065-7.711,17.349-14.993,16.537-16.213s1.883,2.505,1.454,4.861-8.41,8.941-8.353,9.425-9.638,7.068-9.638,7.068-1.354.782-4.284-.857A15.8,15.8,0,0,1-322.648,262.726Z" transform="translate(322.655 -246.916)" fill="#4569a0"></path>
        </g>
        <g data-name="Group 6488" transform="translate(106.935 103.285)">
          <path data-name="Path 6967" d="M-332.4,253.9a10.677,10.677,0,0,0,7.282-1.285c13.709-8.568,14.884-13.28,14.884-13.28s2.466,2.784,1.609,4.069-13.922,11.995-15.207,12.637-4.713,1.5-6.426.642A4.455,4.455,0,0,1-332.4,253.9Z" transform="translate(332.402 -239.337)" fill="#4569a0"></path>
        </g>
        <g data-name="Group 6489" transform="translate(98.582 97.074)">
          <path data-name="Path 6968" d="M-341.048,242.975s1.713,1.713,6.854-.643,11.352-9.424,11.352-9.424v3.641s-4.713,6.426-5.569,6.426-4.713,3.427-5.569,3.427-4.713-.857-4.713-.857Z" transform="translate(341.048 -232.908)" fill="#4569a0"></path>
        </g>
      </g>
    </g>
    <g transform="translate(-434.322 130.315)">
      <g data-name="Group 6533">
        <g data-name="Group 6517">
          <g data-name="Group 6492">
            <g data-name="Group 6491">
              <path data-name="Path 6969" d="M-361.082,211.321a7.223,7.223,0,0,1-5.109-2.272l-65.656-58.209a1.449,1.449,0,0,1-.123-2.045,1.45,1.45,0,0,1,2.046-.123l65.714,58.259a1.522,1.522,0,0,1,.119.118,4,4,0,0,0,5.775.261c4.237-3.372,32.423-27.566,32.707-27.809a6.131,6.131,0,0,0,2.273-3.745,4.754,4.754,0,0,0-1.528-3.594c-5.121-5.515-35.263-39.09-35.567-39.429a1.449,1.449,0,0,1,.111-2.046,1.449,1.449,0,0,1,2.046.11c.3.338,30.43,33.9,35.535,39.393a7.485,7.485,0,0,1,2.289,5.837,8.959,8.959,0,0,1-3.342,5.729c-1.09.94-28.438,24.417-32.719,27.821A7.26,7.26,0,0,1-361.082,211.321Z" transform="translate(432.335 -130.315)" fill="#333"></path>
            </g>
          </g>
          <g data-name="Group 6494" transform="translate(57.402 32.771)">
            <g data-name="Group 6493">
              <path data-name="Path 6970" d="M-371.471,196.263a1.449,1.449,0,0,1-1.11-.517,1.45,1.45,0,0,1,.178-2.042l34.7-29.129a1.45,1.45,0,0,1,2.041.177,1.45,1.45,0,0,1-.178,2.042l-34.7,29.129A1.445,1.445,0,0,1-371.471,196.263Z" transform="translate(372.92 -164.234)" fill="#333"></path>
            </g>
          </g>
          <g data-name="Group 6496" transform="translate(65.542 62.971)">
            <g data-name="Group 6495">
              <path data-name="Path 6971" d="M-359.405,205.674a5.1,5.1,0,0,1-5.091-5.09,5.1,5.1,0,0,1,5.091-5.092,5.1,5.1,0,0,1,5.09,5.092A5.1,5.1,0,0,1-359.405,205.674Zm0-7.283a2.2,2.2,0,0,0-2.192,2.193,2.194,2.194,0,0,0,2.192,2.191,2.193,2.193,0,0,0,2.191-2.191A2.195,2.195,0,0,0-359.405,198.391Z" transform="translate(364.496 -195.493)" fill="#333"></path>
            </g>
          </g>
          <g data-name="Group 6498" transform="translate(112.234 49.692)">
            <g data-name="Group 6497">
              <path data-name="Path 6972" d="M-295.656,188.717a1.439,1.439,0,0,1-.953-.358c-.625-.545-2.048-.505-4.2-.439a58.6,58.6,0,0,1-6.084-.064c-6.759-.466-8.843-3.549-9.059-3.9a1.448,1.448,0,0,1,.474-1.993,1.449,1.449,0,0,1,1.978.447c.065.09,1.645,2.2,6.806,2.554a55.486,55.486,0,0,0,5.8.057c2.735-.08,4.714-.141,6.194,1.155a1.448,1.448,0,0,1,.137,2.044A1.447,1.447,0,0,1-295.656,188.717Z" transform="translate(316.167 -181.749)" fill="#333"></path>
            </g>
          </g>
          <g data-name="Group 6500" transform="translate(146.932 74.537)">
            <g data-name="Group 6499">
              <path data-name="Path 6973" d="M-251.043,257.551c-.551,0-1.129-.023-1.743-.072a1.443,1.443,0,0,1-.986-.5c-1.247-1.455-5.054-5.475-5.093-5.516a1.449,1.449,0,0,1,.056-2.048,1.449,1.449,0,0,1,2.048.055c.144.153,3.249,3.431,4.782,5.158,3.864.2,6.371-.734,7.471-2.78,1.457-2.706.165-6.883-.527-7.775-1.079-1.379-21.389-21.159-34.778-34.118a1.449,1.449,0,0,1-.034-2.049,1.449,1.449,0,0,1,2.049-.034c3.428,3.318,33.532,32.469,35.051,34.423,1.122,1.443,3.006,6.813.791,10.927C-243.049,255.255-245.511,257.551-251.043,257.551Z" transform="translate(280.253 -207.465)" fill="#333"></path>
            </g>
          </g>
          <g data-name="Group 6502" transform="translate(155.286 121.659)">
            <g data-name="Group 6501">
              <path data-name="Path 6974" d="M-260.336,269.836a16.929,16.929,0,0,1-5.4-.94,1.445,1.445,0,0,1-.594-.417l-4.926-5.782a1.448,1.448,0,0,1,.163-2.042,1.448,1.448,0,0,1,2.043.162l4.664,5.476c1.212.376,5.442,1.484,8.109-.487,1.854-1.37,2.68-4.074,2.454-8.036a1.449,1.449,0,0,1,1.363-1.53,1.446,1.446,0,0,1,1.529,1.364c.287,5.008-.936,8.555-3.636,10.542A9.608,9.608,0,0,1-260.336,269.836Z" transform="translate(271.606 -256.238)" fill="#333"></path>
            </g>
          </g>
          <g data-name="Group 6504" transform="translate(142.863 131.512)">
            <g data-name="Group 6503">
              <path data-name="Path 6975" d="M-273.208,279.039a17.184,17.184,0,0,1-5.619-1.021,1.454,1.454,0,0,1-.478-.3l-4.712-4.5a1.45,1.45,0,0,1-.046-2.049,1.451,1.451,0,0,1,2.049-.047l4.486,4.284c1.089.363,5.448,1.631,8.111-.292,1.692-1.222,2.466-3.631,2.3-7.16a1.45,1.45,0,0,1,1.381-1.515,1.476,1.476,0,0,1,1.515,1.381c.211,4.575-.97,7.823-3.512,9.651A9.264,9.264,0,0,1-273.208,279.039Z" transform="translate(284.465 -266.437)" fill="#333"></path>
            </g>
          </g>
          <g data-name="Group 6506" transform="translate(133.01 140.295)">
            <g data-name="Group 6505">
              <path data-name="Path 6976" d="M-288.347,287.4a16.611,16.611,0,0,1-5.38-.937,1.449,1.449,0,0,1-.841-1.869,1.452,1.452,0,0,1,1.868-.842c.1.037,5.046,1.832,8.362-.267,1.837-1.163,2.905-3.4,3.175-6.637a1.455,1.455,0,0,1,1.565-1.324,1.45,1.45,0,0,1,1.324,1.565c-.35,4.2-1.873,7.181-4.527,8.854A10.308,10.308,0,0,1-288.347,287.4Z" transform="translate(294.663 -275.527)" fill="#333"></path>
            </g>
          </g>
          <g data-name="Group 6508" transform="translate(75.179 81.393)">
            <g data-name="Group 6507">
              <path data-name="Path 6977" d="M-343.86,228.381a1.443,1.443,0,0,1-1.108-.515l-9.211-10.923a1.448,1.448,0,0,1,.174-2.041,1.45,1.45,0,0,1,2.041.174L-342.752,226a1.449,1.449,0,0,1-.174,2.042A1.444,1.444,0,0,1-343.86,228.381Z" transform="translate(354.52 -214.56)" fill="#333"></path>
            </g>
          </g>
          <g data-name="Group 6510" transform="translate(85.781 92.641)">
            <g data-name="Group 6509">
              <path data-name="Path 6978" d="M-335.548,247.486a8.176,8.176,0,0,1-.932-.053,7.928,7.928,0,0,1-5.342-2.959,7.925,7.925,0,0,1-1.671-5.873,7.928,7.928,0,0,1,2.959-5.341l6.715-5.332a7.925,7.925,0,0,1,5.872-1.67,7.93,7.93,0,0,1,5.342,2.958,7.992,7.992,0,0,1-1.288,11.215h0l-6.715,5.331A7.91,7.91,0,0,1-335.548,247.486Zm6.674-18.384a5.032,5.032,0,0,0-3.144,1.1l-6.715,5.331a5.047,5.047,0,0,0-1.881,3.4,5.047,5.047,0,0,0,1.061,3.74,5.045,5.045,0,0,0,3.4,1.881,5.051,5.051,0,0,0,3.74-1.061l6.715-5.332a5.091,5.091,0,0,0,.82-7.143,5.049,5.049,0,0,0-3.4-1.881A5.4,5.4,0,0,0-328.874,229.1Zm4.08,10.193h0Z" transform="translate(343.547 -226.203)" fill="#333"></path>
            </g>
          </g>
          <g data-name="Group 6512" transform="translate(114.248 124.801)">
            <g data-name="Group 6511">
              <path data-name="Path 6979" d="M-306.08,280.773a8.173,8.173,0,0,1-.932-.053,7.93,7.93,0,0,1-5.343-2.959,7.992,7.992,0,0,1,1.288-11.214l6.716-5.332a7.922,7.922,0,0,1,5.872-1.67,7.93,7.93,0,0,1,5.342,2.958,7.993,7.993,0,0,1-1.288,11.215h0l-6.715,5.331A7.91,7.91,0,0,1-306.08,280.773Zm6.674-18.384a5.03,5.03,0,0,0-3.144,1.1l-6.715,5.331a5.09,5.09,0,0,0-.82,7.143,5.045,5.045,0,0,0,3.4,1.881,5.048,5.048,0,0,0,3.74-1.061l6.715-5.332a5.09,5.09,0,0,0,.819-7.142,5.046,5.046,0,0,0-3.4-1.882A5.393,5.393,0,0,0-299.406,262.389Zm4.079,10.193h0Z" transform="translate(314.083 -259.49)" fill="#333"></path>
            </g>
          </g>
          <g data-name="Group 6514" transform="translate(93.905 99.061)">
            <g data-name="Group 6513">
              <path data-name="Path 6980" d="M-326.787,258.388a7.97,7.97,0,0,1-.932-.054,7.917,7.917,0,0,1-5.342-2.958l-.353-.444a7.928,7.928,0,0,1-1.671-5.872,7.928,7.928,0,0,1,2.959-5.342l11.517-9.145a7.923,7.923,0,0,1,5.873-1.671,7.922,7.922,0,0,1,5.341,2.959l.353.444a7.923,7.923,0,0,1,1.671,5.872,7.922,7.922,0,0,1-2.959,5.342l-11.517,9.145A7.9,7.9,0,0,1-326.787,258.388Zm11.137-22.645a5.063,5.063,0,0,0-3.156,1.1l-11.517,9.145a5.045,5.045,0,0,0-1.881,3.4,5.047,5.047,0,0,0,1.061,3.74l.354.444a5.049,5.049,0,0,0,3.4,1.881,5.059,5.059,0,0,0,3.74-1.062l11.517-9.144h0a5.05,5.05,0,0,0,1.881-3.4,5.043,5.043,0,0,0-1.061-3.74l-.353-.444A5.076,5.076,0,0,0-315.65,235.743Z" transform="translate(335.138 -232.847)" fill="#333"></path>
            </g>
          </g>
          <g data-name="Group 6516" transform="translate(103.853 107.394)">
            <g data-name="Group 6515">
              <path data-name="Path 6981" d="M-315.586,269.743a8.208,8.208,0,0,1-.933-.053,7.928,7.928,0,0,1-5.341-2.959l-1.256-1.583a7.926,7.926,0,0,1-1.671-5.872,7.922,7.922,0,0,1,2.959-5.342L-308.31,243.2a7.992,7.992,0,0,1,11.214,1.288l1.257,1.583a7.93,7.93,0,0,1,1.671,5.873,7.928,7.928,0,0,1-2.959,5.342h0l-13.519,10.734A7.91,7.91,0,0,1-315.586,269.743Zm12.234-25.374a5.064,5.064,0,0,0-3.156,1.1L-320.027,256.2a5.045,5.045,0,0,0-1.881,3.4,5.047,5.047,0,0,0,1.061,3.74l1.256,1.583a5.045,5.045,0,0,0,3.4,1.881,5.052,5.052,0,0,0,3.74-1.061l13.519-10.735a5.045,5.045,0,0,0,1.881-3.4,5.045,5.045,0,0,0-1.061-3.74l-1.257-1.584A5.078,5.078,0,0,0-303.352,244.369Zm5.323,11.78h0Z" transform="translate(324.841 -241.473)" fill="#333"></path>
            </g>
          </g>
        </g>
        <g data-name="Group 6532" transform="translate(123.335 7.898)">
          <g data-name="Group 6519" transform="translate(58.991 71.726)">
            <g data-name="Group 6518">
              <path data-name="Path 6982" d="M-242.169,235.87a1.449,1.449,0,0,1-1.048-.448,1.45,1.45,0,0,1,.047-2.049l21.2-20.242a1.45,1.45,0,0,1,2.049.047,1.45,1.45,0,0,1-.046,2.049l-21.206,20.242A1.448,1.448,0,0,1-242.169,235.87Z" transform="translate(243.618 -212.73)" fill="#333"></path>
            </g>
          </g>
          <g data-name="Group 6521" transform="translate(0 44.116)">
            <g data-name="Group 6520">
              <path data-name="Path 6983" d="M-295.009,213.464c-3.948,0-6.739-1.121-8.313-3.342-2.95-4.163-.184-10.415-.065-10.68a1.446,1.446,0,0,1,.289-.421c2.894-2.931,12.547-12.55,15.3-13.238,1.666-.415,8.476-.232,17.915.073,4.183.136,8.139.263,9.356.206a4.854,4.854,0,0,0,3.575-1.358,1.468,1.468,0,0,1,2.022-.26,1.434,1.434,0,0,1,.3,1.99c-.172.239-1.808,2.335-5.761,2.523-1.338.067-5.158-.061-9.588-.2-6.259-.2-15.718-.507-17.117-.158-1.416.422-8.195,6.658-13.746,12.267-.638,1.562-1.683,5.379-.11,7.591,1.159,1.629,3.637,2.316,7.36,2.062a94.293,94.293,0,0,0,9.939-8.287,1.448,1.448,0,0,1,2.049,0,1.448,1.448,0,0,1,0,2.049A95.609,95.609,0,0,1-292.22,213.1a1.453,1.453,0,0,1-.727.27Q-294.024,213.464-295.009,213.464Z" transform="translate(304.677 -184.152)" fill="#333"></path>
            </g>
          </g>
          <g data-name="Group 6523" transform="translate(59.045)">
            <g data-name="Group 6522">
              <path data-name="Path 6984" d="M-213.567,207.258a6.572,6.572,0,0,1-3.834-1.243c-1.006-.871-23.075-20.058-25.039-22.241-2.092-2.326-.815-5.949.269-7.723a1.578,1.578,0,0,1,.113-.159c.076-.094,7.641-9.373,15.187-18.507,15.884-19.228,15.967-19.213,17.239-18.791a1.449,1.449,0,0,1,.916,1.833,1.447,1.447,0,0,1-.662.8c-1.991,1.824-19.124,22.62-30.364,36.409-.482.836-1.486,3.149-.543,4.2,1.528,1.7,18.28,16.34,24.672,21.9a3.439,3.439,0,0,0,4.037-.044c2.319-1.655,40.158-35.822,59.843-53.656a1.448,1.448,0,0,1,2.046.1,1.447,1.447,0,0,1-.1,2.046c-2.328,2.111-57.071,51.7-60.1,53.867A6.227,6.227,0,0,1-213.567,207.258Zm3.025-65.914a1.438,1.438,0,0,0,.371.071A1.437,1.437,0,0,1-210.542,141.344Zm0,0h0Z" transform="translate(243.562 -138.49)" fill="#333"></path>
            </g>
          </g>
          <g data-name="Group 6525" transform="translate(78.215 24.444)">
            <g data-name="Group 6524">
              <path data-name="Path 6985" d="M-197.855,187.466a1.439,1.439,0,0,1-.938-.346l-24.417-20.776a1.45,1.45,0,0,1-.165-2.043,1.45,1.45,0,0,1,2.042-.165l24.418,20.777a1.449,1.449,0,0,1,.165,2.042A1.448,1.448,0,0,1-197.855,187.466Z" transform="translate(223.72 -163.791)" fill="#333"></path>
            </g>
          </g>
          <g data-name="Group 6527" transform="translate(69.433 33.226)">
            <g data-name="Group 6526">
              <path data-name="Path 6986" d="M-231.361,184.347a1.447,1.447,0,0,1-1-.4,1.45,1.45,0,0,1-.053-2.049l8.14-8.568a1.449,1.449,0,0,1,2.049-.053,1.451,1.451,0,0,1,.053,2.049l-8.14,8.568A1.445,1.445,0,0,1-231.361,184.347Z" transform="translate(232.81 -172.881)" fill="#333"></path>
            </g>
          </g>
          <g data-name="Group 6529" transform="translate(77.251 39.865)">
            <g data-name="Group 6528">
              <path data-name="Path 6987" d="M-223.269,191.219a1.449,1.449,0,0,1-1-.4,1.45,1.45,0,0,1-.052-2.049l8.14-8.568a1.449,1.449,0,0,1,2.049-.053,1.45,1.45,0,0,1,.052,2.049l-8.14,8.568A1.441,1.441,0,0,1-223.269,191.219Z" transform="translate(224.719 -179.753)" fill="#333"></path>
            </g>
          </g>
          <g data-name="Group 6531" transform="translate(85.284 47.148)">
            <g data-name="Group 6530">
              <path data-name="Path 6988" d="M-214.955,198.756a1.447,1.447,0,0,1-1-.4,1.45,1.45,0,0,1-.053-2.049l8.139-8.567a1.449,1.449,0,0,1,2.049-.053,1.45,1.45,0,0,1,.053,2.049L-213.9,198.3A1.443,1.443,0,0,1-214.955,198.756Z" transform="translate(216.404 -187.291)" fill="#333"></path>
            </g>
          </g>
        </g>
      </g>
    </g>
  </g>
</svg>