<svg xmlns="http://www.w3.org/2000/svg" width="400" height="215.346" viewBox="0 0 400 215.346">
  <g data-name="Group 6106" transform="translate(-3.819 -10.656)">
    <g transform="translate(3.819 10.656)">
      <path data-name="Path 6538" d="M4.931,17.663a1.112,1.112,0,1,0,0,2.224h97.435a7.482,7.482,0,0,1,7.481,7.482v81.689a7.481,7.481,0,0,1-7.481,7.481H4.931a1.112,1.112,0,1,0,0,2.224h97.435a9.7,9.7,0,0,0,9.7-9.7V27.369a9.705,9.705,0,0,0-9.7-9.706Z" transform="translate(-3.819 -11.168)" fill="#b4bbc9"></path>
      <path data-name="Path 6539" d="M110.96,11.217H4.931a1.112,1.112,0,1,0,0,2.224H110.96a1.112,1.112,0,0,0,0-2.224Z" transform="translate(-3.819 -10.697)" fill="#b4bbc9"></path>
      <path data-name="Path 6540" d="M93.032,27.431H4.931a1.112,1.112,0,1,0,0,2.224h10v6.183h-10a1.112,1.112,0,1,0,0,2.224h10v5.632h-10a1.112,1.112,0,1,0,0,2.224h10v5.633h-10a1.112,1.112,0,1,0,0,2.224h10v5.632h-10a1.112,1.112,0,1,0,0,2.224h10v6.183h-10a1.112,1.112,0,1,0,0,2.224h88.1a1.112,1.112,0,0,0,1.112-1.112V28.543A1.112,1.112,0,0,0,93.032,27.431ZM28.266,53.775h8.887v5.632H28.266Zm0-7.857h8.887v5.633H28.266Zm0-7.856h8.887v5.632H28.266ZM91.92,43.694h-8.1V38.062h8.1Zm0,7.857h-8.1V45.918h8.1ZM39.376,45.918h8.887v5.633H39.376Zm11.111,0h8.888v5.633H50.487Zm11.112,0h8.887v5.633H61.6Zm11.111,0H81.6v5.633H72.71ZM81.6,43.694H72.71V38.062H81.6Zm-11.111,0H61.6V38.062h8.887Zm-11.111,0H50.487V38.062h8.888Zm-11.112,0H39.376V38.062h8.887ZM39.376,53.775h8.887v5.632H39.376Zm11.111,0h8.888v5.632H50.487Zm11.112,0h8.887v5.632H61.6Zm11.111,0H81.6v5.632H72.71Zm11.111,0h8.1v5.632h-8.1Zm8.1-17.937h-8.1V29.655h8.1Zm-10.323,0H72.71V29.655H81.6Zm-11.111,0H61.6V29.655h8.887Zm-11.111,0H50.487V29.655h8.888Zm-11.112,0H39.376V29.655h8.887Zm-11.111,0H28.266V29.655h8.887Zm-20-6.183h8.887v6.183H17.155Zm0,8.407h8.887v5.632H17.155Zm0,7.856h8.887v5.633H17.155Zm0,7.857h8.887v5.632H17.155Zm0,7.856h8.887v6.183H17.155Zm11.111,0h8.887v6.183H28.266Zm11.111,0h8.887v6.183H39.376Zm11.111,0h8.888v6.183H50.487Zm11.112,0h8.887v6.183H61.6Zm11.111,0H81.6v6.183H72.71Zm19.21,6.183h-8.1V61.631h8.1Z" transform="translate(-3.819 -11.881)" fill="#b4bbc9"></path>
      <path data-name="Path 6541" d="M4.931,109.531a1.112,1.112,0,1,0,0,2.224H38.265a1.112,1.112,0,0,0,1.111-1.111V84.015A1.112,1.112,0,0,0,38.265,82.9H4.931a1.112,1.112,0,1,0,0,2.224H37.153v24.4Z" transform="translate(-3.819 -15.931)" fill="#b4bbc9"></path>
      <path data-name="Path 6542" d="M75.985,196.249a4.2,4.2,0,0,0-4.776-3.527L58.662,194.61a20.64,20.64,0,1,0,1.163,8.316l-.308.046a1.112,1.112,0,1,1-.331-2.2l.665-.1a21.012,21.012,0,0,0-.21-2.175c-.089-.589-.207-1.166-.342-1.735l12.241-1.842a1.975,1.975,0,1,1,.587,3.905l-12.275,1.847a20.71,20.71,0,0,1-.026,2.253l12.632-1.9A4.2,4.2,0,0,0,75.985,196.249ZM41.974,219.777a18.413,18.413,0,1,1,15.469-20.948A18.414,18.414,0,0,1,41.974,219.777Z" transform="translate(-4.898 -23.088)" fill="#b4bbc9"></path>
      <path data-name="Path 6543" d="M62.974,202.228l-.665.1a1.112,1.112,0,1,0,.331,2.2l.308-.046A20.71,20.71,0,0,0,62.974,202.228Z" transform="translate(-8.02 -24.643)" fill="#b4bbc9"></path>
      <path data-name="Path 6544" d="M67.5,205.678a1.112,1.112,0,1,0-2.2.331l1.452,9.645a6.866,6.866,0,0,1-5.767,7.81l-37.411,5.629a6.865,6.865,0,0,1-7.81-5.767l-5.63-37.411a6.866,6.866,0,0,1,5.767-7.81l37.412-5.629a6.864,6.864,0,0,1,7.809,5.767l1.553,10.317a1.112,1.112,0,1,0,2.2-.331l-1.552-10.317a9.089,9.089,0,0,0-10.341-7.636l-37.411,5.63a9.088,9.088,0,0,0-7.635,10.34l5.63,37.411a9.087,9.087,0,0,0,10.34,7.635l37.411-5.629a9.089,9.089,0,0,0,7.635-10.34Z" transform="translate(-4.112 -22.303)" fill="#b4bbc9"></path>
      <g data-name="Group 6102" transform="translate(69.643 115.68)">
        <path data-name="Path 6545" d="M119.772,137.846a7.732,7.732,0,1,0,7.732,7.732A7.732,7.732,0,0,0,119.772,137.846Z" transform="translate(-81.363 -135.622)" fill="none"></path>
        <path data-name="Path 6546" d="M119.772,169.847a7.732,7.732,0,1,0,7.732,7.733A7.733,7.733,0,0,0,119.772,169.847Z" transform="translate(-81.363 -137.959)" fill="none"></path>
        <path data-name="Path 6547" d="M87.519,157.946a7.742,7.742,0,0,0,9.291-7.575,7.906,7.906,0,0,0-.077-1.1,7.733,7.733,0,1,0-9.214,8.677Z" transform="translate(-79.122 -135.972)" fill="none"></path>
        <path data-name="Path 6548" d="M86.9,159.95A9.965,9.965,0,0,0,98.86,150.2a10.112,10.112,0,0,0-.1-1.415A9.957,9.957,0,1,0,86.9,159.95ZM81.171,150.2a7.733,7.733,0,0,1,15.387-1.1,7.906,7.906,0,0,1,.077,1.1,7.732,7.732,0,1,1-15.464,0Z" transform="translate(-78.947 -135.797)" fill="none"></path>
        <path data-name="Path 6549" d="M96.71,166.2a7.7,7.7,0,0,1-5.445-2.243,1.112,1.112,0,1,0-1.567,1.579,9.956,9.956,0,0,0,14.894-13.151,1.112,1.112,0,1,0-1.759,1.36A7.734,7.734,0,0,1,96.71,166.2Z" transform="translate(-79.708 -136.652)" fill="#b4bbc9"></path>
        <path data-name="Path 6550" d="M119.6,135.447a9.956,9.956,0,1,0,9.956,9.956A9.956,9.956,0,0,0,119.6,135.447Zm0,17.688a7.732,7.732,0,1,1,7.732-7.732A7.732,7.732,0,0,1,119.6,153.135Z" transform="translate(-81.188 -135.447)" fill="#b4bbc9"></path>
        <path data-name="Path 6551" d="M119.6,167.448a9.956,9.956,0,1,0,9.956,9.957A9.957,9.957,0,0,0,119.6,167.448Zm0,17.689a7.732,7.732,0,1,1,7.732-7.732A7.733,7.733,0,0,1,119.6,185.137Z" transform="translate(-81.188 -137.783)" fill="#b4bbc9"></path>
      </g>
      <path data-name="Path 6552" d="M378.919,178.875a1.117,1.117,0,0,0,.435,2.19l1.7-.337-.436-2.19Z" transform="translate(-31.14 -22.913)" fill="#b4bbc9"></path>
      <g data-name="Group 6103" transform="translate(348.321 130.702)">
        <path data-name="Path 6553" d="M429.919,228.53,402.847,233.9a8.284,8.284,0,0,1-9.751-6.521l-.243-1.223,1.7-.337a1.117,1.117,0,1,0-.435-2.19l-1.7.337-1.464-7.375,1.7-.338a1.117,1.117,0,0,0-.435-2.19l-1.7.338-1.464-7.375,1.7-.338a1.117,1.117,0,0,0-.435-2.19l-1.7.338-1-5.02-.468-2.356,1.7-.337a1.117,1.117,0,1,0-.435-2.19l-1.7.337-1.464-7.375,1.7-.337a1.117,1.117,0,1,0-.435-2.19l-1.7.337-1.464-7.375,1.7-.338a1.117,1.117,0,1,0-.435-2.19l-1.7.338-.816-4.107-.141-.711a8.294,8.294,0,0,1,6.521-9.751l37.913-7.526a8.276,8.276,0,0,1,3.294.01,1.117,1.117,0,0,0,.453-2.187,10.513,10.513,0,0,0-4.182-.014l-37.913,7.526a10.527,10.527,0,0,0-8.277,12.376l.141.711.815,4.107.436,2.19,1.464,7.375-1.7.337a1.117,1.117,0,0,0,.435,2.19l1.7-.337,1.464,7.375-1.7.338a1.117,1.117,0,0,0,.435,2.19l1.7-.338.468,2.356,1,5.02-1.7.337a1.117,1.117,0,1,0,.435,2.19l1.7-.337,1.464,7.375-1.7.337a1.117,1.117,0,0,0,.436,2.19l1.7-.337,1.464,7.375-1.7.338a1.117,1.117,0,1,0,.435,2.19l1.7-.338.243,1.223a10.518,10.518,0,0,0,12.376,8.277l27.072-5.374a1.117,1.117,0,0,0-.435-2.19Z" transform="translate(-379.575 -151.652)" fill="#b4bbc9"></path>
        <path data-name="Path 6554" d="M421.9,193.645a1.117,1.117,0,0,0-.435-2.19l-14.278,2.834a1.117,1.117,0,0,0,.435,2.19Z" transform="translate(-381.525 -154.556)" fill="#b4bbc9"></path>
        <path data-name="Path 6555" d="M402.912,203.292a1.117,1.117,0,0,0,1.313.878l23.11-4.588a1.117,1.117,0,1,0-.435-2.19l-23.11,4.588A1.115,1.115,0,0,0,402.912,203.292Z" transform="translate(-381.277 -154.99)" fill="#b4bbc9"></path>
      </g>
      <g data-name="Group 6104" transform="translate(298.183)">
        <path data-name="Path 6556" d="M426.842,16.351a.926.926,0,0,0-1.3.164L386.864,66.4l-60.106-19.27a.926.926,0,0,0-1.167,1.155l17.063,55.069a.927.927,0,0,0,1.159.61l82.616-25.6a.925.925,0,1,0-.548-1.768l-81.733,25.325L327.885,49.43l59.031,18.925a.927.927,0,0,0,1.014-.314l39.076-50.392A.925.925,0,0,0,426.842,16.351Z" transform="translate(-325.491 -11.058)" fill="#b4bbc9"></path>
        <path data-name="Path 6557" d="M422.465,10.7a.925.925,0,0,0-.61,1.159l1.5,4.835a.925.925,0,1,0,1.768-.549l-1.5-4.835A.926.926,0,0,0,422.465,10.7Z" transform="translate(-332.52 -10.656)" fill="#b4bbc9"></path>
        <path data-name="Path 6558" d="M332.916,42.536a.925.925,0,1,0,1.768-.548l-7.113-22.957,21.188-6.566a.925.925,0,1,0-.547-1.768l-22.073,6.84a.925.925,0,0,0-.61,1.158Z" transform="translate(-325.487 -10.656)" fill="#b4bbc9"></path>
        <path data-name="Path 6559" d="M380.63,10.7,340.423,23.156a.925.925,0,0,0,.548,1.768l40.207-12.459a.925.925,0,0,0-.548-1.768Z" transform="translate(-326.53 -10.656)" fill="#b4bbc9"></path>
        <path data-name="Path 6560" d="M407.3,14.521a.926.926,0,0,0-1.158-.61L343.719,33.252a.925.925,0,0,0,.548,1.768l62.419-19.341A.925.925,0,0,0,407.3,14.521Z" transform="translate(-326.771 -10.891)" fill="#b4bbc9"></path>
        <path data-name="Path 6561" d="M410.592,25.159a.927.927,0,0,0-1.158-.61L347.016,43.889a.926.926,0,1,0,.548,1.769l62.418-19.341A.927.927,0,0,0,410.592,25.159Z" transform="translate(-327.011 -11.667)" fill="#b4bbc9"></path>
        <path data-name="Path 6562" d="M400.754,40.563a.925.925,0,0,0-1.158-.61l-33.9,10.506a.925.925,0,0,0,.548,1.768l33.9-10.506A.926.926,0,0,0,400.754,40.563Z" transform="translate(-328.375 -12.792)" fill="#b4bbc9"></path>
      </g>
      <g data-name="Group 6105" transform="translate(279.905 110.372)">
        <path data-name="Path 6563" d="M354.06,143.059l-6.738-2.785a1.116,1.116,0,0,0-.853,2.063l6.738,2.786a1.117,1.117,0,0,0,.853-2.064Z" transform="translate(-308.69 -130.485)" fill="#b4bbc9"></path>
        <path data-name="Path 6564" d="M324.795,204.1a4.7,4.7,0,1,0-2.551-6.145A4.7,4.7,0,0,0,324.795,204.1Zm-.487-5.292a2.472,2.472,0,1,1,1.34,3.229A2.471,2.471,0,0,1,324.308,198.81Z" transform="translate(-306.946 -134.491)" fill="#b4bbc9"></path>
        <path data-name="Path 6565" d="M361.365,139.548l-22.267-9.2a8.192,8.192,0,0,0-10.7,4.441l-2.289,5.539h0l-19.714,47.7a8.192,8.192,0,0,0,4.441,10.7l22.267,9.2a8.192,8.192,0,0,0,10.7-4.442l3.363-8.135h0l18.642-45.1A8.194,8.194,0,0,0,361.365,139.548Zm-19.626,63.083a5.96,5.96,0,0,1-7.784,3.231l-22.267-9.2a5.96,5.96,0,0,1-3.231-7.784l2.937-7.1,33.282,13.757Zm3.789-9.167-33.282-13.757,15.5-37.5,33.282,13.757ZM363.743,149.4l-1.862,4.507L328.6,140.147l1.863-4.507a5.959,5.959,0,0,1,7.784-3.231l22.267,9.2A5.959,5.959,0,0,1,363.743,149.4Z" transform="translate(-305.769 -129.721)" fill="#b4bbc9"></path>
      </g>
    </g>
    <g transform="translate(124.916 41.719)">
      <path data-name="Path 6566" d="M262.534,80.094l-.635.068.129.237Z" transform="translate(-143.759 -46.789)" fill="#526680"></path>
      <path data-name="Path 6567" d="M250.425,71.241l3.1,6.054L297.5,50.813l5.456-3.285-1.4-2.565.967-.582a1.47,1.47,0,0,1,1.166-.158,1.55,1.55,0,0,1,.931.756l3.126,5.736a1.692,1.692,0,0,1,.149,1.226,1.6,1.6,0,0,1-.719.978L303,55.439l1.822,3.346a1.687,1.687,0,0,1,.149,1.226,1.608,1.608,0,0,1-.718.979l-16.119,9.7a1.472,1.472,0,0,1-.764.214,1.522,1.522,0,0,1-1.333-.813,1.66,1.66,0,0,1,.57-2.2l14.785-8.9-1.059-1.944-24.763,14.91-.14,119.481h.141l-.007,8.112h-.143l-7.937-8.122.134-114.682-10.67,6.425c-.011.006-.022.01-.032.017-.032.018-.065.034-.1.05l-.081.036c-.033.014-.068.025-.1.036l-.086.027c-.034.008-.068.015-.1.02s-.06.012-.091.016l-.026,0-7.993.806a1.352,1.352,0,0,1-.149.007,1.525,1.525,0,0,1-1.345-.839,1.683,1.683,0,0,1,.137-1.771l2.592-3.485.186-.249-4.261.459Zm-74.9-27.062,7.51,37.47a4.665,4.665,0,0,0-3.781.1L163.5,90.074l-.129-45.908ZM137.139,102.5l13.479-6.544,38.176,77.609,25.5-12.887s6.141-2.059,3.429-7.829l-33.975-72.2a8.806,8.806,0,0,1,7.736,5.138l31.138,66.163a9.307,9.307,0,0,1-4.068,12.236l-18.4,9.3,3.7,18.989-40.483-.043.022-19.766,3.422,6.9a4.523,4.523,0,0,0,6,2.031l1.41-.675,10-5.051-8.847,4.355s-4.262,2.184-6.568-2.785l-33.821-68.757S132.85,104.575,137.139,102.5Z" transform="translate(-134.454 -44.166)" fill="#526680"></path>
      <path data-name="Path 6568" d="M168.806,180.325c2.305,4.969,6.568,2.785,6.568,2.785l8.847-4.355-10,5.051-1.41.675a4.523,4.523,0,0,1-6-2.031l-3.422-6.9-.022,19.766,40.483.043-3.7-18.989,18.4-9.3a9.307,9.307,0,0,0,4.068-12.236L191.485,88.67a8.806,8.806,0,0,0-7.736-5.138l33.975,72.2c2.712,5.771-3.429,7.829-3.429,7.829l-25.5,12.887L150.618,98.835l-13.479,6.544c-4.288,2.071-2.153,6.19-2.153,6.19Z" transform="translate(-134.454 -47.04)" fill="#526680"></path>
      <path data-name="Path 6569" d="M258.315,78.094l-2.592,3.485a1.683,1.683,0,0,0-.137,1.771,1.525,1.525,0,0,0,1.345.839,1.352,1.352,0,0,0,.149-.007l7.993-.806.026,0c.031,0,.061-.01.091-.016s.069-.012.1-.02l.086-.027c.033-.011.068-.022.1-.036l.081-.036c.032-.016.066-.032.1-.05.01-.006.021-.01.032-.017l10.67-6.425-.134,114.682,7.937,8.122h.143l.007-8.112h-.141l.14-119.481,24.763-14.91,1.059,1.944-14.785,8.9a1.66,1.66,0,0,0-.57,2.2,1.522,1.522,0,0,0,1.333.813,1.472,1.472,0,0,0,.764-.214L313,60.99a1.608,1.608,0,0,0,.718-.979,1.687,1.687,0,0,0-.149-1.226l-1.822-3.346,4.185-2.52a1.6,1.6,0,0,0,.719-.978,1.692,1.692,0,0,0-.149-1.226l-3.126-5.736a1.55,1.55,0,0,0-.931-.756,1.47,1.47,0,0,0-1.166.158l-.967.582,1.4,2.565-5.456,3.285L262.267,77.295l-3.1-6.054L254.24,78.3l4.261-.459Zm3.66-.623-.506.3-.129-.236Z" transform="translate(-143.199 -44.166)" fill="#526680"></path>
      <path data-name="Path 6570" d="M181.53,81.749a4.665,4.665,0,0,1,3.781-.1l-7.51-37.47-12.153-.013.129,45.908Z" transform="translate(-136.731 -44.166)" fill="#526680"></path>
    </g>
    <g transform="translate(123.26 37.092)">
      <path data-name="Path 6571" d="M176,136.677l-13.186,6.609,6.71,14.073,13.4-6.664Zm.744,15.4a1.647,1.647,0,0,1-2.184-.737l-1.205-2.423-3.839,1.977a1.539,1.539,0,0,1-2.106-.764,1.7,1.7,0,0,1,.724-2.222l3.757-1.936-1-2.021a1.589,1.589,0,0,1,.751-2.143,1.646,1.646,0,0,1,2.183.737l.963,1.937.611-.314a1.539,1.539,0,0,1,2.106.764,1.7,1.7,0,0,1-.724,2.222l-.528.273,1.247,2.507A1.59,1.59,0,0,1,176.749,152.072Z" transform="translate(-134.868 -46.293)" fill="none"></path>
      <path data-name="Path 6572" d="M191.892,168.887l-6.923-14.016-13.438,6.683,6.748,14.155Zm-14.661-.893.93-2.652-1.148-.416a1.629,1.629,0,0,1-.943-2.039,1.5,1.5,0,0,1,1.931-1l1.214.441.644-1.839a1.585,1.585,0,0,1,2-.959,1.54,1.54,0,0,1,.979,1.965l-.668,1.907,3.2,1.162a1.628,1.628,0,0,1,.943,2.039,1.5,1.5,0,0,1-1.931.995l-3.266-1.186L180.212,169a1.584,1.584,0,0,1-2,.959A1.539,1.539,0,0,1,177.231,167.994Z" transform="translate(-135.504 -47.621)" fill="none"></path>
      <path data-name="Path 6573" d="M204.216,139.938l-6.76-14.176-17.325,8.683,6.926,14.026Zm-15.149-2.249,7.259-3.739a1.539,1.539,0,0,1,2.106.764,1.7,1.7,0,0,1-.724,2.222l-7.26,3.739a1.539,1.539,0,0,1-2.106-.764A1.7,1.7,0,0,1,189.067,137.69Z" transform="translate(-136.132 -45.496)" fill="none"></path>
      <path data-name="Path 6574" d="M173.434,182.716l43.777-21.873a3.077,3.077,0,0,0,1.368-4.073l-33.144-69.3a2.951,2.951,0,0,0-3.985-1.4L164.9,94.336l-27.23,13.606a3.075,3.075,0,0,0-1.368,4.073l33.144,69.3A2.949,2.949,0,0,0,173.434,182.716Zm-22.606-53.922L143.478,113.4a1.6,1.6,0,0,1,.712-2.123l35.818-17.926a1.534,1.534,0,0,1,2.073.729l7.349,15.392a1.6,1.6,0,0,1-.712,2.122L152.9,129.522A1.533,1.533,0,0,1,150.827,128.794ZM164.3,157.041a1.612,1.612,0,0,1,.465-1.974l-7.406-15.532a1.623,1.623,0,0,1,.719-2.147l36.187-18.136a1.548,1.548,0,0,1,2.094.737l16.2,33.979a1.623,1.623,0,0,1-.718,2.147l-19.407,9.726a1.6,1.6,0,0,1-.279.171,1.71,1.71,0,0,1-.265.1l-16.237,8.137a1.547,1.547,0,0,1-2.093-.737l-7.454-15.633A1.557,1.557,0,0,1,164.3,157.041Z" transform="translate(-132.91 -42.575)" fill="none"></path>
      <rect data-name="Rectangle 730" width="14.858" height="14.6" transform="translate(44.742 34.495) rotate(-89.936)" fill="none"></rect>
      <path data-name="Path 6575" d="M147.8,114.312l5.988,12.541,33.034-16.533-5.988-12.541Z" transform="translate(-133.772 -43.453)" fill="none"></path>
      <path data-name="Path 6576" d="M196.039,166.669l16.9-8.47-6.7-14.05-17.118,8.513Zm11.147-11.778a1.7,1.7,0,0,1-.725,2.222l-7.259,3.739a1.539,1.539,0,0,1-2.106-.765,1.7,1.7,0,0,1,.724-2.222l7.259-3.739A1.539,1.539,0,0,1,207.186,154.891Zm-10.523-.556,7.26-3.739a1.539,1.539,0,0,1,2.106.764,1.7,1.7,0,0,1-.725,2.222l-7.259,3.739a1.539,1.539,0,0,1-2.106-.764A1.7,1.7,0,0,1,196.663,154.335Z" transform="translate(-136.789 -46.838)" fill="none"></path>
      <path data-name="Path 6577" d="M262.695,71.957l1.632,2.882,43-24.923-1.632-2.882Z" transform="translate(-142.16 -39.748)" fill="none"></path>
      <path data-name="Path 6578" d="M259.285,77.278l1.28-.119-.488-.862Z" transform="translate(-141.911 -41.884)" fill="none"></path>
      <path data-name="Path 6579" d="M312.493,44.747l1.586,2.817,2.769-1.614-1.586-2.818Z" transform="translate(-145.796 -39.463)" fill="none"></path>
      <path data-name="Path 6580" d="M242.226,157.085c.855,0,1.551-.509,1.556-1.146s-.684-1.155-1.539-1.159l-11.942-.049c-.855,0-1.551.509-1.556,1.146s.684,1.155,1.539,1.159Z" transform="translate(-139.682 -47.611)" fill="#333"></path>
      <path data-name="Path 6581" d="M242.957,145.891l-17.572-.049c-.9,0-1.627.511-1.631,1.148s.721,1.154,1.618,1.157l17.572.049c.9,0,1.627-.511,1.631-1.148S243.854,145.894,242.957,145.891Z" transform="translate(-139.317 -46.962)" fill="#333"></path>
      <path data-name="Path 6582" d="M271.308,193.327l.123-115.76a1.546,1.546,0,1,0-3.092,0l-.121,114.194-101.26-.111.019-6.791a1.546,1.546,0,1,0-3.092-.008l-.023,8.36a1.556,1.556,0,0,0,1.544,1.569l104.355.115A1.557,1.557,0,0,0,271.308,193.327Z" transform="translate(-134.944 -41.863)" fill="#333"></path>
      <path data-name="Path 6583" d="M242.6,122.919c0-.636-.69-1.153-1.544-1.155l-26.978-.049c-.855,0-1.549.513-1.552,1.149s.69,1.153,1.544,1.155l26.978.049C241.9,124.07,242.6,123.556,242.6,122.919Z" transform="translate(-138.497 -45.2)" fill="#333"></path>
      <path data-name="Path 6584" d="M220.269,135.447l21.268.05a1.2,1.2,0,1,0,.009-2.3l-21.268-.05a1.195,1.195,0,1,0-.009,2.3Z" transform="translate(-138.953 -46.035)" fill="#333"></path>
      <path data-name="Path 6585" d="M241.815,110.335l-32.7-.049c-.871,0-1.58.514-1.581,1.149s.7,1.154,1.575,1.155l32.7.05c.872,0,1.58-.514,1.581-1.15S242.687,110.337,241.815,110.335Z" transform="translate(-138.133 -44.366)" fill="#333"></path>
      <path data-name="Path 6586" d="M267.141,117.1a1.451,1.451,0,0,0-2.124,0l-7.142,7.5-1.611-1.693a1.452,1.452,0,0,0-2.125,0,1.635,1.635,0,0,0,0,2.23l2.673,2.808a1.451,1.451,0,0,0,2.124,0l8.2-8.616A1.635,1.635,0,0,0,267.141,117.1Z" transform="translate(-141.504 -44.83)" fill="#333"></path>
      <path data-name="Path 6587" d="M267.141,141.225a1.451,1.451,0,0,0-2.124,0l-7.142,7.5-1.611-1.693a1.452,1.452,0,0,0-2.125,0,1.635,1.635,0,0,0,0,2.23l2.673,2.808a1.451,1.451,0,0,0,2.124,0l8.2-8.616A1.635,1.635,0,0,0,267.141,141.225Z" transform="translate(-141.504 -46.591)" fill="#333"></path>
      <path data-name="Path 6588" d="M165.544,81.737a1.544,1.544,0,0,0,1.543-1.548L166.963,44.8l101.372.109-.006,6.063a1.548,1.548,0,0,0,3.1,0l.008-7.606a1.545,1.545,0,0,0-1.546-1.543l-104.474-.113a1.546,1.546,0,0,0-1.55,1.547l.131,36.939A1.545,1.545,0,0,0,165.544,81.737Z" transform="translate(-134.944 -39.359)" fill="#333"></path>
      <path data-name="Path 6589" d="M265.018,162.812l-7.142,7.5-1.611-1.693a1.453,1.453,0,0,0-2.125,0,1.635,1.635,0,0,0,0,2.23l2.673,2.809a1.452,1.452,0,0,0,2.124,0l8.2-8.616a1.636,1.636,0,0,0,0-2.231A1.452,1.452,0,0,0,265.018,162.812Z" transform="translate(-141.504 -48.167)" fill="#333"></path>
      <path data-name="Path 6590" d="M267.141,94.24a1.452,1.452,0,0,0-2.124,0l-7.142,7.5-1.611-1.693a1.453,1.453,0,0,0-2.125,0,1.636,1.636,0,0,0,0,2.231l2.673,2.808a1.452,1.452,0,0,0,2.124,0l8.2-8.616A1.636,1.636,0,0,0,267.141,94.24Z" transform="translate(-141.504 -43.161)" fill="#333"></path>
      <path data-name="Path 6591" d="M244.939,168.632c0-.639-.714-1.159-1.6-1.162l-12.973-.042c-.889,0-1.613.513-1.618,1.151s.715,1.159,1.6,1.162l12.972.042C244.211,169.786,244.935,169.271,244.939,168.632Z" transform="translate(-139.682 -48.538)" fill="#333"></path>
      <path data-name="Path 6592" d="M207.924,68.182l17.54.014c.906,0,1.641-.523,1.642-1.169s-.732-1.171-1.638-1.172l-17.54-.014c-.906,0-1.641.523-1.642,1.169S207.018,68.181,207.924,68.182Z" transform="translate(-138.042 -41.121)" fill="#333"></path>
      <path data-name="Path 6593" d="M215.29,178.858a1.2,1.2,0,1,0-.006,2.313l25.887.041a1.2,1.2,0,1,0,.006-2.313Z" transform="translate(-138.588 -49.372)" fill="#333"></path>
      <path data-name="Path 6594" d="M241.467,100.177l-37.36-.05c-.862,0-1.563.514-1.565,1.15s.7,1.153,1.559,1.154l37.36.05c.863,0,1.564-.514,1.565-1.15S242.329,100.178,241.467,100.177Z" transform="translate(-137.769 -43.624)" fill="#333"></path>
      <path data-name="Path 6595" d="M180.563,169.361l.906-2.584,3.266,1.186a1.5,1.5,0,0,0,1.931-.995,1.628,1.628,0,0,0-.943-2.039l-3.2-1.162.668-1.907a1.54,1.54,0,0,0-.979-1.965,1.585,1.585,0,0,0-2,.959l-.644,1.839-1.214-.441a1.5,1.5,0,0,0-1.931,1,1.629,1.629,0,0,0,.943,2.039l1.148.416-.93,2.652a1.539,1.539,0,0,0,.978,1.965A1.584,1.584,0,0,0,180.563,169.361Z" transform="translate(-135.855 -47.982)" fill="#333"></path>
      <path data-name="Path 6596" d="M177.324,176.876l16.237-8.137a1.71,1.71,0,0,0,.265-.1,1.6,1.6,0,0,0,.279-.171l19.407-9.726a1.623,1.623,0,0,0,.718-2.147l-16.2-33.979a1.548,1.548,0,0,0-2.094-.737l-36.187,18.136a1.623,1.623,0,0,0-.719,2.147l7.406,15.532a1.612,1.612,0,0,0-.465,1.974,1.557,1.557,0,0,0,1.808.841l7.454,15.633A1.547,1.547,0,0,0,177.324,176.876Zm33.406-20.315-16.9,8.47-6.917-14.008,17.118-8.513ZM195.9,125.466l6.76,14.176-17.158,8.533L178.58,134.15ZM162.53,142.193l13.186-6.609,6.923,14.017-13.4,6.664Zm21.515,10.257,6.923,14.016-13.612,6.822-6.748-14.155Z" transform="translate(-134.58 -45.2)" fill="#333"></path>
      <path data-name="Path 6597" d="M176.6,147.814l.528-.273a1.7,1.7,0,0,0,.724-2.222,1.539,1.539,0,0,0-2.106-.764l-.611.314-.963-1.937a1.646,1.646,0,0,0-2.183-.737,1.589,1.589,0,0,0-.751,2.143l1,2.021-3.757,1.936a1.7,1.7,0,0,0-.724,2.222,1.539,1.539,0,0,0,2.106.764l3.839-1.977,1.205,2.423a1.647,1.647,0,0,0,2.184.737,1.59,1.59,0,0,0,.751-2.143Z" transform="translate(-135.218 -46.684)" fill="#333"></path>
      <path data-name="Path 6598" d="M225.464,59.307c.906,0,1.641-.523,1.642-1.169s-.732-1.171-1.638-1.172l-17.54-.014c-.906,0-1.641.523-1.642,1.169s.732,1.171,1.638,1.172Z" transform="translate(-138.042 -40.472)" fill="#333"></path>
      <path data-name="Path 6599" d="M174.548,185.305l43.777-21.873a6.268,6.268,0,0,0,2.787-8.3l-33.144-69.3a6.011,6.011,0,0,0-8.12-2.85L163.3,91.248l-27.23,13.606a6.268,6.268,0,0,0-2.787,8.3l33.143,69.3A6.012,6.012,0,0,0,174.548,185.305Zm-37.118-77.611,27.23-13.606,16.546-8.268a2.951,2.951,0,0,1,3.985,1.4l33.144,69.3a3.077,3.077,0,0,1-1.368,4.073L173.19,182.467a2.949,2.949,0,0,1-3.984-1.4l-33.144-69.3A3.075,3.075,0,0,1,137.431,107.694Z" transform="translate(-132.667 -42.326)" fill="#333"></path>
      <path data-name="Path 6600" d="M277.374,70.92a1.558,1.558,0,0,0-1.548,1.567l-.134,125.958-102.8-.113a1.568,1.568,0,0,0,0,3.136l104.342.115a1.558,1.558,0,0,0,1.548-1.567l.136-127.526A1.558,1.558,0,0,0,277.374,70.92Z" transform="translate(-135.491 -41.492)" fill="#333"></path>
      <path data-name="Path 6601" d="M191.083,141.307l7.26-3.739a1.7,1.7,0,0,0,.724-2.222,1.539,1.539,0,0,0-2.106-.764l-7.259,3.739a1.7,1.7,0,0,0-.725,2.222A1.539,1.539,0,0,0,191.083,141.307Z" transform="translate(-136.766 -46.127)" fill="#333"></path>
      <path data-name="Path 6602" d="M179.158,56.952a1.564,1.564,0,0,0-1.553,1.576l-.019,18.014a1.563,1.563,0,0,0,1.548,1.579l17.7.02a1.566,1.566,0,0,0,1.552-1.577l.019-18.013a1.564,1.564,0,0,0-1.549-1.58Zm16.131,18.032-14.6-.017.016-14.858,14.6.016Z" transform="translate(-135.947 -40.472)" fill="#333"></path>
      <path data-name="Path 6603" d="M207.924,78.341l17.54.014c.906,0,1.642-.523,1.642-1.17s-.732-1.171-1.638-1.171L207.928,76c-.906,0-1.642.523-1.642,1.169S207.018,78.34,207.924,78.341Z" transform="translate(-138.042 -41.863)" fill="#333"></path>
      <path data-name="Path 6604" d="M196.463,157.051a1.539,1.539,0,0,0,2.106.764l7.259-3.739a1.7,1.7,0,0,0,.725-2.222,1.539,1.539,0,0,0-2.106-.764l-7.26,3.739A1.7,1.7,0,0,0,196.463,157.051Z" transform="translate(-137.313 -47.333)" fill="#333"></path>
      <path data-name="Path 6605" d="M312.858,39.955a1.51,1.51,0,0,0-2.081-.576l-5.415,3.156a1.526,1.526,0,0,0-.37.3,1.507,1.507,0,0,0-.154.079L260.514,68.607a1.618,1.618,0,0,0-1.383.593l-5.085,6.3a1.558,1.558,0,0,0,1.418,2.508l6.393-.6a1.556,1.556,0,0,0,2.011.392l44.144-25.587.957,1.615-15.148,8.39a1.5,1.5,0,0,0-.584,2.078,1.6,1.6,0,0,0,2.149.564L311.9,55.723a1.5,1.5,0,0,0,.584-2.077L310.562,50.4l4.832-2.817a1.568,1.568,0,0,0,.565-2.118Zm-53.98,34.612.792-.982.488.862Zm4.793-.3-1.631-2.882,43-24.923,1.631,2.882Zm46.117-26.989L308.2,44.458l2.769-1.614,1.585,2.818Z" transform="translate(-141.504 -39.174)" fill="#333"></path>
      <path data-name="Path 6606" d="M205.695,154.9l-7.259,3.739a1.7,1.7,0,0,0-.724,2.222,1.539,1.539,0,0,0,2.106.765l7.259-3.739a1.7,1.7,0,0,0,.725-2.222A1.539,1.539,0,0,0,205.695,154.9Z" transform="translate(-137.404 -47.611)" fill="#333"></path>
      <path data-name="Path 6607" d="M190.006,110.06l-7.349-15.392a1.534,1.534,0,0,0-2.073-.729l-35.818,17.926a1.6,1.6,0,0,0-.712,2.123l7.349,15.391a1.533,1.533,0,0,0,2.073.729l35.818-17.926A1.6,1.6,0,0,0,190.006,110.06Zm-36.5,16.5-5.987-12.54,33.034-16.533,5.987,12.54Z" transform="translate(-133.487 -43.161)" fill="#333"></path>
    </g>
  </g>
</svg>