<svg xmlns="http://www.w3.org/2000/svg" width="440" height="252" viewBox="0 0 440 252">
  <g id="Group_6803" data-name="Group 6803" transform="translate(-1451.073 -346.003)">
    <g id="Background">
      <rect id="Rectangle_714" data-name="Rectangle 714" width="440" height="252" transform="translate(1451.073 346.003)" fill="#ffecf3"/>
      <g id="Group_6724" data-name="Group 6724">
        <g id="Group_6700" data-name="Group 6700">
          <g id="Group_6697" data-name="Group 6697">
            <path id="Path_5607" data-name="Path 5607" d="M1488.132,377.975h-19.84a1,1,0,0,1,0-2h18.84v-7.2h-18.84a1,1,0,0,1,0-2h19.84a1,1,0,0,1,1,1v9.2A1,1,0,0,1,1488.132,377.975Z" fill="#edd1e3"/>
          </g>
          <g id="Group_6698" data-name="Group 6698">
            <path id="Path_5608" data-name="Path 5608" d="M1488.132,435.509h-19.84a1,1,0,0,1,0-2h18.84v-7.2h-18.84a1,1,0,0,1,0-2h19.84a1,1,0,0,1,1,1v9.2A1,1,0,0,1,1488.132,435.509Z" fill="#edd1e3"/>
          </g>
          <g id="Group_6699" data-name="Group 6699">
            <path id="Path_5609" data-name="Path 5609" d="M1488.132,493.044h-19.84a1,1,0,0,1,0-2h18.84v-7.2h-18.84a1,1,0,0,1,0-2h19.84a1,1,0,0,1,1,1v9.2A1,1,0,0,1,1488.132,493.044Z" fill="#edd1e3"/>
          </g>
        </g>
        <g id="Group_6704" data-name="Group 6704">
          <g id="Group_6701" data-name="Group 6701">
            <path id="Path_5610" data-name="Path 5610" d="M1584.071,377.975h-19.842a1,1,0,0,1-1-1v-9.2a1,1,0,0,1,1-1h19.842a1,1,0,0,1,1,1v9.2A1,1,0,0,1,1584.071,377.975Zm-18.842-2h17.842v-7.2h-17.842Z" fill="#edd1e3"/>
          </g>
          <g id="Group_6702" data-name="Group 6702">
            <path id="Path_5611" data-name="Path 5611" d="M1584.071,435.509h-19.842a1,1,0,0,1-1-1v-9.2a1,1,0,0,1,1-1h19.842a1,1,0,0,1,0,2h-18.842v7.2h18.842a1,1,0,0,1,0,2Z" fill="#edd1e3"/>
          </g>
          <g id="Group_6703" data-name="Group 6703">
            <path id="Path_5612" data-name="Path 5612" d="M1584.071,493.044h-19.842a1,1,0,0,1-1-1v-9.2a1,1,0,0,1,1-1h19.842a1,1,0,0,1,0,2h-18.842v7.2h18.842a1,1,0,0,1,0,2Z" fill="#edd1e3"/>
          </g>
        </g>
        <g id="Group_6705" data-name="Group 6705">
          <path id="Path_5613" data-name="Path 5613" d="M1680.009,377.975h-19.841a1,1,0,0,1-1-1v-9.2a1,1,0,0,1,1-1h19.841a1,1,0,0,1,1,1v9.2A1,1,0,0,1,1680.009,377.975Zm-18.841-2h17.841v-7.2h-17.841Z" fill="#edd1e3"/>
        </g>
        <g id="Group_6709" data-name="Group 6709">
          <g id="Group_6706" data-name="Group 6706">
            <path id="Path_5614" data-name="Path 5614" d="M1775.947,377.975H1756.1a1,1,0,0,1-1-1v-9.2a1,1,0,0,1,1-1h19.842a1,1,0,0,1,1,1v9.2A1,1,0,0,1,1775.947,377.975Zm-18.842-2h17.842v-7.2H1757.1Z" fill="#edd1e3"/>
          </g>
          <g id="Group_6707" data-name="Group 6707">
            <path id="Path_5615" data-name="Path 5615" d="M1775.947,435.509H1756.1a1,1,0,0,1,0-2h18.842v-7.2H1756.1a1,1,0,0,1,0-2h19.842a1,1,0,0,1,1,1v9.2A1,1,0,0,1,1775.947,435.509Z" fill="#edd1e3"/>
          </g>
          <g id="Group_6708" data-name="Group 6708">
            <path id="Path_5616" data-name="Path 5616" d="M1775.947,493.044H1756.1a1,1,0,0,1,0-2h18.842v-7.2H1756.1a1,1,0,0,1,0-2h19.842a1,1,0,0,1,1,1v9.2A1,1,0,0,1,1775.947,493.044Z" fill="#edd1e3"/>
          </g>
        </g>
        <g id="Group_6713" data-name="Group 6713">
          <g id="Group_6710" data-name="Group 6710">
            <path id="Path_5617" data-name="Path 5617" d="M1871.885,377.975h-19.842a1,1,0,0,1-1-1v-9.2a1,1,0,0,1,1-1h19.842a1,1,0,0,1,0,2h-18.842v7.2h18.842a1,1,0,0,1,0,2Z" fill="#edd1e3"/>
          </g>
          <g id="Group_6711" data-name="Group 6711">
            <path id="Path_5618" data-name="Path 5618" d="M1871.885,435.509h-19.842a1,1,0,0,1-1-1v-9.2a1,1,0,0,1,1-1h19.842a1,1,0,0,1,0,2h-18.842v7.2h18.842a1,1,0,0,1,0,2Z" fill="#edd1e3"/>
          </g>
          <g id="Group_6712" data-name="Group 6712">
            <path id="Path_5619" data-name="Path 5619" d="M1871.885,493.044h-19.842a1,1,0,0,1-1-1v-9.2a1,1,0,0,1,1-1h19.842a1,1,0,0,1,0,2h-18.842v7.2h18.842a1,1,0,0,1,0,2Z" fill="#edd1e3"/>
          </g>
        </g>
        <g id="Group_6714" data-name="Group 6714">
          <path id="Path_5620" data-name="Path 5620" d="M1503.293,531.2c-19.055,0-33.679-.042-34.311-.168a1,1,0,0,1,.353-1.968c2.5.249,80.566.1,121.55-.013h0a1,1,0,0,1,0,2C1578.39,531.089,1534.791,531.2,1503.293,531.2Z" fill="#edd1e3"/>
        </g>
        <g id="Group_6715" data-name="Group 6715">
          <path id="Path_5621" data-name="Path 5621" d="M1503.3,471.013c-19.06,0-33.686-.041-34.318-.168a1,1,0,0,1,.354-1.968c2.5.248,80.565.1,121.549-.012h0a1,1,0,0,1,0,2C1578.392,470.9,1534.8,471.013,1503.3,471.013Z" fill="#edd1e3"/>
        </g>
        <g id="Group_6716" data-name="Group 6716">
          <path id="Path_5622" data-name="Path 5622" d="M1503.3,414.358c-19.06,0-33.684-.041-34.316-.168a1,1,0,0,1,.354-1.968c2.5.249,80.565.1,121.549-.013h0a1,1,0,0,1,0,2C1578.392,414.244,1534.794,414.358,1503.3,414.358Z" fill="#edd1e3"/>
        </g>
        <g id="Group_6717" data-name="Group 6717">
          <path id="Path_5623" data-name="Path 5623" d="M1528.04,521.746a1,1,0,0,1-1-1V367.112a1,1,0,1,1,2,0V520.746A1,1,0,0,1,1528.04,521.746Z" fill="#edd1e3"/>
        </g>
        <g id="Group_6718" data-name="Group 6718">
          <path id="Path_5624" data-name="Path 5624" d="M1623.147,378.75a1,1,0,0,1-1-1V367.112a1,1,0,1,1,2,0V377.75A1,1,0,0,1,1623.147,378.75Z" fill="#edd1e3"/>
        </g>
        <g id="Group_6719" data-name="Group 6719">
          <path id="Path_5625" data-name="Path 5625" d="M1719.251,378.75a1,1,0,0,1-1-1V367.112a1,1,0,1,1,2,0V377.75A1,1,0,0,1,1719.251,378.75Z" fill="#edd1e3"/>
        </g>
        <g id="Group_6720" data-name="Group 6720">
          <path id="Path_5626" data-name="Path 5626" d="M1787.947,531.2c-19.057,0-33.678-.042-34.31-.168a1,1,0,0,1,.353-1.968c2.5.249,80.564.1,121.551-.013h0a1,1,0,0,1,0,2C1863.045,531.089,1819.444,531.2,1787.947,531.2Z" fill="#edd1e3"/>
        </g>
        <g id="Group_6721" data-name="Group 6721">
          <path id="Path_5627" data-name="Path 5627" d="M1787.952,471.013c-19.057,0-33.684-.041-34.316-.168a1,1,0,0,1,.354-1.968c2.494.249,80.565.1,121.551-.012h0a1,1,0,0,1,0,2C1863.045,470.9,1819.449,471.013,1787.952,471.013Z" fill="#edd1e3"/>
        </g>
        <g id="Group_6722" data-name="Group 6722">
          <path id="Path_5628" data-name="Path 5628" d="M1787.952,414.358c-19.057,0-33.684-.041-34.316-.168a1,1,0,0,1,.355-1.968c2.5.249,80.565.1,121.55-.013h0a1,1,0,0,1,0,2C1863.045,414.244,1819.449,414.358,1787.952,414.358Z" fill="#edd1e3"/>
        </g>
        <g id="Group_6723" data-name="Group 6723">
          <path id="Path_5629" data-name="Path 5629" d="M1812.695,521.746a1,1,0,0,1-1-1V367.112a1,1,0,1,1,2,0V520.746A1,1,0,0,1,1812.695,521.746Z" fill="#edd1e3"/>
        </g>
      </g>
    </g>
    <g id="Fill">
      <g id="Group_6725" data-name="Group 6725">
        <path id="Path_5630" data-name="Path 5630" d="M1616.826,383.182s-13.3-.221-13.967,0a69.058,69.058,0,0,0-5.542,4.434l-1.108,8.425,1.108,28.82,0,.222H1592v21.061h5.125l-.425,46.112h-5.143v21.726h4.943l-.287,31.259,2.438,6.872,5.321,3.326h23.278l13.523-.665Zm-11.514,41.9h14.59v21.061h-14.59Zm15.061,88.9h-15.3V492.256h15.3Z" fill="#b64d94"/>
        <path id="Path_5631" data-name="Path 5631" d="M1678.014,451.021c6.761-1.441,12.99-9.468,11.66-6.7a21.172,21.172,0,1,1-28.776-27.981c-6.162,7.854-7.16,10.847-7.16,17.83a17.767,17.767,0,0,0,9.2,15.075C1668.282,451.956,1671.252,452.462,1678.014,451.021Z" fill="#b64d94"/>
        <path id="Path_5632" data-name="Path 5632" d="M1702.622,498.687a31.7,31.7,0,1,1-36.754-31.3c-18.005,3.918-22.439,25.09-22.66,29.967,3.1,25.384,24.719,28.488,33.586,28.266C1680.674,525.953,1699.407,516.2,1702.622,498.687Z" fill="#b64d94"/>
        <path id="Path_5633" data-name="Path 5633" d="M1682.862,477.942c-4.52-3.452-10.1-2.391-17.8-1.007s-9.244,7.731-9.244,7.731l.388.379a20.108,20.108,0,0,1,30.211,26.511c.678.332,1.163.44,1.4.263,2.478-1.851,6.407-8.869,6.334-17.182S1687.382,481.394,1682.862,477.942Z" fill="#b64d94"/>
        <path id="Path_5634" data-name="Path 5634" d="M1743.37,571.5l-5.987-9.079c-.351-.535-1.055,5.877-1.055,5.877h-18.955s-2.893-6.339-3.445-6.339h-83.579c-.52,0-2.992,5.785-2.992,5.785l-18.734.111s-.9-5.783-1.265-5.264l-6.208,8.878a1.26,1.26,0,0,0-.049,1.39,1.527,1.527,0,0,0,1.315.708h139.668a1.533,1.533,0,0,0,1.305-.692A1.261,1.261,0,0,0,1743.37,571.5Z" fill="#b64d94"/>
      </g>
    </g>
    <g id="Outlines">
      <g id="Group_6802" data-name="Group 6802">
        <g id="Group_6727" data-name="Group 6727">
          <g id="Group_6726" data-name="Group 6726">
            <path id="Path_5635" data-name="Path 5635" d="M1608.734,486a1.5,1.5,0,0,1-1.5-1.5V454.346a1.5,1.5,0,0,1,3,0V484.5A1.5,1.5,0,0,1,1608.734,486Z" fill="#333"/>
          </g>
        </g>
        <g id="Group_6729" data-name="Group 6729">
          <g id="Group_6728" data-name="Group 6728">
            <path id="Path_5636" data-name="Path 5636" d="M1726.43,545.3h-107.7a11.513,11.513,0,0,1-11.5-11.5V522.185a1.5,1.5,0,0,1,3,0V533.8a8.51,8.51,0,0,0,8.5,8.5h107.7a8.51,8.51,0,0,0,8.5-8.5V405.265a8.51,8.51,0,0,0-8.5-8.5h-107.7a8.51,8.51,0,0,0-8.5,8.5v12.724a1.5,1.5,0,0,1-3,0V405.265a11.513,11.513,0,0,1,11.5-11.5h107.7a11.513,11.513,0,0,1,11.5,11.5V533.8A11.513,11.513,0,0,1,1726.43,545.3Z" fill="#333"/>
          </g>
        </g>
        <g id="Group_6731" data-name="Group 6731">
          <g id="Group_6730" data-name="Group 6730">
            <path id="Path_5637" data-name="Path 5637" d="M1596.542,486a1.5,1.5,0,0,1-1.5-1.5V454.124a1.5,1.5,0,0,1,3,0V484.5A1.5,1.5,0,0,1,1596.542,486Z" fill="#333"/>
          </g>
        </g>
        <g id="Group_6733" data-name="Group 6733">
          <g id="Group_6732" data-name="Group 6732">
            <path id="Path_5638" data-name="Path 5638" d="M1738.516,557.493H1606.434a11.514,11.514,0,0,1-11.5-11.5V522.185a1.5,1.5,0,0,1,3,0v23.808a8.511,8.511,0,0,0,8.5,8.5h132.082a8.51,8.51,0,0,0,8.5-8.5V393.072a8.51,8.51,0,0,0-8.5-8.5H1606.434a8.51,8.51,0,0,0-8.5,8.5V418.21a1.5,1.5,0,0,1-3,0V393.072a11.513,11.513,0,0,1,11.5-11.5h132.082a11.513,11.513,0,0,1,11.5,11.5V545.993A11.514,11.514,0,0,1,1738.516,557.493Z" fill="#333"/>
          </g>
        </g>
        <g id="Group_6735" data-name="Group 6735">
          <g id="Group_6734" data-name="Group 6734">
            <path id="Path_5639" data-name="Path 5639" d="M1620.374,448.531h-28.821a1.5,1.5,0,0,1-1.5-1.5v-22.17a1.5,1.5,0,0,1,1.5-1.5h28.821a1.5,1.5,0,0,1,1.5,1.5v22.17A1.5,1.5,0,0,1,1620.374,448.531Zm-27.321-3h25.821v-19.17h-25.821Z" fill="#333"/>
          </g>
        </g>
        <g id="Group_6737" data-name="Group 6737">
          <g id="Group_6736" data-name="Group 6736">
            <path id="Path_5640" data-name="Path 5640" d="M1620.374,515.482h-28.821a1.5,1.5,0,0,1-1.5-1.5V491.813a1.5,1.5,0,0,1,1.5-1.5h28.821a1.5,1.5,0,0,1,1.5,1.5v22.169A1.5,1.5,0,0,1,1620.374,515.482Zm-27.321-3h25.821V493.313h-25.821Z" fill="#333"/>
          </g>
        </g>
        <g id="Group_6757" data-name="Group 6757">
          <g id="Group_6745" data-name="Group 6745">
            <g id="Group_6742" data-name="Group 6742">
              <g id="Group_6739" data-name="Group 6739">
                <g id="Group_6738" data-name="Group 6738">
                  <path id="Path_5641" data-name="Path 5641" d="M1672.928,518.932a22.45,22.45,0,1,1,22.45-22.45A22.475,22.475,0,0,1,1672.928,518.932Zm0-41.9a19.45,19.45,0,1,0,19.45,19.45A19.472,19.472,0,0,0,1672.928,477.032Z" fill="#333"/>
                </g>
              </g>
              <g id="Group_6741" data-name="Group 6741">
                <g id="Group_6740" data-name="Group 6740">
                  <path id="Path_5642" data-name="Path 5642" d="M1672.928,527.246a30.764,30.764,0,1,1,30.764-30.764A30.8,30.8,0,0,1,1672.928,527.246Zm0-58.528a27.764,27.764,0,1,0,27.764,27.764A27.8,27.8,0,0,0,1672.928,468.718Z" fill="#333"/>
                </g>
              </g>
            </g>
            <g id="Group_6744" data-name="Group 6744">
              <g id="Group_6743" data-name="Group 6743">
                <path id="Path_5643" data-name="Path 5643" d="M1672.928,505.131a8.65,8.65,0,1,1,8.651-8.649A8.659,8.659,0,0,1,1672.928,505.131Zm0-14.3a5.65,5.65,0,1,0,5.651,5.65A5.656,5.656,0,0,0,1672.928,490.832Z" fill="#333"/>
              </g>
            </g>
          </g>
          <g id="Group_6756" data-name="Group 6756">
            <g id="Group_6750" data-name="Group 6750">
              <g id="Group_6747" data-name="Group 6747">
                <g id="Group_6746" data-name="Group 6746">
                  <path id="Path_5644" data-name="Path 5644" d="M1667.687,492.944a1.54,1.54,0,0,1-.9-.29c-.433-.314-2.231-2.252-5.343-5.763a1.5,1.5,0,1,1,2.244-1.99c2.1,2.364,4.5,5.014,4.9,5.357a1.49,1.49,0,0,1-.9,2.686Z" fill="#333"/>
                </g>
              </g>
              <g id="Group_6749" data-name="Group 6749">
                <g id="Group_6748" data-name="Group 6748">
                  <path id="Path_5645" data-name="Path 5645" d="M1683.316,508.574a1.54,1.54,0,0,1-.9-.291c-.432-.314-2.229-2.252-5.34-5.762a1.5,1.5,0,1,1,2.244-1.99c2.1,2.365,4.5,5.015,4.9,5.357a1.476,1.476,0,0,1,.312,2.078A1.491,1.491,0,0,1,1683.316,508.574Z" fill="#333"/>
                </g>
              </g>
            </g>
            <g id="Group_6755" data-name="Group 6755">
              <g id="Group_6752" data-name="Group 6752">
                <g id="Group_6751" data-name="Group 6751">
                  <path id="Path_5646" data-name="Path 5646" d="M1662.343,508.346a1.5,1.5,0,0,1-1-2.622c2.365-2.1,5.017-4.5,5.359-4.9a1.475,1.475,0,0,1,2.078-.312,1.526,1.526,0,0,1,.316,2.118c-.313.432-2.253,2.229-5.763,5.34A1.49,1.49,0,0,1,1662.343,508.346Z" fill="#333"/>
                </g>
              </g>
              <g id="Group_6754" data-name="Group 6754">
                <g id="Group_6753" data-name="Group 6753">
                  <path id="Path_5647" data-name="Path 5647" d="M1677.973,492.716a1.5,1.5,0,0,1-1-2.622c2.365-2.1,5.016-4.5,5.357-4.9a1.477,1.477,0,0,1,2.079-.312,1.526,1.526,0,0,1,.316,2.118c-.313.432-2.252,2.229-5.762,5.34A1.488,1.488,0,0,1,1677.973,492.716Z" fill="#333"/>
                </g>
              </g>
            </g>
          </g>
        </g>
        <g id="Group_6774" data-name="Group 6774">
          <g id="Group_6762" data-name="Group 6762">
            <g id="Group_6759" data-name="Group 6759">
              <g id="Group_6758" data-name="Group 6758">
                <path id="Path_5648" data-name="Path 5648" d="M1672.915,440a7.154,7.154,0,1,1,7.153-7.154A7.162,7.162,0,0,1,1672.915,440Zm0-11.307a4.154,4.154,0,1,0,4.153,4.153A4.159,4.159,0,0,0,1672.915,428.689Z" fill="#333"/>
              </g>
            </g>
            <g id="Group_6761" data-name="Group 6761">
              <g id="Group_6760" data-name="Group 6760">
                <path id="Path_5649" data-name="Path 5649" d="M1672.915,453.629a20.788,20.788,0,1,1,20.787-20.787A20.811,20.811,0,0,1,1672.915,453.629Zm0-38.575a17.788,17.788,0,1,0,17.787,17.788A17.809,17.809,0,0,0,1672.915,415.054Z" fill="#333"/>
              </g>
            </g>
          </g>
          <g id="Group_6773" data-name="Group 6773">
            <g id="Group_6767" data-name="Group 6767">
              <g id="Group_6764" data-name="Group 6764">
                <g id="Group_6763" data-name="Group 6763">
                  <path id="Path_5650" data-name="Path 5650" d="M1660.5,434.342h-6.541a1.5,1.5,0,0,1,0-3h6.541a1.5,1.5,0,0,1,0,3Z" fill="#333"/>
                </g>
              </g>
              <g id="Group_6766" data-name="Group 6766">
                <g id="Group_6765" data-name="Group 6765">
                  <path id="Path_5651" data-name="Path 5651" d="M1691.87,434.342h-6.54a1.5,1.5,0,0,1,0-3h6.54a1.5,1.5,0,0,1,0,3Z" fill="#333"/>
                </g>
              </g>
            </g>
            <g id="Group_6772" data-name="Group 6772">
              <g id="Group_6769" data-name="Group 6769">
                <g id="Group_6768" data-name="Group 6768">
                  <path id="Path_5652" data-name="Path 5652" d="M1672.915,453.3a1.5,1.5,0,0,1-1.5-1.5v-6.54a1.5,1.5,0,0,1,3,0v6.54A1.5,1.5,0,0,1,1672.915,453.3Z" fill="#333"/>
                </g>
              </g>
              <g id="Group_6771" data-name="Group 6771">
                <g id="Group_6770" data-name="Group 6770">
                  <path id="Path_5653" data-name="Path 5653" d="M1672.915,421.927a1.5,1.5,0,0,1-1.5-1.5v-6.54a1.5,1.5,0,0,1,3,0v6.54A1.5,1.5,0,0,1,1672.915,421.927Z" fill="#333"/>
                </g>
              </g>
            </g>
          </g>
        </g>
        <g id="Group_6785" data-name="Group 6785">
          <g id="Group_6779" data-name="Group 6779">
            <g id="Group_6776" data-name="Group 6776">
              <g id="Group_6775" data-name="Group 6775">
                <path id="Path_5654" data-name="Path 5654" d="M1656.773,443.6a1.5,1.5,0,0,1-.751-2.8l2.305-1.331a1.5,1.5,0,0,1,1.5,2.6l-2.305,1.331A1.486,1.486,0,0,1,1656.773,443.6Z" fill="#333"/>
              </g>
            </g>
            <g id="Group_6778" data-name="Group 6778">
              <g id="Group_6777" data-name="Group 6777">
                <path id="Path_5655" data-name="Path 5655" d="M1686.533,426.416a1.5,1.5,0,0,1-.751-2.8l2.3-1.33a1.5,1.5,0,1,1,1.5,2.6l-2.3,1.33A1.489,1.489,0,0,1,1686.533,426.416Z" fill="#333"/>
              </g>
            </g>
          </g>
          <g id="Group_6784" data-name="Group 6784">
            <g id="Group_6781" data-name="Group 6781">
              <g id="Group_6780" data-name="Group 6780">
                <path id="Path_5656" data-name="Path 5656" d="M1682.06,450.373a1.5,1.5,0,0,1-1.3-.75l-1.33-2.3a1.5,1.5,0,1,1,2.6-1.5l1.33,2.3a1.5,1.5,0,0,1-1.3,2.25Z" fill="#333"/>
              </g>
            </g>
            <g id="Group_6783" data-name="Group 6783">
              <g id="Group_6782" data-name="Group 6782">
                <path id="Path_5657" data-name="Path 5657" d="M1664.879,420.615a1.5,1.5,0,0,1-1.3-.75l-1.33-2.3a1.5,1.5,0,1,1,2.6-1.5l1.33,2.3a1.5,1.5,0,0,1-1.3,2.25Z" fill="#333"/>
              </g>
            </g>
          </g>
        </g>
        <g id="Group_6796" data-name="Group 6796">
          <g id="Group_6790" data-name="Group 6790">
            <g id="Group_6787" data-name="Group 6787">
              <g id="Group_6786" data-name="Group 6786">
                <path id="Path_5658" data-name="Path 5658" d="M1663.547,450.373a1.5,1.5,0,0,1-1.3-2.25l1.33-2.3a1.5,1.5,0,1,1,2.6,1.5l-1.33,2.3A1.5,1.5,0,0,1,1663.547,450.373Z" fill="#333"/>
              </g>
            </g>
            <g id="Group_6789" data-name="Group 6789">
              <g id="Group_6788" data-name="Group 6788">
                <path id="Path_5659" data-name="Path 5659" d="M1680.728,420.615a1.5,1.5,0,0,1-1.3-2.25l1.33-2.3a1.5,1.5,0,0,1,2.6,1.5l-1.33,2.3A1.5,1.5,0,0,1,1680.728,420.615Z" fill="#333"/>
              </g>
            </g>
          </g>
          <g id="Group_6795" data-name="Group 6795">
            <g id="Group_6792" data-name="Group 6792">
              <g id="Group_6791" data-name="Group 6791">
                <path id="Path_5660" data-name="Path 5660" d="M1688.834,443.6a1.492,1.492,0,0,1-.749-.2l-2.3-1.331a1.5,1.5,0,0,1,1.5-2.6l2.3,1.331a1.5,1.5,0,0,1-.751,2.8Z" fill="#333"/>
              </g>
            </g>
            <g id="Group_6794" data-name="Group 6794">
              <g id="Group_6793" data-name="Group 6793">
                <path id="Path_5661" data-name="Path 5661" d="M1659.076,426.416a1.486,1.486,0,0,1-.749-.2l-2.305-1.33a1.5,1.5,0,1,1,1.5-2.6l2.305,1.33a1.5,1.5,0,0,1-.751,2.8Z" fill="#333"/>
              </g>
            </g>
          </g>
        </g>
        <g id="Group_6801" data-name="Group 6801">
          <g id="Group_6798" data-name="Group 6798">
            <g id="Group_6797" data-name="Group 6797">
              <path id="Path_5662" data-name="Path 5662" d="M1627.577,569.8h-18.954a1.5,1.5,0,0,1-1.5-1.5v-7.482a1.5,1.5,0,0,1,3,0V566.8h16.455l2.608-6.249a1.5,1.5,0,0,1,2.768,1.157l-2.994,7.17A1.5,1.5,0,0,1,1627.577,569.8Z" fill="#333"/>
            </g>
          </g>
          <g id="Group_6800" data-name="Group 6800">
            <g id="Group_6799" data-name="Group 6799">
              <path id="Path_5663" data-name="Path 5663" d="M1736.328,569.8h-18.955a1.5,1.5,0,0,1-1.385-.923L1713,561.7a1.5,1.5,0,1,1,2.769-1.155l2.607,6.248h16.456v-5.982a1.5,1.5,0,0,1,3,0V568.3A1.5,1.5,0,0,1,1736.328,569.8Z" fill="#333"/>
            </g>
          </g>
        </g>
      </g>
    </g>
  </g>
</svg>
