<svg xmlns="http://www.w3.org/2000/svg" width="440" height="252" viewBox="0 0 440 252">
  <g id="Group_6490" data-name="Group 6490" transform="translate(-968.936 -346.003)">
    <g id="Background">
      <rect id="Rectangle_668" data-name="Rectangle 668" width="440" height="252" transform="translate(968.936 346.003)" fill="#dff1f1"/>
      <g id="Group_6548" data-name="Group 6548">
        <g id="Group_6490-2" data-name="Group 6490">
          <path id="Path_5533" data-name="Path 5533" d="M1391.806,565.527H982.781a1,1,0,0,1,0-2h409.025a1,1,0,0,1,0,2Z" fill="#c7dfdf"/>
        </g>
        <g id="Group_6491" data-name="Group 6491">
          <path id="Path_5534" data-name="Path 5534" d="M1391.806,547.348H982.781a1,1,0,0,1,0-2h409.025a1,1,0,0,1,0,2Z" fill="#c7dfdf"/>
        </g>
        <g id="Group_6492" data-name="Group 6492">
          <path id="Path_5535" data-name="Path 5535" d="M1044.855,436.946h-62.85a1,1,0,0,1,0-2h61.208l-4.288-8.311h-56.92a1,1,0,0,1,0-2h57.53a1,1,0,0,1,.888.541l5.321,10.311a1,1,0,0,1-.889,1.459Z" fill="#c7dfdf"/>
        </g>
        <g id="Group_6493" data-name="Group 6493">
          <path id="Path_5536" data-name="Path 5536" d="M1029.226,462.884H981.672a1,1,0,0,1,0-2h46.554V449.249H981.672a1,1,0,0,1,0-2h47.554a1,1,0,0,1,1,1v13.635A1,1,0,0,1,1029.226,462.884Z" fill="#c7dfdf"/>
        </g>
        <g id="Group_6494" data-name="Group 6494">
          <path id="Path_5537" data-name="Path 5537" d="M1029.226,490.485H981.672a1,1,0,0,1,0-2h46.554V476.85H981.672a1,1,0,0,1,0-2h47.554a1,1,0,0,1,1,1v13.635A1,1,0,0,1,1029.226,490.485Z" fill="#c7dfdf"/>
        </g>
        <g id="Group_6495" data-name="Group 6495">
          <path id="Path_5538" data-name="Path 5538" d="M1029.226,518.085H981.672a1,1,0,0,1,0-2h46.554V504.452H981.672a1,1,0,0,1,0-2h47.554a1,1,0,0,1,1,1v13.633A1,1,0,0,1,1029.226,518.085Z" fill="#c7dfdf"/>
        </g>
        <g id="Group_6496" data-name="Group 6496">
          <path id="Path_5539" data-name="Path 5539" d="M1042.86,540.7a1,1,0,0,1-1-1V436.611a1,1,0,0,1,2,0V539.7A1,1,0,0,1,1042.86,540.7Z" fill="#c7dfdf"/>
        </g>
        <g id="Group_6497" data-name="Group 6497">
          <path id="Path_5540" data-name="Path 5540" d="M1008.609,421.981a1,1,0,0,1-1-1v-8.314a1,1,0,0,1,1-1h38.242a1,1,0,0,1,0,2h-37.242v7.314A1,1,0,0,1,1008.609,421.981Z" fill="#c7dfdf"/>
        </g>
        <g id="Group_6499" data-name="Group 6499">
          <g id="Group_6498" data-name="Group 6498">
            <path id="Path_5541" data-name="Path 5541" d="M1066.2,537.207h-13.532a.936.936,0,0,1-.946-.928V523.122a.908.908,0,0,1,.083-.38,8.527,8.527,0,0,1,7.682-4.659,8.28,8.28,0,0,1,7.583,4.677.9.9,0,0,1,.076.362v13.157A.937.937,0,0,1,1066.2,537.207Zm-12.586-1.855h11.639V523.331a6.409,6.409,0,0,0-5.766-3.393,6.643,6.643,0,0,0-5.873,3.4Z" fill="#c7dfdf"/>
          </g>
        </g>
        <g id="Group_6501" data-name="Group 6501">
          <g id="Group_6500" data-name="Group 6500">
            <path id="Path_5542" data-name="Path 5542" d="M1090.308,537.207h-13.532a.937.937,0,0,1-.947-.928V523.122a.923.923,0,0,1,.083-.38,8.53,8.53,0,0,1,7.682-4.659,8.286,8.286,0,0,1,7.585,4.676.908.908,0,0,1,.076.363v13.157A.937.937,0,0,1,1090.308,537.207Zm-12.586-1.855h11.64V523.331a6.413,6.413,0,0,0-5.768-3.393,6.644,6.644,0,0,0-5.872,3.4Z" fill="#c7dfdf"/>
          </g>
        </g>
        <g id="Group_6503" data-name="Group 6503">
          <g id="Group_6502" data-name="Group 6502">
            <path id="Path_5543" data-name="Path 5543" d="M1114.413,537.207h-13.532a.936.936,0,0,1-.946-.928V523.122a.907.907,0,0,1,.083-.38,8.527,8.527,0,0,1,7.682-4.659,8.28,8.28,0,0,1,7.583,4.677.9.9,0,0,1,.076.362v13.157A.936.936,0,0,1,1114.413,537.207Zm-12.586-1.855h11.639V523.331a6.408,6.408,0,0,0-5.766-3.393,6.643,6.643,0,0,0-5.873,3.4Z" fill="#c7dfdf"/>
          </g>
        </g>
        <g id="Group_6505" data-name="Group 6505">
          <g id="Group_6504" data-name="Group 6504">
            <path id="Path_5544" data-name="Path 5544" d="M1066.2,509.606h-13.532a.936.936,0,0,1-.946-.928V495.521a.908.908,0,0,1,.083-.38,8.529,8.529,0,0,1,7.682-4.659,8.28,8.28,0,0,1,7.583,4.677.9.9,0,0,1,.076.362v13.157A.937.937,0,0,1,1066.2,509.606Zm-12.586-1.855h11.639V495.73a6.408,6.408,0,0,0-5.766-3.393,6.643,6.643,0,0,0-5.873,3.4Z" fill="#c7dfdf"/>
          </g>
        </g>
        <g id="Group_6507" data-name="Group 6507">
          <g id="Group_6506" data-name="Group 6506">
            <path id="Path_5545" data-name="Path 5545" d="M1090.308,509.606h-13.532a.937.937,0,0,1-.947-.928V495.521a.923.923,0,0,1,.083-.38,8.532,8.532,0,0,1,7.682-4.659,8.286,8.286,0,0,1,7.585,4.676.908.908,0,0,1,.076.363v13.157A.937.937,0,0,1,1090.308,509.606Zm-12.586-1.855h11.64V495.73a6.413,6.413,0,0,0-5.768-3.393,6.644,6.644,0,0,0-5.872,3.4Z" fill="#c7dfdf"/>
          </g>
        </g>
        <g id="Group_6509" data-name="Group 6509">
          <g id="Group_6508" data-name="Group 6508">
            <path id="Path_5546" data-name="Path 5546" d="M1114.413,509.606h-13.532a.936.936,0,0,1-.946-.928V495.521a.907.907,0,0,1,.083-.38,8.529,8.529,0,0,1,7.682-4.659,8.28,8.28,0,0,1,7.583,4.677.9.9,0,0,1,.076.362v13.157A.936.936,0,0,1,1114.413,509.606Zm-12.586-1.855h11.639V495.73a6.408,6.408,0,0,0-5.766-3.393,6.643,6.643,0,0,0-5.873,3.4Z" fill="#c7dfdf"/>
          </g>
        </g>
        <g id="Group_6511" data-name="Group 6511">
          <g id="Group_6510" data-name="Group 6510">
            <path id="Path_5547" data-name="Path 5547" d="M1066.2,482.67h-13.532a.936.936,0,0,1-.946-.927V468.585a.908.908,0,0,1,.083-.38,8.529,8.529,0,0,1,7.682-4.658,8.28,8.28,0,0,1,7.583,4.676.9.9,0,0,1,.076.362v13.158A.936.936,0,0,1,1066.2,482.67Zm-12.586-1.855h11.639V468.794a6.409,6.409,0,0,0-5.766-3.393,6.643,6.643,0,0,0-5.873,3.4Z" fill="#c7dfdf"/>
          </g>
        </g>
        <g id="Group_6513" data-name="Group 6513">
          <g id="Group_6512" data-name="Group 6512">
            <path id="Path_5548" data-name="Path 5548" d="M1090.308,482.67h-13.532a.937.937,0,0,1-.947-.927V468.585a.923.923,0,0,1,.083-.38,8.532,8.532,0,0,1,7.682-4.658,8.286,8.286,0,0,1,7.585,4.675.908.908,0,0,1,.076.363v13.158A.937.937,0,0,1,1090.308,482.67Zm-12.586-1.855h11.64V468.794a6.413,6.413,0,0,0-5.768-3.393,6.644,6.644,0,0,0-5.872,3.4Z" fill="#c7dfdf"/>
          </g>
        </g>
        <g id="Group_6515" data-name="Group 6515">
          <g id="Group_6514" data-name="Group 6514">
            <path id="Path_5549" data-name="Path 5549" d="M1066.2,456.067h-13.532a.936.936,0,0,1-.946-.928V441.982a.908.908,0,0,1,.083-.38,8.527,8.527,0,0,1,7.682-4.659,8.28,8.28,0,0,1,7.583,4.677.9.9,0,0,1,.076.362v13.157A.937.937,0,0,1,1066.2,456.067Zm-12.586-1.855h11.639V442.191a6.409,6.409,0,0,0-5.766-3.393,6.643,6.643,0,0,0-5.873,3.4Z" fill="#c7dfdf"/>
          </g>
        </g>
        <g id="Group_6516" data-name="Group 6516">
          <path id="Path_5550" data-name="Path 5550" d="M1113.466,480.815h-11.639V468.8a6.642,6.642,0,0,1,5.872-3.4c.1,0,.192.009.288.013l-1.955-1.711a8.574,8.574,0,0,0-6.014,4.5.907.907,0,0,0-.083.38v13.158a.936.936,0,0,0,.946.927h13.532a.936.936,0,0,0,.946-.927v-9.879l-1.893-1.656Z" fill="#c7dfdf"/>
        </g>
        <g id="Group_6517" data-name="Group 6517">
          <path id="Path_5551" data-name="Path 5551" d="M1089.362,454.212h-11.64V442.2a6.862,6.862,0,0,1,1.581-1.887l-1.421-1.244a8.573,8.573,0,0,0-1.97,2.531.923.923,0,0,0-.083.38v13.157a.937.937,0,0,0,.947.928h13.532a.937.937,0,0,0,.947-.928v-4.366l-1.893-1.656Z" fill="#c7dfdf"/>
        </g>
        <g id="Group_6518" data-name="Group 6518">
          <path id="Path_5552" data-name="Path 5552" d="M1153.264,539.7h-17.625a1,1,0,0,1-1-1V512.43a1,1,0,0,1,1-1h5.986a1,1,0,0,1,0,2h-4.986V537.7h15.625V524.734a1,1,0,0,1,2,0V538.7A1,1,0,0,1,1153.264,539.7Z" fill="#c7dfdf"/>
        </g>
        <g id="Group_6525" data-name="Group 6525">
          <g id="Group_6519" data-name="Group 6519">
            <path id="Path_5553" data-name="Path 5553" d="M1222.94,417.659h-64.513a1,1,0,0,1,0-2h64.513a1,1,0,0,1,0,2Z" fill="#c7dfdf"/>
          </g>
          <g id="Group_6520" data-name="Group 6520">
            <path id="Path_5554" data-name="Path 5554" d="M1217.62,426.637h-53.872a1,1,0,0,1,0-2h53.872a1,1,0,0,1,0,2Z" fill="#c7dfdf"/>
          </g>
          <g id="Group_6524" data-name="Group 6524">
            <g id="Group_6521" data-name="Group 6521">
              <path id="Path_5555" data-name="Path 5555" d="M1160.644,410.234a6.764,6.764,0,1,1,6.764-6.764A6.772,6.772,0,0,1,1160.644,410.234Zm0-11.528a4.764,4.764,0,1,0,4.764,4.764A4.77,4.77,0,0,0,1160.644,398.706Z" fill="#c7dfdf"/>
            </g>
            <g id="Group_6522" data-name="Group 6522">
              <path id="Path_5556" data-name="Path 5556" d="M1190.673,410.235a6.765,6.765,0,1,1,5.127-2.34h0a6.723,6.723,0,0,1-4.628,2.321C1191.005,410.228,1190.838,410.235,1190.673,410.235Zm.018-11.529c-.117,0-.234,0-.353.012a4.764,4.764,0,1,0,3.949,7.868h0a4.765,4.765,0,0,0-3.6-7.88Zm4.352,8.535h0Z" fill="#c7dfdf"/>
            </g>
            <g id="Group_6523" data-name="Group 6523">
              <path id="Path_5557" data-name="Path 5557" d="M1220.712,410.235a6.766,6.766,0,1,1,5.126-2.34h0a6.719,6.719,0,0,1-4.626,2.321C1221.045,410.228,1220.878,410.235,1220.712,410.235Zm.015-11.527a4.763,4.763,0,1,0,3.6,7.878h0a4.762,4.762,0,0,0-3.6-7.878Z" fill="#c7dfdf"/>
            </g>
          </g>
        </g>
        <g id="Group_6526" data-name="Group 6526">
          <path id="Path_5558" data-name="Path 5558" d="M1241.942,390.168H1137.508a1,1,0,0,1-1-1V382.3a1,1,0,0,1,1-1h104.434a1,1,0,0,1,1,1v6.873A1,1,0,0,1,1241.942,390.168Zm-103.434-2h102.434V383.3H1138.508Z" fill="#c7dfdf"/>
        </g>
        <g id="Group_6527" data-name="Group 6527">
          <path id="Path_5559" data-name="Path 5559" d="M1323.525,484.61h-73.618a1,1,0,0,1-1-1v-9.533a1,1,0,0,1,1-1h73.4a1,1,0,0,1,0,2h-72.4v7.533h72.618a1,1,0,0,1,0,2Z" fill="#c7dfdf"/>
        </g>
        <g id="Group_6528" data-name="Group 6528">
          <path id="Path_5560" data-name="Path 5560" d="M1124.666,540.7a1,1,0,0,1-1-1V498.02a1,1,0,0,1,2,0V539.7A1,1,0,0,1,1124.666,540.7Z" fill="#c7dfdf"/>
        </g>
        <g id="Group_6529" data-name="Group 6529">
          <path id="Path_5561" data-name="Path 5561" d="M1204.475,540.7a1,1,0,0,1-1-1v-8.647a1,1,0,0,1,2,0V539.7A1,1,0,0,1,1204.475,540.7Z" fill="#c7dfdf"/>
        </g>
        <g id="Group_6530" data-name="Group 6530">
          <path id="Path_5562" data-name="Path 5562" d="M1218.442,540.7a1,1,0,0,1-1-1v-19.51a1,1,0,0,1,2,0V539.7A1,1,0,0,1,1218.442,540.7Z" fill="#c7dfdf"/>
        </g>
        <g id="Group_6531" data-name="Group 6531">
          <path id="Path_5563" data-name="Path 5563" d="M1142.782,403.47a1,1,0,0,1-1-1V389.612a1,1,0,1,1,2,0V402.47A1,1,0,0,1,1142.782,403.47Z" fill="#c7dfdf"/>
        </g>
        <g id="Group_6532" data-name="Group 6532">
          <path id="Path_5564" data-name="Path 5564" d="M1236.558,411.007a1,1,0,0,1-1-1V389.612a1,1,0,1,1,2,0v20.395A1,1,0,0,1,1236.558,411.007Z" fill="#c7dfdf"/>
        </g>
        <g id="Group_6533" data-name="Group 6533">
          <path id="Path_5565" data-name="Path 5565" d="M1236.558,540.7a1,1,0,0,1-1-1V484.053a1,1,0,0,1,2,0V539.7A1,1,0,0,1,1236.558,540.7Z" fill="#c7dfdf"/>
        </g>
        <g id="Group_6534" data-name="Group 6534">
          <path id="Path_5566" data-name="Path 5566" d="M1255.464,540.7a1,1,0,0,1-1-1V483.61a1,1,0,0,1,2,0V539.7A1,1,0,0,1,1255.464,540.7Z" fill="#c7dfdf"/>
        </g>
        <g id="Group_6535" data-name="Group 6535">
          <path id="Path_5567" data-name="Path 5567" d="M1328.624,540.7a1,1,0,0,1-1-1V422.422a1,1,0,0,1,1-1h64.513a1,1,0,0,1,0,2h-63.513V539.7A1,1,0,0,1,1328.624,540.7Z" fill="#c7dfdf"/>
        </g>
        <g id="Group_6536" data-name="Group 6536">
          <path id="Path_5568" data-name="Path 5568" d="M1323.525,463.106h-49.659a1,1,0,0,1,0-2h49.659a1,1,0,0,1,0,2Z" fill="#c7dfdf"/>
        </g>
        <g id="Group_6537" data-name="Group 6537">
          <path id="Path_5569" data-name="Path 5569" d="M1323.525,450.467h-37.356a1,1,0,0,1,0-2h37.356a1,1,0,0,1,0,2Z" fill="#c7dfdf"/>
        </g>
        <g id="Group_6538" data-name="Group 6538">
          <path id="Path_5570" data-name="Path 5570" d="M1323.525,437.83h-23.167a1,1,0,0,1,0-2h23.167a1,1,0,0,1,0,2Z" fill="#c7dfdf"/>
        </g>
        <g id="Group_6539" data-name="Group 6539">
          <path id="Path_5571" data-name="Path 5571" d="M1349.907,473.081h-10.642a1,1,0,0,1-1-1V432.842a1,1,0,0,1,1-1h10.642a1,1,0,0,1,1,1v39.239A1,1,0,0,1,1349.907,473.081Zm-9.642-2h8.642V433.842h-8.642Z" fill="#c7dfdf"/>
        </g>
        <g id="Group_6540" data-name="Group 6540">
          <path id="Path_5572" data-name="Path 5572" d="M1371.079,473.081h-10.642a1,1,0,0,1-1-1V432.842a1,1,0,0,1,1-1h10.642a1,1,0,0,1,1,1v39.239A1,1,0,0,1,1371.079,473.081Zm-9.642-2h8.642V433.842h-8.642Z" fill="#c7dfdf"/>
        </g>
        <g id="Group_6541" data-name="Group 6541">
          <path id="Path_5573" data-name="Path 5573" d="M1392.251,473.081h-10.642a1,1,0,0,1-1-1V432.842a1,1,0,0,1,1-1h10.642a1,1,0,0,1,1,1v39.239A1,1,0,0,1,1392.251,473.081Zm-9.642-2h8.642V433.842h-8.642Z" fill="#c7dfdf"/>
        </g>
        <g id="Group_6542" data-name="Group 6542">
          <path id="Path_5574" data-name="Path 5574" d="M1349.907,529.614h-10.642a1,1,0,0,1-1-1V489.373a1,1,0,0,1,1-1h10.642a1,1,0,0,1,1,1v39.241A1,1,0,0,1,1349.907,529.614Zm-9.642-2h8.642V490.373h-8.642Z" fill="#c7dfdf"/>
        </g>
        <g id="Group_6543" data-name="Group 6543">
          <path id="Path_5575" data-name="Path 5575" d="M1371.079,529.614h-10.642a1,1,0,0,1-1-1V489.373a1,1,0,0,1,1-1h10.642a1,1,0,0,1,1,1v39.241A1,1,0,0,1,1371.079,529.614Zm-9.642-2h8.642V490.373h-8.642Z" fill="#c7dfdf"/>
        </g>
        <g id="Group_6544" data-name="Group 6544">
          <path id="Path_5576" data-name="Path 5576" d="M1392.251,529.614h-10.642a1,1,0,0,1-1-1V489.373a1,1,0,0,1,1-1h10.642a1,1,0,0,1,1,1v39.241A1,1,0,0,1,1392.251,529.614Zm-9.642-2h8.642V490.373h-8.642Z" fill="#c7dfdf"/>
        </g>
        <g id="Group_6545" data-name="Group 6545">
          <path id="Path_5577" data-name="Path 5577" d="M1393.359,417.769h-68.282a1,1,0,0,1,0-2h68.282a1,1,0,0,1,0,2Z" fill="#c7dfdf"/>
        </g>
        <g id="Group_6546" data-name="Group 6546">
          <path id="Path_5578" data-name="Path 5578" d="M1360.992,416.994a.929.929,0,0,1-.181-.017,1,1,0,0,1-.8-1.163c.038-.209,4.146-20.9,33.726-19.664a1,1,0,0,1-.084,2c-11.564-.489-20.727,2.505-26.468,8.649a20.858,20.858,0,0,0-5.207,9.376A1,1,0,0,1,1360.992,416.994Z" fill="#c7dfdf"/>
        </g>
        <g id="Group_6547" data-name="Group 6547">
          <path id="Path_5579" data-name="Path 5579" d="M1277.3,540.92a1,1,0,0,1-1-1V516.886c.21-4.181,3.791-11.993,15.848-11.993h.006c5.67,0,9.987,1.458,12.831,4.332a11.575,11.575,0,0,1,3.355,7.671v22.92a1,1,0,0,1-2,0v-22.93a9.726,9.726,0,0,0-2.8-6.281c-2.456-2.462-6.286-3.711-11.383-3.712h-.006c-13.125,0-13.825,9.637-13.849,10.047v22.98A1,1,0,0,1,1277.3,540.92Z" fill="#c7dfdf"/>
        </g>
      </g>
    </g>
    <g id="Fill">
      <g id="Group_6556" data-name="Group 6556">
        <g id="Group_6549" data-name="Group 6549">
          <path id="Path_5580" data-name="Path 5580" d="M1030.889,390.055c-1.774-1.33-5.321-8.868,3.1-9.533,5.654,0,12.637-.887,15.852.554s1.456.219,5.32,3.658c4.05,3.6,88.345,87.126,87.791,90.119,0,0-9.311,7.648-9.976,6.651s-14.3-17.625-14.3-17.625l-2.993-4.656s-2.328,1.331-3.658,1S1032.662,391.385,1030.889,390.055Z" fill="#54b3b3"/>
        </g>
        <g id="Group_6550" data-name="Group 6550">
          <path id="Path_5581" data-name="Path 5581" d="M1171.664,459.889a11.776,11.776,0,0,0,13.524,2.66c2.767-1.2,7.094-5.986,7.094-5.986l-2.439-5.1s-8.7,6.263-9.754,7.759S1171.664,459.889,1171.664,459.889Z" fill="#54b3b3"/>
        </g>
        <g id="Group_6551" data-name="Group 6551">
          <path id="Path_5582" data-name="Path 5582" d="M1333.5,389.612S1225.98,487.6,1225.314,487.6s-6.429-6.207-6.429-6.207l18.844-17.957s6.429-3.991-.221-10.642S1216.89,435.5,1216.89,435.5s6.207-3.547,11.972-6.429c2.882,6.651,17.735,17.514,17.735,17.514l64.07-61.188s4.858-4.131,9.311-4.655c3.769-.444,10.2-.444,13.745,1.773C1336.078,383.99,1336.161,386.951,1333.5,389.612Z" fill="#54b3b3"/>
        </g>
        <g id="Group_6552" data-name="Group 6552">
          <path id="Path_5583" data-name="Path 5583" d="M1192.06,523.071c-.665-.443-12.415-10.863-12.415-10.863a44.134,44.134,0,0,1-6.872,7.538c-6.873,5.764-10.42,3.99-12.637,3.769-1.819-.182,2.661,4.877,5.1,4.655s6.651-3.768,6.651-3.768,5.321,7.759,7.759,9.089c3.36,1.833,7.981.222,7.981.222l2.882-3.769Z" fill="#54b3b3"/>
        </g>
        <g id="Group_6553" data-name="Group 6553">
          <path id="Path_5584" data-name="Path 5584" d="M1149.052,511.1c-.222.665,4.714,3.509,9.533.665,13.523-7.981,17.957-15.519,17.117-16.782s1.948,2.594,1.505,5.032-8.706,9.254-8.646,9.755-9.976,7.316-9.976,7.316-1.4.809-4.434-.887A16.342,16.342,0,0,1,1149.052,511.1Z" fill="#54b3b3"/>
        </g>
        <g id="Group_6554" data-name="Group 6554">
          <path id="Path_5585" data-name="Path 5585" d="M1139.3,502.232a11.054,11.054,0,0,0,7.538-1.33c14.188-8.868,15.405-13.745,15.405-13.745s2.552,2.882,1.665,4.212-14.41,12.415-15.74,13.08-4.877,1.552-6.651.665A4.618,4.618,0,0,1,1139.3,502.232Z" fill="#54b3b3"/>
        </g>
        <g id="Group_6555" data-name="Group 6555">
          <path id="Path_5586" data-name="Path 5586" d="M1130.651,491.147s1.774,1.774,7.094-.665,11.75-9.754,11.75-9.754V484.5s-4.877,6.65-5.764,6.65-4.877,3.548-5.764,3.548-4.877-.887-4.877-.887Z" fill="#54b3b3"/>
        </g>
      </g>
    </g>
    <g id="Outlines">
      <g id="Group_6599" data-name="Group 6599">
        <g id="Group_6583" data-name="Group 6583">
          <g id="Group_6558" data-name="Group 6558">
            <g id="Group_6557" data-name="Group 6557">
              <path id="Path_5587" data-name="Path 5587" d="M1113.115,461.98a7.471,7.471,0,0,1-5.288-2.353l-67.957-60.248a1.5,1.5,0,0,1,1.99-2.244l68.017,60.3c.043.038.084.079.124.122a4.144,4.144,0,0,0,5.976.27c4.387-3.49,33.56-28.533,33.854-28.785a6.339,6.339,0,0,0,2.352-3.876,4.916,4.916,0,0,0-1.582-3.719c-5.3-5.708-36.5-40.46-36.813-40.811a1.5,1.5,0,0,1,2.232-2c.314.35,31.5,35.084,36.78,40.774a7.746,7.746,0,0,1,2.369,6.042,9.272,9.272,0,0,1-3.459,5.93c-1.127.973-29.435,25.273-33.866,28.8A7.512,7.512,0,0,1,1113.115,461.98Z" fill="#333"/>
            </g>
          </g>
          <g id="Group_6560" data-name="Group 6560">
            <g id="Group_6559" data-name="Group 6559">
              <path id="Path_5588" data-name="Path 5588" d="M1100.28,445.2a1.5,1.5,0,0,1-.966-2.649l35.915-30.15a1.5,1.5,0,0,1,1.93,2.3l-35.915,30.15A1.5,1.5,0,0,1,1100.28,445.2Z" fill="#333"/>
            </g>
          </g>
          <g id="Group_6562" data-name="Group 6562">
            <g id="Group_6561" data-name="Group 6561">
              <path id="Path_5589" data-name="Path 5589" d="M1112.472,453.851a5.269,5.269,0,1,1,5.269-5.269A5.274,5.274,0,0,1,1112.472,453.851Zm0-7.538a2.269,2.269,0,1,0,2.269,2.269A2.271,2.271,0,0,0,1112.472,446.313Z" fill="#333"/>
            </g>
          </g>
          <g id="Group_6564" data-name="Group 6564">
            <g id="Group_6563" data-name="Group 6563">
              <path id="Path_5590" data-name="Path 5590" d="M1176.762,436.781a1.491,1.491,0,0,1-.986-.371c-.647-.564-2.119-.523-4.348-.454a60.653,60.653,0,0,1-6.3-.066c-7-.482-9.153-3.673-9.376-4.035a1.5,1.5,0,0,1,2.538-1.6c.067.093,1.7,2.274,7.045,2.643a57.114,57.114,0,0,0,6,.058c2.831-.083,4.879-.145,6.412,1.2a1.5,1.5,0,0,1-.989,2.629Z" fill="#333"/>
            </g>
          </g>
          <g id="Group_6566" data-name="Group 6566">
            <g id="Group_6565" data-name="Group 6565">
              <path id="Path_5591" data-name="Path 5591" d="M1221.68,507.125c-.569,0-1.169-.023-1.8-.073a1.5,1.5,0,0,1-1.021-.518c-1.291-1.506-5.23-5.667-5.271-5.709a1.5,1.5,0,0,1,2.178-2.063c.15.157,3.364,3.551,4.95,5.339,4,.21,6.594-.76,7.734-2.877,1.508-2.8.171-7.124-.546-8.047-1.116-1.428-22.139-21.9-36-35.314a1.5,1.5,0,0,1,2.086-2.157c3.548,3.435,34.707,33.608,36.278,35.629,1.161,1.495,3.111,7.053.819,11.311C1229.955,504.749,1227.407,507.125,1221.68,507.125Z" fill="#333"/>
            </g>
          </g>
          <g id="Group_6568" data-name="Group 6568">
            <g id="Group_6567" data-name="Group 6567">
              <path id="Path_5592" data-name="Path 5592" d="M1211.758,518.133a17.5,17.5,0,0,1-5.592-.973,1.492,1.492,0,0,1-.616-.432l-5.1-5.985a1.5,1.5,0,1,1,2.283-1.946l4.828,5.668c1.254.389,5.634,1.535,8.394-.505,1.919-1.418,2.773-4.216,2.54-8.317a1.5,1.5,0,1,1,2.994-.172c.3,5.184-.97,8.855-3.764,10.911A9.944,9.944,0,0,1,1211.758,518.133Z" fill="#333"/>
            </g>
          </g>
          <g id="Group_6570" data-name="Group 6570">
            <g id="Group_6569" data-name="Group 6569">
              <path id="Path_5593" data-name="Path 5593" d="M1198.886,527.3a17.776,17.776,0,0,1-5.815-1.057,1.485,1.485,0,0,1-.495-.314l-4.877-4.656a1.5,1.5,0,0,1,2.072-2.17l4.644,4.434c1.127.376,5.638,1.688,8.394-.3,1.751-1.265,2.553-3.758,2.385-7.411a1.5,1.5,0,0,1,1.429-1.568,1.528,1.528,0,0,1,1.567,1.429c.219,4.735-1,8.1-3.635,9.989A9.592,9.592,0,0,1,1198.886,527.3Z" fill="#333"/>
            </g>
          </g>
          <g id="Group_6572" data-name="Group 6572">
            <g id="Group_6571" data-name="Group 6571">
              <path id="Path_5594" data-name="Path 5594" d="M1183.574,535.641a17.2,17.2,0,0,1-5.57-.97,1.5,1.5,0,0,1,1.063-2.8c.1.038,5.224,1.9,8.655-.276,1.9-1.2,3.007-3.515,3.286-6.87a1.5,1.5,0,0,1,2.991.25c-.363,4.349-1.94,7.433-4.687,9.164A10.666,10.666,0,0,1,1183.574,535.641Z" fill="#333"/>
            </g>
          </g>
          <g id="Group_6574" data-name="Group 6574">
            <g id="Group_6573" data-name="Group 6573">
              <path id="Path_5595" data-name="Path 5595" d="M1128.213,476.685a1.5,1.5,0,0,1-1.147-.533l-9.533-11.306a1.5,1.5,0,1,1,2.293-1.933l9.533,11.3a1.5,1.5,0,0,1-1.146,2.467Z" fill="#333"/>
            </g>
          </g>
          <g id="Group_6576" data-name="Group 6576">
            <g id="Group_6575" data-name="Group 6575">
              <path id="Path_5596" data-name="Path 5596" d="M1136.431,496.052a8.494,8.494,0,0,1-.965-.055,8.262,8.262,0,0,1-4.2-14.67l6.95-5.519a8.262,8.262,0,1,1,10.275,12.94h0l-6.951,5.519A8.182,8.182,0,0,1,1136.431,496.052Zm6.908-19.028a5.2,5.2,0,0,0-3.254,1.134l-6.95,5.518a5.262,5.262,0,0,0,6.544,8.241l6.95-5.518a5.253,5.253,0,0,0-2.672-9.34A5.614,5.614,0,0,0,1143.339,477.024Zm4.223,10.55h0Z" fill="#333"/>
            </g>
          </g>
          <g id="Group_6578" data-name="Group 6578">
            <g id="Group_6577" data-name="Group 6577">
              <path id="Path_5597" data-name="Path 5597" d="M1165.9,529.339a8.48,8.48,0,0,1-.965-.055,8.254,8.254,0,0,1-4.2-14.67l6.95-5.519a8.262,8.262,0,0,1,10.274,12.941h0l-6.95,5.518A8.187,8.187,0,0,1,1165.9,529.339Zm6.908-19.028a5.211,5.211,0,0,0-3.254,1.134l-6.95,5.518a5.262,5.262,0,0,0,6.544,8.242l6.95-5.519a5.253,5.253,0,0,0-2.673-9.34A5.585,5.585,0,0,0,1172.807,510.311Zm4.223,10.55h0Z" fill="#333"/>
            </g>
          </g>
          <g id="Group_6580" data-name="Group 6580">
            <g id="Group_6579" data-name="Group 6579">
              <path id="Path_5598" data-name="Path 5598" d="M1145.206,507.1a8.449,8.449,0,0,1-.965-.056,8.206,8.206,0,0,1-5.53-3.062l-.365-.46a8.283,8.283,0,0,1,1.333-11.608l11.921-9.464a8.281,8.281,0,0,1,11.608,1.333l.365.46a8.282,8.282,0,0,1-1.333,11.607l-11.921,9.465A8.181,8.181,0,0,1,1145.206,507.1Zm11.526-23.439a5.241,5.241,0,0,0-3.267,1.138l-11.921,9.465a5.282,5.282,0,0,0-.848,7.393l.365.46a5.282,5.282,0,0,0,7.393.848l11.921-9.465h0a5.281,5.281,0,0,0,.848-7.392l-.365-.46A5.251,5.251,0,0,0,1156.732,483.664Z" fill="#333"/>
            </g>
          </g>
          <g id="Group_6582" data-name="Group 6582">
            <g id="Group_6581" data-name="Group 6581">
              <path id="Path_5599" data-name="Path 5599" d="M1156.437,518.554a8.317,8.317,0,0,1-6.494-3.118l-1.3-1.639a8.282,8.282,0,0,1,1.333-11.607l13.992-11.11a8.272,8.272,0,0,1,11.608,1.333l1.3,1.638a8.281,8.281,0,0,1-1.333,11.608h0l-13.993,11.11A8.185,8.185,0,0,1,1156.437,518.554ZM1169.1,492.29a5.239,5.239,0,0,0-3.266,1.139l-13.993,11.11a5.282,5.282,0,0,0-.848,7.393l1.3,1.639a5.281,5.281,0,0,0,7.392.848l13.993-11.11a5.281,5.281,0,0,0,.849-7.393l-1.3-1.638A5.256,5.256,0,0,0,1169.1,492.29Zm5.511,12.194h0Z" fill="#333"/>
            </g>
          </g>
        </g>
        <g id="Group_6598" data-name="Group 6598">
          <g id="Group_6585" data-name="Group 6585">
            <g id="Group_6584" data-name="Group 6584">
              <path id="Path_5600" data-name="Path 5600" d="M1229.582,484.5a1.5,1.5,0,0,1-1.037-2.585l21.949-20.95a1.5,1.5,0,0,1,2.072,2.17l-21.948,20.95A1.494,1.494,0,0,1,1229.582,484.5Z" fill="#333"/>
            </g>
          </g>
          <g id="Group_6587" data-name="Group 6587">
            <g id="Group_6586" data-name="Group 6586">
              <path id="Path_5601" data-name="Path 5601" d="M1177.03,462.311c-4.087,0-6.976-1.16-8.6-3.459-3.052-4.31-.19-10.78-.067-11.054a1.5,1.5,0,0,1,.3-.436c2.994-3.034,12.986-12.99,15.833-13.7,1.723-.43,8.772-.241,18.543.076,4.33.14,8.424.272,9.683.213,2.646-.126,3.659-1.354,3.7-1.407a1.519,1.519,0,0,1,2.092-.268,1.483,1.483,0,0,1,.314,2.059c-.179.248-1.871,2.417-5.964,2.612-1.385.069-5.339-.063-9.924-.211-6.477-.21-16.268-.526-17.717-.164-1.466.437-8.481,6.89-14.227,12.7-.66,1.617-1.742,5.567-.115,7.856,1.2,1.687,3.764,2.4,7.619,2.135a97.706,97.706,0,0,0,10.287-8.577,1.5,1.5,0,0,1,2.121,2.121,99.207,99.207,0,0,1-10.987,9.133,1.507,1.507,0,0,1-.752.279Q1178.048,462.311,1177.03,462.311Z" fill="#333"/>
            </g>
          </g>
          <g id="Group_6589" data-name="Group 6589">
            <g id="Group_6588" data-name="Group 6588">
              <path id="Path_5602" data-name="Path 5602" d="M1259.183,457.488a6.815,6.815,0,0,1-3.968-1.287c-1.041-.9-23.883-20.761-25.917-23.02-2.165-2.407-.843-6.157.279-7.994a1.491,1.491,0,0,1,.117-.165c.078-.1,7.908-9.7,15.719-19.156,16.44-19.9,16.526-19.886,17.842-19.451a1.5,1.5,0,0,1,.263,2.73c-2.06,1.888-19.794,23.413-31.428,37.685-.5.865-1.538,3.259-.561,4.344,1.582,1.758,18.921,16.913,25.536,22.662a3.558,3.558,0,0,0,4.179-.046c2.4-1.712,41.564-37.077,61.939-55.536a1.5,1.5,0,0,1,2.014,2.223c-2.41,2.185-59.071,53.514-62.209,55.755A6.45,6.45,0,0,1,1259.183,457.488Zm3.131-68.224a1.461,1.461,0,0,0,.385.072A1.453,1.453,0,0,1,1262.314,389.264Zm0,0h0Z" fill="#333"/>
            </g>
          </g>
          <g id="Group_6591" data-name="Group 6591">
            <g id="Group_6590" data-name="Group 6590">
              <path id="Path_5603" data-name="Path 5603" d="M1274.751,436.116a1.493,1.493,0,0,1-.97-.358l-25.274-21.505a1.5,1.5,0,0,1,1.944-2.285l25.273,21.505a1.5,1.5,0,0,1-.973,2.643Z" fill="#333"/>
            </g>
          </g>
          <g id="Group_6593" data-name="Group 6593">
            <g id="Group_6592" data-name="Group 6592">
              <path id="Path_5604" data-name="Path 5604" d="M1240.389,432.569a1.5,1.5,0,0,1-1.088-2.533l8.425-8.869a1.5,1.5,0,0,1,2.176,2.067l-8.425,8.868A1.494,1.494,0,0,1,1240.389,432.569Z" fill="#333"/>
            </g>
          </g>
          <g id="Group_6595" data-name="Group 6595">
            <g id="Group_6594" data-name="Group 6594">
              <path id="Path_5605" data-name="Path 5605" d="M1248.481,439.441a1.5,1.5,0,0,1-1.088-2.533l8.425-8.869a1.5,1.5,0,0,1,2.176,2.067l-8.425,8.868A1.5,1.5,0,0,1,1248.481,439.441Z" fill="#333"/>
            </g>
          </g>
          <g id="Group_6597" data-name="Group 6597">
            <g id="Group_6596" data-name="Group 6596">
              <path id="Path_5606" data-name="Path 5606" d="M1256.8,446.978a1.5,1.5,0,0,1-1.087-2.533l8.423-8.867a1.5,1.5,0,0,1,2.176,2.066l-8.424,8.867A1.494,1.494,0,0,1,1256.8,446.978Z" fill="#333"/>
            </g>
          </g>
        </g>
      </g>
    </g>
  </g>
</svg>
