<svg xmlns="http://www.w3.org/2000/svg" width="440" height="250" viewBox="0 0 440 250">
  <g id="Group_7355" data-name="Group 7355" transform="translate(-472 -2205)">
    <rect id="Rectangle_485" data-name="Rectangle 485" width="440" height="250" transform="translate(472 2205)" fill="#fff"/>
    <g id="Group_4472" data-name="Group 4472" transform="translate(465.652 2552.082)">
      <g id="Group_4457" data-name="Group 4457">
        <path id="Path_4028" data-name="Path 4028" d="M110.737-219.147H21.483a1.136,1.136,0,0,1-1.135-1.136,1.135,1.135,0,0,1,1.135-1.136h89.254a7.659,7.659,0,0,0,7.65-7.649V-312.58a7.658,7.658,0,0,0-7.65-7.648H21.483a1.136,1.136,0,0,1-1.135-1.136,1.135,1.135,0,0,1,1.135-1.136h89.254a9.931,9.931,0,0,1,9.921,9.92v83.512A9.932,9.932,0,0,1,110.737-219.147Z" fill="#efd8e7"/>
      </g>
      <g id="Group_4458" data-name="Group 4458">
        <path id="Path_4029" data-name="Path 4029" d="M119.523-326.337H21.483a1.136,1.136,0,0,1-1.135-1.137,1.136,1.136,0,0,1,1.135-1.136h98.04a1.136,1.136,0,0,1,1.135,1.136A1.136,1.136,0,0,1,119.523-326.337Z" fill="#efd8e7"/>
      </g>
      <g id="Group_4470" data-name="Group 4470">
        <g id="Group_4459" data-name="Group 4459">
          <path id="Path_4030" data-name="Path 4030" d="M90.643-269.688a1.135,1.135,0,0,1-1.136-1.136v-41.284a1.136,1.136,0,0,1,1.136-1.136,1.135,1.135,0,0,1,1.135,1.136v41.284A1.134,1.134,0,0,1,90.643-269.688Z" fill="#efd8e7"/>
        </g>
        <g id="Group_4460" data-name="Group 4460">
          <path id="Path_4031" data-name="Path 4031" d="M79.283-269.688a1.134,1.134,0,0,1-1.135-1.136v-41.284a1.135,1.135,0,0,1,1.135-1.136,1.136,1.136,0,0,1,1.136,1.136v41.284A1.135,1.135,0,0,1,79.283-269.688Z" fill="#efd8e7"/>
        </g>
        <g id="Group_4461" data-name="Group 4461">
          <path id="Path_4032" data-name="Path 4032" d="M67.924-269.688a1.135,1.135,0,0,1-1.136-1.136v-41.284a1.136,1.136,0,0,1,1.136-1.136,1.136,1.136,0,0,1,1.136,1.136v41.284A1.135,1.135,0,0,1,67.924-269.688Z" fill="#efd8e7"/>
        </g>
        <g id="Group_4462" data-name="Group 4462">
          <path id="Path_4033" data-name="Path 4033" d="M56.566-269.688a1.135,1.135,0,0,1-1.136-1.136v-41.284a1.136,1.136,0,0,1,1.136-1.136,1.136,1.136,0,0,1,1.135,1.136v41.284A1.135,1.135,0,0,1,56.566-269.688Z" fill="#efd8e7"/>
        </g>
        <g id="Group_4463" data-name="Group 4463">
          <path id="Path_4034" data-name="Path 4034" d="M45.206-269.688a1.135,1.135,0,0,1-1.136-1.136v-41.284a1.136,1.136,0,0,1,1.136-1.136,1.136,1.136,0,0,1,1.136,1.136v41.284A1.135,1.135,0,0,1,45.206-269.688Z" fill="#efd8e7"/>
        </g>
        <g id="Group_4464" data-name="Group 4464">
          <path id="Path_4035" data-name="Path 4035" d="M33.847-269.688a1.135,1.135,0,0,1-1.136-1.136v-41.284a1.136,1.136,0,0,1,1.136-1.136,1.136,1.136,0,0,1,1.136,1.136v41.284A1.135,1.135,0,0,1,33.847-269.688Z" fill="#efd8e7"/>
        </g>
        <g id="Group_4465" data-name="Group 4465">
          <path id="Path_4036" data-name="Path 4036" d="M101.194-278.282H21.483a1.136,1.136,0,0,1-1.135-1.136,1.136,1.136,0,0,1,1.135-1.136h79.711a1.136,1.136,0,0,1,1.136,1.136A1.136,1.136,0,0,1,101.194-278.282Z" fill="#efd8e7"/>
        </g>
        <g id="Group_4466" data-name="Group 4466">
          <path id="Path_4037" data-name="Path 4037" d="M101.194-286.313H21.483a1.136,1.136,0,0,1-1.135-1.137,1.136,1.136,0,0,1,1.135-1.136h79.711a1.136,1.136,0,0,1,1.136,1.136A1.136,1.136,0,0,1,101.194-286.313Z" fill="#efd8e7"/>
        </g>
        <g id="Group_4467" data-name="Group 4467">
          <path id="Path_4038" data-name="Path 4038" d="M101.194-294.345H21.483a1.136,1.136,0,0,1-1.135-1.136,1.136,1.136,0,0,1,1.135-1.137h79.711a1.136,1.136,0,0,1,1.136,1.137A1.136,1.136,0,0,1,101.194-294.345Z" fill="#efd8e7"/>
        </g>
        <g id="Group_4468" data-name="Group 4468">
          <path id="Path_4039" data-name="Path 4039" d="M101.194-302.377H21.483a1.136,1.136,0,0,1-1.135-1.136,1.135,1.135,0,0,1,1.135-1.136h79.711a1.135,1.135,0,0,1,1.136,1.136A1.136,1.136,0,0,1,101.194-302.377Z" fill="#efd8e7"/>
        </g>
        <g id="Group_4469" data-name="Group 4469">
          <path id="Path_4040" data-name="Path 4040" d="M101.194-269.688H21.483a1.135,1.135,0,0,1-1.135-1.136,1.136,1.136,0,0,1,1.135-1.136h78.576v-39.012H21.483a1.135,1.135,0,0,1-1.135-1.136,1.136,1.136,0,0,1,1.135-1.136h79.711a1.136,1.136,0,0,1,1.136,1.136v41.284A1.135,1.135,0,0,1,101.194-269.688Z" fill="#efd8e7"/>
        </g>
      </g>
      <g id="Group_4471" data-name="Group 4471">
        <path id="Path_4041" data-name="Path 4041" d="M45.206-231.181H21.483a1.135,1.135,0,0,1-1.135-1.136,1.136,1.136,0,0,1,1.135-1.136H44.07V-258.4H21.483a1.136,1.136,0,0,1-1.135-1.137,1.136,1.136,0,0,1,1.135-1.136H45.206a1.136,1.136,0,0,1,1.136,1.136v27.222A1.135,1.135,0,0,1,45.206-231.181Z" fill="#efd8e7"/>
      </g>
    </g>
    <g id="Group_4485" data-name="Group 4485" transform="translate(465.652 2552.082)">
      <g id="Group_4481" data-name="Group 4481">
        <g id="Group_4473" data-name="Group 4473">
          <path id="Path_4042" data-name="Path 4042" d="M410.895-109.9a10.658,10.658,0,0,1-9.736-6.309,10.747,10.747,0,0,1-.743-2.326L389.088-175.61a10.645,10.645,0,0,1,1.6-8.044,10.647,10.647,0,0,1,6.822-4.555l32.583-6.467a1.14,1.14,0,0,1,1.335.893,1.136,1.136,0,0,1-.894,1.336l-32.581,6.467a8.388,8.388,0,0,0-5.376,3.588,8.392,8.392,0,0,0-1.264,6.339l11.329,57.074a8.481,8.481,0,0,0,.587,1.835,8.4,8.4,0,0,0,9.341,4.8l17.522-3.478a1.135,1.135,0,0,1,1.336.892,1.137,1.137,0,0,1-.893,1.336l-17.522,3.479A10.9,10.9,0,0,1,410.895-109.9Z" fill="#efd8e7"/>
        </g>
        <g id="Group_4480" data-name="Group 4480">
          <g id="Group_4474" data-name="Group 4474">
            <path id="Path_4043" data-name="Path 4043" d="M388.549-168.109a1.137,1.137,0,0,1-1.113-.916,1.135,1.135,0,0,1,.893-1.335l5.695-1.13a1.139,1.139,0,0,1,1.334.893,1.134,1.134,0,0,1-.893,1.335l-5.694,1.13A1.131,1.131,0,0,1,388.549-168.109Z" fill="#efd8e7"/>
          </g>
          <g id="Group_4475" data-name="Group 4475">
            <path id="Path_4044" data-name="Path 4044" d="M390.482-158.371a1.138,1.138,0,0,1-1.114-.916,1.136,1.136,0,0,1,.894-1.335l5.694-1.13a1.141,1.141,0,0,1,1.335.894,1.136,1.136,0,0,1-.893,1.335l-5.7,1.129A1.114,1.114,0,0,1,390.482-158.371Z" fill="#efd8e7"/>
          </g>
          <g id="Group_4476" data-name="Group 4476">
            <path id="Path_4045" data-name="Path 4045" d="M392.415-148.632a1.137,1.137,0,0,1-1.113-.915,1.136,1.136,0,0,1,.892-1.336l5.7-1.131a1.136,1.136,0,0,1,1.336.893,1.137,1.137,0,0,1-.893,1.336l-5.694,1.131A1.22,1.22,0,0,1,392.415-148.632Z" fill="#efd8e7"/>
          </g>
          <g id="Group_4477" data-name="Group 4477">
            <path id="Path_4046" data-name="Path 4046" d="M394.348-138.894a1.138,1.138,0,0,1-1.114-.916,1.136,1.136,0,0,1,.894-1.335l5.694-1.129a1.137,1.137,0,0,1,1.335.893,1.135,1.135,0,0,1-.893,1.335l-5.7,1.13A1.112,1.112,0,0,1,394.348-138.894Z" fill="#efd8e7"/>
          </g>
          <g id="Group_4478" data-name="Group 4478">
            <path id="Path_4047" data-name="Path 4047" d="M396.281-129.154a1.137,1.137,0,0,1-1.113-.915,1.135,1.135,0,0,1,.893-1.336l5.694-1.131a1.133,1.133,0,0,1,1.336.892,1.135,1.135,0,0,1-.893,1.336l-5.694,1.131A1.133,1.133,0,0,1,396.281-129.154Z" fill="#efd8e7"/>
          </g>
          <g id="Group_4479" data-name="Group 4479">
            <path id="Path_4048" data-name="Path 4048" d="M398.214-119.416a1.137,1.137,0,0,1-1.113-.915,1.136,1.136,0,0,1,.892-1.336l5.695-1.131a1.139,1.139,0,0,1,1.336.893,1.137,1.137,0,0,1-.893,1.336l-5.694,1.131A1.23,1.23,0,0,1,398.214-119.416Z" fill="#efd8e7"/>
          </g>
        </g>
      </g>
      <g id="Group_4484" data-name="Group 4484">
        <g id="Group_4482" data-name="Group 4482">
          <path id="Path_4049" data-name="Path 4049" d="M415.227-153.377a1.138,1.138,0,0,1-1.114-.916,1.136,1.136,0,0,1,.894-1.335l14.535-2.885a1.138,1.138,0,0,1,1.335.894,1.135,1.135,0,0,1-.894,1.335L415.448-153.4A1.191,1.191,0,0,1,415.227-153.377Z" fill="#efd8e7"/>
        </g>
        <g id="Group_4483" data-name="Group 4483">
          <path id="Path_4050" data-name="Path 4050" d="M412.02-145.988a1.138,1.138,0,0,1-1.114-.915,1.136,1.136,0,0,1,.893-1.336l17.742-3.523a1.138,1.138,0,0,1,1.336.893,1.136,1.136,0,0,1-.893,1.336l-17.742,3.522A1.131,1.131,0,0,1,412.02-145.988Z" fill="#efd8e7"/>
        </g>
      </g>
    </g>
    <g id="Group_4493" data-name="Group 4493" transform="translate(465.652 2552.082)">
      <g id="Group_4486" data-name="Group 4486">
        <path id="Path_4051" data-name="Path 4051" d="M346.209-235.269a1.135,1.135,0,0,1-1.085-.8l-17.372-56.063a1.133,1.133,0,0,1,.285-1.143,1.129,1.129,0,0,1,1.147-.275l61.063,19.576,39.294-50.673a1.137,1.137,0,0,1,1.594-.2,1.137,1.137,0,0,1,.2,1.6l-39.781,51.3a1.134,1.134,0,0,1-1.244.386l-59.743-19.153,16.39,52.893,83.023-25.726a1.135,1.135,0,0,1,1.42.749,1.136,1.136,0,0,1-.749,1.422l-84.107,26.062A1.15,1.15,0,0,1,346.209-235.269Z" fill="#efd8e7"/>
      </g>
      <g id="Group_4487" data-name="Group 4487">
        <path id="Path_4052" data-name="Path 4052" d="M421.209-323.081a1.136,1.136,0,0,1-1.085-.8L418.6-328.8a1.136,1.136,0,0,1,.749-1.422,1.137,1.137,0,0,1,1.421.749l1.525,4.922a1.136,1.136,0,0,1-.749,1.422A1.119,1.119,0,0,1,421.209-323.081Z" fill="#efd8e7"/>
      </g>
      <g id="Group_4488" data-name="Group 4488">
        <path id="Path_4053" data-name="Path 4053" d="M336.3-296.771a1.135,1.135,0,0,1-1.085-.8l-7.521-24.271a1.138,1.138,0,0,1,.081-.867,1.133,1.133,0,0,1,.668-.555l22.472-6.963a1.138,1.138,0,0,1,1.421.749,1.136,1.136,0,0,1-.749,1.422L330.2-321.429l7.184,23.186a1.138,1.138,0,0,1-.749,1.422A1.149,1.149,0,0,1,336.3-296.771Z" fill="#efd8e7"/>
      </g>
      <g id="Group_4489" data-name="Group 4489">
        <path id="Path_4054" data-name="Path 4054" d="M342.259-315.321a1.135,1.135,0,0,1-1.085-.8,1.135,1.135,0,0,1,.749-1.421l40.933-12.684a1.136,1.136,0,0,1,1.42.749,1.136,1.136,0,0,1-.749,1.422L342.6-315.372A1.124,1.124,0,0,1,342.259-315.321Z" fill="#efd8e7"/>
      </g>
      <g id="Group_4490" data-name="Group 4490">
        <path id="Path_4055" data-name="Path 4055" d="M345.369-305.282a1.136,1.136,0,0,1-1.085-.8,1.137,1.137,0,0,1,.749-1.421l63.546-19.691a1.139,1.139,0,0,1,1.421.749,1.136,1.136,0,0,1-.749,1.422L345.7-305.333A1.114,1.114,0,0,1,345.369-305.282Z" fill="#efd8e7"/>
      </g>
      <g id="Group_4491" data-name="Group 4491">
        <path id="Path_4056" data-name="Path 4056" d="M348.481-295.243a1.134,1.134,0,0,1-1.085-.8,1.136,1.136,0,0,1,.749-1.422l63.545-19.691a1.137,1.137,0,0,1,1.42.749,1.136,1.136,0,0,1-.749,1.422l-63.545,19.691A1.144,1.144,0,0,1,348.481-295.243Z" fill="#efd8e7"/>
      </g>
      <g id="Group_4492" data-name="Group 4492">
        <path id="Path_4057" data-name="Path 4057" d="M366.106-289.7a1.134,1.134,0,0,1-1.085-.8,1.136,1.136,0,0,1,.749-1.422l34.516-10.7a1.137,1.137,0,0,1,1.421.749,1.136,1.136,0,0,1-.749,1.422l-34.517,10.7A1.144,1.144,0,0,1,366.106-289.7Z" fill="#efd8e7"/>
      </g>
    </g>
    <g id="Group_4499" data-name="Group 4499" transform="translate(465.652 2552.082)">
      <g id="Group_4495" data-name="Group 4495">
        <g id="Group_4494" data-name="Group 4494">
          <path id="Path_4058" data-name="Path 4058" d="M84.541-114a9.334,9.334,0,0,1-5.915-2.107L26.366-158.57a9.35,9.35,0,0,1-3.425-6.333A9.352,9.352,0,0,1,25-171.8L42.76-193.663a9.346,9.346,0,0,1,6.334-3.425,9.331,9.331,0,0,1,6.9,2.057l52.26,42.464a9.35,9.35,0,0,1,3.425,6.334,9.341,9.341,0,0,1-2.057,6.9L91.86-117.474a9.346,9.346,0,0,1-6.334,3.425A9.585,9.585,0,0,1,84.541-114ZM50.074-194.866a7.214,7.214,0,0,0-.747.038,7.087,7.087,0,0,0-4.8,2.6L26.762-170.37a7.084,7.084,0,0,0-1.56,5.232,7.09,7.09,0,0,0,2.6,4.8l52.26,42.465a7.064,7.064,0,0,0,5.233,1.559,7.089,7.089,0,0,0,4.8-2.6l17.761-21.86h0a7.081,7.081,0,0,0,1.56-5.233,7.086,7.086,0,0,0-2.6-4.8L54.561-193.268A7.082,7.082,0,0,0,50.074-194.866Z" fill="#efd8e7"/>
        </g>
      </g>
      <g id="Group_4496" data-name="Group 4496">
        <path id="Path_4059" data-name="Path 4059" d="M34.92-168.514a6.284,6.284,0,0,1-3.975-1.411,1.137,1.137,0,0,1-.165-1.6l13.479-16.584a1.135,1.135,0,0,1,1.6-.165,6.263,6.263,0,0,1,2.3,4.249,6.262,6.262,0,0,1-1.38,4.628l-6.95,8.553A6.3,6.3,0,0,1,34.92-168.514ZM33.362-171.1a4.017,4.017,0,0,0,1.979.292,4.017,4.017,0,0,0,2.72-1.47l6.95-8.553h0a4.017,4.017,0,0,0,.884-2.962,4.025,4.025,0,0,0-.691-1.877Z" fill="#efd8e7"/>
      </g>
      <g id="Group_4498" data-name="Group 4498">
        <g id="Group_4497" data-name="Group 4497">
          <path id="Path_4060" data-name="Path 4060" d="M84.555-118.667a4.719,4.719,0,0,1-2.986-1.06L29.31-162.191a4.713,4.713,0,0,1-1.725-3.193,4.709,4.709,0,0,1,1.035-3.477l17.762-21.86h0a4.748,4.748,0,0,1,6.669-.689l52.261,42.465a4.747,4.747,0,0,1,.689,6.669l-17.763,21.86A4.734,4.734,0,0,1,84.555-118.667Zm-36.409-70.62L30.384-167.428a2.448,2.448,0,0,0-.538,1.811,2.45,2.45,0,0,0,.9,1.662L83-121.49a2.473,2.473,0,0,0,3.473-.36l17.762-21.859a2.471,2.471,0,0,0-.359-3.473l-52.26-42.464a2.472,2.472,0,0,0-3.472.359Z" fill="#efd8e7"/>
        </g>
      </g>
    </g>
    <g id="Group_4504" data-name="Group 4504" transform="translate(465.652 2552.082)">
      <g id="Group_4500" data-name="Group 4500">
        <path id="Path_4061" data-name="Path 4061" d="M149.555-320.938a6.706,6.706,0,0,1-.7-.036,6.592,6.592,0,0,1-5.839-5.908,6.528,6.528,0,0,1,1.471-4.81,6.53,6.53,0,0,1,4.443-2.36,6.6,6.6,0,0,1,7.015,4.991,6.531,6.531,0,0,1,.156.921v0a6.53,6.53,0,0,1-1.472,4.81,6.532,6.532,0,0,1-4.443,2.36C149.979-320.947,149.766-320.938,149.555-320.938Zm0-10.872c-.135,0-.271.006-.409.019a4.278,4.278,0,0,0-2.906,1.545,4.277,4.277,0,0,0-.963,3.146,4.313,4.313,0,0,0,3.82,3.866,4.3,4.3,0,0,0,.872.005,4.277,4.277,0,0,0,2.907-1.545,4.277,4.277,0,0,0,.963-3.146h0a4.425,4.425,0,0,0-.1-.6A4.318,4.318,0,0,0,149.559-331.81Z" fill="#efd8e7"/>
      </g>
      <g id="Group_4501" data-name="Group 4501">
        <path id="Path_4062" data-name="Path 4062" d="M154.3-316.811a6.525,6.525,0,0,1-4.151-1.486,1.136,1.136,0,0,1-.16-1.6,1.136,1.136,0,0,1,1.6-.16,4.27,4.27,0,0,0,3.134.952,4.305,4.305,0,0,0,3.87-4.691,4.262,4.262,0,0,0-1.143-2.529,1.137,1.137,0,0,1,.052-1.606,1.139,1.139,0,0,1,1.607.051,6.521,6.521,0,0,1,1.746,3.866,6.581,6.581,0,0,1-5.915,7.171Q154.616-316.811,154.3-316.811Z" fill="#efd8e7"/>
      </g>
      <g id="Group_4502" data-name="Group 4502">
        <path id="Path_4063" data-name="Path 4063" d="M166.706-325.327a6.582,6.582,0,0,1-6.539-5.944,1.137,1.137,0,0,1,1.023-1.24,1.136,1.136,0,0,1,1.239,1.022,4.309,4.309,0,0,0,4.692,3.87,4.3,4.3,0,0,0,3.869-4.692,1.136,1.136,0,0,1,1.023-1.239,1.135,1.135,0,0,1,1.239,1.022,6.581,6.581,0,0,1-5.914,7.171Q167.02-325.327,166.706-325.327Z" fill="#efd8e7"/>
      </g>
      <g id="Group_4503" data-name="Group 4503">
        <path id="Path_4064" data-name="Path 4064" d="M168.44-307.176a6.52,6.52,0,0,1-4.169-1.5,6.527,6.527,0,0,1-2.361-4.442,6.581,6.581,0,0,1,5.914-7.171,6.588,6.588,0,0,1,7.171,5.915h0a6.579,6.579,0,0,1-5.915,7.17C168.866-307.187,168.652-307.176,168.44-307.176Zm.016-10.874c-.138,0-.275.007-.415.02a4.305,4.305,0,0,0-3.869,4.692,4.27,4.27,0,0,0,1.545,2.906,4.273,4.273,0,0,0,3.146.963,4.3,4.3,0,0,0,3.87-4.691A4.306,4.306,0,0,0,168.456-318.05Z" fill="#efd8e7"/>
      </g>
    </g>
    <g id="Group_4522" data-name="Group 4522" transform="translate(465.652 2552.082)">
      <g id="Group_4505" data-name="Group 4505">
        <path id="Path_4065" data-name="Path 4065" d="M348.074-118.731a1.131,1.131,0,0,1-.511-.122l-23.787-12.011a1.137,1.137,0,0,1-.5-1.527l11-21.785a1.141,1.141,0,0,1,.66-.567,1.143,1.143,0,0,1,.867.064l23.786,12.012a1.136,1.136,0,0,1,.5,1.526l-11,21.786a1.139,1.139,0,0,1-.659.567A1.147,1.147,0,0,1,348.074-118.731Zm-22.259-13.65,21.757,10.987,9.977-19.756-21.758-10.988Z" fill="#efd8e7"/>
      </g>
      <g id="Group_4507" data-name="Group 4507">
        <g id="Group_4506" data-name="Group 4506">
          <path id="Path_4066" data-name="Path 4066" d="M353.572-129.622a1.134,1.134,0,0,1-.511-.123l-23.783-12.014a1.136,1.136,0,0,1-.5-1.526,1.135,1.135,0,0,1,1.527-.5l23.782,12.014a1.135,1.135,0,0,1,.5,1.526A1.137,1.137,0,0,1,353.572-129.622Z" fill="#efd8e7"/>
        </g>
      </g>
      <g id="Group_4509" data-name="Group 4509">
        <g id="Group_4508" data-name="Group 4508">
          <path id="Path_4067" data-name="Path 4067" d="M336.277-124.931a1.137,1.137,0,0,1-.511-.123,1.135,1.135,0,0,1-.5-1.526l10.907-21.59a1.135,1.135,0,0,1,1.526-.5,1.134,1.134,0,0,1,.5,1.526l-10.907,21.59A1.135,1.135,0,0,1,336.277-124.931Z" fill="#efd8e7"/>
        </g>
      </g>
      <g id="Group_4510" data-name="Group 4510">
        <path id="Path_4068" data-name="Path 4068" d="M363.13-148.548a1.142,1.142,0,0,1-.511-.122l-23.786-12.011a1.137,1.137,0,0,1-.5-1.526l5.041-9.983a1.137,1.137,0,0,1,.659-.568,1.142,1.142,0,0,1,.868.065l23.786,12.011a1.138,1.138,0,0,1,.567.66,1.135,1.135,0,0,1-.064.867l-5.041,9.982A1.138,1.138,0,0,1,363.13-148.548ZM340.871-162.2l21.758,10.986,4.017-7.954-21.758-10.987Z" fill="#efd8e7"/>
      </g>
      <g id="Group_4511" data-name="Group 4511">
        <path id="Path_4069" data-name="Path 4069" d="M349.27-111.417a4.146,4.146,0,0,1-1.875-.45l-29.142-14.715A4.149,4.149,0,0,1,316.172-129a4.142,4.142,0,0,1,.239-3.182L339.2-177.315a4.138,4.138,0,0,1,2.419-2.081,4.143,4.143,0,0,1,3.181.238l29.141,14.716a4.135,4.135,0,0,1,2.081,2.419,4.141,4.141,0,0,1-.238,3.18l-22.792,45.135a4.143,4.143,0,0,1-2.419,2.08A4.164,4.164,0,0,1,349.27-111.417Zm-6.345-65.917a1.9,1.9,0,0,0-.594.1,1.877,1.877,0,0,0-1.1.946L318.44-131.157a1.879,1.879,0,0,0-.11,1.446,1.889,1.889,0,0,0,.947,1.1L348.419-113.9h0a1.886,1.886,0,0,0,1.445.109,1.884,1.884,0,0,0,1.1-.946l22.791-45.134a1.886,1.886,0,0,0,.109-1.447,1.876,1.876,0,0,0-.946-1.1l-29.142-14.716A1.874,1.874,0,0,0,342.925-177.334Z" fill="#efd8e7"/>
      </g>
      <g id="Group_4514" data-name="Group 4514">
        <g id="Group_4512" data-name="Group 4512">
          <path id="Path_4070" data-name="Path 4070" d="M337.309-141.747a1.135,1.135,0,0,1-.512-.123,1.135,1.135,0,0,1-.5-1.526l2.4-4.742a1.136,1.136,0,0,1,1.527-.5,1.137,1.137,0,0,1,.5,1.527l-2.4,4.741A1.135,1.135,0,0,1,337.309-141.747Z" fill="#efd8e7"/>
        </g>
        <g id="Group_4513" data-name="Group 4513">
          <path id="Path_4071" data-name="Path 4071" d="M340.877-142.919a1.134,1.134,0,0,1-.512-.123l-4.741-2.4a1.138,1.138,0,0,1-.5-1.527,1.137,1.137,0,0,1,1.526-.5l4.742,2.4a1.136,1.136,0,0,1,.5,1.526A1.137,1.137,0,0,1,340.877-142.919Z" fill="#efd8e7"/>
        </g>
      </g>
      <g id="Group_4517" data-name="Group 4517">
        <g id="Group_4515" data-name="Group 4515">
          <path id="Path_4072" data-name="Path 4072" d="M330.4-132.252a1.138,1.138,0,0,1-1.079-.782,1.136,1.136,0,0,1,.725-1.434l5.047-1.657a1.131,1.131,0,0,1,1.433.725,1.134,1.134,0,0,1-.724,1.433l-5.047,1.657A1.128,1.128,0,0,1,330.4-132.252Z" fill="#efd8e7"/>
        </g>
        <g id="Group_4516" data-name="Group 4516">
          <path id="Path_4073" data-name="Path 4073" d="M333.757-130.557a1.135,1.135,0,0,1-1.079-.782l-1.658-5.048a1.134,1.134,0,0,1,.724-1.433,1.134,1.134,0,0,1,1.434.724l1.658,5.048a1.136,1.136,0,0,1-.725,1.434A1.12,1.12,0,0,1,333.757-130.557Z" fill="#efd8e7"/>
        </g>
      </g>
      <g id="Group_4518" data-name="Group 4518">
        <path id="Path_4074" data-name="Path 4074" d="M352.806-136.889a1.135,1.135,0,0,1-.512-.123l-4.741-2.4a1.136,1.136,0,0,1-.5-1.527,1.135,1.135,0,0,1,1.526-.5l4.741,2.4a1.135,1.135,0,0,1,.5,1.526A1.133,1.133,0,0,1,352.806-136.889Z" fill="#efd8e7"/>
      </g>
      <g id="Group_4521" data-name="Group 4521">
        <g id="Group_4519" data-name="Group 4519">
          <path id="Path_4075" data-name="Path 4075" d="M346.495-124.407a1.138,1.138,0,0,1-.512-.123l-4.741-2.4a1.136,1.136,0,0,1-.5-1.526,1.136,1.136,0,0,1,1.527-.5l4.741,2.4a1.137,1.137,0,0,1,.5,1.527A1.137,1.137,0,0,1,346.495-124.407Z" fill="#efd8e7"/>
        </g>
        <g id="Group_4520" data-name="Group 4520">
          <path id="Path_4076" data-name="Path 4076" d="M347.968-127.32a1.134,1.134,0,0,1-.512-.123l-4.741-2.4a1.135,1.135,0,0,1-.5-1.526,1.136,1.136,0,0,1,1.526-.5l4.742,2.4a1.137,1.137,0,0,1,.5,1.527A1.138,1.138,0,0,1,347.968-127.32Z" fill="#efd8e7"/>
        </g>
      </g>
    </g>
    <g id="Group_7228" data-name="Group 7228" transform="translate(0.184 -0.853)">
      <path id="Path_4077" data-name="Path 4077" d="M283.523-145.023H220.414V-234.2h82.339v76.677l-12.5,12.5" transform="translate(465.652 2552.082)" fill="#fff"/>
      <g id="Group_4523" data-name="Group 4523" transform="translate(465.652 2552.082)">
        <path id="Path_4078" data-name="Path 4078" d="M290.679-243.869H240.171v2a1.157,1.157,0,0,0,1.156,1.157h49.939a2.388,2.388,0,0,0,1.689-.7l8.3-8.3a2.348,2.348,0,0,0,.688-1.661v-3.76Z" fill="#dfb1cf"/>
      </g>
      <g id="Group_4524" data-name="Group 4524" transform="translate(465.652 2552.082)">
        <path id="Path_4079" data-name="Path 4079" d="M284.007-242.46H241.885a1.5,1.5,0,0,1-1.5-1.5v-54.769a1.5,1.5,0,0,1,1.5-1.5h58.4a1.5,1.5,0,0,1,1.5,1.5v45.221a1.5,1.5,0,0,1-.439,1.061L291.8-242.9a1.5,1.5,0,0,1-2.121,0,1.5,1.5,0,0,1,0-2.121l9.107-9.108v-43.1h-55.4v51.769h40.622a1.5,1.5,0,0,1,1.5,1.5A1.5,1.5,0,0,1,284.007-242.46Z" fill="#b74d94"/>
      </g>
      <g id="Group_4525" data-name="Group 4525" transform="translate(465.652 2552.082)">
        <path id="Path_4080" data-name="Path 4080" d="M290.737-242.46a1.5,1.5,0,0,1-1.5-1.5v-9.548a1.5,1.5,0,0,1,1.5-1.5h9.547a1.5,1.5,0,0,1,1.5,1.5,1.5,1.5,0,0,1-1.5,1.5h-8.047v8.048A1.5,1.5,0,0,1,290.737-242.46Z" fill="#b74d94"/>
      </g>
      <g id="Group_4526" data-name="Group 4526" transform="translate(465.652 2552.082)">
        <path id="Path_4081" data-name="Path 4081" d="M217.4-245.1H147.217v2.78a1.607,1.607,0,0,0,1.607,1.607h69.387a3.318,3.318,0,0,0,2.346-.972l11.534-11.533a3.267,3.267,0,0,0,.955-2.308v-5.225Z" fill="#dfb1cf"/>
      </g>
      <path id="Path_4082" data-name="Path 4082" d="M231.256-257.693v-41.037H148.917v54.5h62.148" transform="translate(465.652 2552.082)" fill="#fff"/>
      <g id="Group_4527" data-name="Group 4527" transform="translate(465.652 2552.082)">
        <path id="Path_4083" data-name="Path 4083" d="M211.066-242.732H148.917a1.5,1.5,0,0,1-1.5-1.5v-54.5a1.5,1.5,0,0,1,1.5-1.5h82.339a1.5,1.5,0,0,1,1.5,1.5v41.037a1.5,1.5,0,0,1-1.5,1.5,1.5,1.5,0,0,1-1.5-1.5v-39.537H150.417v51.5h60.649a1.5,1.5,0,0,1,1.5,1.5A1.5,1.5,0,0,1,211.066-242.732Z" fill="#b74d94"/>
      </g>
      <g id="Group_4528" data-name="Group 4528" transform="translate(465.652 2552.082)">
        <path id="Path_4084" data-name="Path 4084" d="M217.795-242.732a1.5,1.5,0,0,1-1.061-.439,1.5,1.5,0,0,1,0-2.121L230.2-258.753a1.5,1.5,0,0,1,2.121,0,1.5,1.5,0,0,1,0,2.121l-13.46,13.461A1.5,1.5,0,0,1,217.795-242.732Z" fill="#b74d94"/>
      </g>
      <g id="Group_4529" data-name="Group 4529" transform="translate(465.652 2552.082)">
        <path id="Path_4085" data-name="Path 4085" d="M217.795-242.732a1.5,1.5,0,0,1-1.5-1.5v-13.46a1.5,1.5,0,0,1,1.5-1.5h13.461a1.5,1.5,0,0,1,1.5,1.5,1.5,1.5,0,0,1-1.5,1.5H219.295v11.96A1.5,1.5,0,0,1,217.795-242.732Z" fill="#b74d94"/>
      </g>
      <g id="Group_4530" data-name="Group 4530" transform="translate(465.652 2552.082)">
        <path id="Path_4086" data-name="Path 4086" d="M288.842-145.836H218.705v2.779a1.605,1.605,0,0,0,1.606,1.605h70.308a3.315,3.315,0,0,0,2.344-.971l10.555-10.554a3.029,3.029,0,0,0,.886-2.14V-160.5Z" fill="#dfb1cf"/>
      </g>
      <g id="Group_4531" data-name="Group 4531" transform="translate(465.652 2552.082)">
        <path id="Path_4087" data-name="Path 4087" d="M157.851-142.423a3.313,3.313,0,0,0,2.344.971h50.188a1.6,1.6,0,0,0,1.605-1.605v-2.779H161.972l-14.808-13.95v5.191a3.521,3.521,0,0,0,1.029,2.488Z" fill="#dfb1cf"/>
      </g>
      <path id="Path_4088" data-name="Path 4088" d="M167.185-144.887h43.094V-234.2H148.917v77.639l11.538,11.674" transform="translate(465.652 2552.082)" fill="#fff"/>
      <g id="Group_4532" data-name="Group 4532" transform="translate(465.652 2552.082)">
        <path id="Path_4089" data-name="Path 4089" d="M160.455-143.388a1.491,1.491,0,0,1-1.066-.445l-11.538-11.674a1.5,1.5,0,0,1-.434-1.055V-234.2a1.5,1.5,0,0,1,1.5-1.5h61.362a1.5,1.5,0,0,1,1.5,1.5v89.312a1.5,1.5,0,0,1-1.5,1.5H167.186a1.5,1.5,0,0,1-1.5-1.5,1.5,1.5,0,0,1,1.5-1.5h41.593V-232.7H150.417v75.522l11.1,11.236a1.5,1.5,0,0,1-.012,2.121A1.5,1.5,0,0,1,160.455-143.388Z" fill="#b74d94"/>
      </g>
      <g id="Group_4533" data-name="Group 4533" transform="translate(465.652 2552.082)">
        <path id="Path_4090" data-name="Path 4090" d="M217.795-253.3H160.342a1.5,1.5,0,0,1-1.5-1.5v-33.651a1.5,1.5,0,0,1,1.5-1.5,1.5,1.5,0,0,1,1.5,1.5V-256.3h55.953a1.5,1.5,0,0,1,1.5,1.5A1.5,1.5,0,0,1,217.795-253.3Z" fill="#b74d94"/>
      </g>
      <g id="Group_4534" data-name="Group 4534" transform="translate(465.652 2552.082)">
        <path id="Path_4091" data-name="Path 4091" d="M167.328-260.182a1.5,1.5,0,0,1-1.5-1.5v-13.337a1.5,1.5,0,0,1,1.5-1.5,1.5,1.5,0,0,1,1.5,1.5v13.337A1.5,1.5,0,0,1,167.328-260.182Z" fill="#dfb1cf"/>
      </g>
      <g id="Group_4535" data-name="Group 4535" transform="translate(465.652 2552.082)">
        <path id="Path_4092" data-name="Path 4092" d="M174.738-260.182a1.5,1.5,0,0,1-1.5-1.5v-21.7a1.5,1.5,0,0,1,1.5-1.5,1.5,1.5,0,0,1,1.5,1.5v21.7A1.5,1.5,0,0,1,174.738-260.182Z" fill="#dfb1cf"/>
      </g>
      <g id="Group_4536" data-name="Group 4536" transform="translate(465.652 2552.082)">
        <path id="Path_4093" data-name="Path 4093" d="M182.148-260.182a1.5,1.5,0,0,1-1.5-1.5v-8.362a1.5,1.5,0,0,1,1.5-1.5,1.5,1.5,0,0,1,1.5,1.5v8.362A1.5,1.5,0,0,1,182.148-260.182Z" fill="#dfb1cf"/>
      </g>
      <g id="Group_4537" data-name="Group 4537" transform="translate(465.652 2552.082)">
        <path id="Path_4094" data-name="Path 4094" d="M189.557-260.182a1.5,1.5,0,0,1-1.5-1.5v-13.337a1.5,1.5,0,0,1,1.5-1.5,1.5,1.5,0,0,1,1.5,1.5v13.337A1.5,1.5,0,0,1,189.557-260.182Z" fill="#dfb1cf"/>
      </g>
      <g id="Group_4538" data-name="Group 4538" transform="translate(465.652 2552.082)">
        <path id="Path_4095" data-name="Path 4095" d="M196.967-260.182a1.5,1.5,0,0,1-1.5-1.5V-283.7a1.5,1.5,0,0,1,1.5-1.5,1.5,1.5,0,0,1,1.5,1.5v22.017A1.5,1.5,0,0,1,196.967-260.182Z" fill="#dfb1cf"/>
      </g>
      <g id="Group_4539" data-name="Group 4539" transform="translate(465.652 2552.082)">
        <path id="Path_4096" data-name="Path 4096" d="M204.376-260.182a1.5,1.5,0,0,1-1.5-1.5v-13.337a1.5,1.5,0,0,1,1.5-1.5,1.5,1.5,0,0,1,1.5,1.5v13.337A1.5,1.5,0,0,1,204.376-260.182Z" fill="#dfb1cf"/>
      </g>
      <g id="Group_4540" data-name="Group 4540" transform="translate(465.652 2552.082)">
        <path id="Path_4097" data-name="Path 4097" d="M211.785-260.182a1.5,1.5,0,0,1-1.5-1.5V-279.4a1.5,1.5,0,0,1,1.5-1.5,1.5,1.5,0,0,1,1.5,1.5v17.721A1.5,1.5,0,0,1,211.785-260.182Z" fill="#dfb1cf"/>
      </g>
      <path id="Path_4098" data-name="Path 4098" d="M260.446-288.753v10.723l7.582,7.581s-15.041,10.3-18.305-7.581C249.723-278.03,249.061-288.09,260.446-288.753Z" transform="translate(465.652 2552.082)" fill="#dfb1cf"/>
      <g id="Group_4546" data-name="Group 4546" transform="translate(465.652 2552.082)">
        <g id="Group_4541" data-name="Group 4541">
          <path id="Path_4099" data-name="Path 4099" d="M292.337-286.227h-11.4a1.5,1.5,0,0,1-1.5-1.5,1.5,1.5,0,0,1,1.5-1.5h11.4a1.5,1.5,0,0,1,1.5,1.5A1.5,1.5,0,0,1,292.337-286.227Z" fill="#dfb1cf"/>
        </g>
        <g id="Group_4542" data-name="Group 4542">
          <path id="Path_4100" data-name="Path 4100" d="M288.941-279.42h-8.009a1.5,1.5,0,0,1-1.5-1.5,1.5,1.5,0,0,1,1.5-1.5h8.009a1.5,1.5,0,0,1,1.5,1.5A1.5,1.5,0,0,1,288.941-279.42Z" fill="#dfb1cf"/>
        </g>
        <g id="Group_4543" data-name="Group 4543">
          <path id="Path_4101" data-name="Path 4101" d="M290.987-272.613H280.932a1.5,1.5,0,0,1-1.5-1.5,1.5,1.5,0,0,1,1.5-1.5h10.055a1.5,1.5,0,0,1,1.5,1.5A1.5,1.5,0,0,1,290.987-272.613Z" fill="#dfb1cf"/>
        </g>
        <g id="Group_4544" data-name="Group 4544">
          <path id="Path_4102" data-name="Path 4102" d="M290.987-265.807H280.932a1.5,1.5,0,0,1-1.5-1.5,1.5,1.5,0,0,1,1.5-1.5h10.055a1.5,1.5,0,0,1,1.5,1.5A1.5,1.5,0,0,1,290.987-265.807Z" fill="#dfb1cf"/>
        </g>
        <g id="Group_4545" data-name="Group 4545">
          <path id="Path_4103" data-name="Path 4103" d="M283.633-252.193H249.716a1.5,1.5,0,0,1-1.5-1.5,1.5,1.5,0,0,1,1.5-1.5h33.917a1.5,1.5,0,0,1,1.5,1.5A1.5,1.5,0,0,1,283.633-252.193Z" fill="#dfb1cf"/>
        </g>
      </g>
      <g id="Group_4551" data-name="Group 4551" transform="translate(465.652 2552.082)">
        <g id="Group_4547" data-name="Group 4547">
          <path id="Path_4104" data-name="Path 4104" d="M295.357-188.429H283.951a1.5,1.5,0,0,1-1.5-1.5,1.5,1.5,0,0,1,1.5-1.5h11.406a1.5,1.5,0,0,1,1.5,1.5A1.5,1.5,0,0,1,295.357-188.429Z" fill="#dfb1cf"/>
        </g>
        <g id="Group_4548" data-name="Group 4548">
          <path id="Path_4105" data-name="Path 4105" d="M291.96-181.622h-8.009a1.5,1.5,0,0,1-1.5-1.5,1.5,1.5,0,0,1,1.5-1.5h8.009a1.5,1.5,0,0,1,1.5,1.5A1.5,1.5,0,0,1,291.96-181.622Z" fill="#dfb1cf"/>
        </g>
        <g id="Group_4549" data-name="Group 4549">
          <path id="Path_4106" data-name="Path 4106" d="M294.007-174.815H283.951a1.5,1.5,0,0,1-1.5-1.5,1.5,1.5,0,0,1,1.5-1.5h10.056a1.5,1.5,0,0,1,1.5,1.5A1.5,1.5,0,0,1,294.007-174.815Z" fill="#dfb1cf"/>
        </g>
        <g id="Group_4550" data-name="Group 4550">
          <path id="Path_4107" data-name="Path 4107" d="M294.007-168.009H283.951a1.5,1.5,0,0,1-1.5-1.5,1.5,1.5,0,0,1,1.5-1.5h10.056a1.5,1.5,0,0,1,1.5,1.5A1.5,1.5,0,0,1,294.007-168.009Z" fill="#dfb1cf"/>
        </g>
      </g>
      <g id="Group_4555" data-name="Group 4555" transform="translate(465.652 2552.082)">
        <g id="Group_4552" data-name="Group 4552">
          <path id="Path_4108" data-name="Path 4108" d="M239.444-152.286h-10.43a1.5,1.5,0,0,1-1.5-1.5v-11.879a1.5,1.5,0,0,1,1.5-1.5h10.43a1.5,1.5,0,0,1,1.5,1.5v11.879A1.5,1.5,0,0,1,239.444-152.286Zm-8.93-3h7.43v-8.879h-7.43Z" fill="#b74d94"/>
        </g>
        <g id="Group_4553" data-name="Group 4553">
          <path id="Path_4109" data-name="Path 4109" d="M258.11-152.286H247.681a1.5,1.5,0,0,1-1.5-1.5v-22.926a1.5,1.5,0,0,1,1.5-1.5H258.11a1.5,1.5,0,0,1,1.5,1.5v22.926A1.5,1.5,0,0,1,258.11-152.286Zm-8.929-3h7.429v-19.926h-7.429Z" fill="#b74d94"/>
        </g>
        <g id="Group_4554" data-name="Group 4554">
          <path id="Path_4110" data-name="Path 4110" d="M276.777-152.286h-10.43a1.5,1.5,0,0,1-1.5-1.5v-36.143a1.5,1.5,0,0,1,1.5-1.5h10.43a1.5,1.5,0,0,1,1.5,1.5v36.143A1.5,1.5,0,0,1,276.777-152.286Zm-8.93-3h7.43v-33.143h-7.43Z" fill="#b74d94"/>
        </g>
      </g>
      <g id="Group_4556" data-name="Group 4556" transform="translate(465.652 2552.082)">
        <path id="Path_4111" data-name="Path 4111" d="M160.7-201.139a1.5,1.5,0,0,1-1.057-.435,1.5,1.5,0,0,1-.007-2.122L171.274-215.4a1.5,1.5,0,0,1,1.6-.345l12.622,4.789L197.4-223.572a1.5,1.5,0,0,1,2.122-.061,1.5,1.5,0,0,1,.06,2.12l-12.6,13.341a1.5,1.5,0,0,1-1.623.372l-12.647-4.8-10.948,11.018A1.5,1.5,0,0,1,160.7-201.139Z" fill="#b74d94"/>
      </g>
      <g id="Group_4557" data-name="Group 4557" transform="translate(465.652 2552.082)">
        <circle id="Ellipse_34" data-name="Ellipse 34" cx="5.145" cy="5.145" r="5.145" transform="translate(155.559 -207.784)" fill="#dfb1cf"/>
        <circle id="Ellipse_35" data-name="Ellipse 35" cx="5.145" cy="5.145" r="5.145" transform="translate(167.193 -219.492)" fill="#dfb1cf"/>
        <circle id="Ellipse_36" data-name="Ellipse 36" cx="5.145" cy="5.145" r="5.145" transform="translate(180.751 -214.347)" fill="#dfb1cf"/>
        <circle id="Ellipse_37" data-name="Ellipse 37" cx="5.145" cy="5.145" r="5.145" transform="translate(193.347 -227.688)" fill="#dfb1cf"/>
      </g>
      <g id="Group_4558" data-name="Group 4558" transform="translate(465.652 2552.082)">
        <path id="Path_4112" data-name="Path 4112" d="M191.833-186.4H160.122a1.5,1.5,0,0,1-1.5-1.5,1.5,1.5,0,0,1,1.5-1.5h31.711a1.5,1.5,0,0,1,1.5,1.5A1.5,1.5,0,0,1,191.833-186.4Z" fill="#dfb1cf"/>
      </g>
      <g id="Group_4559" data-name="Group 4559" transform="translate(465.652 2552.082)">
        <path id="Path_4113" data-name="Path 4113" d="M194.056-179.207H160.122a1.5,1.5,0,0,1-1.5-1.5,1.5,1.5,0,0,1,1.5-1.5h33.934a1.5,1.5,0,0,1,1.5,1.5A1.5,1.5,0,0,1,194.056-179.207Z" fill="#dfb1cf"/>
      </g>
      <g id="Group_4560" data-name="Group 4560" transform="translate(465.652 2552.082)">
        <path id="Path_4114" data-name="Path 4114" d="M189.557-172.009H160.122a1.5,1.5,0,0,1-1.5-1.5,1.5,1.5,0,0,1,1.5-1.5h29.435a1.5,1.5,0,0,1,1.5,1.5A1.5,1.5,0,0,1,189.557-172.009Z" fill="#dfb1cf"/>
      </g>
      <g id="Group_4561" data-name="Group 4561" transform="translate(465.652 2552.082)">
        <path id="Path_4115" data-name="Path 4115" d="M196.119-164.812h-36a1.5,1.5,0,0,1-1.5-1.5,1.5,1.5,0,0,1,1.5-1.5h36a1.5,1.5,0,0,1,1.5,1.5A1.5,1.5,0,0,1,196.119-164.812Z" fill="#dfb1cf"/>
      </g>
      <g id="Group_4562" data-name="Group 4562" transform="translate(465.652 2552.082)">
        <path id="Path_4116" data-name="Path 4116" d="M260.446-265.807a12.236,12.236,0,0,1-12.222-12.223,12.236,12.236,0,0,1,12.222-12.223A12.237,12.237,0,0,1,272.67-278.03,12.237,12.237,0,0,1,260.446-265.807Zm0-21.446a9.233,9.233,0,0,0-9.222,9.223,9.233,9.233,0,0,0,9.222,9.223,9.234,9.234,0,0,0,9.224-9.223A9.234,9.234,0,0,0,260.446-287.253Z" fill="#b74d94"/>
      </g>
      <g id="Group_4572" data-name="Group 4572" transform="translate(465.652 2552.082)">
        <g id="Group_4570" data-name="Group 4570">
          <g id="Group_4563" data-name="Group 4563">
            <path id="Path_4117" data-name="Path 4117" d="M240.112-198.591a1.5,1.5,0,0,1-1.5-1.5v-7.894a1.5,1.5,0,0,1,1.5-1.5,1.5,1.5,0,0,1,1.5,1.5v7.894A1.5,1.5,0,0,1,240.112-198.591Z" fill="#dfb1cf"/>
          </g>
          <g id="Group_4564" data-name="Group 4564">
            <path id="Path_4118" data-name="Path 4118" d="M248.816-198.591a1.5,1.5,0,0,1-1.5-1.5v-10.682a1.5,1.5,0,0,1,1.5-1.5,1.5,1.5,0,0,1,1.5,1.5v10.682A1.5,1.5,0,0,1,248.816-198.591Z" fill="#dfb1cf"/>
          </g>
          <g id="Group_4565" data-name="Group 4565">
            <path id="Path_4119" data-name="Path 4119" d="M257.521-198.591a1.5,1.5,0,0,1-1.5-1.5v-12.847a1.5,1.5,0,0,1,1.5-1.5,1.5,1.5,0,0,1,1.5,1.5v12.847A1.5,1.5,0,0,1,257.521-198.591Z" fill="#dfb1cf"/>
          </g>
          <g id="Group_4566" data-name="Group 4566">
            <path id="Path_4120" data-name="Path 4120" d="M266.225-198.591a1.5,1.5,0,0,1-1.5-1.5V-219.14a1.5,1.5,0,0,1,1.5-1.5,1.5,1.5,0,0,1,1.5,1.5v19.049A1.5,1.5,0,0,1,266.225-198.591Z" fill="#dfb1cf"/>
          </g>
          <g id="Group_4567" data-name="Group 4567">
            <path id="Path_4121" data-name="Path 4121" d="M274.929-198.591a1.5,1.5,0,0,1-1.5-1.5v-21.5a1.5,1.5,0,0,1,1.5-1.5,1.5,1.5,0,0,1,1.5,1.5v21.5A1.5,1.5,0,0,1,274.929-198.591Z" fill="#dfb1cf"/>
          </g>
          <g id="Group_4568" data-name="Group 4568">
            <path id="Path_4122" data-name="Path 4122" d="M283.633-198.591a1.5,1.5,0,0,1-1.5-1.5v-22.45a1.5,1.5,0,0,1,1.5-1.5,1.5,1.5,0,0,1,1.5,1.5v22.45A1.5,1.5,0,0,1,283.633-198.591Z" fill="#dfb1cf"/>
          </g>
          <g id="Group_4569" data-name="Group 4569">
            <path id="Path_4123" data-name="Path 4123" d="M292.337-198.591a1.5,1.5,0,0,1-1.5-1.5v-24.627a1.5,1.5,0,0,1,1.5-1.5,1.5,1.5,0,0,1,1.5,1.5v24.627A1.5,1.5,0,0,1,292.337-198.591Z" fill="#dfb1cf"/>
          </g>
        </g>
        <g id="Group_4571" data-name="Group 4571">
          <path id="Path_4124" data-name="Path 4124" d="M228.644-199.552a1.5,1.5,0,0,1-1.237-.649,1.5,1.5,0,0,1,.385-2.086l14.95-10.291a1.494,1.494,0,0,1,.693-.256l6.071-.645,7.852-1.476,4.679-4.9a1.492,1.492,0,0,1,.644-.4L273-223.431a1.506,1.506,0,0,1,.441-.066h8.33l10.722-3.6a1.5,1.5,0,0,1,1.9.944,1.5,1.5,0,0,1-.945,1.9l-10.955,3.682a1.485,1.485,0,0,1-.477.078h-8.349l-9.73,2.994-4.743,4.968a1.5,1.5,0,0,1-.807.439L250-210.52c-.04.007-.079.013-.119.017l-5.752.611-14.637,10.076A1.5,1.5,0,0,1,228.644-199.552Z" fill="#b74d94"/>
        </g>
      </g>
      <g id="Group_4573" data-name="Group 4573" transform="translate(465.652 2552.082)">
        <path id="Path_4125" data-name="Path 4125" d="M160.455-143.388a1.5,1.5,0,0,1-1.5-1.5v-10.174H148.917a1.5,1.5,0,0,1-1.5-1.5,1.5,1.5,0,0,1,1.5-1.5h11.538a1.5,1.5,0,0,1,1.5,1.5v11.674A1.5,1.5,0,0,1,160.455-143.388Z" fill="#b74d94"/>
      </g>
      <g id="Group_4574" data-name="Group 4574" transform="translate(465.652 2552.082)">
        <path id="Path_4126" data-name="Path 4126" d="M290.254-143.523a1.5,1.5,0,0,1-1.5-1.5v-12.5a1.5,1.5,0,0,1,1.5-1.5h12.5a1.5,1.5,0,0,1,1.5,1.5,1.5,1.5,0,0,1-1.5,1.5h-11v11A1.5,1.5,0,0,1,290.254-143.523Z" fill="#b74d94"/>
      </g>
      <g id="Group_4575" data-name="Group 4575" transform="translate(465.652 2552.082)">
        <path id="Path_4127" data-name="Path 4127" d="M290.254-143.523a1.5,1.5,0,0,1-1.061-.44,1.5,1.5,0,0,1,0-2.121l12.06-12.06V-232.7H221.914v86.177h61.61a1.5,1.5,0,0,1,1.5,1.5,1.5,1.5,0,0,1-1.5,1.5h-63.11a1.5,1.5,0,0,1-1.5-1.5V-234.2a1.5,1.5,0,0,1,1.5-1.5h82.339a1.5,1.5,0,0,1,1.5,1.5v76.678a1.5,1.5,0,0,1-.439,1.06l-12.5,12.5A1.5,1.5,0,0,1,290.254-143.523Z" fill="#b74d94"/>
      </g>
      <g id="Group_4576" data-name="Group 4576" transform="translate(465.652 2552.082)">
        <path id="Path_4128" data-name="Path 4128" d="M290.987-259H249.716a1.5,1.5,0,0,1-1.5-1.5,1.5,1.5,0,0,1,1.5-1.5h41.271a1.5,1.5,0,0,1,1.5,1.5A1.5,1.5,0,0,1,290.987-259Z" fill="#dfb1cf"/>
      </g>
    </g>
  </g>
</svg>
