<svg xmlns="http://www.w3.org/2000/svg" width="128.547" height="161.73" viewBox="0 0 128.547 161.73">
  <g id="Group_7480" data-name="Group 7480" transform="translate(-1090 -2905)">
    <g id="Group_6261" data-name="Group 6261" transform="translate(1090 2905)">
      <g id="Core_shadow" data-name="Core shadow" transform="translate(1.581 1.499)">
        <path id="Path_5363" data-name="Path 5363" d="M71.668,84.727a12.091,12.091,0,0,0,5.726,1.381A25.572,25.572,0,0,1,71.668,84.727Z" transform="translate(-17.21 -0.806)" fill="#c4dbfc"/>
        <path id="Path_5364" data-name="Path 5364" d="M26.453,157.977V138.63s-1.548-20.245,17.692-34.258c0,0-26.935,8.987-26.935,33.123v20.482Z" transform="translate(-17.21 0.503)" fill="#c4dbfc"/>
        <g id="Group_6245" data-name="Group 6245" transform="translate(22.038 115.341)">
          <path id="Path_5365" data-name="Path 5365" d="M45.274,114.838,39.5,123.355a1.474,1.474,0,0,0,.475,2.1l29.189,20.574L43.431,120.155Z" transform="translate(-39.248 -114.838)" fill="#c4dbfc"/>
          <path id="Path_5366" data-name="Path 5366" d="M112.325,114.838l5.771,8.517a1.473,1.473,0,0,1-.475,2.1L88.433,146.027l25.735-25.872Z" transform="translate(-39.248 -114.838)" fill="#c4dbfc"/>
        </g>
        <path id="Path_5367" data-name="Path 5367" d="M99.852,106.638,80.228,129.509a1.883,1.883,0,0,1-2.858,0L57.746,106.638,78.48,141.463l.319-.524.32.524Z" transform="translate(-17.21 0.503)" fill="#c4dbfc"/>
        <path id="Path_5368" data-name="Path 5368" d="M78.8,85.8l-9.955-3.125c-7.021-6.646-7.639-20.662-7.639-20.662V34.756c0-21.316,17.752-32.481,17.752-32.481-39.828-.344-39.382,36.8-39.382,36.8V96.964a3.129,3.129,0,0,0,.126.877,113.039,113.039,0,0,0,23.271-2.835,6.18,6.18,0,0,0,4.868-5.878v-1.3A23.638,23.638,0,0,0,78.8,90.4,23.244,23.244,0,0,0,98.806,79.52Zm-26.437-57Zm.065,31.971C54.3,71.757,59.847,78,65.237,81.542l-.693-.217-6.682-4.937v-1.6C53.617,69.77,52.647,63.548,52.427,60.772Z" transform="translate(-17.21 -2.273)" fill="#c4dbfc"/>
        <path id="Path_5369" data-name="Path 5369" d="M43.165,159.728a1.75,1.75,0,0,1-1.751-1.751V144.529a1.751,1.751,0,1,1,3.5,0v13.448A1.751,1.751,0,0,1,43.165,159.728Z" transform="translate(-17.21 0.503)" fill="#c4dbfc"/>
        <path id="Path_5370" data-name="Path 5370" d="M114.041,159.728a1.751,1.751,0,0,1-1.751-1.751V144.529a1.751,1.751,0,1,1,3.5,0v13.448A1.75,1.75,0,0,1,114.041,159.728Z" transform="translate(-17.21 0.503)" fill="#c4dbfc"/>
        <circle id="Ellipse_63" data-name="Ellipse 63" cx="3.956" cy="3.956" r="3.956" transform="translate(57.429 150.906)" fill="#c4dbfc"/>
      </g>
      <g id="Core" transform="translate(0 0)">
        <g id="Group_6260" data-name="Group 6260">
          <g id="Group_6246" data-name="Group 6246" transform="translate(80.637 94.3)">
            <path id="Path_5371" data-name="Path 5371" d="M94.882,93.453" transform="translate(-94.882 -93.453)" fill="#6ea4f8"/>
          </g>
          <g id="Group_6250" data-name="Group 6250" transform="translate(23.548)">
            <g id="Group_6247" data-name="Group 6247" transform="translate(12.788 26.528)">
              <path id="Path_5372" data-name="Path 5372" d="M80.8,87.608h-3.4a22.242,22.242,0,0,1-8.978-1.915A29.257,29.257,0,0,1,55.314,73.6a32.183,32.183,0,0,1-4.452-16.546V28.8a1.5,1.5,0,0,1,2.651-.963c.023.027,2.941,3.369,10.791,6.675,7.28,3.066,20.394,6.721,41.524,6.721a1.5,1.5,0,0,1,1.5,1.5V57.053A32.2,32.2,0,0,1,102.876,73.6h0a29.246,29.246,0,0,1-13.1,12.094A22.231,22.231,0,0,1,80.8,87.608ZM53.862,32.137V57.053a29.193,29.193,0,0,0,4.026,15.006A26.283,26.283,0,0,0,69.621,82.945a19.25,19.25,0,0,0,7.773,1.663h3.4a19.234,19.234,0,0,0,7.772-1.663A26.278,26.278,0,0,0,100.3,72.06h0a29.2,29.2,0,0,0,4.026-15.006V44.229C73.5,43.983,59.216,36.187,53.862,32.137Z" transform="translate(-50.862 -27.302)" fill="#6ea4f8"/>
            </g>
            <g id="Group_6249" data-name="Group 6249">
              <g id="Group_6248" data-name="Group 6248">
                <path id="Path_5373" data-name="Path 5373" d="M118.023,99.3a1.5,1.5,0,0,1-1.5-1.5V39.782c0-.183.17-15.573-10.134-26.072-6.47-6.593-15.7-9.936-27.433-9.936H78.6c-11.744,0-20.977,3.35-27.44,9.955C40.859,24.256,41.072,39.6,41.076,39.749V97.8a1.5,1.5,0,0,1-3,0V39.782c-.014-.646-.234-16.731,10.94-28.151C56.064,4.427,66.017.774,78.6.774h.357c12.582,0,22.54,3.653,29.6,10.857,11.185,11.419,10.984,27.5,10.971,28.183V97.8A1.5,1.5,0,0,1,118.023,99.3Z" transform="translate(-38.074 -0.774)" fill="#6ea4f8"/>
              </g>
            </g>
          </g>
          <g id="Group_6253" data-name="Group 6253" transform="translate(25.979 111.024)">
            <g id="Group_6251" data-name="Group 6251" transform="translate(45.347 0.001)">
              <path id="Path_5374" data-name="Path 5374" d="M87.354,146.524a1.5,1.5,0,0,1-.981-2.636L113.606,120.4l-6.087-9.039a1.5,1.5,0,1,1,2.488-1.675l6.831,10.142a1.5,1.5,0,0,1-.265,1.974L88.332,146.159A1.5,1.5,0,0,1,87.354,146.524Z" transform="translate(-85.853 -109.023)" fill="#6ea4f8"/>
            </g>
            <g id="Group_6252" data-name="Group 6252">
              <path id="Path_5375" data-name="Path 5375" d="M70.244,146.524a1.5,1.5,0,0,1-.978-.365L41.025,121.8a1.5,1.5,0,0,1-.264-1.974l6.831-10.142a1.5,1.5,0,1,1,2.488,1.675L43.993,120.4l27.232,23.489a1.5,1.5,0,0,1-.981,2.636Z" transform="translate(-40.505 -109.023)" fill="#6ea4f8"/>
            </g>
          </g>
          <g id="Group_6254" data-name="Group 6254" transform="translate(0 85.751)">
            <path id="Path_5376" data-name="Path 5376" d="M17.129,159.477a1.5,1.5,0,0,1-1.5-1.5v-18.1c0-11.693,5.393-22.377,15.186-30.083a41.309,41.309,0,0,1,10.67-5.943c4.473-1.751,14.876-6.542,14.876-13.2v-5.4a1.5,1.5,0,0,1,3,0v5.4c0,8.2-10.514,13.541-16.782,16a38.418,38.418,0,0,0-9.909,5.507c-9.055,7.125-14.041,16.972-14.041,27.726v18.1A1.5,1.5,0,0,1,17.129,159.477Z" transform="translate(-15.629 -83.749)" fill="#6ea4f8"/>
          </g>
          <g id="Group_6255" data-name="Group 6255" transform="translate(23.962 145.03)">
            <path id="Path_5377" data-name="Path 5377" d="M40.67,159.477a1.5,1.5,0,0,1-1.5-1.5V144.528a1.5,1.5,0,0,1,3,0v13.449A1.5,1.5,0,0,1,40.67,159.477Z" transform="translate(-39.17 -143.028)" fill="#6ea4f8"/>
          </g>
          <g id="Group_6256" data-name="Group 6256" transform="translate(101.347 145.03)">
            <path id="Path_5378" data-name="Path 5378" d="M116.695,159.477a1.5,1.5,0,0,1-1.5-1.5V144.528a1.5,1.5,0,0,1,3,0v13.449A1.5,1.5,0,0,1,116.695,159.477Z" transform="translate(-115.195 -143.028)" fill="#6ea4f8"/>
          </g>
          <g id="Group_6257" data-name="Group 6257" transform="translate(84.813 85.751)">
            <path id="Path_5379" data-name="Path 5379" d="M140.47,159.477a1.5,1.5,0,0,1-1.5-1.5v-18.1c0-10.754-4.987-20.6-14.042-27.726a38.409,38.409,0,0,0-9.909-5.507c-6.268-2.454-16.783-7.794-16.783-16v-5.4a1.5,1.5,0,0,1,3,0v5.4c0,6.66,10.4,11.451,14.876,13.2a41.29,41.29,0,0,1,10.671,5.943c9.793,7.706,15.187,18.39,15.187,30.083v18.1A1.5,1.5,0,0,1,140.47,159.477Z" transform="translate(-98.236 -83.749)" fill="#6ea4f8"/>
          </g>
          <g id="Group_6258" data-name="Group 6258" transform="translate(41.83 107.91)">
            <path id="Path_5380" data-name="Path 5380" d="M78.6,142.964h0a1.5,1.5,0,0,1-1.281-.72L56.58,108.189a1.5,1.5,0,1,1,2.563-1.561L78.6,138.579l19.453-31.951a1.5,1.5,0,1,1,2.562,1.561L79.876,142.244A1.5,1.5,0,0,1,78.6,142.964Z" transform="translate(-56.361 -105.908)" fill="#6ea4f8"/>
          </g>
          <g id="Group_6259" data-name="Group 6259" transform="translate(45.29 100.848)">
            <path id="Path_5381" data-name="Path 5381" d="M78.207,106.444c-7.7,0-14.514-1.5-17.771-3.926a1.5,1.5,0,1,1,1.791-2.409c2.231,1.661,8.038,3.335,15.98,3.335,7.859,0,13.659-1.652,15.921-3.29a1.5,1.5,0,1,1,1.76,2.43C92.6,104.965,85.823,106.444,78.207,106.444Z" transform="translate(-59.831 -99.814)" fill="#6ea4f8"/>
          </g>
        </g>
      </g>
    </g>
  </g>
</svg>
