<svg xmlns="http://www.w3.org/2000/svg" width="56" height="56" viewBox="0 0 56 56">
  <g transform="translate(-3284 -786)">
    <g transform="translate(-697.769 328)">
      <circle cx="28" cy="28" r="28" transform="translate(3981.769 458)" fill="#e1aa21"/>
      <g transform="translate(3998.443 470.146)">
        <path d="M16.741,3a11.263,11.263,0,0,0-2.348.235A11.724,11.724,0,0,0,8.926,23.492a3.261,3.261,0,0,1,1.107,2.465v3.874a3.364,3.364,0,0,0,3.354,3.354h.47a3.319,3.319,0,0,0,5.769,0h.47a3.364,3.364,0,0,0,3.354-3.354V25.957a3.252,3.252,0,0,1,1.073-2.448A11.726,11.726,0,0,0,16.741,3Zm3.354,26.831H13.387V28.154h6.708Zm0-3.354H13.387V24.8h6.708Zm2.2-5.467c-.151.134-.268.3-.4.436H18.208V17.381L21.092,14.5a.633.633,0,0,0,0-.889l-1.186-1.186a.65.65,0,0,0-.892,0l-2.264,2.266L14.468,12.4a.651.651,0,0,0-.89,0l-1.186,1.187a.63.63,0,0,0,0,.889l2.881,2.881v4.085h-3.7a5.171,5.171,0,0,0-.4-.453,8.38,8.38,0,1,1,13.952-6.255A8.338,8.338,0,0,1,22.291,21.01Z" transform="translate(-4.997 -3)" fill="#fff"/>
      </g>
    </g>
  </g>
</svg>
