<svg id="Icon_Dollar" data-name="Icon / Dollar" xmlns="http://www.w3.org/2000/svg" width="10.563" height="20" viewBox="0 0 10.563 20">
  <g >
    <g>
      <g transform="translate(0)">
        <path  d="M10.013,8.875c-2-.637-3.325-.888-3.325-2.35,0-1.037.9-2.025,2.625-2.025,1.988,0,2.625,1.1,2.625,2.425h2.375a4.277,4.277,0,0,0-3.75-4.3V0h-2.5V2.637c-1.975.4-3.75,1.713-3.75,3.9,0,2.813,2.225,3.5,5,4.4,2.35.762,2.812,1.3,2.812,2.613,0,1.125-.837,1.95-2.812,1.95A2.668,2.668,0,0,1,6.5,12.925H4a4.587,4.587,0,0,0,4.063,4.45V20h2.5V17.413c2.55-.362,4-1.863,4-3.875,0-2.338-1.175-3.588-4.55-4.663Z" transform="translate(-4)" fill="#4569a0" fill-rule="evenodd"/>
      </g>
    </g>
  </g>
</svg>
