<svg xmlns="http://www.w3.org/2000/svg" width="56" height="56" viewBox="0 0 56 56">
  <g transform="translate(-564 -1944)">
    <g transform="translate(-2646 1077)">
      <circle cx="28" cy="28" r="28" transform="translate(3210 867)" fill="#e75755"/>
      <g transform="translate(3224.631 880.679)">
        <path d="M12.932,0a1.453,1.453,0,0,0-1.19.706L.192,20.181a1.375,1.375,0,0,0,0,1.408,1.455,1.455,0,0,0,1.254.7h23.1a1.455,1.455,0,0,0,1.254-.7,1.375,1.375,0,0,0,0-1.408L14.248.707A1.456,1.456,0,0,0,12.932,0Z" fill="#fff"/>
        <g transform="translate(11.375 6.609)">
          <path d="M1.995,1.256A1.149,1.149,0,0,1,1,2.512,1.149,1.149,0,0,1,0,1.256,1.149,1.149,0,0,1,1,0a1.15,1.15,0,0,1,1,1.256Z" transform="translate(0.51 9.38)" fill="#d2201e"/>
          <path d="M3.009,1.255A1.308,1.308,0,0,0,2.68.527,1.568,1.568,0,0,0,.36.5a1.315,1.315,0,0,0-.355.756,1.21,1.21,0,0,0,0,.226L.627,7.633A.72.72,0,0,0,.881,8.1a.957.957,0,0,0,.626.224.967.967,0,0,0,.575-.184.732.732,0,0,0,.3-.512l.622-6.151A1.2,1.2,0,0,0,3.009,1.255Z" transform="translate(0 0)" fill="#d2201e"/>
        </g>
      </g>
    </g>
  </g>
</svg>
