<svg xmlns="http://www.w3.org/2000/svg" width="14.814" height="20" viewBox="0 0 14.814 20">
  <g id="Icon_pin" data-name="Icon / pin" transform="translate(0)">
    <path id="Pin" d="M7.41,20a.625.625,0,0,1-.532-.279L1.561,12.126A7.6,7.6,0,0,1,.018,7.063,7.475,7.475,0,0,1,7.384,0,7.574,7.574,0,0,1,14.8,7.063a7.856,7.856,0,0,1-1.569,5.064L7.941,19.721A.622.622,0,0,1,7.41,20ZM7.384,4.38A3.139,3.139,0,1,0,10.5,7.519,3.131,3.131,0,0,0,7.384,4.38Z" transform="translate(0 0)" fill="#4569a0"/>
  </g>
</svg>
