<svg xmlns="http://www.w3.org/2000/svg" width="20" height="20" viewBox="0 0 20 20">
  <g transform="translate(-210 -948.5)">
    <circle cx="10" cy="10" r="10" transform="translate(210 948.5)" fill="#4569a0"/>
    <g transform="translate(219.011 953.5)">
      <g >
        <path d="M0,.859a.891.891,0,0,0,.92.859.891.891,0,0,0,.92-.859A.891.891,0,0,0,.92,0,.891.891,0,0,0,0,.859Z" transform="translate(0.348 8.295)" fill="#fff"/>
        <path d="M0,1.142A1.236,1.236,0,0,1,.282.479,1.281,1.281,0,0,1,1.269,0a1.279,1.279,0,0,1,.966.454,1.24,1.24,0,0,1,.3.688,1.189,1.189,0,0,1,0,.206l-.523,5.6a.672.672,0,0,1-.214.429.784.784,0,0,1-1.011.037.677.677,0,0,1-.256-.466L0,1.348A1.176,1.176,0,0,1,0,1.142Z" transform="translate(0 0)" fill="#fff"/>
      </g>
    </g>
  </g>
</svg>
