<svg xmlns="http://www.w3.org/2000/svg" width="24" height="32" viewBox="0 0 24 32">
  <g id="Layer_1" data-name="Layer 1" transform="translate(-4.997 -3)">
    <path id="Path_3937" data-name="Path 3937" d="M17,3a11.707,11.707,0,0,0-2.4.236,11.847,11.847,0,0,0-9.392,9.3,11.668,11.668,0,0,0,3.8,11.048,3.251,3.251,0,0,1,1.131,2.476v3.891a3.408,3.408,0,0,0,3.428,3.368h.48a3.422,3.422,0,0,0,5.9,0h.48a3.408,3.408,0,0,0,3.428-3.368V26.057a3.241,3.241,0,0,1,1.1-2.459A11.629,11.629,0,0,0,29,14.789,11.886,11.886,0,0,0,17,3Zm3.428,26.947H13.572V28.263h6.856Zm0-3.368H13.572V24.895h6.856Zm2.245-5.491c-.154.135-.274.3-.411.438H18.5V17.444l2.948-2.9a.628.628,0,0,0,0-.893l-1.212-1.191a.673.673,0,0,0-.912,0L17.01,14.739l-2.333-2.294a.674.674,0,0,0-.91,0l-1.212,1.192a.625.625,0,0,0,0,.893L15.5,17.424v4.1H11.721a5.225,5.225,0,0,0-.411-.455,8.409,8.409,0,0,1-2.725-7.916,8.529,8.529,0,0,1,6.667-6.619A8.783,8.783,0,0,1,17,6.368a8.5,8.5,0,0,1,8.569,8.421A8.312,8.312,0,0,1,22.673,21.088Z" transform="translate(0 0)" fill="#748fb8"/>
  </g>
</svg>
