<svg id="Icon_twitter" data-name="Icon / twitter" xmlns="http://www.w3.org/2000/svg" width="20" height="16.528" viewBox="0 0 20 16.528">
  <path id="Mask" d="M9.711,4.4l.043.715-.723-.088A11.753,11.753,0,0,1,2.153,1.639L1.2.691l-.246.7a4.21,4.21,0,0,0,.9,4.318c.578.613.448.7-.549.336a1.7,1.7,0,0,0-.679-.16,5.227,5.227,0,0,0,.52,1.955,4.667,4.667,0,0,0,1.98,1.867l.708.336-.838.015c-.809,0-.838.015-.751.321a4.369,4.369,0,0,0,2.7,2.393l.9.306-.78.467a8.136,8.136,0,0,1-3.873,1.08A4.279,4.279,0,0,0,0,14.74a10.994,10.994,0,0,0,2.789,1.284,12.207,12.207,0,0,0,9.48-1.08,12.687,12.687,0,0,0,4.812-5.661,15.048,15.048,0,0,0,.983-4.377c0-.671.043-.759.853-1.561a9.527,9.527,0,0,0,1.012-1.123c.145-.277.13-.277-.607-.029-1.228.438-1.4.379-.795-.277A4.244,4.244,0,0,0,19.509.355c0-.044-.217.029-.462.16a8.062,8.062,0,0,1-1.272.5l-.78.248L16.286.779A5.882,5.882,0,0,0,15.058.137a4.937,4.937,0,0,0-2.529.058A4.177,4.177,0,0,0,9.711,4.4Z" transform="translate(0 0)" fill="#4569a0"/>
</svg>
