<svg xmlns="http://www.w3.org/2000/svg" width="55" height="55" viewBox="0 0 55 55">
  <g transform="translate(-3444 -787)">
    <g transform="translate(-73 -111)">
      <g transform="translate(-462 34)">
        <g transform="translate(3979 863.5)">
          <g transform="translate(0 0.5)">
            <circle  cx="27.5" cy="27.5" r="27.5" fill="#e1aa21"/>
          </g>
        </g>
        <g transform="translate(3996.101 878.919)">
          <path d="M24.959,17.382a5.612,5.612,0,0,0-2.979-8.35V4.8a2.723,2.723,0,0,0-2.715-2.715H4.335A2.723,2.723,0,0,0,1.62,4.8v19a2.723,2.723,0,0,0,2.715,2.715h14.93A2.723,2.723,0,0,0,21.98,23.8V19.721a5.636,5.636,0,0,0,1.193-.565l3.661,3.661,1.786-1.786ZM19.265,23.8H4.335V4.8h14.93v4a5.651,5.651,0,0,0-4.323,3.443H6.55v2.516h8a5.629,5.629,0,0,0,4.713,5.181Zm2.715-6.858a3.132,3.132,0,1,1,1.344-2.571A3.114,3.114,0,0,1,21.98,16.947Z" transform="translate(-1.62 -2.087)" fill="#fff"/>
          <rect width="8.161" height="2.843" transform="translate(4.696 14.968)" fill="#fff"/>
          <rect width="11.659" height="2.843" transform="translate(4.534 5.054)" fill="#fff"/>
        </g>
      </g>
    </g>
  </g>
</svg>
