<svg xmlns="http://www.w3.org/2000/svg" width="440" height="395" viewBox="0 0 440 395">
  <g id="Group_7481" data-name="Group 7481" transform="translate(-100 -477)">
    <g id="Group_4436" data-name="Group 4436" transform="translate(0 -51)">
      <g id="Group_4435" data-name="Group 4435" transform="translate(-24 44)">
        <g id="Rectangle_475" data-name="Rectangle 475" transform="translate(124 484)" fill="#fff" stroke="#707070" stroke-width="1">
          <rect width="440" height="250" stroke="none"/>
          <rect x="0.5" y="0.5" width="439" height="249" fill="none"/>
        </g>
        <g id="Group_4430" data-name="Group 4430" transform="translate(-651.498 500.044)">
          <g id="background">
            <g id="Group_4261" data-name="Group 4261">
              <path id="Path_3915" data-name="Path 3915" d="M896.89,209.576H781.5a1,1,0,0,1,0-2H896.89a1,1,0,0,1,0,2Z" fill="#d0dbe9"/>
            </g>
            <g id="Group_4262" data-name="Group 4262">
              <path id="Path_3916" data-name="Path 3916" d="M1207.816,209.576H1096.082a1,1,0,0,1,0-2h111.734a1,1,0,0,1,0,2Z" fill="#d0dbe9"/>
            </g>
            <g id="Group_4263" data-name="Group 4263">
              <path id="Path_3917" data-name="Path 3917" d="M900.876,97.644h0a1,1,0,0,1-1-1l.018-41.35-100.422-.045L799.46,79.8a1,1,0,0,1-1,1h0a1,1,0,0,1-1-1l.012-25.554a1,1,0,0,1,1-1h0l102.422.047a1,1,0,0,1,1,1l-.019,42.35A1,1,0,0,1,900.876,97.644Z" fill="#d0dbe9"/>
            </g>
            <g id="Group_4264" data-name="Group 4264">
              <path id="Path_3918" data-name="Path 3918" d="M900.9,203.842a1,1,0,0,1-1-1v-86.9a1,1,0,1,1,2,0v86.9A1,1,0,0,1,900.9,203.842Z" fill="#d0dbe9"/>
            </g>
            <g id="Group_4265" data-name="Group 4265">
              <path id="Path_3919" data-name="Path 3919" d="M889.8,97.4H871.684a1,1,0,0,1-1-1V78.964c0-6.585,4.512-11.943,10.058-11.943S890.8,72.379,890.8,78.964V96.4A1,1,0,0,1,889.8,97.4Zm-17.117-2H888.8V78.964c0-5.483-3.615-9.943-8.059-9.943s-8.058,4.46-8.058,9.943Z" fill="#d0dbe9"/>
            </g>
            <g id="Group_4266" data-name="Group 4266">
              <path id="Path_3920" data-name="Path 3920" d="M857.58,97.4H839.464a1,1,0,0,1-1-1V78.964c0-6.585,4.512-11.943,10.058-11.943s10.058,5.358,10.058,11.943V96.4A1,1,0,0,1,857.58,97.4Zm-17.116-2H856.58V78.964c0-5.483-3.615-9.943-8.058-9.943s-8.058,4.46-8.058,9.943Z" fill="#d0dbe9"/>
            </g>
            <g id="Group_4267" data-name="Group 4267">
              <path id="Path_3921" data-name="Path 3921" d="M809.09,77.536a1.06,1.06,0,0,1-.185-.017,1,1,0,0,1-.8-1.167c1.03-5.494,5.067-9.331,9.817-9.331,4.722,0,8.753,3.809,9.805,9.263a1,1,0,0,1-1.964.379c-.867-4.5-4.091-7.642-7.841-7.642-3.713,0-7.015,3.238-7.851,7.7A1,1,0,0,1,809.09,77.536Z" fill="#d0dbe9"/>
            </g>
            <g id="Group_4270" data-name="Group 4270">
              <g id="Group_4268" data-name="Group 4268">
                <path id="Path_3922" data-name="Path 3922" d="M889.8,139.52H871.684a1,1,0,0,1-1-1V121.085c0-6.585,4.512-11.941,10.058-11.941S890.8,114.5,890.8,121.085V138.52A1,1,0,0,1,889.8,139.52Zm-17.117-2H888.8V121.085c0-5.482-3.615-9.941-8.059-9.941s-8.058,4.459-8.058,9.941Z" fill="#d0dbe9"/>
              </g>
              <g id="Group_4269" data-name="Group 4269">
                <path id="Path_3923" data-name="Path 3923" d="M857.58,139.52H839.464a1,1,0,0,1-1-1V121.085c0-6.585,4.512-11.941,10.058-11.941s10.058,5.356,10.058,11.941V138.52A1,1,0,0,1,857.58,139.52Zm-17.116-2H856.58V121.085c0-5.482-3.615-9.941-8.058-9.941s-8.058,4.459-8.058,9.941Z" fill="#d0dbe9"/>
              </g>
            </g>
            <g id="Group_4273" data-name="Group 4273">
              <g id="Group_4271" data-name="Group 4271">
                <path id="Path_3924" data-name="Path 3924" d="M889.8,181.642H871.684a1,1,0,0,1-1-1V163.207c0-6.584,4.512-11.942,10.058-11.942s10.059,5.358,10.059,11.942v17.435A1,1,0,0,1,889.8,181.642Zm-17.117-2H888.8V163.207c0-5.482-3.615-9.942-8.059-9.942s-8.058,4.46-8.058,9.942Z" fill="#d0dbe9"/>
              </g>
              <g id="Group_4272" data-name="Group 4272">
                <path id="Path_3925" data-name="Path 3925" d="M857.58,181.642H839.464a1,1,0,0,1-1-1V163.207c0-6.584,4.512-11.942,10.058-11.942s10.058,5.358,10.058,11.942v17.435A1,1,0,0,1,857.58,181.642Zm-17.116-2H856.58V163.207c0-5.482-3.615-9.942-8.058-9.942s-8.058,4.46-8.058,9.942Z" fill="#d0dbe9"/>
              </g>
            </g>
            <g id="Group_4274" data-name="Group 4274">
              <path id="Path_3926" data-name="Path 3926" d="M828.5,202.925a1,1,0,0,1-1-1V81.436H782.72a1,1,0,0,1,0-2H828.5a1,1,0,0,1,1,1V201.925A1,1,0,0,1,828.5,202.925Z" fill="#d0dbe9"/>
            </g>
            <g id="Group_4275" data-name="Group 4275">
              <path id="Path_3927" data-name="Path 3927" d="M828.28,90.748H782.612a1,1,0,0,1,0-2H828.28a1,1,0,0,1,0,2Z" fill="#d0dbe9"/>
            </g>
            <g id="Group_4276" data-name="Group 4276">
              <path id="Path_3928" data-name="Path 3928" d="M1157.94,84.185h-74.49a1,1,0,0,1,0-2h72.542l-7.67-10.7H1083.45a1,1,0,0,1,0-2h65.386a1,1,0,0,1,.812.418l9.1,12.7a1,1,0,0,1-.812,1.583Z" fill="#d0dbe9"/>
            </g>
            <g id="Group_4277" data-name="Group 4277">
              <path id="Path_3929" data-name="Path 3929" d="M1145.3,203.842a1,1,0,0,1-1-1V83.127a1,1,0,0,1,2,0V202.842A1,1,0,0,1,1145.3,203.842Z" fill="#d0dbe9"/>
            </g>
            <g id="Group_4278" data-name="Group 4278">
              <path id="Path_3930" data-name="Path 3930" d="M1207.156,203.842a1,1,0,0,1-1-1V72.486a1,1,0,0,1,2,0V202.842A1,1,0,0,1,1207.156,203.842Z" fill="#d0dbe9"/>
            </g>
            <g id="Group_4283" data-name="Group 4283">
              <g id="Group_4279" data-name="Group 4279">
                <path id="Path_3931" data-name="Path 3931" d="M1118.628,134.018a1,1,0,0,1-1-1V97.1a1,1,0,0,1,2,0v35.915A1,1,0,0,1,1118.628,134.018Z" fill="#d0dbe9"/>
              </g>
              <g id="Group_4280" data-name="Group 4280">
                <path id="Path_3932" data-name="Path 3932" d="M1104.254,134.018a1,1,0,0,1-1-1V97.1a1,1,0,0,1,2,0v35.915A1,1,0,0,1,1104.254,134.018Z" fill="#d0dbe9"/>
              </g>
              <g id="Group_4281" data-name="Group 4281">
                <path id="Path_3933" data-name="Path 3933" d="M1133,134.018a1,1,0,0,1-1-1V98.1h-37.915a1,1,0,0,1,0-2H1133a1,1,0,0,1,1,1v35.915A1,1,0,0,1,1133,134.018Z" fill="#d0dbe9"/>
              </g>
              <g id="Group_4282" data-name="Group 4282">
                <path id="Path_3934" data-name="Path 3934" d="M1089.88,134.018a1,1,0,0,1-1-1V118.266a1,1,0,0,1,2,0v14.752A1,1,0,0,1,1089.88,134.018Z" fill="#d0dbe9"/>
              </g>
            </g>
            <g id="Group_4284" data-name="Group 4284">
              <path id="Path_3935" data-name="Path 3935" d="M1118.628,184.9a1,1,0,0,1-1-1V147.99a1,1,0,1,1,2,0V183.9A1,1,0,0,1,1118.628,184.9Z" fill="#d0dbe9"/>
            </g>
            <g id="Group_4285" data-name="Group 4285">
              <path id="Path_3936" data-name="Path 3936" d="M1104.254,184.9a1,1,0,0,1-1-1V147.99a1,1,0,1,1,2,0V183.9A1,1,0,0,1,1104.254,184.9Z" fill="#d0dbe9"/>
            </g>
            <g id="Group_4286" data-name="Group 4286">
              <path id="Path_3937" data-name="Path 3937" d="M1133,184.9a1,1,0,0,1-1-1V148.99H1090.88v7.961a1,1,0,0,1-2,0V147.99a1,1,0,0,1,1-1H1133a1,1,0,0,1,1,1V183.9A1,1,0,0,1,1133,184.9Z" fill="#d0dbe9"/>
            </g>
            <g id="Group_4287" data-name="Group 4287">
              <path id="Path_3938" data-name="Path 3938" d="M1207.156,77.811h-43.9a1,1,0,0,1,0-2h42.9v-10.8L1117.04,28.422v38a1,1,0,0,1-2,0V26.93a1,1,0,0,1,1.38-.925l91.116,37.41a1,1,0,0,1,.62.926v12.47A1,1,0,0,1,1207.156,77.811Z" fill="#d0dbe9"/>
            </g>
            <g id="Group_4288" data-name="Group 4288">
              <path id="Path_3939" data-name="Path 3939" d="M1196.849,104.417h-42.232a1,1,0,0,1,0-2h41.232V92.445h-41.232a1,1,0,0,1,0-2h42.232a1,1,0,0,1,1,1v11.972A1,1,0,0,1,1196.849,104.417Z" fill="#d0dbe9"/>
            </g>
            <g id="Group_4289" data-name="Group 4289">
              <path id="Path_3940" data-name="Path 3940" d="M1196.849,125.868h-42.232a1,1,0,0,1,0-2h41.232V113.9h-41.232a1,1,0,0,1,0-2h42.232a1,1,0,0,1,1,1v11.971A1,1,0,0,1,1196.849,125.868Z" fill="#d0dbe9"/>
            </g>
            <g id="Group_4290" data-name="Group 4290">
              <path id="Path_3941" data-name="Path 3941" d="M1196.849,147.32h-42.232a1,1,0,0,1,0-2h41.232v-9.972h-41.232a1,1,0,0,1,0-2h42.232a1,1,0,0,1,1,1V146.32A1,1,0,0,1,1196.849,147.32Z" fill="#d0dbe9"/>
            </g>
            <g id="Group_4305" data-name="Group 4305">
              <g id="Group_4291" data-name="Group 4291">
                <path id="Path_3942" data-name="Path 3942" d="M1078.375,43.16a11.141,11.141,0,1,1,11.141-11.141A11.154,11.154,0,0,1,1078.375,43.16Zm0-20.009a8.869,8.869,0,1,0,8.868,8.868A8.878,8.878,0,0,0,1078.375,23.151Z" fill="#d0dbe9"/>
              </g>
              <g id="Group_4304" data-name="Group 4304">
                <g id="Group_4292" data-name="Group 4292">
                  <path id="Path_3943" data-name="Path 3943" d="M1078.375,16.1a1.136,1.136,0,0,1-1.136-1.137V10.093a1.136,1.136,0,1,1,2.272,0v4.872A1.137,1.137,0,0,1,1078.375,16.1Z" fill="#d0dbe9"/>
                </g>
                <g id="Group_4293" data-name="Group 4293">
                  <path id="Path_3944" data-name="Path 3944" d="M1069.849,18.386a1.133,1.133,0,0,1-.985-.568l-2.436-4.22a1.136,1.136,0,0,1,1.968-1.136l2.436,4.22a1.136,1.136,0,0,1-.983,1.7Z" fill="#d0dbe9"/>
                </g>
                <g id="Group_4294" data-name="Group 4294">
                  <path id="Path_3945" data-name="Path 3945" d="M1063.6,24.628a1.123,1.123,0,0,1-.567-.152l-4.22-2.436a1.136,1.136,0,1,1,1.136-1.968l4.22,2.436a1.136,1.136,0,0,1-.569,2.12Z" fill="#d0dbe9"/>
                </g>
                <g id="Group_4295" data-name="Group 4295">
                  <path id="Path_3946" data-name="Path 3946" d="M1061.321,33.155h-4.873a1.136,1.136,0,0,1,0-2.272h4.873a1.136,1.136,0,0,1,0,2.272Z" fill="#d0dbe9"/>
                </g>
                <g id="Group_4296" data-name="Group 4296">
                  <path id="Path_3947" data-name="Path 3947" d="M1059.387,44.119a1.137,1.137,0,0,1-.569-2.121l4.219-2.436a1.136,1.136,0,1,1,1.137,1.968l-4.22,2.436A1.124,1.124,0,0,1,1059.387,44.119Z" fill="#d0dbe9"/>
                </g>
                <g id="Group_4297" data-name="Group 4297">
                  <path id="Path_3948" data-name="Path 3948" d="M1067.411,52.144a1.136,1.136,0,0,1-.983-1.7l2.436-4.22a1.136,1.136,0,0,1,1.968,1.136l-2.436,4.22A1.138,1.138,0,0,1,1067.411,52.144Z" fill="#d0dbe9"/>
                </g>
                <g id="Group_4298" data-name="Group 4298">
                  <path id="Path_3949" data-name="Path 3949" d="M1078.375,55.081a1.135,1.135,0,0,1-1.136-1.136V49.073a1.136,1.136,0,1,1,2.272,0v4.872A1.136,1.136,0,0,1,1078.375,55.081Z" fill="#d0dbe9"/>
                </g>
                <g id="Group_4299" data-name="Group 4299">
                  <path id="Path_3950" data-name="Path 3950" d="M1089.339,52.144a1.138,1.138,0,0,1-.985-.568l-2.436-4.22a1.136,1.136,0,0,1,1.968-1.136l2.436,4.22a1.136,1.136,0,0,1-.983,1.7Z" fill="#d0dbe9"/>
                </g>
                <g id="Group_4300" data-name="Group 4300">
                  <path id="Path_3951" data-name="Path 3951" d="M1097.363,44.119a1.124,1.124,0,0,1-.567-.153l-4.22-2.436a1.136,1.136,0,1,1,1.137-1.968L1097.932,42a1.137,1.137,0,0,1-.569,2.121Z" fill="#d0dbe9"/>
                </g>
                <g id="Group_4301" data-name="Group 4301">
                  <path id="Path_3952" data-name="Path 3952" d="M1100.3,33.155h-4.872a1.136,1.136,0,0,1,0-2.272h4.872a1.136,1.136,0,1,1,0,2.272Z" fill="#d0dbe9"/>
                </g>
                <g id="Group_4302" data-name="Group 4302">
                  <path id="Path_3953" data-name="Path 3953" d="M1093.145,24.628a1.136,1.136,0,0,1-.569-2.12l4.22-2.436a1.136,1.136,0,1,1,1.136,1.968l-4.22,2.436A1.123,1.123,0,0,1,1093.145,24.628Z" fill="#d0dbe9"/>
                </g>
                <g id="Group_4303" data-name="Group 4303">
                  <path id="Path_3954" data-name="Path 3954" d="M1086.9,18.386a1.136,1.136,0,0,1-.983-1.7l2.436-4.22a1.136,1.136,0,0,1,1.968,1.136l-2.436,4.22A1.133,1.133,0,0,1,1086.9,18.386Z" fill="#d0dbe9"/>
                </g>
              </g>
            </g>
            <g id="Group_4306" data-name="Group 4306">
              <path id="Path_3955" data-name="Path 3955" d="M1206.264,70.82H1156.6a1,1,0,0,1,0-2h49.659a1,1,0,0,1,0,2Z" fill="#d0dbe9"/>
            </g>
            <g id="Group_4307" data-name="Group 4307">
              <path id="Path_3956" data-name="Path 3956" d="M813.092,202.925a1,1,0,0,1-1-1V147.5H782.665a1,1,0,0,1,0-2h30.427a1,1,0,0,1,1,1v55.424A1,1,0,0,1,813.092,202.925Z" fill="#d0dbe9"/>
            </g>
            <g id="Group_4308" data-name="Group 4308">
              <path id="Path_3957" data-name="Path 3957" d="M813.266,136H782.612a1,1,0,0,1,0-2h30.654a1,1,0,0,1,0,2Z" fill="#d0dbe9"/>
            </g>
            <g id="Group_4309" data-name="Group 4309">
              <path id="Path_3958" data-name="Path 3958" d="M813.266,125.25H782.612a1,1,0,0,1,0-2h30.654a1,1,0,0,1,0,2Z" fill="#d0dbe9"/>
            </g>
            <g id="Group_4310" data-name="Group 4310">
              <path id="Path_3959" data-name="Path 3959" d="M813.266,114.5H782.612a1,1,0,0,1,0-2h30.654a1,1,0,0,1,0,2Z" fill="#d0dbe9"/>
            </g>
            <g id="Group_4311" data-name="Group 4311">
              <path id="Path_3960" data-name="Path 3960" d="M813.266,103.746H782.612a1,1,0,0,1,0-2h30.654a1,1,0,0,1,0,2Z" fill="#d0dbe9"/>
            </g>
          </g>
          <g id="shadows">
            <g id="Group_4312" data-name="Group 4312">
              <path id="Path_3961" data-name="Path 3961" d="M966.44,174.233v3.239a1.5,1.5,0,0,0,1.139,1.456,196.086,196.086,0,0,0,47.125,5.443,252.753,252.753,0,0,0,51.188-5.432c.975-.2,1.9-.391,2.033-.409a1.5,1.5,0,0,0,1.5-1.5v-8.949c0-.124-4.4,7.466-7.763,6.984C1003.467,187.369,966.44,174.233,966.44,174.233Z" fill="#d0dbe8"/>
            </g>
            <g id="Group_4313" data-name="Group 4313">
              <path id="Path_3962" data-name="Path 3962" d="M914.833,113.935l6.016,1.456h0s22.677,86.118,21.9,86.118H914.071Z" fill="#d0dbe8"/>
            </g>
            <g id="Group_4314" data-name="Group 4314">
              <path id="Path_3963" data-name="Path 3963" d="M1074.584,113.713c1.756.587-7.514,1.081-7.514,1.081l-6.422-2.66-7.214,2.494-14.52-.416-30.844-.168,7.691,18.255,25.3.148,25.891-4.656.18,47.221-31.019,5.593,8.946,21.232,29.8-.328-1.259-10.535,2.081-.228-.106-7.314s-4.851.669-4.851-3.543,4.741-3.992,4.741-3.992Z" fill="#d0dbe8"/>
            </g>
            <g id="Group_4315" data-name="Group 4315">
              <path id="Path_3964" data-name="Path 3964" d="M1092.043,100.788l-1.13,4.056-1.048,6.385c-.012.077-7.163,3.332-7.168,3.332-3.574-.407-6.48-3.91-6.48-3.1v.017c-.015,2.147-2.952,3.958-6.427,3.958s-9.462-4.785-9.462-3.975c0,2.155-2.944,3.975-6.428,3.975s-9.429-4.785-9.429-3.975l0,.02c-.018,2.146-2.953,3.955-6.427,3.955s-9.462-4.785-9.462-3.975c0,2.155-2.944,3.975-6.428,3.975s-9.428-4.785-9.428-3.975v.016c-.015,2.148-2.952,3.959-6.427,3.959s-9.469-4.785-9.469-3.975c0,2.155-2.944,3.975-6.428,3.975s-9.428-4.785-9.428-3.975v.02c-.018,2.146-2.953,3.955-6.427,3.955s-9.462-4.785-9.462-3.975c0,2.155-2.944,3.975-6.428,3.975s-9.428-4.785-9.428-3.975v.02c-.018,2.146-2.953,3.955-6.427,3.955s-9.462-4.785-9.462-3.975c0,2.155-2.944,3.975-6.428,3.975-3.363,0-9.429-4.785-9.429-3.975,0,.055.01.108.011.162-.116,2.116-2.436,3.813-5.292,3.813-2.931,0-8.314-3.85-8.314-3.85.081,3.752,3.779,6.783,8.314,6.783a8.881,8.881,0,0,0,6.869-3.022,11.64,11.64,0,0,0,15.786-.127,11.6,11.6,0,0,0,15.872.022,11.6,11.6,0,0,0,15.872-.022,11.6,11.6,0,0,0,15.872.022,11.6,11.6,0,0,0,15.875-.026,11.6,11.6,0,0,0,15.876.026,11.6,11.6,0,0,0,15.872-.022,11.6,11.6,0,0,0,15.872.022,11.6,11.6,0,0,0,15.872-.022,11.634,11.634,0,0,0,15.8.109,8.872,8.872,0,0,0,6.885,3.04c4.534,0,8.232-3.031,8.313-6.783l1.156-7.049A6.131,6.131,0,0,0,1092.043,100.788Z" fill="#d0dbe8"/>
            </g>
            <g id="Group_4316" data-name="Group 4316">
              <path id="Path_3965" data-name="Path 3965" d="M1086.272,192.193l.166,18.955,3.825-1.164s2.826-18.124,2.494-18.622-1-1.33-1-1.33Z" fill="#d0dbe8"/>
            </g>
            <g id="Group_4317" data-name="Group 4317">
              <rect id="Rectangle_474" data-name="Rectangle 474" width="133.903" height="5.653" transform="translate(926.708 72.811)" fill="#d0dbe8"/>
            </g>
          </g>
          <g id="Outlines">
            <g id="Group_4319" data-name="Group 4319">
              <g id="Group_4318" data-name="Group 4318">
                <path id="Path_3966" data-name="Path 3966" d="M1071.4,209.689H903.439a1.5,1.5,0,0,1,0-3H1071.4a1.5,1.5,0,0,1,0,3Z" fill="#5b7dab"/>
              </g>
            </g>
            <g id="Group_4321" data-name="Group 4321">
              <g id="Group_4320" data-name="Group 4320">
                <path id="Path_3967" data-name="Path 3967" d="M914.755,202.429a1.5,1.5,0,0,1-1.5-1.5V114.635a1.5,1.5,0,1,1,3,0v86.294A1.5,1.5,0,0,1,914.755,202.429Z" fill="#5b7dab"/>
              </g>
            </g>
            <g id="Group_4323" data-name="Group 4323">
              <g id="Group_4322" data-name="Group 4322">
                <path id="Path_3968" data-name="Path 3968" d="M1075.389,157.145a1.5,1.5,0,0,1-1.5-1.5V113.08a1.5,1.5,0,1,1,3,0v42.565A1.5,1.5,0,0,1,1075.389,157.145Z" fill="#5b7dab"/>
              </g>
            </g>
            <g id="Group_4325" data-name="Group 4325">
              <g id="Group_4324" data-name="Group 4324">
                <path id="Path_3969" data-name="Path 3969" d="M958.677,202.429a1.5,1.5,0,0,1-1.5-1.5v-85.99a1.5,1.5,0,1,1,3,0v85.99A1.5,1.5,0,0,1,958.677,202.429Z" fill="#5b7dab"/>
              </g>
            </g>
            <g id="Group_4327" data-name="Group 4327">
              <g id="Group_4326" data-name="Group 4326">
                <path id="Path_3970" data-name="Path 3970" d="M953.362,202.429a1.5,1.5,0,0,1-1.5-1.5V113.583c0-.829.51-.195,1.338-.195s1.662-.634,1.662.195v87.346A1.5,1.5,0,0,1,953.362,202.429Z" fill="#5b7dab"/>
              </g>
            </g>
            <g id="Group_4329" data-name="Group 4329">
              <g id="Group_4328" data-name="Group 4328">
                <path id="Path_3971" data-name="Path 3971" d="M1021.178,202.641a1.5,1.5,0,0,1-1.5-1.5V181.833a1.5,1.5,0,0,1,3,0v19.308A1.5,1.5,0,0,1,1021.178,202.641Z" fill="#5b7dab"/>
              </g>
            </g>
            <g id="Group_4331" data-name="Group 4331">
              <g id="Group_4330" data-name="Group 4330">
                <path id="Path_3972" data-name="Path 3972" d="M1015.525,202.7a1.5,1.5,0,0,1-1.5-1.5V181.28a1.5,1.5,0,1,1,3,0V201.2A1.5,1.5,0,0,1,1015.525,202.7Z" fill="#5b7dab"/>
              </g>
            </g>
            <g id="Group_4333" data-name="Group 4333">
              <g id="Group_4332" data-name="Group 4332">
                <path id="Path_3973" data-name="Path 3973" d="M1021.178,133.479a1.5,1.5,0,0,1-1.5-1.5V114.772a1.5,1.5,0,0,1,3,0v17.207A1.5,1.5,0,0,1,1021.178,133.479Z" fill="#5b7dab"/>
              </g>
            </g>
            <g id="Group_4335" data-name="Group 4335">
              <g id="Group_4334" data-name="Group 4334">
                <path id="Path_3974" data-name="Path 3974" d="M1015.525,133.534a1.5,1.5,0,0,1-1.5-1.5V114.106a1.5,1.5,0,1,1,3,0v17.928A1.5,1.5,0,0,1,1015.525,133.534Z" fill="#5b7dab"/>
              </g>
            </g>
            <g id="Group_4337" data-name="Group 4337">
              <g id="Group_4336" data-name="Group 4336">
                <path id="Path_3975" data-name="Path 3975" d="M1089.689,103.385H902.718a1.5,1.5,0,0,1,0-3h186.971a1.5,1.5,0,0,1,0,3Z" fill="#5b7dab"/>
              </g>
            </g>
            <g id="Group_4339" data-name="Group 4339">
              <g id="Group_4338" data-name="Group 4338">
                <path id="Path_3976" data-name="Path 3976" d="M1073.062,86.644H918.1a1.5,1.5,0,0,1-1.5-1.5V64.526a1.5,1.5,0,0,1,1.5-1.5h154.965a1.5,1.5,0,0,1,1.5,1.5V85.144A1.5,1.5,0,0,1,1073.062,86.644Zm-153.465-3h151.965V66.026H919.6Z" fill="#5b7dab"/>
              </g>
            </g>
            <g id="Group_4341" data-name="Group 4341">
              <g id="Group_4340" data-name="Group 4340">
                <path id="Path_3977" data-name="Path 3977" d="M917.515,111.208a1.5,1.5,0,0,1-1.5-1.5v-7.727a1.505,1.505,0,0,1,.352-.966l13.3-15.819a1.5,1.5,0,0,1,2.3,1.93l-12.95,15.4v7.18A1.5,1.5,0,0,1,917.515,111.208Z" fill="#5b7dab"/>
              </g>
            </g>
            <g id="Group_4343" data-name="Group 4343">
              <g id="Group_4342" data-name="Group 4342">
                <path id="Path_3978" data-name="Path 3978" d="M933.368,111.029a1.5,1.5,0,0,1-1.5-1.5V101.8a1.493,1.493,0,0,1,.314-.917l12.385-16a1.5,1.5,0,0,1,2.372,1.836l-12.071,15.6v7.214A1.5,1.5,0,0,1,933.368,111.029Z" fill="#5b7dab"/>
              </g>
            </g>
            <g id="Group_4345" data-name="Group 4345">
              <g id="Group_4344" data-name="Group 4344">
                <path id="Path_3979" data-name="Path 3979" d="M949.252,111.112a1.5,1.5,0,0,1-1.5-1.5v-7.727a1.5,1.5,0,0,1,.221-.784l9.807-16a1.5,1.5,0,0,1,2.558,1.567l-9.586,15.642v7.305A1.5,1.5,0,0,1,949.252,111.112Z" fill="#5b7dab"/>
              </g>
            </g>
            <g id="Group_4347" data-name="Group 4347">
              <g id="Group_4346" data-name="Group 4346">
                <path id="Path_3980" data-name="Path 3980" d="M965.11,111.112a1.5,1.5,0,0,1-1.5-1.5v-7.727a1.514,1.514,0,0,1,.151-.658l7.8-16a1.5,1.5,0,0,1,2.7,1.315l-7.647,15.692v7.381A1.5,1.5,0,0,1,965.11,111.112Z" fill="#5b7dab"/>
              </g>
            </g>
            <g id="Group_4349" data-name="Group 4349">
              <g id="Group_4348" data-name="Group 4348">
                <path id="Path_3981" data-name="Path 3981" d="M981.017,111.112a1.5,1.5,0,0,1-1.5-1.5v-7.727a1.488,1.488,0,0,1,.069-.45l5.027-16a1.5,1.5,0,1,1,2.862.9l-4.958,15.783v7.5A1.5,1.5,0,0,1,981.017,111.112Z" fill="#5b7dab"/>
              </g>
            </g>
            <g id="Group_4351" data-name="Group 4351">
              <g id="Group_4350" data-name="Group 4350">
                <path id="Path_3982" data-name="Path 3982" d="M1012.718,111.112a1.5,1.5,0,0,1-1.5-1.5v-7.5l-4.958-15.783a1.5,1.5,0,1,1,2.862-.9l5.028,16a1.52,1.52,0,0,1,.068.45v7.727A1.5,1.5,0,0,1,1012.718,111.112Z" fill="#5b7dab"/>
              </g>
            </g>
            <g id="Group_4353" data-name="Group 4353">
              <g id="Group_4352" data-name="Group 4352">
                <path id="Path_3983" data-name="Path 3983" d="M1076.2,111.208a1.5,1.5,0,0,1-1.5-1.5v-7.18l-12.949-15.4a1.5,1.5,0,1,1,2.3-1.93l13.3,15.819a1.5,1.5,0,0,1,.352.966v7.727A1.5,1.5,0,0,1,1076.2,111.208Z" fill="#5b7dab"/>
              </g>
            </g>
            <g id="Group_4355" data-name="Group 4355">
              <g id="Group_4354" data-name="Group 4354">
                <path id="Path_3984" data-name="Path 3984" d="M1060.35,111.029a1.5,1.5,0,0,1-1.5-1.5v-7.214l-12.071-15.6a1.5,1.5,0,1,1,2.372-1.836l12.385,16a1.5,1.5,0,0,1,.314.917v7.727A1.5,1.5,0,0,1,1060.35,111.029Z" fill="#5b7dab"/>
              </g>
            </g>
            <g id="Group_4357" data-name="Group 4357">
              <g id="Group_4356" data-name="Group 4356">
                <path id="Path_3985" data-name="Path 3985" d="M1044.466,111.112a1.5,1.5,0,0,1-1.5-1.5v-7.305l-9.586-15.642a1.5,1.5,0,0,1,2.558-1.567l9.807,16a1.5,1.5,0,0,1,.221.784v7.727A1.5,1.5,0,0,1,1044.466,111.112Z" fill="#5b7dab"/>
              </g>
            </g>
            <g id="Group_4359" data-name="Group 4359">
              <g id="Group_4358" data-name="Group 4358">
                <path id="Path_3986" data-name="Path 3986" d="M1028.608,111.112a1.5,1.5,0,0,1-1.5-1.5v-7.381l-7.647-15.692a1.5,1.5,0,1,1,2.7-1.315l7.8,16a1.5,1.5,0,0,1,.152.658v7.727A1.5,1.5,0,0,1,1028.608,111.112Z" fill="#5b7dab"/>
              </g>
            </g>
            <g id="Group_4361" data-name="Group 4361">
              <g id="Group_4360" data-name="Group 4360">
                <path id="Path_3987" data-name="Path 3987" d="M944.957,165.054h-1.995a1.5,1.5,0,0,1,0-3h.495v-8.311h-.938a1.5,1.5,0,0,1,0-3h2.438a1.5,1.5,0,0,1,1.5,1.5v11.311A1.5,1.5,0,0,1,944.957,165.054Z" fill="#5b7dab"/>
              </g>
            </g>
            <g id="Group_4363" data-name="Group 4363">
              <g id="Group_4362" data-name="Group 4362">
                <path id="Path_3988" data-name="Path 3988" d="M1012.8,182.387a196.1,196.1,0,0,1-47.125-5.443,1.5,1.5,0,0,1-1.138-1.456V126.825a1.5,1.5,0,0,1,1.925-1.439c.421.124,42.678,12.256,99.25.351a1.5,1.5,0,0,1,1.809,1.467v47.843a1.5,1.5,0,0,1-1.5,1.5c-.137.017-1.057.208-2.032.409A252.826,252.826,0,0,1,1012.8,182.387Zm-45.263-8.077c20.193,4.852,52.9,8.578,95.845-.292.458-.094.832-.172,1.139-.234V129.046c-49.634,10.055-88.127,1.919-96.984-.276Z" fill="#5b7dab"/>
              </g>
            </g>
            <g id="Group_4365" data-name="Group 4365">
              <g id="Group_4364" data-name="Group 4364">
                <path id="Path_3989" data-name="Path 3989" d="M982.949,168.969c-.221,0-.45-.01-.687-.033l-3.049-.288a.75.75,0,0,1-.676-.817l.939-9.95a.752.752,0,0,1,.269-.508.768.768,0,0,1,.548-.169l2.729.258a5.315,5.315,0,0,1,3.074,1.065,2.928,2.928,0,0,1,.938,2.608,2.794,2.794,0,0,1-.908,1.875,2.448,2.448,0,0,1-.2.166,2.758,2.758,0,0,1,.351.359,2.922,2.922,0,0,1,.572,2.2,3.3,3.3,0,0,1-1.441,2.583A4.346,4.346,0,0,1,982.949,168.969Zm-2.1-2.292,1.594.151c1.774.175,2.084-.529,2.158-1.308.04-.423.123-1.3-2.044-1.507l-1.444-.136Zm.463-4.906,1.444.136a2.756,2.756,0,0,0,1.629-.171c.151-.09.358-.274.411-.825a.828.828,0,0,0-.291-.845,3.358,3.358,0,0,0-1.713-.5l-1.261-.119Z" fill="#5b7dab"/>
              </g>
            </g>
            <g id="Group_4367" data-name="Group 4367">
              <g id="Group_4366" data-name="Group 4366">
                <path id="Path_3990" data-name="Path 3990" d="M993.251,169.88c-.127,0-.257,0-.389-.011a4.121,4.121,0,0,1-4.174-4.688l.367-6.428a.759.759,0,0,1,.791-.706l.7.04a.751.751,0,0,1,.706.792l-.37,6.456a2.05,2.05,0,0,0,2.179,2.426,2.265,2.265,0,0,0,1.712-.471,2.242,2.242,0,0,0,.662-1.627l.372-6.525a.75.75,0,0,1,.791-.706l.7.039a.749.749,0,0,1,.707.792l-.368,6.457a4.318,4.318,0,0,1-1.408,3.156A4.4,4.4,0,0,1,993.251,169.88Z" fill="#5b7dab"/>
              </g>
            </g>
            <g id="Group_4369" data-name="Group 4369">
              <g id="Group_4368" data-name="Group 4368">
                <path id="Path_3991" data-name="Path 3991" d="M1003.026,170.286l-.171,0a8.285,8.285,0,0,1-3.084-.539.75.75,0,0,1-.447-.7l.018-.7a.75.75,0,0,1,1.06-.664,6.4,6.4,0,0,0,2.451.461,2.39,2.39,0,0,0,1.5-.367,1.037,1.037,0,0,0,.456-.878,1,1,0,0,0-.108-.538,1.432,1.432,0,0,0-.507-.445,8.973,8.973,0,0,0-1.441-.643,6.052,6.052,0,0,1-2.381-1.39,3.19,3.19,0,0,1,.48-4.551,4.219,4.219,0,0,1,2.752-.8,7.379,7.379,0,0,1,2.927.67.75.75,0,0,1,.369.989l-.269.6a.75.75,0,0,1-.99.376,5.464,5.464,0,0,0-2.077-.515,2.085,2.085,0,0,0-1.311.321.931.931,0,0,0-.388.793.88.88,0,0,0,.484.924,8.038,8.038,0,0,0,1.411.647,9.106,9.106,0,0,1,1.89.907,3.25,3.25,0,0,1,1.077,1.154,3.081,3.081,0,0,1,.326,1.541h0a3.13,3.13,0,0,1-1.267,2.538A4.47,4.47,0,0,1,1003.026,170.286Z" fill="#5b7dab"/>
              </g>
            </g>
            <g id="Group_4371" data-name="Group 4371">
              <g id="Group_4370" data-name="Group 4370">
                <path id="Path_3992" data-name="Path 3992" d="M1010.386,170.26h0l-.7,0a.749.749,0,0,1-.747-.754l.046-9.994a.768.768,0,0,1,.753-.747l.7,0a.749.749,0,0,1,.747.754l-.046,9.994A.75.75,0,0,1,1010.386,170.26Z" fill="#5b7dab"/>
              </g>
            </g>
            <g id="Group_4373" data-name="Group 4373">
              <g id="Group_4372" data-name="Group 4372">
                <path id="Path_3993" data-name="Path 3993" d="M1014.564,170.268a.749.749,0,0,1-.75-.735l-.2-9.992a.752.752,0,0,1,.736-.765l.7-.014a.775.775,0,0,1,.63.322l4.65,6.68-.125-6.352a.751.751,0,0,1,.735-.765l.677-.013a.808.808,0,0,1,.535.209.75.75,0,0,1,.23.526l.2,9.993a.751.751,0,0,1-.735.765l-.7.013a.745.745,0,0,1-.63-.321l-4.65-6.684.124,6.355a.752.752,0,0,1-.735.765l-.67.013Z" fill="#5b7dab"/>
              </g>
            </g>
            <g id="Group_4375" data-name="Group 4375">
              <g id="Group_4374" data-name="Group 4374">
                <path id="Path_3994" data-name="Path 3994" d="M1025.985,169.965a.75.75,0,0,1-.748-.713l-.5-9.982a.751.751,0,0,1,.712-.786l5.455-.272a.74.74,0,0,1,.787.712l.032.642a.75.75,0,0,1-.712.786l-4.01.2.113,2.278,3.745-.187a.752.752,0,0,1,.786.713l.031.643a.75.75,0,0,1-.712.785l-3.743.186.139,2.783,4.009-.2a.74.74,0,0,1,.786.711l.033.642a.75.75,0,0,1-.712.787l-5.455.272Z" fill="#5b7dab"/>
              </g>
            </g>
            <g id="Group_4377" data-name="Group 4377">
              <g id="Group_4376" data-name="Group 4376">
                <path id="Path_3995" data-name="Path 3995" d="M1036.174,169.471a6.608,6.608,0,0,1-2.038-.267.749.749,0,0,1-.514-.655l-.054-.7a.75.75,0,0,1,.987-.768,6.4,6.4,0,0,0,2.485.209,2.379,2.379,0,0,0,1.454-.517,1.041,1.041,0,0,0,.365-.92.994.994,0,0,0-.162-.524,1.5,1.5,0,0,0-.55-.394,9.043,9.043,0,0,0-1.5-.49,6.078,6.078,0,0,1-2.512-1.142,3.188,3.188,0,0,1,.016-4.576,4.234,4.234,0,0,1,2.653-1.08,7.483,7.483,0,0,1,2.98.367.752.752,0,0,1,.469.948l-.206.619a.749.749,0,0,1-.947.474,5.442,5.442,0,0,0-2.119-.3,2.082,2.082,0,0,0-1.271.452.929.929,0,0,0-.306.829,1.147,1.147,0,0,0,.145.531,1.2,1.2,0,0,0,.43.339,8.163,8.163,0,0,0,1.472.5,9.089,9.089,0,0,1,1.971.709,3.269,3.269,0,0,1,1.188,1.037,3.082,3.082,0,0,1,.482,1.5h0a3.156,3.156,0,0,1-1,2.654,4.554,4.554,0,0,1-2.833,1.115Q1036.678,169.471,1036.174,169.471Z" fill="#5b7dab"/>
              </g>
            </g>
            <g id="Group_4379" data-name="Group 4379">
              <g id="Group_4378" data-name="Group 4378">
                <path id="Path_3996" data-name="Path 3996" d="M1044.859,168.7a6.2,6.2,0,0,1-1.756-.215.749.749,0,0,1-.533-.641l-.073-.693a.75.75,0,0,1,.966-.795,6.461,6.461,0,0,0,2.491.141,2.386,2.386,0,0,0,1.44-.558,1.04,1.04,0,0,0,.338-.928,1,1,0,0,0-.176-.52,1.436,1.436,0,0,0-.56-.377,8.89,8.89,0,0,0-1.511-.45,6.047,6.047,0,0,1-2.542-1.073,3.187,3.187,0,0,1-.108-4.576,4.232,4.232,0,0,1,2.623-1.151,7.4,7.4,0,0,1,2.989.287.751.751,0,0,1,.494.934l-.19.624a.751.751,0,0,1-.933.5,5.43,5.43,0,0,0-2.126-.242,2.075,2.075,0,0,0-1.259.486.925.925,0,0,0-.282.837.88.88,0,0,0,.6.853,8.03,8.03,0,0,0,1.485.46,9.044,9.044,0,0,1,1.991.657,3.264,3.264,0,0,1,1.217,1,3.091,3.091,0,0,1,.522,1.487,3.159,3.159,0,0,1-.93,2.678,4.556,4.556,0,0,1-2.8,1.193A13.277,13.277,0,0,1,1044.859,168.7Z" fill="#5b7dab"/>
              </g>
            </g>
            <g id="Group_4384" data-name="Group 4384">
              <g id="Group_4381" data-name="Group 4381">
                <g id="Group_4380" data-name="Group 4380">
                  <path id="Path_3997" data-name="Path 3997" d="M1054,163.82h-.032a.75.75,0,0,1-.719-.729l-.154-6.027a.75.75,0,0,1,.739-.769l.813-.013a.75.75,0,0,1,.757.831l-.659,6.039A.75.75,0,0,1,1054,163.82Z" fill="#5b7dab"/>
                </g>
              </g>
              <g id="Group_4383" data-name="Group 4383">
                <g id="Group_4382" data-name="Group 4382">
                  <path id="Path_3998" data-name="Path 3998" d="M1054.077,167.829a1.209,1.209,0,0,1-.755-.251,1.663,1.663,0,0,1-.266-2.114,1.362,1.362,0,0,1,1.822-.225,1.443,1.443,0,0,1,.516,1.005v0a1.282,1.282,0,0,1-1.126,1.57A1.424,1.424,0,0,1,1054.077,167.829Zm-.191-1.487h0Z" fill="#5b7dab"/>
                </g>
              </g>
            </g>
            <g id="Group_4397" data-name="Group 4397">
              <g id="Group_4386" data-name="Group 4386">
                <g id="Group_4385" data-name="Group 4385">
                  <path id="Path_3999" data-name="Path 3999" d="M991.7,152.1c-.166,0-.337-.007-.511-.018l-3.057-.209a.749.749,0,0,1-.7-.8l.681-9.971a.753.753,0,0,1,.8-.7l2.735.186a5.311,5.311,0,0,1,3.1.986,2.925,2.925,0,0,1,1.005,2.582,2.8,2.8,0,0,1-.859,1.9,2.528,2.528,0,0,1-.2.171,2.707,2.707,0,0,1,.36.348,2.942,2.942,0,0,1,.63,2.181,3.31,3.31,0,0,1-1.375,2.621A4.447,4.447,0,0,1,991.7,152.1Zm-1.979-2.239,1.6.109c1.768.115,2.07-.584,2.124-1.365.028-.423.088-1.3-2.082-1.452l-1.448-.1Zm.336-4.917,1.448.1a2.781,2.781,0,0,0,1.622-.213c.15-.095.353-.284.391-.837a.836.836,0,0,0-.313-.837,3.353,3.353,0,0,0-1.725-.455l-1.264-.087Z" fill="#5b7dab"/>
                </g>
              </g>
              <g id="Group_4388" data-name="Group 4388">
                <g id="Group_4387" data-name="Group 4387">
                  <path id="Path_4000" data-name="Path 4000" d="M1005.248,152.723h-.026l-.785-.026a.751.751,0,0,1-.681-.5l-1.1-3.09-3.038-.1-1.309,3.01a.771.771,0,0,1-.713.452l-.772-.027a.749.749,0,0,1-.661-1.052l4.355-9.9a.734.734,0,0,1,.713-.447l.443.016a.749.749,0,0,1,.681.5l3.6,10.161a.749.749,0,0,1-.707,1Zm-4.716-5.817,1.392.047-.623-1.835Z" fill="#5b7dab"/>
                </g>
              </g>
              <g id="Group_4390" data-name="Group 4390">
                <g id="Group_4389" data-name="Group 4389">
                  <path id="Path_4001" data-name="Path 4001" d="M1011.995,152.891h-.013a4.947,4.947,0,0,1-3.874-1.616,6.267,6.267,0,0,1-1.394-4.3,6.73,6.73,0,0,1,.659-3.019,4.937,4.937,0,0,1,1.958-2.106,5.666,5.666,0,0,1,2.891-.731h.007a6.831,6.831,0,0,1,2.938.623.749.749,0,0,1,.363.983l-.28.629a.75.75,0,0,1-1.022.365,4.293,4.293,0,0,0-1.961-.47h-.008a3.033,3.033,0,0,0-2.395.95,4.01,4.01,0,0,0-.892,2.793,4.253,4.253,0,0,0,.834,2.835,2.784,2.784,0,0,0,2.352.924,7.137,7.137,0,0,0,2.081-.286.75.75,0,0,1,.969.718v.616a.753.753,0,0,1-.5.707A8.187,8.187,0,0,1,1011.995,152.891Z" fill="#5b7dab"/>
                </g>
              </g>
              <g id="Group_4392" data-name="Group 4392">
                <g id="Group_4391" data-name="Group 4391">
                  <path id="Path_4002" data-name="Path 4002" d="M1018.024,152.694a.751.751,0,0,1-.75-.727l-.3-9.991a.75.75,0,0,1,.727-.772l.7-.02a.741.741,0,0,1,.771.727l.1,3.375,3.615-4a.749.749,0,0,1,.534-.248l.888-.026a.722.722,0,0,1,.7.437.746.746,0,0,1-.128.818l-3.54,3.878,3.988,5.143a.75.75,0,0,1-.57,1.21l-.855.025a.74.74,0,0,1-.615-.291l-3.487-4.508-.448.42.112,3.761a.751.751,0,0,1-.727.773l-.7.021Z" fill="#5b7dab"/>
                </g>
              </g>
              <g id="Group_4394" data-name="Group 4394">
                <g id="Group_4393" data-name="Group 4393">
                  <path id="Path_4003" data-name="Path 4003" d="M1032.48,152.038a.75.75,0,0,1-.747-.7l-.688-9.97a.75.75,0,0,1,.695-.8l.7-.049a.75.75,0,0,1,.8.7l.688,9.97a.751.751,0,0,1-.7.8l-.7.048Z" fill="#5b7dab"/>
                </g>
              </g>
              <g id="Group_4396" data-name="Group 4396">
                <g id="Group_4395" data-name="Group 4395">
                  <path id="Path_4004" data-name="Path 4004" d="M1037.333,151.691a.75.75,0,0,1-.745-.679l-.952-9.948a.751.751,0,0,1,.676-.818l.694-.066a.743.743,0,0,1,.653.273l5.142,6.309-.6-6.325a.749.749,0,0,1,.675-.818l.674-.064a.744.744,0,0,1,.548.168.754.754,0,0,1,.27.507l.95,9.948a.749.749,0,0,1-.675.818l-.7.067a.729.729,0,0,1-.654-.272l-5.142-6.312.605,6.327a.753.753,0,0,1-.676.819l-.667.063C1037.381,151.69,1037.357,151.691,1037.333,151.691Z" fill="#5b7dab"/>
                </g>
              </g>
            </g>
            <g id="Group_4399" data-name="Group 4399">
              <g id="Group_4398" data-name="Group 4398">
                <path id="Path_4005" data-name="Path 4005" d="M1066.745,131.918a1.5,1.5,0,0,1-.843-2.742l8.12-5.5a1.5,1.5,0,0,1,1.684,2.484l-8.121,5.5A1.493,1.493,0,0,1,1066.745,131.918Z" fill="#5b7dab"/>
              </g>
            </g>
            <g id="Group_4401" data-name="Group 4401">
              <g id="Group_4400" data-name="Group 4400">
                <path id="Path_4006" data-name="Path 4006" d="M971.187,135.6a1.75,1.75,0,1,1,1.75-1.75A1.752,1.752,0,0,1,971.187,135.6Z" fill="#5b7dab"/>
              </g>
            </g>
            <g id="Group_4403" data-name="Group 4403">
              <g id="Group_4402" data-name="Group 4402">
                <path id="Path_4007" data-name="Path 4007" d="M1060.758,135.6a1.75,1.75,0,1,1,1.75-1.75A1.752,1.752,0,0,1,1060.758,135.6Z" fill="#5b7dab"/>
              </g>
            </g>
            <g id="Group_4405" data-name="Group 4405">
              <g id="Group_4404" data-name="Group 4404">
                <path id="Path_4008" data-name="Path 4008" d="M971.187,172.193a1.75,1.75,0,1,1,1.75-1.75A1.752,1.752,0,0,1,971.187,172.193Z" fill="#5b7dab"/>
              </g>
            </g>
            <g id="Group_4407" data-name="Group 4407">
              <g id="Group_4406" data-name="Group 4406">
                <path id="Path_4009" data-name="Path 4009" d="M1060.758,172.193a1.75,1.75,0,1,1,1.75-1.75A1.752,1.752,0,0,1,1060.758,172.193Z" fill="#5b7dab"/>
              </g>
            </g>
            <g id="Group_4409" data-name="Group 4409">
              <g id="Group_4408" data-name="Group 4408">
                <path id="Path_4010" data-name="Path 4010" d="M965.7,131.918a1.491,1.491,0,0,1-.862-.274l-6.4-4.507a1.5,1.5,0,0,1,1.728-2.452l6.4,4.507a1.5,1.5,0,0,1-.865,2.726Z" fill="#5b7dab"/>
              </g>
            </g>
            <g id="Group_4411" data-name="Group 4411">
              <g id="Group_4410" data-name="Group 4410">
                <path id="Path_4011" data-name="Path 4011" d="M965.791,170.309a1.5,1.5,0,0,1-.519-.092l-6.318-2.329a1.5,1.5,0,1,1,1.037-2.814l6.318,2.328a1.5,1.5,0,0,1-.518,2.907Z" fill="#5b7dab"/>
              </g>
            </g>
            <g id="Group_4414" data-name="Group 4414">
              <g id="Group_4413" data-name="Group 4413">
                <g id="Group_4412" data-name="Group 4412">
                  <path id="Path_4012" data-name="Path 4012" d="M1066.718,170.642a1.5,1.5,0,0,1-.672-2.841l4.323-2.163a1.5,1.5,0,0,1,1.342,2.684l-4.324,2.162A1.486,1.486,0,0,1,1066.718,170.642Z" fill="#5b7dab"/>
                </g>
              </g>
            </g>
            <g id="Group_4416" data-name="Group 4416">
              <g id="Group_4415" data-name="Group 4415">
                <path id="Path_4013" data-name="Path 4013" d="M1060.425,78.8a1.5,1.5,0,0,1-1.5-1.5V74.682H928.909V77.3a1.5,1.5,0,0,1-3,0V73.182a1.5,1.5,0,0,1,1.5-1.5h133.016a1.5,1.5,0,0,1,1.5,1.5V77.3A1.5,1.5,0,0,1,1060.425,78.8Z" fill="#5b7dab"/>
              </g>
            </g>
            <g id="Group_4418" data-name="Group 4418">
              <g id="Group_4417" data-name="Group 4417">
                <path id="Path_4014" data-name="Path 4014" d="M996.8,111.476a1.5,1.5,0,0,1-1.5-1.5V85.146a1.5,1.5,0,0,1,3,0v24.83A1.5,1.5,0,0,1,996.8,111.476Z" fill="#5b7dab"/>
              </g>
            </g>
            <g id="Group_4421" data-name="Group 4421">
              <g id="Group_4420" data-name="Group 4420">
                <g id="Group_4419" data-name="Group 4419">
                  <path id="Path_4015" data-name="Path 4015" d="M903.05,109.205" fill="none" stroke="#5b7dab" stroke-linecap="round" stroke-linejoin="round" stroke-width="3"/>
                </g>
              </g>
            </g>
            <g id="Group_4422" data-name="Group 4422">
              <path id="Path_4016" data-name="Path 4016" d="M1092.043,100.788l-17.564-16.4a1.5,1.5,0,1,0-2.048,2.192l16.98,15.861-1.047,6.532a1.441,1.441,0,0,0-.019.237c0,2.242-2.384,4.067-5.315,4.067s-5.3-1.818-5.313-4.054v-.013a1.5,1.5,0,0,0-1.5-1.5h0a1.5,1.5,0,0,0-1.5,1.5v.017c-.016,2.2-2.952,4.05-6.427,4.05s-6.428-1.863-6.428-4.067a1.5,1.5,0,0,0-1.5-1.5l-.017,0-.017,0a1.5,1.5,0,0,0-1.5,1.5c0,2.2-2.944,4.067-6.429,4.067s-6.409-1.852-6.426-4.047v-.02a1.5,1.5,0,0,0-1.5-1.5h0a1.5,1.5,0,0,0-1.5,1.5v.02c-.018,2.195-2.952,4.047-6.426,4.047s-6.429-1.863-6.429-4.067a1.5,1.5,0,0,0-1.5-1.5l-.016,0-.017,0a1.5,1.5,0,0,0-1.5,1.5c0,2.2-2.944,4.067-6.429,4.067s-6.412-1.853-6.426-4.05v-.017a1.5,1.5,0,0,0-1.5-1.5h0a1.5,1.5,0,0,0-1.5,1.5v.017c-.014,2.2-2.951,4.05-6.427,4.05s-6.428-1.863-6.428-4.067a1.5,1.5,0,0,0-1.5-1.5l-.02,0-.02,0a1.5,1.5,0,0,0-1.5,1.5c0,2.2-2.944,4.067-6.428,4.067s-6.409-1.852-6.427-4.047v-.02a1.5,1.5,0,0,0-1.5-1.5h0a1.5,1.5,0,0,0-1.5,1.5l0,.02c-.018,2.195-2.953,4.047-6.427,4.047s-6.428-1.863-6.428-4.067a1.5,1.5,0,0,0-1.5-1.5l-.017,0-.017,0a1.5,1.5,0,0,0-1.5,1.5c0,2.2-2.944,4.067-6.429,4.067s-6.408-1.852-6.426-4.047v-.02a1.5,1.5,0,0,0-1.5-1.5h0a1.5,1.5,0,0,0-1.5,1.5v.02c-.017,2.195-2.952,4.047-6.426,4.047s-6.428-1.863-6.428-4.067a1.5,1.5,0,0,0-1.5-1.5l-.017,0-.018,0a1.5,1.5,0,0,0-1.5,1.5c0,2.2-2.943,4.067-6.428,4.067-3.362,0-6.213-1.735-6.409-3.837,0-.077.014-.152.014-.23a1.5,1.5,0,0,0-1.5-1.5l-.017,0-.016,0a1.5,1.5,0,0,0-1.5,1.5c0,.056.009.11.011.166-.117,2.164-2.437,3.9-5.293,3.9-2.93,0-5.315-1.825-5.315-4.067a1.448,1.448,0,0,0-.019-.237l-1.051-6.56,16.016-15.863a1.5,1.5,0,1,0-2.112-2.132l-16.563,16.406a1.5,1.5,0,0,0-.425,1.3l1.156,7.211c.08,3.838,3.779,6.939,8.313,6.939a8.789,8.789,0,0,0,6.869-3.092,11.448,11.448,0,0,0,15.787-.13,11.414,11.414,0,0,0,15.872.023,11.414,11.414,0,0,0,15.872-.023,11.414,11.414,0,0,0,15.872.023,11.412,11.412,0,0,0,15.875-.027,11.412,11.412,0,0,0,15.875.027,11.415,11.415,0,0,0,15.873-.023,11.413,11.413,0,0,0,15.871.023,11.415,11.415,0,0,0,15.873-.023,11.44,11.44,0,0,0,15.8.112,8.789,8.789,0,0,0,6.885,3.11c4.535,0,8.233-3.1,8.313-6.939l1.157-7.211A1.5,1.5,0,0,0,1092.043,100.788Z" fill="#5b7dab"/>
            </g>
            <g id="Group_4429" data-name="Group 4429">
              <g id="Group_4424" data-name="Group 4424">
                <g id="Group_4423" data-name="Group 4423">
                  <path id="Path_4017" data-name="Path 4017" d="M1083.515,192.067a1.5,1.5,0,0,1-1.5-1.5v-4.878a1.5,1.5,0,0,1,3,0v4.878A1.5,1.5,0,0,1,1083.515,192.067Z" fill="#5b7dab"/>
                </g>
              </g>
              <g id="Group_4426" data-name="Group 4426">
                <g id="Group_4425" data-name="Group 4425">
                  <path id="Path_4018" data-name="Path 4018" d="M1083.156,213.128c-4.485,0-6.545-.827-6.765-.921a1.5,1.5,0,0,1-.9-1.189l-2.62-20.482a1.5,1.5,0,0,1,.436-1.259,1.484,1.484,0,0,1,1.265-.416,75.95,75.95,0,0,0,8.94.706,91.514,91.514,0,0,0,9.5-.709,1.5,1.5,0,0,1,1.681,1.678l-2.62,20.482a1.5,1.5,0,0,1-1.115,1.263A34.4,34.4,0,0,1,1083.156,213.128Zm7.429-2.3h0Zm-12.239-1.158a21.579,21.579,0,0,0,4.81.458,34.067,34.067,0,0,0,6.078-.548l2.241-17.524c-2.018.217-5.26.511-7.96.511a69.586,69.586,0,0,1-7.42-.491Z" fill="#5b7dab"/>
                </g>
              </g>
              <g id="Group_4428" data-name="Group 4428">
                <g id="Group_4427" data-name="Group 4427">
                  <path id="Path_4019" data-name="Path 4019" d="M1091.073,185.337h-.044l-17.233-.153a5.009,5.009,0,0,1-4.953-5.041l.008-.873a5,5,0,0,1,4.943-4.954,4.966,4.966,0,0,1-.282-1.691l.007-.873a4.974,4.974,0,0,1,2.74-4.409,4.842,4.842,0,0,1-.163-1.286l.007-.873a5.013,5.013,0,0,1,3.278-4.63l.011-1.261a3.225,3.225,0,0,1,.973-2.287,3.119,3.119,0,0,1,2.305-.933c.5,0,1.555.013,4.067,3.85.878,1.342,2.351,3.826,2.337,5.375l-.008.875a4.879,4.879,0,0,1-.185,1.282,4.97,4.97,0,0,1,2.661,4.455l-.008.875a4.941,4.941,0,0,1-.312,1.685,5.007,5.007,0,0,1,4.855,5.04l-.007.873A5,5,0,0,1,1091.073,185.337Zm-17.225-8.021a2,2,0,0,0-2,1.981l-.008.873a2.006,2.006,0,0,0,1.979,2.014l17.233.153a1.983,1.983,0,0,0,2.015-1.981l.007-.873a2.006,2.006,0,0,0-1.979-2.015h0l-3.182-.028a1.5,1.5,0,0,1-.59-2.874,2,2,0,0,0,1.208-1.808l.008-.875a2.012,2.012,0,0,0-1.9-2,1.5,1.5,0,0,1-1.066-2.474,1.961,1.961,0,0,0,.491-1.263l.008-.875c-.044-1.067-2.49-4.938-3.646-6.077a.239.239,0,0,0-.036.124l-.021,2.449a1.5,1.5,0,0,1-1.4,1.485,2,2,0,0,0-1.868,1.959l-.007.873a1.972,1.972,0,0,0,.468,1.272,1.5,1.5,0,0,1-1.109,2.454,2.013,2.013,0,0,0-1.936,1.968l-.007.873a2,2,0,0,0,1.176,1.83,1.5,1.5,0,0,1,.837,1.691,1.533,1.533,0,0,1-1.477,1.172l-3.183-.028Z" fill="#5b7dab"/>
                </g>
              </g>
            </g>
          </g>
        </g>
      </g>
      <text id="Core_lines_-_3pts" data-name="Core lines - 3pts" transform="translate(244 847)" fill="#333" font-size="18" font-family="OpenSans, Open Sans" letter-spacing="0.013em"><tspan x="0" y="19">Core lines - 3pts</tspan></text>
      <text id="Shadow_layer" data-name="Shadow layer" transform="translate(397 805)" fill="#333" font-size="18" font-family="OpenSans, Open Sans" letter-spacing="0.013em"><tspan x="0" y="19">Shadow layer</tspan></text>
      <text id="Background_lines_-_2pts" data-name="Background lines - 2pts" transform="translate(142 897)" fill="#333" font-size="18" font-family="OpenSans, Open Sans" letter-spacing="0.013em"><tspan x="0" y="19">Background lines - 2pts</tspan></text>
      <g id="Group_3465" data-name="Group 3465" transform="translate(239.502 864.5) rotate(-90)">
        <line id="Line_28" data-name="Line 28" x2="130.078" transform="translate(0 0)" fill="none" stroke="#333" stroke-linecap="round" stroke-width="1" stroke-dasharray="3 3"/>
      </g>
      <g id="Group_4434" data-name="Group 4434" transform="translate(388.502 824) rotate(-90)">
        <line id="Line_28-2" data-name="Line 28" x2="91.578" transform="translate(0 0)" fill="none" stroke="#333" stroke-linecap="round" stroke-width="1" stroke-dasharray="3 3"/>
      </g>
      <g id="Group_4433" data-name="Group 4433" transform="translate(137.502 915.501) rotate(-90)">
        <line id="Line_28-3" data-name="Line 28" x2="175.002" transform="translate(0 0)" fill="none" stroke="#333" stroke-linecap="round" stroke-width="1" stroke-dasharray="3 3"/>
      </g>
    </g>
  </g>
</svg>
