<?xml version="1.0" encoding="utf-8"?>
<!-- Generator: Adobe Illustrator 24.2.0, SVG Export Plug-In . SVG Version: 6.00 Build 0)  -->
<svg version="1.1" id="Layer_1" xmlns="http://www.w3.org/2000/svg" xmlns:xlink="http://www.w3.org/1999/xlink" x="0px" y="0px"
	 viewBox="0 0 282.4 238.9" style="enable-background:new 0 0 282.4 238.9;" xml:space="preserve">
<style type="text/css">
	.st0{enable-background:new    ;}
	.st1{fill:#244F91;}
	.st2{fill:#D1DAE7;}
	.st3{fill:#4569A0;}
	.st4{fill:#FFFFFF;}
</style>
<g id="Group_4736" transform="translate(-919.364 -2338.39)">
	<g id="Group_4241" transform="translate(2774 374.984)">
		<g class="st0">
			<path class="st1" d="M-1608.5,2172.1h-10.9l0.4-2.1l5.5-4.9c1.4-1.2,2.3-2.1,2.8-2.7s0.8-1.1,1.1-1.6s0.3-1,0.3-1.5
				c0-0.7-0.2-1.2-0.6-1.6s-0.9-0.6-1.6-0.6c-0.5,0-1.1,0.1-1.6,0.4s-1.2,0.7-2,1.3l-1.3-1.9c0.9-0.8,1.8-1.3,2.7-1.6
				s1.8-0.5,2.7-0.5c1.4,0,2.5,0.4,3.4,1.1s1.3,1.7,1.3,2.9c0,0.8-0.2,1.6-0.5,2.4s-0.8,1.5-1.4,2.2s-1.8,1.8-3.3,3.1l-3.6,3.1v0.1
				h7.3L-1608.5,2172.1z"/>
			<path class="st1" d="M-1598.8,2161.4c1.4,0,2.5,0.4,3.4,1.2s1.3,1.9,1.3,3.3c0,1.3-0.3,2.4-0.8,3.3s-1.3,1.7-2.4,2.2
				s-2.3,0.8-3.8,0.8c-1.7,0-3.1-0.3-4.2-0.9v-2.5c1.3,0.8,2.6,1.2,4,1.2c1.4,0,2.4-0.3,3.2-1s1.1-1.5,1.1-2.7c0-0.8-0.2-1.5-0.7-2
				s-1.2-0.7-2.2-0.7c-0.7,0-1.6,0.1-2.6,0.4l-1-0.8l2.3-8.3h8.4l-0.5,2.4h-5.9l-1.2,4.3
				C-1599.9,2161.5-1599.3,2161.4-1598.8,2161.4z"/>
			<path class="st1" d="M-1583.3,2158.2c0,1.2-0.2,2.5-0.7,3.7s-1,2.1-1.7,2.7s-1.5,0.9-2.4,0.9c-1,0-1.7-0.3-2.2-0.9
				s-0.8-1.5-0.8-2.7c0-1.3,0.2-2.5,0.6-3.7s1-2,1.7-2.6s1.5-0.9,2.4-0.9c1,0,1.7,0.3,2.3,0.9S-1583.3,2157-1583.3,2158.2z
				 M-1575.1,2154.9l-12.7,17.1h-2.3l12.7-17.1H-1575.1z M-1586.6,2156.7c-0.4,0-0.8,0.2-1.2,0.7s-0.6,1.2-0.8,2s-0.3,1.7-0.3,2.5
				c0,1.1,0.3,1.6,0.9,1.6c0.4,0,0.8-0.2,1.1-0.7s0.6-1.1,0.9-2.1s0.3-1.8,0.3-2.6C-1585.6,2157.2-1585.9,2156.7-1586.6,2156.7z
				 M-1573.9,2165c0,1.3-0.2,2.5-0.7,3.7s-1,2.1-1.7,2.7s-1.5,0.9-2.4,0.9c-1,0-1.7-0.3-2.3-0.9s-0.8-1.5-0.8-2.6
				c0-1.3,0.2-2.6,0.6-3.8s1-2,1.7-2.6s1.5-0.9,2.4-0.9c1,0,1.8,0.3,2.3,0.9S-1573.9,2163.9-1573.9,2165z M-1577.2,2163.5
				c-0.4,0-0.8,0.2-1.1,0.7s-0.6,1.1-0.8,2s-0.3,1.8-0.3,2.6c0,1,0.3,1.6,0.9,1.6c0.4,0,0.8-0.2,1.1-0.7s0.6-1.1,0.9-2
				s0.3-1.8,0.3-2.6C-1576.2,2164-1576.5,2163.5-1577.2,2163.5z"/>
		</g>
		<path id="Path_3947" class="st2" d="M-1574.9,2182.4h-240.5c-0.6,0-1.1-0.5-1-1.1c0-0.6,0.4-1.1,1-1.1h240.5c0.6,0,1.1,0.5,1,1.1
			C-1573.8,2181.9-1574.3,2182.4-1574.9,2182.4z"/>
		<path id="Path_3948" class="st3" d="M-1814.3,2184.3h36.9c1.1,0,2.1-1.3,2.1-3s-0.9-3-2.1-3h-36.9c-1.1,0-2.1,1.3-2.1,3
			S-1815.5,2184.3-1814.3,2184.3z"/>
		<g id="Group_4240">
			<path id="Path_3949" class="st3" d="M-1813,2181.6c0,11.4-9.3,20.7-20.7,20.7c0,0,0,0,0,0c-11.4,0-20.7-9.3-20.7-20.7
				c0,0,0,0,0,0c0-11.4,9.3-20.7,20.7-20.7C-1822.3,2160.9-1813,2170.2-1813,2181.6z"/>
			<path id="Path_3950" class="st4" d="M-1816.7,2181.6c0,9.4-7.6,17-17,17c0,0,0,0,0,0c-9.4,0-17-7.6-17-17l0,0c0-9.4,7.6-17,17-17
				C-1824.3,2164.6-1816.7,2172.2-1816.7,2181.6z"/>
			<path id="Mask-2" class="st3" d="M-1835.9,2186.9c0,0,0-9.2,0-10.2l3.4,0v1.4c0.6-1.1,1.8-1.7,3-1.7c2.2,0,3.9,1.4,3.9,4.6l0,5.8
				l-3.4,0l0-5.4c0-1.4-0.5-2.3-1.7-2.3c-0.8,0-1.5,0.5-1.7,1.2c-0.1,0.3-0.1,0.5-0.1,0.8l0,5.7L-1835.9,2186.9z M-1841.1,2186.9
				l0-10.2l3.4,0l0,10.2L-1841.1,2186.9z M-1839.5,2175.3c-1,0.1-1.8-0.7-1.9-1.6c0,0,0-0.1,0-0.1c0-1,0.8-1.8,1.8-1.8
				c0,0,0.1,0,0.1,0c1-0.1,1.8,0.6,1.9,1.6c0,0,0,0.1,0,0.1c0,1-0.8,1.8-1.8,1.8C-1839.4,2175.3-1839.4,2175.3-1839.5,2175.3
				L-1839.5,2175.3z"/>
		</g>
	</g>
	<g class="st0">
		<path class="st1" d="M1156.1,2420.5c0-1.6,0.2-3.2,0.7-4.8s1.1-2.9,1.9-4s1.8-1.9,2.9-2.5s2.5-0.9,4-0.9c0.9,0,1.7,0.1,2.4,0.3
			l-0.5,2.3c-0.6-0.2-1.3-0.3-2.1-0.3c-1.6,0-2.9,0.5-3.9,1.5s-1.8,2.5-2.3,4.6h0.1c1-1.3,2.2-2,3.8-2c1.2,0,2.2,0.4,2.9,1.2
			s1,1.8,1,3.2c0,1.3-0.3,2.4-0.8,3.5s-1.3,1.9-2.2,2.5s-2,0.8-3.2,0.8c-1.5,0-2.7-0.5-3.5-1.4S1156.1,2422.3,1156.1,2420.5z
			 M1161,2423.7c0.6,0,1.2-0.2,1.7-0.6s0.9-0.9,1.1-1.6s0.4-1.4,0.4-2.2c0-1.6-0.7-2.3-2.1-2.3c-0.4,0-0.8,0.1-1.1,0.2
			s-0.7,0.3-0.9,0.6s-0.5,0.5-0.7,0.8s-0.3,0.6-0.5,1s-0.2,0.8-0.2,1.3c0,0.9,0.2,1.6,0.6,2.1S1160.3,2423.7,1161,2423.7z"/>
		<path class="st1" d="M1180.8,2412.2c0,1.2-0.4,2.3-1.2,3.1s-1.8,1.4-3.2,1.6v0.1c1,0.2,1.8,0.6,2.3,1.2s0.8,1.4,0.8,2.4
			c0,1-0.3,2-0.8,2.8s-1.3,1.4-2.3,1.9s-2.2,0.7-3.6,0.7c-1.8,0-3.3-0.3-4.5-0.9v-2.5c0.7,0.4,1.4,0.7,2.2,0.9s1.6,0.3,2.3,0.3
			c1.2,0,2.2-0.3,2.9-0.8s1-1.3,1-2.3c0-1.7-1.1-2.6-3.3-2.6h-1.6l0.4-2.1h1.2c1.3,0,2.3-0.3,3.1-0.9s1.2-1.4,1.2-2.3
			c0-0.6-0.2-1.1-0.6-1.5s-0.9-0.5-1.6-0.5c-0.6,0-1.1,0.1-1.7,0.3s-1.2,0.5-1.9,1l-1.2-1.9c0.9-0.6,1.8-1.1,2.6-1.3
			s1.7-0.4,2.7-0.4c1.4,0,2.5,0.3,3.4,1S1180.8,2411,1180.8,2412.2z"/>
		<path class="st1" d="M1190.7,2411.8c0,1.2-0.2,2.5-0.7,3.7s-1,2.1-1.7,2.7s-1.5,0.9-2.4,0.9c-1,0-1.7-0.3-2.2-0.9
			s-0.8-1.5-0.8-2.7c0-1.3,0.2-2.5,0.6-3.7s1-2,1.7-2.6s1.5-0.9,2.4-0.9c1,0,1.7,0.3,2.3,0.9S1190.7,2410.7,1190.7,2411.8z
			 M1198.9,2408.6l-12.7,17.1h-2.3l12.7-17.1H1198.9z M1187.4,2410.3c-0.4,0-0.8,0.2-1.2,0.7s-0.6,1.2-0.8,2s-0.3,1.7-0.3,2.5
			c0,1.1,0.3,1.6,0.9,1.6c0.4,0,0.8-0.2,1.1-0.7s0.6-1.1,0.9-2.1s0.3-1.8,0.3-2.6C1188.4,2410.8,1188.1,2410.3,1187.4,2410.3z
			 M1200.1,2418.7c0,1.3-0.2,2.5-0.7,3.7s-1,2.1-1.7,2.7s-1.5,0.9-2.4,0.9c-1,0-1.7-0.3-2.3-0.9s-0.8-1.5-0.8-2.6
			c0-1.3,0.2-2.6,0.6-3.8s1-2,1.7-2.6s1.5-0.9,2.4-0.9c1,0,1.8,0.3,2.3,0.9S1200.1,2417.5,1200.1,2418.7z M1196.8,2417.2
			c-0.4,0-0.8,0.2-1.1,0.7s-0.6,1.1-0.8,2s-0.3,1.8-0.3,2.6c0,1,0.3,1.6,0.9,1.6c0.4,0,0.8-0.2,1.1-0.7s0.6-1.1,0.9-2
			s0.3-1.8,0.3-2.6C1197.8,2417.7,1197.5,2417.2,1196.8,2417.2z"/>
	</g>
	<path id="Path_3951" class="st2" d="M958.7,2434.1h240.5c0.6,0,1.1-0.5,1-1.1c0-0.6-0.4-1.1-1-1.1H958.7c-0.6,0-1.1,0.5-1,1.1
		C957.6,2433.6,958.1,2434.1,958.7,2434.1z"/>
	<path id="Path_3952" class="st3" d="M958.7,2436h117c1.1,0,2.1-1.3,2.1-3s-0.9-3-2.1-3h-117c-1.1,0-2.1,1.3-2.1,3
		S957.5,2436,958.7,2436z"/>
	<g class="st0">
		<path class="st1" d="M1161.9,2477.5c1.4,0,2.5,0.4,3.4,1.2s1.3,1.9,1.3,3.3c0,1.3-0.3,2.4-0.8,3.3s-1.3,1.7-2.4,2.2
			s-2.3,0.8-3.8,0.8c-1.7,0-3.1-0.3-4.2-0.9v-2.5c1.3,0.8,2.6,1.2,4,1.2c1.4,0,2.4-0.3,3.2-1s1.1-1.5,1.1-2.7c0-0.8-0.2-1.5-0.7-2
			s-1.2-0.7-2.2-0.7c-0.7,0-1.6,0.1-2.6,0.4l-1-0.8l2.3-8.3h8.4l-0.5,2.4h-5.9l-1.2,4.3C1160.9,2477.6,1161.5,2477.5,1161.9,2477.5z
			"/>
		<path class="st1" d="M1169.3,2482.9c0-1.6,0.2-3.2,0.7-4.8s1.1-2.9,1.9-4s1.8-1.9,2.9-2.5s2.5-0.9,4-0.9c0.9,0,1.7,0.1,2.4,0.3
			l-0.5,2.3c-0.6-0.2-1.3-0.3-2.1-0.3c-1.6,0-2.9,0.5-3.9,1.5s-1.8,2.5-2.3,4.6h0.1c1-1.3,2.2-2,3.8-2c1.2,0,2.2,0.4,2.9,1.2
			s1,1.8,1,3.2c0,1.3-0.3,2.4-0.8,3.5s-1.3,1.9-2.2,2.5s-2,0.8-3.2,0.8c-1.5,0-2.7-0.5-3.5-1.4S1169.3,2484.7,1169.3,2482.9z
			 M1174.2,2486.1c0.6,0,1.2-0.2,1.7-0.6s0.9-0.9,1.1-1.6s0.4-1.4,0.4-2.2c0-1.6-0.7-2.3-2.1-2.3c-0.4,0-0.8,0.1-1.1,0.2
			s-0.7,0.3-0.9,0.6s-0.5,0.5-0.7,0.8s-0.3,0.6-0.5,1s-0.2,0.8-0.2,1.3c0,0.9,0.2,1.6,0.6,2.1S1173.5,2486.1,1174.2,2486.1z"/>
		<path class="st1" d="M1190.7,2474.2c0,1.2-0.2,2.5-0.7,3.7s-1,2.1-1.7,2.7s-1.5,0.9-2.4,0.9c-1,0-1.7-0.3-2.2-0.9
			s-0.8-1.5-0.8-2.7c0-1.3,0.2-2.5,0.6-3.7s1-2,1.7-2.6s1.5-0.9,2.4-0.9c1,0,1.7,0.3,2.3,0.9S1190.7,2473.1,1190.7,2474.2z
			 M1198.9,2471l-12.7,17.1h-2.3l12.7-17.1H1198.9z M1187.4,2472.7c-0.4,0-0.8,0.2-1.2,0.7s-0.6,1.2-0.8,2s-0.3,1.7-0.3,2.5
			c0,1.1,0.3,1.6,0.9,1.6c0.4,0,0.8-0.2,1.1-0.7s0.6-1.1,0.9-2.1s0.3-1.8,0.3-2.6C1188.4,2473.2,1188.1,2472.7,1187.4,2472.7z
			 M1200.1,2481.1c0,1.3-0.2,2.5-0.7,3.7s-1,2.1-1.7,2.7s-1.5,0.9-2.4,0.9c-1,0-1.7-0.3-2.3-0.9s-0.8-1.5-0.8-2.6
			c0-1.3,0.2-2.6,0.6-3.8s1-2,1.7-2.6s1.5-0.9,2.4-0.9c1,0,1.8,0.3,2.3,0.9S1200.1,2479.9,1200.1,2481.1z M1196.8,2479.6
			c-0.4,0-0.8,0.2-1.1,0.7s-0.6,1.1-0.8,2s-0.3,1.8-0.3,2.6c0,1,0.3,1.6,0.9,1.6c0.4,0,0.8-0.2,1.1-0.7s0.6-1.1,0.9-2
			s0.3-1.8,0.3-2.6C1197.8,2480.1,1197.5,2479.6,1196.8,2479.6z"/>
	</g>
	<path id="Path_3953" class="st2" d="M958.7,2494.5h240.5c0.6,0,1.1-0.5,1-1.1c0-0.6-0.4-1.1-1-1.1H958.7c-0.6,0-1.1,0.5-1,1.1
		C957.6,2494,958.1,2494.5,958.7,2494.5z"/>
	<path id="Path_3954" class="st3" d="M958.7,2496.4h106.8c1.1,0,2.1-1.3,2.1-3s-0.9-3-2.1-3H958.7c-1.1,0-2.1,1.3-2.1,3
		S957.5,2496.4,958.7,2496.4z"/>
	<g id="Group_4243" transform="translate(2774 374.984)">
		<g class="st0">
			<path class="st1" d="M-1617.7,1989.4l8.8-14.7h-7.9l0.5-2.4h10.9l-0.4,2l-8.9,15.2H-1617.7z"/>
			<path class="st1" d="M-1604.7,1984.2c0-1.6,0.2-3.2,0.7-4.8s1.1-2.9,1.9-4s1.8-1.9,2.9-2.5s2.5-0.9,4-0.9c0.9,0,1.7,0.1,2.4,0.3
				l-0.5,2.3c-0.6-0.2-1.3-0.3-2.1-0.3c-1.6,0-2.9,0.5-3.9,1.5s-1.8,2.5-2.3,4.6h0.1c1-1.3,2.2-2,3.8-2c1.2,0,2.2,0.4,2.9,1.2
				s1,1.8,1,3.2c0,1.3-0.3,2.4-0.8,3.5s-1.3,1.9-2.2,2.5s-2,0.8-3.2,0.8c-1.5,0-2.7-0.5-3.5-1.4S-1604.7,1985.9-1604.7,1984.2z
				 M-1599.8,1987.4c0.6,0,1.2-0.2,1.7-0.6s0.9-0.9,1.1-1.6s0.4-1.4,0.4-2.2c0-1.6-0.7-2.3-2.1-2.3c-0.4,0-0.8,0.1-1.1,0.2
				s-0.7,0.3-0.9,0.6s-0.5,0.5-0.7,0.8s-0.3,0.6-0.5,1s-0.2,0.8-0.2,1.3c0,0.9,0.2,1.6,0.6,2.1S-1600.5,1987.4-1599.8,1987.4z"/>
			<path class="st1" d="M-1583.3,1975.5c0,1.2-0.2,2.5-0.7,3.7s-1,2.1-1.7,2.7s-1.5,0.9-2.4,0.9c-1,0-1.7-0.3-2.2-0.9
				s-0.8-1.5-0.8-2.7c0-1.3,0.2-2.5,0.6-3.7s1-2,1.7-2.6s1.5-0.9,2.4-0.9c1,0,1.7,0.3,2.3,0.9S-1583.3,1974.4-1583.3,1975.5z
				 M-1575.1,1972.3l-12.7,17.1h-2.3l12.7-17.1H-1575.1z M-1586.6,1974c-0.4,0-0.8,0.2-1.2,0.7s-0.6,1.2-0.8,2s-0.3,1.7-0.3,2.5
				c0,1.1,0.3,1.6,0.9,1.6c0.4,0,0.8-0.2,1.1-0.7s0.6-1.1,0.9-2.1s0.3-1.8,0.3-2.6C-1585.6,1974.5-1585.9,1974-1586.6,1974z
				 M-1573.9,1982.3c0,1.3-0.2,2.5-0.7,3.7s-1,2.1-1.7,2.7s-1.5,0.9-2.4,0.9c-1,0-1.7-0.3-2.3-0.9s-0.8-1.5-0.8-2.6
				c0-1.3,0.2-2.6,0.6-3.8s1-2,1.7-2.6s1.5-0.9,2.4-0.9c1,0,1.8,0.3,2.3,0.9S-1573.9,1981.2-1573.9,1982.3z M-1577.2,1980.8
				c-0.4,0-0.8,0.2-1.1,0.7s-0.6,1.1-0.8,2s-0.3,1.8-0.3,2.6c0,1,0.3,1.6,0.9,1.6c0.4,0,0.8-0.2,1.1-0.7s0.6-1.1,0.9-2
				s0.3-1.8,0.3-2.6C-1576.2,1981.4-1576.5,1980.8-1577.2,1980.8z"/>
		</g>
		<path id="Path_3955" class="st2" d="M-1815.3,1997.8h240.5c0.6,0,1.1-0.5,1-1.1c0-0.6-0.4-1.1-1-1.1h-240.5c-0.6,0-1.1,0.5-1,1.1
			C-1816.4,1997.2-1815.9,1997.7-1815.3,1997.8z"/>
		<path id="Path_3956" class="st3" d="M-1815.3,1999.6h140.1c1.1,0,2.1-1.3,2.1-3s-0.9-3-2.1-3h-140.1c-1.1,0-2.1,1.3-2.1,3
			S-1816.5,1999.6-1815.3,1999.6z"/>
		<g id="Group_4242">
			<path id="Path_3957" class="st3" d="M-1813,1996c0,11.4-9.3,20.7-20.7,20.7c0,0,0,0,0,0c-11.4,0-20.7-9.3-20.7-20.7c0,0,0,0,0,0
				c0-11.4,9.3-20.7,20.7-20.7C-1822.3,1975.3-1813,1984.6-1813,1996z"/>
			<path id="Path_3958" class="st4" d="M-1816.7,1996c0,9.4-7.6,17-17,17c0,0,0,0,0,0c-9.4,0-17-7.6-17-17l0,0c0-9.4,7.6-17,17-17
				C-1824.3,1979-1816.7,1986.6-1816.7,1996z"/>
			<path id="Mask" class="st3" d="M-1833.8,1992.1l0,0.7l-0.7-0.1c-2.5-0.3-4.8-1.4-6.5-3.2l-0.9-0.9l-0.2,0.7
				c-0.5,1.4-0.2,3,0.9,4.1c0.6,0.6,0.4,0.7-0.5,0.3c-0.2-0.1-0.4-0.1-0.6-0.2c0,0.6,0.2,1.3,0.5,1.9c0.4,0.8,1.1,1.4,1.9,1.8
				l0.7,0.3l-0.8,0c-0.8,0-0.8,0-0.7,0.3c0.5,1.1,1.4,1.9,2.6,2.3l0.9,0.3l-0.7,0.4c-1.1,0.6-2.4,1-3.7,1c-0.4,0-0.8,0-1.1,0.1
				c0.8,0.5,1.7,0.9,2.7,1.2c3,0.9,6.3,0.5,9-1c2-1.3,3.6-3.2,4.6-5.4c0.5-1.3,0.8-2.7,0.9-4.2c0-0.6,0-0.7,0.8-1.5
				c0.3-0.3,0.7-0.7,1-1.1c0.1-0.3,0.1-0.3-0.6,0c-1.2,0.4-1.3,0.4-0.8-0.3c0.4-0.4,0.7-0.9,0.9-1.5c0,0-0.2,0-0.4,0.2
				c-0.4,0.2-0.8,0.4-1.2,0.5l-0.7,0.2l-0.7-0.5c-0.4-0.2-0.8-0.5-1.2-0.6c-0.8-0.2-1.6-0.2-2.4,0.1
				C-1832.8,1988.6-1833.9,1990.3-1833.8,1992.1z"/>
		</g>
	</g>
	<g id="Group_4244" transform="translate(2774 374.984)">
		<path id="Path_3959" class="st3" d="M-1813,2057.4c0,11.4-9.3,20.7-20.7,20.7l0,0c-11.4,0-20.7-9.3-20.7-20.7
			c0-11.4,9.3-20.7,20.7-20.7C-1822.3,2036.7-1813,2046-1813,2057.4z"/>
		<path id="Path_3960" class="st4" d="M-1816.7,2057.4c0,9.4-7.6,17-17,17c-9.4,0-17-7.6-17-17c0-9.4,7.6-17,17-17
			C-1824.3,2040.4-1816.7,2048-1816.7,2057.4z"/>
		<path id="Mask-3" class="st3" d="M-1833.1,2065.2l0-8.5h2.4l0.3-2.9h-2.7v-1.5c0-0.8,0.1-1.2,1.2-1.2h1.5l0-2.9h-2.4
			c-2.8,0-3.8,1.4-3.8,3.8v1.8h-1.8l0,2.9h1.8l0,8.5L-1833.1,2065.2z"/>
	</g>
	<g id="Group_4245" transform="translate(2774 374.984)">
		<path id="Path_3961" class="st3" d="M-1813.3,2117.6c0,11.4-9.3,20.7-20.7,20.7l0,0c-11.4,0-20.7-9.3-20.7-20.7c0,0,0,0,0,0
			c0-11.4,9.3-20.7,20.7-20.7C-1822.6,2097-1813.3,2106.2-1813.3,2117.6z"/>
		<path id="Path_3962" class="st4" d="M-1817,2117.6c0,9.4-7.6,17-17,17c-9.4,0-17-7.6-17-17l0,0c0-9.4,7.6-17,17-17
			C-1824.6,2100.6-1817,2108.2-1817,2117.6z"/>
		<path id="Mask-4" class="st3" d="M-1834,2124.4c-0.1,0-6.1,0-7.6-0.4c-0.8-0.2-1.5-0.9-1.7-1.7c-0.3-1.5-0.4-3.1-0.4-4.7
			c0-1.6,0.1-3.1,0.4-4.7c0.2-0.8,0.9-1.5,1.7-1.7c1.5-0.4,7.6-0.4,7.6-0.4s6.1,0,7.6,0.4c0.8,0.2,1.5,0.9,1.7,1.7
			c0.3,1.5,0.4,3.1,0.4,4.7c0,1.6-0.1,3.1-0.4,4.7c-0.2,0.8-0.9,1.5-1.7,1.7C-1827.8,2124.4-1833.9,2124.4-1834,2124.4z
			 M-1835.8,2114.6l0,6.2l4.9-3.1L-1835.8,2114.6z"/>
	</g>
</g>
</svg>
