<svg xmlns="http://www.w3.org/2000/svg" width="947.901" height="167.422" viewBox="0 0 947.901 167.422">
  <g id="Group_4810" data-name="Group 4810" transform="translate(-282.597 -1202.331)">
    <g id="Group_4616" data-name="Group 4616" transform="translate(-166 375.184)">
      <circle id="Ellipse_143" data-name="Ellipse 143" cx="4" cy="4" r="4" transform="translate(572.592 868.184)" fill="#745fd7"/>
    </g>
    <g id="Group_4617" data-name="Group 4617" transform="translate(-166 375.184)">
      <path id="Person-2" d="M612.548,875.271c-.006-4.7,4.49-8.524,10.044-8.532s10.06,3.8,10.067,8.5Zm4.287-15.623a5.746,5.746,0,1,1,5.69,5.675A5.746,5.746,0,0,1,616.835,859.648Z" fill="#745fd7"/>
      <path id="Person-2-2" data-name="Person-2" d="M587.3,875.308c-.007-4.7,4.489-8.525,10.043-8.533s10.061,3.8,10.067,8.5Zm4.286-15.623a5.746,5.746,0,1,1,5.69,5.674A5.746,5.746,0,0,1,591.582,859.685Z" fill="#745fd7"/>
    </g>
    <path id="Person-2-3" data-name="Person-2" d="M915.671,945.05c-.007-4.7,4.489-8.524,10.043-8.532s10.061,3.8,10.068,8.5Zm4.286-15.622a5.746,5.746,0,1,1,5.691,5.674A5.747,5.747,0,0,1,919.957,929.428Z" transform="translate(-166 375.184)" fill="#4a5c74"/>
    <g id="Group_4618" data-name="Group 4618" transform="translate(-166 375.184)">
      <path id="Person-2-4" data-name="Person-2" d="M663.054,875.2c-.007-4.7,4.489-8.524,10.043-8.532s10.061,3.8,10.068,8.5Zm4.286-15.622a5.746,5.746,0,1,1,5.691,5.674A5.746,5.746,0,0,1,667.34,859.575Z" fill="#b3a7e9"/>
      <path id="Person-2-5" data-name="Person-2" d="M637.8,875.234c-.007-4.7,4.49-8.524,10.043-8.532s10.061,3.8,10.068,8.5Zm4.286-15.622a5.746,5.746,0,1,1,5.691,5.674A5.746,5.746,0,0,1,642.087,859.612Z" fill="#b3a7e9"/>
      <path id="Person-2-6" data-name="Person-2" d="M688.307,875.16c-.007-4.7,4.489-8.524,10.043-8.532s10.061,3.8,10.068,8.5Zm4.286-15.622a5.746,5.746,0,1,1,5.691,5.674A5.746,5.746,0,0,1,692.593,859.538Z" fill="#b3a7e9"/>
      <path id="Person-2-7" data-name="Person-2" d="M789.318,875.013c-.007-4.7,4.489-8.524,10.043-8.532s10.061,3.8,10.068,8.5ZM793.6,859.39a5.746,5.746,0,1,1,5.691,5.675A5.746,5.746,0,0,1,793.6,859.39Z" fill="#b3a7e9"/>
      <path id="Person-2-8" data-name="Person-2" d="M764.065,875.05c-.006-4.7,4.49-8.524,10.044-8.533s10.06,3.8,10.067,8.5Zm4.286-15.623a5.746,5.746,0,1,1,5.691,5.674A5.748,5.748,0,0,1,768.351,859.427Z" fill="#b3a7e9"/>
      <path id="Person-2-9" data-name="Person-2" d="M738.813,875.086c-.007-4.7,4.489-8.524,10.043-8.532s10.061,3.8,10.067,8.5Zm4.286-15.622a5.746,5.746,0,1,1,5.69,5.674A5.746,5.746,0,0,1,743.1,859.464Z" fill="#b3a7e9"/>
      <path id="Person-2-10" data-name="Person-2" d="M713.56,875.123c-.007-4.7,4.489-8.524,10.043-8.532s10.061,3.8,10.068,8.5Zm4.286-15.622a5.746,5.746,0,1,1,5.691,5.674A5.746,5.746,0,0,1,717.846,859.5Z" fill="#b3a7e9"/>
      <path id="Person-2-11" data-name="Person-2" d="M814.571,874.976c-.007-4.7,4.489-8.524,10.043-8.532s10.061,3.8,10.068,8.5Zm4.286-15.622a5.746,5.746,0,1,1,5.691,5.674A5.746,5.746,0,0,1,818.857,859.354Z" fill="#b3a7e9"/>
      <path id="Person-2-12" data-name="Person-2" d="M915.582,874.829c-.006-4.7,4.49-8.525,10.044-8.533s10.06,3.8,10.067,8.5Zm4.286-15.623a5.746,5.746,0,1,1,5.691,5.674A5.748,5.748,0,0,1,919.868,859.206Z" fill="#b3a7e9"/>
      <path id="Person-2-13" data-name="Person-2" d="M890.33,874.865c-.007-4.7,4.489-8.524,10.043-8.532s10.061,3.8,10.067,8.5Zm4.286-15.622a5.746,5.746,0,1,1,5.69,5.674A5.746,5.746,0,0,1,894.616,859.243Z" fill="#b3a7e9"/>
      <path id="Person-2-14" data-name="Person-2" d="M865.077,874.9c-.007-4.7,4.489-8.524,10.043-8.532s10.061,3.8,10.068,8.5Zm4.286-15.622a5.746,5.746,0,1,1,5.691,5.674A5.746,5.746,0,0,1,869.363,859.28Z" fill="#b3a7e9"/>
      <path id="Person-2-15" data-name="Person-2" d="M839.824,874.939c-.007-4.7,4.489-8.524,10.043-8.532s10.061,3.8,10.068,8.5Zm4.286-15.622a5.746,5.746,0,1,1,5.691,5.674A5.746,5.746,0,0,1,844.11,859.317Z" fill="#b3a7e9"/>
      <path id="Person-2-16" data-name="Person-2" d="M940.835,874.792c-.007-4.7,4.489-8.524,10.043-8.532s10.061,3.8,10.068,8.5Zm4.286-15.623a5.746,5.746,0,1,1,5.691,5.675A5.747,5.747,0,0,1,945.121,859.169Z" fill="#b3a7e9"/>
      <path id="Person-2-17" data-name="Person-2" d="M1041.847,874.644c-.007-4.7,4.489-8.524,10.043-8.532s10.061,3.8,10.067,8.5Zm4.286-15.622a5.746,5.746,0,1,1,5.69,5.674A5.746,5.746,0,0,1,1046.133,859.022Z" fill="#b3a7e9"/>
      <path id="Person-2-18" data-name="Person-2" d="M1016.594,874.681c-.007-4.7,4.489-8.524,10.043-8.532s10.061,3.8,10.068,8.5Zm4.286-15.622a5.746,5.746,0,1,1,5.69,5.674A5.746,5.746,0,0,1,1020.88,859.059Z" fill="#b3a7e9"/>
      <path id="Person-2-19" data-name="Person-2" d="M991.341,874.718c-.007-4.7,4.489-8.524,10.043-8.532s10.061,3.8,10.068,8.5Zm4.286-15.622a5.746,5.746,0,1,1,5.691,5.674A5.745,5.745,0,0,1,995.627,859.1Z" fill="#b3a7e9"/>
      <path id="Person-2-20" data-name="Person-2" d="M966.088,874.755c-.007-4.7,4.489-8.524,10.043-8.532s10.061,3.8,10.068,8.5Zm4.286-15.622a5.746,5.746,0,1,1,5.691,5.674A5.746,5.746,0,0,1,970.374,859.133Z" fill="#b3a7e9"/>
      <path id="Person-2-21" data-name="Person-2" d="M1067.1,874.607c-.006-4.7,4.49-8.524,10.043-8.532s10.061,3.8,10.068,8.5Zm4.286-15.622a5.746,5.746,0,1,1,5.691,5.674A5.748,5.748,0,0,1,1071.385,858.985Z" fill="#b3a7e9"/>
      <path id="Person-2-22" data-name="Person-2" d="M1168.111,874.46c-.007-4.7,4.489-8.524,10.043-8.532s10.061,3.8,10.068,8.5Zm4.286-15.622a5.746,5.746,0,1,1,5.69,5.674A5.745,5.745,0,0,1,1172.4,858.838Z" fill="#b3a7e9"/>
      <path id="Person-2-23" data-name="Person-2" d="M1142.858,874.5c-.007-4.7,4.489-8.524,10.043-8.532s10.061,3.8,10.068,8.5Zm4.286-15.622a5.746,5.746,0,1,1,5.691,5.674A5.745,5.745,0,0,1,1147.144,858.875Z" fill="#b3a7e9"/>
      <path id="Person-2-24" data-name="Person-2" d="M1117.6,874.534c-.007-4.7,4.489-8.524,10.043-8.532s10.061,3.8,10.068,8.5Zm4.286-15.623a5.746,5.746,0,1,1,5.691,5.675A5.746,5.746,0,0,1,1121.891,858.911Z" fill="#b3a7e9"/>
      <path id="Person-2-25" data-name="Person-2" d="M1092.352,874.571c-.007-4.7,4.489-8.524,10.043-8.533s10.061,3.8,10.068,8.5Zm4.286-15.623a5.746,5.746,0,1,1,5.691,5.674A5.747,5.747,0,0,1,1096.638,858.948Z" fill="#b3a7e9"/>
      <path id="Person-2-26" data-name="Person-2" d="M1193.364,874.423c-.007-4.7,4.489-8.524,10.043-8.532s10.06,3.8,10.067,8.5Zm4.286-15.622a5.746,5.746,0,1,1,5.69,5.674A5.746,5.746,0,0,1,1197.65,858.8Z" fill="#b3a7e9"/>
      <path id="Person-2-27" data-name="Person-2" d="M663.1,910.308c-.007-4.7,4.489-8.524,10.043-8.532s10.061,3.8,10.068,8.5Zm4.286-15.622a5.746,5.746,0,1,1,5.691,5.674A5.746,5.746,0,0,1,667.385,894.686Z" fill="#b3a7e9"/>
      <path id="Person-2-28" data-name="Person-2" d="M637.846,910.345c-.007-4.7,4.489-8.524,10.043-8.532s10.061,3.8,10.068,8.5Zm4.286-15.622a5.746,5.746,0,1,1,5.691,5.674A5.746,5.746,0,0,1,642.132,894.723Z" fill="#b3a7e9"/>
      <path id="Person-2-29" data-name="Person-2" d="M612.593,910.382c-.007-4.7,4.489-8.524,10.043-8.532s10.061,3.8,10.068,8.5Zm4.286-15.623a5.746,5.746,0,1,1,5.691,5.674A5.747,5.747,0,0,1,616.879,894.759Z" fill="#b3a7e9"/>
      <path id="Person-2-30" data-name="Person-2" d="M587.34,910.418c-.006-4.7,4.49-8.524,10.044-8.532s10.06,3.8,10.067,8.5Zm4.286-15.622a5.746,5.746,0,1,1,5.691,5.674A5.748,5.748,0,0,1,591.626,894.8Z" fill="#b3a7e9"/>
      <path id="Person-2-31" data-name="Person-2" d="M688.352,910.271c-.007-4.7,4.489-8.524,10.043-8.532s10.061,3.8,10.068,8.5Zm4.286-15.622a5.746,5.746,0,1,1,5.69,5.674A5.746,5.746,0,0,1,692.638,894.649Z" fill="#b3a7e9"/>
      <path id="Person-2-32" data-name="Person-2" d="M789.363,910.124c-.007-4.7,4.489-8.524,10.043-8.532s10.061,3.8,10.068,8.5Zm4.286-15.623a5.746,5.746,0,1,1,5.691,5.675A5.746,5.746,0,0,1,793.649,894.5Z" fill="#b3a7e9"/>
      <path id="Person-2-33" data-name="Person-2" d="M764.11,910.161c-.007-4.7,4.489-8.524,10.043-8.533s10.061,3.8,10.068,8.5Zm4.286-15.623a5.746,5.746,0,1,1,5.691,5.674A5.747,5.747,0,0,1,768.4,894.538Z" fill="#b3a7e9"/>
      <path id="Person-2-34" data-name="Person-2" d="M738.857,910.2c-.006-4.7,4.49-8.524,10.043-8.532s10.061,3.8,10.068,8.5Zm4.286-15.622a5.746,5.746,0,1,1,5.691,5.674A5.748,5.748,0,0,1,743.143,894.575Z" fill="#b3a7e9"/>
      <path id="Person-2-35" data-name="Person-2" d="M713.6,910.234c-.007-4.7,4.489-8.524,10.043-8.532s10.061,3.8,10.067,8.5Zm4.286-15.622a5.746,5.746,0,1,1,5.69,5.674A5.746,5.746,0,0,1,717.891,894.612Z" fill="#b3a7e9"/>
      <path id="Person-2-36" data-name="Person-2" d="M814.616,910.087c-.007-4.7,4.489-8.524,10.043-8.532s10.061,3.8,10.068,8.5Zm4.286-15.622a5.746,5.746,0,1,1,5.691,5.674A5.746,5.746,0,0,1,818.9,894.465Z" fill="#b3a7e9"/>
      <path id="Person-2-37" data-name="Person-2" d="M915.627,909.939c-.007-4.7,4.489-8.524,10.043-8.532s10.061,3.8,10.068,8.5Zm4.286-15.622a5.746,5.746,0,1,1,5.691,5.674A5.747,5.747,0,0,1,919.913,894.317Z" fill="#b3a7e9"/>
      <path id="Person-2-38" data-name="Person-2" d="M890.374,909.976c-.006-4.7,4.49-8.524,10.043-8.532s10.061,3.8,10.068,8.5Zm4.286-15.622a5.746,5.746,0,1,1,5.691,5.674A5.747,5.747,0,0,1,894.66,894.354Z" fill="#b3a7e9"/>
      <path id="Person-2-39" data-name="Person-2" d="M865.122,910.013c-.007-4.7,4.489-8.524,10.043-8.532s10.06,3.8,10.067,8.5Zm4.286-15.622a5.746,5.746,0,1,1,5.69,5.674A5.745,5.745,0,0,1,869.408,894.391Z" fill="#b3a7e9"/>
      <path id="Person-2-40" data-name="Person-2" d="M839.869,910.05c-.007-4.7,4.489-8.524,10.043-8.532s10.061,3.8,10.068,8.5Zm4.286-15.622a5.746,5.746,0,1,1,5.69,5.674A5.745,5.745,0,0,1,844.155,894.428Z" fill="#b3a7e9"/>
      <path id="Person-2-41" data-name="Person-2" d="M940.88,909.9c-.007-4.7,4.489-8.524,10.043-8.533s10.061,3.8,10.068,8.5Zm4.286-15.623a5.746,5.746,0,1,1,5.691,5.674A5.747,5.747,0,0,1,945.166,894.28Z" fill="#b3a7e9"/>
      <path id="Person-2-42" data-name="Person-2" d="M1041.891,909.755c-.007-4.7,4.49-8.524,10.043-8.532s10.061,3.8,10.068,8.5Zm4.286-15.622a5.746,5.746,0,1,1,5.691,5.674A5.747,5.747,0,0,1,1046.177,894.133Z" fill="#b3a7e9"/>
      <path id="Person-2-43" data-name="Person-2" d="M1016.639,909.792c-.007-4.7,4.489-8.524,10.043-8.532s10.06,3.8,10.067,8.5Zm4.286-15.622a5.746,5.746,0,1,1,5.69,5.674A5.745,5.745,0,0,1,1020.925,894.17Z" fill="#b3a7e9"/>
      <path id="Person-2-44" data-name="Person-2" d="M991.386,909.829c-.007-4.7,4.489-8.524,10.043-8.532s10.061,3.8,10.067,8.5Zm4.286-15.622a5.746,5.746,0,1,1,5.69,5.674A5.745,5.745,0,0,1,995.672,894.207Z" fill="#b3a7e9"/>
      <path id="Person-2-45" data-name="Person-2" d="M966.133,909.866c-.007-4.7,4.489-8.524,10.043-8.532s10.061,3.8,10.068,8.5Zm4.286-15.622a5.746,5.746,0,1,1,5.691,5.674A5.746,5.746,0,0,1,970.419,894.244Z" fill="#b3a7e9"/>
      <path id="Person-2-46" data-name="Person-2" d="M1067.144,909.718c-.007-4.7,4.489-8.524,10.043-8.532s10.061,3.8,10.068,8.5Zm4.286-15.622a5.746,5.746,0,1,1,5.691,5.674A5.747,5.747,0,0,1,1071.43,894.1Z" fill="#b3a7e9"/>
      <path id="Person-2-47" data-name="Person-2" d="M1168.155,909.571c-.006-4.7,4.49-8.524,10.044-8.532s10.06,3.8,10.067,8.5Zm4.286-15.622a5.746,5.746,0,1,1,5.691,5.674A5.746,5.746,0,0,1,1172.441,893.949Z" fill="#b3a7e9"/>
      <path id="Person-2-48" data-name="Person-2" d="M1142.9,909.608c-.007-4.7,4.489-8.524,10.043-8.532s10.061,3.8,10.067,8.5Zm4.286-15.622a5.746,5.746,0,1,1,5.69,5.674A5.745,5.745,0,0,1,1147.189,893.986Z" fill="#b3a7e9"/>
      <path id="Person-2-49" data-name="Person-2" d="M1117.65,909.645c-.007-4.7,4.489-8.524,10.043-8.532s10.061,3.8,10.068,8.5Zm4.286-15.623a5.746,5.746,0,1,1,5.691,5.675A5.745,5.745,0,0,1,1121.936,894.022Z" fill="#b3a7e9"/>
      <path id="Person-2-50" data-name="Person-2" d="M1092.4,909.682c-.007-4.7,4.489-8.524,10.043-8.533s10.061,3.8,10.068,8.5Zm4.286-15.623a5.746,5.746,0,1,1,5.691,5.674A5.747,5.747,0,0,1,1096.683,894.059Z" fill="#b3a7e9"/>
      <path id="Person-2-51" data-name="Person-2" d="M1193.408,909.534c-.007-4.7,4.489-8.524,10.043-8.532s10.061,3.8,10.068,8.5Zm4.286-15.622a5.746,5.746,0,1,1,5.691,5.674A5.747,5.747,0,0,1,1197.694,893.912Z" fill="#b3a7e9"/>
      <path id="Person-2-52" data-name="Person-2" d="M663.143,945.419c-.007-4.7,4.489-8.524,10.043-8.532s10.061,3.8,10.067,8.5Zm4.286-15.622a5.746,5.746,0,1,1,5.69,5.674A5.745,5.745,0,0,1,667.429,929.8Z" fill="#b3a7e9"/>
      <path id="Person-2-53" data-name="Person-2" d="M637.89,945.456c-.007-4.7,4.489-8.524,10.043-8.532s10.061,3.8,10.068,8.5Zm4.286-15.622a5.746,5.746,0,1,1,5.691,5.674A5.745,5.745,0,0,1,642.176,929.834Z" fill="#b3a7e9"/>
      <path id="Person-2-54" data-name="Person-2" d="M612.637,945.493c-.007-4.7,4.489-8.524,10.043-8.533s10.061,3.8,10.068,8.5Zm4.286-15.623a5.746,5.746,0,1,1,5.691,5.674A5.747,5.747,0,0,1,616.923,929.87Z" fill="#b3a7e9"/>
      <path id="Person-2-55" data-name="Person-2" d="M587.384,945.529c-.007-4.7,4.489-8.524,10.043-8.532s10.061,3.8,10.068,8.5Zm4.286-15.622a5.746,5.746,0,1,1,5.691,5.674A5.747,5.747,0,0,1,591.67,929.907Z" fill="#b3a7e9"/>
      <path id="Person-2-56" data-name="Person-2" d="M688.4,945.382c-.006-4.7,4.49-8.524,10.044-8.532s10.06,3.8,10.067,8.5Zm4.287-15.622a5.746,5.746,0,1,1,5.69,5.674A5.745,5.745,0,0,1,692.682,929.76Z" fill="#b3a7e9"/>
      <path id="Person-2-57" data-name="Person-2" d="M789.407,945.235c-.007-4.7,4.489-8.524,10.043-8.532s10.061,3.8,10.068,8.5Zm4.286-15.623a5.746,5.746,0,1,1,5.691,5.675A5.745,5.745,0,0,1,793.693,929.612Z" fill="#b3a7e9"/>
      <path id="Person-2-58" data-name="Person-2" d="M764.154,945.272c-.007-4.7,4.489-8.524,10.043-8.533s10.061,3.8,10.068,8.5Zm4.286-15.623a5.746,5.746,0,1,1,5.691,5.674A5.747,5.747,0,0,1,768.44,929.649Z" fill="#b3a7e9"/>
      <path id="Person-2-59" data-name="Person-2" d="M738.9,945.308c-.007-4.7,4.489-8.524,10.043-8.532s10.061,3.8,10.068,8.5Zm4.286-15.622a5.746,5.746,0,1,1,5.691,5.674A5.747,5.747,0,0,1,743.187,929.686Z" fill="#b3a7e9"/>
      <path id="Person-2-60" data-name="Person-2" d="M713.648,945.345c-.007-4.7,4.49-8.524,10.043-8.532s10.061,3.8,10.068,8.5Zm4.286-15.622a5.746,5.746,0,1,1,5.691,5.674A5.747,5.747,0,0,1,717.934,929.723Z" fill="#b3a7e9"/>
      <path id="Person-2-61" data-name="Person-2" d="M814.66,945.2c-.007-4.7,4.489-8.524,10.043-8.532s10.061,3.8,10.067,8.5Zm4.286-15.622a5.746,5.746,0,1,1,5.69,5.674A5.745,5.745,0,0,1,818.946,929.576Z" fill="#b3a7e9"/>
      <path id="Person-2-62" data-name="Person-2" d="M890.418,945.087c-.007-4.7,4.489-8.524,10.043-8.532s10.061,3.8,10.068,8.5Zm4.286-15.622a5.746,5.746,0,1,1,5.691,5.674A5.747,5.747,0,0,1,894.7,929.465Z" fill="#b3a7e9"/>
      <path id="Person-2-63" data-name="Person-2" d="M865.165,945.124c-.007-4.7,4.489-8.524,10.043-8.532s10.061,3.8,10.068,8.5Zm4.286-15.622a5.746,5.746,0,1,1,5.691,5.674A5.747,5.747,0,0,1,869.451,929.5Z" fill="#b3a7e9"/>
      <path id="Person-2-64" data-name="Person-2" d="M839.912,945.161c-.006-4.7,4.49-8.524,10.044-8.532s10.06,3.8,10.067,8.5Zm4.286-15.622a5.746,5.746,0,1,1,5.691,5.674A5.746,5.746,0,0,1,844.2,929.539Z" fill="#b3a7e9"/>
    </g>
    <path id="Person-2-65" data-name="Person-2" d="M940.924,945.014c-.007-4.7,4.489-8.524,10.043-8.533s10.061,3.8,10.068,8.5Zm4.286-15.623a5.746,5.746,0,1,1,5.69,5.674A5.746,5.746,0,0,1,945.21,929.391Z" transform="translate(-166 375.184)" fill="#4a5c74"/>
    <path id="Person-2-66" data-name="Person-2" d="M1041.935,944.866c-.007-4.7,4.489-8.524,10.043-8.532s10.061,3.8,10.068,8.5Zm4.286-15.622a5.746,5.746,0,1,1,5.691,5.674A5.748,5.748,0,0,1,1046.221,929.244Z" transform="translate(-166 375.184)" fill="#4a5c74"/>
    <path id="Person-2-67" data-name="Person-2" d="M1016.682,944.9c-.007-4.7,4.489-8.524,10.043-8.532s10.061,3.8,10.068,8.5Zm4.286-15.622a5.746,5.746,0,1,1,5.691,5.674A5.746,5.746,0,0,1,1020.968,929.281Z" transform="translate(-166 375.184)" fill="#4a5c74"/>
    <path id="Person-2-68" data-name="Person-2" d="M991.429,944.94c-.006-4.7,4.49-8.524,10.044-8.532s10.06,3.8,10.067,8.5Zm4.286-15.622a5.746,5.746,0,1,1,5.691,5.674A5.746,5.746,0,0,1,995.715,929.318Z" transform="translate(-166 375.184)" fill="#4a5c74"/>
    <path id="Person-2-69" data-name="Person-2" d="M966.177,944.977c-.007-4.7,4.489-8.524,10.043-8.532s10.061,3.8,10.067,8.5Zm4.286-15.623a5.746,5.746,0,1,1,5.69,5.675A5.745,5.745,0,0,1,970.463,929.354Z" transform="translate(-166 375.184)" fill="#4a5c74"/>
    <path id="Person-2-70" data-name="Person-2" d="M1067.188,944.829c-.007-4.7,4.489-8.524,10.043-8.532s10.061,3.8,10.068,8.5Zm4.286-15.622a5.746,5.746,0,1,1,5.691,5.674A5.747,5.747,0,0,1,1071.474,929.207Z" transform="translate(-166 375.184)" fill="#4a5c74"/>
    <path id="Person-2-71" data-name="Person-2" d="M1168.2,944.682c-.007-4.7,4.489-8.524,10.043-8.532s10.061,3.8,10.068,8.5Zm4.286-15.622a5.746,5.746,0,1,1,5.691,5.674A5.746,5.746,0,0,1,1172.485,929.06Z" transform="translate(-166 375.184)" fill="#4a5c74"/>
    <path id="Person-2-72" data-name="Person-2" d="M1142.946,944.719c-.006-4.7,4.49-8.524,10.043-8.532s10.061,3.8,10.068,8.5Zm4.286-15.622a5.746,5.746,0,1,1,5.691,5.674A5.746,5.746,0,0,1,1147.232,929.1Z" transform="translate(-166 375.184)" fill="#4a5c74"/>
    <path id="Person-2-73" data-name="Person-2" d="M1117.694,944.756c-.007-4.7,4.489-8.524,10.043-8.532s10.061,3.8,10.067,8.5Zm4.286-15.623a5.746,5.746,0,1,1,5.69,5.675A5.745,5.745,0,0,1,1121.98,929.133Z" transform="translate(-166 375.184)" fill="#4a5c74"/>
    <path id="Person-2-74" data-name="Person-2" d="M1092.441,944.793c-.007-4.7,4.489-8.525,10.043-8.533s10.061,3.8,10.068,8.5Zm4.286-15.623a5.746,5.746,0,1,1,5.69,5.674A5.746,5.746,0,0,1,1096.727,929.17Z" transform="translate(-166 375.184)" fill="#4a5c74"/>
    <path id="Person-2-75" data-name="Person-2" d="M1193.452,944.645c-.007-4.7,4.489-8.524,10.043-8.532s10.061,3.8,10.068,8.5Zm4.286-15.622a5.746,5.746,0,1,1,5.691,5.674A5.746,5.746,0,0,1,1197.738,929.023Z" transform="translate(-166 375.184)" fill="#4a5c74"/>
    <g id="Group_4619" data-name="Group 4619" transform="translate(-166 375.184)">
      <path id="Person-2-76" data-name="Person-2" d="M663.187,980.53c-.006-4.7,4.49-8.524,10.044-8.532s10.06,3.8,10.067,8.5Zm4.286-15.622a5.746,5.746,0,1,1,5.691,5.674A5.746,5.746,0,0,1,667.473,964.908Z" fill="#4a5c74"/>
      <path id="Person-2-77" data-name="Person-2" d="M637.935,980.567c-.007-4.7,4.489-8.524,10.043-8.532s10.061,3.8,10.067,8.5Zm4.286-15.623a5.746,5.746,0,1,1,5.69,5.675A5.745,5.745,0,0,1,642.221,964.944Z" fill="#4a5c74"/>
      <path id="Person-2-78" data-name="Person-2" d="M612.682,980.6c-.007-4.7,4.489-8.524,10.043-8.533s10.061,3.8,10.068,8.5Zm4.286-15.623a5.746,5.746,0,1,1,5.69,5.674A5.746,5.746,0,0,1,616.968,964.981Z" fill="#4a5c74"/>
      <path id="Person-2-79" data-name="Person-2" d="M587.429,980.64c-.007-4.7,4.489-8.524,10.043-8.532s10.061,3.8,10.068,8.5Zm4.286-15.622a5.746,5.746,0,1,1,5.691,5.674A5.747,5.747,0,0,1,591.715,965.018Z" fill="#4a5c74"/>
      <path id="Person-2-80" data-name="Person-2" d="M688.44,980.493c-.007-4.7,4.489-8.524,10.043-8.532s10.061,3.8,10.068,8.5Zm4.286-15.622a5.746,5.746,0,1,1,5.691,5.674A5.746,5.746,0,0,1,692.726,964.871Z" fill="#4a5c74"/>
      <path id="Person-2-81" data-name="Person-2" d="M789.452,980.346c-.007-4.7,4.489-8.524,10.043-8.532s10.061,3.8,10.067,8.5Zm4.286-15.623a5.746,5.746,0,1,1,5.69,5.675A5.746,5.746,0,0,1,793.738,964.723Z" fill="#4a5c74"/>
      <path id="Person-2-82" data-name="Person-2" d="M764.2,980.383c-.007-4.7,4.489-8.525,10.043-8.533s10.061,3.8,10.068,8.5Zm4.286-15.623a5.746,5.746,0,1,1,5.69,5.674A5.746,5.746,0,0,1,768.485,964.76Z" fill="#4a5c74"/>
      <path id="Person-2-83" data-name="Person-2" d="M738.946,980.419c-.007-4.7,4.489-8.524,10.043-8.532s10.061,3.8,10.068,8.5Zm4.286-15.622a5.746,5.746,0,1,1,5.691,5.674A5.747,5.747,0,0,1,743.232,964.8Z" fill="#4a5c74"/>
      <path id="Person-2-84" data-name="Person-2" d="M713.693,980.456c-.007-4.7,4.489-8.524,10.043-8.532s10.061,3.8,10.068,8.5Zm4.286-15.622a5.746,5.746,0,1,1,5.691,5.674A5.747,5.747,0,0,1,717.979,964.834Z" fill="#4a5c74"/>
      <path id="Person-2-85" data-name="Person-2" d="M814.7,980.309c-.006-4.7,4.49-8.524,10.043-8.532s10.061,3.8,10.068,8.5Zm4.286-15.622a5.746,5.746,0,1,1,5.691,5.674A5.746,5.746,0,0,1,818.99,964.687Z" fill="#4a5c74"/>
      <path id="Person-2-86" data-name="Person-2" d="M915.716,980.161c-.007-4.7,4.489-8.524,10.043-8.532s10.061,3.8,10.068,8.5ZM920,964.539a5.746,5.746,0,1,1,5.69,5.674A5.746,5.746,0,0,1,920,964.539Z" fill="#4a5c74"/>
      <path id="Person-2-87" data-name="Person-2" d="M890.463,980.2c-.007-4.7,4.489-8.524,10.043-8.532s10.061,3.8,10.068,8.5Zm4.286-15.622a5.746,5.746,0,1,1,5.691,5.674A5.747,5.747,0,0,1,894.749,964.576Z" fill="#4a5c74"/>
      <path id="Person-2-88" data-name="Person-2" d="M865.21,980.235c-.007-4.7,4.489-8.524,10.043-8.532s10.061,3.8,10.068,8.5Zm4.286-15.622a5.746,5.746,0,1,1,5.691,5.674A5.746,5.746,0,0,1,869.5,964.613Z" fill="#4a5c74"/>
      <path id="Person-2-89" data-name="Person-2" d="M839.957,980.272c-.007-4.7,4.489-8.524,10.043-8.532s10.061,3.8,10.068,8.5Zm4.286-15.622a5.746,5.746,0,1,1,5.691,5.674A5.746,5.746,0,0,1,844.243,964.65Z" fill="#4a5c74"/>
      <path id="Person-2-90" data-name="Person-2" d="M940.969,980.125c-.007-4.7,4.489-8.524,10.043-8.533s10.06,3.8,10.067,8.5Zm4.286-15.623a5.746,5.746,0,1,1,5.69,5.674A5.746,5.746,0,0,1,945.255,964.5Z" fill="#4a5c74"/>
      <path id="Person-2-91" data-name="Person-2" d="M1041.98,979.977c-.007-4.7,4.489-8.524,10.043-8.532s10.061,3.8,10.068,8.5Zm4.286-15.622a5.746,5.746,0,1,1,5.691,5.674A5.747,5.747,0,0,1,1046.266,964.355Z" fill="#4a5c74"/>
      <path id="Person-2-92" data-name="Person-2" d="M1016.727,980.014c-.007-4.7,4.489-8.524,10.043-8.532s10.061,3.8,10.068,8.5Zm4.286-15.622a5.746,5.746,0,1,1,5.691,5.674A5.746,5.746,0,0,1,1021.013,964.392Z" fill="#4a5c74"/>
      <path id="Person-2-93" data-name="Person-2" d="M991.474,980.051c-.007-4.7,4.489-8.524,10.043-8.532s10.061,3.8,10.068,8.5Zm4.286-15.622a5.746,5.746,0,1,1,5.691,5.674A5.746,5.746,0,0,1,995.76,964.429Z" fill="#4a5c74"/>
      <path id="Person-2-94" data-name="Person-2" d="M966.221,980.088c-.007-4.7,4.49-8.524,10.043-8.532s10.061,3.8,10.068,8.5Zm4.286-15.623a5.746,5.746,0,1,1,5.691,5.675A5.746,5.746,0,0,1,970.507,964.465Z" fill="#4a5c74"/>
      <path id="Person-2-95" data-name="Person-2" d="M1067.233,979.94c-.007-4.7,4.489-8.524,10.043-8.532s10.061,3.8,10.067,8.5Zm4.286-15.622a5.746,5.746,0,1,1,5.69,5.674A5.746,5.746,0,0,1,1071.519,964.318Z" fill="#4a5c74"/>
      <path id="Person-2-96" data-name="Person-2" d="M1168.244,979.793c-.007-4.7,4.489-8.524,10.043-8.532s10.061,3.8,10.068,8.5Zm4.286-15.622a5.746,5.746,0,1,1,5.691,5.674A5.746,5.746,0,0,1,1172.53,964.171Z" fill="#4a5c74"/>
      <path id="Person-2-97" data-name="Person-2" d="M1142.991,979.83c-.007-4.7,4.489-8.524,10.043-8.532s10.061,3.8,10.068,8.5Zm4.286-15.622a5.746,5.746,0,1,1,5.691,5.674A5.746,5.746,0,0,1,1147.277,964.208Z" fill="#4a5c74"/>
      <path id="Person-2-98" data-name="Person-2" d="M1117.738,979.867c-.007-4.7,4.49-8.524,10.043-8.532s10.061,3.8,10.068,8.5Zm4.286-15.623a5.746,5.746,0,1,1,5.691,5.675A5.747,5.747,0,0,1,1122.024,964.244Z" fill="#4a5c74"/>
      <path id="Person-2-99" data-name="Person-2" d="M1092.485,979.9c-.006-4.7,4.49-8.525,10.044-8.533s10.06,3.8,10.067,8.5Zm4.287-15.623a5.746,5.746,0,1,1,5.69,5.674A5.746,5.746,0,0,1,1096.772,964.281Z" fill="#4a5c74"/>
      <path id="Person-2-100" data-name="Person-2" d="M1193.5,979.756c-.007-4.7,4.489-8.524,10.043-8.532s10.061,3.8,10.068,8.5Zm4.286-15.622a5.746,5.746,0,1,1,5.691,5.674A5.746,5.746,0,0,1,1197.783,964.134Z" fill="#4a5c74"/>
    </g>
    <text id="_2_" data-name="2%" transform="translate(282.597 1279.331)" fill="#745fd7" font-size="72" font-family="OpenSans-Bold, Open Sans" font-weight="700"><tspan x="0" y="0">2%</tspan></text>
    <text id="of_users_find_the_site_hard_to_navigate" data-name="of users find the site hard to navigate" transform="translate(283.498 1293.753)" fill="#333" font-size="17" font-family="OpenSans, Open Sans"><tspan x="0" y="18">of users find </tspan><tspan x="0" y="40">the site hard </tspan><tspan x="0" y="62">to navigate</tspan></text>
    <text id="_37_" data-name="37%" transform="translate(1080.498 1202.553)" fill="#4a5c74" font-size="72" font-family="OpenSans-Bold, Open Sans" font-weight="700"><tspan x="1.017" y="77">37%</tspan></text>
    <g id="Group" transform="translate(-166 375.184)">
      <text id="of_users_find_the_" data-name="of users find the " transform="translate(1246.477 936.476)" fill="#333" font-size="17" font-family="OpenSans, Open Sans"><tspan x="0" y="0">of users find the </tspan></text>
      <text id="site_easy_to_" data-name="site easy to " transform="translate(1246.506 958.476)" fill="#333" font-size="17" font-family="OpenSans, Open Sans"><tspan x="0" y="0">site easy to </tspan></text>
      <text id="navigate" transform="translate(1246.536 980.476)" fill="#333" font-size="17" font-family="OpenSans, Open Sans"><tspan x="0" y="0">navigate</tspan></text>
    </g>
    <path id="Path_4370" data-name="Path 4370" stroke="#745fd7" d="M576.592,872.184H564.668v42H451.592" fill="none" transform="translate(-166 375.184)" stroke-linecap="round" stroke-linejoin="round" stroke-width="2" fill-rule="evenodd"/>
    <g id="Group_4620" data-name="Group 4620" transform="translate(-166 375.184)">
      <circle id="Ellipse_144" data-name="Ellipse 144" cx="4" cy="4" r="4" transform="translate(1218.56 937.975)" fill="#4a5c74"/>
    </g>
    <path id="Path_4371" data-name="Path 4371" stroke="#4a5c74" d="M1226.561,941.985l11.642.029.074-30,154.342.379" fill="none" transform="translate(-166 375.184)" stroke-linecap="round" stroke-linejoin="round" stroke-width="2" fill-rule="evenodd"/>
  </g>
</svg>
