<?xml version="1.0" encoding="utf-8"?>
<!-- Generator: Adobe Illustrator 24.2.0, SVG Export Plug-In . SVG Version: 6.00 Build 0)  -->
<svg version="1.1" id="Layer_1" xmlns="http://www.w3.org/2000/svg" xmlns:xlink="http://www.w3.org/1999/xlink" x="0px" y="0px"
	 viewBox="0 0 196.9 223" style="enable-background:new 0 0 196.9 223;" xml:space="preserve">
<style type="text/css">
	.st0{fill:none;}
	.st1{fill:#FFD964;}
	.st2{fill:#4569A0;}
	.st3{fill:#FFFFFF;}
	.st4{enable-background:new    ;}
	.st5{fill:#333333;}
</style>
<g id="Group_4742" transform="translate(-658 -3466)">
	<rect id="Rectangle_808" x="658" y="3466" class="st0" width="196.7" height="223"/>
	<g id="Group_4740" transform="translate(2433 2400.816)">
		<g id="Group_4213">
			<g id="Group_4212">
				<path id="Path_3917" class="st1" d="M-1676.5,1176.6l98.1-6.9c0.2,2.2,0.2,4.7,0.2,6.9H-1676.5z"/>
			</g>
		</g>
		<g id="Group_4214">
			<path id="Path_3918" class="st1" d="M-1676.5,1176.6l70.8-68.3c16.3,16.5,26,38.3,27.4,61.5L-1676.5,1176.6z"/>
		</g>
		<path id="Path_3919" class="st2" d="M-1676.5,1176.6h98.4c0,54.3-44,98.4-98.4,98.4s-98.4-44-98.4-98.4s44-98.4,98.4-98.4
			c28.3,0,51.1,9.7,70.8,30L-1676.5,1176.6z"/>
		<circle id="Ellipse_36" class="st3" cx="-1676.5" cy="1176.6" r="67.1"/>
		<g class="st4">
			<path class="st2" d="M-1711.8,1138.8c3.3,0,5.9,0.7,7.9,2.2s3,3.5,3,6c0,1.8-0.5,3.3-1.5,4.7s-2.5,2.6-4.7,3.7
				c2.6,1.4,4.4,2.8,5.5,4.3s1.7,3.1,1.7,4.9c0,2.8-1.1,5.1-3.3,6.8s-5.1,2.6-8.7,2.6c-3.8,0-6.7-0.8-8.8-2.4s-3.2-3.9-3.2-6.8
				c0-2,0.5-3.7,1.6-5.2s2.7-2.9,5-4c-2-1.2-3.4-2.6-4.2-4s-1.3-2.9-1.3-4.6c0-2.5,1-4.4,3-6S-1715,1138.8-1711.8,1138.8z
				 M-1717.1,1164.4c0,1.3,0.5,2.4,1.4,3.1s2.2,1.1,3.8,1.1c1.8,0,3.1-0.4,4-1.2s1.3-1.8,1.3-3.1c0-1-0.4-2-1.3-2.9
				s-2.3-1.9-4.3-2.9C-1715.4,1160.1-1717.1,1162-1717.1,1164.4z M-1711.8,1144.1c-1.2,0-2.2,0.3-3,0.9s-1.1,1.5-1.1,2.5
				c0,0.9,0.3,1.8,0.9,2.5s1.7,1.5,3.3,2.3c1.5-0.7,2.6-1.5,3.2-2.2s0.9-1.6,0.9-2.6c0-1.1-0.4-1.9-1.2-2.6
				S-1710.6,1144.1-1711.8,1144.1z"/>
			<path class="st2" d="M-1684.4,1138.8c3.3,0,5.9,0.7,7.9,2.2s3,3.5,3,6c0,1.8-0.5,3.3-1.5,4.7s-2.5,2.6-4.7,3.7
				c2.6,1.4,4.4,2.8,5.5,4.3s1.7,3.1,1.7,4.9c0,2.8-1.1,5.1-3.3,6.8s-5.1,2.6-8.7,2.6c-3.8,0-6.7-0.8-8.8-2.4s-3.2-3.9-3.2-6.8
				c0-2,0.5-3.7,1.6-5.2s2.7-2.9,5-4c-2-1.2-3.4-2.6-4.2-4s-1.3-2.9-1.3-4.6c0-2.5,1-4.4,3-6S-1687.6,1138.8-1684.4,1138.8z
				 M-1689.7,1164.4c0,1.3,0.5,2.4,1.4,3.1s2.2,1.1,3.8,1.1c1.8,0,3.1-0.4,4-1.2s1.3-1.8,1.3-3.1c0-1-0.4-2-1.3-2.9
				s-2.3-1.9-4.3-2.9C-1688,1160.1-1689.7,1162-1689.7,1164.4z M-1684.4,1144.1c-1.2,0-2.2,0.3-3,0.9s-1.1,1.5-1.1,2.5
				c0,0.9,0.3,1.8,0.9,2.5s1.7,1.5,3.3,2.3c1.5-0.7,2.6-1.5,3.2-2.2s0.9-1.6,0.9-2.6c0-1.1-0.4-1.9-1.2-2.6
				S-1683.2,1144.1-1684.4,1144.1z"/>
			<path class="st2" d="M-1652.9,1149.4c0,3.6-0.7,6.3-2.1,8.1s-3.4,2.7-6.1,2.7c-2.6,0-4.6-0.9-6-2.8s-2.1-4.5-2.1-8
				c0-7.1,2.7-10.7,8.1-10.7c2.6,0,4.7,0.9,6.1,2.8S-1652.9,1146-1652.9,1149.4z M-1663.3,1149.5c0,2,0.2,3.5,0.5,4.4
				s0.9,1.5,1.7,1.5c1.5,0,2.2-2,2.2-5.9c0-3.9-0.8-5.9-2.2-5.9c-0.8,0-1.3,0.5-1.7,1.4S-1663.3,1147.5-1663.3,1149.5z
				 M-1636.8,1139.2l-19,34.3h-5.6l19-34.3H-1636.8z M-1628.9,1163.1c0,3.6-0.7,6.3-2.1,8.1s-3.4,2.7-6.1,2.7c-2.6,0-4.6-0.9-6-2.8
				s-2.1-4.5-2.1-8c0-7.1,2.7-10.7,8.1-10.7c2.6,0,4.7,0.9,6.1,2.8S-1628.9,1159.7-1628.9,1163.1z M-1639.3,1163.2
				c0,2,0.2,3.5,0.5,4.4s0.9,1.5,1.7,1.5c1.5,0,2.2-2,2.2-5.9c0-3.9-0.8-5.9-2.2-5.9c-0.8,0-1.3,0.5-1.7,1.4
				S-1639.3,1161.2-1639.3,1163.2z"/>
		</g>
		<g class="st4">
			<path class="st5" d="M-1710.3,1188.2c0,1-0.3,1.9-0.8,2.5s-1.3,0.9-2.2,0.9c-0.6,0-1.1-0.1-1.5-0.4s-0.8-0.7-1-1.2
				s-0.4-1.1-0.4-1.8c0-1,0.3-1.9,0.8-2.4s1.2-0.9,2.2-0.9c0.9,0,1.6,0.3,2.1,0.9S-1710.3,1187.2-1710.3,1188.2z M-1715.2,1188.2
				c0,0.8,0.2,1.4,0.5,1.9s0.8,0.6,1.4,0.6s1.1-0.2,1.5-0.6s0.5-1.1,0.5-1.9c0-0.8-0.2-1.4-0.5-1.9s-0.8-0.6-1.5-0.6
				c-0.6,0-1.1,0.2-1.4,0.6S-1715.2,1187.4-1715.2,1188.2z"/>
			<path class="st5" d="M-1705.7,1185.8h-1.6v5.7h-1v-5.7h-1.1v-0.4l1.1-0.4v-0.4c0-1.6,0.7-2.4,2.1-2.4c0.3,0,0.7,0.1,1.2,0.2
				l-0.3,0.8c-0.4-0.1-0.7-0.2-1-0.2c-0.4,0-0.6,0.1-0.8,0.4s-0.3,0.6-0.3,1.2v0.4h1.6V1185.8z"/>
			<path class="st5" d="M-1698.4,1191.5c-0.4,0-0.8-0.1-1.1-0.2s-0.6-0.4-0.9-0.7h-0.1c0,0.4,0.1,0.7,0.1,1.1v2.6h-1v-9.3h0.8
				l0.1,0.9h0c0.2-0.4,0.5-0.6,0.9-0.8s0.7-0.2,1.1-0.2c0.9,0,1.5,0.3,2,0.9s0.7,1.4,0.7,2.4c0,1.1-0.2,1.9-0.7,2.5
				S-1697.6,1191.5-1698.4,1191.5z M-1698.5,1185.7c-0.7,0-1.1,0.2-1.4,0.5s-0.4,0.9-0.5,1.7v0.2c0,0.9,0.2,1.5,0.5,1.9
				s0.8,0.6,1.4,0.6c0.6,0,1-0.2,1.3-0.7s0.5-1.1,0.5-1.9c0-0.8-0.2-1.4-0.5-1.8S-1698,1185.7-1698.5,1185.7z"/>
			<path class="st5" d="M-1690.1,1191.4l-0.2-0.9h0c-0.3,0.4-0.6,0.7-1,0.8s-0.7,0.2-1.2,0.2c-0.6,0-1.1-0.2-1.5-0.5
				s-0.5-0.8-0.5-1.4c0-1.3,1-2,3.1-2l1.1,0v-0.4c0-0.5-0.1-0.9-0.3-1.1s-0.6-0.4-1-0.4c-0.5,0-1.1,0.2-1.8,0.5l-0.3-0.7
				c0.3-0.2,0.7-0.3,1-0.4s0.8-0.1,1.1-0.1c0.8,0,1.3,0.2,1.7,0.5s0.6,0.9,0.6,1.6v4.4H-1690.1z M-1692.3,1190.7
				c0.6,0,1.1-0.2,1.4-0.5s0.5-0.8,0.5-1.4v-0.6l-1,0c-0.8,0-1.3,0.1-1.7,0.4s-0.5,0.5-0.5,1c0,0.4,0.1,0.6,0.3,0.8
				S-1692.7,1190.7-1692.3,1190.7z"/>
			<path class="st5" d="M-1684.4,1184.9c0.3,0,0.5,0,0.8,0.1l-0.1,0.9c-0.3-0.1-0.5-0.1-0.7-0.1c-0.5,0-1,0.2-1.3,0.6
				s-0.6,0.9-0.6,1.6v3.4h-1v-6.4h0.8l0.1,1.2h0c0.2-0.4,0.5-0.7,0.9-1S-1684.8,1184.9-1684.4,1184.9z"/>
			<path class="st5" d="M-1680.4,1190.7c0.2,0,0.3,0,0.5,0s0.3-0.1,0.4-0.1v0.7c-0.1,0.1-0.3,0.1-0.5,0.1s-0.4,0-0.6,0
				c-1.2,0-1.9-0.7-1.9-2v-3.8h-0.9v-0.5l0.9-0.4l0.4-1.4h0.6v1.5h1.9v0.8h-1.9v3.8c0,0.4,0.1,0.7,0.3,0.9
				S-1680.7,1190.7-1680.4,1190.7z"/>
			<path class="st5" d="M-1678.3,1183.3c0-0.2,0.1-0.4,0.2-0.5s0.2-0.2,0.4-0.2c0.2,0,0.3,0.1,0.4,0.2s0.2,0.3,0.2,0.5
				s-0.1,0.4-0.2,0.5s-0.2,0.2-0.4,0.2c-0.2,0-0.3-0.1-0.4-0.2S-1678.3,1183.5-1678.3,1183.3z M-1677.2,1191.4h-1v-6.4h1V1191.4z"/>
			<path class="st5" d="M-1672.6,1191.5c-0.9,0-1.6-0.3-2.2-0.9s-0.8-1.4-0.8-2.4c0-1.1,0.3-1.9,0.8-2.5s1.3-0.9,2.2-0.9
				c0.3,0,0.6,0,0.9,0.1s0.6,0.1,0.7,0.2l-0.3,0.8c-0.2-0.1-0.4-0.2-0.7-0.2s-0.5-0.1-0.7-0.1c-1.3,0-2,0.8-2,2.5
				c0,0.8,0.2,1.4,0.5,1.8s0.8,0.6,1.4,0.6c0.5,0,1.1-0.1,1.6-0.3v0.9C-1671.4,1191.4-1672,1191.5-1672.6,1191.5z"/>
			<path class="st5" d="M-1669.6,1183.3c0-0.2,0.1-0.4,0.2-0.5s0.2-0.2,0.4-0.2c0.2,0,0.3,0.1,0.4,0.2s0.2,0.3,0.2,0.5
				s-0.1,0.4-0.2,0.5s-0.2,0.2-0.4,0.2c-0.2,0-0.3-0.1-0.4-0.2S-1669.6,1183.5-1669.6,1183.3z M-1668.5,1191.4h-1v-6.4h1V1191.4z"/>
			<path class="st5" d="M-1663.4,1191.5c-0.4,0-0.8-0.1-1.1-0.2s-0.6-0.4-0.9-0.7h-0.1c0,0.4,0.1,0.7,0.1,1.1v2.6h-1v-9.3h0.8
				l0.1,0.9h0c0.2-0.4,0.5-0.6,0.9-0.8s0.7-0.2,1.1-0.2c0.9,0,1.5,0.3,2,0.9s0.7,1.4,0.7,2.4c0,1.1-0.2,1.9-0.7,2.5
				S-1662.6,1191.5-1663.4,1191.5z M-1663.6,1185.7c-0.7,0-1.1,0.2-1.4,0.5s-0.4,0.9-0.5,1.7v0.2c0,0.9,0.2,1.5,0.5,1.9
				s0.8,0.6,1.4,0.6c0.6,0,1-0.2,1.3-0.7s0.5-1.1,0.5-1.9c0-0.8-0.2-1.4-0.5-1.8S-1663,1185.7-1663.6,1185.7z"/>
			<path class="st5" d="M-1655.1,1191.4l-0.2-0.9h0c-0.3,0.4-0.6,0.7-1,0.8s-0.7,0.2-1.2,0.2c-0.6,0-1.1-0.2-1.5-0.5
				s-0.5-0.8-0.5-1.4c0-1.3,1-2,3.1-2l1.1,0v-0.4c0-0.5-0.1-0.9-0.3-1.1s-0.6-0.4-1-0.4c-0.5,0-1.1,0.2-1.8,0.5l-0.3-0.7
				c0.3-0.2,0.7-0.3,1-0.4s0.8-0.1,1.1-0.1c0.8,0,1.3,0.2,1.7,0.5s0.6,0.9,0.6,1.6v4.4H-1655.1z M-1657.3,1190.7
				c0.6,0,1.1-0.2,1.4-0.5s0.5-0.8,0.5-1.4v-0.6l-1,0c-0.8,0-1.3,0.1-1.7,0.4s-0.5,0.5-0.5,1c0,0.4,0.1,0.6,0.3,0.8
				S-1657.7,1190.7-1657.3,1190.7z"/>
			<path class="st5" d="M-1648,1191.4v-4.2c0-0.5-0.1-0.9-0.4-1.2s-0.6-0.4-1.1-0.4c-0.7,0-1.2,0.2-1.5,0.5s-0.5,1-0.5,1.8v3.4h-1
				v-6.4h0.8l0.2,0.9h0c0.2-0.3,0.5-0.6,0.8-0.7s0.8-0.3,1.2-0.3c0.8,0,1.4,0.2,1.7,0.6s0.6,1,0.6,1.8v4.2H-1648z"/>
			<path class="st5" d="M-1643,1190.7c0.2,0,0.3,0,0.5,0s0.3-0.1,0.4-0.1v0.7c-0.1,0.1-0.3,0.1-0.5,0.1s-0.4,0-0.6,0
				c-1.2,0-1.9-0.7-1.9-2v-3.8h-0.9v-0.5l0.9-0.4l0.4-1.4h0.6v1.5h1.9v0.8h-1.9v3.8c0,0.4,0.1,0.7,0.3,0.9
				S-1643.3,1190.7-1643,1190.7z"/>
			<path class="st5" d="M-1636.7,1189.7c0,0.6-0.2,1.1-0.7,1.4s-1.1,0.5-1.9,0.5c-0.9,0-1.5-0.1-2-0.4v-0.9c0.3,0.2,0.6,0.3,1,0.4
				s0.7,0.1,1,0.1c0.5,0,0.9-0.1,1.2-0.2s0.4-0.4,0.4-0.7c0-0.2-0.1-0.5-0.3-0.6s-0.6-0.4-1.3-0.6c-0.6-0.2-1-0.4-1.3-0.6
				s-0.4-0.4-0.6-0.6s-0.2-0.5-0.2-0.8c0-0.5,0.2-0.9,0.6-1.2s1-0.5,1.8-0.5c0.7,0,1.4,0.1,2,0.4l-0.3,0.8c-0.6-0.3-1.2-0.4-1.8-0.4
				c-0.5,0-0.8,0.1-1,0.2s-0.4,0.3-0.4,0.6c0,0.2,0,0.3,0.1,0.4s0.2,0.2,0.4,0.3s0.6,0.3,1.1,0.5c0.8,0.3,1.3,0.6,1.5,0.8
				S-1636.7,1189.2-1636.7,1189.7z"/>
		</g>
		<g class="st4">
			<path class="st5" d="M-1700,1200.8h-1.6v5.7h-1v-5.7h-1.1v-0.4l1.1-0.4v-0.4c0-1.6,0.7-2.4,2.1-2.4c0.3,0,0.7,0.1,1.2,0.2
				l-0.3,0.8c-0.4-0.1-0.7-0.2-1-0.2c-0.4,0-0.6,0.1-0.8,0.4s-0.3,0.6-0.3,1.2v0.4h1.6V1200.8z"/>
			<path class="st5" d="M-1693.3,1203.2c0,1-0.3,1.9-0.8,2.5s-1.3,0.9-2.2,0.9c-0.6,0-1.1-0.1-1.5-0.4s-0.8-0.7-1-1.2
				s-0.4-1.1-0.4-1.8c0-1,0.3-1.9,0.8-2.4s1.2-0.9,2.2-0.9c0.9,0,1.6,0.3,2.1,0.9S-1693.3,1202.2-1693.3,1203.2z M-1698.2,1203.2
				c0,0.8,0.2,1.4,0.5,1.9s0.8,0.6,1.4,0.6s1.1-0.2,1.5-0.6s0.5-1.1,0.5-1.9c0-0.8-0.2-1.4-0.5-1.9s-0.8-0.6-1.5-0.6
				c-0.6,0-1.1,0.2-1.4,0.6S-1698.2,1202.4-1698.2,1203.2z"/>
			<path class="st5" d="M-1690.6,1200v4.2c0,0.5,0.1,0.9,0.4,1.2s0.6,0.4,1.1,0.4c0.7,0,1.2-0.2,1.5-0.6s0.5-1,0.5-1.8v-3.4h1v6.4
				h-0.8l-0.1-0.9h-0.1c-0.2,0.3-0.5,0.6-0.8,0.7s-0.8,0.3-1.2,0.3c-0.8,0-1.4-0.2-1.8-0.6s-0.6-1-0.6-1.8v-4.2H-1690.6z"/>
			<path class="st5" d="M-1679.8,1206.4v-4.2c0-0.5-0.1-0.9-0.4-1.2s-0.6-0.4-1.1-0.4c-0.7,0-1.2,0.2-1.5,0.5s-0.5,1-0.5,1.8v3.4h-1
				v-6.4h0.8l0.2,0.9h0c0.2-0.3,0.5-0.6,0.8-0.7s0.8-0.3,1.2-0.3c0.8,0,1.4,0.2,1.7,0.6s0.6,1,0.6,1.8v4.2H-1679.8z"/>
			<path class="st5" d="M-1672.5,1205.6L-1672.5,1205.6c-0.5,0.7-1.2,1-2.1,1c-0.8,0-1.5-0.3-2-0.9s-0.7-1.4-0.7-2.4
				s0.2-1.9,0.7-2.5s1.1-0.9,2-0.9c0.9,0,1.5,0.3,2,0.9h0.1l0-0.5l0-0.5v-2.6h1v9.1h-0.8L-1672.5,1205.6z M-1674.4,1205.7
				c0.7,0,1.1-0.2,1.4-0.5s0.4-0.9,0.4-1.7v-0.2c0-0.9-0.2-1.6-0.5-1.9s-0.8-0.6-1.5-0.6c-0.6,0-1,0.2-1.3,0.7s-0.5,1.1-0.5,1.9
				c0,0.8,0.2,1.4,0.5,1.9S-1675,1205.7-1674.4,1205.7z"/>
			<path class="st5" d="M-1664.3,1205.7c0.2,0,0.3,0,0.5,0s0.3-0.1,0.4-0.1v0.7c-0.1,0.1-0.3,0.1-0.5,0.1s-0.4,0-0.6,0
				c-1.2,0-1.9-0.7-1.9-2v-3.8h-0.9v-0.5l0.9-0.4l0.4-1.4h0.6v1.5h1.9v0.8h-1.9v3.8c0,0.4,0.1,0.7,0.3,0.9
				S-1664.6,1205.7-1664.3,1205.7z"/>
			<path class="st5" d="M-1657.7,1206.4v-4.2c0-0.5-0.1-0.9-0.4-1.2s-0.6-0.4-1.1-0.4c-0.7,0-1.2,0.2-1.5,0.6s-0.5,1-0.5,1.8v3.4h-1
				v-9.1h1v2.8c0,0.3,0,0.6,0,0.8h0.1c0.2-0.3,0.5-0.6,0.8-0.7s0.8-0.3,1.2-0.3c0.8,0,1.4,0.2,1.8,0.6s0.6,1,0.6,1.8v4.2H-1657.7z"
				/>
			<path class="st5" d="M-1652,1206.5c-0.9,0-1.7-0.3-2.2-0.9s-0.8-1.4-0.8-2.4c0-1,0.3-1.9,0.8-2.5s1.2-0.9,2.1-0.9
				c0.8,0,1.4,0.3,1.9,0.8s0.7,1.2,0.7,2.1v0.6h-4.4c0,0.8,0.2,1.3,0.6,1.7s0.9,0.6,1.5,0.6c0.7,0,1.4-0.1,2.1-0.4v0.9
				c-0.3,0.1-0.7,0.3-1,0.3S-1651.6,1206.5-1652,1206.5z M-1652.3,1200.7c-0.5,0-0.9,0.2-1.2,0.5s-0.5,0.8-0.5,1.4h3.4
				c0-0.6-0.1-1.1-0.4-1.4S-1651.8,1200.7-1652.3,1200.7z"/>
		</g>
		<g class="st4">
			<path class="st5" d="M-1699,1220.7c0.2,0,0.3,0,0.5,0s0.3-0.1,0.4-0.1v0.7c-0.1,0.1-0.3,0.1-0.5,0.1s-0.4,0-0.6,0
				c-1.2,0-1.9-0.7-1.9-2v-3.8h-0.9v-0.5l0.9-0.4l0.4-1.4h0.6v1.5h1.9v0.8h-1.9v3.8c0,0.4,0.1,0.7,0.3,0.9
				S-1699.3,1220.7-1699,1220.7z"/>
			<path class="st5" d="M-1692.9,1221.4l-0.2-0.9h0c-0.3,0.4-0.6,0.7-1,0.8s-0.7,0.2-1.2,0.2c-0.6,0-1.1-0.2-1.5-0.5
				s-0.5-0.8-0.5-1.4c0-1.3,1-2,3.1-2l1.1,0v-0.4c0-0.5-0.1-0.9-0.3-1.1s-0.6-0.4-1-0.4c-0.5,0-1.1,0.2-1.8,0.5l-0.3-0.7
				c0.3-0.2,0.7-0.3,1-0.4s0.8-0.1,1.1-0.1c0.8,0,1.3,0.2,1.7,0.5s0.6,0.9,0.6,1.6v4.4H-1692.9z M-1695.1,1220.7
				c0.6,0,1.1-0.2,1.4-0.5s0.5-0.8,0.5-1.4v-0.6l-1,0c-0.8,0-1.3,0.1-1.7,0.4s-0.5,0.5-0.5,1c0,0.4,0.1,0.6,0.3,0.8
				S-1695.5,1220.7-1695.1,1220.7z"/>
			<path class="st5" d="M-1686,1219.7c0,0.6-0.2,1.1-0.7,1.4s-1.1,0.5-1.9,0.5c-0.9,0-1.5-0.1-2-0.4v-0.9c0.3,0.2,0.6,0.3,1,0.4
				s0.7,0.1,1,0.1c0.5,0,0.9-0.1,1.2-0.2s0.4-0.4,0.4-0.7c0-0.2-0.1-0.5-0.3-0.6s-0.6-0.4-1.3-0.6c-0.6-0.2-1-0.4-1.3-0.6
				s-0.4-0.4-0.6-0.6s-0.2-0.5-0.2-0.8c0-0.5,0.2-0.9,0.6-1.2s1-0.5,1.8-0.5c0.7,0,1.4,0.1,2,0.4l-0.3,0.8c-0.6-0.3-1.2-0.4-1.8-0.4
				c-0.5,0-0.8,0.1-1,0.2s-0.4,0.3-0.4,0.6c0,0.2,0,0.3,0.1,0.4s0.2,0.2,0.4,0.3s0.6,0.3,1.1,0.5c0.8,0.3,1.3,0.6,1.5,0.8
				S-1686,1219.2-1686,1219.7z"/>
			<path class="st5" d="M-1683.5,1218.1c0.2-0.2,0.4-0.6,0.8-0.9l2.1-2.2h1.2l-2.6,2.7l2.8,3.7h-1.2l-2.3-3l-0.7,0.6v2.4h-1v-9.1h1
				v4.8C-1683.5,1217.3-1683.5,1217.7-1683.5,1218.1L-1683.5,1218.1z"/>
			<path class="st5" d="M-1672.3,1221.5c-0.9,0-1.7-0.3-2.2-0.9s-0.8-1.4-0.8-2.4c0-1,0.3-1.9,0.8-2.5s1.2-0.9,2.1-0.9
				c0.8,0,1.4,0.3,1.9,0.8s0.7,1.2,0.7,2.1v0.6h-4.4c0,0.8,0.2,1.3,0.6,1.7s0.9,0.6,1.5,0.6c0.7,0,1.4-0.1,2.1-0.4v0.9
				c-0.3,0.1-0.7,0.3-1,0.3S-1671.9,1221.5-1672.3,1221.5z M-1672.6,1215.7c-0.5,0-0.9,0.2-1.2,0.5s-0.5,0.8-0.5,1.4h3.4
				c0-0.6-0.1-1.1-0.4-1.4S-1672.1,1215.7-1672.6,1215.7z"/>
			<path class="st5" d="M-1664.3,1221.4l-0.2-0.9h0c-0.3,0.4-0.6,0.7-1,0.8s-0.7,0.2-1.2,0.2c-0.6,0-1.1-0.2-1.5-0.5
				s-0.5-0.8-0.5-1.4c0-1.3,1-2,3.1-2l1.1,0v-0.4c0-0.5-0.1-0.9-0.3-1.1s-0.6-0.4-1-0.4c-0.5,0-1.1,0.2-1.8,0.5l-0.3-0.7
				c0.3-0.2,0.7-0.3,1-0.4s0.8-0.1,1.1-0.1c0.8,0,1.3,0.2,1.7,0.5s0.6,0.9,0.6,1.6v4.4H-1664.3z M-1666.5,1220.7
				c0.6,0,1.1-0.2,1.4-0.5s0.5-0.8,0.5-1.4v-0.6l-1,0c-0.8,0-1.3,0.1-1.7,0.4s-0.5,0.5-0.5,1c0,0.4,0.1,0.6,0.3,0.8
				S-1666.9,1220.7-1666.5,1220.7z"/>
			<path class="st5" d="M-1657.5,1219.7c0,0.6-0.2,1.1-0.7,1.4s-1.1,0.5-1.9,0.5c-0.9,0-1.5-0.1-2-0.4v-0.9c0.3,0.2,0.6,0.3,1,0.4
				s0.7,0.1,1,0.1c0.5,0,0.9-0.1,1.2-0.2s0.4-0.4,0.4-0.7c0-0.2-0.1-0.5-0.3-0.6s-0.6-0.4-1.3-0.6c-0.6-0.2-1-0.4-1.3-0.6
				s-0.4-0.4-0.6-0.6s-0.2-0.5-0.2-0.8c0-0.5,0.2-0.9,0.6-1.2s1-0.5,1.8-0.5c0.7,0,1.4,0.1,2,0.4l-0.3,0.8c-0.6-0.3-1.2-0.4-1.8-0.4
				c-0.5,0-0.8,0.1-1,0.2s-0.4,0.3-0.4,0.6c0,0.2,0,0.3,0.1,0.4s0.2,0.2,0.4,0.3s0.6,0.3,1.1,0.5c0.8,0.3,1.3,0.6,1.5,0.8
				S-1657.5,1219.2-1657.5,1219.7z"/>
			<path class="st5" d="M-1656.9,1215h1l1.4,3.7c0.3,0.8,0.5,1.4,0.6,1.8h0c0.1-0.2,0.2-0.5,0.3-1s0.7-2,1.6-4.5h1l-2.8,7.3
				c-0.3,0.7-0.6,1.2-1,1.5s-0.8,0.5-1.3,0.5c-0.3,0-0.6,0-0.9-0.1v-0.8c0.2,0,0.5,0.1,0.7,0.1c0.7,0,1.1-0.4,1.4-1.1l0.4-0.9
				L-1656.9,1215z"/>
		</g>
	</g>
</g>
</svg>
