<svg xmlns="http://www.w3.org/2000/svg" width="282.435" height="238.87" viewBox="0 0 282.435 238.87">
  <g id="Group_4812" data-name="Group 4812" transform="translate(-919.364 -2338.589)">
    <g id="Group_4622" data-name="Group 4622" transform="translate(-166 375.184)">
      <text id="_25_" data-name="25%" transform="translate(1320.799 2172.072)" fill="#4a5c74" font-size="24" font-family="OpenSans-SemiboldItalic, Open Sans" font-weight="600" font-style="italic"><tspan x="0" y="0">25%</tspan></text>
      <path id="Path_4372" data-name="Path 4372" d="M1365.129,2182.419H1124.65a1.128,1.128,0,0,1,0-2.248h240.479a1.129,1.129,0,0,1,0,2.248Z" fill="#745fd7"/>
      <path id="Path_4373" data-name="Path 4373" d="M1125.679,2184.294h36.93c1.137,0,2.059-1.342,2.059-3s-.922-3-2.059-3h-36.93c-1.137,0-2.058,1.342-2.058,3S1124.542,2184.294,1125.679,2184.294Z" fill="#745fd7"/>
      <g id="Group_4621" data-name="Group 4621">
        <path id="Path_4374" data-name="Path 4374" d="M1126.98,2181.609a20.667,20.667,0,1,1-20.666-20.666A20.666,20.666,0,0,1,1126.98,2181.609Z" fill="#745fd7"/>
        <path id="Path_4375" data-name="Path 4375" d="M1123.322,2181.609a17.009,17.009,0,1,1-17.008-17.009A17.009,17.009,0,0,1,1123.322,2181.609Z" fill="#fff"/>
        <path id="Mask-2" d="M1104.115,2186.865s.028-9.21-.019-10.164l3.383-.006,0,1.439a3.36,3.36,0,0,1,3.046-1.684c2.226,0,3.9,1.446,3.9,4.569l.011,5.827-3.383.006-.01-5.436c0-1.366-.494-2.3-1.718-2.3a1.852,1.852,0,0,0-1.734,1.239,2.3,2.3,0,0,0-.109.825l.01,5.675Zm-5.256.009-.018-10.164,3.382-.006.019,10.164Zm1.649-11.554a1.929,1.929,0,1,1,.022,0Z" fill="#745fd7"/>
      </g>
    </g>
    <text id="_63_" data-name="63%" transform="translate(1154.799 2425.937)" fill="#4a5c74" font-size="24" font-family="OpenSans-SemiboldItalic, Open Sans" font-weight="600" font-style="italic"><tspan x="0" y="0">63%</tspan></text>
    <path id="Path_4376" data-name="Path 4376" d="M1124.65,2059.149h240.479a1.129,1.129,0,0,0,0-2.249H1124.65a1.129,1.129,0,0,0,0,2.249Z" transform="translate(-166 375.184)" fill="#745fd7"/>
    <path id="Path_4377" data-name="Path 4377" d="M1124.65,2061.025h117c1.136,0,2.058-1.345,2.058-3s-.922-3-2.058-3h-117c-1.136,0-2.058,1.344-2.058,3S1123.514,2061.025,1124.65,2061.025Z" transform="translate(-166 375.184)" fill="#745fd7"/>
    <text id="_56_" data-name="56%" transform="translate(1154.799 2488.338)" fill="#4a5c74" font-size="24" font-family="OpenSans-SemiboldItalic, Open Sans" font-weight="600" font-style="italic"><tspan x="0" y="0">56%</tspan></text>
    <path id="Path_4378" data-name="Path 4378" d="M1124.65,2119.534h240.479a1.129,1.129,0,0,0,0-2.248H1124.65a1.128,1.128,0,0,0,0,2.248Z" transform="translate(-166 375.184)" fill="#745fd7"/>
    <path id="Path_4379" data-name="Path 4379" d="M1124.65,2121.41H1231.5c1.137,0,2.059-1.345,2.059-3s-.922-3-2.059-3H1124.65c-1.136,0-2.058,1.344-2.058,3S1123.514,2121.41,1124.65,2121.41Z" transform="translate(-166 375.184)" fill="#745fd7"/>
    <g id="Group_4624" data-name="Group 4624" transform="translate(-166 375.184)">
      <text id="_76_" data-name="76%" transform="translate(1320.799 1989.406)" fill="#4a5c74" font-size="24" font-family="OpenSans-SemiboldItalic, Open Sans" font-weight="600" font-style="italic"><tspan x="0" y="0">76%</tspan></text>
      <path id="Path_4380" data-name="Path 4380" d="M1124.65,1997.77h240.479a1.129,1.129,0,0,0,0-2.248H1124.65a1.128,1.128,0,0,0,0,2.248Z" fill="#745fd7"/>
      <path id="Path_4381" data-name="Path 4381" d="M1124.65,1999.646h140.114c1.136,0,2.058-1.345,2.058-3s-.922-3-2.058-3H1124.65c-1.136,0-2.058,1.344-2.058,3S1123.514,1999.646,1124.65,1999.646Z" fill="#745fd7"/>
      <g id="Group_4623" data-name="Group 4623">
        <path id="Path_4382" data-name="Path 4382" d="M1126.98,1995.978a20.667,20.667,0,1,1-20.666-20.666A20.666,20.666,0,0,1,1126.98,1995.978Z" fill="#745fd7"/>
        <path id="Path_4383" data-name="Path 4383" d="M1123.322,1995.978a17.009,17.009,0,1,1-17.008-17.009A17.009,17.009,0,0,1,1123.322,1995.978Z" fill="#fff"/>
        <path id="Mask" d="M1106.169,1992.065l.043.68-.688-.082a11.181,11.181,0,0,1-6.548-3.208l-.908-.9-.233.667a4.009,4.009,0,0,0,.86,4.106c.55.582.427.665-.522.32a1.618,1.618,0,0,0-.647-.151,4.991,4.991,0,0,0,.5,1.858,4.433,4.433,0,0,0,1.886,1.773l.674.318-.8.014c-.77,0-.8.015-.715.306a4.154,4.154,0,0,0,2.575,2.271l.852.291-.741.445a7.744,7.744,0,0,1-3.682,1.035,4.042,4.042,0,0,0-1.126.113,10.5,10.5,0,0,0,2.654,1.216,11.6,11.6,0,0,0,9.015-1.044,12.058,12.058,0,0,0,4.567-5.392,14.348,14.348,0,0,0,.927-4.165c0-.638.04-.721.807-1.486a9.027,9.027,0,0,0,.961-1.07c.138-.264.123-.264-.577-.026-1.168.418-1.333.363-.757-.263a4.028,4.028,0,0,0,.932-1.487c0-.041-.206.029-.439.154a7.7,7.7,0,0,1-1.209.474l-.742.237-.674-.457a5.6,5.6,0,0,0-1.169-.608,4.7,4.7,0,0,0-2.406.06A3.973,3.973,0,0,0,1106.169,1992.065Z" fill="#745fd7"/>
      </g>
    </g>
    <g id="Group_4625" data-name="Group 4625" transform="translate(-166 375.184)">
      <path id="Path_4384" data-name="Path 4384" d="M1126.98,2057.4a20.667,20.667,0,1,1-20.666-20.667A20.666,20.666,0,0,1,1126.98,2057.4Z" fill="#745fd7"/>
      <path id="Path_4385" data-name="Path 4385" d="M1123.322,2057.4a17.009,17.009,0,1,1-17.008-17.01A17.009,17.009,0,0,1,1123.322,2057.4Z" fill="#fff"/>
      <path id="Mask-3" d="M1106.89,2065.207l-.016-8.544,2.359,0,.307-2.945-2.671,0v-1.473c0-.768.071-1.18,1.174-1.182l1.475,0-.006-2.945-2.359,0c-2.833,0-3.828,1.435-3.824,3.837l0,1.768-1.766,0,.005,2.944,1.766,0,.015,8.544Z" fill="#745fd7"/>
    </g>
    <g id="Group_4626" data-name="Group 4626" transform="translate(-166 375.184)">
      <path id="Path_4386" data-name="Path 4386" d="M1126.7,2117.642a20.667,20.667,0,1,1-20.665-20.666A20.666,20.666,0,0,1,1126.7,2117.642Z" fill="#745fd7"/>
      <path id="Path_4387" data-name="Path 4387" d="M1123.04,2117.642a17.01,17.01,0,1,1-17.009-17.009A17.01,17.01,0,0,1,1123.04,2117.642Z" fill="#fff"/>
      <path id="Mask-4" d="M1106.043,2124.444c-.061,0-6.111.006-7.616-.393a2.429,2.429,0,0,1-1.725-1.714,26.983,26.983,0,0,1-.017-9.355,2.436,2.436,0,0,1,1.719-1.721c1.5-.405,7.553-.42,7.614-.42s6.111-.007,7.616.392a2.438,2.438,0,0,1,1.726,1.715,27.047,27.047,0,0,1,.017,9.355,2.435,2.435,0,0,1-1.72,1.721C1112.154,2124.428,1106.1,2124.444,1106.043,2124.444Zm-1.886-9.89.011,6.183,4.867-3.1Z" fill="#745fd7"/>
    </g>
  </g>
</svg>
