<?xml version="1.0" encoding="utf-8"?>
<!-- Generator: Adobe Illustrator 24.2.0, SVG Export Plug-In . SVG Version: 6.00 Build 0)  -->
<svg version="1.1" id="Layer_1" xmlns="http://www.w3.org/2000/svg" xmlns:xlink="http://www.w3.org/1999/xlink" x="0px" y="0px"
	 viewBox="0 0 196.9 223" style="enable-background:new 0 0 196.9 223;" xml:space="preserve">
<style type="text/css">
	.st0{fill:none;}
	.st1{fill:#F5C44F;}
	.st2{fill:#B2448E;}
	.st3{fill:#FFFFFF;}
	.st4{enable-background:new    ;}
	.st5{fill:#333333;}
</style>
<g id="Group_4847" transform="translate(-658 -3466)">
	<rect id="Rectangle_808" x="658" y="3466" class="st0" width="196.7" height="223"/>
	<g id="Group_4213" transform="translate(2433 2400.816)">
		<g id="Group_4212">
			<path id="Path_3917" class="st1" d="M-1676.5,1176.6l98.1-6.9c0.2,2.2,0.2,4.7,0.2,6.9H-1676.5z"/>
		</g>
	</g>
	<g id="Group_4214" transform="translate(2433 2400.816)">
		<path id="Path_3918" class="st1" d="M-1676.5,1176.6l70.8-68.3c16.3,16.5,26,38.3,27.4,61.5L-1676.5,1176.6z"/>
	</g>
	<path id="Path_3919" class="st2" d="M756.5,3577.4h98.4c0,54.3-44,98.4-98.4,98.4s-98.4-44-98.4-98.4c0-54.3,44-98.4,98.4-98.4
		c28.3,0,51.1,9.7,70.8,30L756.5,3577.4z"/>
	<circle id="Ellipse_36" class="st3" cx="756.5" cy="3577.4" r="67.1"/>
	<g class="st4">
		<path class="st2" d="M721.2,3539.6c3.3,0,5.9,0.7,7.9,2.2s3,3.5,3,6c0,1.8-0.5,3.3-1.5,4.7s-2.5,2.6-4.7,3.7
			c2.6,1.4,4.4,2.8,5.5,4.3s1.7,3.1,1.7,4.9c0,2.8-1.1,5.1-3.3,6.8s-5.1,2.6-8.7,2.6c-3.8,0-6.7-0.8-8.8-2.4s-3.2-3.9-3.2-6.8
			c0-2,0.5-3.7,1.6-5.2s2.7-2.9,5-4c-2-1.2-3.4-2.6-4.2-4s-1.3-2.9-1.3-4.6c0-2.5,1-4.4,3-6S718,3539.6,721.2,3539.6z M715.9,3565.2
			c0,1.3,0.5,2.4,1.4,3.1s2.2,1.1,3.8,1.1c1.8,0,3.1-0.4,4-1.2s1.3-1.8,1.3-3.1c0-1-0.4-2-1.3-2.9s-2.3-1.9-4.3-2.9
			C717.6,3560.9,715.9,3562.8,715.9,3565.2z M721.2,3544.9c-1.2,0-2.2,0.3-3,0.9s-1.1,1.5-1.1,2.5c0,0.9,0.3,1.8,0.9,2.5
			s1.7,1.5,3.3,2.3c1.5-0.7,2.6-1.5,3.2-2.2s0.9-1.6,0.9-2.6c0-1.1-0.4-1.9-1.2-2.6S722.4,3544.9,721.2,3544.9z"/>
		<path class="st2" d="M748.6,3539.6c3.3,0,5.9,0.7,7.9,2.2s3,3.5,3,6c0,1.8-0.5,3.3-1.5,4.7s-2.5,2.6-4.7,3.7
			c2.6,1.4,4.4,2.8,5.5,4.3s1.7,3.1,1.7,4.9c0,2.8-1.1,5.1-3.3,6.8s-5.1,2.6-8.7,2.6c-3.8,0-6.7-0.8-8.8-2.4s-3.2-3.9-3.2-6.8
			c0-2,0.5-3.7,1.6-5.2s2.7-2.9,5-4c-2-1.2-3.4-2.6-4.2-4s-1.3-2.9-1.3-4.6c0-2.5,1-4.4,3-6S745.4,3539.6,748.6,3539.6z
			 M743.3,3565.2c0,1.3,0.5,2.4,1.4,3.1s2.2,1.1,3.8,1.1c1.8,0,3.1-0.4,4-1.2s1.3-1.8,1.3-3.1c0-1-0.4-2-1.3-2.9s-2.3-1.9-4.3-2.9
			C745,3560.9,743.3,3562.8,743.3,3565.2z M748.6,3544.9c-1.2,0-2.2,0.3-3,0.9s-1.1,1.5-1.1,2.5c0,0.9,0.3,1.8,0.9,2.5
			s1.7,1.5,3.3,2.3c1.5-0.7,2.6-1.5,3.2-2.2s0.9-1.6,0.9-2.6c0-1.1-0.4-1.9-1.2-2.6S749.8,3544.9,748.6,3544.9z"/>
		<path class="st2" d="M780.1,3550.2c0,3.6-0.7,6.3-2.1,8.1s-3.4,2.7-6.1,2.7c-2.6,0-4.6-0.9-6-2.8s-2.1-4.5-2.1-8
			c0-7.1,2.7-10.7,8.1-10.7c2.6,0,4.7,0.9,6.1,2.8S780.1,3546.8,780.1,3550.2z M769.7,3550.3c0,2,0.2,3.5,0.5,4.4s0.9,1.5,1.7,1.5
			c1.5,0,2.2-2,2.2-5.9c0-3.9-0.8-5.9-2.2-5.9c-0.8,0-1.3,0.5-1.7,1.4S769.7,3548.3,769.7,3550.3z M796.2,3540l-19,34.3h-5.6
			l19-34.3H796.2z M804.1,3563.9c0,3.6-0.7,6.3-2.1,8.1s-3.4,2.7-6.1,2.7c-2.6,0-4.6-0.9-6-2.8s-2.1-4.5-2.1-8
			c0-7.1,2.7-10.7,8.1-10.7c2.6,0,4.7,0.9,6.1,2.8S804.1,3560.5,804.1,3563.9z M793.7,3564c0,2,0.2,3.5,0.5,4.4s0.9,1.5,1.7,1.5
			c1.5,0,2.2-2,2.2-5.9c0-3.9-0.8-5.9-2.2-5.9c-0.8,0-1.3,0.5-1.7,1.4S793.7,3562,793.7,3564z"/>
	</g>
	<g class="st4">
		<path class="st5" d="M722.7,3589c0,1-0.3,1.9-0.8,2.5s-1.3,0.9-2.2,0.9c-0.6,0-1.1-0.1-1.5-0.4s-0.8-0.7-1-1.2s-0.4-1.1-0.4-1.8
			c0-1,0.3-1.9,0.8-2.4s1.2-0.9,2.2-0.9c0.9,0,1.6,0.3,2.1,0.9S722.7,3588,722.7,3589z M717.8,3589c0,0.8,0.2,1.4,0.5,1.9
			s0.8,0.6,1.4,0.6s1.1-0.2,1.5-0.6s0.5-1.1,0.5-1.9c0-0.8-0.2-1.4-0.5-1.9s-0.8-0.6-1.5-0.6c-0.6,0-1.1,0.2-1.4,0.6
			S717.8,3588.2,717.8,3589z"/>
		<path class="st5" d="M727.3,3586.6h-1.6v5.7h-1v-5.7h-1.1v-0.4l1.1-0.4v-0.4c0-1.6,0.7-2.4,2.1-2.4c0.3,0,0.7,0.1,1.2,0.2
			l-0.3,0.8c-0.4-0.1-0.7-0.2-1-0.2c-0.4,0-0.6,0.1-0.8,0.4s-0.3,0.6-0.3,1.2v0.4h1.6V3586.6z"/>
		<path class="st5" d="M734.6,3592.4c-0.4,0-0.8-0.1-1.1-0.2s-0.6-0.4-0.9-0.7h-0.1c0,0.4,0.1,0.7,0.1,1.1v2.6h-1v-9.3h0.8l0.1,0.9
			h0c0.2-0.4,0.5-0.6,0.9-0.8s0.7-0.2,1.1-0.2c0.9,0,1.5,0.3,2,0.9s0.7,1.4,0.7,2.4c0,1.1-0.2,1.9-0.7,2.5
			S735.4,3592.4,734.6,3592.4z M734.5,3586.5c-0.7,0-1.1,0.2-1.4,0.5s-0.4,0.9-0.5,1.7v0.2c0,0.9,0.2,1.5,0.5,1.9s0.8,0.6,1.4,0.6
			c0.6,0,1-0.2,1.3-0.7s0.5-1.1,0.5-1.9c0-0.8-0.2-1.4-0.5-1.8S735,3586.5,734.5,3586.5z"/>
		<path class="st5" d="M742.9,3592.2l-0.2-0.9h0c-0.3,0.4-0.6,0.7-1,0.8s-0.7,0.2-1.2,0.2c-0.6,0-1.1-0.2-1.5-0.5s-0.5-0.8-0.5-1.4
			c0-1.3,1-2,3.1-2l1.1,0v-0.4c0-0.5-0.1-0.9-0.3-1.1s-0.6-0.4-1-0.4c-0.5,0-1.1,0.2-1.8,0.5l-0.3-0.7c0.3-0.2,0.7-0.3,1-0.4
			s0.8-0.1,1.1-0.1c0.8,0,1.3,0.2,1.7,0.5s0.6,0.9,0.6,1.6v4.4H742.9z M740.7,3591.5c0.6,0,1.1-0.2,1.4-0.5s0.5-0.8,0.5-1.4v-0.6
			l-1,0c-0.8,0-1.3,0.1-1.7,0.4s-0.5,0.5-0.5,1c0,0.4,0.1,0.6,0.3,0.8S740.3,3591.5,740.7,3591.5z"/>
		<path class="st5" d="M748.6,3585.7c0.3,0,0.5,0,0.8,0.1l-0.1,0.9c-0.3-0.1-0.5-0.1-0.7-0.1c-0.5,0-1,0.2-1.3,0.6s-0.6,0.9-0.6,1.6
			v3.4h-1v-6.4h0.8l0.1,1.2h0c0.2-0.4,0.5-0.7,0.9-1S748.2,3585.7,748.6,3585.7z"/>
		<path class="st5" d="M752.6,3591.5c0.2,0,0.3,0,0.5,0s0.3-0.1,0.4-0.1v0.7c-0.1,0.1-0.3,0.1-0.5,0.1s-0.4,0-0.6,0
			c-1.2,0-1.9-0.7-1.9-2v-3.8h-0.9v-0.5l0.9-0.4l0.4-1.4h0.6v1.5h1.9v0.8h-1.9v3.8c0,0.4,0.1,0.7,0.3,0.9S752.3,3591.5,752.6,3591.5
			z"/>
		<path class="st5" d="M754.7,3584.1c0-0.2,0.1-0.4,0.2-0.5s0.2-0.2,0.4-0.2c0.2,0,0.3,0.1,0.4,0.2s0.2,0.3,0.2,0.5
			s-0.1,0.4-0.2,0.5s-0.2,0.2-0.4,0.2c-0.2,0-0.3-0.1-0.4-0.2S754.7,3584.3,754.7,3584.1z M755.8,3592.2h-1v-6.4h1V3592.2z"/>
		<path class="st5" d="M760.4,3592.4c-0.9,0-1.6-0.3-2.2-0.9s-0.8-1.4-0.8-2.4c0-1.1,0.3-1.9,0.8-2.5s1.3-0.9,2.2-0.9
			c0.3,0,0.6,0,0.9,0.1s0.6,0.1,0.7,0.2l-0.3,0.8c-0.2-0.1-0.4-0.2-0.7-0.2s-0.5-0.1-0.7-0.1c-1.3,0-2,0.8-2,2.5
			c0,0.8,0.2,1.4,0.5,1.8s0.8,0.6,1.4,0.6c0.5,0,1.1-0.1,1.6-0.3v0.9C761.6,3592.2,761,3592.4,760.4,3592.4z"/>
		<path class="st5" d="M763.4,3584.1c0-0.2,0.1-0.4,0.2-0.5s0.2-0.2,0.4-0.2c0.2,0,0.3,0.1,0.4,0.2s0.2,0.3,0.2,0.5
			s-0.1,0.4-0.2,0.5s-0.2,0.2-0.4,0.2c-0.2,0-0.3-0.1-0.4-0.2S763.4,3584.3,763.4,3584.1z M764.5,3592.2h-1v-6.4h1V3592.2z"/>
		<path class="st5" d="M769.6,3592.4c-0.4,0-0.8-0.1-1.1-0.2s-0.6-0.4-0.9-0.7h-0.1c0,0.4,0.1,0.7,0.1,1.1v2.6h-1v-9.3h0.8l0.1,0.9
			h0c0.2-0.4,0.5-0.6,0.9-0.8s0.7-0.2,1.1-0.2c0.9,0,1.5,0.3,2,0.9s0.7,1.4,0.7,2.4c0,1.1-0.2,1.9-0.7,2.5
			S770.4,3592.4,769.6,3592.4z M769.4,3586.5c-0.7,0-1.1,0.2-1.4,0.5s-0.4,0.9-0.5,1.7v0.2c0,0.9,0.2,1.5,0.5,1.9s0.8,0.6,1.4,0.6
			c0.6,0,1-0.2,1.3-0.7s0.5-1.1,0.5-1.9c0-0.8-0.2-1.4-0.5-1.8S770,3586.5,769.4,3586.5z"/>
		<path class="st5" d="M777.9,3592.2l-0.2-0.9h0c-0.3,0.4-0.6,0.7-1,0.8s-0.7,0.2-1.2,0.2c-0.6,0-1.1-0.2-1.5-0.5s-0.5-0.8-0.5-1.4
			c0-1.3,1-2,3.1-2l1.1,0v-0.4c0-0.5-0.1-0.9-0.3-1.1s-0.6-0.4-1-0.4c-0.5,0-1.1,0.2-1.8,0.5l-0.3-0.7c0.3-0.2,0.7-0.3,1-0.4
			s0.8-0.1,1.1-0.1c0.8,0,1.3,0.2,1.7,0.5s0.6,0.9,0.6,1.6v4.4H777.9z M775.7,3591.5c0.6,0,1.1-0.2,1.4-0.5s0.5-0.8,0.5-1.4v-0.6
			l-1,0c-0.8,0-1.3,0.1-1.7,0.4s-0.5,0.5-0.5,1c0,0.4,0.1,0.6,0.3,0.8S775.3,3591.5,775.7,3591.5z"/>
		<path class="st5" d="M785,3592.2v-4.2c0-0.5-0.1-0.9-0.4-1.2s-0.6-0.4-1.1-0.4c-0.7,0-1.2,0.2-1.5,0.5s-0.5,1-0.5,1.8v3.4h-1v-6.4
			h0.8l0.2,0.9h0c0.2-0.3,0.5-0.6,0.8-0.7s0.8-0.3,1.2-0.3c0.8,0,1.4,0.2,1.7,0.6s0.6,1,0.6,1.8v4.2H785z"/>
		<path class="st5" d="M790,3591.5c0.2,0,0.3,0,0.5,0s0.3-0.1,0.4-0.1v0.7c-0.1,0.1-0.3,0.1-0.5,0.1s-0.4,0-0.6,0
			c-1.2,0-1.9-0.7-1.9-2v-3.8h-0.9v-0.5l0.9-0.4l0.4-1.4h0.6v1.5h1.9v0.8H789v3.8c0,0.4,0.1,0.7,0.3,0.9S789.7,3591.5,790,3591.5z"
			/>
		<path class="st5" d="M796.3,3590.5c0,0.6-0.2,1.1-0.7,1.4s-1.1,0.5-1.9,0.5c-0.9,0-1.5-0.1-2-0.4v-0.9c0.3,0.2,0.6,0.3,1,0.4
			s0.7,0.1,1,0.1c0.5,0,0.9-0.1,1.2-0.2s0.4-0.4,0.4-0.7c0-0.2-0.1-0.5-0.3-0.6s-0.6-0.4-1.3-0.6c-0.6-0.2-1-0.4-1.3-0.6
			s-0.4-0.4-0.6-0.6s-0.2-0.5-0.2-0.8c0-0.5,0.2-0.9,0.6-1.2s1-0.5,1.8-0.5c0.7,0,1.4,0.1,2,0.4l-0.3,0.8c-0.6-0.3-1.2-0.4-1.8-0.4
			c-0.5,0-0.8,0.1-1,0.2s-0.4,0.3-0.4,0.6c0,0.2,0,0.3,0.1,0.4s0.2,0.2,0.4,0.3s0.6,0.3,1.1,0.5c0.8,0.3,1.3,0.6,1.5,0.8
			S796.3,3590.1,796.3,3590.5z"/>
	</g>
	<g class="st4">
		<path class="st5" d="M733,3601.6h-1.6v5.7h-1v-5.7h-1.1v-0.4l1.1-0.4v-0.4c0-1.6,0.7-2.4,2.1-2.4c0.3,0,0.7,0.1,1.2,0.2l-0.3,0.8
			c-0.4-0.1-0.7-0.2-1-0.2c-0.4,0-0.6,0.1-0.8,0.4s-0.3,0.6-0.3,1.2v0.4h1.6V3601.6z"/>
		<path class="st5" d="M739.7,3604c0,1-0.3,1.9-0.8,2.5s-1.3,0.9-2.2,0.9c-0.6,0-1.1-0.1-1.5-0.4s-0.8-0.7-1-1.2s-0.4-1.1-0.4-1.8
			c0-1,0.3-1.9,0.8-2.4s1.2-0.9,2.2-0.9c0.9,0,1.6,0.3,2.1,0.9S739.7,3603,739.7,3604z M734.8,3604c0,0.8,0.2,1.4,0.5,1.9
			s0.8,0.6,1.4,0.6s1.1-0.2,1.5-0.6s0.5-1.1,0.5-1.9c0-0.8-0.2-1.4-0.5-1.9s-0.8-0.6-1.5-0.6c-0.6,0-1.1,0.2-1.4,0.6
			S734.8,3603.2,734.8,3604z"/>
		<path class="st5" d="M742.4,3600.8v4.2c0,0.5,0.1,0.9,0.4,1.2s0.6,0.4,1.1,0.4c0.7,0,1.2-0.2,1.5-0.6s0.5-1,0.5-1.8v-3.4h1v6.4
			h-0.8l-0.1-0.9h-0.1c-0.2,0.3-0.5,0.6-0.8,0.7s-0.8,0.3-1.2,0.3c-0.8,0-1.4-0.2-1.8-0.6s-0.6-1-0.6-1.8v-4.2H742.4z"/>
		<path class="st5" d="M753.2,3607.2v-4.2c0-0.5-0.1-0.9-0.4-1.2s-0.6-0.4-1.1-0.4c-0.7,0-1.2,0.2-1.5,0.5s-0.5,1-0.5,1.8v3.4h-1
			v-6.4h0.8l0.2,0.9h0c0.2-0.3,0.5-0.6,0.8-0.7s0.8-0.3,1.2-0.3c0.8,0,1.4,0.2,1.7,0.6s0.6,1,0.6,1.8v4.2H753.2z"/>
		<path class="st5" d="M760.5,3606.4L760.5,3606.4c-0.5,0.7-1.2,1-2.1,1c-0.8,0-1.5-0.3-2-0.9s-0.7-1.4-0.7-2.4s0.2-1.9,0.7-2.5
			s1.1-0.9,2-0.9c0.9,0,1.5,0.3,2,0.9h0.1l0-0.5l0-0.5v-2.6h1v9.1h-0.8L760.5,3606.4z M758.6,3606.5c0.7,0,1.1-0.2,1.4-0.5
			s0.4-0.9,0.4-1.7v-0.2c0-0.9-0.2-1.6-0.5-1.9s-0.8-0.6-1.5-0.6c-0.6,0-1,0.2-1.3,0.7s-0.5,1.1-0.5,1.9c0,0.8,0.2,1.4,0.5,1.9
			S758,3606.5,758.6,3606.5z"/>
		<path class="st5" d="M768.7,3606.5c0.2,0,0.3,0,0.5,0s0.3-0.1,0.4-0.1v0.7c-0.1,0.1-0.3,0.1-0.5,0.1s-0.4,0-0.6,0
			c-1.2,0-1.9-0.7-1.9-2v-3.8h-0.9v-0.5l0.9-0.4l0.4-1.4h0.6v1.5h1.9v0.8h-1.9v3.8c0,0.4,0.1,0.7,0.3,0.9S768.4,3606.5,768.7,3606.5
			z"/>
		<path class="st5" d="M775.3,3607.2v-4.2c0-0.5-0.1-0.9-0.4-1.2s-0.6-0.4-1.1-0.4c-0.7,0-1.2,0.2-1.5,0.6s-0.5,1-0.5,1.8v3.4h-1
			v-9.1h1v2.8c0,0.3,0,0.6,0,0.8h0.1c0.2-0.3,0.5-0.6,0.8-0.7s0.8-0.3,1.2-0.3c0.8,0,1.4,0.2,1.8,0.6s0.6,1,0.6,1.8v4.2H775.3z"/>
		<path class="st5" d="M781,3607.4c-0.9,0-1.7-0.3-2.2-0.9s-0.8-1.4-0.8-2.4c0-1,0.3-1.9,0.8-2.5s1.2-0.9,2.1-0.9
			c0.8,0,1.4,0.3,1.9,0.8s0.7,1.2,0.7,2.1v0.6h-4.4c0,0.8,0.2,1.3,0.6,1.7s0.9,0.6,1.5,0.6c0.7,0,1.4-0.1,2.1-0.4v0.9
			c-0.3,0.1-0.7,0.3-1,0.3S781.4,3607.4,781,3607.4z M780.7,3601.5c-0.5,0-0.9,0.2-1.2,0.5s-0.5,0.8-0.5,1.4h3.4
			c0-0.6-0.1-1.1-0.4-1.4S781.2,3601.5,780.7,3601.5z"/>
	</g>
	<g class="st4">
		<path class="st5" d="M734,3621.5c0.2,0,0.3,0,0.5,0s0.3-0.1,0.4-0.1v0.7c-0.1,0.1-0.3,0.1-0.5,0.1s-0.4,0-0.6,0
			c-1.2,0-1.9-0.7-1.9-2v-3.8h-0.9v-0.5l0.9-0.4l0.4-1.4h0.6v1.5h1.9v0.8H733v3.8c0,0.4,0.1,0.7,0.3,0.9S733.7,3621.5,734,3621.5z"
			/>
		<path class="st5" d="M740.1,3622.2l-0.2-0.9h0c-0.3,0.4-0.6,0.7-1,0.8s-0.7,0.2-1.2,0.2c-0.6,0-1.1-0.2-1.5-0.5s-0.5-0.8-0.5-1.4
			c0-1.3,1-2,3.1-2l1.1,0v-0.4c0-0.5-0.1-0.9-0.3-1.1s-0.6-0.4-1-0.4c-0.5,0-1.1,0.2-1.8,0.5l-0.3-0.7c0.3-0.2,0.7-0.3,1-0.4
			s0.8-0.1,1.1-0.1c0.8,0,1.3,0.2,1.7,0.5s0.6,0.9,0.6,1.6v4.4H740.1z M737.9,3621.5c0.6,0,1.1-0.2,1.4-0.5s0.5-0.8,0.5-1.4v-0.6
			l-1,0c-0.8,0-1.3,0.1-1.7,0.4s-0.5,0.5-0.5,1c0,0.4,0.1,0.6,0.3,0.8S737.5,3621.5,737.9,3621.5z"/>
		<path class="st5" d="M747,3620.5c0,0.6-0.2,1.1-0.7,1.4s-1.1,0.5-1.9,0.5c-0.9,0-1.5-0.1-2-0.4v-0.9c0.3,0.2,0.6,0.3,1,0.4
			s0.7,0.1,1,0.1c0.5,0,0.9-0.1,1.2-0.2s0.4-0.4,0.4-0.7c0-0.2-0.1-0.5-0.3-0.6s-0.6-0.4-1.3-0.6c-0.6-0.2-1-0.4-1.3-0.6
			s-0.4-0.4-0.6-0.6s-0.2-0.5-0.2-0.8c0-0.5,0.2-0.9,0.6-1.2s1-0.5,1.8-0.5c0.7,0,1.4,0.1,2,0.4l-0.3,0.8c-0.6-0.3-1.2-0.4-1.8-0.4
			c-0.5,0-0.8,0.1-1,0.2s-0.4,0.3-0.4,0.6c0,0.2,0,0.3,0.1,0.4s0.2,0.2,0.4,0.3s0.6,0.3,1.1,0.5c0.8,0.3,1.3,0.6,1.5,0.8
			S747,3620.1,747,3620.5z"/>
		<path class="st5" d="M749.5,3618.9c0.2-0.2,0.4-0.6,0.8-0.9l2.1-2.2h1.2l-2.6,2.7l2.8,3.7h-1.2l-2.3-3l-0.7,0.6v2.4h-1v-9.1h1v4.8
			C749.5,3618.2,749.5,3618.5,749.5,3618.9L749.5,3618.9z"/>
		<path class="st5" d="M760.7,3622.4c-0.9,0-1.7-0.3-2.2-0.9s-0.8-1.4-0.8-2.4c0-1,0.3-1.9,0.8-2.5s1.2-0.9,2.1-0.9
			c0.8,0,1.4,0.3,1.9,0.8s0.7,1.2,0.7,2.1v0.6h-4.4c0,0.8,0.2,1.3,0.6,1.7s0.9,0.6,1.5,0.6c0.7,0,1.4-0.1,2.1-0.4v0.9
			c-0.3,0.1-0.7,0.3-1,0.3S761.1,3622.4,760.7,3622.4z M760.4,3616.5c-0.5,0-0.9,0.2-1.2,0.5s-0.5,0.8-0.5,1.4h3.4
			c0-0.6-0.1-1.1-0.4-1.4S760.9,3616.5,760.4,3616.5z"/>
		<path class="st5" d="M768.7,3622.2l-0.2-0.9h0c-0.3,0.4-0.6,0.7-1,0.8s-0.7,0.2-1.2,0.2c-0.6,0-1.1-0.2-1.5-0.5s-0.5-0.8-0.5-1.4
			c0-1.3,1-2,3.1-2l1.1,0v-0.4c0-0.5-0.1-0.9-0.3-1.1s-0.6-0.4-1-0.4c-0.5,0-1.1,0.2-1.8,0.5l-0.3-0.7c0.3-0.2,0.7-0.3,1-0.4
			s0.8-0.1,1.1-0.1c0.8,0,1.3,0.2,1.7,0.5s0.6,0.9,0.6,1.6v4.4H768.7z M766.5,3621.5c0.6,0,1.1-0.2,1.4-0.5s0.5-0.8,0.5-1.4v-0.6
			l-1,0c-0.8,0-1.3,0.1-1.7,0.4s-0.5,0.5-0.5,1c0,0.4,0.1,0.6,0.3,0.8S766.1,3621.5,766.5,3621.5z"/>
		<path class="st5" d="M775.5,3620.5c0,0.6-0.2,1.1-0.7,1.4s-1.1,0.5-1.9,0.5c-0.9,0-1.5-0.1-2-0.4v-0.9c0.3,0.2,0.6,0.3,1,0.4
			s0.7,0.1,1,0.1c0.5,0,0.9-0.1,1.2-0.2s0.4-0.4,0.4-0.7c0-0.2-0.1-0.5-0.3-0.6s-0.6-0.4-1.3-0.6c-0.6-0.2-1-0.4-1.3-0.6
			s-0.4-0.4-0.6-0.6s-0.2-0.5-0.2-0.8c0-0.5,0.2-0.9,0.6-1.2s1-0.5,1.8-0.5c0.7,0,1.4,0.1,2,0.4l-0.3,0.8c-0.6-0.3-1.2-0.4-1.8-0.4
			c-0.5,0-0.8,0.1-1,0.2s-0.4,0.3-0.4,0.6c0,0.2,0,0.3,0.1,0.4s0.2,0.2,0.4,0.3s0.6,0.3,1.1,0.5c0.8,0.3,1.3,0.6,1.5,0.8
			S775.5,3620.1,775.5,3620.5z"/>
		<path class="st5" d="M776.1,3615.8h1l1.4,3.7c0.3,0.8,0.5,1.4,0.6,1.8h0c0.1-0.2,0.2-0.5,0.3-1s0.7-2,1.6-4.5h1l-2.8,7.3
			c-0.3,0.7-0.6,1.2-1,1.5s-0.8,0.5-1.3,0.5c-0.3,0-0.6,0-0.9-0.1v-0.8c0.2,0,0.5,0.1,0.7,0.1c0.7,0,1.1-0.4,1.4-1.1l0.4-0.9
			L776.1,3615.8z"/>
	</g>
</g>
</svg>
