<svg xmlns="http://www.w3.org/2000/svg" viewBox="0 0 554.63 255.75"><defs><style>.cls-1{fill:#218080;}.cls-2{fill:#70bdbd;}.cls-3{fill:#cfe9e9;}.cls-4{fill:#c0c6ce;}.cls-5{fill:#4a5c74;}.cls-6{fill:#fff;}.cls-7{fill:#333;}</style></defs><g id="Layer_2" data-name="Layer 2"><g id="Layer_2-2" data-name="Layer 2"><rect class="cls-1" y="0.02" width="277.32" height="255.73"/><rect class="cls-2" x="277.33" y="0.02" width="138.66" height="255.73"/><rect class="cls-3" x="415.97" width="138.66" height="63.93"/><rect class="cls-4" x="415.97" y="64.4" width="138.66" height="63.93"/><rect class="cls-5" x="415.97" y="127.88" width="138.66" height="127.87"/><path class="cls-6" d="M27.14,37.37H24.68L14.54,21.79h-.11c.14,1.83.21,3.5.21,5V37.37h-2V18.8h2.44L25.2,34.32h.1c0-.23-.05-1-.11-2.2s-.08-2.13-.07-2.66V18.8h2Z"/><path class="cls-6" d="M42.72,32.43a4.55,4.55,0,0,1-1.78,3.82,7.71,7.71,0,0,1-4.82,1.37A12,12,0,0,1,31,36.77V34.69a13.7,13.7,0,0,0,2.49.76,13.43,13.43,0,0,0,2.66.28,5.42,5.42,0,0,0,3.25-.82,2.7,2.7,0,0,0,1.1-2.28,2.91,2.91,0,0,0-.39-1.58,3.63,3.63,0,0,0-1.3-1.14,18.38,18.38,0,0,0-2.76-1.18,8.94,8.94,0,0,1-3.7-2.19,4.88,4.88,0,0,1-1.11-3.32,4.11,4.11,0,0,1,1.61-3.41,6.7,6.7,0,0,1,4.27-1.27,12.71,12.71,0,0,1,5.09,1l-.67,1.88a11.62,11.62,0,0,0-4.47-1,4.31,4.31,0,0,0-2.68.73,2.46,2.46,0,0,0-1,2.05,3.11,3.11,0,0,0,.36,1.58A3.38,3.38,0,0,0,35,26a14.65,14.65,0,0,0,2.58,1.13,10.21,10.21,0,0,1,4,2.24A4.4,4.4,0,0,1,42.72,32.43Z"/><path class="cls-6" d="M62.71,37.37H60.58L56.84,24.94c-.18-.55-.38-1.25-.6-2.09a10.19,10.19,0,0,1-.34-1.51A30.7,30.7,0,0,1,55,25L51.38,37.37H49.24L44.3,18.8h2.29l2.93,11.47a40,40,0,0,1,.89,4.37,31.56,31.56,0,0,1,1-4.55L54.75,18.8H57l3.49,11.39a34.16,34.16,0,0,1,1,4.45,37.36,37.36,0,0,1,.91-4.4L65.39,18.8h2.29Z"/><path class="cls-6" d="M133.35,199.16q7.88,0,12.48,4.17t4.59,11.37q0,8.34-5.22,13t-14.84,4.69q-8.73,0-13.73-2.82V222a25.27,25.27,0,0,0,6.63,2.53,29.89,29.89,0,0,0,7,.89q5.67,0,8.63-2.53t3-7.41q0-9.35-11.91-9.34a30.55,30.55,0,0,0-4.13.34c-1.64.22-3.08.48-4.31.76L117.7,205l2-25.45h27.09V187H127.08L125.9,200c.83-.15,1.85-.31,3-.5A28.7,28.7,0,0,1,133.35,199.16Z"/><path class="cls-6" d="M192.59,201.84q0,15.39-6.2,23t-18.68,7.59a28.56,28.56,0,0,1-6.81-.57v-7a23.74,23.74,0,0,0,6.39.89q8.47,0,12.65-4.56t4.56-14.33h-.43a12.62,12.62,0,0,1-5.08,4.63,15.93,15.93,0,0,1-7,1.43q-6.92,0-10.88-4.32t-4-11.83q0-8.16,4.58-13t12.49-4.83a16.64,16.64,0,0,1,16.08,10.57A30.89,30.89,0,0,1,192.59,201.84Zm-18.18-16a8.09,8.09,0,0,0-6.66,2.83c-1.55,1.89-2.32,4.54-2.32,8a10.49,10.49,0,0,0,2.16,7q2.16,2.55,6.54,2.55a10.42,10.42,0,0,0,7.13-2.53,7.67,7.67,0,0,0,2.88-5.92,14.57,14.57,0,0,0-1.22-5.93,10.71,10.71,0,0,0-3.44-4.37A8.43,8.43,0,0,0,174.41,185.87Z"/><path class="cls-6" d="M221.79,195.13q0,8.2-2.95,12.32t-8.67,4.12a9.64,9.64,0,0,1-8.4-4.26q-3-4.26-3-12.18,0-16.27,11.37-16.29a9.91,9.91,0,0,1,8.6,4.23C220.78,185.88,221.79,189.91,221.79,195.13Zm-16,.08a22.73,22.73,0,0,0,1,7.91,3.54,3.54,0,0,0,3.39,2.6q4.7,0,4.7-10.51t-4.7-10.52a3.54,3.54,0,0,0-3.39,2.6A22.79,22.79,0,0,0,205.75,195.21Zm39.38-15.62-28.91,52.12h-6.91l28.91-52.12ZM255.72,216q0,8.21-3,12.3a10,10,0,0,1-8.63,4.1,9.73,9.73,0,0,1-8.41-4.22q-3-4.23-3-12.18,0-16.29,11.4-16.29a10,10,0,0,1,8.54,4.21Q255.71,208.14,255.72,216Zm-16,0a22.74,22.74,0,0,0,1,7.95c.7,1.76,1.84,2.64,3.4,2.64q4.68,0,4.67-10.59t-4.67-10.44a3.55,3.55,0,0,0-3.4,2.57A22,22,0,0,0,239.68,216Z"/><path class="cls-7" d="M333.65,234H310.42v-4.18l8.84-8.88a75.79,75.79,0,0,0,5.19-5.68,13.72,13.72,0,0,0,1.86-3.15,8.55,8.55,0,0,0,.59-3.17,4.84,4.84,0,0,0-1.4-3.66,5.33,5.33,0,0,0-3.85-1.33,10.2,10.2,0,0,0-3.81.73,17.44,17.44,0,0,0-4.25,2.62l-3-3.63a19.26,19.26,0,0,1,5.55-3.42,16.14,16.14,0,0,1,5.75-1,11.31,11.31,0,0,1,7.66,2.49,8.46,8.46,0,0,1,2.88,6.72,11.72,11.72,0,0,1-.83,4.41,18.08,18.08,0,0,1-2.55,4.3,59,59,0,0,1-5.73,6l-6,5.77v.23h16.27Z"/><path class="cls-7" d="M354,234h-5.51V211.88c0-2.64.07-4.73.19-6.28-.36.37-.8.79-1.32,1.24s-2.28,1.89-5.26,4.31l-2.77-3.49,10.08-7.92H354Z"/><path class="cls-7" d="M380.2,210q0,5.39-1.94,8.1a6.57,6.57,0,0,1-5.71,2.7A6.32,6.32,0,0,1,367,218q-2-2.79-2-8,0-10.71,7.47-10.71a6.51,6.51,0,0,1,5.66,2.78Q380.21,204.81,380.2,210Zm-10.55,0a15,15,0,0,0,.68,5.2,2.31,2.31,0,0,0,2.22,1.71q3.1,0,3.1-6.91t-3.1-6.92a2.31,2.31,0,0,0-2.22,1.71A15.06,15.06,0,0,0,369.65,210Zm25.9-10.27-19,34.27H372l19-34.27Zm7,23.95c0,3.6-.65,6.29-1.95,8.09a6.53,6.53,0,0,1-5.67,2.69,6.39,6.39,0,0,1-5.53-2.77q-2-2.77-2-8,0-10.71,7.5-10.71a6.5,6.5,0,0,1,5.61,2.77Q402.51,218.51,402.51,223.69Zm-10.55,0a15,15,0,0,0,.69,5.23,2.34,2.34,0,0,0,2.24,1.73q3.08,0,3.07-7t-3.07-6.86a2.34,2.34,0,0,0-2.24,1.68A14.59,14.59,0,0,0,392,223.69Z"/><path class="cls-6" d="M494.27,234h-3.21V221.1c0-1.54,0-2.76.11-3.66-.21.21-.47.46-.77.72l-3.07,2.52-1.62-2,5.88-4.62h2.68Z"/><path class="cls-6" d="M514.37,224q0,5.2-1.68,7.74a6.32,6.32,0,0,1-10.17-.08c-1.15-1.74-1.73-4.3-1.73-7.66q0-5.3,1.68-7.8a6.33,6.33,0,0,1,10.18.12Q514.38,219,514.37,224Zm-10.32,0a14.58,14.58,0,0,0,.84,5.84,2.93,2.93,0,0,0,5.38,0,14.33,14.33,0,0,0,.86-5.81,14.48,14.48,0,0,0-.86-5.82,2.82,2.82,0,0,0-2.7-1.79,2.78,2.78,0,0,0-2.68,1.76A14.71,14.71,0,0,0,504.05,224Z"/><path class="cls-6" d="M525.54,220a8.11,8.11,0,0,1-1.13,4.72,3.83,3.83,0,0,1-3.33,1.58,3.7,3.7,0,0,1-3.22-1.63,8.12,8.12,0,0,1-1.14-4.67q0-6.25,4.36-6.25a3.81,3.81,0,0,1,3.3,1.62A7.89,7.89,0,0,1,525.54,220Zm-6.15,0a8.83,8.83,0,0,0,.39,3,1.36,1.36,0,0,0,1.3,1c1.21,0,1.81-1.35,1.81-4s-.6-4-1.81-4a1.37,1.37,0,0,0-1.3,1A8.9,8.9,0,0,0,519.39,220Zm15.1-6-11.08,20h-2.66l11.09-20Zm4.06,14a8,8,0,0,1-1.13,4.72,3.85,3.85,0,0,1-3.31,1.57,3.75,3.75,0,0,1-3.23-1.62,8.07,8.07,0,0,1-1.14-4.67c0-4.16,1.45-6.25,4.37-6.25a3.82,3.82,0,0,1,3.28,1.62A7.8,7.8,0,0,1,538.55,228Zm-6.15,0a8.67,8.67,0,0,0,.41,3,1.36,1.36,0,0,0,1.3,1c1.2,0,1.79-1.35,1.79-4.06s-.59-4-1.79-4a1.35,1.35,0,0,0-1.3,1A8.37,8.37,0,0,0,532.4,228Z"/><path class="cls-7" d="M507.6,94.16a6.9,6.9,0,0,1,4.79,1.6,5.61,5.61,0,0,1,1.76,4.36,6.38,6.38,0,0,1-2,5,8.26,8.26,0,0,1-5.7,1.8,10.77,10.77,0,0,1-5.26-1.08v-2.91a9.8,9.8,0,0,0,2.54,1,11.49,11.49,0,0,0,2.67.34,5,5,0,0,0,3.31-1,3.56,3.56,0,0,0,1.13-2.84q0-3.59-4.56-3.59a13.26,13.26,0,0,0-1.59.13q-.94.14-1.65.3l-1.44-.85.77-9.76h10.39v2.86H505.2l-.46,4.94,1.17-.19A11.47,11.47,0,0,1,507.6,94.16Z"/><path class="cls-7" d="M525.54,92.62a8.11,8.11,0,0,1-1.13,4.72,3.81,3.81,0,0,1-3.33,1.58,3.7,3.7,0,0,1-3.22-1.63,8.12,8.12,0,0,1-1.14-4.67q0-6.25,4.36-6.25a3.81,3.81,0,0,1,3.3,1.62A7.89,7.89,0,0,1,525.54,92.62Zm-6.15,0a8.83,8.83,0,0,0,.39,3,1.36,1.36,0,0,0,1.3,1c1.21,0,1.81-1.35,1.81-4s-.6-4-1.81-4a1.37,1.37,0,0,0-1.3,1A8.9,8.9,0,0,0,519.39,92.65Zm15.1-6-11.08,20h-2.66l11.09-20Zm4.06,14a8,8,0,0,1-1.13,4.72,3.82,3.82,0,0,1-3.31,1.57,3.75,3.75,0,0,1-3.23-1.62,8.07,8.07,0,0,1-1.14-4.67c0-4.16,1.45-6.25,4.37-6.25A3.82,3.82,0,0,1,537.39,96,7.8,7.8,0,0,1,538.55,100.63Zm-6.15,0a8.67,8.67,0,0,0,.41,3.05,1.36,1.36,0,0,0,1.3,1c1.2,0,1.79-1.35,1.79-4.06s-.59-4-1.79-4a1.35,1.35,0,0,0-1.3,1A8.41,8.41,0,0,0,532.4,100.63Z"/><path class="cls-7" d="M507.6,30.61a6.85,6.85,0,0,1,4.79,1.6,5.61,5.61,0,0,1,1.76,4.36,6.4,6.4,0,0,1-2,5,8.26,8.26,0,0,1-5.7,1.8,10.88,10.88,0,0,1-5.26-1.08V39.37a9.45,9.45,0,0,0,2.54,1,11.53,11.53,0,0,0,2.67.35,5,5,0,0,0,3.31-1,3.53,3.53,0,0,0,1.13-2.84q0-3.59-4.56-3.58a11.46,11.46,0,0,0-1.59.13c-.63.09-1.18.18-1.65.29l-1.44-.84.77-9.77h10.39V26H505.2l-.46,4.95,1.17-.19A11.47,11.47,0,0,1,507.6,30.61Z"/><path class="cls-7" d="M525.54,29.06a8.15,8.15,0,0,1-1.13,4.73,3.83,3.83,0,0,1-3.33,1.58,3.71,3.71,0,0,1-3.22-1.64,8.09,8.09,0,0,1-1.14-4.67q0-6.24,4.36-6.24a3.81,3.81,0,0,1,3.3,1.62A7.88,7.88,0,0,1,525.54,29.06Zm-6.15,0a8.9,8.9,0,0,0,.39,3,1.36,1.36,0,0,0,1.3,1c1.21,0,1.81-1.34,1.81-4s-.6-4-1.81-4a1.36,1.36,0,0,0-1.3,1A8.79,8.79,0,0,0,519.39,29.09Zm15.1-6-11.08,20h-2.66l11.09-20Zm4.06,14a8,8,0,0,1-1.13,4.71,3.83,3.83,0,0,1-3.31,1.58,3.73,3.73,0,0,1-3.23-1.63,8,8,0,0,1-1.14-4.66c0-4.17,1.45-6.25,4.37-6.25a3.84,3.84,0,0,1,3.28,1.61A7.83,7.83,0,0,1,538.55,37.08Zm-6.15,0a8.61,8.61,0,0,0,.41,3,1.36,1.36,0,0,0,1.3,1c1.2,0,1.79-1.36,1.79-4.06s-.59-4-1.79-4a1.35,1.35,0,0,0-1.3,1A8.47,8.47,0,0,0,532.4,37.08Z"/><path class="cls-7" d="M302.48,18.8h2.32l-6.69,18.57H296L289.33,18.8h2.28l4.27,12a32.64,32.64,0,0,1,1.16,4,34.68,34.68,0,0,1,1.2-4.1Z"/><path class="cls-7" d="M307.35,37.37V18.8h2.16V37.37Z"/><path class="cls-7" d="M322.55,20.47a6.06,6.06,0,0,0-4.83,2A8.18,8.18,0,0,0,316,28.08a8.36,8.36,0,0,0,1.71,5.63,6,6,0,0,0,4.86,2A16.37,16.37,0,0,0,327,35v1.9a13.67,13.67,0,0,1-4.76.72,8.07,8.07,0,0,1-6.33-2.49c-1.48-1.66-2.22-4-2.22-7.07a11.12,11.12,0,0,1,1.07-5,7.61,7.61,0,0,1,3.1-3.32,9.36,9.36,0,0,1,4.76-1.17,11.55,11.55,0,0,1,5.11,1.06l-.92,1.86A9.82,9.82,0,0,0,322.55,20.47Z"/><path class="cls-7" d="M440.53,41.37l-2.31-5.91h-7.44l-2.29,5.91h-2.18l7.34-18.64h1.81l7.3,18.64Zm-3-7.85-2.16-5.75c-.27-.73-.56-1.62-.86-2.68a22.77,22.77,0,0,1-.8,2.68l-2.18,5.75Z"/><path class="cls-7" d="M453.26,24.47a6.06,6.06,0,0,0-4.83,2,8.18,8.18,0,0,0-1.77,5.57,8.36,8.36,0,0,0,1.71,5.63,6,6,0,0,0,4.86,2,16.49,16.49,0,0,0,4.44-.7v1.9a13.77,13.77,0,0,1-4.77.72,8,8,0,0,1-6.32-2.49c-1.49-1.66-2.23-4-2.23-7.07a11.25,11.25,0,0,1,1.07-5,7.67,7.67,0,0,1,3.1-3.32,9.37,9.37,0,0,1,4.77-1.17,11.53,11.53,0,0,1,5.1,1.06l-.92,1.86A9.79,9.79,0,0,0,453.26,24.47Z"/><path class="cls-7" d="M467.43,41.37h-2.16V24.72h-5.88V22.8h13.92v1.92h-5.88Z"/><path class="cls-7" d="M445,95.61a11.3,11.3,0,0,1-1.43,5.93,7.16,7.16,0,0,1-4.05,3.2l4.41,4.6h-3.13l-3.62-4.19-.7,0a8,8,0,0,1-6.33-2.5,10.34,10.34,0,0,1-2.23-7.08c0-3,.75-5.37,2.24-7a8.08,8.08,0,0,1,6.35-2.49,7.88,7.88,0,0,1,6.24,2.54A10.17,10.17,0,0,1,445,95.61Zm-14.79,0a8.75,8.75,0,0,0,1.61,5.72,6.55,6.55,0,0,0,9.32,0,8.94,8.94,0,0,0,1.57-5.73,8.9,8.9,0,0,0-1.56-5.68A5.63,5.63,0,0,0,436.48,88a5.72,5.72,0,0,0-4.69,2A8.62,8.62,0,0,0,430.18,95.61Z"/><path class="cls-7" d="M449.11,104.92V86.36h2.16V103h8.19v2Z"/><path class="cls-7" d="M477.42,95.46q0,4.61-2.5,7t-7.17,2.43H462.6V86.36h5.69a8.33,8.33,0,0,1,9.13,9.1Zm-2.29.08a7.43,7.43,0,0,0-1.82-5.47,7.28,7.28,0,0,0-5.41-1.84h-3.14v14.82h2.63c2.57,0,4.51-.63,5.8-1.89A7.51,7.51,0,0,0,475.13,95.54Z"/><path class="cls-6" d="M445.06,166.17h-2.13l-3.75-12.42c-.18-.55-.38-1.25-.6-2.09a11.86,11.86,0,0,1-.34-1.51,28.89,28.89,0,0,1-.89,3.67l-3.63,12.35h-2.13l-4.94-18.56h2.29l2.93,11.47c.4,1.61.7,3.06.89,4.37a31.53,31.53,0,0,1,1-4.55l3.33-11.29h2.28l3.5,11.39a35.54,35.54,0,0,1,1,4.45,37.65,37.65,0,0,1,.92-4.4l2.92-11.44H450Z"/><path class="cls-6" d="M464.6,166.17l-2.31-5.9h-7.44l-2.29,5.9h-2.18l7.34-18.63h1.81l7.3,18.63Zm-3-7.84-2.15-5.75c-.28-.73-.57-1.62-.87-2.68a22.77,22.77,0,0,1-.8,2.68l-2.18,5.75Z"/></g></g></svg>