<svg xmlns="http://www.w3.org/2000/svg" width="196.89" height="223" viewBox="0 0 196.89 223">
  <g id="Group_4742" data-name="Group 4742" transform="translate(-658 -3466)">
    <rect id="Rectangle_808" data-name="Rectangle 808" width="196.74" height="223" transform="translate(658 3466)" fill="none"/>
    <g id="Group_4740" data-name="Group 4740" transform="translate(2433 2400.816)">
      <g id="Group_4213" data-name="Group 4213">
        <g id="Group_4212" data-name="Group 4212">
          <path id="Path_3917" data-name="Path 3917" d="M-1676.481,1176.555l98.132-6.862c.151,2.168.239,4.689.239,6.862Z" fill="#ffd964"/>
        </g>
      </g>
      <g id="Group_4214" data-name="Group 4214">
        <path id="Path_3918" data-name="Path 3918" d="M-1676.481,1176.555l70.762-68.335a95.371,95.371,0,0,1,27.37,61.473Z" fill="#ffd964"/>
      </g>
      <path id="Path_3919" data-name="Path 3919" d="M-1676.481,1176.555h98.371a98.371,98.371,0,0,1-98.371,98.371,98.371,98.371,0,0,1-98.371-98.371,98.371,98.371,0,0,1,98.371-98.371c28.251,0,51.138,9.714,70.762,30.036Z" fill="#4569a0"/>
      <circle id="Ellipse_36" data-name="Ellipse 36" cx="67.071" cy="67.071" r="67.071" transform="translate(-1743.552 1109.484)" fill="#fff"/>
      <text id="_88_" data-name="88%" transform="translate(-1727.184 1122.473)" fill="#4569a0" font-size="48" font-family="OpenSans-Bold, Open Sans" font-weight="700"><tspan x="1.684" y="51">88%</tspan></text>
      <text id="of_participants_found_the_task_easy" data-name="of participants 
found the 
task easy" transform="translate(-1740.984 1178.417)" fill="#333" font-size="12" font-family="OpenSans, Open Sans"><tspan x="24.138" y="13">of participants </tspan><tspan x="37.078" y="28">found the </tspan><tspan x="38.889" y="43">task easy</tspan></text>
    </g>
  </g>
</svg>
