<?xml version="1.0" encoding="utf-8"?>
<!-- Generator: Adobe Illustrator 24.2.0, SVG Export Plug-In . SVG Version: 6.00 Build 0)  -->
<svg version="1.1" id="Layer_1" xmlns="http://www.w3.org/2000/svg" xmlns:xlink="http://www.w3.org/1999/xlink" x="0px" y="0px"
	 viewBox="0 0 333.6 209.9" style="enable-background:new 0 0 333.6 209.9;" xml:space="preserve">
<style type="text/css">
	.st0{fill:#239546;}
	.st1{fill:none;stroke:#333333;stroke-width:0.75;stroke-linejoin:round;}
	.st2{fill:none;stroke:#FFFFFF;stroke-width:0.75;stroke-linejoin:round;}
	.st3{fill:#A7D5B5;}
	.st4{fill:none;stroke:#333333;stroke-width:0.5;stroke-linecap:square;}
	.st5{fill:none;stroke:#EBEBEB;stroke-miterlimit:10;}
	.st6{enable-background:new    ;}
	.st7{fill:#333333;}
</style>
<g id="Group_4758" transform="translate(-266.941 -3471.063)">
	<g id="Group_4195" transform="translate(465.519 3625.529)">
		<path id="Path_3897" class="st0" d="M0,34h46.6V0H0V34z"/>
	</g>
	<path id="Path_3898" class="st1" d="M488.8,3625.5v-11.2"/>
	<path id="Path_3899" class="st2" d="M488.8,3636.7v-11.3"/>
	<g id="Group_4197" transform="translate(380.065 3502.826)">
		<path id="Path_3900" class="st3" d="M0,156.7h46.6V0H0V156.7z"/>
	</g>
	<path id="Path_3901" class="st1" d="M403.4,3515.8v-26"/>
	<g id="Group_4199" transform="translate(328.133 3526.646)">
		<path id="Path_3902" class="st0" d="M0,132.9h46.6V0H0V132.9z"/>
	</g>
	<g id="Group_4200" transform="translate(351.446 3515.437)">
		<path id="Path_3903" class="st1" d="M0,11.2V0"/>
		<path id="Path_3904" class="st2" d="M0,22.4V11.2"/>
	</g>
	<path id="Path_3905" class="st1" d="M409.8,3489.8h-13.3"/>
	<path id="Path_3906" class="st1" d="M409.8,3516.3h-13.3"/>
	<path id="Path_3907" class="st1" d="M547,3636.4h-13.3"/>
	<path id="Path_3908" class="st2" d="M358.3,3537.6H345"/>
	<path id="Path_3909" class="st1" d="M358.3,3515.1H345"/>
	<path id="Path_3910" class="st1" d="M495.5,3614.3h-13.3"/>
	<path id="Path_3911" class="st2" d="M495.5,3636.7h-13.3"/>
	<path id="Path_3912" class="st4" d="M292.2,3659.9h306.7"/>
	<g id="Group_4209" transform="translate(516.732 3649.348)">
		<path id="Path_3913" class="st3" d="M0,10.2h46.6V0H0V10.2z"/>
	</g>
	<path id="Path_3914" class="st1" d="M540,3659.9v-23.6"/>
	<rect id="Rectangle_428" x="496" y="3486.1" class="st5" width="104" height="55.8"/>
	<path id="Path_3915" class="st3" d="M508.6,3533.4h26.6v-16.1h-26.6V3533.4z"/>
	<path id="Path_3916" class="st0" d="M508.6,3509.9h26.6v-16.1h-26.6V3509.9z"/>
	<g class="st6">
		<path class="st7" d="M359,3675.8c0,0.7-0.3,1.2-0.8,1.6c-0.5,0.4-1.2,0.6-2.1,0.6s-1.6-0.1-2.2-0.4v-1.2c0.4,0.2,0.7,0.3,1.1,0.4
			c0.4,0.1,0.8,0.1,1.1,0.1c0.5,0,0.9-0.1,1.1-0.3c0.2-0.2,0.4-0.5,0.4-0.8c0-0.3-0.1-0.5-0.3-0.7s-0.7-0.4-1.4-0.7
			c-0.7-0.3-1.2-0.6-1.5-1s-0.4-0.8-0.4-1.3c0-0.7,0.2-1.2,0.7-1.5s1.1-0.6,1.9-0.6c0.8,0,1.5,0.2,2.2,0.5l-0.4,1
			c-0.7-0.3-1.3-0.4-1.9-0.4c-0.4,0-0.7,0.1-0.9,0.3s-0.3,0.4-0.3,0.7c0,0.2,0,0.4,0.1,0.5c0.1,0.1,0.2,0.3,0.4,0.4s0.6,0.3,1.1,0.5
			c0.6,0.2,1,0.5,1.3,0.7s0.5,0.4,0.6,0.7C358.9,3675.2,359,3675.5,359,3675.8z"/>
		<path class="st7" d="M364.6,3678l-0.2-0.8h-0.1c-0.2,0.3-0.4,0.5-0.7,0.7c-0.3,0.2-0.7,0.2-1.1,0.2c-0.7,0-1.3-0.2-1.6-0.5
			s-0.5-0.9-0.5-1.6v-3.9h1.3v3.7c0,0.5,0.1,0.8,0.3,1s0.5,0.3,0.9,0.3c0.5,0,0.9-0.2,1.2-0.5c0.2-0.3,0.4-0.8,0.4-1.6v-3h1.3v5.9
			H364.6z"/>
		<path class="st7" d="M369.8,3678.1c-0.9,0-1.6-0.3-2-0.8c-0.5-0.5-0.7-1.3-0.7-2.3c0-1,0.2-1.8,0.7-2.3c0.5-0.5,1.2-0.8,2.1-0.8
			c0.6,0,1.2,0.1,1.7,0.3l-0.4,1c-0.5-0.2-1-0.3-1.3-0.3c-1,0-1.5,0.7-1.5,2c0,0.7,0.1,1.2,0.4,1.5c0.3,0.3,0.6,0.5,1.1,0.5
			c0.6,0,1.1-0.1,1.6-0.4v1.1c-0.2,0.1-0.5,0.2-0.7,0.3C370.4,3678,370.1,3678.1,369.8,3678.1z"/>
		<path class="st7" d="M375.2,3678.1c-0.9,0-1.6-0.3-2-0.8c-0.5-0.5-0.7-1.3-0.7-2.3c0-1,0.2-1.8,0.7-2.3c0.5-0.5,1.2-0.8,2.1-0.8
			c0.6,0,1.2,0.1,1.7,0.3l-0.4,1c-0.5-0.2-1-0.3-1.3-0.3c-1,0-1.5,0.7-1.5,2c0,0.7,0.1,1.2,0.4,1.5c0.3,0.3,0.6,0.5,1.1,0.5
			c0.6,0,1.1-0.1,1.6-0.4v1.1c-0.2,0.1-0.5,0.2-0.7,0.3C375.9,3678,375.6,3678.1,375.2,3678.1z"/>
		<path class="st7" d="M380.9,3678.1c-0.9,0-1.6-0.3-2.2-0.8c-0.5-0.5-0.8-1.3-0.8-2.2c0-1,0.2-1.7,0.7-2.3c0.5-0.6,1.1-0.8,2-0.8
			c0.8,0,1.4,0.2,1.9,0.7c0.5,0.5,0.7,1.1,0.7,2v0.7h-4c0,0.6,0.2,1,0.5,1.3s0.7,0.5,1.2,0.5c0.4,0,0.7,0,1-0.1
			c0.3-0.1,0.6-0.2,1-0.3v1c-0.3,0.1-0.6,0.2-0.9,0.3C381.6,3678,381.3,3678.1,380.9,3678.1z M380.6,3672.9c-0.4,0-0.7,0.1-1,0.4
			c-0.2,0.3-0.4,0.6-0.4,1.1h2.7c0-0.5-0.1-0.9-0.4-1.1C381.3,3673,381,3672.9,380.6,3672.9z"/>
		<path class="st7" d="M388.6,3676.3c0,0.6-0.2,1-0.6,1.3s-1,0.5-1.8,0.5c-0.8,0-1.4-0.1-1.9-0.4v-1.1c0.7,0.3,1.3,0.5,1.9,0.5
			c0.8,0,1.2-0.2,1.2-0.7c0-0.2,0-0.3-0.1-0.4c-0.1-0.1-0.2-0.2-0.4-0.3s-0.5-0.2-0.8-0.4c-0.7-0.3-1.1-0.5-1.4-0.8
			c-0.2-0.3-0.4-0.6-0.4-1c0-0.5,0.2-0.9,0.6-1.2c0.4-0.3,1-0.4,1.7-0.4c0.7,0,1.4,0.1,2,0.4l-0.4,1c-0.6-0.3-1.2-0.4-1.6-0.4
			c-0.7,0-1,0.2-1,0.6c0,0.2,0.1,0.3,0.3,0.5c0.2,0.1,0.6,0.3,1.1,0.5c0.5,0.2,0.8,0.4,1.1,0.5s0.4,0.3,0.5,0.5
			S388.6,3676,388.6,3676.3z"/>
		<path class="st7" d="M394,3676.3c0,0.6-0.2,1-0.6,1.3s-1,0.5-1.8,0.5c-0.8,0-1.4-0.1-1.9-0.4v-1.1c0.7,0.3,1.3,0.5,1.9,0.5
			c0.8,0,1.2-0.2,1.2-0.7c0-0.2,0-0.3-0.1-0.4c-0.1-0.1-0.2-0.2-0.4-0.3s-0.5-0.2-0.8-0.4c-0.7-0.3-1.1-0.5-1.4-0.8
			c-0.2-0.3-0.4-0.6-0.4-1c0-0.5,0.2-0.9,0.6-1.2c0.4-0.3,1-0.4,1.7-0.4c0.7,0,1.4,0.1,2,0.4l-0.4,1c-0.6-0.3-1.2-0.4-1.6-0.4
			c-0.7,0-1,0.2-1,0.6c0,0.2,0.1,0.3,0.3,0.5c0.2,0.1,0.6,0.3,1.1,0.5c0.5,0.2,0.8,0.4,1.1,0.5s0.4,0.3,0.5,0.5S394,3676,394,3676.3
			z"/>
	</g>
	<g class="st6">
		<path class="st7" d="M271.6,3615.2c0.3,0,0.7,0,1,0.1c0.4,0.1,0.7,0.2,1,0.4c0.3,0.1,0.5,0.3,0.6,0.5s0.2,0.4,0.2,0.7
			c0,0.3-0.1,0.6-0.3,0.7c-0.2,0.2-0.5,0.3-1,0.3c-0.5,0-1-0.1-1.4-0.2c-0.4-0.1-0.8-0.3-1-0.6c-0.2-0.3-0.3-0.5-0.3-0.9
			c0-0.3,0.1-0.6,0.3-0.8S271.3,3615.2,271.6,3615.2z M270.5,3612.2l6.4,4.8v0.7l-6.4-4.8V3612.2z M271,3616.3
			c0,0.2,0.1,0.4,0.3,0.5c0.2,0.2,0.5,0.3,0.8,0.4c0.4,0.1,0.7,0.1,1.1,0.1c0.5,0,0.8-0.2,0.8-0.5c0-0.2-0.1-0.3-0.2-0.4
			c-0.1-0.1-0.3-0.2-0.5-0.3c-0.2-0.1-0.5-0.2-0.8-0.2c-0.3-0.1-0.5-0.1-0.8-0.1C271.2,3615.8,271,3615.9,271,3616.3z M274.2,3611.9
			c0.3,0,0.7,0,1,0.1c0.4,0.1,0.7,0.2,1,0.4c0.3,0.1,0.5,0.3,0.6,0.5c0.1,0.2,0.2,0.4,0.2,0.7c0,0.3-0.1,0.6-0.3,0.8
			c-0.2,0.2-0.5,0.3-1,0.3c-0.5,0-1-0.1-1.4-0.2c-0.4-0.1-0.8-0.3-1-0.6s-0.3-0.5-0.3-0.9c0-0.3,0.1-0.6,0.3-0.8
			C273.5,3612,273.8,3611.9,274.2,3611.9z M273.5,3613c0,0.2,0.1,0.4,0.3,0.5c0.2,0.2,0.5,0.3,0.8,0.4c0.4,0.1,0.7,0.1,1.1,0.1
			c0.5,0,0.8-0.2,0.8-0.5c0-0.2-0.1-0.4-0.3-0.5c-0.2-0.2-0.5-0.3-0.9-0.4c-0.4-0.1-0.7-0.2-1-0.2
			C273.8,3612.5,273.5,3612.7,273.5,3613z"/>
		<path class="st7" d="M272.1,3606.3c0-0.6,0.2-1,0.5-1.3c0.3-0.3,0.8-0.5,1.4-0.5c0.6,0,1.1,0.1,1.6,0.3s0.9,0.5,1.1,0.9
			c0.3,0.4,0.4,0.8,0.4,1.2c0,0.6-0.2,1-0.5,1.3c-0.3,0.3-0.8,0.5-1.4,0.5c-0.6,0-1.1-0.1-1.6-0.3c-0.5-0.2-0.9-0.5-1.1-0.9
			C272.2,3607.2,272.1,3606.8,272.1,3606.3z M273.8,3605.3c-0.3,0-0.6,0.1-0.8,0.3c-0.2,0.2-0.3,0.4-0.3,0.7c0,0.3,0.1,0.6,0.3,0.9
			c0.2,0.3,0.5,0.5,0.9,0.6c0.4,0.1,0.8,0.2,1.3,0.2c0.4,0,0.7-0.1,0.9-0.3c0.2-0.2,0.3-0.5,0.3-0.8c0-0.3-0.1-0.6-0.3-0.8
			c-0.2-0.2-0.5-0.4-0.9-0.6C274.8,3605.4,274.3,3605.3,273.8,3605.3z"/>
		<path class="st7" d="M279.1,3604.6c0,0.2,0,0.4-0.1,0.5h-0.6c0.1-0.2,0.1-0.4,0.1-0.5c0-0.2-0.1-0.4-0.3-0.5
			c-0.2-0.1-0.4-0.2-0.8-0.3l-4.8-1v0.8l-0.3-0.1l-0.3-0.9l-0.4-0.1c-0.6-0.1-1-0.3-1.2-0.6c-0.2-0.2-0.4-0.6-0.4-1.1
			c0-0.1,0-0.3,0.1-0.4c0-0.2,0.1-0.3,0.1-0.4l0.6,0.2c-0.1,0.2-0.1,0.4-0.1,0.6c0,0.3,0.1,0.5,0.2,0.6c0.1,0.1,0.4,0.2,0.8,0.3
			l0.5,0.1v-1l0.6,0.1v1l4.8,1c0.6,0.1,1,0.3,1.2,0.5C279,3603.9,279.1,3604.2,279.1,3604.6z"/>
		<path class="st7" d="M277,3596.6c0,0.3-0.1,0.5-0.2,0.7c-0.1,0.2-0.4,0.4-0.6,0.5v0l0.2,0c0.1,0,0.2,0,0.3,0
			c0.1,0,0.9,0.2,2.4,0.5v0.7l-7-1.5v-0.6l0.9,0.1v0c-0.7-0.5-1-1.1-1-1.6c0-0.4,0.1-0.7,0.4-0.9c0.3-0.2,0.7-0.3,1.2-0.3
			c0.6,0,1.2,0.1,1.7,0.3s0.9,0.5,1.2,0.8C276.9,3595.7,277,3596.1,277,3596.6z M272.7,3595.8c0,0.3,0.1,0.6,0.4,0.9
			c0.3,0.3,0.6,0.5,1.1,0.7c0.4,0.2,0.9,0.3,1.3,0.3c0.3,0,0.6-0.1,0.7-0.2c0.2-0.2,0.3-0.4,0.3-0.7c0-0.3-0.1-0.6-0.4-0.8
			c-0.2-0.2-0.6-0.5-1-0.6c-0.4-0.2-0.9-0.2-1.4-0.2C273,3595,272.7,3595.2,272.7,3595.8z"/>
		<path class="st7" d="M272,3591c0-0.3,0.1-0.5,0.2-0.7c0.1-0.2,0.4-0.4,0.6-0.5v0l-0.8-0.3v-0.6l4.8,1v0.6l-0.9-0.1v0
			c0.7,0.5,1,1.1,1,1.7c0,0.4-0.1,0.7-0.4,1c-0.3,0.2-0.7,0.3-1.2,0.3c-0.6,0-1.2-0.1-1.7-0.3c-0.5-0.2-0.9-0.5-1.2-0.9
			C272.2,3591.8,272,3591.4,272,3591z M276.4,3591.8c0-0.3-0.1-0.6-0.4-0.8c-0.3-0.3-0.6-0.5-1.1-0.7c-0.4-0.2-0.9-0.3-1.3-0.3
			c-0.3,0-0.5,0.1-0.7,0.2s-0.3,0.4-0.3,0.6c0,0.3,0.1,0.6,0.4,0.9c0.3,0.3,0.6,0.5,1,0.6c0.4,0.1,0.9,0.2,1.4,0.2
			c0.3,0,0.6-0.1,0.7-0.2C276.3,3592.2,276.4,3592.1,276.4,3591.8z"/>
		<path class="st7" d="M272,3585.4c0-0.2,0-0.4,0.1-0.5l0.7,0.2c0,0.2-0.1,0.3-0.1,0.5c0,0.3,0.1,0.5,0.3,0.8
			c0.2,0.2,0.4,0.4,0.7,0.6c0.3,0.2,0.7,0.3,1,0.4l2.2,0.5v0.7l-4.8-1v-0.6l0.9,0.1v0c-0.3-0.2-0.5-0.4-0.6-0.5
			c-0.1-0.1-0.2-0.3-0.3-0.4C272.1,3585.7,272,3585.6,272,3585.4z"/>
		<path class="st7" d="M276.4,3583.4c0-0.2,0-0.4-0.1-0.6h0.6c0,0.1,0.1,0.2,0.1,0.4s0,0.3,0,0.4c0,0.4-0.1,0.6-0.3,0.8
			c-0.2,0.2-0.4,0.3-0.8,0.3c-0.2,0-0.4,0-0.7-0.1l-2.6-0.6v0.8l-0.3-0.1l-0.3-0.8l-1-0.5v-0.4l1.1,0.2v-1.2l0.6,0.1v1.2l2.7,0.6
			c0.3,0.1,0.4,0.1,0.6,0.1c0.2,0,0.3,0,0.4-0.1S276.4,3583.5,276.4,3583.4z"/>
		<path class="st7" d="M270.9,3580.7c-0.2,0-0.3,0-0.4-0.1c-0.1-0.1-0.2-0.2-0.2-0.4c0-0.3,0.1-0.4,0.4-0.4c0.2,0,0.3,0,0.4,0.1
			c0.1,0.1,0.2,0.2,0.2,0.3c0,0.1,0,0.2-0.1,0.3C271.1,3580.7,271,3580.7,270.9,3580.7z M276.9,3581.2v0.7l-4.8-1v-0.7L276.9,3581.2
			z"/>
		<path class="st7" d="M277,3577.7c0,0.6-0.2,1-0.5,1.3c-0.3,0.3-0.8,0.5-1.3,0.5c-0.6,0-1.1-0.1-1.6-0.3s-0.9-0.5-1.2-0.9
			c-0.3-0.4-0.4-0.8-0.4-1.3c0-0.4,0.1-0.8,0.2-1.2l0.6,0.2c-0.1,0.4-0.2,0.7-0.2,1c0,0.3,0.1,0.6,0.3,0.9c0.2,0.3,0.5,0.5,0.9,0.6
			c0.4,0.2,0.8,0.2,1.3,0.2c0.4,0,0.7-0.1,0.9-0.3s0.3-0.5,0.3-0.8c0-0.2,0-0.4-0.1-0.6c-0.1-0.2-0.1-0.4-0.2-0.6h0.6
			C276.9,3576.9,277,3577.3,277,3577.7z"/>
		<path class="st7" d="M270.9,3574.4c-0.2,0-0.3,0-0.4-0.1c-0.1-0.1-0.2-0.2-0.2-0.4c0-0.3,0.1-0.4,0.4-0.4c0.2,0,0.3,0,0.4,0.1
			c0.1,0.1,0.2,0.2,0.2,0.3c0,0.1,0,0.2-0.1,0.3C271.1,3574.3,271,3574.4,270.9,3574.4z M276.9,3574.9v0.7l-4.8-1v-0.7L276.9,3574.9
			z"/>
		<path class="st7" d="M277,3571.2c0,0.3-0.1,0.5-0.2,0.7s-0.4,0.4-0.6,0.5v0l0.2,0c0.1,0,0.2,0,0.3,0c0.1,0,0.9,0.2,2.4,0.5v0.7
			l-7-1.5v-0.6l0.9,0.1v0c-0.7-0.5-1-1.1-1-1.6c0-0.4,0.1-0.7,0.4-0.9c0.3-0.2,0.7-0.3,1.2-0.3c0.6,0,1.2,0.1,1.7,0.3
			s0.9,0.5,1.2,0.8C276.9,3570.3,277,3570.7,277,3571.2z M272.7,3570.4c0,0.3,0.1,0.6,0.4,0.9c0.3,0.3,0.6,0.5,1.1,0.7
			c0.4,0.2,0.9,0.3,1.3,0.3c0.3,0,0.6-0.1,0.7-0.2c0.2-0.2,0.3-0.4,0.3-0.7c0-0.3-0.1-0.6-0.4-0.8c-0.2-0.2-0.6-0.5-1-0.6
			c-0.4-0.2-0.9-0.2-1.4-0.2C273,3569.6,272.7,3569.9,272.7,3570.4z"/>
		<path class="st7" d="M272,3565.6c0-0.3,0.1-0.5,0.2-0.7c0.1-0.2,0.4-0.4,0.6-0.5v0l-0.8-0.3v-0.6l4.8,1v0.6l-0.9-0.1v0
			c0.7,0.5,1,1.1,1,1.7c0,0.4-0.1,0.7-0.4,1c-0.3,0.2-0.7,0.3-1.2,0.3c-0.6,0-1.2-0.1-1.7-0.3s-0.9-0.5-1.2-0.9
			C272.2,3566.4,272,3566,272,3565.6z M276.4,3566.4c0-0.3-0.1-0.6-0.4-0.8c-0.3-0.3-0.6-0.5-1.1-0.7c-0.4-0.2-0.9-0.3-1.3-0.3
			c-0.3,0-0.5,0.1-0.7,0.2s-0.3,0.4-0.3,0.6c0,0.3,0.1,0.6,0.4,0.9c0.3,0.3,0.6,0.5,1,0.6s0.9,0.2,1.4,0.2c0.3,0,0.6-0.1,0.7-0.2
			C276.3,3566.9,276.4,3566.7,276.4,3566.4z"/>
		<path class="st7" d="M276.9,3560.1l-3-0.7c-0.3-0.1-0.5-0.1-0.6-0.1c-0.2,0-0.3,0.1-0.4,0.2c-0.1,0.1-0.2,0.3-0.2,0.5
			c0,0.3,0.1,0.5,0.3,0.8s0.4,0.5,0.8,0.7c0.3,0.2,0.7,0.3,1.2,0.4l2.1,0.4v0.7l-4.8-1v-0.6l0.9,0.1v0c-0.4-0.3-0.6-0.6-0.8-0.8
			c-0.1-0.3-0.2-0.5-0.2-0.8c0-0.4,0.1-0.7,0.3-0.9c0.2-0.2,0.5-0.3,0.9-0.3c0.2,0,0.5,0,0.8,0.1l3,0.6V3560.1z"/>
		<path class="st7" d="M276.4,3556.4c0-0.2,0-0.4-0.1-0.6h0.6c0,0.1,0.1,0.2,0.1,0.4s0,0.3,0,0.4c0,0.4-0.1,0.6-0.3,0.8
			c-0.2,0.2-0.4,0.3-0.8,0.3c-0.2,0-0.4,0-0.7-0.1l-2.6-0.6v0.8l-0.3-0.1l-0.3-0.8l-1-0.5v-0.4l1.1,0.2v-1.2l0.6,0.1v1.2l2.7,0.6
			c0.3,0.1,0.4,0.1,0.6,0.1c0.2,0,0.3,0,0.4-0.1S276.4,3556.5,276.4,3556.4z"/>
		<path class="st7" d="M275.6,3552c0.5,0,0.8,0.2,1.1,0.5c0.3,0.3,0.4,0.8,0.4,1.4c0,0.5-0.1,0.9-0.3,1.3H276
			c0.1-0.2,0.2-0.4,0.3-0.7s0.1-0.5,0.1-0.7c0-0.4-0.1-0.6-0.2-0.8s-0.3-0.3-0.6-0.3c-0.2,0-0.3,0.1-0.4,0.2
			c-0.1,0.1-0.3,0.3-0.5,0.7c-0.2,0.4-0.4,0.7-0.6,0.8c-0.2,0.2-0.4,0.2-0.7,0.2c-0.4,0-0.7-0.1-1-0.4c-0.2-0.3-0.4-0.7-0.4-1.2
			c0-0.5,0.1-1,0.3-1.5l0.6,0.2l-0.1,0.2c-0.1,0.3-0.2,0.6-0.2,1c0,0.3,0.1,0.5,0.2,0.6c0.1,0.2,0.3,0.2,0.5,0.2
			c0.2,0,0.3-0.1,0.4-0.2s0.3-0.3,0.5-0.6c0.2-0.3,0.3-0.5,0.5-0.7c0.1-0.1,0.3-0.2,0.4-0.3C275.2,3552,275.4,3552,275.6,3552z"/>
	</g>
	<g class="st6">
		<path class="st7" d="M548.1,3501.6c0,1.2-0.3,2.1-1,2.7c-0.6,0.6-1.6,0.9-2.8,0.9h-2v-7.1h2.2c1.1,0,2,0.3,2.6,0.9
			S548.1,3500.5,548.1,3501.6z M547.2,3501.6c0-0.9-0.2-1.6-0.7-2.1c-0.5-0.5-1.2-0.7-2.1-0.7h-1.2v5.7h1c1,0,1.7-0.2,2.2-0.7
			C547,3503.3,547.2,3502.5,547.2,3501.6z"/>
		<path class="st7" d="M551.9,3505.3c-0.8,0-1.4-0.2-1.9-0.7c-0.5-0.5-0.7-1.2-0.7-2c0-0.9,0.2-1.5,0.6-2.1s1-0.8,1.7-0.8
			c0.7,0,1.2,0.2,1.6,0.7c0.4,0.4,0.6,1,0.6,1.7v0.5h-3.7c0,0.6,0.2,1.1,0.5,1.4c0.3,0.3,0.7,0.5,1.3,0.5c0.6,0,1.1-0.1,1.7-0.4v0.7
			c-0.3,0.1-0.6,0.2-0.8,0.3C552.5,3505.3,552.2,3505.3,551.9,3505.3z M551.6,3500.4c-0.4,0-0.8,0.1-1,0.4c-0.3,0.3-0.4,0.7-0.5,1.2
			h2.8c0-0.5-0.1-0.9-0.3-1.2C552.4,3500.6,552.1,3500.4,551.6,3500.4z"/>
		<path class="st7" d="M558.7,3503.7c0,0.5-0.2,0.9-0.6,1.2s-0.9,0.4-1.6,0.4c-0.7,0-1.3-0.1-1.7-0.3v-0.8c0.3,0.1,0.5,0.2,0.8,0.3
			c0.3,0.1,0.6,0.1,0.9,0.1c0.4,0,0.7-0.1,1-0.2c0.2-0.1,0.3-0.3,0.3-0.6c0-0.2-0.1-0.4-0.3-0.5c-0.2-0.1-0.5-0.3-1.1-0.5
			c-0.5-0.2-0.9-0.3-1.1-0.5c-0.2-0.1-0.4-0.3-0.5-0.5s-0.2-0.4-0.2-0.6c0-0.4,0.2-0.8,0.5-1c0.4-0.3,0.8-0.4,1.5-0.4
			c0.6,0,1.1,0.1,1.7,0.4l-0.3,0.7c-0.5-0.2-1-0.3-1.5-0.3c-0.4,0-0.7,0.1-0.9,0.2s-0.3,0.3-0.3,0.5c0,0.1,0,0.3,0.1,0.4
			s0.2,0.2,0.4,0.3c0.2,0.1,0.5,0.2,0.9,0.4c0.6,0.2,1.1,0.5,1.3,0.7C558.5,3503.1,558.7,3503.4,558.7,3503.7z"/>
		<path class="st7" d="M560.8,3502.5c0.1-0.2,0.4-0.5,0.6-0.8l1.7-1.8h1l-2.2,2.3l2.3,3.1h-1l-1.9-2.5l-0.6,0.5v2H560v-7.6h0.8v4
			C560.8,3501.8,560.8,3502.1,560.8,3502.5L560.8,3502.5z"/>
		<path class="st7" d="M567,3504.6c0.1,0,0.3,0,0.4,0c0.1,0,0.2,0,0.3-0.1v0.6c-0.1,0-0.2,0.1-0.4,0.1c-0.2,0-0.3,0-0.5,0
			c-1,0-1.6-0.5-1.6-1.6v-3.2h-0.8v-0.4l0.8-0.3l0.3-1.1h0.5v1.2h1.6v0.6h-1.6v3.1c0,0.3,0.1,0.6,0.2,0.7
			C566.5,3504.5,566.7,3504.6,567,3504.6z"/>
		<path class="st7" d="M573.4,3502.5c0,0.9-0.2,1.6-0.7,2c-0.4,0.5-1,0.7-1.8,0.7c-0.5,0-0.9-0.1-1.3-0.3s-0.7-0.5-0.9-1
			c-0.2-0.4-0.3-0.9-0.3-1.5c0-0.9,0.2-1.6,0.7-2c0.4-0.5,1-0.7,1.8-0.7c0.7,0,1.3,0.2,1.8,0.7
			C573.2,3501,573.4,3501.7,573.4,3502.5z M569.3,3502.5c0,0.7,0.1,1.2,0.4,1.6s0.7,0.5,1.2,0.5c0.5,0,0.9-0.2,1.2-0.5
			c0.3-0.4,0.4-0.9,0.4-1.6c0-0.7-0.1-1.2-0.4-1.5c-0.3-0.4-0.7-0.5-1.2-0.5c-0.5,0-0.9,0.2-1.2,0.5
			C569.4,3501.3,569.3,3501.8,569.3,3502.5z"/>
		<path class="st7" d="M577.3,3505.3c-0.3,0-0.7-0.1-1-0.2c-0.3-0.1-0.5-0.3-0.7-0.6h-0.1c0,0.3,0.1,0.6,0.1,0.9v2.2h-0.8v-7.8h0.7
			l0.1,0.7h0c0.2-0.3,0.5-0.5,0.7-0.6c0.3-0.1,0.6-0.2,1-0.2c0.7,0,1.3,0.2,1.6,0.7s0.6,1.2,0.6,2c0,0.9-0.2,1.6-0.6,2
			C578.5,3505.1,578,3505.3,577.3,3505.3z M577.2,3500.4c-0.5,0-0.9,0.2-1.2,0.5s-0.4,0.8-0.4,1.4v0.2c0,0.8,0.1,1.3,0.4,1.6
			c0.3,0.3,0.7,0.5,1.2,0.5c0.5,0,0.8-0.2,1.1-0.6c0.3-0.4,0.4-0.9,0.4-1.5c0-0.7-0.1-1.2-0.4-1.5
			C578,3500.6,577.6,3500.4,577.2,3500.4z"/>
	</g>
	<g class="st6">
		<path class="st7" d="M545.6,3528.8l-2.4-6.3h0c0,0.5,0.1,1.1,0.1,1.8v4.5h-0.8v-7.1h1.2l2.3,5.9h0l2.3-5.9h1.2v7.1h-0.8v-4.6
			c0-0.5,0-1.1,0.1-1.7h0l-2.4,6.3H545.6z"/>
		<path class="st7" d="M556,3526.1c0,0.9-0.2,1.6-0.7,2c-0.4,0.5-1,0.7-1.8,0.7c-0.5,0-0.9-0.1-1.3-0.3s-0.7-0.5-0.9-1
			c-0.2-0.4-0.3-0.9-0.3-1.5c0-0.9,0.2-1.6,0.7-2c0.4-0.5,1-0.7,1.8-0.7c0.7,0,1.3,0.2,1.8,0.7C555.7,3524.6,556,3525.3,556,3526.1z
			 M551.9,3526.1c0,0.7,0.1,1.2,0.4,1.6s0.7,0.5,1.2,0.5c0.5,0,0.9-0.2,1.2-0.5c0.3-0.4,0.4-0.9,0.4-1.6c0-0.7-0.1-1.2-0.4-1.5
			c-0.3-0.4-0.7-0.5-1.2-0.5c-0.5,0-0.9,0.2-1.2,0.5C552,3524.9,551.9,3525.5,551.9,3526.1z"/>
		<path class="st7" d="M559.9,3523.4c0.7,0,1.2,0.2,1.6,0.7c0.4,0.5,0.6,1.2,0.6,2s-0.2,1.6-0.6,2c-0.4,0.5-0.9,0.7-1.6,0.7
			c-0.3,0-0.7-0.1-1-0.2c-0.3-0.1-0.5-0.3-0.7-0.6h-0.1l-0.2,0.7h-0.6v-7.6h0.8v1.8c0,0.4,0,0.8,0,1.1h0
			C558.6,3523.7,559.1,3523.4,559.9,3523.4z M559.7,3524.1c-0.6,0-1,0.2-1.2,0.5c-0.2,0.3-0.4,0.9-0.4,1.6s0.1,1.3,0.4,1.6
			c0.3,0.3,0.7,0.5,1.2,0.5c0.5,0,0.9-0.2,1.1-0.5c0.2-0.4,0.4-0.9,0.4-1.6c0-0.7-0.1-1.2-0.4-1.6S560.3,3524.1,559.7,3524.1z"/>
		<path class="st7" d="M563.4,3522c0-0.2,0-0.3,0.1-0.4c0.1-0.1,0.2-0.1,0.3-0.1c0.1,0,0.2,0,0.3,0.1c0.1,0.1,0.1,0.2,0.1,0.4
			s0,0.3-0.1,0.4c-0.1,0.1-0.2,0.1-0.3,0.1c-0.1,0-0.2,0-0.3-0.1C563.5,3522.3,563.4,3522.2,563.4,3522z M564.3,3528.8h-0.8v-5.4
			h0.8V3528.8z"/>
		<path class="st7" d="M566.8,3528.8H566v-7.6h0.8V3528.8z"/>
		<path class="st7" d="M570.8,3528.9c-0.8,0-1.4-0.2-1.9-0.7c-0.5-0.5-0.7-1.2-0.7-2c0-0.9,0.2-1.5,0.6-2.1s1-0.8,1.7-0.8
			c0.7,0,1.2,0.2,1.6,0.7c0.4,0.4,0.6,1,0.6,1.7v0.5h-3.7c0,0.6,0.2,1.1,0.5,1.4c0.3,0.3,0.7,0.5,1.3,0.5c0.6,0,1.1-0.1,1.7-0.4v0.7
			c-0.3,0.1-0.6,0.2-0.8,0.3C571.5,3528.9,571.2,3528.9,570.8,3528.9z M570.6,3524.1c-0.4,0-0.8,0.1-1,0.4c-0.3,0.3-0.4,0.7-0.5,1.2
			h2.8c0-0.5-0.1-0.9-0.3-1.2C571.4,3524.2,571,3524.1,570.6,3524.1z"/>
	</g>
	<g class="st6">
		<path class="st7" d="M515.1,3678h-1.3v-7.9h4.4v1.1h-3.2v2.5h3v1.1h-3V3678z"/>
		<path class="st7" d="M523.3,3678l-0.3-0.8h0c-0.3,0.4-0.6,0.6-0.9,0.7s-0.7,0.2-1.1,0.2c-0.6,0-1-0.2-1.4-0.5
			c-0.3-0.3-0.5-0.8-0.5-1.3c0-0.6,0.2-1.1,0.7-1.4c0.5-0.3,1.1-0.5,2.1-0.5l1,0v-0.3c0-0.4-0.1-0.7-0.3-0.9
			c-0.2-0.2-0.5-0.3-0.8-0.3c-0.3,0-0.6,0-0.9,0.1c-0.3,0.1-0.5,0.2-0.8,0.3l-0.4-0.9c0.3-0.2,0.7-0.3,1.1-0.4
			c0.4-0.1,0.7-0.1,1.1-0.1c0.8,0,1.3,0.2,1.7,0.5s0.6,0.8,0.6,1.6v4H523.3z M521.4,3677.1c0.5,0,0.8-0.1,1.1-0.4
			c0.3-0.3,0.4-0.6,0.4-1.1v-0.5l-0.8,0c-0.6,0-1,0.1-1.3,0.3c-0.3,0.2-0.4,0.4-0.4,0.8c0,0.3,0.1,0.5,0.2,0.6
			C520.8,3677,521.1,3677.1,521.4,3677.1z"/>
		<path class="st7" d="M525.9,3670.5c0-0.2,0.1-0.4,0.2-0.5c0.1-0.1,0.3-0.2,0.5-0.2c0.2,0,0.4,0.1,0.5,0.2c0.1,0.1,0.2,0.3,0.2,0.5
			c0,0.2-0.1,0.4-0.2,0.5c-0.1,0.1-0.3,0.2-0.5,0.2c-0.2,0-0.4-0.1-0.5-0.2C525.9,3670.8,525.9,3670.7,525.9,3670.5z M527.2,3678
			h-1.3v-5.9h1.3V3678z"/>
		<path class="st7" d="M530.3,3678H529v-8.4h1.3V3678z"/>
	</g>
	<g class="st6">
		<path class="st7" d="M342.9,3498.1c0.8,0,1.5,0.2,1.9,0.6s0.7,0.9,0.7,1.5c0,0.9-0.5,1.6-1.6,2.1c0.7,0.3,1.1,0.7,1.4,1.1
			s0.4,0.8,0.4,1.2c0,0.7-0.3,1.3-0.8,1.7s-1.2,0.6-2.1,0.6c-0.9,0-1.7-0.2-2.2-0.6s-0.8-1-0.8-1.7c0-0.5,0.1-0.9,0.4-1.3
			s0.7-0.7,1.3-1c-0.5-0.3-0.9-0.6-1.1-1s-0.3-0.7-0.3-1.2c0-0.6,0.2-1.1,0.7-1.5S342.1,3498.1,342.9,3498.1z M341.3,3504.5
			c0,0.4,0.1,0.7,0.4,0.9s0.7,0.3,1.2,0.3c0.5,0,0.9-0.1,1.2-0.3s0.4-0.5,0.4-0.9c0-0.3-0.1-0.6-0.4-0.9s-0.6-0.5-1.2-0.7l-0.2-0.1
			c-0.5,0.2-0.9,0.5-1.1,0.7S341.3,3504.2,341.3,3504.5z M342.9,3499.1c-0.4,0-0.7,0.1-0.9,0.3s-0.4,0.5-0.4,0.8
			c0,0.2,0,0.4,0.1,0.5s0.2,0.3,0.4,0.4s0.4,0.3,0.8,0.5c0.5-0.2,0.8-0.4,1-0.7s0.3-0.5,0.3-0.8c0-0.3-0.1-0.6-0.4-0.8
			S343.3,3499.1,342.9,3499.1z"/>
		<path class="st7" d="M352.7,3502.5c0,1.5-0.2,2.6-0.7,3.3s-1.2,1.1-2.2,1.1c-1,0-1.7-0.4-2.2-1.1s-0.7-1.8-0.7-3.3
			c0-1.5,0.2-2.6,0.7-3.3s1.2-1.1,2.2-1.1c1,0,1.7,0.4,2.2,1.1S352.7,3501,352.7,3502.5z M348.3,3502.5c0,1.2,0.1,2,0.4,2.5
			s0.6,0.8,1.2,0.8s0.9-0.3,1.2-0.8s0.4-1.3,0.4-2.5c0-1.1-0.1-2-0.4-2.5s-0.6-0.8-1.2-0.8s-0.9,0.3-1.2,0.8
			S348.3,3501.3,348.3,3502.5z"/>
		<path class="st7" d="M357.5,3500.7c0,0.9-0.2,1.6-0.5,2s-0.8,0.7-1.4,0.7c-0.6,0-1.1-0.2-1.4-0.7s-0.5-1.1-0.5-2
			c0-1.8,0.6-2.7,1.9-2.7c0.6,0,1.1,0.2,1.4,0.7S357.5,3499.9,357.5,3500.7z M354.8,3500.7c0,0.6,0.1,1,0.2,1.3s0.3,0.4,0.6,0.4
			c0.5,0,0.8-0.6,0.8-1.7s-0.3-1.7-0.8-1.7c-0.3,0-0.4,0.1-0.6,0.4S354.8,3500.2,354.8,3500.7z M361.3,3498.2l-4.8,8.6h-1.1l4.8-8.6
			H361.3z M363,3504.2c0,0.9-0.2,1.6-0.5,2s-0.8,0.7-1.4,0.7c-0.6,0-1.1-0.2-1.4-0.7s-0.5-1.1-0.5-2c0-1.8,0.6-2.7,1.9-2.7
			c0.6,0,1.1,0.2,1.4,0.7S363,3503.3,363,3504.2z M360.4,3504.2c0,0.6,0.1,1,0.2,1.3s0.3,0.4,0.6,0.4c0.5,0,0.8-0.6,0.8-1.7
			c0-1.1-0.3-1.7-0.8-1.7c-0.3,0-0.4,0.1-0.6,0.4S360.4,3503.6,360.4,3504.2z"/>
	</g>
	<g class="st6">
		<path class="st7" d="M397.5,3479.2c0,1.7-0.3,2.9-1,3.8s-1.7,1.2-3.1,1.2c-0.5,0-0.9,0-1.1-0.1v-1.2c0.3,0.1,0.7,0.1,1,0.1
			c0.9,0,1.6-0.2,2.1-0.8s0.7-1.3,0.8-2.4h-0.1c-0.2,0.4-0.5,0.6-0.8,0.8s-0.7,0.2-1.1,0.2c-0.8,0-1.4-0.2-1.8-0.7s-0.7-1.1-0.7-1.9
			c0-0.9,0.3-1.6,0.8-2.1s1.2-0.8,2.1-0.8c0.6,0,1.1,0.1,1.6,0.4s0.8,0.7,1,1.3S397.5,3478.4,397.5,3479.2z M394.5,3476.5
			c-0.5,0-0.8,0.2-1.1,0.5s-0.4,0.7-0.4,1.3c0,0.5,0.1,0.9,0.4,1.2s0.6,0.4,1.1,0.4c0.5,0,0.9-0.1,1.2-0.4s0.5-0.6,0.5-1
			c0-0.3-0.1-0.7-0.2-1s-0.3-0.5-0.6-0.7S394.8,3476.5,394.5,3476.5z"/>
		<path class="st7" d="M404.7,3482.2h-1.2v1.9h-1.3v-1.9h-3.9v-1.1l3.9-5.7h1.3v5.6h1.2V3482.2z M402.2,3481.1v-2.2
			c0-0.8,0-1.4,0.1-1.9h0c-0.1,0.3-0.3,0.6-0.5,0.9l-2.1,3.1H402.2z"/>
		<path class="st7" d="M409.2,3478.1c0,0.9-0.2,1.6-0.5,2s-0.8,0.7-1.4,0.7c-0.6,0-1.1-0.2-1.4-0.7s-0.5-1.1-0.5-2
			c0-1.8,0.6-2.7,1.9-2.7c0.6,0,1.1,0.2,1.4,0.7S409.2,3477.2,409.2,3478.1z M406.5,3478.1c0,0.6,0.1,1,0.2,1.3s0.3,0.4,0.6,0.4
			c0.5,0,0.8-0.6,0.8-1.7s-0.3-1.7-0.8-1.7c-0.3,0-0.4,0.1-0.6,0.4S406.5,3477.5,406.5,3478.1z M413,3475.5l-4.8,8.6h-1.1l4.8-8.6
			H413z M414.7,3481.5c0,0.9-0.2,1.6-0.5,2s-0.8,0.7-1.4,0.7c-0.6,0-1.1-0.2-1.4-0.7s-0.5-1.1-0.5-2c0-1.8,0.6-2.7,1.9-2.7
			c0.6,0,1.1,0.2,1.4,0.7S414.7,3480.6,414.7,3481.5z M412.1,3481.5c0,0.6,0.1,1,0.2,1.3s0.3,0.4,0.6,0.4c0.5,0,0.8-0.6,0.8-1.7
			c0-1.1-0.3-1.7-0.8-1.7c-0.3,0-0.4,0.1-0.6,0.4S412.1,3480.9,412.1,3481.5z"/>
	</g>
	<g class="st6">
		<path class="st7" d="M483.1,3606.9h-5.8v-1l2.2-2.2c0.7-0.7,1.1-1.1,1.3-1.4s0.4-0.5,0.5-0.8s0.1-0.5,0.1-0.8
			c0-0.4-0.1-0.7-0.3-0.9s-0.6-0.3-1-0.3c-0.3,0-0.6,0.1-1,0.2s-0.7,0.3-1.1,0.7l-0.7-0.9c0.5-0.4,0.9-0.7,1.4-0.9s0.9-0.3,1.4-0.3
			c0.8,0,1.4,0.2,1.9,0.6s0.7,1,0.7,1.7c0,0.4-0.1,0.8-0.2,1.1s-0.4,0.7-0.6,1.1s-0.8,0.9-1.4,1.5l-1.5,1.4v0.1h4.1V3606.9z"/>
		<path class="st7" d="M490,3602.6c0,1.5-0.2,2.6-0.7,3.3s-1.2,1.1-2.2,1.1c-1,0-1.7-0.4-2.2-1.1s-0.7-1.8-0.7-3.3
			c0-1.5,0.2-2.6,0.7-3.3s1.2-1.1,2.2-1.1c1,0,1.7,0.4,2.2,1.1S490,3601.2,490,3602.6z M485.6,3602.6c0,1.2,0.1,2,0.4,2.5
			s0.6,0.8,1.2,0.8s0.9-0.3,1.2-0.8s0.4-1.3,0.4-2.5c0-1.1-0.1-2-0.4-2.5s-0.6-0.8-1.2-0.8s-0.9,0.3-1.2,0.8
			S485.6,3601.5,485.6,3602.6z"/>
		<path class="st7" d="M494.8,3600.9c0,0.9-0.2,1.6-0.5,2s-0.8,0.7-1.4,0.7c-0.6,0-1.1-0.2-1.4-0.7s-0.5-1.1-0.5-2
			c0-1.8,0.6-2.7,1.9-2.7c0.6,0,1.1,0.2,1.4,0.7S494.8,3600,494.8,3600.9z M492.1,3600.9c0,0.6,0.1,1,0.2,1.3s0.3,0.4,0.6,0.4
			c0.5,0,0.8-0.6,0.8-1.7s-0.3-1.7-0.8-1.7c-0.3,0-0.4,0.1-0.6,0.4S492.1,3600.3,492.1,3600.9z M498.6,3598.4l-4.8,8.6h-1.1l4.8-8.6
			H498.6z M500.4,3604.3c0,0.9-0.2,1.6-0.5,2s-0.8,0.7-1.4,0.7c-0.6,0-1.1-0.2-1.4-0.7s-0.5-1.1-0.5-2c0-1.8,0.6-2.7,1.9-2.7
			c0.6,0,1.1,0.2,1.4,0.7S500.4,3603.5,500.4,3604.3z M497.7,3604.3c0,0.6,0.1,1,0.2,1.3s0.3,0.4,0.6,0.4c0.5,0,0.8-0.6,0.8-1.7
			c0-1.1-0.3-1.7-0.8-1.7c-0.3,0-0.4,0.1-0.6,0.4S497.7,3603.8,497.7,3604.3z"/>
	</g>
	<g class="st6">
		<path class="st7" d="M532.6,3627.8c0-3.4,1.4-5,4.1-5c0.4,0,0.8,0,1.1,0.1v1.1c-0.3-0.1-0.6-0.1-1-0.1c-0.9,0-1.6,0.2-2.1,0.7
			s-0.7,1.3-0.8,2.4h0.1c0.2-0.3,0.4-0.6,0.8-0.7s0.7-0.3,1.2-0.3c0.8,0,1.4,0.2,1.8,0.7s0.7,1.1,0.7,1.9c0,0.9-0.2,1.6-0.8,2.1
			s-1.2,0.8-2.1,0.8c-0.6,0-1.1-0.1-1.6-0.4s-0.8-0.7-1-1.3S532.6,3628.6,532.6,3627.8z M535.6,3630.5c0.5,0,0.8-0.2,1.1-0.5
			s0.4-0.7,0.4-1.3c0-0.5-0.1-0.9-0.4-1.2s-0.6-0.4-1.1-0.4c-0.3,0-0.6,0.1-0.8,0.2s-0.4,0.3-0.6,0.5s-0.2,0.4-0.2,0.7
			c0,0.6,0.2,1,0.4,1.4S535.2,3630.5,535.6,3630.5z"/>
		<path class="st7" d="M543.2,3625.5c0,0.9-0.2,1.6-0.5,2s-0.8,0.7-1.4,0.7c-0.6,0-1.1-0.2-1.4-0.7s-0.5-1.1-0.5-2
			c0-1.8,0.6-2.7,1.9-2.7c0.6,0,1.1,0.2,1.4,0.7S543.2,3624.6,543.2,3625.5z M540.6,3625.5c0,0.6,0.1,1,0.2,1.3s0.3,0.4,0.6,0.4
			c0.5,0,0.8-0.6,0.8-1.7s-0.3-1.7-0.8-1.7c-0.3,0-0.4,0.1-0.6,0.4S540.6,3624.9,540.6,3625.5z M547,3622.9l-4.8,8.6h-1.1l4.8-8.6
			H547z M548.8,3628.9c0,0.9-0.2,1.6-0.5,2s-0.8,0.7-1.4,0.7c-0.6,0-1.1-0.2-1.4-0.7s-0.5-1.1-0.5-2c0-1.8,0.6-2.7,1.9-2.7
			c0.6,0,1.1,0.2,1.4,0.7S548.8,3628,548.8,3628.9z M546.2,3628.9c0,0.6,0.1,1,0.2,1.3s0.3,0.4,0.6,0.4c0.5,0,0.8-0.6,0.8-1.7
			c0-1.1-0.3-1.7-0.8-1.7c-0.3,0-0.4,0.1-0.6,0.4S546.2,3628.3,546.2,3628.9z"/>
	</g>
</g>
</svg>
