<?xml version="1.0" encoding="utf-8"?>
<!-- Generator: Adobe Illustrator 24.2.0, SVG Export Plug-In . SVG Version: 6.00 Build 0)  -->
<svg version="1.1" id="Layer_1" xmlns="http://www.w3.org/2000/svg" xmlns:xlink="http://www.w3.org/1999/xlink" x="0px" y="0px"
	 viewBox="0 0 554.6 255.7" style="enable-background:new 0 0 554.6 255.7;" xml:space="preserve">
<style type="text/css">
	.st0{fill:#4569A0;}
	.st1{fill:#99ADCB;}
	.st2{fill:#D1DAE7;}
	.st3{fill:#FBE8B9;}
	.st4{fill:#FFD964;}
	.st5{enable-background:new    ;}
	.st6{fill:#FFFFFF;}
	.st7{fill:#333333;}
</style>
<g id="Group_4224" transform="translate(2485.039 -1954.436)">
	<rect id="Rectangle_456" x="-2485" y="1954.5" class="st0" width="277.3" height="255.7"/>
	<rect id="Rectangle_457" x="-2207.7" y="1954.5" class="st1" width="138.7" height="255.7"/>
	<rect id="Rectangle_458" x="-2069.1" y="1954.4" class="st2" width="138.7" height="63.9"/>
	<rect id="Rectangle_459" x="-2069.1" y="2018.8" class="st3" width="138.7" height="63.9"/>
	<rect id="Rectangle_460" x="-2069.1" y="2082.3" class="st4" width="138.7" height="127.9"/>
	<g class="st5">
		<path class="st6" d="M-2457.9,1991.8h-2.5l-10.1-15.6h-0.1c0.1,1.8,0.2,3.5,0.2,5v10.5h-2v-18.6h2.4l10.1,15.5h0.1
			c0-0.2-0.1-1-0.1-2.2c-0.1-1.2-0.1-2.1-0.1-2.7v-10.7h2V1991.8z"/>
		<path class="st6" d="M-2442.3,1986.9c0,1.6-0.6,2.9-1.8,3.8c-1.2,0.9-2.8,1.4-4.8,1.4c-2.2,0-3.9-0.3-5.1-0.9v-2.1
			c0.8,0.3,1.6,0.6,2.5,0.8c0.9,0.2,1.8,0.3,2.7,0.3c1.4,0,2.5-0.3,3.2-0.8c0.7-0.5,1.1-1.3,1.1-2.3c0-0.6-0.1-1.2-0.4-1.6
			c-0.3-0.4-0.7-0.8-1.3-1.1c-0.6-0.3-1.5-0.7-2.8-1.2c-1.7-0.6-3-1.3-3.7-2.2c-0.7-0.8-1.1-2-1.1-3.3c0-1.4,0.5-2.6,1.6-3.4
			c1.1-0.8,2.5-1.3,4.3-1.3c1.8,0,3.5,0.3,5.1,1l-0.7,1.9c-1.5-0.6-3-1-4.5-1c-1.1,0-2,0.2-2.7,0.7c-0.6,0.5-1,1.2-1,2
			c0,0.6,0.1,1.2,0.4,1.6c0.2,0.4,0.6,0.8,1.2,1.1c0.6,0.3,1.4,0.7,2.6,1.1c1.9,0.7,3.3,1.4,4,2.2
			C-2442.7,1984.6-2442.3,1985.6-2442.3,1986.9z"/>
		<path class="st6" d="M-2422.3,1991.8h-2.1l-3.7-12.4c-0.2-0.5-0.4-1.2-0.6-2.1c-0.2-0.8-0.3-1.3-0.3-1.5c-0.2,1.1-0.5,2.3-0.9,3.7
			l-3.6,12.4h-2.1l-4.9-18.6h2.3l2.9,11.5c0.4,1.6,0.7,3.1,0.9,4.4c0.2-1.5,0.6-3.1,1-4.5l3.3-11.3h2.3l3.5,11.4
			c0.4,1.3,0.7,2.8,1,4.4c0.2-1.2,0.5-2.7,0.9-4.4l2.9-11.4h2.3L-2422.3,1991.8z"/>
	</g>
	<g class="st5">
		<path class="st6" d="M-2351.7,2153.6c5.3,0,9.4,1.4,12.5,4.2s4.6,6.6,4.6,11.4c0,5.6-1.7,9.9-5.2,13c-3.5,3.1-8.4,4.7-14.8,4.7
			c-5.8,0-10.4-0.9-13.7-2.8v-7.6c1.9,1.1,4.1,1.9,6.6,2.5s4.8,0.9,7,0.9c3.8,0,6.7-0.8,8.6-2.5c2-1.7,3-4.2,3-7.4
			c0-6.2-4-9.3-11.9-9.3c-1.1,0-2.5,0.1-4.1,0.3c-1.6,0.2-3.1,0.5-4.3,0.8l-3.7-2.2l2-25.5h27.1v7.5h-19.7l-1.2,12.9
			c0.8-0.1,1.8-0.3,3-0.5S-2353.4,2153.6-2351.7,2153.6z"/>
		<path class="st6" d="M-2292.4,2156.3c0,10.3-2.1,17.9-6.2,23c-4.1,5.1-10.4,7.6-18.7,7.6c-3.2,0-5.4-0.2-6.8-0.6v-7
			c2.1,0.6,4.2,0.9,6.4,0.9c5.7,0,9.9-1.5,12.7-4.6c2.8-3,4.3-7.8,4.6-14.3h-0.4c-1.4,2.1-3.1,3.7-5.1,4.6c-2,1-4.3,1.4-7,1.4
			c-4.6,0-8.2-1.4-10.9-4.3s-4-6.8-4-11.8c0-5.4,1.5-9.8,4.6-13c3.1-3.2,7.2-4.8,12.5-4.8c3.7,0,6.9,0.9,9.7,2.7s4.9,4.4,6.4,7.9
			S-2292.4,2151.5-2292.4,2156.3z M-2310.6,2140.3c-2.9,0-5.1,0.9-6.7,2.8c-1.5,1.9-2.3,4.5-2.3,8c0,3,0.7,5.3,2.2,7
			c1.4,1.7,3.6,2.5,6.5,2.5c2.8,0,5.2-0.8,7.1-2.5c1.9-1.7,2.9-3.7,2.9-5.9c0-2.1-0.4-4.1-1.2-5.9c-0.8-1.8-2-3.3-3.4-4.4
			C-2307,2140.8-2308.7,2140.3-2310.6,2140.3z"/>
		<path class="st6" d="M-2263.3,2149.6c0,5.5-1,9.6-2.9,12.3c-2,2.7-4.9,4.1-8.7,4.1c-3.6,0-6.4-1.4-8.4-4.3c-2-2.8-3-6.9-3-12.2
			c0-10.9,3.8-16.3,11.4-16.3c3.7,0,6.6,1.4,8.6,4.2C-2264.3,2140.3-2263.3,2144.3-2263.3,2149.6z M-2279.3,2149.6
			c0,3.5,0.3,6.2,1,7.9c0.7,1.7,1.8,2.6,3.4,2.6c3.1,0,4.7-3.5,4.7-10.5c0-7-1.6-10.5-4.7-10.5c-1.6,0-2.7,0.9-3.4,2.6
			C-2279,2143.5-2279.3,2146.1-2279.3,2149.6z M-2239.9,2134l-28.9,52.1h-6.9l28.9-52.1H-2239.9z M-2229.3,2170.5
			c0,5.5-1,9.6-3,12.3c-2,2.7-4.8,4.1-8.6,4.1c-3.6,0-6.4-1.4-8.4-4.2c-2-2.8-3-6.9-3-12.2c0-10.9,3.8-16.3,11.4-16.3
			c3.7,0,6.5,1.4,8.5,4.2C-2230.3,2161.2-2229.3,2165.2-2229.3,2170.5z M-2245.4,2170.5c0,3.5,0.3,6.2,1.1,7.9s1.8,2.6,3.4,2.6
			c3.1,0,4.7-3.5,4.7-10.6c0-7-1.6-10.4-4.7-10.4c-1.6,0-2.7,0.9-3.4,2.6S-2245.4,2166.9-2245.4,2170.5z"/>
	</g>
	<g class="st5">
		<path class="st7" d="M-2151.4,2188.4h-23.2v-4.2l8.8-8.9c2.6-2.7,4.3-4.6,5.2-5.7s1.5-2.2,1.9-3.2s0.6-2,0.6-3.2
			c0-1.5-0.5-2.8-1.4-3.7s-2.2-1.3-3.9-1.3c-1.3,0-2.6,0.2-3.8,0.7s-2.6,1.4-4.3,2.6l-3-3.6c1.9-1.6,3.8-2.8,5.6-3.4s3.7-1,5.7-1
			c3.2,0,5.7,0.8,7.7,2.5s2.9,3.9,2.9,6.7c0,1.5-0.3,3-0.8,4.4s-1.4,2.8-2.6,4.3s-3.1,3.5-5.7,6l-6,5.8v0.2h16.3V2188.4z"/>
		<path class="st7" d="M-2131,2188.4h-5.5v-22.1c0-2.6,0.1-4.7,0.2-6.3c-0.4,0.4-0.8,0.8-1.3,1.2s-2.3,1.9-5.3,4.3l-2.8-3.5
			l10.1-7.9h4.6V2188.4z"/>
		<path class="st7" d="M-2104.8,2164.4c0,3.6-0.6,6.3-1.9,8.1s-3.2,2.7-5.7,2.7c-2.4,0-4.2-0.9-5.5-2.8s-2-4.5-2-8
			c0-7.1,2.5-10.7,7.5-10.7c2.5,0,4.3,0.9,5.7,2.8S-2104.8,2161-2104.8,2164.4z M-2115.4,2164.4c0,2.3,0.2,4.1,0.7,5.2
			s1.2,1.7,2.2,1.7c2.1,0,3.1-2.3,3.1-6.9s-1-6.9-3.1-6.9c-1,0-1.8,0.6-2.2,1.7S-2115.4,2162.1-2115.4,2164.4z M-2089.5,2154.2
			l-19,34.3h-4.5l19-34.3H-2089.5z M-2082.5,2178.1c0,3.6-0.6,6.3-1.9,8.1s-3.2,2.7-5.7,2.7c-2.4,0-4.2-0.9-5.5-2.8s-2-4.5-2-8
			c0-7.1,2.5-10.7,7.5-10.7c2.4,0,4.3,0.9,5.6,2.8S-2082.5,2174.7-2082.5,2178.1z M-2093.1,2178.1c0,2.3,0.2,4.1,0.7,5.2
			s1.2,1.7,2.2,1.7c2,0,3.1-2.3,3.1-7c0-4.6-1-6.9-3.1-6.9c-1,0-1.8,0.6-2.2,1.7S-2093.1,2175.8-2093.1,2178.1z"/>
	</g>
	<g class="st5">
		<path class="st7" d="M-1990.8,2188.4h-3.2v-12.9c0-1.5,0-2.8,0.1-3.7c-0.2,0.2-0.5,0.5-0.8,0.7c-0.3,0.3-1.3,1.1-3.1,2.5l-1.6-2
			l5.9-4.6h2.7V2188.4z"/>
		<path class="st7" d="M-1970.7,2178.4c0,3.5-0.6,6.1-1.7,7.7c-1.1,1.7-2.8,2.5-5.1,2.5c-2.2,0-3.9-0.9-5.1-2.6s-1.7-4.3-1.7-7.7
			c0-3.5,0.6-6.1,1.7-7.8c1.1-1.7,2.8-2.5,5.1-2.5c2.2,0,3.9,0.9,5.1,2.6S-1970.7,2175.1-1970.7,2178.4z M-1981,2178.4
			c0,2.7,0.3,4.7,0.8,5.8s1.5,1.8,2.7,1.8s2.1-0.6,2.7-1.8c0.6-1.2,0.9-3.1,0.9-5.8c0-2.7-0.3-4.6-0.9-5.8c-0.6-1.2-1.5-1.8-2.7-1.8
			s-2.1,0.6-2.7,1.8S-1981,2175.7-1981,2178.4z"/>
		<path class="st7" d="M-1959.5,2174.4c0,2.1-0.4,3.7-1.1,4.7s-1.9,1.6-3.3,1.6c-1.4,0-2.5-0.5-3.2-1.6c-0.8-1.1-1.1-2.6-1.1-4.7
			c0-4.2,1.5-6.2,4.4-6.2c1.4,0,2.5,0.5,3.3,1.6C-1959.9,2170.9-1959.5,2172.4-1959.5,2174.4z M-1965.7,2174.4c0,1.4,0.1,2.4,0.4,3
			c0.3,0.7,0.7,1,1.3,1c1.2,0,1.8-1.3,1.8-4s-0.6-4-1.8-4c-0.6,0-1,0.3-1.3,1C-1965.5,2172.1-1965.7,2173.1-1965.7,2174.4z
			 M-1950.5,2168.5l-11.1,20h-2.7l11.1-20H-1950.5z M-1946.5,2182.4c0,2.1-0.4,3.7-1.1,4.7c-0.8,1-1.9,1.6-3.3,1.6
			c-1.4,0-2.5-0.5-3.2-1.6s-1.1-2.6-1.1-4.7c0-4.2,1.5-6.2,4.4-6.2c1.4,0,2.5,0.5,3.3,1.6S-1946.5,2180.4-1946.5,2182.4z
			 M-1952.6,2182.4c0,1.4,0.1,2.4,0.4,3c0.3,0.7,0.7,1,1.3,1c1.2,0,1.8-1.4,1.8-4.1c0-2.7-0.6-4-1.8-4c-0.6,0-1,0.3-1.3,1
			C-1952.5,2180.1-1952.6,2181.1-1952.6,2182.4z"/>
	</g>
	<g class="st5">
		<path class="st7" d="M-1977.4,2048.6c2,0,3.6,0.5,4.8,1.6s1.8,2.5,1.8,4.4c0,2.1-0.7,3.8-2,5s-3.2,1.8-5.7,1.8
			c-2.2,0-4-0.4-5.3-1.1v-2.9c0.7,0.4,1.6,0.7,2.5,1s1.8,0.3,2.7,0.3c1.4,0,2.6-0.3,3.3-1s1.1-1.6,1.1-2.8c0-2.4-1.5-3.6-4.6-3.6
			c-0.4,0-1,0-1.6,0.1s-1.2,0.2-1.7,0.3l-1.4-0.8l0.8-9.8h10.4v2.9h-7.6l-0.5,4.9c0.3-0.1,0.7-0.1,1.2-0.2
			S-1978.1,2048.6-1977.4,2048.6z"/>
		<path class="st7" d="M-1959.5,2047.1c0,2.1-0.4,3.7-1.1,4.7s-1.9,1.6-3.3,1.6c-1.4,0-2.5-0.5-3.2-1.6s-1.1-2.6-1.1-4.7
			c0-4.2,1.5-6.2,4.4-6.2c1.4,0,2.5,0.5,3.3,1.6S-1959.5,2045-1959.5,2047.1z M-1965.7,2047.1c0,1.4,0.1,2.4,0.4,3s0.7,1,1.3,1
			c1.2,0,1.8-1.3,1.8-4c0-2.7-0.6-4-1.8-4c-0.6,0-1,0.3-1.3,1S-1965.7,2045.7-1965.7,2047.1z M-1950.5,2041.1l-11.1,20h-2.7l11.1-20
			H-1950.5z M-1946.5,2055.1c0,2.1-0.4,3.7-1.1,4.7s-1.9,1.6-3.3,1.6c-1.4,0-2.5-0.5-3.2-1.6s-1.1-2.6-1.1-4.7
			c0-4.2,1.5-6.2,4.4-6.2c1.4,0,2.5,0.5,3.3,1.6S-1946.5,2053.1-1946.5,2055.1z M-1952.6,2055.1c0,1.4,0.1,2.4,0.4,3s0.7,1,1.3,1
			c1.2,0,1.8-1.4,1.8-4.1c0-2.7-0.6-4-1.8-4c-0.6,0-1,0.3-1.3,1S-1952.6,2053.7-1952.6,2055.1z"/>
	</g>
	<g class="st5">
		<path class="st7" d="M-1977.4,1985c2,0,3.6,0.5,4.8,1.6s1.8,2.5,1.8,4.4c0,2.1-0.7,3.8-2,5s-3.2,1.8-5.7,1.8c-2.2,0-4-0.4-5.3-1.1
			v-2.9c0.7,0.4,1.6,0.7,2.5,1s1.8,0.3,2.7,0.3c1.4,0,2.6-0.3,3.3-1s1.1-1.6,1.1-2.8c0-2.4-1.5-3.6-4.6-3.6c-0.4,0-1,0-1.6,0.1
			s-1.2,0.2-1.7,0.3l-1.4-0.8l0.8-9.8h10.4v2.9h-7.6l-0.5,4.9c0.3-0.1,0.7-0.1,1.2-0.2S-1978.1,1985-1977.4,1985z"/>
		<path class="st7" d="M-1959.5,1983.5c0,2.1-0.4,3.7-1.1,4.7s-1.9,1.6-3.3,1.6c-1.4,0-2.5-0.5-3.2-1.6s-1.1-2.6-1.1-4.7
			c0-4.2,1.5-6.2,4.4-6.2c1.4,0,2.5,0.5,3.3,1.6S-1959.5,1981.5-1959.5,1983.5z M-1965.7,1983.5c0,1.4,0.1,2.4,0.4,3s0.7,1,1.3,1
			c1.2,0,1.8-1.3,1.8-4s-0.6-4-1.8-4c-0.6,0-1,0.3-1.3,1S-1965.7,1982.2-1965.7,1983.5z M-1950.5,1977.5l-11.1,20h-2.7l11.1-20
			H-1950.5z M-1946.5,1991.5c0,2.1-0.4,3.7-1.1,4.7s-1.9,1.6-3.3,1.6c-1.4,0-2.5-0.5-3.2-1.6s-1.1-2.6-1.1-4.7
			c0-4.2,1.5-6.2,4.4-6.2c1.4,0,2.5,0.5,3.3,1.6S-1946.5,1989.5-1946.5,1991.5z M-1952.6,1991.5c0,1.4,0.1,2.4,0.4,3s0.7,1,1.3,1
			c1.2,0,1.8-1.4,1.8-4.1c0-2.7-0.6-4-1.8-4c-0.6,0-1,0.3-1.3,1S-1952.6,1990.2-1952.6,1991.5z"/>
	</g>
	<g class="st5">
		<path class="st7" d="M-2182.6,1973.2h2.3l-6.7,18.6h-2.1l-6.7-18.6h2.3l4.3,12c0.5,1.4,0.9,2.7,1.2,4c0.3-1.4,0.7-2.7,1.2-4.1
			L-2182.6,1973.2z"/>
		<path class="st7" d="M-2177.7,1991.8v-18.6h2.2v18.6H-2177.7z"/>
		<path class="st7" d="M-2162.5,1974.9c-2,0-3.7,0.7-4.8,2c-1.2,1.4-1.8,3.2-1.8,5.6c0,2.4,0.6,4.3,1.7,5.6c1.1,1.3,2.8,2,4.9,2
			c1.3,0,2.8-0.2,4.4-0.7v1.9c-1.3,0.5-2.9,0.7-4.8,0.7c-2.7,0-4.8-0.8-6.3-2.5s-2.2-4-2.2-7.1c0-1.9,0.4-3.6,1.1-5
			c0.7-1.4,1.7-2.5,3.1-3.3c1.4-0.8,2.9-1.2,4.8-1.2c1.9,0,3.6,0.4,5.1,1.1l-0.9,1.9C-2159.7,1975.2-2161.1,1974.9-2162.5,1974.9z"
			/>
	</g>
	<g class="st5">
		<path class="st7" d="M-2044.5,1995.8l-2.3-5.9h-7.4l-2.3,5.9h-2.2l7.3-18.6h1.8l7.3,18.6H-2044.5z M-2047.5,1988l-2.2-5.8
			c-0.3-0.7-0.6-1.6-0.9-2.7c-0.2,0.8-0.5,1.7-0.8,2.7l-2.2,5.8H-2047.5z"/>
		<path class="st7" d="M-2031.8,1978.9c-2,0-3.7,0.7-4.8,2c-1.2,1.4-1.8,3.2-1.8,5.6c0,2.4,0.6,4.3,1.7,5.6c1.1,1.3,2.8,2,4.9,2
			c1.3,0,2.8-0.2,4.4-0.7v1.9c-1.3,0.5-2.9,0.7-4.8,0.7c-2.7,0-4.8-0.8-6.3-2.5s-2.2-4-2.2-7.1c0-1.9,0.4-3.6,1.1-5s1.7-2.5,3.1-3.3
			s2.9-1.2,4.8-1.2c1.9,0,3.6,0.4,5.1,1.1l-0.9,1.9C-2029,1979.2-2030.4,1978.9-2031.8,1978.9z"/>
		<path class="st7" d="M-2017.6,1995.8h-2.2v-16.6h-5.9v-1.9h13.9v1.9h-5.9V1995.8z"/>
	</g>
	<g class="st5">
		<path class="st7" d="M-2040.1,2050c0,2.4-0.5,4.4-1.4,5.9c-1,1.6-2.3,2.6-4.1,3.2l4.4,4.6h-3.1l-3.6-4.2l-0.7,0
			c-2.7,0-4.8-0.8-6.3-2.5c-1.5-1.7-2.2-4-2.2-7.1c0-3,0.7-5.4,2.2-7c1.5-1.7,3.6-2.5,6.3-2.5c2.7,0,4.7,0.8,6.2,2.5
			S-2040.1,2047.1-2040.1,2050z M-2054.9,2050c0,2.5,0.5,4.4,1.6,5.7c1.1,1.3,2.6,1.9,4.7,1.9c2.1,0,3.6-0.6,4.7-1.9
			c1-1.3,1.6-3.2,1.6-5.7c0-2.5-0.5-4.4-1.6-5.7c-1-1.3-2.6-1.9-4.6-1.9c-2.1,0-3.6,0.6-4.7,1.9
			C-2054.3,2045.7-2054.9,2047.6-2054.9,2050z"/>
		<path class="st7" d="M-2035.9,2059.4v-18.6h2.2v16.6h8.2v2H-2035.9z"/>
		<path class="st7" d="M-2007.6,2049.9c0,3.1-0.8,5.4-2.5,7c-1.7,1.6-4.1,2.4-7.2,2.4h-5.1v-18.6h5.7c2.9,0,5.1,0.8,6.7,2.4
			S-2007.6,2047-2007.6,2049.9z M-2009.9,2050c0-2.4-0.6-4.2-1.8-5.5s-3-1.8-5.4-1.8h-3.1v14.8h2.6c2.6,0,4.5-0.6,5.8-1.9
			C-2010.6,2054.3-2009.9,2052.5-2009.9,2050z"/>
	</g>
	<g class="st5">
		<path class="st7" d="M-2040,2120.6h-2.1l-3.7-12.4c-0.2-0.5-0.4-1.2-0.6-2.1c-0.2-0.8-0.3-1.3-0.3-1.5c-0.2,1.1-0.5,2.3-0.9,3.7
			l-3.6,12.4h-2.1l-4.9-18.6h2.3l2.9,11.5c0.4,1.6,0.7,3.1,0.9,4.4c0.2-1.5,0.6-3.1,1-4.5l3.3-11.3h2.3l3.5,11.4
			c0.4,1.3,0.7,2.8,1,4.4c0.2-1.2,0.5-2.7,0.9-4.4l2.9-11.4h2.3L-2040,2120.6z"/>
		<path class="st7" d="M-2020.4,2120.6l-2.3-5.9h-7.4l-2.3,5.9h-2.2l7.3-18.6h1.8l7.3,18.6H-2020.4z M-2023.4,2112.8l-2.2-5.8
			c-0.3-0.7-0.6-1.6-0.9-2.7c-0.2,0.8-0.5,1.7-0.8,2.7l-2.2,5.8H-2023.4z"/>
	</g>
</g>
</svg>
