<svg xmlns="http://www.w3.org/2000/svg" width="282.435" height="238.87" viewBox="0 0 282.435 238.87">
  <g id="Group_4832" data-name="Group 4832" transform="translate(-919.772 -2339.589)">
    <g id="Group_4696" data-name="Group 4696" transform="translate(-166 376.184)">
      <text id="_25_" data-name="25%" transform="translate(1321.207 2172.072)" fill="#333" font-size="24" font-family="OpenSans-SemiboldItalic, Open Sans" font-weight="600" font-style="italic"><tspan x="0" y="0">25%</tspan></text>
      <path id="Path_4457" data-name="Path 4457" d="M1365.537,2182.419H1125.058a1.128,1.128,0,0,1,0-2.248h240.479a1.128,1.128,0,0,1,0,2.248Z" fill="#b2448e"/>
      <path id="Path_4458" data-name="Path 4458" d="M1126.087,2184.294h36.93c1.137,0,2.059-1.342,2.059-3s-.922-3-2.059-3h-36.93c-1.136,0-2.058,1.342-2.058,3S1124.951,2184.294,1126.087,2184.294Z" fill="#b2448e"/>
      <g id="Group_4695" data-name="Group 4695">
        <path id="Path_4459" data-name="Path 4459" d="M1127.388,2181.609a20.666,20.666,0,1,1-20.666-20.666A20.666,20.666,0,0,1,1127.388,2181.609Z" fill="#b2448e"/>
        <path id="Path_4460" data-name="Path 4460" d="M1123.731,2181.609a17.009,17.009,0,1,1-17.009-17.009A17.01,17.01,0,0,1,1123.731,2181.609Z" fill="#fff"/>
        <path id="Mask-2" d="M1104.523,2186.865s.028-9.21-.018-10.164l3.383-.006,0,1.439a3.361,3.361,0,0,1,3.046-1.684c2.226,0,3.9,1.446,3.9,4.569l.011,5.827-3.383.006-.01-5.436c0-1.366-.494-2.3-1.717-2.3a1.852,1.852,0,0,0-1.735,1.239,2.329,2.329,0,0,0-.109.825l.01,5.675Zm-5.256.009-.018-10.164,3.383-.006.018,10.164Zm1.649-11.554a1.929,1.929,0,1,1,.022,0Z" fill="#b2448e"/>
      </g>
    </g>
    <text id="_63_" data-name="63%" transform="translate(1155.207 2426.937)" fill="#333" font-size="24" font-family="OpenSans-SemiboldItalic, Open Sans" font-weight="600" font-style="italic"><tspan x="0" y="0">63%</tspan></text>
    <path id="Path_4461" data-name="Path 4461" d="M1125.058,2059.149h240.479a1.129,1.129,0,0,0,0-2.249H1125.058a1.129,1.129,0,0,0,0,2.249Z" transform="translate(-166 376.184)" fill="#b2448e"/>
    <path id="Path_4462" data-name="Path 4462" d="M1125.058,2061.025h117c1.136,0,2.058-1.345,2.058-3s-.922-3-2.058-3h-117c-1.136,0-2.058,1.344-2.058,3S1123.922,2061.025,1125.058,2061.025Z" transform="translate(-166 376.184)" fill="#b2448e"/>
    <text id="_56_" data-name="56%" transform="translate(1155.207 2489.338)" fill="#333" font-size="24" font-family="OpenSans-SemiboldItalic, Open Sans" font-weight="600" font-style="italic"><tspan x="0" y="0">56%</tspan></text>
    <path id="Path_4463" data-name="Path 4463" d="M1125.058,2119.534h240.479a1.128,1.128,0,0,0,0-2.248H1125.058a1.128,1.128,0,0,0,0,2.248Z" transform="translate(-166 376.184)" fill="#b2448e"/>
    <path id="Path_4464" data-name="Path 4464" d="M1125.058,2121.41h106.847c1.138,0,2.059-1.345,2.059-3s-.921-3-2.059-3H1125.058c-1.136,0-2.058,1.344-2.058,3S1123.922,2121.41,1125.058,2121.41Z" transform="translate(-166 376.184)" fill="#b2448e"/>
    <g id="Group_4698" data-name="Group 4698" transform="translate(-166 376.184)">
      <text id="_76_" data-name="76%" transform="translate(1321.207 1989.406)" fill="#333" font-size="24" font-family="OpenSans-SemiboldItalic, Open Sans" font-weight="600" font-style="italic"><tspan x="0" y="0">76%</tspan></text>
      <path id="Path_4465" data-name="Path 4465" d="M1125.058,1997.77h240.479a1.128,1.128,0,0,0,0-2.248H1125.058a1.128,1.128,0,0,0,0,2.248Z" fill="#b2448e"/>
      <path id="Path_4466" data-name="Path 4466" d="M1125.058,1999.646h140.115c1.136,0,2.057-1.345,2.057-3s-.921-3-2.057-3H1125.058c-1.136,0-2.058,1.344-2.058,3S1123.922,1999.646,1125.058,1999.646Z" fill="#b2448e"/>
      <g id="Group_4697" data-name="Group 4697">
        <path id="Path_4467" data-name="Path 4467" d="M1127.388,1995.978a20.666,20.666,0,1,1-20.666-20.666A20.666,20.666,0,0,1,1127.388,1995.978Z" fill="#b2448e"/>
        <path id="Path_4468" data-name="Path 4468" d="M1123.731,1995.978a17.009,17.009,0,1,1-17.009-17.009A17.01,17.01,0,0,1,1123.731,1995.978Z" fill="#fff"/>
        <path id="Mask" d="M1106.578,1992.065l.042.68-.687-.082a11.18,11.18,0,0,1-6.549-3.208l-.908-.9-.233.667a4.009,4.009,0,0,0,.86,4.106c.551.582.427.665-.522.32a1.619,1.619,0,0,0-.646-.151,4.984,4.984,0,0,0,.5,1.858,4.433,4.433,0,0,0,1.886,1.773l.674.318-.795.014c-.77,0-.8.015-.715.306a4.156,4.156,0,0,0,2.575,2.271l.852.291-.741.445a7.743,7.743,0,0,1-3.682,1.035,4.042,4.042,0,0,0-1.126.113,10.491,10.491,0,0,0,2.655,1.216,11.6,11.6,0,0,0,9.014-1.044,12.057,12.057,0,0,0,4.567-5.392,14.308,14.308,0,0,0,.927-4.165c0-.638.04-.721.807-1.486a8.943,8.943,0,0,0,.961-1.07c.138-.264.124-.264-.577-.026-1.168.418-1.333.363-.756-.263a4.038,4.038,0,0,0,.931-1.487c0-.041-.206.029-.439.154a7.693,7.693,0,0,1-1.209.474l-.742.237-.674-.457a5.592,5.592,0,0,0-1.169-.608,4.691,4.691,0,0,0-2.405.06A3.97,3.97,0,0,0,1106.578,1992.065Z" fill="#b2448e"/>
      </g>
    </g>
    <g id="Group_4699" data-name="Group 4699" transform="translate(-166 376.184)">
      <path id="Path_4469" data-name="Path 4469" d="M1127.388,2057.4a20.666,20.666,0,1,1-20.666-20.667A20.666,20.666,0,0,1,1127.388,2057.4Z" fill="#b2448e"/>
      <path id="Path_4470" data-name="Path 4470" d="M1123.731,2057.4a17.009,17.009,0,1,1-17.009-17.01A17.009,17.009,0,0,1,1123.731,2057.4Z" fill="#fff"/>
      <path id="Mask-3" d="M1107.3,2065.207l-.016-8.544,2.359,0,.307-2.945-2.671,0v-1.473c0-.768.071-1.18,1.174-1.182l1.475,0-.006-2.945-2.358,0c-2.834,0-3.829,1.435-3.824,3.837l0,1.768-1.766,0,.005,2.944,1.766,0,.016,8.544Z" fill="#b2448e"/>
    </g>
    <g id="Group_4700" data-name="Group 4700" transform="translate(-166 376.184)">
      <path id="Path_4471" data-name="Path 4471" d="M1127.1,2117.642a20.667,20.667,0,1,1-20.665-20.666A20.666,20.666,0,0,1,1127.1,2117.642Z" fill="#b2448e"/>
      <path id="Path_4472" data-name="Path 4472" d="M1123.448,2117.642a17.01,17.01,0,1,1-17.008-17.009A17.009,17.009,0,0,1,1123.448,2117.642Z" fill="#fff"/>
      <path id="Mask-4" d="M1106.451,2124.444c-.061,0-6.111.006-7.616-.393a2.429,2.429,0,0,1-1.725-1.714,26.983,26.983,0,0,1-.017-9.355,2.436,2.436,0,0,1,1.719-1.721c1.5-.405,7.554-.42,7.614-.42s6.112-.007,7.616.392a2.438,2.438,0,0,1,1.726,1.715,27.051,27.051,0,0,1,.017,9.355,2.433,2.433,0,0,1-1.72,1.721C1112.562,2124.428,1106.512,2124.444,1106.451,2124.444Zm-1.886-9.89.011,6.183,4.867-3.1Z" fill="#b2448e"/>
    </g>
  </g>
</svg>
