<?xml version="1.0" encoding="utf-8"?>
<!-- Generator: Adobe Illustrator 24.2.0, SVG Export Plug-In . SVG Version: 6.00 Build 0)  -->
<svg version="1.1" id="Layer_1" xmlns="http://www.w3.org/2000/svg" xmlns:xlink="http://www.w3.org/1999/xlink" x="0px" y="0px"
	 viewBox="0 0 788.4 331.4" style="enable-background:new 0 0 788.4 331.4;" xml:space="preserve">
<style type="text/css">
	.st0{fill:#FFD964;}
	.st1{fill:#84B2F9;}
	.st2{fill:#4569A0;}
	.st3{fill:none;stroke:#333333;stroke-width:0.5;stroke-linecap:square;}
	.st4{fill:#239546;}
	.st5{fill:none;stroke:#D8D8D8;stroke-miterlimit:10;}
	.st6{enable-background:new    ;}
	.st7{fill:#333333;}
	.st8{fill:none;stroke:#EBEBEB;stroke-miterlimit:10;}
	.st9{fill:#4A5C74;}
	.st10{fill:#745FD7;}
	.st11{fill:#59A09F;}
	.st12{fill:#E75755;}
	.st13{fill:#B74D94;}
</style>
<g id="Group_4849" transform="translate(-332.177 -830.739)">
	<g id="patch_6" transform="translate(-118 379.184)">
		<g id="Group_4718">
			<path id="Path_4473" class="st0" d="M704.5,734.3H761V683h-56.5V734.3z"/>
		</g>
	</g>
	<g id="patch_3" transform="translate(-118 379.184)">
		<g id="Group_4719">
			<path id="Path_4474" class="st1" d="M641.9,734.3h56.5V498.1h-56.5V734.3z"/>
		</g>
	</g>
	<g id="Group_4720" transform="translate(-118 379.184)">
		<path id="Path_4475" class="st2" d="M579,734.3h56.5V534H579V734.3z"/>
	</g>
	<path id="Path_4476" class="st3" d="M378.8,1113.9H982"/>
	<g id="patch_4" transform="translate(-118 379.184)">
		<g id="Group_4721">
			<path id="Path_4477" class="st4" d="M766.5,734.3H823V626.5h-56.5V734.3z"/>
		</g>
	</g>
	<rect id="Rectangle_781" x="332.7" y="831.2" class="st5" width="678.8" height="330.4"/>
	<g class="st6">
		<path class="st7" d="M356.7,1079c0.5,0,1,0.1,1.6,0.2c0.6,0.1,1.1,0.3,1.5,0.6c0.4,0.2,0.7,0.5,0.9,0.8s0.3,0.7,0.3,1.1
			c0,0.5-0.2,0.9-0.5,1.2s-0.8,0.4-1.5,0.4c-0.8,0-1.5-0.1-2.2-0.3c-0.7-0.2-1.2-0.5-1.6-0.9s-0.5-0.8-0.5-1.4
			c0-0.5,0.2-0.9,0.5-1.2S356.1,1079,356.7,1079z M354.9,1074.4l10,7.4v1l-10-7.4V1074.4z M355.7,1080.7c0,0.3,0.1,0.6,0.4,0.8
			s0.7,0.4,1.3,0.6c0.6,0.1,1.1,0.2,1.7,0.2c0.8,0,1.2-0.2,1.2-0.7c0-0.2-0.1-0.5-0.3-0.6c-0.2-0.2-0.4-0.4-0.8-0.5
			c-0.3-0.1-0.7-0.3-1.2-0.3c-0.5-0.1-0.8-0.1-1.2-0.1C356,1080,355.7,1080.2,355.7,1080.7z M360.7,1073.9c0.5,0,1,0.1,1.6,0.2
			c0.6,0.1,1.1,0.3,1.5,0.6c0.4,0.2,0.7,0.5,0.9,0.8c0.2,0.3,0.3,0.7,0.3,1.1c0,0.5-0.2,0.9-0.5,1.2c-0.3,0.3-0.8,0.4-1.5,0.4
			c-0.8,0-1.5-0.1-2.2-0.3c-0.7-0.2-1.2-0.5-1.6-0.9s-0.5-0.8-0.5-1.4c0-0.5,0.2-0.9,0.5-1.2
			C359.6,1074.1,360.1,1073.9,360.7,1073.9z M359.7,1075.6c0,0.3,0.1,0.6,0.4,0.8c0.3,0.2,0.7,0.4,1.3,0.6c0.6,0.1,1.1,0.2,1.6,0.2
			c0.8,0,1.2-0.2,1.2-0.7c0-0.3-0.1-0.6-0.4-0.8s-0.7-0.4-1.4-0.6c-0.6-0.2-1.1-0.2-1.6-0.2C360,1074.9,359.7,1075.1,359.7,1075.6z"
			/>
		<path class="st7" d="M357.4,1065.3c0-0.9,0.3-1.5,0.8-2.1c0.5-0.5,1.2-0.8,2.1-0.8c0.9,0,1.7,0.2,2.4,0.5s1.3,0.8,1.8,1.3
			s0.6,1.2,0.6,1.9c0,0.9-0.3,1.6-0.8,2.1s-1.2,0.7-2.1,0.7c-0.9,0-1.7-0.2-2.4-0.5c-0.8-0.3-1.3-0.8-1.8-1.3
			C357.6,1066.6,357.4,1066,357.4,1065.3z M360.1,1063.7c-0.5,0-0.9,0.1-1.3,0.4c-0.3,0.3-0.5,0.7-0.5,1.2c0,0.5,0.2,0.9,0.5,1.3
			c0.3,0.4,0.8,0.7,1.4,0.9c0.6,0.2,1.3,0.3,2,0.3c0.6,0,1.1-0.1,1.4-0.4c0.3-0.3,0.5-0.7,0.5-1.2c0-0.5-0.2-0.9-0.5-1.3
			s-0.8-0.7-1.4-0.9C361.6,1063.8,360.9,1063.7,360.1,1063.7z"/>
		<path class="st7" d="M368.3,1062.5c0,0.3,0,0.6-0.1,0.9h-1c0.1-0.3,0.2-0.5,0.2-0.8c0-0.3-0.1-0.6-0.4-0.8s-0.7-0.3-1.2-0.5
			l-7.4-1.6v1.3l-0.5-0.1l-0.5-1.4l-0.7-0.2c-0.9-0.2-1.6-0.5-1.9-0.9c-0.4-0.4-0.6-0.9-0.6-1.7c0-0.2,0-0.4,0.1-0.7
			c0.1-0.3,0.1-0.5,0.2-0.6l0.9,0.3c-0.1,0.3-0.2,0.7-0.2,0.9c0,0.4,0.1,0.7,0.3,0.9c0.2,0.2,0.6,0.4,1.2,0.5l0.7,0.2v-1.6l0.9,0.2
			v1.6l7.5,1.6c0.9,0.2,1.5,0.5,1.9,0.8S368.3,1061.9,368.3,1062.5z"/>
		<path class="st7" d="M365.1,1050.1c0,0.4-0.1,0.8-0.3,1.2s-0.5,0.6-1,0.8v0.1l0.3,0c0.1,0,0.3,0,0.5,0.1c0.2,0,1.5,0.3,3.8,0.8
			v1.1l-10.9-2.3v-1l1.4,0.2v-0.1c-1-0.8-1.6-1.7-1.6-2.5c0-0.6,0.2-1.1,0.7-1.5c0.4-0.4,1.1-0.5,1.9-0.5c1,0,1.9,0.2,2.7,0.5
			s1.4,0.8,1.9,1.3C364.9,1048.7,365.1,1049.4,365.1,1050.1z M358.3,1048.8c0,0.4,0.2,0.9,0.6,1.3c0.4,0.5,1,0.8,1.6,1.1
			c0.7,0.3,1.3,0.4,2,0.4c0.5,0,0.9-0.1,1.2-0.4c0.3-0.3,0.4-0.6,0.4-1.1c0-0.5-0.2-0.9-0.6-1.3c-0.4-0.4-0.9-0.7-1.6-0.9
			c-0.7-0.2-1.4-0.4-2.2-0.4C358.8,1047.6,358.3,1048,358.3,1048.8z"/>
		<path class="st7" d="M357.3,1041.3c0-0.4,0.1-0.8,0.3-1.1c0.2-0.3,0.6-0.6,1-0.8v-0.1l-1.2-0.5v-0.9l7.5,1.6v0.9l-1.4-0.2v0.1
			c1,0.8,1.6,1.7,1.6,2.6c0,0.6-0.2,1.1-0.7,1.5s-1.1,0.5-1.9,0.5c-0.9,0-1.8-0.2-2.6-0.5s-1.4-0.8-1.9-1.3S357.3,1042,357.3,1041.3
			z M364.1,1042.6c0-0.4-0.2-0.9-0.6-1.3c-0.4-0.4-1-0.8-1.6-1.1c-0.7-0.3-1.4-0.4-2-0.4c-0.5,0-0.8,0.1-1.1,0.4s-0.4,0.6-0.4,1
			c0,0.5,0.2,0.9,0.6,1.3c0.4,0.4,0.9,0.7,1.6,1s1.4,0.3,2.1,0.3c0.5,0,0.9-0.1,1.2-0.3C364,1043.3,364.1,1043,364.1,1042.6z"/>
		<path class="st7" d="M357.3,1032.7c0-0.3,0-0.6,0.1-0.8l1,0.2c-0.1,0.2-0.1,0.5-0.1,0.7c0,0.4,0.1,0.8,0.4,1.2
			c0.3,0.4,0.7,0.7,1.1,0.9c0.5,0.3,1,0.5,1.6,0.6l3.4,0.7v1.1l-7.5-1.6v-1l1.4,0.2v-0.1c-0.4-0.3-0.7-0.6-0.9-0.8
			c-0.2-0.2-0.3-0.4-0.4-0.7C357.4,1033.2,357.3,1032.9,357.3,1032.7z"/>
		<path class="st7" d="M364.1,1029.6c0-0.3-0.1-0.6-0.2-1h0.9c0.1,0.2,0.1,0.3,0.2,0.6s0.1,0.4,0.1,0.5c0,0.6-0.1,1-0.4,1.3
			c-0.3,0.3-0.7,0.5-1.2,0.5c-0.3,0-0.6,0-1-0.1l-4.1-0.9v1.2l-0.5-0.1l-0.5-1.3l-1.6-0.9v-0.7l1.7,0.4v-1.9l0.9,0.2v1.9l4.1,0.9
			c0.4,0.1,0.7,0.1,0.9,0.1c0.3,0,0.5-0.1,0.6-0.2S364.1,1029.8,364.1,1029.6z"/>
		<path class="st7" d="M355.5,1025.4c-0.3,0-0.5-0.1-0.6-0.2c-0.2-0.1-0.2-0.3-0.2-0.6c0-0.4,0.2-0.6,0.6-0.6c0.3,0,0.5,0.1,0.6,0.2
			c0.2,0.2,0.3,0.3,0.3,0.5c0,0.2-0.1,0.3-0.2,0.5C355.9,1025.3,355.7,1025.4,355.5,1025.4z M364.9,1026.2v1.1l-7.5-1.6v-1.1
			L364.9,1026.2z"/>
		<path class="st7" d="M365.1,1020.7c0,0.9-0.2,1.6-0.7,2.1s-1.2,0.7-2.1,0.7c-0.9,0-1.8-0.2-2.5-0.5s-1.4-0.8-1.8-1.4
			c-0.4-0.6-0.6-1.3-0.6-2c0-0.6,0.1-1.2,0.3-1.8l1,0.3c-0.2,0.5-0.3,1-0.3,1.5c0,0.5,0.2,1,0.5,1.4c0.3,0.4,0.8,0.8,1.5,1
			c0.6,0.2,1.3,0.4,2,0.4c0.6,0,1-0.2,1.4-0.5c0.3-0.3,0.5-0.7,0.5-1.3c0-0.3,0-0.6-0.1-0.9s-0.2-0.6-0.3-0.9h1
			C364.9,1019.4,365.1,1020,365.1,1020.7z"/>
		<path class="st7" d="M355.5,1015.5c-0.3,0-0.5-0.1-0.6-0.2c-0.2-0.1-0.2-0.3-0.2-0.6c0-0.4,0.2-0.6,0.6-0.6c0.3,0,0.5,0.1,0.6,0.2
			c0.2,0.2,0.3,0.3,0.3,0.5c0,0.2-0.1,0.3-0.2,0.5C355.9,1015.5,355.7,1015.5,355.5,1015.5z M364.9,1016.3v1.1l-7.5-1.6v-1.1
			L364.9,1016.3z"/>
		<path class="st7" d="M365.1,1010.6c0,0.4-0.1,0.8-0.3,1.2s-0.5,0.6-1,0.8v0.1l0.3,0c0.1,0,0.3,0,0.5,0.1c0.2,0,1.5,0.3,3.8,0.8
			v1.1l-10.9-2.3v-1l1.4,0.2v-0.1c-1-0.8-1.6-1.7-1.6-2.5c0-0.6,0.2-1.1,0.7-1.5c0.4-0.4,1.1-0.5,1.9-0.5c1,0,1.9,0.2,2.7,0.5
			s1.4,0.8,1.9,1.3C364.9,1009.3,365.1,1009.9,365.1,1010.6z M358.3,1009.3c0,0.4,0.2,0.9,0.6,1.3c0.4,0.5,1,0.8,1.6,1.1
			c0.7,0.3,1.3,0.4,2,0.4c0.5,0,0.9-0.1,1.2-0.4c0.3-0.3,0.4-0.6,0.4-1.1c0-0.5-0.2-0.9-0.6-1.3c-0.4-0.4-0.9-0.7-1.6-0.9
			c-0.7-0.2-1.4-0.4-2.2-0.4C358.8,1008.1,358.3,1008.5,358.3,1009.3z"/>
		<path class="st7" d="M357.3,1001.9c0-0.4,0.1-0.8,0.3-1.1c0.2-0.3,0.6-0.6,1-0.8v-0.1l-1.2-0.5v-0.9l7.5,1.6v0.9l-1.4-0.2v0.1
			c1,0.8,1.6,1.7,1.6,2.6c0,0.6-0.2,1.1-0.7,1.5s-1.1,0.5-1.9,0.5c-0.9,0-1.8-0.2-2.6-0.5s-1.4-0.8-1.9-1.3
			S357.3,1002.5,357.3,1001.9z M364.1,1003.2c0-0.4-0.2-0.9-0.6-1.3c-0.4-0.4-1-0.8-1.6-1.1c-0.7-0.3-1.4-0.4-2-0.4
			c-0.5,0-0.8,0.1-1.1,0.4s-0.4,0.6-0.4,1c0,0.5,0.2,0.9,0.6,1.3c0.4,0.4,0.9,0.7,1.6,1s1.4,0.3,2.1,0.3c0.5,0,0.9-0.1,1.2-0.3
			C364,1003.8,364.1,1003.5,364.1,1003.2z"/>
		<path class="st7" d="M364.9,993.3l-4.7-1c-0.5-0.1-0.8-0.1-1-0.1c-0.3,0-0.5,0.1-0.7,0.2s-0.3,0.4-0.3,0.8c0,0.4,0.1,0.8,0.4,1.2
			s0.7,0.7,1.2,1s1.1,0.5,1.8,0.7l3.2,0.7v1.1l-7.5-1.6v-1l1.4,0.2v-0.1c-0.6-0.4-0.9-0.9-1.2-1.3c-0.2-0.4-0.3-0.8-0.3-1.3
			c0-0.6,0.2-1,0.5-1.4c0.3-0.3,0.8-0.5,1.3-0.5c0.4,0,0.8,0.1,1.2,0.2l4.6,1V993.3z"/>
		<path class="st7" d="M364.1,987.5c0-0.3-0.1-0.6-0.2-1h0.9c0.1,0.2,0.1,0.3,0.2,0.6s0.1,0.4,0.1,0.5c0,0.6-0.1,1-0.4,1.3
			c-0.3,0.3-0.7,0.5-1.2,0.5c-0.3,0-0.6,0-1-0.1l-4.1-0.9v1.2l-0.5-0.1l-0.5-1.3l-1.6-0.9v-0.7l1.7,0.4v-1.9l0.9,0.2v1.9l4.1,0.9
			c0.4,0.1,0.7,0.1,0.9,0.1c0.3,0,0.5-0.1,0.6-0.2S364.1,987.8,364.1,987.5z"/>
		<path class="st7" d="M362.8,980.7c0.7,0,1.3,0.3,1.7,0.8c0.4,0.5,0.6,1.2,0.6,2.1c0,0.8-0.2,1.5-0.5,2.1h-1.1
			c0.2-0.3,0.3-0.7,0.4-1s0.2-0.7,0.2-1c0-0.6-0.1-1-0.3-1.3s-0.5-0.4-0.9-0.4c-0.3,0-0.5,0.1-0.7,0.2s-0.4,0.5-0.7,1
			c-0.3,0.6-0.7,1-1,1.3s-0.7,0.4-1.1,0.4c-0.6,0-1.1-0.2-1.5-0.7c-0.4-0.5-0.6-1.1-0.6-1.8c0-0.8,0.2-1.5,0.5-2.3l0.9,0.4l-0.2,0.4
			c-0.2,0.5-0.3,1-0.3,1.5c0,0.4,0.1,0.8,0.3,1c0.2,0.2,0.5,0.4,0.8,0.4c0.3,0,0.5-0.1,0.7-0.2s0.4-0.5,0.7-1c0.3-0.5,0.5-0.8,0.7-1
			s0.4-0.4,0.6-0.5C362.3,980.7,362.5,980.7,362.8,980.7z"/>
		<path class="st7" d="M364.9,970.4l-4.1,0.2c-0.4,0-0.8,0-1.2,0h-1.1v0.1l0.8,0.3l1.3,0.6l4.3,2v1.4l-7.5,0.3v-1.1l4.1-0.1h0.6
			c0.7,0,1.3,0,1.8,0.1v0c-0.6-0.2-1.3-0.5-2.2-0.9l-4.3-2v-1.2l4.1-0.3c0.8,0,1.4,0,1.8,0h0.4l0.3,0v0c-0.4-0.1-0.9-0.3-1.5-0.6
			c-0.6-0.3-2.3-1-5-2.2v-1.2l7.5,3.5V970.4z"/>
		<path class="st7" d="M364.9,961l-4.7-1c-0.4-0.1-0.7-0.1-0.9-0.1c-0.7,0-1,0.3-1,1c0,0.4,0.1,0.8,0.4,1.2s0.7,0.7,1.2,1
			c0.5,0.3,1.1,0.5,1.9,0.7l3.2,0.7v1.1l-10.6-2.3v-1.1c0.4,0.1,0.7,0.2,1.1,0.2s0.7,0.2,1.1,0.2c0.4,0.1,0.7,0.2,1.1,0.3
			s0.8,0.2,1.3,0.3v-0.1c-0.6-0.4-1-0.9-1.2-1.3s-0.4-0.9-0.4-1.3c0-0.6,0.2-1.1,0.5-1.4s0.8-0.5,1.4-0.5c0.3,0,0.7,0.1,1.1,0.2
			c0.9,0.2,2.4,0.5,4.6,1V961z"/>
		<path class="st7" d="M357.4,953.6c0-0.9,0.3-1.5,0.8-2.1c0.5-0.5,1.2-0.8,2.1-0.8c0.9,0,1.7,0.2,2.4,0.5s1.3,0.8,1.8,1.3
			s0.6,1.2,0.6,1.9c0,0.9-0.3,1.6-0.8,2.1s-1.2,0.7-2.1,0.7c-0.9,0-1.7-0.2-2.4-0.5c-0.8-0.3-1.3-0.8-1.8-1.3
			C357.6,954.9,357.4,954.2,357.4,953.6z M360.1,951.9c-0.5,0-0.9,0.1-1.3,0.4c-0.3,0.3-0.5,0.7-0.5,1.2c0,0.5,0.2,0.9,0.5,1.3
			s0.8,0.7,1.4,0.9c0.6,0.2,1.3,0.3,2,0.3c0.6,0,1.1-0.1,1.4-0.4c0.3-0.3,0.5-0.7,0.5-1.2c0-0.5-0.2-0.9-0.5-1.3s-0.8-0.7-1.4-0.9
			C361.6,952,360.9,951.9,360.1,951.9z"/>
		<path class="st7" d="M365.1,942.7c0,0.4-0.1,0.8-0.3,1.2s-0.5,0.6-1,0.8v0.1l0.3,0c0.1,0,0.3,0,0.5,0.1s1.5,0.3,3.8,0.8v1.1
			l-10.9-2.3v-1l1.4,0.2v-0.1c-1-0.8-1.6-1.7-1.6-2.5c0-0.6,0.2-1.1,0.7-1.5c0.4-0.4,1.1-0.5,1.9-0.5c1,0,1.9,0.2,2.7,0.5
			s1.4,0.7,1.9,1.3C364.9,941.4,365.1,942,365.1,942.7z M358.3,941.5c0,0.4,0.2,0.9,0.6,1.3s1,0.8,1.6,1.1s1.3,0.4,2,0.4
			c0.5,0,0.9-0.1,1.2-0.4c0.3-0.3,0.4-0.6,0.4-1.1c0-0.5-0.2-0.9-0.6-1.3s-0.9-0.7-1.6-0.9c-0.7-0.2-1.4-0.4-2.2-0.4
			C358.8,940.2,358.3,940.7,358.3,941.5z"/>
		<path class="st7" d="M357.3,934c0-0.4,0.1-0.8,0.3-1.1c0.2-0.3,0.6-0.6,1-0.8V932l-1.2-0.5v-0.9l7.5,1.6v0.9l-1.4-0.2v0.1
			c1,0.8,1.6,1.7,1.6,2.6c0,0.6-0.2,1.1-0.7,1.5s-1.1,0.5-1.9,0.5c-0.9,0-1.8-0.2-2.6-0.5s-1.4-0.8-1.9-1.3S357.3,934.7,357.3,934z
			 M364.1,935.3c0-0.4-0.2-0.9-0.6-1.3c-0.4-0.4-1-0.8-1.6-1.1c-0.7-0.3-1.4-0.4-2-0.4c-0.5,0-0.8,0.1-1.1,0.4s-0.4,0.6-0.4,1
			c0,0.5,0.2,0.9,0.6,1.3s0.9,0.7,1.6,1s1.4,0.3,2.1,0.3c0.5,0,0.9-0.1,1.2-0.3C364,936,364.1,935.7,364.1,935.3z"/>
		<path class="st7" d="M362.8,925.4c0.7,0,1.3,0.3,1.7,0.8c0.4,0.5,0.6,1.2,0.6,2.1c0,0.8-0.2,1.5-0.5,2.1h-1.1
			c0.2-0.3,0.3-0.7,0.4-1s0.2-0.7,0.2-1c0-0.6-0.1-1-0.3-1.3s-0.5-0.4-0.9-0.4c-0.3,0-0.5,0.1-0.7,0.2s-0.4,0.5-0.7,1
			c-0.3,0.6-0.7,1-1,1.3s-0.7,0.4-1.1,0.4c-0.6,0-1.1-0.2-1.5-0.7c-0.4-0.5-0.6-1.1-0.6-1.8c0-0.8,0.2-1.5,0.5-2.3l0.9,0.4l-0.2,0.4
			c-0.2,0.5-0.3,1-0.3,1.5c0,0.4,0.1,0.8,0.3,1c0.2,0.2,0.5,0.4,0.8,0.4c0.3,0,0.5-0.1,0.7-0.2c0.2-0.2,0.4-0.5,0.7-1
			c0.3-0.5,0.5-0.8,0.7-1c0.2-0.2,0.4-0.4,0.6-0.5C362.3,925.5,362.5,925.4,362.8,925.4z"/>
		<path class="st7" d="M362.8,919.5c0.7,0,1.3,0.3,1.7,0.8c0.4,0.5,0.6,1.2,0.6,2.1c0,0.8-0.2,1.5-0.5,2.1h-1.1
			c0.2-0.3,0.3-0.7,0.4-1s0.2-0.7,0.2-1c0-0.6-0.1-1-0.3-1.3s-0.5-0.4-0.9-0.4c-0.3,0-0.5,0.1-0.7,0.2s-0.4,0.5-0.7,1
			c-0.3,0.6-0.7,1-1,1.3s-0.7,0.4-1.1,0.4c-0.6,0-1.1-0.2-1.5-0.7c-0.4-0.5-0.6-1.1-0.6-1.8c0-0.8,0.2-1.5,0.5-2.3l0.9,0.4l-0.2,0.4
			c-0.2,0.5-0.3,1-0.3,1.5c0,0.4,0.1,0.8,0.3,1c0.2,0.2,0.5,0.4,0.8,0.4c0.3,0,0.5-0.1,0.7-0.2c0.2-0.2,0.4-0.5,0.7-1
			c0.3-0.5,0.5-0.8,0.7-1c0.2-0.2,0.4-0.4,0.6-0.5C362.3,919.5,362.5,919.5,362.8,919.5z"/>
		<path class="st7" d="M365.1,915.1c0,0.8-0.2,1.5-0.7,2s-1.2,0.7-2.1,0.7c-0.9,0-1.7-0.2-2.5-0.5c-0.8-0.3-1.4-0.8-1.8-1.3
			s-0.7-1.2-0.7-1.9c0-0.7,0.2-1.2,0.5-1.6c0.3-0.4,0.7-0.5,1.3-0.5c0.8,0,1.5,0.4,1.9,1.1c0.5,0.8,0.7,1.8,0.7,3.2v0.2l0.5,0
			c0.6,0,1.1-0.1,1.4-0.4c0.3-0.3,0.5-0.7,0.5-1.3c0-0.3,0-0.6-0.1-0.9c-0.1-0.3-0.2-0.7-0.5-1.1h1c0.2,0.4,0.3,0.8,0.4,1.1
			C365,914.4,365.1,914.7,365.1,915.1z M358.3,914.2c0,0.5,0.2,0.9,0.6,1.3c0.4,0.4,1,0.7,1.8,0.9v-0.1c0-1-0.1-1.8-0.4-2.4
			c-0.3-0.6-0.7-0.8-1.2-0.8c-0.2,0-0.4,0.1-0.6,0.2C358.4,913.6,358.3,913.8,358.3,914.2z"/>
		<path class="st7" d="M357.3,907.2c0-0.9,0.4-1.5,1.3-1.9v-0.1c-0.7-0.1-1.3-0.2-1.9-0.3l-2.4-0.5v-1.1l10.6,2.3v1l-1.4-0.2v0.1
			c0.6,0.5,1,0.9,1.2,1.3s0.4,0.8,0.4,1.2c0,0.6-0.2,1.1-0.7,1.5s-1.1,0.5-1.9,0.5c-1,0-1.9-0.2-2.7-0.5s-1.4-0.8-1.9-1.3
			C357.5,908.5,357.3,907.9,357.3,907.2z M364.1,908.5c0-0.4-0.2-0.9-0.6-1.3c-0.4-0.5-1-0.8-1.6-1.1c-0.7-0.3-1.3-0.4-2-0.4
			c-0.5,0-0.9,0.1-1.2,0.4s-0.4,0.6-0.4,1.1c0,0.5,0.2,0.9,0.6,1.3c0.4,0.4,0.9,0.7,1.6,0.9c0.7,0.2,1.4,0.4,2.2,0.4
			C363.6,909.7,364.1,909.3,364.1,908.5z"/>
	</g>
	<rect id="Rectangle_782" x="1032.5" y="831.2" class="st8" width="86" height="234.4"/>
	<g id="patch_12" transform="translate(-118 379.184)">
		<path id="Path_4478" class="st1" d="M1163.6,528.1h22.7v-17h-22.7V528.1z"/>
	</g>
	<g id="patch_13" transform="translate(-118 379.184)">
		<path id="Path_4479" class="st2" d="M1163.6,503.3h22.7v-17h-22.7V503.3z"/>
	</g>
	<g class="st6">
		<path class="st7" d="M1079.8,878.4h-5.6v-0.8l2.3-2.3c0.7-0.7,1.1-1.2,1.4-1.5s0.4-0.6,0.5-0.9s0.2-0.6,0.2-0.9
			c0-0.5-0.1-0.8-0.4-1.1s-0.7-0.4-1.2-0.4c-0.4,0-0.7,0.1-1,0.2s-0.7,0.3-1.1,0.6l-0.5-0.7c0.8-0.7,1.6-1,2.6-1
			c0.8,0,1.4,0.2,1.9,0.6s0.7,1,0.7,1.7c0,0.5-0.2,1.1-0.5,1.6s-0.9,1.2-1.7,2l-1.9,1.8v0h4.4V878.4z"/>
		<path class="st7" d="M1086.7,874.1c0,1.5-0.2,2.6-0.7,3.3s-1.2,1.1-2.1,1.1c-0.9,0-1.6-0.4-2.1-1.1s-0.7-1.8-0.7-3.3
			c0-1.5,0.2-2.6,0.7-3.3s1.2-1.1,2.1-1.1c0.9,0,1.6,0.4,2.1,1.1S1086.7,872.6,1086.7,874.1z M1082,874.1c0,1.2,0.1,2.2,0.4,2.7
			s0.8,0.9,1.4,0.9c0.6,0,1.1-0.3,1.4-0.9s0.4-1.5,0.4-2.7s-0.1-2.1-0.4-2.7s-0.8-0.9-1.4-0.9c-0.6,0-1.1,0.3-1.4,0.8
			S1082,872.8,1082,874.1z"/>
		<path class="st7" d="M1091.5,878.4h-0.9v-6.1c0-0.5,0-1,0-1.4c-0.1,0.1-0.2,0.2-0.3,0.3s-0.6,0.5-1.4,1.1l-0.5-0.7l2.3-1.8h0.8
			V878.4z"/>
		<path class="st7" d="M1098.4,878.4h-0.9v-6.1c0-0.5,0-1,0-1.4c-0.1,0.1-0.2,0.2-0.3,0.3s-0.6,0.5-1.4,1.1l-0.5-0.7l2.3-1.8h0.8
			V878.4z"/>
	</g>
	<g id="patch_13-2" transform="translate(-118 379.184)">
		<path id="Path_4480" class="st9" d="M1163.6,479.3h22.7v-17h-22.7V479.3z"/>
	</g>
	<g class="st6">
		<path class="st7" d="M1079.8,854.4h-5.6v-0.8l2.3-2.3c0.7-0.7,1.1-1.2,1.4-1.5s0.4-0.6,0.5-0.9s0.2-0.6,0.2-0.9
			c0-0.5-0.1-0.8-0.4-1.1s-0.7-0.4-1.2-0.4c-0.4,0-0.7,0.1-1,0.2s-0.7,0.3-1.1,0.6l-0.5-0.7c0.8-0.7,1.6-1,2.6-1
			c0.8,0,1.4,0.2,1.9,0.6s0.7,1,0.7,1.7c0,0.5-0.2,1.1-0.5,1.6s-0.9,1.2-1.7,2l-1.9,1.8v0h4.4V854.4z"/>
		<path class="st7" d="M1086.7,850.1c0,1.5-0.2,2.6-0.7,3.3s-1.2,1.1-2.1,1.1c-0.9,0-1.6-0.4-2.1-1.1s-0.7-1.8-0.7-3.3
			c0-1.5,0.2-2.6,0.7-3.3s1.2-1.1,2.1-1.1c0.9,0,1.6,0.4,2.1,1.1S1086.7,848.6,1086.7,850.1z M1082,850.1c0,1.2,0.1,2.2,0.4,2.7
			s0.8,0.9,1.4,0.9c0.6,0,1.1-0.3,1.4-0.9s0.4-1.5,0.4-2.7s-0.1-2.1-0.4-2.7s-0.8-0.9-1.4-0.9c-0.6,0-1.1,0.3-1.4,0.8
			S1082,848.8,1082,850.1z"/>
		<path class="st7" d="M1091.5,854.4h-0.9v-6.1c0-0.5,0-1,0-1.4c-0.1,0.1-0.2,0.2-0.3,0.3s-0.6,0.5-1.4,1.1l-0.5-0.7l2.3-1.8h0.8
			V854.4z"/>
		<path class="st7" d="M1100.4,850.1c0,1.5-0.2,2.6-0.7,3.3s-1.2,1.1-2.1,1.1c-0.9,0-1.6-0.4-2.1-1.1s-0.7-1.8-0.7-3.3
			c0-1.5,0.2-2.6,0.7-3.3s1.2-1.1,2.1-1.1c0.9,0,1.6,0.4,2.1,1.1S1100.4,848.6,1100.4,850.1z M1095.7,850.1c0,1.2,0.1,2.2,0.4,2.7
			s0.8,0.9,1.4,0.9c0.6,0,1.1-0.3,1.4-0.9s0.4-1.5,0.4-2.7s-0.1-2.1-0.4-2.7s-0.8-0.9-1.4-0.9c-0.6,0-1.1,0.3-1.4,0.8
			S1095.7,848.8,1095.7,850.1z"/>
	</g>
	<g class="st6">
		<path class="st7" d="M1079.8,903.4h-5.6v-0.8l2.3-2.3c0.7-0.7,1.1-1.2,1.4-1.5s0.4-0.6,0.5-0.9s0.2-0.6,0.2-0.9
			c0-0.5-0.1-0.8-0.4-1.1s-0.7-0.4-1.2-0.4c-0.4,0-0.7,0.1-1,0.2s-0.7,0.3-1.1,0.6l-0.5-0.7c0.8-0.7,1.6-1,2.6-1
			c0.8,0,1.4,0.2,1.9,0.6s0.7,1,0.7,1.7c0,0.5-0.2,1.1-0.5,1.6s-0.9,1.2-1.7,2l-1.9,1.8v0h4.4V903.4z"/>
		<path class="st7" d="M1086.7,899.1c0,1.5-0.2,2.6-0.7,3.3s-1.2,1.1-2.1,1.1c-0.9,0-1.6-0.4-2.1-1.1s-0.7-1.8-0.7-3.3
			c0-1.5,0.2-2.6,0.7-3.3s1.2-1.1,2.1-1.1c0.9,0,1.6,0.4,2.1,1.1S1086.7,897.6,1086.7,899.1z M1082,899.1c0,1.2,0.1,2.2,0.4,2.7
			s0.8,0.9,1.4,0.9c0.6,0,1.1-0.3,1.4-0.9s0.4-1.5,0.4-2.7s-0.1-2.1-0.4-2.7s-0.8-0.9-1.4-0.9c-0.6,0-1.1,0.3-1.4,0.8
			S1082,897.8,1082,899.1z"/>
		<path class="st7" d="M1091.5,903.4h-0.9v-6.1c0-0.5,0-1,0-1.4c-0.1,0.1-0.2,0.2-0.3,0.3s-0.6,0.5-1.4,1.1l-0.5-0.7l2.3-1.8h0.8
			V903.4z"/>
		<path class="st7" d="M1100.4,903.4h-5.6v-0.8l2.3-2.3c0.7-0.7,1.1-1.2,1.4-1.5s0.4-0.6,0.5-0.9s0.2-0.6,0.2-0.9
			c0-0.5-0.1-0.8-0.4-1.1s-0.7-0.4-1.2-0.4c-0.4,0-0.7,0.1-1,0.2s-0.7,0.3-1.1,0.6l-0.5-0.7c0.8-0.7,1.6-1,2.6-1
			c0.8,0,1.4,0.2,1.9,0.6s0.7,1,0.7,1.7c0,0.5-0.2,1.1-0.5,1.6s-0.9,1.2-1.7,2l-1.9,1.8v0h4.4V903.4z"/>
	</g>
	<g id="patch_12-2" transform="translate(-118 379.184)">
		<path id="Path_4481" class="st4" d="M1163.6,577.1h22.7v-17h-22.7V577.1z"/>
	</g>
	<g id="patch_13-3" transform="translate(-118 379.184)">
		<path id="Path_4482" class="st0" d="M1163.6,552.3h22.7v-17h-22.7V552.3z"/>
	</g>
	<g class="st6">
		<path class="st7" d="M1079.8,927.4h-5.6v-0.8l2.3-2.3c0.7-0.7,1.1-1.2,1.4-1.5s0.4-0.6,0.5-0.9s0.2-0.6,0.2-0.9
			c0-0.5-0.1-0.8-0.4-1.1s-0.7-0.4-1.2-0.4c-0.4,0-0.7,0.1-1,0.2s-0.7,0.3-1.1,0.6l-0.5-0.7c0.8-0.7,1.6-1,2.6-1
			c0.8,0,1.4,0.2,1.9,0.6s0.7,1,0.7,1.7c0,0.5-0.2,1.1-0.5,1.6s-0.9,1.2-1.7,2l-1.9,1.8v0h4.4V927.4z"/>
		<path class="st7" d="M1086.7,923.1c0,1.5-0.2,2.6-0.7,3.3s-1.2,1.1-2.1,1.1c-0.9,0-1.6-0.4-2.1-1.1s-0.7-1.8-0.7-3.3
			c0-1.5,0.2-2.6,0.7-3.3s1.2-1.1,2.1-1.1c0.9,0,1.6,0.4,2.1,1.1S1086.7,921.6,1086.7,923.1z M1082,923.1c0,1.2,0.1,2.2,0.4,2.7
			s0.8,0.9,1.4,0.9c0.6,0,1.1-0.3,1.4-0.9s0.4-1.5,0.4-2.7s-0.1-2.1-0.4-2.7s-0.8-0.9-1.4-0.9c-0.6,0-1.1,0.3-1.4,0.8
			S1082,921.8,1082,923.1z"/>
		<path class="st7" d="M1091.5,927.4h-0.9v-6.1c0-0.5,0-1,0-1.4c-0.1,0.1-0.2,0.2-0.3,0.3s-0.6,0.5-1.4,1.1l-0.5-0.7l2.3-1.8h0.8
			V927.4z"/>
		<path class="st7" d="M1100.1,920.8c0,0.5-0.2,1-0.5,1.3s-0.7,0.6-1.3,0.7v0c0.7,0.1,1.2,0.3,1.5,0.7s0.5,0.8,0.5,1.4
			c0,0.8-0.3,1.4-0.8,1.9s-1.4,0.7-2.4,0.7c-0.5,0-0.9,0-1.2-0.1s-0.7-0.2-1.1-0.4v-0.9c0.4,0.2,0.8,0.3,1.2,0.4s0.8,0.1,1.2,0.1
			c1.5,0,2.2-0.6,2.2-1.7c0-1-0.8-1.6-2.4-1.6h-0.8v-0.8h0.9c0.7,0,1.2-0.1,1.6-0.4s0.6-0.7,0.6-1.2c0-0.4-0.1-0.7-0.4-1
			s-0.7-0.4-1.2-0.4c-0.4,0-0.7,0.1-1.1,0.2s-0.7,0.3-1.1,0.6l-0.5-0.7c0.4-0.3,0.8-0.5,1.2-0.7s0.9-0.2,1.5-0.2
			c0.8,0,1.5,0.2,1.9,0.6S1100.1,920.2,1100.1,920.8z"/>
	</g>
	<g class="st6">
		<path class="st7" d="M1079.8,952.4h-5.6v-0.8l2.3-2.3c0.7-0.7,1.1-1.2,1.4-1.5s0.4-0.6,0.5-0.9s0.2-0.6,0.2-0.9
			c0-0.5-0.1-0.8-0.4-1.1s-0.7-0.4-1.2-0.4c-0.4,0-0.7,0.1-1,0.2s-0.7,0.3-1.1,0.6l-0.5-0.7c0.8-0.7,1.6-1,2.6-1
			c0.8,0,1.4,0.2,1.9,0.6s0.7,1,0.7,1.7c0,0.5-0.2,1.1-0.5,1.6s-0.9,1.2-1.7,2l-1.9,1.8v0h4.4V952.4z"/>
		<path class="st7" d="M1086.7,948.1c0,1.5-0.2,2.6-0.7,3.3s-1.2,1.1-2.1,1.1c-0.9,0-1.6-0.4-2.1-1.1s-0.7-1.8-0.7-3.3
			c0-1.5,0.2-2.6,0.7-3.3s1.2-1.1,2.1-1.1c0.9,0,1.6,0.4,2.1,1.1S1086.7,946.6,1086.7,948.1z M1082,948.1c0,1.2,0.1,2.2,0.4,2.7
			s0.8,0.9,1.4,0.9c0.6,0,1.1-0.3,1.4-0.9s0.4-1.5,0.4-2.7s-0.1-2.1-0.4-2.7s-0.8-0.9-1.4-0.9c-0.6,0-1.1,0.3-1.4,0.8
			S1082,946.8,1082,948.1z"/>
		<path class="st7" d="M1091.5,952.4h-0.9v-6.1c0-0.5,0-1,0-1.4c-0.1,0.1-0.2,0.2-0.3,0.3s-0.6,0.5-1.4,1.1l-0.5-0.7l2.3-1.8h0.8
			V952.4z"/>
		<path class="st7" d="M1100.8,950.4h-1.3v2h-0.9v-2h-4.2v-0.8l4.1-5.8h1v5.8h1.3V950.4z M1098.6,949.5v-2.8c0-0.6,0-1.2,0.1-1.9h0
			c-0.2,0.4-0.4,0.7-0.5,0.9l-2.7,3.8H1098.6z"/>
	</g>
	<g id="patch_12-3" transform="translate(-118 379.184)">
		<path id="Path_4483" class="st10" d="M1163.6,626.1h22.7v-17h-22.7V626.1z"/>
	</g>
	<g id="patch_13-4" transform="translate(-118 379.184)">
		<path id="Path_4484" class="st11" d="M1163.6,601.3h22.7v-17h-22.7V601.3z"/>
	</g>
	<g class="st6">
		<path class="st7" d="M1079.8,976.4h-5.6v-0.8l2.3-2.3c0.7-0.7,1.1-1.2,1.4-1.5s0.4-0.6,0.5-0.9s0.2-0.6,0.2-0.9
			c0-0.5-0.1-0.8-0.4-1.1s-0.7-0.4-1.2-0.4c-0.4,0-0.7,0.1-1,0.2s-0.7,0.3-1.1,0.6l-0.5-0.7c0.8-0.7,1.6-1,2.6-1
			c0.8,0,1.4,0.2,1.9,0.6s0.7,1,0.7,1.7c0,0.5-0.2,1.1-0.5,1.6s-0.9,1.2-1.7,2l-1.9,1.8v0h4.4V976.4z"/>
		<path class="st7" d="M1086.7,972.1c0,1.5-0.2,2.6-0.7,3.3s-1.2,1.1-2.1,1.1c-0.9,0-1.6-0.4-2.1-1.1s-0.7-1.8-0.7-3.3
			c0-1.5,0.2-2.6,0.7-3.3s1.2-1.1,2.1-1.1c0.9,0,1.6,0.4,2.1,1.1S1086.7,970.6,1086.7,972.1z M1082,972.1c0,1.2,0.1,2.2,0.4,2.7
			s0.8,0.9,1.4,0.9c0.6,0,1.1-0.3,1.4-0.9s0.4-1.5,0.4-2.7s-0.1-2.1-0.4-2.7s-0.8-0.9-1.4-0.9c-0.6,0-1.1,0.3-1.4,0.8
			S1082,970.8,1082,972.1z"/>
		<path class="st7" d="M1091.5,976.4h-0.9v-6.1c0-0.5,0-1,0-1.4c-0.1,0.1-0.2,0.2-0.3,0.3s-0.6,0.5-1.4,1.1l-0.5-0.7l2.3-1.8h0.8
			V976.4z"/>
		<path class="st7" d="M1097.4,971.1c0.9,0,1.6,0.2,2.1,0.7s0.8,1.1,0.8,1.8c0,0.9-0.3,1.6-0.8,2.1s-1.3,0.8-2.3,0.8
			c-1,0-1.7-0.2-2.2-0.5v-0.9c0.3,0.2,0.6,0.3,1,0.4s0.8,0.1,1.2,0.1c0.7,0,1.2-0.2,1.6-0.5s0.6-0.8,0.6-1.4c0-1.2-0.7-1.8-2.2-1.8
			c-0.4,0-0.9,0.1-1.5,0.2l-0.5-0.3l0.3-4h4.3v0.9h-3.4l-0.2,2.6C1096.5,971.2,1097,971.1,1097.4,971.1z"/>
	</g>
	<g class="st6">
		<path class="st7" d="M1079.8,1001.4h-5.6v-0.8l2.3-2.3c0.7-0.7,1.1-1.2,1.4-1.5s0.4-0.6,0.5-0.9s0.2-0.6,0.2-0.9
			c0-0.5-0.1-0.8-0.4-1.1s-0.7-0.4-1.2-0.4c-0.4,0-0.7,0.1-1,0.2s-0.7,0.3-1.1,0.6l-0.5-0.7c0.8-0.7,1.6-1,2.6-1
			c0.8,0,1.4,0.2,1.9,0.6s0.7,1,0.7,1.7c0,0.5-0.2,1.1-0.5,1.6s-0.9,1.2-1.7,2l-1.9,1.8v0h4.4V1001.4z"/>
		<path class="st7" d="M1086.7,997.1c0,1.5-0.2,2.6-0.7,3.3s-1.2,1.1-2.1,1.1c-0.9,0-1.6-0.4-2.1-1.1s-0.7-1.8-0.7-3.3
			c0-1.5,0.2-2.6,0.7-3.3s1.2-1.1,2.1-1.1c0.9,0,1.6,0.4,2.1,1.1S1086.7,995.6,1086.7,997.1z M1082,997.1c0,1.2,0.1,2.2,0.4,2.7
			s0.8,0.9,1.4,0.9c0.6,0,1.1-0.3,1.4-0.9s0.4-1.5,0.4-2.7s-0.1-2.1-0.4-2.7s-0.8-0.9-1.4-0.9c-0.6,0-1.1,0.3-1.4,0.8
			S1082,995.8,1082,997.1z"/>
		<path class="st7" d="M1091.5,1001.4h-0.9v-6.1c0-0.5,0-1,0-1.4c-0.1,0.1-0.2,0.2-0.3,0.3s-0.6,0.5-1.4,1.1l-0.5-0.7l2.3-1.8h0.8
			V1001.4z"/>
		<path class="st7" d="M1094.8,997.7c0-1.7,0.3-2.9,1-3.8s1.6-1.3,2.9-1.3c0.4,0,0.8,0,1,0.1v0.8c-0.3-0.1-0.6-0.1-1-0.1
			c-0.9,0-1.6,0.3-2.1,0.9s-0.8,1.5-0.8,2.7h0.1c0.4-0.7,1.1-1,2-1c0.8,0,1.4,0.2,1.8,0.7s0.7,1.1,0.7,1.9c0,0.9-0.2,1.6-0.7,2.1
			s-1.1,0.8-2,0.8c-0.9,0-1.6-0.3-2.1-1S1094.8,998.9,1094.8,997.7z M1097.7,1000.7c0.6,0,1-0.2,1.3-0.5s0.5-0.9,0.5-1.5
			c0-0.6-0.1-1-0.4-1.3s-0.7-0.5-1.3-0.5c-0.4,0-0.7,0.1-1,0.2s-0.5,0.3-0.7,0.6s-0.3,0.5-0.3,0.8c0,0.4,0.1,0.8,0.2,1.1
			s0.4,0.6,0.7,0.8S1097.4,1000.7,1097.7,1000.7z"/>
	</g>
	<g id="patch_12-4" transform="translate(-118 379.184)">
		<path id="Path_4485" class="st12" d="M1163.6,675.1h22.7v-17h-22.7V675.1z"/>
	</g>
	<g id="patch_13-5" transform="translate(-118 379.184)">
		<path id="Path_4486" class="st13" d="M1163.6,650.3h22.7v-17h-22.7V650.3z"/>
	</g>
	<g class="st6">
		<path class="st7" d="M1079.8,1025.4h-5.6v-0.8l2.3-2.3c0.7-0.7,1.1-1.2,1.4-1.5s0.4-0.6,0.5-0.9s0.2-0.6,0.2-0.9
			c0-0.5-0.1-0.8-0.4-1.1s-0.7-0.4-1.2-0.4c-0.4,0-0.7,0.1-1,0.2s-0.7,0.3-1.1,0.6l-0.5-0.7c0.8-0.7,1.6-1,2.6-1
			c0.8,0,1.4,0.2,1.9,0.6s0.7,1,0.7,1.7c0,0.5-0.2,1.1-0.5,1.6s-0.9,1.2-1.7,2l-1.9,1.8v0h4.4V1025.4z"/>
		<path class="st7" d="M1086.7,1021.1c0,1.5-0.2,2.6-0.7,3.3c-0.5,0.7-1.2,1.1-2.1,1.1c-0.9,0-1.6-0.4-2.1-1.1
			c-0.5-0.7-0.7-1.8-0.7-3.3c0-1.5,0.2-2.6,0.7-3.3s1.2-1.1,2.1-1.1c0.9,0,1.6,0.4,2.1,1.1S1086.7,1019.6,1086.7,1021.1z
			 M1082,1021.1c0,1.2,0.1,2.2,0.4,2.7c0.3,0.6,0.8,0.9,1.4,0.9c0.6,0,1.1-0.3,1.4-0.9c0.3-0.6,0.4-1.5,0.4-2.7s-0.1-2.1-0.4-2.7
			s-0.8-0.9-1.4-0.9c-0.6,0-1.1,0.3-1.4,0.8S1082,1019.8,1082,1021.1z"/>
		<path class="st7" d="M1091.5,1025.4h-0.9v-6.1c0-0.5,0-1,0-1.4c-0.1,0.1-0.2,0.2-0.3,0.3s-0.6,0.5-1.4,1.1l-0.5-0.7l2.3-1.8h0.8
			V1025.4z"/>
		<path class="st7" d="M1095.8,1025.4l3.6-7.7h-4.7v-0.9h5.7v0.8l-3.5,7.8H1095.8z"/>
	</g>
	<g class="st6">
		<path class="st7" d="M1079.8,1050.4h-5.6v-0.8l2.3-2.3c0.7-0.7,1.1-1.2,1.4-1.5s0.4-0.6,0.5-0.9s0.2-0.6,0.2-0.9
			c0-0.5-0.1-0.8-0.4-1.1s-0.7-0.4-1.2-0.4c-0.4,0-0.7,0.1-1,0.2s-0.7,0.3-1.1,0.6l-0.5-0.7c0.8-0.7,1.6-1,2.6-1
			c0.8,0,1.4,0.2,1.9,0.6s0.7,1,0.7,1.7c0,0.5-0.2,1.1-0.5,1.6s-0.9,1.2-1.7,2l-1.9,1.8v0h4.4V1050.4z"/>
		<path class="st7" d="M1086.7,1046.1c0,1.5-0.2,2.6-0.7,3.3s-1.2,1.1-2.1,1.1c-0.9,0-1.6-0.4-2.1-1.1s-0.7-1.8-0.7-3.3
			c0-1.5,0.2-2.6,0.7-3.3s1.2-1.1,2.1-1.1c0.9,0,1.6,0.4,2.1,1.1S1086.7,1044.6,1086.7,1046.1z M1082,1046.1c0,1.2,0.1,2.2,0.4,2.7
			s0.8,0.9,1.4,0.9c0.6,0,1.1-0.3,1.4-0.9s0.4-1.5,0.4-2.7s-0.1-2.1-0.4-2.7s-0.8-0.9-1.4-0.9c-0.6,0-1.1,0.3-1.4,0.8
			S1082,1044.8,1082,1046.1z"/>
		<path class="st7" d="M1091.5,1050.4h-0.9v-6.1c0-0.5,0-1,0-1.4c-0.1,0.1-0.2,0.2-0.3,0.3s-0.6,0.5-1.4,1.1l-0.5-0.7l2.3-1.8h0.8
			V1050.4z"/>
		<path class="st7" d="M1097.6,1041.7c0.8,0,1.4,0.2,1.9,0.5s0.7,0.9,0.7,1.5c0,0.4-0.1,0.8-0.4,1.2s-0.7,0.7-1.3,0.9
			c0.7,0.3,1.2,0.7,1.5,1s0.4,0.8,0.4,1.3c0,0.7-0.2,1.3-0.7,1.7s-1.2,0.6-2,0.6c-0.9,0-1.6-0.2-2.1-0.6s-0.7-1-0.7-1.7
			c0-1,0.6-1.7,1.8-2.3c-0.5-0.3-0.9-0.6-1.2-1s-0.4-0.7-0.4-1.2c0-0.6,0.2-1.1,0.7-1.5S1096.8,1041.7,1097.6,1041.7z
			 M1095.7,1048.2c0,0.5,0.2,0.8,0.5,1.1s0.8,0.4,1.4,0.4c0.6,0,1-0.1,1.4-0.4s0.5-0.6,0.5-1.1c0-0.4-0.2-0.7-0.5-1
			s-0.8-0.6-1.6-0.9c-0.6,0.2-1,0.5-1.3,0.8S1095.7,1047.8,1095.7,1048.2z M1097.6,1042.5c-0.5,0-0.9,0.1-1.1,0.4s-0.4,0.5-0.4,0.9
			c0,0.4,0.1,0.7,0.3,0.9s0.7,0.5,1.3,0.8c0.6-0.2,1-0.5,1.2-0.8s0.3-0.6,0.3-0.9c0-0.4-0.1-0.7-0.4-0.9
			S1098.1,1042.5,1097.6,1042.5z"/>
	</g>
	<g class="st6">
		<path class="st7" d="M550.8,1138.9h-1.6v-8.6h-2.9v-1.4h7.5v1.4h-2.9V1138.9z"/>
		<path class="st7" d="M559.9,1138.9l-0.3-1.1h-0.1c-0.4,0.5-0.7,0.8-1.1,0.9c-0.4,0.2-0.8,0.2-1.4,0.2c-0.7,0-1.3-0.2-1.7-0.6
			s-0.6-1-0.6-1.7c0-0.8,0.3-1.4,0.9-1.8c0.6-0.4,1.5-0.6,2.6-0.6l1.3,0v-0.4c0-0.5-0.1-0.8-0.3-1.1c-0.2-0.2-0.6-0.4-1-0.4
			c-0.4,0-0.8,0.1-1.1,0.2s-0.7,0.2-1,0.4l-0.5-1.1c0.4-0.2,0.9-0.4,1.3-0.5c0.5-0.1,0.9-0.2,1.4-0.2c1,0,1.7,0.2,2.2,0.6
			c0.5,0.4,0.7,1.1,0.7,2v5.1H559.9z M557.5,1137.8c0.6,0,1.1-0.2,1.4-0.5c0.4-0.3,0.5-0.8,0.5-1.4v-0.7l-1,0
			c-0.8,0-1.3,0.2-1.7,0.4c-0.3,0.2-0.5,0.6-0.5,1c0,0.3,0.1,0.6,0.3,0.8C556.8,1137.7,557.1,1137.8,557.5,1137.8z"/>
		<path class="st7" d="M568.3,1136.8c0,0.7-0.3,1.3-0.8,1.7c-0.5,0.4-1.3,0.6-2.3,0.6c-1,0-1.8-0.2-2.4-0.5v-1.4
			c0.9,0.4,1.7,0.6,2.5,0.6c1,0,1.5-0.3,1.5-0.9c0-0.2-0.1-0.4-0.2-0.5s-0.3-0.3-0.5-0.4c-0.2-0.1-0.6-0.3-1-0.5
			c-0.9-0.3-1.5-0.7-1.8-1s-0.5-0.8-0.5-1.3c0-0.6,0.3-1.1,0.8-1.5c0.5-0.4,1.2-0.5,2.1-0.5c0.9,0,1.7,0.2,2.5,0.5l-0.5,1.2
			c-0.8-0.3-1.5-0.5-2.1-0.5c-0.8,0-1.3,0.2-1.3,0.7c0,0.2,0.1,0.4,0.3,0.6c0.2,0.2,0.7,0.4,1.4,0.7c0.6,0.2,1.1,0.5,1.4,0.7
			c0.3,0.2,0.5,0.4,0.6,0.7C568.3,1136.1,568.3,1136.4,568.3,1136.8z"/>
		<path class="st7" d="M571.6,1134.9l0.9-1.1l2.3-2.4h1.9l-3,3.2l3.2,4.3H575l-2.4-3.3l-0.9,0.7v2.6h-1.6v-10.6h1.6v5.2
			L571.6,1134.9L571.6,1134.9z"/>
		<path class="st7" d="M586.8,1136.8c0,0.7-0.3,1.3-0.8,1.7c-0.5,0.4-1.3,0.6-2.3,0.6c-1,0-1.8-0.2-2.4-0.5v-1.4
			c0.9,0.4,1.7,0.6,2.5,0.6c1,0,1.5-0.3,1.5-0.9c0-0.2-0.1-0.4-0.2-0.5s-0.3-0.3-0.5-0.4c-0.2-0.1-0.6-0.3-1-0.5
			c-0.9-0.3-1.5-0.7-1.8-1s-0.5-0.8-0.5-1.3c0-0.6,0.3-1.1,0.8-1.5c0.5-0.4,1.2-0.5,2.1-0.5c0.9,0,1.7,0.2,2.5,0.5l-0.5,1.2
			c-0.8-0.3-1.5-0.5-2.1-0.5c-0.8,0-1.3,0.2-1.3,0.7c0,0.2,0.1,0.4,0.3,0.6c0.2,0.2,0.7,0.4,1.4,0.7c0.6,0.2,1.1,0.5,1.4,0.7
			c0.3,0.2,0.5,0.4,0.6,0.7C586.7,1136.1,586.8,1136.4,586.8,1136.8z"/>
		<path class="st7" d="M593.9,1138.9l-0.2-1h-0.1c-0.2,0.4-0.5,0.6-1,0.8c-0.4,0.2-0.9,0.3-1.4,0.3c-0.9,0-1.6-0.2-2.1-0.7
			s-0.7-1.1-0.7-2.1v-4.9h1.6v4.7c0,0.6,0.1,1,0.4,1.3c0.2,0.3,0.6,0.4,1.1,0.4c0.7,0,1.2-0.2,1.5-0.6c0.3-0.4,0.5-1.1,0.5-2v-3.8
			h1.6v7.6H593.9z"/>
		<path class="st7" d="M600.5,1139.1c-1.1,0-2-0.3-2.6-1c-0.6-0.7-0.9-1.6-0.9-2.9c0-1.3,0.3-2.2,0.9-2.9s1.5-1,2.7-1
			c0.8,0,1.5,0.1,2.2,0.4l-0.5,1.3c-0.7-0.3-1.2-0.4-1.7-0.4c-1.3,0-2,0.9-2,2.6c0,0.8,0.2,1.5,0.5,1.9c0.3,0.4,0.8,0.6,1.4,0.6
			c0.7,0,1.4-0.2,2-0.5v1.4c-0.3,0.2-0.6,0.3-0.9,0.4C601.3,1139,600.9,1139.1,600.5,1139.1z"/>
		<path class="st7" d="M607.4,1139.1c-1.1,0-2-0.3-2.6-1c-0.6-0.7-0.9-1.6-0.9-2.9c0-1.3,0.3-2.2,0.9-2.9s1.5-1,2.7-1
			c0.8,0,1.5,0.1,2.2,0.4l-0.5,1.3c-0.7-0.3-1.2-0.4-1.7-0.4c-1.3,0-2,0.9-2,2.6c0,0.8,0.2,1.5,0.5,1.9c0.3,0.4,0.8,0.6,1.4,0.6
			c0.7,0,1.4-0.2,2-0.5v1.4c-0.3,0.2-0.6,0.3-0.9,0.4C608.3,1139,607.9,1139.1,607.4,1139.1z"/>
		<path class="st7" d="M614.6,1139.1c-1.2,0-2.1-0.3-2.8-1c-0.7-0.7-1-1.6-1-2.8c0-1.2,0.3-2.2,0.9-2.9s1.5-1.1,2.5-1.1
			c1,0,1.8,0.3,2.4,0.9c0.6,0.6,0.9,1.4,0.9,2.5v0.9h-5c0,0.7,0.2,1.3,0.6,1.7c0.4,0.4,0.9,0.6,1.6,0.6c0.4,0,0.9,0,1.2-0.1
			c0.4-0.1,0.8-0.2,1.2-0.4v1.3c-0.4,0.2-0.8,0.3-1.2,0.4C615.6,1139,615.1,1139.1,614.6,1139.1z M614.3,1132.4
			c-0.5,0-0.9,0.2-1.2,0.5s-0.5,0.8-0.6,1.4h3.4c0-0.6-0.2-1.1-0.5-1.4C615.2,1132.6,614.8,1132.4,614.3,1132.4z"/>
		<path class="st7" d="M624.4,1136.8c0,0.7-0.3,1.3-0.8,1.7c-0.5,0.4-1.3,0.6-2.3,0.6c-1,0-1.8-0.2-2.4-0.5v-1.4
			c0.9,0.4,1.7,0.6,2.5,0.6c1,0,1.5-0.3,1.5-0.9c0-0.2-0.1-0.4-0.2-0.5s-0.3-0.3-0.5-0.4c-0.2-0.1-0.6-0.3-1-0.5
			c-0.9-0.3-1.5-0.7-1.8-1s-0.5-0.8-0.5-1.3c0-0.6,0.3-1.1,0.8-1.5c0.5-0.4,1.2-0.5,2.1-0.5c0.9,0,1.7,0.2,2.5,0.5l-0.5,1.2
			c-0.8-0.3-1.5-0.5-2.1-0.5c-0.8,0-1.3,0.2-1.3,0.7c0,0.2,0.1,0.4,0.3,0.6c0.2,0.2,0.7,0.4,1.4,0.7c0.6,0.2,1.1,0.5,1.4,0.7
			c0.3,0.2,0.5,0.4,0.6,0.7C624.4,1136.1,624.4,1136.4,624.4,1136.8z"/>
		<path class="st7" d="M631.2,1136.8c0,0.7-0.3,1.3-0.8,1.7c-0.5,0.4-1.3,0.6-2.3,0.6c-1,0-1.8-0.2-2.4-0.5v-1.4
			c0.9,0.4,1.7,0.6,2.5,0.6c1,0,1.5-0.3,1.5-0.9c0-0.2-0.1-0.4-0.2-0.5s-0.3-0.3-0.5-0.4c-0.2-0.1-0.6-0.3-1-0.5
			c-0.9-0.3-1.5-0.7-1.8-1s-0.5-0.8-0.5-1.3c0-0.6,0.3-1.1,0.8-1.5c0.5-0.4,1.2-0.5,2.1-0.5c0.9,0,1.7,0.2,2.5,0.5l-0.5,1.2
			c-0.8-0.3-1.5-0.5-2.1-0.5c-0.8,0-1.3,0.2-1.3,0.7c0,0.2,0.1,0.4,0.3,0.6c0.2,0.2,0.7,0.4,1.4,0.7c0.6,0.2,1.1,0.5,1.4,0.7
			c0.3,0.2,0.5,0.4,0.6,0.7C631.2,1136.1,631.2,1136.4,631.2,1136.8z"/>
		<path class="st7" d="M640.4,1131.2c0.3,0,0.6,0,0.8,0.1l-0.2,1.5c-0.2-0.1-0.5-0.1-0.7-0.1c-0.6,0-1.2,0.2-1.6,0.6
			c-0.4,0.4-0.6,1-0.6,1.6v4h-1.6v-7.6h1.3l0.2,1.3h0.1c0.3-0.5,0.6-0.8,1-1.1S640,1131.2,640.4,1131.2z"/>
		<path class="st7" d="M647.4,1138.9l-0.3-1.1H647c-0.4,0.5-0.7,0.8-1.1,0.9c-0.4,0.2-0.8,0.2-1.4,0.2c-0.7,0-1.3-0.2-1.7-0.6
			s-0.6-1-0.6-1.7c0-0.8,0.3-1.4,0.9-1.8c0.6-0.4,1.5-0.6,2.6-0.6l1.3,0v-0.4c0-0.5-0.1-0.8-0.3-1.1c-0.2-0.2-0.6-0.4-1-0.4
			c-0.4,0-0.8,0.1-1.1,0.2s-0.7,0.2-1,0.4l-0.5-1.1c0.4-0.2,0.9-0.4,1.3-0.5c0.5-0.1,0.9-0.2,1.4-0.2c1,0,1.7,0.2,2.2,0.6
			c0.5,0.4,0.7,1.1,0.7,2v5.1H647.4z M645,1137.8c0.6,0,1.1-0.2,1.4-0.5c0.4-0.3,0.5-0.8,0.5-1.4v-0.7l-1,0c-0.8,0-1.3,0.2-1.7,0.4
			c-0.3,0.2-0.5,0.6-0.5,1c0,0.3,0.1,0.6,0.3,0.8C644.3,1137.7,644.6,1137.8,645,1137.8z"/>
		<path class="st7" d="M653.6,1137.8c0.4,0,0.8-0.1,1.2-0.2v1.2c-0.2,0.1-0.4,0.1-0.7,0.2c-0.3,0.1-0.6,0.1-0.9,0.1
			c-1.5,0-2.3-0.8-2.3-2.4v-4.1h-1v-0.7l1.1-0.6l0.5-1.6h1v1.7h2.2v1.2h-2.2v4c0,0.4,0.1,0.7,0.3,0.9
			C653,1137.7,653.3,1137.8,653.6,1137.8z"/>
		<path class="st7" d="M659.6,1139.1c-1.2,0-2.1-0.3-2.8-1c-0.7-0.7-1-1.6-1-2.8c0-1.2,0.3-2.2,0.9-2.9s1.5-1.1,2.5-1.1
			c1,0,1.8,0.3,2.4,0.9c0.6,0.6,0.9,1.4,0.9,2.5v0.9h-5c0,0.7,0.2,1.3,0.6,1.7c0.4,0.4,0.9,0.6,1.6,0.6c0.4,0,0.9,0,1.2-0.1
			c0.4-0.1,0.8-0.2,1.2-0.4v1.3c-0.4,0.2-0.8,0.3-1.2,0.4C660.5,1139,660.1,1139.1,659.6,1139.1z M659.3,1132.4
			c-0.5,0-0.9,0.2-1.2,0.5s-0.5,0.8-0.6,1.4h3.4c0-0.6-0.2-1.1-0.5-1.4C660.2,1132.6,659.8,1132.4,659.3,1132.4z"/>
		<path class="st7" d="M671.8,1132.6h-1.8v6.3h-1.6v-6.3h-1.2v-0.8l1.2-0.5v-0.5c0-0.9,0.2-1.6,0.6-2c0.4-0.4,1.1-0.6,1.9-0.6
			c0.6,0,1.1,0.1,1.7,0.3l-0.4,1.2c-0.4-0.1-0.8-0.2-1.1-0.2c-0.4,0-0.6,0.1-0.8,0.3c-0.2,0.2-0.2,0.6-0.2,1v0.5h1.8V1132.6z"/>
		<path class="st7" d="M679.8,1135.1c0,1.2-0.3,2.2-1,2.9c-0.6,0.7-1.5,1-2.6,1c-0.7,0-1.3-0.2-1.9-0.5c-0.5-0.3-1-0.8-1.3-1.4
			c-0.3-0.6-0.4-1.3-0.4-2.1c0-1.2,0.3-2.2,0.9-2.9s1.5-1,2.7-1c1.1,0,2,0.4,2.6,1.1C679.4,1133,679.8,1133.9,679.8,1135.1z
			 M674.3,1135.1c0,1.7,0.6,2.6,1.9,2.6c1.3,0,1.9-0.9,1.9-2.6c0-1.7-0.6-2.6-1.9-2.6c-0.7,0-1.2,0.2-1.5,0.7
			C674.4,1133.6,674.3,1134.3,674.3,1135.1z"/>
		<path class="st7" d="M685.4,1131.2c0.3,0,0.6,0,0.8,0.1l-0.2,1.5c-0.2-0.1-0.5-0.1-0.7-0.1c-0.6,0-1.2,0.2-1.6,0.6
			c-0.4,0.4-0.6,1-0.6,1.6v4h-1.6v-7.6h1.3l0.2,1.3h0.1c0.3-0.5,0.6-0.8,1-1.1S685,1131.2,685.4,1131.2z"/>
		<path class="st7" d="M694.1,1137.8c0.4,0,0.8-0.1,1.2-0.2v1.2c-0.2,0.1-0.4,0.1-0.7,0.2c-0.3,0.1-0.6,0.1-0.9,0.1
			c-1.5,0-2.3-0.8-2.3-2.4v-4.1h-1v-0.7l1.1-0.6l0.5-1.6h1v1.7h2.2v1.2H693v4c0,0.4,0.1,0.7,0.3,0.9
			C693.5,1137.7,693.8,1137.8,694.1,1137.8z"/>
		<path class="st7" d="M703.4,1138.9h-1.6v-4.6c0-0.6-0.1-1-0.4-1.3c-0.2-0.3-0.6-0.4-1.1-0.4c-0.7,0-1.2,0.2-1.5,0.6
			c-0.3,0.4-0.5,1.1-0.5,2v3.8h-1.6v-10.6h1.6v2.7c0,0.4,0,0.9-0.1,1.4h0.1c0.2-0.4,0.5-0.6,0.9-0.8c0.4-0.2,0.8-0.3,1.4-0.3
			c1.8,0,2.7,0.9,2.7,2.8V1138.9z"/>
		<path class="st7" d="M709,1139.1c-1.2,0-2.1-0.3-2.8-1c-0.7-0.7-1-1.6-1-2.8c0-1.2,0.3-2.2,0.9-2.9s1.5-1.1,2.5-1.1
			c1,0,1.8,0.3,2.4,0.9s0.9,1.4,0.9,2.5v0.9h-5c0,0.7,0.2,1.3,0.6,1.7c0.4,0.4,0.9,0.6,1.6,0.6c0.4,0,0.9,0,1.2-0.1
			c0.4-0.1,0.8-0.2,1.2-0.4v1.3c-0.4,0.2-0.8,0.3-1.2,0.4S709.5,1139.1,709,1139.1z M708.7,1132.4c-0.5,0-0.9,0.2-1.2,0.5
			c-0.3,0.3-0.5,0.8-0.6,1.4h3.4c0-0.6-0.2-1.1-0.5-1.4C709.6,1132.6,709.2,1132.4,708.7,1132.4z"/>
		<path class="st7" d="M716.2,1131.4h1.8l1.5,4.3c0.2,0.6,0.4,1.2,0.5,1.7h0.1c0-0.3,0.1-0.6,0.2-0.9c0.1-0.4,0.7-2.1,1.7-5.1h1.7
			l-3.2,8.6c-0.6,1.6-1.6,2.4-2.9,2.4c-0.4,0-0.7,0-1-0.1v-1.3c0.2,0.1,0.5,0.1,0.8,0.1c0.8,0,1.3-0.4,1.6-1.3l0.3-0.7L716.2,1131.4
			z"/>
		<path class="st7" d="M728.2,1139.1c-1.2,0-2.1-0.3-2.8-1c-0.7-0.7-1-1.6-1-2.8c0-1.2,0.3-2.2,0.9-2.9s1.5-1.1,2.5-1.1
			c1,0,1.8,0.3,2.4,0.9s0.9,1.4,0.9,2.5v0.9h-5c0,0.7,0.2,1.3,0.6,1.7c0.4,0.4,0.9,0.6,1.6,0.6c0.4,0,0.9,0,1.2-0.1
			c0.4-0.1,0.8-0.2,1.2-0.4v1.3c-0.4,0.2-0.8,0.3-1.2,0.4S728.7,1139.1,728.2,1139.1z M727.9,1132.4c-0.5,0-0.9,0.2-1.2,0.5
			c-0.3,0.3-0.5,0.8-0.6,1.4h3.4c0-0.6-0.2-1.1-0.5-1.4C728.8,1132.6,728.4,1132.4,727.9,1132.4z"/>
		<path class="st7" d="M737.7,1138.9l-0.3-1.1h-0.1c-0.4,0.5-0.7,0.8-1.1,0.9c-0.4,0.2-0.8,0.2-1.4,0.2c-0.7,0-1.3-0.2-1.7-0.6
			c-0.4-0.4-0.6-1-0.6-1.7c0-0.8,0.3-1.4,0.9-1.8s1.5-0.6,2.6-0.6l1.3,0v-0.4c0-0.5-0.1-0.8-0.3-1.1c-0.2-0.2-0.6-0.4-1-0.4
			c-0.4,0-0.8,0.1-1.1,0.2s-0.7,0.2-1,0.4l-0.5-1.1c0.4-0.2,0.9-0.4,1.3-0.5c0.5-0.1,0.9-0.2,1.4-0.2c1,0,1.7,0.2,2.2,0.6
			c0.5,0.4,0.7,1.1,0.7,2v5.1H737.7z M735.3,1137.8c0.6,0,1.1-0.2,1.4-0.5c0.4-0.3,0.5-0.8,0.5-1.4v-0.7l-1,0
			c-0.8,0-1.3,0.2-1.7,0.4c-0.3,0.2-0.5,0.6-0.5,1c0,0.3,0.1,0.6,0.3,0.8C734.6,1137.7,734.9,1137.8,735.3,1137.8z"/>
		<path class="st7" d="M744.9,1131.2c0.3,0,0.6,0,0.8,0.1l-0.2,1.5c-0.2-0.1-0.5-0.1-0.7-0.1c-0.6,0-1.2,0.2-1.6,0.6
			c-0.4,0.4-0.6,1-0.6,1.6v4h-1.6v-7.6h1.3l0.2,1.3h0.1c0.3-0.5,0.6-0.8,1-1.1C744,1131.3,744.4,1131.2,744.9,1131.2z"/>
	</g>
	<g class="st6">
		<path class="st7" d="M477.9,893.9c1.1,0,1.9,0.2,2.6,0.7c0.6,0.5,0.9,1.2,0.9,2c0,1.2-0.7,2.1-2.1,2.8c0.9,0.4,1.5,0.9,1.9,1.4
			c0.4,0.5,0.6,1,0.6,1.7c0,0.9-0.3,1.7-1,2.3c-0.7,0.6-1.6,0.9-2.8,0.9c-1.2,0-2.2-0.3-2.9-0.8c-0.7-0.5-1-1.3-1-2.3
			c0-0.6,0.2-1.2,0.5-1.7c0.4-0.5,0.9-1,1.8-1.4c-0.7-0.4-1.2-0.9-1.5-1.3s-0.4-1-0.4-1.6c0-0.8,0.3-1.5,1-2
			C476,894.1,476.8,893.9,477.9,893.9z M475.8,902.5c0,0.5,0.2,1,0.6,1.3c0.4,0.3,0.9,0.4,1.5,0.4c0.7,0,1.2-0.2,1.6-0.5
			c0.4-0.3,0.6-0.7,0.6-1.3c0-0.4-0.2-0.8-0.5-1.2s-0.9-0.7-1.6-1l-0.2-0.1c-0.7,0.3-1.2,0.6-1.5,1
			C475.9,901.6,475.8,902,475.8,902.5z M477.9,895.3c-0.5,0-0.9,0.1-1.3,0.4c-0.3,0.3-0.5,0.6-0.5,1.1c0,0.3,0.1,0.5,0.2,0.7
			c0.1,0.2,0.3,0.4,0.5,0.6s0.6,0.4,1.1,0.6c0.6-0.3,1.1-0.6,1.3-0.9s0.4-0.7,0.4-1.1c0-0.4-0.2-0.8-0.5-1.1
			S478.4,895.3,477.9,895.3z"/>
		<path class="st7" d="M490.9,899.7c0,2-0.3,3.5-1,4.4c-0.6,1-1.6,1.4-2.9,1.4c-1.3,0-2.2-0.5-2.9-1.5s-1-2.5-1-4.4
			c0-2,0.3-3.5,1-4.5c0.6-1,1.6-1.4,2.9-1.4c1.3,0,2.2,0.5,2.9,1.5S490.9,897.8,490.9,899.7z M485,899.7c0,1.6,0.2,2.7,0.5,3.3
			s0.8,1,1.5,1s1.2-0.3,1.5-1c0.3-0.7,0.5-1.8,0.5-3.3c0-1.5-0.2-2.6-0.5-3.3c-0.3-0.7-0.8-1-1.5-1s-1.2,0.3-1.5,1
			S485,898.2,485,899.7z"/>
		<path class="st7" d="M497.3,897.4c0,1.2-0.2,2.1-0.6,2.7s-1.1,0.9-1.9,0.9c-0.8,0-1.4-0.3-1.8-0.9c-0.4-0.6-0.7-1.5-0.7-2.7
			c0-2.4,0.8-3.6,2.5-3.6c0.8,0,1.4,0.3,1.9,0.9C497.1,895.4,497.3,896.3,497.3,897.4z M493.8,897.4c0,0.8,0.1,1.4,0.2,1.7
			c0.2,0.4,0.4,0.6,0.7,0.6c0.7,0,1-0.8,1-2.3s-0.3-2.3-1-2.3c-0.3,0-0.6,0.2-0.7,0.6C493.8,896.1,493.8,896.7,493.8,897.4z
			 M502.4,894l-6.3,11.4h-1.5l6.3-11.4H502.4z M504.7,902c0,1.2-0.2,2.1-0.6,2.7c-0.4,0.6-1.1,0.9-1.9,0.9c-0.8,0-1.4-0.3-1.8-0.9
			s-0.7-1.5-0.7-2.7c0-2.4,0.8-3.6,2.5-3.6c0.8,0,1.4,0.3,1.9,0.9S504.7,900.8,504.7,902z M501.2,902c0,0.8,0.1,1.4,0.2,1.7
			c0.2,0.4,0.4,0.6,0.7,0.6c0.7,0,1-0.8,1-2.3c0-1.5-0.3-2.3-1-2.3c-0.3,0-0.6,0.2-0.7,0.6C501.3,900.6,501.2,901.2,501.2,902z"/>
	</g>
	<g id="Group_4722" transform="translate(-118 379.184)">
		<path id="Path_4487" class="st9" d="M517,734.3h56.5V559H517V734.3z"/>
	</g>
	<g class="st6">
		<path class="st7" d="M413.3,933.4l4.5-9.8h-5.9V922h7.9v1.3l-4.5,10.1H413.3z"/>
		<path class="st7" d="M428.5,924.6c0,0.7-0.2,1.3-0.6,1.8s-1,0.8-1.8,1v0.1c0.9,0.1,1.6,0.4,2.1,0.9c0.5,0.5,0.7,1.1,0.7,1.8
			c0,1.1-0.4,1.9-1.2,2.5c-0.8,0.6-1.9,0.9-3.3,0.9c-1.3,0-2.3-0.2-3.2-0.6v-1.6c0.5,0.2,1,0.4,1.5,0.6c0.5,0.1,1.1,0.2,1.6,0.2
			c0.9,0,1.5-0.2,2-0.5s0.7-0.8,0.7-1.5c0-0.6-0.2-1.1-0.7-1.3s-1.2-0.4-2.3-0.4h-1v-1.5h1c1.8,0,2.7-0.6,2.7-1.9
			c0-0.5-0.2-0.9-0.5-1.1c-0.3-0.3-0.8-0.4-1.4-0.4c-0.4,0-0.8,0.1-1.2,0.2c-0.4,0.1-0.9,0.4-1.4,0.7l-0.9-1.3
			c1-0.8,2.3-1.2,3.6-1.2c1.2,0,2,0.2,2.7,0.7C428.1,923.1,428.5,923.8,428.5,924.6z"/>
		<path class="st7" d="M435.3,925.4c0,1.2-0.2,2.1-0.6,2.7s-1.1,0.9-1.9,0.9c-0.8,0-1.4-0.3-1.8-0.9c-0.4-0.6-0.7-1.5-0.7-2.7
			c0-2.4,0.8-3.6,2.5-3.6c0.8,0,1.4,0.3,1.9,0.9C435.1,923.4,435.3,924.3,435.3,925.4z M431.8,925.4c0,0.8,0.1,1.4,0.2,1.7
			c0.2,0.4,0.4,0.6,0.7,0.6c0.7,0,1-0.8,1-2.3s-0.3-2.3-1-2.3c-0.3,0-0.6,0.2-0.7,0.6C431.8,924.1,431.8,924.7,431.8,925.4z
			 M440.4,922l-6.3,11.4h-1.5l6.3-11.4H440.4z M442.7,930c0,1.2-0.2,2.1-0.6,2.7c-0.4,0.6-1.1,0.9-1.9,0.9c-0.8,0-1.4-0.3-1.8-0.9
			s-0.7-1.5-0.7-2.7c0-2.4,0.8-3.6,2.5-3.6c0.8,0,1.4,0.3,1.9,0.9S442.7,928.8,442.7,930z M439.2,930c0,0.8,0.1,1.4,0.2,1.7
			c0.2,0.4,0.4,0.6,0.7,0.6c0.7,0,1-0.8,1-2.3c0-1.5-0.3-2.3-1-2.3c-0.3,0-0.6,0.2-0.7,0.6C439.3,928.6,439.2,929.2,439.2,930z"/>
	</g>
	<g class="st6">
		<path class="st7" d="M544.4,864.1c0,2.2-0.5,3.9-1.4,5s-2.3,1.7-4.1,1.7c-0.7,0-1.2,0-1.5-0.1v-1.5c0.5,0.1,0.9,0.2,1.4,0.2
			c1.2,0,2.2-0.3,2.8-1s0.9-1.7,1-3.1h-0.1c-0.3,0.5-0.7,0.8-1.1,1c-0.4,0.2-0.9,0.3-1.5,0.3c-1,0-1.8-0.3-2.4-0.9s-0.9-1.5-0.9-2.6
			c0-1.2,0.3-2.1,1-2.8c0.7-0.7,1.6-1.1,2.7-1.1c0.8,0,1.5,0.2,2.1,0.6c0.6,0.4,1.1,1,1.4,1.7S544.4,863.1,544.4,864.1z
			 M540.4,860.6c-0.6,0-1.1,0.2-1.5,0.6c-0.3,0.4-0.5,1-0.5,1.7c0,0.7,0.2,1.2,0.5,1.5c0.3,0.4,0.8,0.6,1.4,0.6
			c0.6,0,1.1-0.2,1.6-0.6s0.6-0.8,0.6-1.3c0-0.5-0.1-0.9-0.3-1.3s-0.4-0.7-0.8-1C541.2,860.8,540.8,860.6,540.4,860.6z"/>
		<path class="st7" d="M553.9,868.2h-1.5v2.5h-1.8v-2.5h-5.2v-1.4l5.2-7.5h1.8v7.4h1.5V868.2z M550.6,866.7v-2.9c0-1,0-1.9,0.1-2.5
			h-0.1c-0.1,0.3-0.4,0.8-0.7,1.2l-2.8,4.1H550.6z"/>
		<path class="st7" d="M559.9,862.7c0,1.2-0.2,2.1-0.6,2.7s-1.1,0.9-1.9,0.9c-0.8,0-1.4-0.3-1.8-0.9c-0.4-0.6-0.7-1.5-0.7-2.7
			c0-2.4,0.8-3.6,2.5-3.6c0.8,0,1.4,0.3,1.9,0.9C559.7,860.6,559.9,861.5,559.9,862.7z M556.4,862.7c0,0.8,0.1,1.4,0.2,1.7
			c0.2,0.4,0.4,0.6,0.7,0.6c0.7,0,1-0.8,1-2.3s-0.3-2.3-1-2.3c-0.3,0-0.6,0.2-0.7,0.6C556.5,861.3,556.4,861.9,556.4,862.7z
			 M565,859.3l-6.3,11.4h-1.5l6.3-11.4H565z M567.4,867.2c0,1.2-0.2,2.1-0.6,2.7c-0.4,0.6-1.1,0.9-1.9,0.9c-0.8,0-1.4-0.3-1.8-0.9
			s-0.7-1.5-0.7-2.7c0-2.4,0.8-3.6,2.5-3.6c0.8,0,1.4,0.3,1.9,0.9S567.4,866.1,567.4,867.2z M563.8,867.2c0,0.8,0.1,1.4,0.2,1.7
			c0.2,0.4,0.4,0.6,0.7,0.6c0.7,0,1-0.8,1-2.3c0-1.5-0.3-2.3-1-2.3c-0.3,0-0.6,0.2-0.7,0.6C563.9,865.9,563.8,866.5,563.8,867.2z"/>
	</g>
	<g class="st6">
		<path class="st7" d="M607.2,1052.2h-7.7v-1.4l2.9-3c0.9-0.9,1.4-1.5,1.7-1.9c0.3-0.4,0.5-0.7,0.6-1.1c0.1-0.3,0.2-0.7,0.2-1.1
			c0-0.5-0.2-0.9-0.5-1.2c-0.3-0.3-0.7-0.4-1.3-0.4c-0.4,0-0.9,0.1-1.3,0.2c-0.4,0.2-0.9,0.5-1.4,0.9l-1-1.2
			c0.6-0.5,1.3-0.9,1.9-1.1c0.6-0.2,1.2-0.3,1.9-0.3c1.1,0,1.9,0.3,2.6,0.8s1,1.3,1,2.2c0,0.5-0.1,1-0.3,1.5
			c-0.2,0.5-0.5,0.9-0.9,1.4s-1,1.2-1.9,2l-2,1.9v0.1h5.4V1052.2z"/>
		<path class="st7" d="M616.3,1046.5c0,2-0.3,3.5-1,4.4c-0.6,1-1.6,1.4-2.9,1.4c-1.3,0-2.2-0.5-2.9-1.5s-1-2.5-1-4.4
			c0-2,0.3-3.5,1-4.5c0.6-1,1.6-1.4,2.9-1.4c1.3,0,2.2,0.5,2.9,1.5S616.3,1044.6,616.3,1046.5z M610.4,1046.5c0,1.6,0.2,2.7,0.5,3.3
			s0.8,1,1.5,1s1.2-0.3,1.5-1c0.3-0.7,0.5-1.8,0.5-3.3c0-1.5-0.2-2.6-0.5-3.3c-0.3-0.7-0.8-1-1.5-1s-1.2,0.3-1.5,1
			S610.4,1045,610.4,1046.5z"/>
		<path class="st7" d="M622.7,1044.2c0,1.2-0.2,2.1-0.6,2.7s-1.1,0.9-1.9,0.9c-0.8,0-1.4-0.3-1.8-0.9c-0.4-0.6-0.7-1.5-0.7-2.7
			c0-2.4,0.8-3.6,2.5-3.6c0.8,0,1.4,0.3,1.9,0.9C622.4,1042.2,622.7,1043.1,622.7,1044.2z M619.2,1044.2c0,0.8,0.1,1.4,0.2,1.7
			c0.2,0.4,0.4,0.6,0.7,0.6c0.7,0,1-0.8,1-2.3s-0.3-2.3-1-2.3c-0.3,0-0.6,0.2-0.7,0.6C619.2,1042.9,619.2,1043.5,619.2,1044.2z
			 M627.8,1040.8l-6.3,11.4h-1.5l6.3-11.4H627.8z M630.1,1048.8c0,1.2-0.2,2.1-0.6,2.7c-0.4,0.6-1.1,0.9-1.9,0.9
			c-0.8,0-1.4-0.3-1.8-0.9s-0.7-1.5-0.7-2.7c0-2.4,0.8-3.6,2.5-3.6c0.8,0,1.4,0.3,1.9,0.9S630.1,1047.6,630.1,1048.8z M626.6,1048.8
			c0,0.8,0.1,1.4,0.2,1.7c0.2,0.4,0.4,0.6,0.7,0.6c0.7,0,1-0.8,1-2.3c0-1.5-0.3-2.3-1-2.3c-0.3,0-0.6,0.2-0.7,0.6
			C626.7,1047.4,626.6,1048,626.6,1048.8z"/>
	</g>
	<g class="st6">
		<path class="st7" d="M670.6,994.7H669v2.5h-1.8v-2.5H662v-1.4l5.2-7.5h1.8v7.4h1.5V994.7z M667.2,993.2v-2.9c0-1,0-1.9,0.1-2.5
			h-0.1c-0.1,0.3-0.4,0.8-0.7,1.2l-2.8,4.1H667.2z"/>
		<path class="st7" d="M676.9,997.2h-1.8v-7.4c0-0.9,0-1.6,0.1-2.1c-0.1,0.1-0.3,0.3-0.4,0.4c-0.2,0.2-0.8,0.6-1.8,1.4l-0.9-1.2
			l3.4-2.6h1.5V997.2z"/>
		<path class="st7" d="M685.7,989.2c0,1.2-0.2,2.1-0.6,2.7s-1.1,0.9-1.9,0.9c-0.8,0-1.4-0.3-1.8-0.9c-0.4-0.6-0.7-1.5-0.7-2.7
			c0-2.4,0.8-3.6,2.5-3.6c0.8,0,1.4,0.3,1.9,0.9C685.4,987.2,685.7,988.1,685.7,989.2z M682.2,989.2c0,0.8,0.1,1.4,0.2,1.7
			c0.2,0.4,0.4,0.6,0.7,0.6c0.7,0,1-0.8,1-2.3s-0.3-2.3-1-2.3c-0.3,0-0.6,0.2-0.7,0.6C682.2,987.9,682.2,988.5,682.2,989.2z
			 M690.8,985.8l-6.3,11.4h-1.5l6.3-11.4H690.8z M693.1,993.8c0,1.2-0.2,2.1-0.6,2.7c-0.4,0.6-1.1,0.9-1.9,0.9
			c-0.8,0-1.4-0.3-1.8-0.9s-0.7-1.5-0.7-2.7c0-2.4,0.8-3.6,2.5-3.6c0.8,0,1.4,0.3,1.9,0.9S693.1,992.6,693.1,993.8z M689.6,993.8
			c0,0.8,0.1,1.4,0.2,1.7c0.2,0.4,0.4,0.6,0.7,0.6c0.7,0,1-0.8,1-2.3c0-1.5-0.3-2.3-1-2.3c-0.3,0-0.6,0.2-0.7,0.6
			C689.7,992.4,689.6,993,689.6,993.8z"/>
	</g>
	<g id="patch_6-2" transform="translate(-118 379.184)">
		<g id="Group_4723">
			<path id="Path_4488" class="st13" d="M955.5,734.3h56.5V692h-56.5V734.3z"/>
		</g>
	</g>
	<g id="patch_3-2" transform="translate(-118 379.184)">
		<g id="Group_4724">
			<path id="Path_4489" class="st10" d="M892.9,734.3h56.5V546h-56.5V734.3z"/>
		</g>
	</g>
	<g id="Group_4725" transform="translate(-118 379.184)">
		<path id="Path_4490" class="st11" d="M830,734.3h56.5V534H830V734.3z"/>
	</g>
	<g id="patch_4-2" transform="translate(-118 379.184)">
		<g id="Group_4726">
			<path id="Path_4491" class="st12" d="M1017.5,734.3h56.5V643h-56.5L1017.5,734.3z"/>
		</g>
	</g>
	<g class="st6">
		<path class="st7" d="M728.9,893.9c1.1,0,1.9,0.2,2.6,0.7s0.9,1.2,0.9,2c0,1.2-0.7,2.1-2.1,2.8c0.9,0.4,1.5,0.9,1.9,1.4
			s0.6,1,0.6,1.7c0,0.9-0.3,1.7-1,2.3s-1.6,0.9-2.8,0.9c-1.2,0-2.2-0.3-2.9-0.8s-1-1.3-1-2.3c0-0.6,0.2-1.2,0.5-1.7
			c0.4-0.5,0.9-1,1.8-1.4c-0.7-0.4-1.2-0.9-1.5-1.3s-0.4-1-0.4-1.6c0-0.8,0.3-1.5,1-2S727.8,893.9,728.9,893.9z M726.8,902.5
			c0,0.5,0.2,1,0.6,1.3s0.9,0.4,1.5,0.4c0.7,0,1.2-0.2,1.6-0.5s0.6-0.7,0.6-1.3c0-0.4-0.2-0.8-0.5-1.2s-0.9-0.7-1.6-1l-0.2-0.1
			c-0.7,0.3-1.2,0.6-1.5,1S726.8,902,726.8,902.5z M728.9,895.3c-0.5,0-0.9,0.1-1.3,0.4s-0.5,0.6-0.5,1.1c0,0.3,0.1,0.5,0.2,0.7
			s0.3,0.4,0.5,0.6s0.6,0.4,1.1,0.6c0.6-0.3,1.1-0.6,1.3-0.9s0.4-0.7,0.4-1.1c0-0.4-0.2-0.8-0.5-1.1S729.4,895.3,728.9,895.3z"/>
		<path class="st7" d="M741.9,899.7c0,2-0.3,3.5-1,4.4s-1.6,1.4-2.9,1.4c-1.3,0-2.2-0.5-2.9-1.5s-1-2.5-1-4.4c0-2,0.3-3.5,1-4.5
			s1.6-1.4,2.9-1.4c1.3,0,2.2,0.5,2.9,1.5S741.9,897.8,741.9,899.7z M736,899.7c0,1.6,0.2,2.7,0.5,3.3s0.8,1,1.5,1s1.2-0.3,1.5-1
			s0.5-1.8,0.5-3.3c0-1.5-0.2-2.6-0.5-3.3s-0.8-1-1.5-1s-1.2,0.3-1.5,1S736,898.2,736,899.7z"/>
		<path class="st7" d="M748.3,897.4c0,1.2-0.2,2.1-0.6,2.7s-1.1,0.9-1.9,0.9c-0.8,0-1.4-0.3-1.8-0.9s-0.7-1.5-0.7-2.7
			c0-2.4,0.8-3.6,2.5-3.6c0.8,0,1.4,0.3,1.9,0.9S748.3,896.3,748.3,897.4z M744.8,897.4c0,0.8,0.1,1.4,0.2,1.7s0.4,0.6,0.7,0.6
			c0.7,0,1-0.8,1-2.3s-0.3-2.3-1-2.3c-0.3,0-0.6,0.2-0.7,0.6S744.8,896.7,744.8,897.4z M753.4,894l-6.3,11.4h-1.5l6.3-11.4H753.4z
			 M755.7,902c0,1.2-0.2,2.1-0.6,2.7s-1.1,0.9-1.9,0.9c-0.8,0-1.4-0.3-1.8-0.9s-0.7-1.5-0.7-2.7c0-2.4,0.8-3.6,2.5-3.6
			c0.8,0,1.4,0.3,1.9,0.9S755.7,900.8,755.7,902z M752.2,902c0,0.8,0.1,1.4,0.2,1.7s0.4,0.6,0.7,0.6c0.7,0,1-0.8,1-2.3
			c0-1.5-0.3-2.3-1-2.3c-0.3,0-0.6,0.2-0.7,0.6S752.2,901.2,752.2,902z"/>
	</g>
	<g class="st6">
		<path class="st7" d="M789,915.7l4.5-9.8h-5.9v-1.6h7.9v1.3l-4.5,10.1H789z"/>
		<path class="st7" d="M796.8,910.8c0-4.5,1.8-6.7,5.5-6.7c0.6,0,1.1,0,1.5,0.1v1.5c-0.4-0.1-0.9-0.2-1.4-0.2c-1.2,0-2.1,0.3-2.8,1
			c-0.6,0.7-0.9,1.7-1,3.2h0.1c0.2-0.4,0.6-0.7,1-1c0.4-0.2,1-0.3,1.6-0.3c1,0,1.8,0.3,2.4,1s0.9,1.5,0.9,2.6c0,1.2-0.3,2.1-1,2.8
			c-0.7,0.7-1.6,1-2.7,1c-0.8,0-1.5-0.2-2.1-0.6c-0.6-0.4-1.1-1-1.4-1.7C797,912.8,796.8,911.9,796.8,910.8z M800.8,914.3
			c0.6,0,1.1-0.2,1.5-0.6c0.3-0.4,0.5-1,0.5-1.7c0-0.7-0.2-1.2-0.5-1.5s-0.8-0.6-1.4-0.6c-0.4,0-0.8,0.1-1.1,0.3
			c-0.3,0.2-0.6,0.4-0.8,0.7c-0.2,0.3-0.3,0.6-0.3,0.9c0,0.7,0.2,1.4,0.6,1.9S800.2,914.3,800.8,914.3z"/>
		<path class="st7" d="M810.9,907.7c0,1.2-0.2,2.1-0.6,2.7s-1.1,0.9-1.9,0.9c-0.8,0-1.4-0.3-1.8-0.9c-0.4-0.6-0.7-1.5-0.7-2.7
			c0-2.4,0.8-3.6,2.5-3.6c0.8,0,1.4,0.3,1.9,0.9C810.7,905.6,810.9,906.5,810.9,907.7z M807.4,907.7c0,0.8,0.1,1.4,0.2,1.7
			c0.2,0.4,0.4,0.6,0.7,0.6c0.7,0,1-0.8,1-2.3s-0.3-2.3-1-2.3c-0.3,0-0.6,0.2-0.7,0.6C807.5,906.3,807.4,906.9,807.4,907.7z
			 M816,904.3l-6.3,11.4h-1.5l6.3-11.4H816z M818.4,912.2c0,1.2-0.2,2.1-0.6,2.7c-0.4,0.6-1.1,0.9-1.9,0.9c-0.8,0-1.4-0.3-1.8-0.9
			s-0.7-1.5-0.7-2.7c0-2.4,0.8-3.6,2.5-3.6c0.8,0,1.4,0.3,1.9,0.9S818.4,911.1,818.4,912.2z M814.8,912.2c0,0.8,0.1,1.4,0.2,1.7
			c0.2,0.4,0.4,0.6,0.7,0.6c0.7,0,1-0.8,1-2.3c0-1.5-0.3-2.3-1-2.3c-0.3,0-0.6,0.2-0.7,0.6C814.9,910.9,814.8,911.5,814.8,912.2z"/>
	</g>
	<g class="st6">
		<path class="st7" d="M855.8,1062.2H854v-7.4c0-0.9,0-1.6,0.1-2.1c-0.1,0.1-0.3,0.3-0.4,0.4c-0.2,0.2-0.8,0.6-1.8,1.4l-0.9-1.2
			l3.4-2.6h1.5V1062.2z"/>
		<path class="st7" d="M863.4,1055.1c1.2,0,2.1,0.3,2.7,0.9s1,1.4,1,2.5c0,1.2-0.4,2.2-1.1,2.9c-0.8,0.7-1.8,1-3.3,1
			c-1.3,0-2.3-0.2-3-0.6v-1.7c0.4,0.2,0.9,0.4,1.5,0.6s1.1,0.2,1.5,0.2c0.8,0,1.5-0.2,1.9-0.6c0.4-0.4,0.6-0.9,0.6-1.6
			c0-1.4-0.9-2-2.6-2c-0.2,0-0.5,0-0.9,0.1s-0.7,0.1-0.9,0.2l-0.8-0.5l0.4-5.6h5.9v1.6H862l-0.3,2.8c0.2,0,0.4-0.1,0.7-0.1
			C862.7,1055.1,863,1055.1,863.4,1055.1z"/>
		<path class="st7" d="M873.7,1054.2c0,1.2-0.2,2.1-0.6,2.7s-1.1,0.9-1.9,0.9c-0.8,0-1.4-0.3-1.8-0.9c-0.4-0.6-0.7-1.5-0.7-2.7
			c0-2.4,0.8-3.6,2.5-3.6c0.8,0,1.4,0.3,1.9,0.9C873.4,1052.2,873.7,1053.1,873.7,1054.2z M870.2,1054.2c0,0.8,0.1,1.4,0.2,1.7
			c0.2,0.4,0.4,0.6,0.7,0.6c0.7,0,1-0.8,1-2.3s-0.3-2.3-1-2.3c-0.3,0-0.6,0.2-0.7,0.6C870.2,1052.9,870.2,1053.5,870.2,1054.2z
			 M878.8,1050.8l-6.3,11.4h-1.5l6.3-11.4H878.8z M881.1,1058.8c0,1.2-0.2,2.1-0.6,2.7c-0.4,0.6-1.1,0.9-1.9,0.9
			c-0.8,0-1.4-0.3-1.8-0.9s-0.7-1.5-0.7-2.7c0-2.4,0.8-3.6,2.5-3.6c0.8,0,1.4,0.3,1.9,0.9S881.1,1057.6,881.1,1058.8z M877.6,1058.8
			c0,0.8,0.1,1.4,0.2,1.7c0.2,0.4,0.4,0.6,0.7,0.6c0.7,0,1-0.8,1-2.3c0-1.5-0.3-2.3-1-2.3c-0.3,0-0.6,0.2-0.7,0.6
			C877.7,1057.4,877.6,1058,877.6,1058.8z"/>
	</g>
	<g class="st6">
		<path class="st7" d="M919.7,1002.4c0,0.7-0.2,1.3-0.6,1.8s-1,0.8-1.8,1v0.1c0.9,0.1,1.6,0.4,2.1,0.9c0.5,0.5,0.7,1.1,0.7,1.8
			c0,1.1-0.4,1.9-1.2,2.5c-0.8,0.6-1.9,0.9-3.3,0.9c-1.3,0-2.3-0.2-3.2-0.6v-1.6c0.5,0.2,1,0.4,1.5,0.6c0.5,0.1,1.1,0.2,1.6,0.2
			c0.9,0,1.5-0.2,2-0.5s0.7-0.8,0.7-1.5c0-0.6-0.2-1.1-0.7-1.3s-1.2-0.4-2.3-0.4h-1v-1.5h1c1.8,0,2.7-0.6,2.7-1.9
			c0-0.5-0.2-0.9-0.5-1.1c-0.3-0.3-0.8-0.4-1.4-0.4c-0.4,0-0.8,0.1-1.2,0.2c-0.4,0.1-0.9,0.4-1.4,0.7l-0.9-1.3
			c1-0.8,2.3-1.2,3.6-1.2c1.2,0,2,0.2,2.7,0.7C919.4,1000.9,919.7,1001.6,919.7,1002.4z"/>
		<path class="st7" d="M922.8,1011.2l4.5-9.8h-5.9v-1.6h7.9v1.3l-4.5,10.1H922.8z"/>
		<path class="st7" d="M935.7,1003.2c0,1.2-0.2,2.1-0.6,2.7s-1.1,0.9-1.9,0.9c-0.8,0-1.4-0.3-1.8-0.9c-0.4-0.6-0.7-1.5-0.7-2.7
			c0-2.4,0.8-3.6,2.5-3.6c0.8,0,1.4,0.3,1.9,0.9C935.4,1001.2,935.7,1002.1,935.7,1003.2z M932.2,1003.2c0,0.8,0.1,1.4,0.2,1.7
			c0.2,0.4,0.4,0.6,0.7,0.6c0.7,0,1-0.8,1-2.3s-0.3-2.3-1-2.3c-0.3,0-0.6,0.2-0.7,0.6C932.2,1001.9,932.2,1002.5,932.2,1003.2z
			 M940.8,999.8l-6.3,11.4h-1.5l6.3-11.4H940.8z M943.1,1007.8c0,1.2-0.2,2.1-0.6,2.7c-0.4,0.6-1.1,0.9-1.9,0.9
			c-0.8,0-1.4-0.3-1.8-0.9s-0.7-1.5-0.7-2.7c0-2.4,0.8-3.6,2.5-3.6c0.8,0,1.4,0.3,1.9,0.9S943.1,1006.6,943.1,1007.8z M939.6,1007.8
			c0,0.8,0.1,1.4,0.2,1.7c0.2,0.4,0.4,0.6,0.7,0.6c0.7,0,1-0.8,1-2.3c0-1.5-0.3-2.3-1-2.3c-0.3,0-0.6,0.2-0.7,0.6
			C939.7,1006.4,939.6,1007,939.6,1007.8z"/>
	</g>
</g>
</svg>
