<svg xmlns="http://www.w3.org/2000/svg" width="399.364" height="310.99" viewBox="0 0 399.364 310.99">
  <g id="Group_4730" data-name="Group 4730" transform="translate(-295.592 -833.605)">
    <g id="Group_4175" data-name="Group 4175" transform="translate(2774 374.984)">
      <path id="Path_3878" data-name="Path 3878" d="M-2447.408,603.184v25h50" fill="none" stroke="#99adcb" stroke-linecap="round" stroke-linejoin="round" stroke-width="1" fill-rule="evenodd"/>
      <circle id="Ellipse_26" data-name="Ellipse 26" cx="4" cy="4" r="4" transform="translate(-2399.408 624.184)" fill="#99adcb"/>
    </g>
    <path id="Path_3879" data-name="Path 3879" stroke="#99adcb" d="M-2197.522,510.914h-25v50" fill="none" transform="translate(2774 374.984)" stroke-linecap="round" stroke-linejoin="round" stroke-width="1" fill-rule="evenodd"/>
    <circle id="Ellipse_27" data-name="Ellipse 27" cx="4" cy="4" r="4" transform="translate(547.478 933.897)" fill="#99adcb"/>
    <path id="Path_3880" data-name="Path 3880" stroke="#99adcb" d="M-2369.522,510.914h25v50" fill="none" transform="translate(2774 374.984)" stroke-linecap="round" stroke-linejoin="round" stroke-width="1" fill-rule="evenodd"/>
    <circle id="Ellipse_28" data-name="Ellipse 28" cx="4" cy="4" r="4" transform="translate(425.478 933.897)" fill="#99adcb"/>
    <line id="Line_120" data-name="Line 120" y2="59.73" transform="translate(495.965 876.168)" fill="none" stroke="#99adcb" stroke-linecap="round" stroke-linejoin="round" stroke-width="1"/>
    <circle id="Ellipse_29" data-name="Ellipse 29" cx="4" cy="4" r="4" transform="translate(491.965 933.897)" fill="#99adcb"/>
    <g id="Group_4176" data-name="Group 4176" transform="translate(2774 374.984)">
      <line id="Line_121" data-name="Line 121" x2="50" transform="translate(-2447.408 678.266)" fill="none" stroke="#99adcb" stroke-linecap="round" stroke-linejoin="round" stroke-width="1"/>
      <circle id="Ellipse_30" data-name="Ellipse 30" cx="4" cy="4" r="4" transform="translate(-2399.408 674.266)" fill="#99adcb"/>
    </g>
    <g id="Group_4177" data-name="Group 4177" transform="translate(2774 374.984)">
      <path id="Path_3881" data-name="Path 3881" d="M-2109.408,603.184v25h-50" fill="none" stroke="#99adcb" stroke-linecap="round" stroke-linejoin="round" stroke-width="1" fill-rule="evenodd"/>
      <circle id="Ellipse_31" data-name="Ellipse 31" cx="4" cy="4" r="4" transform="translate(-2165.408 624.184)" fill="#99adcb"/>
    </g>
    <g id="Group_4178" data-name="Group 4178" transform="translate(2774 374.984)">
      <line id="Line_122" data-name="Line 122" x1="50" transform="translate(-2159.408 678.266)" fill="none" stroke="#99adcb" stroke-linecap="round" stroke-linejoin="round" stroke-width="1"/>
      <circle id="Ellipse_32" data-name="Ellipse 32" cx="4" cy="4" r="4" transform="translate(-2165.408 674.266)" fill="#99adcb"/>
    </g>
    <path id="Path_3882" data-name="Path 3882" d="M-2334.782,756.609h-1.714l-8.547,9.47a2.111,2.111,0,0,0,1.528,3.532h138.308a2.111,2.111,0,0,0,1.528-3.532l-7.685-8.814h-1.666" transform="translate(2774 374.984)" fill="#d1dae7"/>
    <g id="Group_4179" data-name="Group 4179" transform="translate(2774 374.984)">
      <path id="Path_3883" data-name="Path 3883" d="M-2294.726,686.316v20.435h12.026a8.408,8.408,0,0,1,8.408-8.408,8.408,8.408,0,0,1,8.409,8.408h12.026V686.316Z" fill="#d1dae7"/>
    </g>
    <path id="Path_3884" data-name="Path 3884" d="M-2321.509,734.867v-7.681H-2227v7.681" transform="translate(2774 374.984)" fill="none" stroke="#4569a0" stroke-linecap="round" stroke-linejoin="round" stroke-width="3"/>
    <line id="Line_123" data-name="Line 123" y1="25.721" transform="translate(479.273 1068.875)" fill="none" stroke="#4569a0" stroke-linecap="round" stroke-linejoin="round" stroke-width="3"/>
    <line id="Line_124" data-name="Line 124" y2="25.721" transform="translate(520.144 1068.875)" fill="none" stroke="#4569a0" stroke-linecap="round" stroke-linejoin="round" stroke-width="3"/>
    <circle id="Ellipse_33" data-name="Ellipse 33" cx="8.274" cy="8.274" r="8.274" transform="translate(491.434 1073.461)" stroke-width="3" stroke="#4569a0" stroke-linecap="round" stroke-linejoin="round" fill="none"/>
    <g id="Group_4180" data-name="Group 4180" transform="translate(2774 374.984)">
      <path id="Path_3885" data-name="Path 3885" d="M-2187.762,759.655c-5.949,0-10.978-3.428-12.634-6.682a3.715,3.715,0,0,0-.578,1.947c0,3.666,5.915,8.826,13.212,8.826s13.212-5.16,13.212-8.826a3.716,3.716,0,0,0-.579-1.947C-2176.785,756.227-2181.814,759.655-2187.762,759.655Z" fill="#d1dae7"/>
    </g>
    <path id="Path_3886" data-name="Path 3886" d="M-2175.5,750.606c0,3.4-5.491,8.193-12.264,8.193s-12.265-4.789-12.265-8.193,5.491-6.163,12.265-6.163S-2175.5,747.2-2175.5,750.606Z" transform="translate(2774 374.984)" fill="none" stroke="#4569a0" stroke-linecap="round" stroke-linejoin="round" stroke-width="3"/>
    <g id="Group_4181" data-name="Group 4181" transform="translate(2774 374.984)">
      <path id="Path_3887" data-name="Path 3887" d="M-2208.586,755.629l-18.393-20.762H-2321.6L-2340,755.629Z" fill="none" stroke="#4569a0" stroke-linecap="round" stroke-linejoin="round" stroke-width="3"/>
    </g>
    <g id="Group_4184" data-name="Group 4184" transform="translate(2774 374.984)">
      <line id="Line_125" data-name="Line 125" x2="18.458" transform="translate(-2283.794 748.697)" fill="none" stroke="#4569a0" stroke-linecap="round" stroke-linejoin="round" stroke-width="3"/>
      <g id="Group_4183" data-name="Group 4183">
        <g id="Group_4182" data-name="Group 4182">
          <line id="Line_126" data-name="Line 126" x2="5.104" transform="translate(-2317.837 741.821)" fill="none" stroke="#4569a0" stroke-linecap="round" stroke-linejoin="round" stroke-width="3"/>
          <line id="Line_127" data-name="Line 127" x2="5.104" transform="translate(-2306.125 741.821)" fill="none" stroke="#4569a0" stroke-linecap="round" stroke-linejoin="round" stroke-width="3"/>
          <line id="Line_128" data-name="Line 128" x2="5.104" transform="translate(-2294.412 741.821)" fill="none" stroke="#4569a0" stroke-linecap="round" stroke-linejoin="round" stroke-width="3"/>
          <line id="Line_129" data-name="Line 129" x2="5.104" transform="translate(-2282.7 741.821)" fill="none" stroke="#4569a0" stroke-linecap="round" stroke-linejoin="round" stroke-width="3"/>
          <line id="Line_130" data-name="Line 130" x2="5.104" transform="translate(-2270.988 741.821)" fill="none" stroke="#4569a0" stroke-linecap="round" stroke-linejoin="round" stroke-width="3"/>
          <line id="Line_131" data-name="Line 131" x2="5.104" transform="translate(-2259.275 741.821)" fill="none" stroke="#4569a0" stroke-linecap="round" stroke-linejoin="round" stroke-width="3"/>
          <line id="Line_132" data-name="Line 132" x2="5.104" transform="translate(-2247.563 741.821)" fill="none" stroke="#4569a0" stroke-linecap="round" stroke-linejoin="round" stroke-width="3"/>
          <line id="Line_133" data-name="Line 133" x2="5.104" transform="translate(-2235.851 741.821)" fill="none" stroke="#4569a0" stroke-linecap="round" stroke-linejoin="round" stroke-width="3"/>
        </g>
        <line id="Line_134" data-name="Line 134" x2="5.769" transform="translate(-2323.503 748.697)" fill="none" stroke="#4569a0" stroke-linecap="round" stroke-linejoin="round" stroke-width="3"/>
        <line id="Line_135" data-name="Line 135" x2="5.769" transform="translate(-2310.267 748.697)" fill="none" stroke="#4569a0" stroke-linecap="round" stroke-linejoin="round" stroke-width="3"/>
        <line id="Line_136" data-name="Line 136" x2="5.769" transform="translate(-2297.031 748.697)" fill="none" stroke="#4569a0" stroke-linecap="round" stroke-linejoin="round" stroke-width="3"/>
        <line id="Line_137" data-name="Line 137" x2="5.769" transform="translate(-2257.321 748.697)" fill="none" stroke="#4569a0" stroke-linecap="round" stroke-linejoin="round" stroke-width="3"/>
        <line id="Line_138" data-name="Line 138" x2="5.769" transform="translate(-2244.085 748.697)" fill="none" stroke="#4569a0" stroke-linecap="round" stroke-linejoin="round" stroke-width="3"/>
        <line id="Line_139" data-name="Line 139" x2="5.769" transform="translate(-2230.848 748.697)" fill="none" stroke="#4569a0" stroke-linecap="round" stroke-linejoin="round" stroke-width="3"/>
      </g>
    </g>
    <path id="Path_3888" data-name="Path 3888" d="M-2206.545,764.561l-.952-2.189h-133.436l-.941,2.189Z" transform="translate(2774 374.984)" fill="none"/>
    <line id="Line_140" data-name="Line 140" x2="131.411" transform="translate(434.003 1137.941)" fill="none" stroke="#4569a0" stroke-linecap="round" stroke-linejoin="round" stroke-width="3"/>
    <path id="Path_3889" data-name="Path 3889" d="M-2340.755,574.35l21.728,111.966h-49.416s-7.05-.386-7.05-7.05V581.4s-.091-7.051,7.05-7.051Z" transform="translate(2774 374.984)" fill="#d1dae7"/>
    <rect id="Rectangle_423" data-name="Rectangle 423" width="201.992" height="12.195" transform="translate(398.713 949.597)" fill="#d1dae7"/>
    <rect id="Rectangle_424" data-name="Rectangle 424" width="201.992" height="12.195" transform="translate(398.713 1048.89)" fill="#d1dae7"/>
    <rect id="Rectangle_425" data-name="Rectangle 425" width="201.992" height="112.132" rx="3.184" transform="translate(398.713 949.168)" stroke-width="3" stroke="#4569a0" stroke-linecap="round" stroke-linejoin="round" fill="none"/>
    <line id="Line_141" data-name="Line 141" x2="186.842" transform="translate(406.287 1048.676)" fill="none" stroke="#4569a0" stroke-linecap="round" stroke-linejoin="round" stroke-width="3"/>
    <line id="Line_142" data-name="Line 142" x2="186.842" transform="translate(406.287 961.792)" fill="none" stroke="#4569a0" stroke-linecap="round" stroke-linejoin="round" stroke-width="3"/>
    <circle id="Ellipse_34" data-name="Ellipse 34" cx="4.134" cy="4.134" r="4.134" transform="translate(495.418 1007.662)" fill="#d1dae7"/>
    <line id="Line_143" data-name="Line 143" y2="8.942" transform="translate(499.552 1011.796)" fill="none" stroke="#4569a0" stroke-linecap="round" stroke-linejoin="round" stroke-width="3"/>
    <path id="Path_3890" data-name="Path 3890" d="M-2286.685,649.709V632.336a3.55,3.55,0,0,0-1.04-2.51l-3.126-3.126a5.074,5.074,0,0,0-1.491,3.6v22.139a5.09,5.09,0,0,0,5.09,5.09h25.86a5.074,5.074,0,0,0,3.6-1.491l-3.127-3.127a3.55,3.55,0,0,0-2.509-1.039h-21.094A2.162,2.162,0,0,1-2286.685,649.709Z" transform="translate(2774 374.984)" fill="#d1dae7"/>
    <g id="Group_4185" data-name="Group 4185" transform="translate(2774 374.984)">
      <path id="Path_3891" data-name="Path 3891" d="M-2285.532,618.02v-6.892a11.24,11.24,0,0,1,11.241-11.24,11.24,11.24,0,0,1,11.24,11.24v6.892" fill="none" stroke="#4569a0" stroke-linecap="round" stroke-linejoin="round" stroke-width="3"/>
      <rect id="Rectangle_426" data-name="Rectangle 426" width="36.244" height="31.933" rx="3.585" transform="translate(-2292.413 625.595)" stroke-width="3" stroke="#4569a0" stroke-linecap="round" stroke-linejoin="round" fill="none"/>
    </g>
    <path id="Path_3892" data-name="Path 3892" d="M-2388.578,488.61a24.991,24.991,0,0,1,34.129,9.147,24.979,24.979,0,0,1-9.137,34.13,24.973,24.973,0,0,1-34.13-9.148A24.982,24.982,0,0,1-2388.578,488.61Z" transform="translate(2774 374.984)" fill="#4569a0" fill-rule="evenodd"/>
    <path id="Path_3893" data-name="Path 3893" d="M-2371.6,513.2a4,4,0,0,0-3.153,1.551l-6.874-3.512a3.993,3.993,0,0,0,.153-1.047,3.807,3.807,0,0,0-.18-1.136l6.832-3.492a4.03,4.03,0,0,0,3.222,1.613,4.035,4.035,0,0,0,4.046-4.038,4.04,4.04,0,0,0-4.046-4.04,4.043,4.043,0,0,0-4.04,4.04,4.294,4.294,0,0,0,.153,1.046l-6.859,3.513a4.027,4.027,0,0,0-3.161-1.552,4.047,4.047,0,0,0-4.047,4.046,4.041,4.041,0,0,0,4.047,4.04,4.012,4.012,0,0,0,3.216-1.628l6.838,3.5a3.945,3.945,0,0,0-.187,1.144,4.044,4.044,0,0,0,4.04,4.04,4.041,4.041,0,0,0,4.046-4.04A4.042,4.042,0,0,0-2371.6,513.2Z" transform="translate(2774 374.984)" fill="#fff" fill-rule="evenodd"/>
    <g id="Group_4226" data-name="Group 4226" transform="translate(2774 374.984)">
      <path id="Path_3935" data-name="Path 3935" d="M-2131.515,593.722a24.984,24.984,0,0,1,9.147-34.13,24.98,24.98,0,0,1,34.128,9.147,24.984,24.984,0,0,1-9.148,34.13A24.974,24.974,0,0,1-2131.515,593.722Z" fill="#4569a0" fill-rule="evenodd"/>
      <path id="Print" d="M-2102.473,590.684h-14.849v-4.342h-2.556V576.89h2.556v3.32h15.071v-3.321h2.373l-.054,9.452h-2.522l-.018,4.342h0Zm-12.807-1.788h10.729v-2.3h-10.729Zm0-10.729V571.78h10.985v6.387Z" fill="#fff"/>
    </g>
    <g id="Group_4227" data-name="Group 4227" transform="translate(2774 374.984)">
      <path id="Path_3936" data-name="Path 3936" d="M-2079.044,676.238a24.977,24.977,0,0,1-24.982,24.982,24.978,24.978,0,0,1-24.982-24.982,24.987,24.987,0,0,1,24.982-24.992A24.986,24.986,0,0,1-2079.044,676.238Z" fill="#4569a0" fill-rule="evenodd"/>
      <path id="Phone-2" d="M-2106.46,669.079l-3.316-3.317a1.663,1.663,0,0,0-2.369-.094l-1.99,1.99c-2.558,2.558.757,8.527,5.306,13.17,4.739,4.738,10.8,8.149,13.455,5.5l1.9-1.895a1.777,1.777,0,0,0-.094-2.464l-3.222-3.222a1.791,1.791,0,0,0-2.464-.19l-1.989,1.99a14.377,14.377,0,0,1-7.107-7.105l1.99-1.99A1.663,1.663,0,0,0-2106.46,669.079Z" fill="#fff"/>
    </g>
    <g id="Group_4228" data-name="Group 4228" transform="translate(2774 374.984)">
      <path id="Path_3937" data-name="Path 3937" d="M-2168.163,488.61a24.985,24.985,0,0,1,9.148,34.129,24.978,24.978,0,0,1-34.13,9.148,24.976,24.976,0,0,1-9.148-34.13A24.994,24.994,0,0,1-2168.163,488.61Z" fill="#4569a0" fill-rule="evenodd"/>
      <path id="Email-2" d="M-2191.156,517.847V503.014l2.1,1.868,7.811,6.989a.772.772,0,0,0,1.178,0l9.615-8.6.28-.244c0,.11.016.188.016.264v14.488a.848.848,0,0,1-.908.969h-19.2A.827.827,0,0,1-2191.156,517.847Zm1.113-16.095h18.772l-9.385,8.4Z" fill="#fff"/>
    </g>
    <g id="Group_4229" data-name="Group 4229" transform="translate(2774 374.984)">
      <path id="Path_3938" data-name="Path 3938" d="M-2278.572,458.621A24.983,24.983,0,0,1-2253.59,483.6a24.991,24.991,0,0,1-24.982,24.992,24.994,24.994,0,0,1-24.99-24.992A24.985,24.985,0,0,1-2278.572,458.621Z" fill="#4569a0" fill-rule="evenodd"/>
      <path id="Download-2" d="M-2288.576,491.608v-8.75h2.5v6.25h15v-6.25h2.5v8.75Zm4.191-11.174,1.769-1.768,2.79,2.791v-9.849h2.5v10l2.941-2.942,1.767,1.768-5.883,5.882Z" fill="#fff"/>
    </g>
    <path id="Path_3939" data-name="Path 3939" d="M-2478.408,676.852a24.986,24.986,0,0,1,24.982-24.993,25,25,0,0,1,24.992,24.993,24.993,24.993,0,0,1-24.992,24.982A24.984,24.984,0,0,1-2478.408,676.852Z" transform="translate(2774 374.984)" fill="#4569a0" fill-rule="evenodd"/>
    <path id="Path-2" d="M-2462.188,686.493l21.99-9.428-21.99-9.428-.01,7.333,15.714,2.1-15.714,2.1Z" transform="translate(2774 374.984)" fill="#fff"/>
    <g id="Group_4230" data-name="Group 4230" transform="translate(2774 374.984)">
      <path id="Path_3940" data-name="Path 3940" d="M-2467.668,568.737a24.983,24.983,0,0,1,34.128-9.139,24.981,24.981,0,0,1,9.148,34.129,24.988,24.988,0,0,1-34.128,9.148A24.993,24.993,0,0,1-2467.668,568.737Z" fill="#4569a0" fill-rule="evenodd"/>
      <path id="Shape-4" d="M-2457.03,592.233v0l.011-19.8a2.2,2.2,0,0,1,2.189-2.2h17.6a2.2,2.2,0,0,1,2.2,2.2v13.475a2.2,2.2,0,0,1-2.2,2.2h-15.675l-4.123,4.123Zm2.75-9.625v2.75h16.5v-2.75Zm0-4.812v2.75h16.5V577.8Zm0-4.813v2.75h16.5v-2.75Z" fill="#fff"/>
    </g>
  </g>
</svg>
