<svg xmlns="http://www.w3.org/2000/svg" viewBox="0 0 786.82 331.45"><defs><style>.cls-1{fill:#ffd964;}.cls-2{fill:#84b2f9;}.cls-3{fill:#4569a0;}.cls-4,.cls-6,.cls-8{fill:none;}.cls-4{stroke:#333;stroke-linecap:square;stroke-width:0.5px;}.cls-5{fill:#239546;}.cls-6{stroke:#d8d8d8;}.cls-6,.cls-8{stroke-miterlimit:10;}.cls-7{fill:#333;}.cls-8{stroke:#ebebeb;}.cls-9{fill:#4a5c74;}.cls-10{fill:#745fd7;}.cls-11{fill:#43a7a7;}.cls-12{fill:#e75755;}.cls-13{fill:#b74d94;}.cls-14{fill:#fff;}</style></defs><g id="Layer_2" data-name="Layer 2"><g id="Layer_2-2" data-name="Layer 2"><g id="patch_6" data-name="patch 6"><path class="cls-1" d="M254.31,282.71h56.5V231.43h-56.5Z"/></g><g id="patch_3" data-name="patch 3"><path class="cls-2" d="M191.76,282.71h56.5V46.57h-56.5Z"/></g><rect class="cls-3" x="128.83" y="82.46" width="56.5" height="200.25"/><path class="cls-4" d="M46.6,283.14H649.82"/><g id="patch_4" data-name="patch 4"><path class="cls-5" d="M316.36,282.71h56.5V174.92h-56.5Z"/></g><rect class="cls-6" x="0.5" y="0.5" width="678.82" height="330.45"/><path class="cls-7" d="M24.52,248.26a6.6,6.6,0,0,1,1.62.22,5.59,5.59,0,0,1,1.49.56,2.92,2.92,0,0,1,.94.82,1.86,1.86,0,0,1,.33,1.08,1.43,1.43,0,0,1-.51,1.16,2.31,2.31,0,0,1-1.5.42,6.87,6.87,0,0,1-2.18-.35,3.45,3.45,0,0,1-1.56-.93,2,2,0,0,1-.52-1.37,1.46,1.46,0,0,1,.49-1.2A2.09,2.09,0,0,1,24.52,248.26Zm-1.75-4.63,10,7.42v1l-10-7.42Zm.71,6.32a1.1,1.1,0,0,0,.43.82,3.4,3.4,0,0,0,1.28.58,7,7,0,0,0,1.67.22c.78,0,1.17-.25,1.17-.74a.92.92,0,0,0-.27-.64,2.28,2.28,0,0,0-.77-.5,6.37,6.37,0,0,0-1.2-.35,7.16,7.16,0,0,0-1.17-.13C23.86,249.21,23.48,249.46,23.48,250Zm5-6.76a6.46,6.46,0,0,1,1.61.22,5.59,5.59,0,0,1,1.49.56,2.82,2.82,0,0,1,.94.82,1.81,1.81,0,0,1,.34,1.07,1.41,1.41,0,0,1-.51,1.17,2.31,2.31,0,0,1-1.5.42,7.25,7.25,0,0,1-2.18-.34,3.57,3.57,0,0,1-1.56-.94,2,2,0,0,1-.52-1.37,1.52,1.52,0,0,1,.49-1.2A2.14,2.14,0,0,1,28.52,243.19Zm-1,1.7a1,1,0,0,0,.44.81,3.38,3.38,0,0,0,1.29.58,6.77,6.77,0,0,0,1.64.21c.79,0,1.18-.24,1.18-.72a1,1,0,0,0-.44-.8,3.54,3.54,0,0,0-1.36-.59,6.48,6.48,0,0,0-1.62-.24C27.87,244.14,27.49,244.39,27.49,244.89Z"/><path class="cls-7" d="M25.18,234.53a2.7,2.7,0,0,1,.77-2.05,2.88,2.88,0,0,1,2.11-.75,6,6,0,0,1,2.43.49,4.18,4.18,0,0,1,1.76,1.33,3.09,3.09,0,0,1,.62,1.9,2.71,2.71,0,0,1-.77,2.06,2.9,2.9,0,0,1-2.11.75,6.05,6.05,0,0,1-2.44-.5,4.15,4.15,0,0,1-1.76-1.35A3.11,3.11,0,0,1,25.18,234.53Zm2.72-1.61a1.89,1.89,0,0,0-1.27.42,1.47,1.47,0,0,0-.49,1.16,2,2,0,0,0,.51,1.34,3.27,3.27,0,0,0,1.4.92,6,6,0,0,0,2,.32,2,2,0,0,0,1.38-.43,1.58,1.58,0,0,0,.49-1.25,1.88,1.88,0,0,0-.49-1.28,3.39,3.39,0,0,0-1.42-.89A6.55,6.55,0,0,0,27.9,232.92Z"/><path class="cls-7" d="M36.13,231.78a2.35,2.35,0,0,1-.15.86H35a2.42,2.42,0,0,0,.15-.77.9.9,0,0,0-.42-.8,3.49,3.49,0,0,0-1.21-.45l-7.4-1.55v1.32l-.46-.09-.45-1.41-.68-.16a4,4,0,0,1-1.93-.87,2.2,2.2,0,0,1-.57-1.65,3.86,3.86,0,0,1,.08-.67,2.51,2.51,0,0,1,.18-.61l.88.29a2.74,2.74,0,0,0-.2.94,1.21,1.21,0,0,0,.33.91,2.65,2.65,0,0,0,1.21.51l.74.18v-1.63l.87.17v1.62l7.51,1.59a3.79,3.79,0,0,1,1.88.82A1.88,1.88,0,0,1,36.13,231.78Z"/><path class="cls-7" d="M32.9,219.33a2,2,0,0,1-.34,1.16,2.24,2.24,0,0,1-1,.77v.07l.26,0,.48.07c.21,0,1.47.29,3.79.78v1.14l-10.86-2.3v-1l1.43.18v-.06a3.35,3.35,0,0,1-1.55-2.54,1.8,1.8,0,0,1,.67-1.48,2.87,2.87,0,0,1,1.87-.54,7.3,7.3,0,0,1,2.65.47,4.45,4.45,0,0,1,1.89,1.31A2.93,2.93,0,0,1,32.9,219.33Zm-6.8-1.27a2,2,0,0,0,.65,1.33,4.47,4.47,0,0,0,1.63,1.08,5.27,5.27,0,0,0,2,.4,1.58,1.58,0,0,0,1.15-.38,1.42,1.42,0,0,0,.4-1.09,1.8,1.8,0,0,0-.55-1.27,4,4,0,0,0-1.58-.94,6.71,6.71,0,0,0-2.17-.35C26.62,216.84,26.1,217.24,26.1,218.06Z"/><path class="cls-7" d="M25.14,210.6a2,2,0,0,1,.33-1.12,2.24,2.24,0,0,1,1-.76v-.08l-1.18-.46v-.86l7.49,1.59v.91l-1.42-.18v.06a3.36,3.36,0,0,1,1.56,2.57,1.77,1.77,0,0,1-.68,1.49,2.87,2.87,0,0,1-1.85.54,7.16,7.16,0,0,1-2.64-.48,4.59,4.59,0,0,1-1.9-1.34A2.93,2.93,0,0,1,25.14,210.6ZM32,211.9a1.94,1.94,0,0,0-.63-1.32,4.7,4.7,0,0,0-1.65-1.06,5.22,5.22,0,0,0-2-.41,1.57,1.57,0,0,0-1.12.38,1.31,1.31,0,0,0-.42,1,1.9,1.9,0,0,0,.59,1.32,3.89,3.89,0,0,0,1.59,1,6.5,6.5,0,0,0,2.12.35,1.83,1.83,0,0,0,1.17-.32A1.15,1.15,0,0,0,32,211.9Z"/><path class="cls-7" d="M25.14,201.92a3.32,3.32,0,0,1,.09-.82l1,.25a3,3,0,0,0-.09.72,1.85,1.85,0,0,0,.41,1.16,3.52,3.52,0,0,0,1.14,1,5.83,5.83,0,0,0,1.61.6l3.43.73v1.15l-7.49-1.6v-.95l1.39.15v-.07a7.38,7.38,0,0,1-.93-.81,2.66,2.66,0,0,1-.44-.67A2,2,0,0,1,25.14,201.92Z"/><path class="cls-7" d="M32,198.82a3.72,3.72,0,0,0-.18-1h.88a3.17,3.17,0,0,1,.16.58,2.64,2.64,0,0,1,.07.55,1.92,1.92,0,0,1-.4,1.31,1.58,1.58,0,0,1-1.22.45,5,5,0,0,1-1-.12l-4.12-.87v1.17l-.5-.09-.53-1.27-1.56-.85V198l1.72.38v-1.88l.87.18v1.87l4.13.88a5.05,5.05,0,0,0,.9.12.78.78,0,0,0,.59-.2A.71.71,0,0,0,32,198.82Z"/><path class="cls-7" d="M23.36,194.66a.93.93,0,0,1-.63-.22.75.75,0,0,1-.24-.57.54.54,0,0,1,.62-.6.88.88,0,0,1,.63.23A.7.7,0,0,1,24,194a.6.6,0,0,1-.17.45A.61.61,0,0,1,23.36,194.66Zm9.4.77v1.15L25.27,195v-1.15Z"/><path class="cls-7" d="M32.9,190a2.75,2.75,0,0,1-.73,2.05,2.79,2.79,0,0,1-2.06.74,6.18,6.18,0,0,1-2.53-.51,4.26,4.26,0,0,1-1.8-1.4,3.31,3.31,0,0,1-.64-2,5.08,5.08,0,0,1,.34-1.84l1,.32a4,4,0,0,0-.35,1.5,2.14,2.14,0,0,0,.52,1.4,3.5,3.5,0,0,0,1.46,1,5.59,5.59,0,0,0,2,.36,1.94,1.94,0,0,0,1.36-.45,1.67,1.67,0,0,0,.48-1.26,2.83,2.83,0,0,0-.14-.93,6.86,6.86,0,0,0-.32-.86h1A4.08,4.08,0,0,1,32.9,190Z"/><path class="cls-7" d="M23.36,184.8a.88.88,0,0,1-.63-.22.73.73,0,0,1-.24-.57.54.54,0,0,1,.62-.6.92.92,0,0,1,.63.23.7.7,0,0,1,.26.53.6.6,0,0,1-.17.45A.61.61,0,0,1,23.36,184.8Zm9.4.77v1.15l-7.49-1.6V184Z"/><path class="cls-7" d="M32.9,179.84a2,2,0,0,1-.34,1.16,2.19,2.19,0,0,1-1,.78v.07l.26,0,.48.07,3.79.79v1.13l-10.86-2.29v-.95l1.43.17v0a3.38,3.38,0,0,1-1.55-2.54,1.78,1.78,0,0,1,.67-1.48,2.87,2.87,0,0,1,1.87-.54,7.3,7.3,0,0,1,2.65.47A4.36,4.36,0,0,1,32.23,178,2.89,2.89,0,0,1,32.9,179.84Zm-6.8-1.27a2,2,0,0,0,.65,1.34A4.74,4.74,0,0,0,28.38,181a5.47,5.47,0,0,0,2,.4,1.63,1.63,0,0,0,1.15-.38,1.43,1.43,0,0,0,.4-1.1,1.8,1.8,0,0,0-.55-1.26,4,4,0,0,0-1.58-.94,6.46,6.46,0,0,0-2.17-.36C26.62,177.35,26.1,177.76,26.1,178.57Z"/><path class="cls-7" d="M25.14,171.12a2,2,0,0,1,.33-1.12,2.26,2.26,0,0,1,1-.77v-.07l-1.18-.46v-.87l7.49,1.59v.91l-1.42-.17v.05a3.39,3.39,0,0,1,1.56,2.58,1.78,1.78,0,0,1-.68,1.49,2.87,2.87,0,0,1-1.85.54,7,7,0,0,1-2.64-.49,4.5,4.5,0,0,1-1.9-1.34A2.91,2.91,0,0,1,25.14,171.12Zm6.81,1.3a1.94,1.94,0,0,0-.63-1.32A4.72,4.72,0,0,0,29.67,170a5.41,5.41,0,0,0-2-.41,1.57,1.57,0,0,0-1.12.39,1.28,1.28,0,0,0-.42,1,1.88,1.88,0,0,0,.59,1.32,3.89,3.89,0,0,0,1.59,1,6.25,6.25,0,0,0,2.12.35,1.78,1.78,0,0,0,1.17-.32A1.11,1.11,0,0,0,32,172.42Z"/><path class="cls-7" d="M32.76,162.6l-4.73-1a6.06,6.06,0,0,0-1-.13,1,1,0,0,0-.69.24,1,1,0,0,0-.26.78,2,2,0,0,0,.41,1.18,3.48,3.48,0,0,0,1.17,1,6.2,6.2,0,0,0,1.84.67l3.24.69v1.15l-7.49-1.6v-1l1.39.15v-.07a4.52,4.52,0,0,1-1.18-1.27,2.55,2.55,0,0,1-.34-1.27,1.9,1.9,0,0,1,.47-1.37,1.76,1.76,0,0,1,1.33-.5,5.33,5.33,0,0,1,1.23.16l4.59,1Z"/><path class="cls-7" d="M32,156.8a3.72,3.72,0,0,0-.18-1h.88a3.17,3.17,0,0,1,.16.58,2.64,2.64,0,0,1,.07.55,1.87,1.87,0,0,1-.4,1.3,1.55,1.55,0,0,1-1.22.46,5,5,0,0,1-1-.12l-4.12-.87v1.17l-.5-.09-.53-1.27-1.56-.85V156l1.72.38V154.5l.87.18v1.87l4.13.88a5.05,5.05,0,0,0,.9.12.83.83,0,0,0,.59-.2A.71.71,0,0,0,32,156.8Z"/><path class="cls-7" d="M30.64,149.94a2,2,0,0,1,1.66.75,3.33,3.33,0,0,1,.6,2.13,4.62,4.62,0,0,1-.47,2.09H31.35a4.17,4.17,0,0,0,.44-1,3.58,3.58,0,0,0,.16-1,2.06,2.06,0,0,0-.34-1.3,1.08,1.08,0,0,0-.88-.44.93.93,0,0,0-.65.24,4.7,4.7,0,0,0-.73,1,4.23,4.23,0,0,1-1,1.26,1.79,1.79,0,0,1-1.14.37,1.9,1.9,0,0,1-1.52-.69,2.77,2.77,0,0,1-.57-1.82,5.2,5.2,0,0,1,.5-2.25l.94.36-.17.39a3.72,3.72,0,0,0-.3,1.5,1.53,1.53,0,0,0,.3,1,1,1,0,0,0,.77.36,1,1,0,0,0,.66-.24,4.55,4.55,0,0,0,.7-1,5.84,5.84,0,0,1,.7-1.05,2.19,2.19,0,0,1,.64-.48A1.84,1.84,0,0,1,30.64,149.94Z"/><path class="cls-7" d="M32.76,139.65l-4.11.22-1.18,0H26.41V140l.8.34,1.3.56,4.25,2v1.38l-7.49.3v-1.12l4.06-.13h.6c.67,0,1.29,0,1.84.06v0c-.56-.22-1.3-.53-2.2-.94l-4.3-2V139.1l4.06-.25c.77,0,1.37,0,1.79,0h.65v0c-.39-.13-.89-.32-1.49-.57s-2.27-1-5-2.21v-1.21l7.49,3.46Z"/><path class="cls-7" d="M32.76,130.31l-4.73-1a5.9,5.9,0,0,0-.92-.13.9.9,0,0,0-1,1,2,2,0,0,0,.4,1.19,3.51,3.51,0,0,0,1.18,1,6.09,6.09,0,0,0,1.85.67l3.23.69v1.15l-10.63-2.26v-1.14l1.09.23,1.06.23,1.14.26,1.3.33v-.08a4.42,4.42,0,0,1-1.21-1.27,2.55,2.55,0,0,1-.36-1.3,1.87,1.87,0,0,1,.49-1.39A1.92,1.92,0,0,1,27,128a5.2,5.2,0,0,1,1.13.16l4.59,1Z"/><path class="cls-7" d="M25.18,122.82a2.7,2.7,0,0,1,.77-2,2.88,2.88,0,0,1,2.11-.76,6,6,0,0,1,2.43.5,4.1,4.1,0,0,1,1.76,1.33,3.07,3.07,0,0,1,.62,1.9,2.71,2.71,0,0,1-.77,2.06,2.93,2.93,0,0,1-2.11.74,5.89,5.89,0,0,1-2.44-.5,4.13,4.13,0,0,1-1.76-1.34A3.13,3.13,0,0,1,25.18,122.82Zm2.72-1.62a1.89,1.89,0,0,0-1.27.43,1.45,1.45,0,0,0-.49,1.16,2,2,0,0,0,.51,1.34,3.16,3.16,0,0,0,1.4.91,5.79,5.79,0,0,0,2,.33,2,2,0,0,0,1.38-.44,1.56,1.56,0,0,0,.49-1.24,1.88,1.88,0,0,0-.49-1.28,3.3,3.3,0,0,0-1.42-.89A6.54,6.54,0,0,0,27.9,121.2Z"/><path class="cls-7" d="M32.9,112a2,2,0,0,1-.34,1.16,2.24,2.24,0,0,1-1,.77V114l.26,0a4.25,4.25,0,0,1,.48.07c.21,0,1.47.29,3.79.78V116l-10.86-2.3v-1l1.43.18v-.06a3.35,3.35,0,0,1-1.55-2.54,1.78,1.78,0,0,1,.67-1.48,2.87,2.87,0,0,1,1.87-.54,7.3,7.3,0,0,1,2.65.47,4.45,4.45,0,0,1,1.89,1.31A2.92,2.92,0,0,1,32.9,112Zm-6.8-1.28a2,2,0,0,0,.65,1.34,4.74,4.74,0,0,0,1.63,1.08,5.27,5.27,0,0,0,2,.4,1.63,1.63,0,0,0,1.15-.38,1.43,1.43,0,0,0,.4-1.1,1.8,1.8,0,0,0-.55-1.26,4,4,0,0,0-1.58-.94,6.71,6.71,0,0,0-2.17-.35C26.62,109.51,26.1,109.91,26.1,110.72Z"/><path class="cls-7" d="M25.14,103.27a2,2,0,0,1,.33-1.12,2.17,2.17,0,0,1,1-.76v-.08l-1.18-.46V100l7.49,1.59v.91l-1.42-.18v0a3.39,3.39,0,0,1,1.56,2.58,1.78,1.78,0,0,1-.68,1.49,2.87,2.87,0,0,1-1.85.54,7.16,7.16,0,0,1-2.64-.48,4.59,4.59,0,0,1-1.9-1.34A2.93,2.93,0,0,1,25.14,103.27Zm6.81,1.3a1.94,1.94,0,0,0-.63-1.32,4.7,4.7,0,0,0-1.65-1.06,5.22,5.22,0,0,0-2-.41,1.57,1.57,0,0,0-1.12.38,1.28,1.28,0,0,0-.42,1,1.9,1.9,0,0,0,.59,1.33,4.12,4.12,0,0,0,1.59,1,6.5,6.5,0,0,0,2.12.35,1.78,1.78,0,0,0,1.17-.33A1.11,1.11,0,0,0,32,104.57Z"/><path class="cls-7" d="M30.64,94.71a2,2,0,0,1,1.66.75,3.37,3.37,0,0,1,.6,2.13,4.62,4.62,0,0,1-.47,2.09H31.35a4.26,4.26,0,0,0,.44-1,3.65,3.65,0,0,0,.16-1,2.08,2.08,0,0,0-.34-1.3,1.08,1.08,0,0,0-.88-.44.93.93,0,0,0-.65.24,4.84,4.84,0,0,0-.73,1,4.16,4.16,0,0,1-1,1.25,1.79,1.79,0,0,1-1.14.37,1.9,1.9,0,0,1-1.52-.69,2.75,2.75,0,0,1-.57-1.82,5.2,5.2,0,0,1,.5-2.25l.94.37-.17.38a3.72,3.72,0,0,0-.3,1.5,1.51,1.51,0,0,0,.3,1,1,1,0,0,0,.77.36,1,1,0,0,0,.66-.24,4.31,4.31,0,0,0,.7-1,5.84,5.84,0,0,1,.7-1,2,2,0,0,1,.64-.47A1.7,1.7,0,0,1,30.64,94.71Z"/><path class="cls-7" d="M30.64,88.71a2,2,0,0,1,1.66.76,3.33,3.33,0,0,1,.6,2.13,4.58,4.58,0,0,1-.47,2.08H31.35a4.1,4.1,0,0,0,.44-1,3.58,3.58,0,0,0,.16-1,2.06,2.06,0,0,0-.34-1.3,1,1,0,0,0-.88-.44.93.93,0,0,0-.65.24,4.7,4.7,0,0,0-.73,1,4.36,4.36,0,0,1-1,1.26,1.85,1.85,0,0,1-1.14.37,1.9,1.9,0,0,1-1.52-.69,2.77,2.77,0,0,1-.57-1.82,5.27,5.27,0,0,1,.5-2.26l.94.37-.17.38a3.77,3.77,0,0,0-.3,1.51,1.55,1.55,0,0,0,.3,1,1,1,0,0,0,.77.36,1,1,0,0,0,.66-.24,4.68,4.68,0,0,0,.7-1,6.06,6.06,0,0,1,.7-1,2,2,0,0,1,.64-.48A1.84,1.84,0,0,1,30.64,88.71Z"/><path class="cls-7" d="M32.9,84.38a2.61,2.61,0,0,1-.74,2,2.87,2.87,0,0,1-2.07.72,6.13,6.13,0,0,1-2.46-.51,4.58,4.58,0,0,1-1.84-1.35,2.92,2.92,0,0,1-.65-1.85,2.35,2.35,0,0,1,.45-1.57,1.59,1.59,0,0,1,1.27-.53,2.17,2.17,0,0,1,1.93,1.14,6.16,6.16,0,0,1,.7,3.24v.23l.55,0a2.1,2.1,0,0,0,1.39-.42,1.6,1.6,0,0,0,.51-1.31,3.08,3.08,0,0,0-.13-.88,6.54,6.54,0,0,0-.45-1.13h1a6.21,6.21,0,0,1,.42,1.13A4.61,4.61,0,0,1,32.9,84.38Zm-6.79-.95a1.82,1.82,0,0,0,.65,1.32,4.18,4.18,0,0,0,1.78,1v-.08a5.58,5.58,0,0,0-.41-2.39A1.26,1.26,0,0,0,27,82.4a.79.79,0,0,0-.6.25A1.07,1.07,0,0,0,26.11,83.43Z"/><path class="cls-7" d="M25.15,76.47a2,2,0,0,1,1.3-1.92v-.07a15.48,15.48,0,0,1-1.87-.31l-2.45-.53V72.5l10.63,2.26v.95l-1.42-.15v.06a5.19,5.19,0,0,1,1.21,1.29,2.45,2.45,0,0,1,.35,1.24,1.77,1.77,0,0,1-.67,1.48,2.86,2.86,0,0,1-1.86.54,7.26,7.26,0,0,1-2.68-.49,4.62,4.62,0,0,1-1.88-1.33A3,3,0,0,1,25.15,76.47Zm6.8,1.3a2,2,0,0,0-.64-1.33,4.56,4.56,0,0,0-1.63-1.08,5.36,5.36,0,0,0-2-.4,1.61,1.61,0,0,0-1.15.37,1.36,1.36,0,0,0-.4,1.07,1.84,1.84,0,0,0,.56,1.28,4,4,0,0,0,1.59.95A6.43,6.43,0,0,0,30.4,79C31.43,79,32,78.58,32,77.77Z"/><rect class="cls-8" x="700.32" y="0.5" width="86" height="234.45"/><g id="patch_12" data-name="patch 12"><path class="cls-2" d="M713.43,76.57h22.68v-17H713.43Z"/></g><g id="patch_13" data-name="patch 13"><rect class="cls-3" x="713.43" y="34.71" width="22.68" height="17.01"/></g><path class="cls-7" d="M747.62,47.64H742V46.8l2.25-2.27A16.62,16.62,0,0,0,745.6,43a3.66,3.66,0,0,0,.49-.87,2.44,2.44,0,0,0,.17-.9,1.44,1.44,0,0,0-.42-1.09,1.58,1.58,0,0,0-1.15-.4,3,3,0,0,0-1,.17,4.06,4.06,0,0,0-1.07.64l-.51-.66a3.93,3.93,0,0,1,2.58-1,2.74,2.74,0,0,1,1.89.61,2.17,2.17,0,0,1,.68,1.67,3.25,3.25,0,0,1-.45,1.61,10.59,10.59,0,0,1-1.71,2l-1.88,1.84v0h4.41Z"/><path class="cls-7" d="M754.52,43.34a6.24,6.24,0,0,1-.7,3.32,2.59,2.59,0,0,1-4.24,0,6.13,6.13,0,0,1-.72-3.29,6.19,6.19,0,0,1,.7-3.32,2.58,2.58,0,0,1,4.24,0A6.16,6.16,0,0,1,754.52,43.34Zm-4.68,0a6.3,6.3,0,0,0,.44,2.72,1.58,1.58,0,0,0,2.81,0,6.34,6.34,0,0,0,.44-2.71,6.26,6.26,0,0,0-.44-2.7,1.46,1.46,0,0,0-1.41-.86,1.48,1.48,0,0,0-1.4.84A6.3,6.3,0,0,0,749.84,43.34Z"/><path class="cls-7" d="M759.31,47.64h-.95V41.53c0-.51,0-1,0-1.44a3.71,3.71,0,0,1-.28.26c-.1.09-.56.47-1.39,1.14l-.52-.67,2.27-1.75h.82Z"/><path class="cls-7" d="M766.17,47.64h-.95V41.53c0-.51,0-1,0-1.44l-.27.26-1.4,1.14-.51-.67,2.26-1.75h.82Z"/><g id="patch_13-2" data-name="patch 13"><path class="cls-9" d="M713.43,27.72h22.68v-17H713.43Z"/></g><path class="cls-7" d="M747.62,23.64H742V22.8l2.25-2.27A16.62,16.62,0,0,0,745.6,19a3.66,3.66,0,0,0,.49-.87,2.44,2.44,0,0,0,.17-.9,1.44,1.44,0,0,0-.42-1.09,1.58,1.58,0,0,0-1.15-.4,3,3,0,0,0-1,.17,4.06,4.06,0,0,0-1.07.64l-.51-.66a3.93,3.93,0,0,1,2.58-1,2.74,2.74,0,0,1,1.89.61,2.17,2.17,0,0,1,.68,1.67,3.25,3.25,0,0,1-.45,1.61,10.59,10.59,0,0,1-1.71,2l-1.88,1.84v0h4.41Z"/><path class="cls-7" d="M754.52,19.34a6.24,6.24,0,0,1-.7,3.32,2.59,2.59,0,0,1-4.24,0,6.13,6.13,0,0,1-.72-3.29,6.19,6.19,0,0,1,.7-3.32,2.58,2.58,0,0,1,4.24,0A6.16,6.16,0,0,1,754.52,19.34Zm-4.68,0a6.3,6.3,0,0,0,.44,2.72,1.58,1.58,0,0,0,2.81,0,6.34,6.34,0,0,0,.44-2.71,6.26,6.26,0,0,0-.44-2.7,1.46,1.46,0,0,0-1.41-.86,1.48,1.48,0,0,0-1.4.84A6.3,6.3,0,0,0,749.84,19.34Z"/><path class="cls-7" d="M759.31,23.64h-.95V17.53c0-.51,0-1,0-1.44a3.71,3.71,0,0,1-.28.26c-.1.09-.56.47-1.39,1.14l-.52-.67,2.27-1.75h.82Z"/><path class="cls-7" d="M768.25,19.34a6.34,6.34,0,0,1-.7,3.32,2.6,2.6,0,0,1-4.25,0,6.13,6.13,0,0,1-.72-3.29,6.19,6.19,0,0,1,.7-3.32,2.58,2.58,0,0,1,4.24,0A6.06,6.06,0,0,1,768.25,19.34Zm-4.68,0a6.15,6.15,0,0,0,.44,2.72,1.57,1.57,0,0,0,2.8,0,6.19,6.19,0,0,0,.44-2.71,6.11,6.11,0,0,0-.44-2.7,1.58,1.58,0,0,0-2.8,0A6.15,6.15,0,0,0,763.57,19.34Z"/><path class="cls-7" d="M747.62,72.64H742V71.8l2.25-2.27A16.62,16.62,0,0,0,745.6,68a3.66,3.66,0,0,0,.49-.87,2.44,2.44,0,0,0,.17-.9,1.44,1.44,0,0,0-.42-1.09,1.58,1.58,0,0,0-1.15-.4,3,3,0,0,0-1,.17,4.06,4.06,0,0,0-1.07.64l-.51-.66a3.93,3.93,0,0,1,2.58-1,2.74,2.74,0,0,1,1.89.61,2.17,2.17,0,0,1,.68,1.67,3.25,3.25,0,0,1-.45,1.61,10.59,10.59,0,0,1-1.71,2l-1.88,1.84v0h4.41Z"/><path class="cls-7" d="M754.52,68.34a6.24,6.24,0,0,1-.7,3.32,2.59,2.59,0,0,1-4.24,0,6.13,6.13,0,0,1-.72-3.29,6.19,6.19,0,0,1,.7-3.32,2.58,2.58,0,0,1,4.24,0A6.16,6.16,0,0,1,754.52,68.34Zm-4.68,0a6.3,6.3,0,0,0,.44,2.72,1.58,1.58,0,0,0,2.81,0,6.34,6.34,0,0,0,.44-2.71,6.26,6.26,0,0,0-.44-2.7,1.46,1.46,0,0,0-1.41-.86,1.48,1.48,0,0,0-1.4.84A6.3,6.3,0,0,0,749.84,68.34Z"/><path class="cls-7" d="M759.31,72.64h-.95V66.53c0-.51,0-1,0-1.44a3.71,3.71,0,0,1-.28.26c-.1.09-.56.47-1.39,1.14l-.52-.67,2.27-1.75h.82Z"/><path class="cls-7" d="M768.2,72.64h-5.63V71.8l2.26-2.27A16,16,0,0,0,766.18,68a3.72,3.72,0,0,0,.5-.87,2.44,2.44,0,0,0,.16-.9,1.47,1.47,0,0,0-.41-1.09,1.6,1.6,0,0,0-1.16-.4,3.1,3.1,0,0,0-1,.17,4,4,0,0,0-1.06.64l-.52-.66a3.93,3.93,0,0,1,2.58-1,2.74,2.74,0,0,1,1.89.61,2.14,2.14,0,0,1,.69,1.67,3.26,3.26,0,0,1-.46,1.61,9.89,9.89,0,0,1-1.71,2l-1.88,1.84v0h4.41Z"/><g id="patch_12-2" data-name="patch 12"><path class="cls-5" d="M713.43,125.57h22.68v-17H713.43Z"/></g><g id="patch_13-3" data-name="patch 13"><path class="cls-1" d="M713.43,100.72h22.68v-17H713.43Z"/></g><path class="cls-7" d="M747.62,96.64H742V95.8l2.25-2.27A16.62,16.62,0,0,0,745.6,92a3.66,3.66,0,0,0,.49-.87,2.44,2.44,0,0,0,.17-.9,1.44,1.44,0,0,0-.42-1.09,1.58,1.58,0,0,0-1.15-.4,3,3,0,0,0-1,.17,4.06,4.06,0,0,0-1.07.64l-.51-.66a3.93,3.93,0,0,1,2.58-1,2.74,2.74,0,0,1,1.89.61,2.17,2.17,0,0,1,.68,1.67,3.25,3.25,0,0,1-.45,1.61,10.59,10.59,0,0,1-1.71,2l-1.88,1.84v0h4.41Z"/><path class="cls-7" d="M754.52,92.34a6.24,6.24,0,0,1-.7,3.32,2.59,2.59,0,0,1-4.24,0,6.13,6.13,0,0,1-.72-3.29,6.19,6.19,0,0,1,.7-3.32,2.58,2.58,0,0,1,4.24,0A6.16,6.16,0,0,1,754.52,92.34Zm-4.68,0a6.3,6.3,0,0,0,.44,2.72,1.58,1.58,0,0,0,2.81,0,6.34,6.34,0,0,0,.44-2.71,6.26,6.26,0,0,0-.44-2.7,1.46,1.46,0,0,0-1.41-.86,1.48,1.48,0,0,0-1.4.84A6.3,6.3,0,0,0,749.84,92.34Z"/><path class="cls-7" d="M759.31,96.64h-.95V90.53c0-.51,0-1,0-1.44a3.71,3.71,0,0,1-.28.26c-.1.09-.56.47-1.39,1.14l-.52-.67,2.27-1.75h.82Z"/><path class="cls-7" d="M767.88,90.08a2,2,0,0,1-.46,1.35,2.3,2.3,0,0,1-1.31.69v0a2.47,2.47,0,0,1,1.53.66,1.89,1.89,0,0,1,.5,1.38,2.22,2.22,0,0,1-.85,1.88,3.84,3.84,0,0,1-2.41.66,7,7,0,0,1-1.25-.1,4.57,4.57,0,0,1-1.1-.36v-.93a5,5,0,0,0,1.19.42,5.17,5.17,0,0,0,1.19.15q2.22,0,2.22-1.74c0-1-.81-1.56-2.45-1.56h-.84v-.84h.86a2.6,2.6,0,0,0,1.58-.44,1.45,1.45,0,0,0,.59-1.23,1.18,1.18,0,0,0-.43-1,1.78,1.78,0,0,0-1.17-.36,3.67,3.67,0,0,0-1.06.15,4.93,4.93,0,0,0-1.14.56l-.49-.65a4.09,4.09,0,0,1,1.22-.66,4.36,4.36,0,0,1,1.45-.23,3,3,0,0,1,1.94.57A1.92,1.92,0,0,1,767.88,90.08Z"/><path class="cls-7" d="M747.62,121.64H742v-.84l2.25-2.27A16.62,16.62,0,0,0,745.6,117a3.66,3.66,0,0,0,.49-.87,2.44,2.44,0,0,0,.17-.9,1.44,1.44,0,0,0-.42-1.09,1.58,1.58,0,0,0-1.15-.4,3,3,0,0,0-1,.17,4.06,4.06,0,0,0-1.07.64l-.51-.66a3.93,3.93,0,0,1,2.58-1,2.74,2.74,0,0,1,1.89.61,2.17,2.17,0,0,1,.68,1.67,3.25,3.25,0,0,1-.45,1.61,10.59,10.59,0,0,1-1.71,2l-1.88,1.84v0h4.41Z"/><path class="cls-7" d="M754.52,117.34a6.24,6.24,0,0,1-.7,3.32,2.59,2.59,0,0,1-4.24,0,6.13,6.13,0,0,1-.72-3.29,6.19,6.19,0,0,1,.7-3.32,2.58,2.58,0,0,1,4.24,0A6.16,6.16,0,0,1,754.52,117.34Zm-4.68,0a6.3,6.3,0,0,0,.44,2.72,1.58,1.58,0,0,0,2.81,0,6.34,6.34,0,0,0,.44-2.71,6.26,6.26,0,0,0-.44-2.7,1.46,1.46,0,0,0-1.41-.86,1.48,1.48,0,0,0-1.4.84A6.3,6.3,0,0,0,749.84,117.34Z"/><path class="cls-7" d="M759.31,121.64h-.95v-6.11c0-.51,0-1,0-1.44a3.71,3.71,0,0,1-.28.26c-.1.09-.56.47-1.39,1.14l-.52-.67,2.27-1.75h.82Z"/><path class="cls-7" d="M768.6,119.67h-1.27v2h-.93v-2h-4.16v-.85l4.06-5.8h1v5.76h1.27Zm-2.2-.89v-2.85c0-.55,0-1.19.06-1.89h-.05a7.39,7.39,0,0,1-.52.93l-2.68,3.81Z"/><g id="patch_12-3" data-name="patch 12"><path class="cls-10" d="M713.43,174.57h22.68v-17H713.43Z"/></g><g id="patch_13-4" data-name="patch 13"><path class="cls-11" d="M713.43,149.72h22.68v-17H713.43Z"/></g><path class="cls-7" d="M747.62,145.64H742v-.84l2.25-2.27A16.62,16.62,0,0,0,745.6,141a3.66,3.66,0,0,0,.49-.87,2.44,2.44,0,0,0,.17-.9,1.44,1.44,0,0,0-.42-1.09,1.58,1.58,0,0,0-1.15-.4,3,3,0,0,0-1,.17,4.06,4.06,0,0,0-1.07.64l-.51-.66a3.93,3.93,0,0,1,2.58-1,2.74,2.74,0,0,1,1.89.61,2.17,2.17,0,0,1,.68,1.67,3.25,3.25,0,0,1-.45,1.61,10.59,10.59,0,0,1-1.71,2l-1.88,1.84v0h4.41Z"/><path class="cls-7" d="M754.52,141.34a6.24,6.24,0,0,1-.7,3.32,2.59,2.59,0,0,1-4.24,0,6.13,6.13,0,0,1-.72-3.29,6.19,6.19,0,0,1,.7-3.32,2.58,2.58,0,0,1,4.24,0A6.16,6.16,0,0,1,754.52,141.34Zm-4.68,0a6.3,6.3,0,0,0,.44,2.72,1.58,1.58,0,0,0,2.81,0,6.34,6.34,0,0,0,.44-2.71,6.26,6.26,0,0,0-.44-2.7,1.46,1.46,0,0,0-1.41-.86,1.48,1.48,0,0,0-1.4.84A6.3,6.3,0,0,0,749.84,141.34Z"/><path class="cls-7" d="M759.31,145.64h-.95v-6.11c0-.51,0-1,0-1.44a3.71,3.71,0,0,1-.28.26c-.1.09-.56.47-1.39,1.14l-.52-.67,2.27-1.75h.82Z"/><path class="cls-7" d="M765.25,140.4a3.2,3.2,0,0,1,2.13.67,2.33,2.33,0,0,1,.77,1.84,2.68,2.68,0,0,1-.84,2.09,3.43,3.43,0,0,1-2.34.75,4.31,4.31,0,0,1-2.21-.46v-.94a3.4,3.4,0,0,0,1,.42,5.6,5.6,0,0,0,1.2.14,2.44,2.44,0,0,0,1.61-.48,1.75,1.75,0,0,0,.57-1.41c0-1.19-.73-1.79-2.2-1.79a9.12,9.12,0,0,0-1.49.17l-.5-.32.32-4h4.26v.9h-3.43l-.21,2.57A6.7,6.7,0,0,1,765.25,140.4Z"/><path class="cls-7" d="M747.62,170.64H742v-.84l2.25-2.27A16.62,16.62,0,0,0,745.6,166a3.66,3.66,0,0,0,.49-.87,2.44,2.44,0,0,0,.17-.9,1.44,1.44,0,0,0-.42-1.09,1.58,1.58,0,0,0-1.15-.4,3,3,0,0,0-1,.17,4.06,4.06,0,0,0-1.07.64l-.51-.66a3.93,3.93,0,0,1,2.58-1,2.74,2.74,0,0,1,1.89.61,2.17,2.17,0,0,1,.68,1.67,3.25,3.25,0,0,1-.45,1.61,10.59,10.59,0,0,1-1.71,2l-1.88,1.84v0h4.41Z"/><path class="cls-7" d="M754.52,166.34a6.24,6.24,0,0,1-.7,3.32,2.59,2.59,0,0,1-4.24,0,6.13,6.13,0,0,1-.72-3.29,6.19,6.19,0,0,1,.7-3.32,2.58,2.58,0,0,1,4.24,0A6.16,6.16,0,0,1,754.52,166.34Zm-4.68,0a6.3,6.3,0,0,0,.44,2.72,1.58,1.58,0,0,0,2.81,0,6.34,6.34,0,0,0,.44-2.71,6.26,6.26,0,0,0-.44-2.7,1.46,1.46,0,0,0-1.41-.86,1.48,1.48,0,0,0-1.4.84A6.3,6.3,0,0,0,749.84,166.34Z"/><path class="cls-7" d="M759.31,170.64h-.95v-6.11c0-.51,0-1,0-1.44a3.71,3.71,0,0,1-.28.26c-.1.09-.56.47-1.39,1.14l-.52-.67,2.27-1.75h.82Z"/><path class="cls-7" d="M762.67,167a6.07,6.07,0,0,1,1-3.77,3.44,3.44,0,0,1,2.9-1.25,3.7,3.7,0,0,1,1.05.11v.84a3.28,3.28,0,0,0-1-.15,2.6,2.6,0,0,0-2.11.86,4.38,4.38,0,0,0-.79,2.7h.07a2.21,2.21,0,0,1,2-1,2.4,2.4,0,0,1,1.82.69,2.62,2.62,0,0,1,.67,1.9,2.9,2.9,0,0,1-.73,2.1,2.59,2.59,0,0,1-2,.76,2.52,2.52,0,0,1-2.11-1A4.4,4.4,0,0,1,762.67,167Zm2.88,3a1.64,1.64,0,0,0,1.29-.53,2.25,2.25,0,0,0,.46-1.51,1.94,1.94,0,0,0-.43-1.34,1.62,1.62,0,0,0-1.28-.49,2.18,2.18,0,0,0-1,.22,1.79,1.79,0,0,0-.7.6,1.33,1.33,0,0,0-.26.79,2.69,2.69,0,0,0,.23,1.13,2.07,2.07,0,0,0,.66.82A1.71,1.71,0,0,0,765.55,169.93Z"/><g id="patch_12-4" data-name="patch 12"><path class="cls-12" d="M713.43,223.57h22.68v-17H713.43Z"/></g><g id="patch_13-5" data-name="patch 13"><path class="cls-13" d="M713.43,198.72h22.68v-17H713.43Z"/></g><path class="cls-7" d="M747.62,194.64H742v-.84l2.25-2.27A16.62,16.62,0,0,0,745.6,190a3.66,3.66,0,0,0,.49-.87,2.44,2.44,0,0,0,.17-.9,1.44,1.44,0,0,0-.42-1.09,1.58,1.58,0,0,0-1.15-.4,3,3,0,0,0-1,.17,4.06,4.06,0,0,0-1.07.64l-.51-.66a3.93,3.93,0,0,1,2.58-1,2.74,2.74,0,0,1,1.89.61,2.17,2.17,0,0,1,.68,1.67,3.25,3.25,0,0,1-.45,1.61,10.59,10.59,0,0,1-1.71,2l-1.88,1.84v0h4.41Z"/><path class="cls-7" d="M754.52,190.34a6.24,6.24,0,0,1-.7,3.32,2.59,2.59,0,0,1-4.24,0,6.13,6.13,0,0,1-.72-3.29,6.19,6.19,0,0,1,.7-3.32,2.58,2.58,0,0,1,4.24,0A6.16,6.16,0,0,1,754.52,190.34Zm-4.68,0a6.3,6.3,0,0,0,.44,2.72,1.58,1.58,0,0,0,2.81,0,6.34,6.34,0,0,0,.44-2.71,6.26,6.26,0,0,0-.44-2.7,1.46,1.46,0,0,0-1.41-.86,1.48,1.48,0,0,0-1.4.84A6.3,6.3,0,0,0,749.84,190.34Z"/><path class="cls-7" d="M759.31,194.64h-.95v-6.11c0-.51,0-1,0-1.44a3.71,3.71,0,0,1-.28.26c-.1.09-.56.47-1.39,1.14l-.52-.67,2.27-1.75h.82Z"/><path class="cls-7" d="M763.65,194.64,767.2,187h-4.67v-.9h5.71v.78l-3.51,7.79Z"/><path class="cls-7" d="M747.62,219.64H742v-.84l2.25-2.27A16.62,16.62,0,0,0,745.6,215a3.66,3.66,0,0,0,.49-.87,2.44,2.44,0,0,0,.17-.9,1.44,1.44,0,0,0-.42-1.09,1.58,1.58,0,0,0-1.15-.4,3,3,0,0,0-1,.17,4.06,4.06,0,0,0-1.07.64l-.51-.66a3.93,3.93,0,0,1,2.58-1,2.74,2.74,0,0,1,1.89.61,2.17,2.17,0,0,1,.68,1.67,3.25,3.25,0,0,1-.45,1.61,10.59,10.59,0,0,1-1.71,2l-1.88,1.84v0h4.41Z"/><path class="cls-7" d="M754.52,215.34a6.24,6.24,0,0,1-.7,3.32,2.59,2.59,0,0,1-4.24,0,6.13,6.13,0,0,1-.72-3.29,6.19,6.19,0,0,1,.7-3.32,2.58,2.58,0,0,1,4.24,0A6.16,6.16,0,0,1,754.52,215.34Zm-4.68,0a6.3,6.3,0,0,0,.44,2.72,1.58,1.58,0,0,0,2.81,0,6.34,6.34,0,0,0,.44-2.71,6.26,6.26,0,0,0-.44-2.7,1.46,1.46,0,0,0-1.41-.86,1.48,1.48,0,0,0-1.4.84A6.3,6.3,0,0,0,749.84,215.34Z"/><path class="cls-7" d="M759.31,219.64h-.95v-6.11c0-.51,0-1,0-1.44a3.71,3.71,0,0,1-.28.26c-.1.09-.56.47-1.39,1.14l-.52-.67,2.27-1.75h.82Z"/><path class="cls-7" d="M765.41,211a2.89,2.89,0,0,1,1.85.54A1.82,1.82,0,0,1,768,213a1.88,1.88,0,0,1-.39,1.15,3.55,3.55,0,0,1-1.26.95,4.05,4.05,0,0,1,1.48,1.05,1.9,1.9,0,0,1,.44,1.26,2.12,2.12,0,0,1-.74,1.71,3.07,3.07,0,0,1-2,.63,3.27,3.27,0,0,1-2.11-.6,2.08,2.08,0,0,1-.74-1.7,2.54,2.54,0,0,1,1.8-2.29,3.36,3.36,0,0,1-1.16-1,2.06,2.06,0,0,1-.36-1.19,1.8,1.8,0,0,1,.69-1.48A2.87,2.87,0,0,1,765.41,211Zm-1.86,6.52a1.35,1.35,0,0,0,.49,1.1,2.18,2.18,0,0,0,1.38.39,2.08,2.08,0,0,0,1.36-.41,1.4,1.4,0,0,0,.48-1.12,1.37,1.37,0,0,0-.45-1,4.53,4.53,0,0,0-1.6-.86,3.35,3.35,0,0,0-1.26.83A1.55,1.55,0,0,0,763.55,217.47Zm1.84-5.73a1.67,1.67,0,0,0-1.14.35,1.16,1.16,0,0,0-.42.94,1.29,1.29,0,0,0,.35.92,3.57,3.57,0,0,0,1.27.78,3.25,3.25,0,0,0,1.19-.76A1.4,1.4,0,0,0,767,213a1.13,1.13,0,0,0-.43-.94A1.74,1.74,0,0,0,765.39,211.74Z"/><path class="cls-7" d="M218,308.17h-1.64v-8.59h-2.94v-1.4h7.51v1.4H218Z"/><path class="cls-7" d="M227,308.17l-.33-1.05h0a3,3,0,0,1-1.1.94,3.41,3.41,0,0,1-1.42.25,2.39,2.39,0,0,1-1.74-.6,2.24,2.24,0,0,1-.63-1.7,2,2,0,0,1,.87-1.77,5.11,5.11,0,0,1,2.65-.65l1.3,0v-.4a1.51,1.51,0,0,0-.34-1.08,1.36,1.36,0,0,0-1-.36,3.73,3.73,0,0,0-1.11.17,8.46,8.46,0,0,0-1,.4l-.52-1.15a5.67,5.67,0,0,1,1.35-.48,5.78,5.78,0,0,1,1.38-.17,3.28,3.28,0,0,1,2.18.63,2.45,2.45,0,0,1,.73,2v5.09Zm-2.4-1.09a2,2,0,0,0,1.41-.49,1.77,1.77,0,0,0,.53-1.37v-.65l-1,0a3.17,3.17,0,0,0-1.65.38,1.13,1.13,0,0,0-.52,1,1,1,0,0,0,.3.78A1.26,1.26,0,0,0,224.59,307.08Z"/><path class="cls-7" d="M235.46,306a2,2,0,0,1-.81,1.7,3.9,3.9,0,0,1-2.31.59,5.4,5.4,0,0,1-2.43-.46v-1.38a6,6,0,0,0,2.48.61c1,0,1.49-.3,1.49-.89a.69.69,0,0,0-.17-.48,2,2,0,0,0-.54-.4,8.6,8.6,0,0,0-1-.46,4.87,4.87,0,0,1-1.77-1,1.84,1.84,0,0,1-.46-1.31,1.73,1.73,0,0,1,.78-1.51,3.77,3.77,0,0,1,2.13-.53,6,6,0,0,1,2.52.54l-.52,1.21a5.54,5.54,0,0,0-2.05-.51c-.85,0-1.28.24-1.28.73a.73.73,0,0,0,.34.6,7.17,7.17,0,0,0,1.44.67,6.81,6.81,0,0,1,1.36.67,2,2,0,0,1,.63.69A2,2,0,0,1,235.46,306Z"/><path class="cls-7" d="M238.74,304.18l.91-1.13,2.29-2.44h1.85l-3,3.25,3.23,4.31h-1.89l-2.42-3.31-.89.72v2.59h-1.59V297.54h1.59v5.19l-.08,1.45Z"/><path class="cls-7" d="M253.91,306a2,2,0,0,1-.8,1.7,3.9,3.9,0,0,1-2.31.59,5.4,5.4,0,0,1-2.43-.46v-1.38a5.93,5.93,0,0,0,2.48.61c1,0,1.48-.3,1.48-.89a.68.68,0,0,0-.16-.48,2,2,0,0,0-.54-.4,8.17,8.17,0,0,0-1-.46,4.72,4.72,0,0,1-1.76-1,1.84,1.84,0,0,1-.47-1.31,1.74,1.74,0,0,1,.79-1.51,3.77,3.77,0,0,1,2.13-.53,6,6,0,0,1,2.52.54l-.52,1.21a5.58,5.58,0,0,0-2.06-.51c-.85,0-1.27.24-1.27.73a.74.74,0,0,0,.33.6,7.06,7.06,0,0,0,1.45.67,7.1,7.1,0,0,1,1.36.67,2,2,0,0,1,.63.69A2.1,2.1,0,0,1,253.91,306Z"/><path class="cls-7" d="M261,308.17l-.22-1h-.09a2.27,2.27,0,0,1-.95.83,3.18,3.18,0,0,1-1.41.3,2.78,2.78,0,0,1-2.05-.68,2.85,2.85,0,0,1-.68-2.07v-4.95h1.62v4.67a2,2,0,0,0,.36,1.3,1.33,1.33,0,0,0,1.11.43,1.8,1.8,0,0,0,1.49-.6,3.41,3.41,0,0,0,.47-2v-3.77h1.62v7.56Z"/><path class="cls-7" d="M267.58,308.31a3.28,3.28,0,0,1-2.6-1,5,5,0,0,1,0-5.81,3.46,3.46,0,0,1,2.69-1,5.18,5.18,0,0,1,2.16.44l-.49,1.29a4.94,4.94,0,0,0-1.68-.39c-1.31,0-2,.87-2,2.6a3.07,3.07,0,0,0,.49,1.91,1.67,1.67,0,0,0,1.43.64,4.16,4.16,0,0,0,2-.53v1.4a3,3,0,0,1-.92.36A5.74,5.74,0,0,1,267.58,308.31Z"/><path class="cls-7" d="M274.52,308.31a3.29,3.29,0,0,1-2.61-1,4.16,4.16,0,0,1-.89-2.87,4.23,4.23,0,0,1,.93-2.94,3.47,3.47,0,0,1,2.7-1,5.16,5.16,0,0,1,2.15.44l-.49,1.29a4.89,4.89,0,0,0-1.68-.39c-1.31,0-2,.87-2,2.6a3.07,3.07,0,0,0,.49,1.91,1.67,1.67,0,0,0,1.43.64,4.16,4.16,0,0,0,2-.53v1.4a3,3,0,0,1-.92.36A5.64,5.64,0,0,1,274.52,308.31Z"/><path class="cls-7" d="M281.7,308.31a3.65,3.65,0,0,1-2.76-1,3.9,3.9,0,0,1-1-2.83,4.28,4.28,0,0,1,.92-2.91,3.18,3.18,0,0,1,2.54-1.06,3.1,3.1,0,0,1,2.36.91,3.46,3.46,0,0,1,.87,2.5v.87h-5a2.45,2.45,0,0,0,.6,1.69,2.08,2.08,0,0,0,1.58.59,5.42,5.42,0,0,0,1.24-.13,5.86,5.86,0,0,0,1.24-.42v1.31a4.77,4.77,0,0,1-1.19.4A7.92,7.92,0,0,1,281.7,308.31Zm-.29-6.62a1.64,1.64,0,0,0-1.23.49,2.3,2.3,0,0,0-.55,1.41h3.43a2.09,2.09,0,0,0-.45-1.41A1.54,1.54,0,0,0,281.41,301.69Z"/><path class="cls-7" d="M291.54,306a2,2,0,0,1-.8,1.7,3.9,3.9,0,0,1-2.31.59,5.4,5.4,0,0,1-2.43-.46v-1.38a6,6,0,0,0,2.48.61c1,0,1.49-.3,1.49-.89a.69.69,0,0,0-.17-.48,2,2,0,0,0-.54-.4,8.6,8.6,0,0,0-1-.46,4.78,4.78,0,0,1-1.77-1,1.84,1.84,0,0,1-.46-1.31,1.73,1.73,0,0,1,.78-1.51,3.77,3.77,0,0,1,2.13-.53,6,6,0,0,1,2.52.54l-.52,1.21a5.54,5.54,0,0,0-2.06-.51c-.84,0-1.27.24-1.27.73a.74.74,0,0,0,.33.6,7.65,7.65,0,0,0,1.45.67,7.1,7.1,0,0,1,1.36.67,2,2,0,0,1,.63.69A2,2,0,0,1,291.54,306Z"/><path class="cls-7" d="M298.36,306a2,2,0,0,1-.81,1.7,3.88,3.88,0,0,1-2.31.59,5.38,5.38,0,0,1-2.42-.46v-1.38a5.9,5.9,0,0,0,2.48.61c1,0,1.48-.3,1.48-.89a.68.68,0,0,0-.16-.48,2,2,0,0,0-.54-.4,8.17,8.17,0,0,0-1.05-.46,4.87,4.87,0,0,1-1.77-1,1.88,1.88,0,0,1-.46-1.31,1.72,1.72,0,0,1,.79-1.51,3.76,3.76,0,0,1,2.12-.53,6.08,6.08,0,0,1,2.53.54l-.52,1.21a5.58,5.58,0,0,0-2.06-.51c-.85,0-1.27.24-1.27.73a.74.74,0,0,0,.33.6,7.06,7.06,0,0,0,1.45.67,7.42,7.42,0,0,1,1.36.67,1.92,1.92,0,0,1,.62.69A2,2,0,0,1,298.36,306Z"/><path class="cls-7" d="M307.57,300.48a3.6,3.6,0,0,1,.8.07l-.16,1.49a3.29,3.29,0,0,0-.71-.08,2.06,2.06,0,0,0-1.56.63,2.26,2.26,0,0,0-.6,1.63v3.95h-1.61v-7.56H305l.21,1.34h.08a3.12,3.12,0,0,1,1-1.08A2.33,2.33,0,0,1,307.57,300.48Z"/><path class="cls-7" d="M314.5,308.17l-.32-1.05h-.06a3,3,0,0,1-1.1.94,3.41,3.41,0,0,1-1.42.25,2.42,2.42,0,0,1-1.74-.6,2.24,2.24,0,0,1-.62-1.7,2,2,0,0,1,.86-1.77,5.11,5.11,0,0,1,2.65-.65l1.3,0v-.4a1.55,1.55,0,0,0-.33-1.08,1.39,1.39,0,0,0-1.05-.36,3.8,3.8,0,0,0-1.12.17,9,9,0,0,0-1,.4l-.52-1.15a6.37,6.37,0,0,1,2.73-.65,3.25,3.25,0,0,1,2.17.63,2.45,2.45,0,0,1,.74,2v5.09Zm-2.39-1.09a2,2,0,0,0,1.4-.49,1.77,1.77,0,0,0,.53-1.37v-.65l-1,0a3.17,3.17,0,0,0-1.65.38,1.15,1.15,0,0,0-.52,1,1,1,0,0,0,.3.78A1.29,1.29,0,0,0,312.11,307.08Z"/><path class="cls-7" d="M320.71,307a4,4,0,0,0,1.17-.18V308a2.92,2.92,0,0,1-.69.19,4.08,4.08,0,0,1-.87.08q-2.28,0-2.28-2.4v-4.08h-1v-.71l1.11-.59.54-1.6h1v1.68h2.16v1.22h-2.16v4.05a1.16,1.16,0,0,0,.29.86A1.1,1.1,0,0,0,320.71,307Z"/><path class="cls-7" d="M326.69,308.31a3.63,3.63,0,0,1-2.75-1,3.87,3.87,0,0,1-1-2.83,4.28,4.28,0,0,1,.92-2.91,3.2,3.2,0,0,1,2.54-1.06,3.11,3.11,0,0,1,2.37.91,3.5,3.5,0,0,1,.86,2.5v.87h-5a2.5,2.5,0,0,0,.59,1.69,2.08,2.08,0,0,0,1.58.59,5.51,5.51,0,0,0,1.25-.13,6.05,6.05,0,0,0,1.24-.42v1.31a4.91,4.91,0,0,1-1.19.4A8,8,0,0,1,326.69,308.31Zm-.29-6.62a1.64,1.64,0,0,0-1.23.49,2.36,2.36,0,0,0-.55,1.41h3.43a2,2,0,0,0-.45-1.41A1.54,1.54,0,0,0,326.4,301.69Z"/><path class="cls-7" d="M338.89,301.83H337v6.34h-1.61v-6.34h-1.24v-.75l1.24-.49v-.5a2.74,2.74,0,0,1,.63-2,2.58,2.58,0,0,1,1.92-.65,5.32,5.32,0,0,1,1.67.28l-.43,1.22a3.57,3.57,0,0,0-1.13-.19.93.93,0,0,0-.8.34,1.72,1.72,0,0,0-.25,1v.49h1.85Z"/><path class="cls-7" d="M346.88,304.38a4.13,4.13,0,0,1-.95,2.89,3.36,3.36,0,0,1-2.64,1,3.63,3.63,0,0,1-1.88-.48,3.14,3.14,0,0,1-1.25-1.37,4.72,4.72,0,0,1-.44-2.08,4.09,4.09,0,0,1,.95-2.87,3.41,3.41,0,0,1,2.66-1,3.32,3.32,0,0,1,2.59,1A4.1,4.1,0,0,1,346.88,304.38Zm-5.5,0c0,1.75.64,2.62,1.93,2.62s1.92-.87,1.92-2.62-.65-2.59-1.93-2.59a1.64,1.64,0,0,0-1.47.67A3.45,3.45,0,0,0,341.38,304.38Z"/><path class="cls-7" d="M352.56,300.48a3.54,3.54,0,0,1,.8.07L353.2,302a3.22,3.22,0,0,0-.71-.08,2.06,2.06,0,0,0-1.56.63,2.26,2.26,0,0,0-.6,1.63v3.95h-1.6v-7.56H350l.22,1.34h.08a3.1,3.1,0,0,1,1-1.08A2.36,2.36,0,0,1,352.56,300.48Z"/><path class="cls-7" d="M361.22,307a4,4,0,0,0,1.17-.18V308a2.92,2.92,0,0,1-.69.19,4.08,4.08,0,0,1-.87.08q-2.28,0-2.28-2.4v-4.08h-1v-.71l1.11-.59.54-1.6h1v1.68h2.16v1.22h-2.16v4.05a1.16,1.16,0,0,0,.29.86A1.1,1.1,0,0,0,361.22,307Z"/><path class="cls-7" d="M370.55,308.17h-1.61v-4.64a2.07,2.07,0,0,0-.35-1.31,1.36,1.36,0,0,0-1.12-.43,1.77,1.77,0,0,0-1.49.61,3.35,3.35,0,0,0-.47,2v3.75H363.9V297.54h1.61v2.7c0,.43,0,.89-.08,1.39h.1a2.2,2.2,0,0,1,.91-.85,3,3,0,0,1,1.37-.3,2.43,2.43,0,0,1,2.74,2.77Z"/><path class="cls-7" d="M376.09,308.31a3.67,3.67,0,0,1-2.76-1,3.9,3.9,0,0,1-1-2.83,4.28,4.28,0,0,1,.92-2.91,3.18,3.18,0,0,1,2.54-1.06,3.09,3.09,0,0,1,2.36.91,3.46,3.46,0,0,1,.87,2.5v.87h-5a2.45,2.45,0,0,0,.6,1.69,2.08,2.08,0,0,0,1.58.59,5.42,5.42,0,0,0,1.24-.13,5.86,5.86,0,0,0,1.24-.42v1.31a4.84,4.84,0,0,1-1.18.4A8.12,8.12,0,0,1,376.09,308.31Zm-.29-6.62a1.64,1.64,0,0,0-1.23.49,2.3,2.3,0,0,0-.55,1.41h3.43a2.09,2.09,0,0,0-.45-1.41A1.54,1.54,0,0,0,375.8,301.69Z"/><path class="cls-7" d="M383.34,300.61h1.75l1.54,4.29a8.58,8.58,0,0,1,.47,1.72h0a7.12,7.12,0,0,1,.23-.91q.17-.54,1.73-5.1h1.74l-3.23,8.57a3.08,3.08,0,0,1-2.94,2.36,4.42,4.42,0,0,1-1-.12v-1.27a3.49,3.49,0,0,0,.83.08,1.7,1.7,0,0,0,1.63-1.34l.28-.72Z"/><path class="cls-7" d="M395.3,308.31a3.65,3.65,0,0,1-2.76-1,3.9,3.9,0,0,1-1-2.83,4.23,4.23,0,0,1,.92-2.91,3.18,3.18,0,0,1,2.54-1.06,3.1,3.1,0,0,1,2.36.91,3.46,3.46,0,0,1,.87,2.5v.87h-5a2.45,2.45,0,0,0,.6,1.69,2.08,2.08,0,0,0,1.58.59,5.42,5.42,0,0,0,1.24-.13,5.86,5.86,0,0,0,1.24-.42v1.31a4.77,4.77,0,0,1-1.19.4A8,8,0,0,1,395.3,308.31Zm-.29-6.62a1.64,1.64,0,0,0-1.23.49,2.3,2.3,0,0,0-.55,1.41h3.43a2.09,2.09,0,0,0-.45-1.41A1.54,1.54,0,0,0,395,301.69Z"/><path class="cls-7" d="M404.8,308.17l-.33-1.05h-.05a3.07,3.07,0,0,1-1.1.94,3.41,3.41,0,0,1-1.42.25,2.39,2.39,0,0,1-1.74-.6,2.24,2.24,0,0,1-.63-1.7,2,2,0,0,1,.87-1.77,5.11,5.11,0,0,1,2.65-.65l1.3,0v-.4a1.51,1.51,0,0,0-.34-1.08,1.36,1.36,0,0,0-1.05-.36,3.73,3.73,0,0,0-1.11.17,8.46,8.46,0,0,0-1,.4l-.52-1.15a5.67,5.67,0,0,1,1.35-.48,5.78,5.78,0,0,1,1.38-.17,3.28,3.28,0,0,1,2.18.63,2.45,2.45,0,0,1,.73,2v5.09Zm-2.4-1.09a2,2,0,0,0,1.41-.49,1.77,1.77,0,0,0,.53-1.37v-.65l-1,0a3.17,3.17,0,0,0-1.65.38,1.13,1.13,0,0,0-.52,1,1,1,0,0,0,.3.78A1.26,1.26,0,0,0,402.4,307.08Z"/><path class="cls-7" d="M412,300.48a3.6,3.6,0,0,1,.8.07l-.16,1.49A3.22,3.22,0,0,0,412,302a2.06,2.06,0,0,0-1.56.63,2.26,2.26,0,0,0-.6,1.63v3.95h-1.6v-7.56h1.25l.22,1.34h.08a3,3,0,0,1,1-1.08A2.36,2.36,0,0,1,412,300.48Z"/><path class="cls-14" d="M145.7,93.12a4,4,0,0,1,2.57.75,2.41,2.41,0,0,1,.94,2,3.13,3.13,0,0,1-2.11,2.8,5.29,5.29,0,0,1,1.91,1.42,2.62,2.62,0,0,1,.57,1.65,2.81,2.81,0,0,1-1,2.27,4.34,4.34,0,0,1-2.81.85,4.59,4.59,0,0,1-2.88-.8,2.67,2.67,0,0,1-1-2.26,2.9,2.9,0,0,1,.54-1.71,4.54,4.54,0,0,1,1.75-1.36,4.28,4.28,0,0,1-1.49-1.32,2.79,2.79,0,0,1-.44-1.56,2.35,2.35,0,0,1,1-2A4.13,4.13,0,0,1,145.7,93.12Zm-2.12,8.61a1.51,1.51,0,0,0,.57,1.26,2.44,2.44,0,0,0,1.55.45,2.36,2.36,0,0,0,1.56-.46,1.53,1.53,0,0,0,.56-1.26,1.62,1.62,0,0,0-.51-1.16,5.05,5.05,0,0,0-1.56-1l-.23-.1a4,4,0,0,0-1.49,1A1.88,1.88,0,0,0,143.58,101.73Zm2.1-7.19a1.94,1.94,0,0,0-1.25.38,1.28,1.28,0,0,0-.48,1,1.57,1.57,0,0,0,.17.73,1.8,1.8,0,0,0,.5.58,5.52,5.52,0,0,0,1.11.63,3.62,3.62,0,0,0,1.32-.87,1.59,1.59,0,0,0,.39-1.07,1.28,1.28,0,0,0-.48-1A2,2,0,0,0,145.68,94.54Z"/><path class="cls-14" d="M158.71,99a8.18,8.18,0,0,1-1,4.42,3.62,3.62,0,0,1-5.82,0A8,8,0,0,1,151,99a8.28,8.28,0,0,1,.95-4.46,3.62,3.62,0,0,1,5.82.07A8,8,0,0,1,158.71,99Zm-5.89,0a8.35,8.35,0,0,0,.48,3.34,1.67,1.67,0,0,0,3.07,0,8.1,8.1,0,0,0,.49-3.32,8.16,8.16,0,0,0-.49-3.32,1.67,1.67,0,0,0-3.07,0A8.35,8.35,0,0,0,152.82,99Z"/><path class="cls-14" d="M165.1,96.68a4.65,4.65,0,0,1-.65,2.7,2.18,2.18,0,0,1-1.9.9,2.1,2.1,0,0,1-1.84-.94,4.64,4.64,0,0,1-.65-2.66q0-3.57,2.49-3.57a2.19,2.19,0,0,1,1.89.92A4.53,4.53,0,0,1,165.1,96.68Zm-3.52,0a5,5,0,0,0,.23,1.74.77.77,0,0,0,.74.57c.69,0,1-.77,1-2.31s-.34-2.3-1-2.3a.77.77,0,0,0-.74.57A5,5,0,0,0,161.58,96.69Zm8.63-3.42-6.33,11.42h-1.52l6.34-11.42Zm2.32,8a4.64,4.64,0,0,1-.64,2.7,2.2,2.2,0,0,1-1.89.9,2.13,2.13,0,0,1-1.85-.93,4.54,4.54,0,0,1-.65-2.67c0-2.37.83-3.57,2.5-3.57a2.18,2.18,0,0,1,1.87.93A4.47,4.47,0,0,1,172.53,101.25Zm-3.51,0a5.12,5.12,0,0,0,.23,1.75.79.79,0,0,0,.75.58c.68,0,1-.78,1-2.33S170.68,99,170,99a.77.77,0,0,0-.75.56A4.88,4.88,0,0,0,169,101.25Z"/><path class="cls-9" d="M66.83,282.71h56.5V107.45H66.83Z"/><path class="cls-14" d="M81.14,132.69l4.51-9.79H79.71v-1.61h7.9v1.28l-4.49,10.12Z"/><path class="cls-14" d="M96.28,123.9a2.63,2.63,0,0,1-.63,1.8,3.14,3.14,0,0,1-1.78,1v.06a3.44,3.44,0,0,1,2.06.85,2.47,2.47,0,0,1,.69,1.82A3,3,0,0,1,95.46,132a5.33,5.33,0,0,1-3.32.9,7.48,7.48,0,0,1-3.2-.62V130.6a7.43,7.43,0,0,0,1.54.55,6.68,6.68,0,0,0,1.56.2,3.37,3.37,0,0,0,2-.49,1.81,1.81,0,0,0,.65-1.53A1.45,1.45,0,0,0,94,128a4.63,4.63,0,0,0-2.28-.43h-1v-1.49h1c1.82,0,2.74-.63,2.74-1.89A1.41,1.41,0,0,0,94,123a2.19,2.19,0,0,0-1.41-.39,4.34,4.34,0,0,0-1.25.18,6,6,0,0,0-1.42.71l-.9-1.28a6,6,0,0,1,3.65-1.15,4.33,4.33,0,0,1,2.7.74A2.44,2.44,0,0,1,96.28,123.9Z"/><path class="cls-14" d="M103.1,124.68a4.65,4.65,0,0,1-.65,2.7,2.18,2.18,0,0,1-1.9.9,2.1,2.1,0,0,1-1.84-.94,4.64,4.64,0,0,1-.65-2.66q0-3.57,2.49-3.57a2.19,2.19,0,0,1,1.89.92A4.53,4.53,0,0,1,103.1,124.68Zm-3.52,0a5,5,0,0,0,.23,1.74.77.77,0,0,0,.74.57c.69,0,1-.77,1-2.31s-.34-2.3-1-2.3a.77.77,0,0,0-.74.57A5,5,0,0,0,99.58,124.69Zm8.63-3.42-6.33,11.42h-1.52l6.34-11.42Zm2.32,8a4.64,4.64,0,0,1-.64,2.7,2.2,2.2,0,0,1-1.89.9,2.13,2.13,0,0,1-1.85-.93,4.54,4.54,0,0,1-.65-2.67c0-2.37.83-3.57,2.5-3.57a2.18,2.18,0,0,1,1.87.93A4.47,4.47,0,0,1,110.53,129.25Zm-3.51,0a5.12,5.12,0,0,0,.23,1.75.79.79,0,0,0,.75.58c.68,0,1-.78,1-2.33s-.34-2.28-1-2.28a.77.77,0,0,0-.75.56A4.88,4.88,0,0,0,107,129.25Z"/><path class="cls-7" d="M212.21,63.4a7.84,7.84,0,0,1-1.36,5,5,5,0,0,1-4.09,1.66,6.48,6.48,0,0,1-1.49-.12V68.44a5.12,5.12,0,0,0,1.39.19,3.58,3.58,0,0,0,2.78-1,4.84,4.84,0,0,0,1-3.14h-.1a2.7,2.7,0,0,1-1.11,1,3.45,3.45,0,0,1-1.53.31,3.07,3.07,0,0,1-2.38-.94,3.7,3.7,0,0,1-.87-2.6,4,4,0,0,1,1-2.85,3.61,3.61,0,0,1,2.74-1,3.64,3.64,0,0,1,3.52,2.31A6.73,6.73,0,0,1,212.21,63.4Zm-4-3.5a1.77,1.77,0,0,0-1.46.62,2.68,2.68,0,0,0-.51,1.75,2.31,2.31,0,0,0,.47,1.53,1.78,1.78,0,0,0,1.43.56,2.32,2.32,0,0,0,1.57-.56,1.66,1.66,0,0,0,.63-1.29,3.12,3.12,0,0,0-.27-1.3,2.28,2.28,0,0,0-.75-1A1.9,1.9,0,0,0,208.23,59.9Z"/><path class="cls-7" d="M221.77,67.45h-1.54V70h-1.79v-2.5h-5.22V66l5.22-7.55h1.79v7.44h1.54Zm-3.33-1.52V63.06c0-1,0-1.85.08-2.51h-.07a7.67,7.67,0,0,1-.68,1.25l-2.84,4.13Z"/><path class="cls-7" d="M227.74,61.93a4.64,4.64,0,0,1-.64,2.7,2.2,2.2,0,0,1-1.9.9,2.1,2.1,0,0,1-1.84-.93,4.58,4.58,0,0,1-.66-2.67q0-3.57,2.5-3.57a2.17,2.17,0,0,1,1.88.93A4.47,4.47,0,0,1,227.74,61.93Zm-3.51,0a5,5,0,0,0,.22,1.73.78.78,0,0,0,.75.57c.68,0,1-.77,1-2.3s-.35-2.31-1-2.31a.78.78,0,0,0-.75.57A5.06,5.06,0,0,0,224.23,62Zm8.63-3.43L226.52,70H225l6.33-11.43Zm2.32,8a4.6,4.6,0,0,1-.65,2.69,2.18,2.18,0,0,1-1.89.9,2.13,2.13,0,0,1-1.84-.92,4.58,4.58,0,0,1-.66-2.67q0-3.57,2.5-3.57a2.18,2.18,0,0,1,1.87.92A4.43,4.43,0,0,1,235.18,66.51Zm-3.52,0a5.09,5.09,0,0,0,.23,1.74.79.79,0,0,0,.75.58c.68,0,1-.78,1-2.32s-.34-2.29-1-2.29a.8.8,0,0,0-.75.56A5,5,0,0,0,231.66,66.51Z"/><path class="cls-7" d="M275,251.49h-7.75V250.1l2.95-3a22.5,22.5,0,0,0,1.73-1.9,4.55,4.55,0,0,0,.62-1.05,2.84,2.84,0,0,0,.2-1.05,1.61,1.61,0,0,0-.47-1.22,1.77,1.77,0,0,0-1.28-.45,3.27,3.27,0,0,0-1.27.25,5.78,5.78,0,0,0-1.42.87l-1-1.21a6.15,6.15,0,0,1,1.85-1.14,5.52,5.52,0,0,1,1.91-.34,3.76,3.76,0,0,1,2.56.84,2.8,2.8,0,0,1,1,2.23,4,4,0,0,1-.28,1.47,6,6,0,0,1-.85,1.44,19.67,19.67,0,0,1-1.91,2l-2,1.92v.08H275Z"/><path class="cls-7" d="M284.11,245.78a8.1,8.1,0,0,1-1,4.42,3.27,3.27,0,0,1-2.92,1.45,3.23,3.23,0,0,1-2.89-1.5,7.92,7.92,0,0,1-1-4.37,8.16,8.16,0,0,1,1-4.46,3.28,3.28,0,0,1,2.92-1.43,3.23,3.23,0,0,1,2.89,1.5A8,8,0,0,1,284.11,245.78Zm-5.9,0a8.27,8.27,0,0,0,.48,3.33,1.68,1.68,0,0,0,3.08,0,8.34,8.34,0,0,0,.49-3.32,8.43,8.43,0,0,0-.49-3.33,1.62,1.62,0,0,0-1.54-1,1.6,1.6,0,0,0-1.54,1A8.44,8.44,0,0,0,278.21,245.78Z"/><path class="cls-7" d="M290.49,243.47a4.64,4.64,0,0,1-.64,2.7,2.21,2.21,0,0,1-1.91.91,2.13,2.13,0,0,1-1.84-.94,4.66,4.66,0,0,1-.65-2.67q0-3.57,2.49-3.57a2.18,2.18,0,0,1,1.89.93A4.52,4.52,0,0,1,290.49,243.47Zm-3.51,0a5,5,0,0,0,.22,1.73.77.77,0,0,0,.74.57c.69,0,1-.76,1-2.3s-.35-2.31-1-2.31a.79.79,0,0,0-.74.57A5.1,5.1,0,0,0,287,243.49Zm8.63-3.42-6.34,11.42h-1.51l6.33-11.42Zm2.32,8a4.63,4.63,0,0,1-.65,2.7,2.18,2.18,0,0,1-1.89.9,2.11,2.11,0,0,1-1.84-.93,4.58,4.58,0,0,1-.66-2.67q0-3.57,2.5-3.57a2.18,2.18,0,0,1,1.87.92A4.45,4.45,0,0,1,297.93,248.05Zm-3.52,0a5,5,0,0,0,.23,1.74.79.79,0,0,0,.75.58c.68,0,1-.77,1-2.32s-.34-2.29-1-2.29a.79.79,0,0,0-.75.57A4.88,4.88,0,0,0,294.41,248.05Z"/><path class="cls-14" d="M338.38,194h-1.54v2.49h-1.79V194h-5.21v-1.42l5.21-7.54h1.79v7.43h1.54Zm-3.33-1.53v-2.86c0-1,0-1.86.08-2.51h-.06a10,10,0,0,1-.69,1.25l-2.83,4.12Z"/><path class="cls-14" d="M344.76,196.49h-1.84v-7.38c0-.88,0-1.57.06-2.09a4.57,4.57,0,0,1-.44.41c-.17.16-.76.63-1.75,1.44l-.92-1.16,3.36-2.64h1.53Z"/><path class="cls-14" d="M353.49,188.47a4.64,4.64,0,0,1-.64,2.7,2.21,2.21,0,0,1-1.91.91,2.13,2.13,0,0,1-1.84-.94,4.66,4.66,0,0,1-.65-2.67q0-3.57,2.49-3.57a2.18,2.18,0,0,1,1.89.93A4.52,4.52,0,0,1,353.49,188.47Zm-3.51,0a5,5,0,0,0,.22,1.73.77.77,0,0,0,.74.57c.69,0,1-.76,1-2.3s-.35-2.31-1-2.31a.79.79,0,0,0-.74.57A5.1,5.1,0,0,0,350,188.49Zm8.63-3.42-6.34,11.42h-1.51l6.33-11.42Zm2.32,8a4.63,4.63,0,0,1-.65,2.7,2.18,2.18,0,0,1-1.89.9,2.11,2.11,0,0,1-1.84-.93,4.58,4.58,0,0,1-.66-2.67q0-3.57,2.5-3.57a2.18,2.18,0,0,1,1.87.92A4.45,4.45,0,0,1,360.93,193.05Zm-3.52,0a5,5,0,0,0,.23,1.74.79.79,0,0,0,.75.58c.68,0,1-.77,1-2.32s-.34-2.29-1-2.29a.79.79,0,0,0-.75.57A4.88,4.88,0,0,0,357.41,193.05Z"/><g id="patch_6-2" data-name="patch 6"><path class="cls-13" d="M505.31,282.71h56.5V240.45h-56.5Z"/></g><g id="patch_3-2" data-name="patch 3"><path class="cls-10" d="M442.76,282.71h56.5V94.45h-56.5Z"/></g><path class="cls-11" d="M379.83,282.71h56.5V82.46h-56.5Z"/><g id="patch_4-2" data-name="patch 4"><path class="cls-12" d="M567.36,282.71h56.5V191.45h-56.5Z"/></g><path class="cls-14" d="M396.7,93.12a4,4,0,0,1,2.57.75,2.41,2.41,0,0,1,.94,2,3.13,3.13,0,0,1-2.11,2.8,5.29,5.29,0,0,1,1.91,1.42,2.62,2.62,0,0,1,.57,1.65,2.81,2.81,0,0,1-1,2.27,4.34,4.34,0,0,1-2.81.85,4.59,4.59,0,0,1-2.88-.8,2.67,2.67,0,0,1-1-2.26,2.9,2.9,0,0,1,.54-1.71,4.54,4.54,0,0,1,1.75-1.36,4.28,4.28,0,0,1-1.49-1.32,2.79,2.79,0,0,1-.44-1.56,2.35,2.35,0,0,1,1-2A4.13,4.13,0,0,1,396.7,93.12Zm-2.12,8.61a1.51,1.51,0,0,0,.57,1.26,2.44,2.44,0,0,0,1.55.45,2.36,2.36,0,0,0,1.56-.46,1.53,1.53,0,0,0,.56-1.26,1.62,1.62,0,0,0-.51-1.16,5.05,5.05,0,0,0-1.56-1l-.23-.1a4,4,0,0,0-1.49,1A1.88,1.88,0,0,0,394.58,101.73Zm2.1-7.19a1.94,1.94,0,0,0-1.25.38,1.28,1.28,0,0,0-.48,1,1.57,1.57,0,0,0,.17.73,1.8,1.8,0,0,0,.5.58,5.52,5.52,0,0,0,1.11.63,3.62,3.62,0,0,0,1.32-.87,1.59,1.59,0,0,0,.39-1.07,1.28,1.28,0,0,0-.48-1A2,2,0,0,0,396.68,94.54Z"/><path class="cls-14" d="M409.71,99a8.18,8.18,0,0,1-.95,4.42,3.62,3.62,0,0,1-5.82,0A8,8,0,0,1,402,99a8.28,8.28,0,0,1,1-4.46,3.62,3.62,0,0,1,5.82.07A8,8,0,0,1,409.71,99Zm-5.89,0a8.35,8.35,0,0,0,.48,3.34,1.67,1.67,0,0,0,3.07,0,8.1,8.1,0,0,0,.49-3.32,8.16,8.16,0,0,0-.49-3.32,1.67,1.67,0,0,0-3.07,0A8.35,8.35,0,0,0,403.82,99Z"/><path class="cls-14" d="M416.1,96.68a4.65,4.65,0,0,1-.65,2.7,2.18,2.18,0,0,1-1.9.9,2.1,2.1,0,0,1-1.84-.94,4.64,4.64,0,0,1-.65-2.66q0-3.57,2.49-3.57a2.19,2.19,0,0,1,1.89.92A4.53,4.53,0,0,1,416.1,96.68Zm-3.52,0a5,5,0,0,0,.23,1.74.77.77,0,0,0,.74.57c.69,0,1-.77,1-2.31s-.34-2.3-1-2.3a.77.77,0,0,0-.74.57A5,5,0,0,0,412.58,96.69Zm8.63-3.42-6.33,11.42h-1.52l6.34-11.42Zm2.32,8a4.64,4.64,0,0,1-.64,2.7,2.2,2.2,0,0,1-1.89.9,2.13,2.13,0,0,1-1.85-.93,4.54,4.54,0,0,1-.65-2.67c0-2.37.83-3.57,2.5-3.57a2.18,2.18,0,0,1,1.87.93A4.47,4.47,0,0,1,423.53,101.25Zm-3.51,0a5.12,5.12,0,0,0,.23,1.75.79.79,0,0,0,.75.58c.68,0,1-.78,1-2.33S421.68,99,421,99a.77.77,0,0,0-.75.56A4.88,4.88,0,0,0,420,101.25Z"/><path class="cls-14" d="M456.78,115l4.52-9.79h-5.94v-1.62h7.9v1.28L458.77,115Z"/><path class="cls-14" d="M464.65,110.08q0-6.7,5.46-6.7a6.65,6.65,0,0,1,1.45.13V105a4.71,4.71,0,0,0-1.37-.17,3.61,3.61,0,0,0-2.76,1,4.81,4.81,0,0,0-1,3.16h.09a2.56,2.56,0,0,1,1-1,3.4,3.4,0,0,1,1.57-.35,3.13,3.13,0,0,1,2.42.95,3.71,3.71,0,0,1,.87,2.59,3.93,3.93,0,0,1-1,2.84,3.64,3.64,0,0,1-2.74,1,3.79,3.79,0,0,1-2.13-.59,3.7,3.7,0,0,1-1.39-1.72A6.7,6.7,0,0,1,464.65,110.08Zm4,3.51a1.82,1.82,0,0,0,1.46-.61,2.67,2.67,0,0,0,.51-1.75,2.29,2.29,0,0,0-.48-1.54,1.77,1.77,0,0,0-1.44-.56,2.33,2.33,0,0,0-1.09.25,2,2,0,0,0-.79.69,1.6,1.6,0,0,0-.29.91,2.87,2.87,0,0,0,.6,1.85A1.85,1.85,0,0,0,468.63,113.59Z"/><path class="cls-14" d="M478.74,106.93a4.64,4.64,0,0,1-.64,2.7,2.2,2.2,0,0,1-1.9.9,2.1,2.1,0,0,1-1.84-.93,4.58,4.58,0,0,1-.66-2.67q0-3.57,2.5-3.57a2.17,2.17,0,0,1,1.88.93A4.47,4.47,0,0,1,478.74,106.93Zm-3.51,0a5,5,0,0,0,.22,1.73.78.78,0,0,0,.75.57c.68,0,1-.77,1-2.3s-.35-2.31-1-2.31a.78.78,0,0,0-.75.57A5.06,5.06,0,0,0,475.23,107Zm8.63-3.43L477.52,115H476l6.33-11.43Zm2.32,8a4.6,4.6,0,0,1-.65,2.69,2.18,2.18,0,0,1-1.89.9,2.13,2.13,0,0,1-1.84-.92,4.58,4.58,0,0,1-.66-2.67q0-3.57,2.5-3.57a2.18,2.18,0,0,1,1.87.92A4.43,4.43,0,0,1,486.18,111.51Zm-3.52,0a5.09,5.09,0,0,0,.23,1.74.79.79,0,0,0,.75.58c.68,0,1-.78,1-2.32s-.34-2.29-1-2.29a.8.8,0,0,0-.75.56A5,5,0,0,0,482.66,111.51Z"/><path class="cls-14" d="M523.62,261.49h-1.83v-7.38c0-.88,0-1.57.06-2.09-.12.13-.27.26-.44.41s-.76.63-1.75,1.44l-.93-1.16,3.36-2.64h1.53Z"/><path class="cls-14" d="M531.24,254.36a3.94,3.94,0,0,1,2.74.91,3.2,3.2,0,0,1,1,2.49,3.66,3.66,0,0,1-1.14,2.86,4.73,4.73,0,0,1-3.25,1,6.16,6.16,0,0,1-3-.62v-1.67a5.41,5.41,0,0,0,1.45.56,6.64,6.64,0,0,0,1.52.19,2.82,2.82,0,0,0,1.89-.55,2,2,0,0,0,.65-1.63q0-2-2.61-2a6.64,6.64,0,0,0-.9.07c-.36,0-.68.11-1,.17l-.82-.48.44-5.58h5.94v1.63h-4.32l-.26,2.83.67-.11A6.46,6.46,0,0,1,531.24,254.36Z"/><path class="cls-14" d="M541.49,253.47a4.64,4.64,0,0,1-.64,2.7,2.21,2.21,0,0,1-1.91.91,2.13,2.13,0,0,1-1.84-.94,4.66,4.66,0,0,1-.65-2.67q0-3.57,2.49-3.57a2.18,2.18,0,0,1,1.89.93A4.52,4.52,0,0,1,541.49,253.47Zm-3.51,0a5,5,0,0,0,.22,1.73.77.77,0,0,0,.74.57c.69,0,1-.76,1-2.3s-.35-2.31-1-2.31a.79.79,0,0,0-.74.57A5.1,5.1,0,0,0,538,253.49Zm8.63-3.42-6.34,11.42h-1.51l6.33-11.42Zm2.32,8a4.63,4.63,0,0,1-.65,2.7,2.18,2.18,0,0,1-1.89.9,2.11,2.11,0,0,1-1.84-.93,4.58,4.58,0,0,1-.66-2.67q0-3.57,2.5-3.57a2.18,2.18,0,0,1,1.87.92A4.45,4.45,0,0,1,548.93,258.05Zm-3.52,0a5,5,0,0,0,.23,1.74.79.79,0,0,0,.75.58c.68,0,1-.77,1-2.32s-.34-2.29-1-2.29a.79.79,0,0,0-.75.57A4.88,4.88,0,0,0,545.41,258.05Z"/><path class="cls-14" d="M587.55,201.69a2.6,2.6,0,0,1-.64,1.81,3.13,3.13,0,0,1-1.78,1v.07a3.41,3.41,0,0,1,2.06.85,2.45,2.45,0,0,1,.69,1.82,3,3,0,0,1-1.16,2.54,5.32,5.32,0,0,1-3.31.9,7.5,7.5,0,0,1-3.21-.62V208.4a7.43,7.43,0,0,0,1.54.55,6.68,6.68,0,0,0,1.56.2,3.29,3.29,0,0,0,2-.5,1.75,1.75,0,0,0,.65-1.52,1.44,1.44,0,0,0-.72-1.34,4.63,4.63,0,0,0-2.28-.43h-1v-1.5h1c1.83,0,2.74-.63,2.74-1.89a1.39,1.39,0,0,0-.48-1.13,2.19,2.19,0,0,0-1.41-.4,4.08,4.08,0,0,0-1.25.19,6,6,0,0,0-1.42.71l-.9-1.28a6,6,0,0,1,3.65-1.16,4.33,4.33,0,0,1,2.7.75A2.43,2.43,0,0,1,587.55,201.69Z"/><path class="cls-14" d="M590.66,210.49l4.52-9.79h-5.94v-1.62h7.9v1.28l-4.49,10.13Z"/><path class="cls-14" d="M603.49,202.47a4.64,4.64,0,0,1-.64,2.7,2.21,2.21,0,0,1-1.91.91,2.13,2.13,0,0,1-1.84-.94,4.66,4.66,0,0,1-.65-2.67q0-3.57,2.49-3.57a2.18,2.18,0,0,1,1.89.93A4.52,4.52,0,0,1,603.49,202.47Zm-3.51,0a5,5,0,0,0,.22,1.73.77.77,0,0,0,.74.57c.69,0,1-.76,1-2.3s-.35-2.31-1-2.31a.79.79,0,0,0-.74.57A5.1,5.1,0,0,0,600,202.49Zm8.63-3.42-6.34,11.42h-1.51l6.33-11.42Zm2.32,8a4.63,4.63,0,0,1-.65,2.7,2.18,2.18,0,0,1-1.89.9,2.11,2.11,0,0,1-1.84-.93,4.58,4.58,0,0,1-.66-2.67q0-3.57,2.5-3.57a2.18,2.18,0,0,1,1.87.92A4.45,4.45,0,0,1,610.93,207.05Zm-3.52,0a5,5,0,0,0,.23,1.74.79.79,0,0,0,.75.58c.68,0,1-.77,1-2.32s-.34-2.29-1-2.29a.79.79,0,0,0-.75.57A4.88,4.88,0,0,0,607.41,207.05Z"/></g></g></svg>