<?xml version="1.0" encoding="utf-8"?>
<!-- Generator: Adobe Illustrator 24.2.0, SVG Export Plug-In . SVG Version: 6.00 Build 0)  -->
<svg version="1.1" id="Layer_1" xmlns="http://www.w3.org/2000/svg" xmlns:xlink="http://www.w3.org/1999/xlink" x="0px" y="0px"
	 viewBox="0 0 892 338.9" style="enable-background:new 0 0 892 338.9;" xml:space="preserve">
<style type="text/css">
	.st0{fill:none;}
	.st1{fill:none;stroke:#404041;stroke-miterlimit:10;}
	.st2{enable-background:new    ;}
	.st3{fill:#333333;}
	.st4{fill:#404041;}
	.st5{fill:#239546;}
	.st6{fill:#B74D94;}
	.st7{fill:#84B2F9;}
	.st8{fill:#59A09F;}
	.st9{fill:#4569A0;}
	.st10{fill:#FFD964;}
	.st11{fill:#F5C44F;}
</style>
<g id="Group_4853" transform="translate(-357 -1248.506)">
	<rect id="Rectangle_809" x="357" y="1249" class="st0" width="892" height="338"/>
	<g id="Group_4850" transform="translate(78.732)">
		<line id="Line_518" class="st1" x1="991.3" y1="1358.6" x2="810.4" y2="1358.6"/>
		<line id="Line_519" class="st1" x1="991.3" y1="1462.9" x2="826.5" y2="1460.7"/>
		<line id="Line_520" class="st1" x1="991.3" y1="1409.7" x2="852.2" y2="1409.7"/>
		<g class="st2">
			<path class="st3" d="M902.8,1468.8c1.5,0,2.6,0.3,3.5,1c0.9,0.7,1.3,1.6,1.3,2.7c0,1.6-1,2.9-2.9,3.8c1.2,0.6,2.1,1.2,2.6,1.9
				s0.8,1.4,0.8,2.2c0,1.3-0.5,2.3-1.4,3.1c-0.9,0.8-2.2,1.2-3.8,1.2c-1.7,0-3-0.4-3.9-1.1s-1.4-1.7-1.4-3.1c0-0.9,0.2-1.6,0.7-2.3
				s1.3-1.3,2.4-1.8c-0.9-0.6-1.6-1.2-2-1.8c-0.4-0.6-0.6-1.3-0.6-2.1c0-1.1,0.4-2,1.3-2.7C900.3,1469.1,901.4,1468.8,902.8,1468.8z
				 M900,1480.5c0,0.7,0.3,1.3,0.8,1.7c0.5,0.4,1.2,0.6,2.1,0.6c0.9,0,1.6-0.2,2.1-0.6c0.5-0.4,0.8-1,0.8-1.7c0-0.6-0.2-1.1-0.7-1.6
				c-0.5-0.5-1.2-0.9-2.1-1.3l-0.3-0.1c-0.9,0.4-1.6,0.9-2,1.4C900.2,1479.3,900,1479.9,900,1480.5z M902.8,1470.7
				c-0.7,0-1.3,0.2-1.7,0.5c-0.4,0.4-0.6,0.8-0.6,1.4c0,0.4,0.1,0.7,0.2,1s0.4,0.6,0.7,0.8c0.3,0.2,0.8,0.5,1.5,0.9
				c0.8-0.4,1.4-0.8,1.8-1.2c0.4-0.4,0.5-0.9,0.5-1.4c0-0.6-0.2-1.1-0.7-1.4C904.1,1470.9,903.5,1470.7,902.8,1470.7z"/>
			<path class="st3" d="M910,1477.9c0-6.1,2.5-9.1,7.4-9.1c0.8,0,1.4,0.1,2,0.2v2.1c-0.5-0.2-1.2-0.2-1.9-0.2
				c-1.7,0-2.9,0.4-3.7,1.3c-0.8,0.9-1.3,2.3-1.4,4.3h0.1c0.3-0.6,0.8-1,1.4-1.3c0.6-0.3,1.3-0.5,2.1-0.5c1.4,0,2.5,0.4,3.3,1.3
				c0.8,0.9,1.2,2,1.2,3.5c0,1.6-0.5,2.9-1.4,3.9c-0.9,0.9-2.1,1.4-3.7,1.4c-1.1,0-2.1-0.3-2.9-0.8s-1.5-1.3-1.9-2.3
				C910.3,1480.6,910,1479.4,910,1477.9z M915.5,1482.7c0.9,0,1.5-0.3,2-0.8c0.5-0.6,0.7-1.3,0.7-2.4c0-0.9-0.2-1.6-0.7-2.1
				c-0.4-0.5-1.1-0.8-2-0.8c-0.5,0-1,0.1-1.5,0.3c-0.5,0.2-0.8,0.5-1.1,0.9s-0.4,0.8-0.4,1.2c0,1,0.3,1.8,0.8,2.5
				C913.9,1482.3,914.6,1482.7,915.5,1482.7z"/>
			<path class="st3" d="M929.2,1473.6c0,1.6-0.3,2.8-0.9,3.7c-0.6,0.8-1.4,1.2-2.6,1.2c-1.1,0-1.9-0.4-2.5-1.3s-0.9-2.1-0.9-3.6
				c0-3.2,1.1-4.8,3.4-4.8c1.1,0,2,0.4,2.6,1.3S929.2,1472.1,929.2,1473.6z M924.4,1473.7c0,1.1,0.1,1.8,0.3,2.4
				c0.2,0.5,0.5,0.8,1,0.8c0.9,0,1.4-1,1.4-3.1c0-2.1-0.5-3.1-1.4-3.1c-0.5,0-0.8,0.3-1,0.8C924.5,1471.8,924.4,1472.6,924.4,1473.7
				z M936.1,1469l-8.6,15.5h-2.1l8.6-15.5H936.1z M939.3,1479.9c0,1.6-0.3,2.8-0.9,3.7s-1.4,1.2-2.6,1.2c-1.1,0-1.9-0.4-2.5-1.3
				c-0.6-0.8-0.9-2-0.9-3.6c0-3.2,1.1-4.8,3.4-4.8c1.1,0,1.9,0.4,2.5,1.3C939,1477.1,939.3,1478.3,939.3,1479.9z M934.5,1479.9
				c0,1.1,0.1,1.8,0.3,2.4c0.2,0.5,0.5,0.8,1,0.8c0.9,0,1.4-1.1,1.4-3.2c0-2.1-0.5-3.1-1.4-3.1c-0.5,0-0.8,0.3-1,0.8
				C934.6,1478,934.5,1478.8,934.5,1479.9z"/>
		</g>
		<g class="st2">
			<path class="st3" d="M956.6,1484.5H948V1469h8.6v1.6h-6.8v5h6.4v1.6h-6.4v5.7h6.8V1484.5z"/>
			<path class="st3" d="M966.9,1484.5l-0.4-1.7h-0.1c-0.6,0.7-1.2,1.2-1.7,1.5c-0.6,0.3-1.3,0.4-2.2,0.4c-1.2,0-2.1-0.3-2.7-0.9
				c-0.7-0.6-1-1.4-1-2.5c0-2.3,1.9-3.6,5.6-3.7l2-0.1v-0.7c0-0.9-0.2-1.6-0.6-2c-0.4-0.4-1-0.7-1.9-0.7c-1,0-2.1,0.3-3.3,0.9
				l-0.5-1.3c0.6-0.3,1.2-0.6,1.9-0.7c0.7-0.2,1.4-0.3,2.1-0.3c1.4,0,2.4,0.3,3.1,0.9c0.7,0.6,1,1.6,1,3v7.9H966.9z M962.9,1483.3
				c1.1,0,2-0.3,2.6-0.9c0.6-0.6,0.9-1.4,0.9-2.5v-1l-1.8,0.1c-1.4,0-2.4,0.3-3,0.7c-0.6,0.4-0.9,1-0.9,1.8c0,0.6,0.2,1.1,0.6,1.5
				C961.7,1483.1,962.3,1483.3,962.9,1483.3z"/>
			<path class="st3" d="M979.4,1481.4c0,1.1-0.4,1.9-1.2,2.5c-0.8,0.6-1.9,0.9-3.4,0.9c-1.5,0-2.7-0.2-3.6-0.7v-1.6
				c0.6,0.3,1.2,0.5,1.8,0.7c0.6,0.2,1.3,0.2,1.9,0.2c0.9,0,1.6-0.1,2.1-0.4c0.5-0.3,0.7-0.7,0.7-1.3c0-0.5-0.2-0.8-0.6-1.2
				c-0.4-0.3-1.2-0.7-2.3-1.1c-1.1-0.4-1.9-0.8-2.3-1.1s-0.8-0.6-1-1s-0.3-0.8-0.3-1.4c0-0.9,0.4-1.7,1.2-2.2
				c0.8-0.5,1.8-0.8,3.2-0.8c1.3,0,2.5,0.3,3.7,0.8l-0.6,1.4c-1.2-0.5-2.2-0.7-3.2-0.7c-0.8,0-1.5,0.1-1.9,0.4
				c-0.4,0.3-0.6,0.6-0.6,1.1c0,0.3,0.1,0.6,0.2,0.8c0.2,0.2,0.4,0.4,0.8,0.6s1,0.5,2,0.9c1.4,0.5,2.3,1,2.8,1.5
				C979.1,1479.9,979.4,1480.6,979.4,1481.4z"/>
			<path class="st3" d="M980.4,1472.9h1.9l2.5,6.6c0.6,1.5,0.9,2.6,1,3.3h0.1c0.1-0.4,0.3-1,0.6-1.9c0.3-0.9,1.3-3.6,2.9-8.1h1.9
				l-5,13.2c-0.5,1.3-1.1,2.2-1.7,2.8c-0.7,0.5-1.5,0.8-2.4,0.8c-0.5,0-1.1-0.1-1.6-0.2v-1.4c0.4,0.1,0.8,0.1,1.3,0.1
				c1.2,0,2.1-0.7,2.6-2l0.6-1.7L980.4,1472.9z"/>
		</g>
		<g class="st2">
			<path class="st3" d="M955.4,1436h-1.8v-7.3h-8.2v7.3h-1.8v-15.5h1.8v6.6h8.2v-6.6h1.8V1436z"/>
			<path class="st3" d="M966.5,1436l-0.3-1.7h-0.1c-0.6,0.7-1.2,1.2-1.7,1.5c-0.6,0.3-1.3,0.4-2.2,0.4c-1.2,0-2.1-0.3-2.7-0.9
				c-0.7-0.6-1-1.4-1-2.5c0-2.3,1.9-3.6,5.6-3.7l2-0.1v-0.7c0-0.9-0.2-1.6-0.6-2c-0.4-0.4-1-0.7-1.9-0.7c-1,0-2.1,0.3-3.3,0.9
				l-0.5-1.3c0.6-0.3,1.2-0.6,1.9-0.7s1.4-0.3,2.1-0.3c1.4,0,2.4,0.3,3.1,0.9c0.7,0.6,1,1.6,1,3v7.9H966.5z M962.5,1434.8
				c1.1,0,2-0.3,2.6-0.9c0.6-0.6,0.9-1.4,0.9-2.5v-1l-1.8,0.1c-1.4,0-2.4,0.3-3,0.7s-0.9,1-0.9,1.8c0,0.6,0.2,1.1,0.6,1.5
				C961.3,1434.6,961.8,1434.8,962.5,1434.8z"/>
			<path class="st3" d="M976.7,1424.2c0.5,0,1,0,1.4,0.1l-0.2,1.6c-0.5-0.1-0.9-0.2-1.3-0.2c-0.9,0-1.7,0.4-2.4,1.1
				c-0.7,0.8-1,1.7-1,2.9v6.2h-1.8v-11.6h1.5l0.2,2.2h0.1c0.4-0.8,1-1.3,1.6-1.8C975.3,1424.4,976,1424.2,976.7,1424.2z"/>
			<path class="st3" d="M988.2,1434.5L988.2,1434.5c-0.9,1.2-2.1,1.8-3.7,1.8c-1.5,0-2.7-0.5-3.5-1.6c-0.8-1-1.3-2.5-1.3-4.4
				c0-1.9,0.4-3.4,1.3-4.5s2-1.6,3.5-1.6c1.6,0,2.8,0.6,3.6,1.7h0.1l-0.1-0.8l0-0.8v-4.7h1.8v16.5h-1.4L988.2,1434.5z M984.7,1434.8
				c1.2,0,2.1-0.3,2.6-1c0.5-0.7,0.8-1.7,0.8-3.2v-0.4c0-1.6-0.3-2.8-0.8-3.5c-0.5-0.7-1.4-1.1-2.6-1.1c-1,0-1.8,0.4-2.4,1.2
				s-0.8,1.9-0.8,3.4c0,1.5,0.3,2.6,0.8,3.4C982.8,1434.4,983.6,1434.8,984.7,1434.8z"/>
		</g>
		<g class="st2">
			<path class="st4" d="M884.6,1333.7c1.5,0,2.6,0.3,3.5,1c0.9,0.7,1.3,1.6,1.3,2.7c0,1.6-1,2.9-2.9,3.8c1.2,0.6,2.1,1.2,2.6,1.9
				s0.8,1.4,0.8,2.2c0,1.3-0.5,2.3-1.4,3.1c-0.9,0.8-2.2,1.2-3.8,1.2c-1.7,0-3-0.4-3.9-1.1s-1.4-1.7-1.4-3.1c0-0.9,0.2-1.6,0.7-2.3
				s1.3-1.3,2.4-1.8c-0.9-0.6-1.6-1.2-2-1.8c-0.4-0.6-0.6-1.3-0.6-2.1c0-1.1,0.4-2,1.3-2.7C882,1334.1,883.2,1333.7,884.6,1333.7z
				 M881.7,1345.4c0,0.7,0.3,1.3,0.8,1.7c0.5,0.4,1.2,0.6,2.1,0.6c0.9,0,1.6-0.2,2.1-0.6c0.5-0.4,0.8-1,0.8-1.7
				c0-0.6-0.2-1.1-0.7-1.6c-0.5-0.5-1.2-0.9-2.1-1.3l-0.3-0.1c-0.9,0.4-1.6,0.9-2,1.4C881.9,1344.2,881.7,1344.8,881.7,1345.4z
				 M884.6,1335.7c-0.7,0-1.3,0.2-1.7,0.5c-0.4,0.4-0.6,0.8-0.6,1.4c0,0.4,0.1,0.7,0.2,1s0.4,0.6,0.7,0.8c0.3,0.2,0.8,0.5,1.5,0.9
				c0.8-0.4,1.4-0.8,1.8-1.2c0.4-0.4,0.5-0.9,0.5-1.4c0-0.6-0.2-1.1-0.7-1.4C885.9,1335.8,885.3,1335.7,884.6,1335.7z"/>
			<path class="st4" d="M898.5,1338.6c0,1.6-0.3,2.8-0.9,3.7c-0.6,0.8-1.4,1.2-2.6,1.2c-1.1,0-1.9-0.4-2.5-1.3
				c-0.6-0.8-0.9-2.1-0.9-3.6c0-3.2,1.1-4.8,3.4-4.8c1.1,0,2,0.4,2.6,1.3S898.5,1337,898.5,1338.6z M893.8,1338.6
				c0,1.1,0.1,1.8,0.3,2.4c0.2,0.5,0.5,0.8,1,0.8c0.9,0,1.4-1,1.4-3.1c0-2.1-0.5-3.1-1.4-3.1c-0.5,0-0.8,0.3-1,0.8
				C893.9,1336.8,893.8,1337.5,893.8,1338.6z M905.5,1333.9l-8.6,15.5h-2.1l8.6-15.5H905.5z M908.6,1344.8c0,1.6-0.3,2.8-0.9,3.7
				c-0.6,0.8-1.4,1.2-2.6,1.2c-1.1,0-1.9-0.4-2.5-1.3s-0.9-2-0.9-3.6c0-3.2,1.1-4.8,3.4-4.8c1.1,0,1.9,0.4,2.5,1.3
				C908.3,1342,908.6,1343.2,908.6,1344.8z M903.9,1344.8c0,1.1,0.1,1.8,0.3,2.4s0.5,0.8,1,0.8c0.9,0,1.4-1.1,1.4-3.2
				c0-2.1-0.5-3.1-1.4-3.1c-0.5,0-0.8,0.3-1,0.8C904,1343,903.9,1343.7,903.9,1344.8z"/>
		</g>
		<g class="st2">
			<path class="st3" d="M929.4,1349.5h-2.1l-8.5-13h-0.1c0.1,1.5,0.2,2.9,0.2,4.2v8.8h-1.7v-15.5h2l8.5,13h0.1c0-0.2,0-0.8-0.1-1.8
				s-0.1-1.8-0.1-2.2v-8.9h1.7V1349.5z"/>
			<path class="st3" d="M938.3,1349.7c-1.7,0-3.1-0.5-4.1-1.6c-1-1-1.5-2.5-1.5-4.4c0-1.9,0.5-3.4,1.4-4.5s2.2-1.7,3.7-1.7
				c1.5,0,2.6,0.5,3.5,1.4c0.8,1,1.3,2.2,1.3,3.8v1.1h-8c0,1.4,0.4,2.4,1,3.1s1.6,1.1,2.8,1.1c1.3,0,2.5-0.3,3.7-0.8v1.6
				c-0.6,0.3-1.2,0.5-1.8,0.6C939.8,1349.6,939.1,1349.7,938.3,1349.7z M937.9,1339.1c-0.9,0-1.7,0.3-2.2,0.9
				c-0.6,0.6-0.9,1.4-1,2.5h6.1c0-1.1-0.2-2-0.7-2.6C939.5,1339.4,938.8,1339.1,937.9,1339.1z"/>
			<path class="st3" d="M945.5,1334.7c0-0.4,0.1-0.7,0.3-0.9c0.2-0.2,0.4-0.3,0.7-0.3c0.3,0,0.5,0.1,0.7,0.3
				c0.2,0.2,0.3,0.5,0.3,0.9c0,0.4-0.1,0.7-0.3,0.9c-0.2,0.2-0.4,0.3-0.7,0.3c-0.3,0-0.5-0.1-0.7-0.3
				C945.6,1335.4,945.5,1335.1,945.5,1334.7z M947.4,1349.5h-1.8v-11.6h1.8V1349.5z"/>
			<path class="st3" d="M954.9,1348.2c0.3,0,0.6,0,0.9-0.1c0.3,0,0.5-0.1,0.7-0.1v1.3c-0.2,0.1-0.5,0.2-0.8,0.2
				c-0.4,0.1-0.7,0.1-1,0.1c-2.2,0-3.4-1.2-3.4-3.6v-6.9h-1.7v-0.8l1.7-0.7l0.7-2.5h1v2.7h3.4v1.4H953v6.8c0,0.7,0.2,1.2,0.5,1.6
				S954.3,1348.2,954.9,1348.2z"/>
			<path class="st3" d="M966.7,1349.5v-7.5c0-0.9-0.2-1.7-0.6-2.1s-1.1-0.7-2-0.7c-1.2,0-2.1,0.3-2.7,1c-0.6,0.7-0.8,1.8-0.8,3.3
				v6.1h-1.8v-16.5h1.8v5c0,0.6,0,1.1-0.1,1.5h0.1c0.3-0.6,0.8-1,1.5-1.3c0.6-0.3,1.4-0.5,2.2-0.5c1.4,0,2.5,0.3,3.2,1
				c0.7,0.7,1.1,1.7,1.1,3.2v7.6H966.7z"/>
			<path class="st3" d="M977,1349.7c-1.7,0-3.1-0.5-4.1-1.6c-1-1-1.5-2.5-1.5-4.4c0-1.9,0.5-3.4,1.4-4.5s2.2-1.7,3.7-1.7
				c1.5,0,2.6,0.5,3.5,1.4c0.8,1,1.3,2.2,1.3,3.8v1.1h-8c0,1.4,0.4,2.4,1,3.1s1.6,1.1,2.8,1.1c1.3,0,2.5-0.3,3.7-0.8v1.6
				c-0.6,0.3-1.2,0.5-1.8,0.6C978.5,1349.6,977.8,1349.7,977,1349.7z M976.5,1339.1c-0.9,0-1.7,0.3-2.2,0.9c-0.6,0.6-0.9,1.4-1,2.5
				h6.1c0-1.1-0.2-2-0.7-2.6C978.2,1339.4,977.5,1339.1,976.5,1339.1z"/>
			<path class="st3" d="M989.6,1337.6c0.5,0,1,0,1.4,0.1l-0.2,1.6c-0.5-0.1-0.9-0.2-1.3-0.2c-0.9,0-1.7,0.4-2.4,1.1
				c-0.7,0.8-1,1.7-1,2.9v6.2h-1.8v-11.6h1.5l0.2,2.2h0.1c0.4-0.8,1-1.3,1.6-1.8C988.2,1337.8,988.9,1337.6,989.6,1337.6z"/>
		</g>
		<g class="st2">
			<path class="st4" d="M898.5,1427.7c0-6.8,2.8-10.2,8.3-10.2c0.9,0,1.6,0.1,2.2,0.2v2.3c-0.6-0.2-1.3-0.3-2.1-0.3
				c-1.9,0-3.3,0.5-4.2,1.5c-0.9,1-1.4,2.6-1.5,4.8h0.1c0.4-0.6,0.9-1.1,1.6-1.5c0.7-0.4,1.5-0.5,2.4-0.5c1.6,0,2.8,0.5,3.7,1.5
				c0.9,1,1.3,2.3,1.3,3.9c0,1.8-0.5,3.3-1.5,4.3c-1,1.1-2.4,1.6-4.2,1.6c-1.2,0-2.3-0.3-3.3-0.9s-1.6-1.5-2.1-2.6
				S898.5,1429.3,898.5,1427.7z M904.6,1433c1,0,1.7-0.3,2.2-0.9c0.5-0.6,0.8-1.5,0.8-2.7c0-1-0.2-1.8-0.7-2.4
				c-0.5-0.6-1.2-0.9-2.2-0.9c-0.6,0-1.2,0.1-1.7,0.4c-0.5,0.3-0.9,0.6-1.2,1.1c-0.3,0.4-0.4,0.9-0.4,1.4c0,1.1,0.3,2.1,0.9,2.8
				S903.6,1433,904.6,1433z"/>
			<path class="st4" d="M920,1422.9c0,1.8-0.3,3.2-1,4.1s-1.6,1.4-2.9,1.4c-1.2,0-2.1-0.5-2.8-1.4c-0.7-0.9-1-2.3-1-4.1
				c0-3.6,1.3-5.4,3.8-5.4c1.2,0,2.2,0.5,2.9,1.4C919.6,1419.8,920,1421.1,920,1422.9z M914.6,1422.9c0,1.2,0.1,2.1,0.3,2.6
				c0.2,0.6,0.6,0.9,1.1,0.9c1,0,1.6-1.2,1.6-3.5c0-2.3-0.5-3.5-1.6-3.5c-0.5,0-0.9,0.3-1.1,0.9
				C914.7,1420.8,914.6,1421.7,914.6,1422.9z M927.8,1417.7l-9.7,17.4h-2.3l9.7-17.4H927.8z M931.3,1429.8c0,1.8-0.3,3.2-1,4.1
				c-0.7,0.9-1.6,1.4-2.9,1.4c-1.2,0-2.1-0.5-2.8-1.4c-0.7-0.9-1-2.3-1-4.1c0-3.6,1.3-5.4,3.8-5.4c1.2,0,2.2,0.5,2.9,1.4
				C931,1426.7,931.3,1428.1,931.3,1429.8z M926,1429.8c0,1.2,0.1,2.1,0.4,2.7c0.2,0.6,0.6,0.9,1.1,0.9c1,0,1.6-1.2,1.6-3.5
				c0-2.3-0.5-3.5-1.6-3.5c-0.5,0-0.9,0.3-1.1,0.9C926.1,1427.8,926,1428.7,926,1429.8z"/>
		</g>
		<line id="Line_521" class="st1" x1="646.3" y1="1358.6" x2="465.4" y2="1358.6"/>
		<line id="Line_522" class="st1" x1="671.5" y1="1535.7" x2="465.4" y2="1535.7"/>
		<g id="Group_4717" transform="translate(-118 379.184)">
			<line id="Line_523" class="st1" x1="1109.3" y1="1157.7" x2="902.9" y2="1157.7"/>
			<g class="st2">
				<path class="st3" d="M1020.8,1163.6c1.5,0,2.6,0.3,3.5,1c0.9,0.7,1.3,1.6,1.3,2.7c0,1.6-1,2.9-2.9,3.8c1.2,0.6,2.1,1.2,2.6,1.9
					s0.8,1.4,0.8,2.2c0,1.3-0.5,2.3-1.4,3.1c-0.9,0.8-2.2,1.2-3.8,1.2c-1.7,0-3-0.4-3.9-1.1s-1.4-1.7-1.4-3.1c0-0.9,0.2-1.6,0.7-2.3
					s1.3-1.3,2.4-1.8c-0.9-0.6-1.6-1.2-2-1.8c-0.4-0.6-0.6-1.3-0.6-2.1c0-1.1,0.4-2,1.3-2.7
					C1018.3,1164,1019.4,1163.6,1020.8,1163.6z M1018,1175.3c0,0.7,0.3,1.3,0.8,1.7c0.5,0.4,1.2,0.6,2.1,0.6c0.9,0,1.6-0.2,2.1-0.6
					c0.5-0.4,0.8-1,0.8-1.7c0-0.6-0.2-1.1-0.7-1.6c-0.5-0.5-1.2-0.9-2.1-1.3l-0.3-0.1c-0.9,0.4-1.6,0.9-2,1.4
					C1018.2,1174.1,1018,1174.7,1018,1175.3z M1020.8,1165.6c-0.7,0-1.3,0.2-1.7,0.5c-0.4,0.4-0.6,0.8-0.6,1.4c0,0.4,0.1,0.7,0.2,1
					s0.4,0.6,0.7,0.8c0.3,0.2,0.8,0.5,1.5,0.9c0.8-0.4,1.4-0.8,1.8-1.2c0.4-0.4,0.5-0.9,0.5-1.4c0-0.6-0.2-1.1-0.7-1.4
					C1022.1,1165.7,1021.5,1165.6,1020.8,1165.6z"/>
				<path class="st3" d="M1028,1172.7c0-6.1,2.5-9.1,7.4-9.1c0.8,0,1.4,0.1,2,0.2v2.1c-0.5-0.2-1.2-0.2-1.9-0.2
					c-1.7,0-2.9,0.4-3.7,1.3c-0.8,0.9-1.3,2.3-1.4,4.3h0.1c0.3-0.6,0.8-1,1.4-1.3c0.6-0.3,1.3-0.5,2.1-0.5c1.4,0,2.5,0.4,3.3,1.3
					c0.8,0.9,1.2,2,1.2,3.5c0,1.6-0.5,2.9-1.4,3.9c-0.9,0.9-2.1,1.4-3.7,1.4c-1.1,0-2.1-0.3-2.9-0.8s-1.5-1.3-1.9-2.3
					C1028.3,1175.4,1028,1174.2,1028,1172.7z M1033.5,1177.5c0.9,0,1.5-0.3,2-0.8c0.5-0.6,0.7-1.3,0.7-2.4c0-0.9-0.2-1.6-0.7-2.1
					c-0.4-0.5-1.1-0.8-2-0.8c-0.5,0-1,0.1-1.5,0.3c-0.5,0.2-0.8,0.5-1.1,0.9s-0.4,0.8-0.4,1.2c0,1,0.3,1.8,0.8,2.5
					C1031.9,1177.2,1032.6,1177.5,1033.5,1177.5z"/>
				<path class="st3" d="M1047.2,1168.5c0,1.6-0.3,2.8-0.9,3.7c-0.6,0.8-1.4,1.2-2.6,1.2c-1.1,0-1.9-0.4-2.5-1.3s-0.9-2.1-0.9-3.6
					c0-3.2,1.1-4.8,3.4-4.8c1.1,0,2,0.4,2.6,1.3S1047.2,1166.9,1047.2,1168.5z M1042.4,1168.5c0,1.1,0.1,1.8,0.3,2.4
					c0.2,0.5,0.5,0.8,1,0.8c0.9,0,1.4-1,1.4-3.1c0-2.1-0.5-3.1-1.4-3.1c-0.5,0-0.8,0.3-1,0.8
					C1042.5,1166.6,1042.4,1167.4,1042.4,1168.5z M1054.1,1163.8l-8.6,15.5h-2.1l8.6-15.5H1054.1z M1057.3,1174.7
					c0,1.6-0.3,2.8-0.9,3.7s-1.4,1.2-2.6,1.2c-1.1,0-1.9-0.4-2.5-1.3c-0.6-0.8-0.9-2-0.9-3.6c0-3.2,1.1-4.8,3.4-4.8
					c1.1,0,1.9,0.4,2.5,1.3C1057,1171.9,1057.3,1173.1,1057.3,1174.7z M1052.5,1174.7c0,1.1,0.1,1.8,0.3,2.4c0.2,0.5,0.5,0.8,1,0.8
					c0.9,0,1.4-1.1,1.4-3.2c0-2.1-0.5-3.1-1.4-3.1c-0.5,0-0.8,0.3-1,0.8C1052.6,1172.8,1052.5,1173.6,1052.5,1174.7z"/>
			</g>
			<g class="st2">
				<path class="st3" d="M1074.6,1179.3h-8.6v-15.5h8.6v1.6h-6.8v5h6.4v1.6h-6.4v5.7h6.8V1179.3z"/>
				<path class="st3" d="M1084.9,1179.3l-0.4-1.7h-0.1c-0.6,0.7-1.2,1.2-1.7,1.5c-0.6,0.3-1.3,0.4-2.2,0.4c-1.2,0-2.1-0.3-2.7-0.9
					c-0.7-0.6-1-1.4-1-2.5c0-2.3,1.9-3.6,5.6-3.7l2-0.1v-0.7c0-0.9-0.2-1.6-0.6-2c-0.4-0.4-1-0.7-1.9-0.7c-1,0-2.1,0.3-3.3,0.9
					l-0.5-1.3c0.6-0.3,1.2-0.6,1.9-0.7c0.7-0.2,1.4-0.3,2.1-0.3c1.4,0,2.4,0.3,3.1,0.9c0.7,0.6,1,1.6,1,3v7.9H1084.9z
					 M1080.9,1178.1c1.1,0,2-0.3,2.6-0.9c0.6-0.6,0.9-1.4,0.9-2.5v-1l-1.8,0.1c-1.4,0-2.4,0.3-3,0.7c-0.6,0.4-0.9,1-0.9,1.8
					c0,0.6,0.2,1.1,0.6,1.5C1079.7,1177.9,1080.3,1178.1,1080.9,1178.1z"/>
				<path class="st3" d="M1097.4,1176.2c0,1.1-0.4,1.9-1.2,2.5c-0.8,0.6-1.9,0.9-3.4,0.9c-1.5,0-2.7-0.2-3.6-0.7v-1.6
					c0.6,0.3,1.2,0.5,1.8,0.7c0.6,0.2,1.3,0.2,1.9,0.2c0.9,0,1.6-0.1,2.1-0.4c0.5-0.3,0.7-0.7,0.7-1.3c0-0.5-0.2-0.8-0.6-1.2
					c-0.4-0.3-1.2-0.7-2.3-1.1c-1.1-0.4-1.9-0.8-2.3-1.1s-0.8-0.6-1-1s-0.3-0.8-0.3-1.4c0-0.9,0.4-1.7,1.2-2.2
					c0.8-0.5,1.8-0.8,3.2-0.8c1.3,0,2.5,0.3,3.7,0.8l-0.6,1.4c-1.2-0.5-2.2-0.7-3.2-0.7c-0.8,0-1.5,0.1-1.9,0.4
					c-0.4,0.3-0.6,0.6-0.6,1.1c0,0.3,0.1,0.6,0.2,0.8c0.2,0.2,0.4,0.4,0.8,0.6s1,0.5,2,0.9c1.4,0.5,2.3,1,2.8,1.5
					C1097.1,1174.8,1097.4,1175.4,1097.4,1176.2z"/>
				<path class="st3" d="M1098.4,1167.7h1.9l2.5,6.6c0.6,1.5,0.9,2.6,1,3.3h0.1c0.1-0.4,0.3-1,0.6-1.9c0.3-0.9,1.3-3.6,2.9-8.1h1.9
					l-5,13.2c-0.5,1.3-1.1,2.2-1.7,2.8c-0.7,0.5-1.5,0.8-2.4,0.8c-0.5,0-1.1-0.1-1.6-0.2v-1.4c0.4,0.1,0.8,0.1,1.3,0.1
					c1.2,0,2.1-0.7,2.6-2l0.6-1.7L1098.4,1167.7z"/>
			</g>
		</g>
		<g class="st2">
			<path class="st4" d="M477.5,1347.1h-2.1v3.4h-2.4v-3.4h-7.1v-1.9l7.1-10.2h2.4v10.1h2.1V1347.1z M472.9,1345v-3.9
				c0-1.4,0-2.5,0.1-3.4H473c-0.2,0.5-0.5,1-0.9,1.7l-3.9,5.6H472.9z"/>
			<path class="st4" d="M484,1334.7c1.5,0,2.6,0.3,3.5,1c0.9,0.7,1.3,1.6,1.3,2.7c0,1.6-1,2.9-2.9,3.8c1.2,0.6,2.1,1.2,2.6,1.9
				c0.5,0.7,0.8,1.4,0.8,2.2c0,1.3-0.5,2.3-1.4,3.1c-0.9,0.8-2.2,1.2-3.8,1.2c-1.7,0-3-0.4-3.9-1.1s-1.4-1.7-1.4-3.1
				c0-0.9,0.2-1.6,0.7-2.3s1.3-1.3,2.4-1.8c-0.9-0.6-1.6-1.2-2-1.8c-0.4-0.6-0.6-1.3-0.6-2.1c0-1.1,0.4-2,1.3-2.7
				C481.5,1335.1,482.6,1334.7,484,1334.7z M481.2,1346.4c0,0.7,0.3,1.3,0.8,1.7c0.5,0.4,1.2,0.6,2.1,0.6c0.9,0,1.6-0.2,2.1-0.6
				c0.5-0.4,0.8-1,0.8-1.7c0-0.6-0.2-1.1-0.7-1.6c-0.5-0.5-1.2-0.9-2.1-1.3l-0.3-0.1c-0.9,0.4-1.6,0.9-2,1.4
				C481.4,1345.2,481.2,1345.8,481.2,1346.4z M484,1336.7c-0.7,0-1.3,0.2-1.7,0.5c-0.4,0.4-0.6,0.8-0.6,1.4c0,0.4,0.1,0.7,0.2,1
				c0.2,0.3,0.4,0.6,0.7,0.8c0.3,0.2,0.8,0.5,1.5,0.9c0.8-0.4,1.4-0.8,1.8-1.2c0.4-0.4,0.5-0.9,0.5-1.4c0-0.6-0.2-1.1-0.7-1.4
				C485.3,1336.8,484.7,1336.7,484,1336.7z"/>
			<path class="st4" d="M498,1339.6c0,1.6-0.3,2.8-0.9,3.7c-0.6,0.8-1.4,1.2-2.6,1.2c-1.1,0-1.9-0.4-2.5-1.3
				c-0.6-0.8-0.9-2.1-0.9-3.6c0-3.2,1.1-4.8,3.4-4.8c1.1,0,2,0.4,2.6,1.3S498,1338,498,1339.6z M493.2,1339.6c0,1.1,0.1,1.8,0.3,2.4
				c0.2,0.5,0.5,0.8,1,0.8c0.9,0,1.4-1,1.4-3.1c0-2.1-0.5-3.1-1.4-3.1c-0.5,0-0.8,0.3-1,0.8C493.3,1337.8,493.2,1338.5,493.2,1339.6
				z M504.9,1334.9l-8.6,15.5h-2.1l8.6-15.5H504.9z M508.1,1345.8c0,1.6-0.3,2.8-0.9,3.7c-0.6,0.8-1.4,1.2-2.6,1.2
				c-1.1,0-1.9-0.4-2.5-1.3c-0.6-0.8-0.9-2-0.9-3.6c0-3.2,1.1-4.8,3.4-4.8c1.1,0,1.9,0.4,2.5,1.3
				C507.8,1343,508.1,1344.2,508.1,1345.8z M503.3,1345.8c0,1.1,0.1,1.8,0.3,2.4c0.2,0.5,0.5,0.8,1,0.8c0.9,0,1.4-1.1,1.4-3.2
				c0-2.1-0.5-3.1-1.4-3.1c-0.5,0-0.8,0.3-1,0.8C503.4,1343.9,503.3,1344.7,503.3,1345.8z"/>
		</g>
		<g class="st2">
			<path class="st3" d="M526.5,1350.5l-1.9-4.9h-6.2l-1.9,4.9h-1.8l6.1-15.6h1.5l6.1,15.6H526.5z M524,1343.9l-1.8-4.8
				c-0.2-0.6-0.5-1.4-0.7-2.2c-0.2,0.7-0.4,1.4-0.7,2.2l-1.8,4.8H524z"/>
			<path class="st3" d="M535.6,1350.7c-0.8,0-1.4-0.1-2.1-0.4s-1.2-0.7-1.6-1.3h-0.1c0.1,0.7,0.1,1.3,0.1,1.9v4.8h-1.8v-16.8h1.4
				l0.2,1.6h0.1c0.5-0.6,1-1.1,1.6-1.4s1.3-0.4,2.1-0.4c1.5,0,2.7,0.5,3.6,1.6c0.8,1.1,1.3,2.5,1.3,4.4c0,1.9-0.4,3.4-1.3,4.5
				C538.3,1350.1,537.1,1350.7,535.6,1350.7z M535.4,1340.1c-1.2,0-2,0.3-2.6,1c-0.5,0.7-0.8,1.7-0.8,3.1v0.4c0,1.6,0.3,2.8,0.8,3.5
				c0.5,0.7,1.4,1.1,2.6,1.1c1,0,1.8-0.4,2.4-1.2s0.9-1.9,0.9-3.4c0-1.4-0.3-2.6-0.9-3.3S536.4,1340.1,535.4,1340.1z"/>
			<path class="st3" d="M548.9,1350.7c-0.8,0-1.4-0.1-2.1-0.4s-1.2-0.7-1.6-1.3h-0.1c0.1,0.7,0.1,1.3,0.1,1.9v4.8h-1.8v-16.8h1.4
				l0.2,1.6h0.1c0.5-0.6,1-1.1,1.6-1.4s1.3-0.4,2.1-0.4c1.5,0,2.7,0.5,3.6,1.6c0.8,1.1,1.3,2.5,1.3,4.4c0,1.9-0.4,3.4-1.3,4.5
				C551.6,1350.1,550.5,1350.7,548.9,1350.7z M548.7,1340.1c-1.2,0-2,0.3-2.6,1c-0.5,0.7-0.8,1.7-0.8,3.1v0.4c0,1.6,0.3,2.8,0.8,3.5
				c0.5,0.7,1.4,1.1,2.6,1.1c1,0,1.8-0.4,2.4-1.2s0.9-1.9,0.9-3.4c0-1.4-0.3-2.6-0.9-3.3S549.7,1340.1,548.7,1340.1z"/>
			<path class="st3" d="M558.6,1350.5h-1.8v-16.5h1.8V1350.5z"/>
			<path class="st3" d="M567.3,1350.7c-1.7,0-3.1-0.5-4.1-1.6c-1-1-1.5-2.5-1.5-4.4c0-1.9,0.5-3.4,1.4-4.5s2.2-1.7,3.7-1.7
				c1.5,0,2.6,0.5,3.5,1.4c0.8,1,1.3,2.2,1.3,3.8v1.1h-8c0,1.4,0.4,2.4,1,3.1s1.6,1.1,2.8,1.1c1.3,0,2.5-0.3,3.7-0.8v1.6
				c-0.6,0.3-1.2,0.5-1.8,0.6C568.7,1350.6,568,1350.7,567.3,1350.7z M566.8,1340.1c-0.9,0-1.7,0.3-2.2,0.9s-0.9,1.4-1,2.5h6.1
				c0-1.1-0.2-2-0.7-2.6C568.4,1340.4,567.7,1340.1,566.8,1340.1z"/>
			<path class="st3" d="M582,1347.3c0,1.1-0.4,1.9-1.2,2.5s-1.9,0.9-3.4,0.9c-1.5,0-2.7-0.2-3.6-0.7v-1.6c0.6,0.3,1.2,0.5,1.8,0.7
				c0.6,0.2,1.3,0.2,1.9,0.2c0.9,0,1.6-0.1,2.1-0.4c0.5-0.3,0.7-0.7,0.7-1.3c0-0.5-0.2-0.8-0.6-1.2c-0.4-0.3-1.2-0.7-2.3-1.1
				c-1.1-0.4-1.9-0.8-2.3-1.1c-0.5-0.3-0.8-0.6-1-1c-0.2-0.4-0.3-0.8-0.3-1.4c0-0.9,0.4-1.7,1.2-2.2c0.8-0.5,1.8-0.8,3.2-0.8
				c1.3,0,2.5,0.3,3.7,0.8l-0.6,1.4c-1.2-0.5-2.2-0.7-3.2-0.7c-0.8,0-1.5,0.1-1.9,0.4c-0.4,0.3-0.6,0.6-0.6,1.1
				c0,0.3,0.1,0.6,0.2,0.8c0.2,0.2,0.4,0.4,0.8,0.6s1,0.5,2,0.9c1.4,0.5,2.3,1,2.8,1.5C581.8,1345.9,582,1346.5,582,1347.3z"/>
		</g>
		<g class="st2">
			<path class="st4" d="M473.7,1556.5h-2.5v-10c0-1.2,0-2.1,0.1-2.8c-0.2,0.2-0.4,0.4-0.6,0.6c-0.2,0.2-1,0.9-2.4,2l-1.3-1.6
				l4.6-3.6h2.1V1556.5z"/>
			<path class="st4" d="M478.8,1549.8c0-6.1,2.5-9.1,7.4-9.1c0.8,0,1.4,0.1,2,0.2v2.1c-0.5-0.2-1.2-0.2-1.9-0.2
				c-1.7,0-2.9,0.4-3.7,1.3c-0.8,0.9-1.3,2.3-1.4,4.3h0.1c0.3-0.6,0.8-1,1.4-1.3c0.6-0.3,1.3-0.5,2.1-0.5c1.4,0,2.5,0.4,3.3,1.3
				c0.8,0.9,1.2,2,1.2,3.5c0,1.6-0.5,2.9-1.4,3.9s-2.1,1.4-3.7,1.4c-1.1,0-2.1-0.3-2.9-0.8c-0.8-0.5-1.5-1.3-1.9-2.3
				C479.1,1552.5,478.8,1551.3,478.8,1549.8z M484.2,1554.6c0.9,0,1.5-0.3,2-0.8s0.7-1.3,0.7-2.4c0-0.9-0.2-1.6-0.7-2.1
				c-0.4-0.5-1.1-0.8-2-0.8c-0.5,0-1,0.1-1.5,0.3c-0.5,0.2-0.8,0.5-1.1,0.9s-0.4,0.8-0.4,1.2c0,1,0.3,1.8,0.8,2.5
				C482.7,1554.3,483.4,1554.6,484.2,1554.6z"/>
			<path class="st4" d="M498,1545.6c0,1.6-0.3,2.8-0.9,3.7c-0.6,0.8-1.4,1.2-2.6,1.2c-1.1,0-1.9-0.4-2.5-1.3
				c-0.6-0.8-0.9-2.1-0.9-3.6c0-3.2,1.1-4.8,3.4-4.8c1.1,0,2,0.4,2.6,1.3S498,1544,498,1545.6z M493.2,1545.6c0,1.1,0.1,1.8,0.3,2.4
				c0.2,0.5,0.5,0.8,1,0.8c0.9,0,1.4-1,1.4-3.1c0-2.1-0.5-3.1-1.4-3.1c-0.5,0-0.8,0.3-1,0.8C493.3,1543.7,493.2,1544.5,493.2,1545.6
				z M504.9,1540.9l-8.6,15.5h-2.1l8.6-15.5H504.9z M508.1,1551.8c0,1.6-0.3,2.8-0.9,3.7c-0.6,0.8-1.4,1.2-2.6,1.2
				c-1.1,0-1.9-0.4-2.5-1.3c-0.6-0.8-0.9-2-0.9-3.6c0-3.2,1.1-4.8,3.4-4.8c1.1,0,1.9,0.4,2.5,1.3
				C507.8,1549,508.1,1550.2,508.1,1551.8z M503.3,1551.8c0,1.1,0.1,1.8,0.3,2.4c0.2,0.5,0.5,0.8,1,0.8c0.9,0,1.4-1.1,1.4-3.2
				c0-2.1-0.5-3.1-1.4-3.1c-0.5,0-0.8,0.3-1,0.8C503.4,1549.9,503.3,1550.7,503.3,1551.8z"/>
		</g>
		<g class="st2">
			<path class="st3" d="M516.7,1540.9h4.4c2.1,0,3.5,0.3,4.5,0.9s1.4,1.6,1.4,2.9c0,0.9-0.3,1.7-0.8,2.3c-0.5,0.6-1.3,1-2.2,1.2v0.1
				c2.4,0.4,3.5,1.6,3.5,3.7c0,1.4-0.5,2.5-1.4,3.2c-0.9,0.8-2.2,1.2-3.9,1.2h-5.4V1540.9z M518.5,1547.6h3c1.3,0,2.2-0.2,2.7-0.6
				c0.6-0.4,0.8-1.1,0.8-2c0-0.9-0.3-1.5-0.9-1.9c-0.6-0.4-1.6-0.6-3-0.6h-2.7V1547.6z M518.5,1549.1v5.8h3.2c1.3,0,2.2-0.2,2.8-0.7
				c0.6-0.5,0.9-1.2,0.9-2.3c0-1-0.3-1.7-1-2.1c-0.6-0.5-1.6-0.7-3-0.7H518.5z"/>
			<path class="st3" d="M537.7,1556.5l-0.4-1.7h-0.1c-0.6,0.7-1.2,1.2-1.7,1.5c-0.6,0.3-1.3,0.4-2.2,0.4c-1.2,0-2.1-0.3-2.7-0.9
				c-0.7-0.6-1-1.4-1-2.5c0-2.3,1.9-3.6,5.6-3.7l2-0.1v-0.7c0-0.9-0.2-1.6-0.6-2c-0.4-0.4-1-0.7-1.9-0.7c-1,0-2.1,0.3-3.3,0.9
				l-0.5-1.3c0.6-0.3,1.2-0.6,1.9-0.7s1.4-0.3,2.1-0.3c1.4,0,2.4,0.3,3.1,0.9s1,1.6,1,3v7.9H537.7z M533.7,1555.2
				c1.1,0,2-0.3,2.6-0.9c0.6-0.6,0.9-1.4,0.9-2.5v-1l-1.8,0.1c-1.4,0-2.4,0.3-3,0.7c-0.6,0.4-0.9,1-0.9,1.8c0,0.6,0.2,1.1,0.6,1.5
				C532.5,1555,533,1555.2,533.7,1555.2z"/>
			<path class="st3" d="M550.6,1556.5v-7.5c0-0.9-0.2-1.7-0.6-2.1c-0.4-0.5-1.1-0.7-2-0.7c-1.2,0-2.1,0.3-2.7,1
				c-0.6,0.7-0.8,1.7-0.8,3.3v6.1h-1.8v-11.6h1.4l0.3,1.6h0.1c0.4-0.6,0.9-1,1.5-1.3c0.7-0.3,1.4-0.5,2.2-0.5c1.4,0,2.5,0.3,3.2,1
				c0.7,0.7,1.1,1.8,1.1,3.2v7.6H550.6z"/>
			<path class="st3" d="M563.1,1556.5l-0.4-1.7h-0.1c-0.6,0.7-1.2,1.2-1.7,1.5c-0.6,0.3-1.3,0.4-2.2,0.4c-1.2,0-2.1-0.3-2.7-0.9
				c-0.7-0.6-1-1.4-1-2.5c0-2.3,1.9-3.6,5.6-3.7l2-0.1v-0.7c0-0.9-0.2-1.6-0.6-2c-0.4-0.4-1-0.7-1.9-0.7c-1,0-2.1,0.3-3.3,0.9
				l-0.5-1.3c0.6-0.3,1.2-0.6,1.9-0.7s1.4-0.3,2.1-0.3c1.4,0,2.4,0.3,3.1,0.9s1,1.6,1,3v7.9H563.1z M559.1,1555.2
				c1.1,0,2-0.3,2.6-0.9c0.6-0.6,0.9-1.4,0.9-2.5v-1l-1.8,0.1c-1.4,0-2.4,0.3-3,0.7c-0.6,0.4-0.9,1-0.9,1.8c0,0.6,0.2,1.1,0.6,1.5
				C557.9,1555,558.4,1555.2,559.1,1555.2z"/>
			<path class="st3" d="M576,1556.5v-7.5c0-0.9-0.2-1.7-0.6-2.1c-0.4-0.5-1.1-0.7-2-0.7c-1.2,0-2.1,0.3-2.7,1
				c-0.6,0.7-0.8,1.7-0.8,3.3v6.1h-1.8v-11.6h1.4l0.3,1.6h0.1c0.4-0.6,0.9-1,1.5-1.3c0.7-0.3,1.4-0.5,2.2-0.5c1.4,0,2.5,0.3,3.2,1
				c0.7,0.7,1.1,1.8,1.1,3.2v7.6H576z"/>
			<path class="st3" d="M588.5,1556.5l-0.4-1.7h-0.1c-0.6,0.7-1.2,1.2-1.7,1.5c-0.6,0.3-1.3,0.4-2.2,0.4c-1.2,0-2.1-0.3-2.7-0.9
				c-0.7-0.6-1-1.4-1-2.5c0-2.3,1.9-3.6,5.6-3.7l2-0.1v-0.7c0-0.9-0.2-1.6-0.6-2c-0.4-0.4-1-0.7-1.9-0.7c-1,0-2.1,0.3-3.3,0.9
				l-0.5-1.3c0.6-0.3,1.2-0.6,1.9-0.7s1.4-0.3,2.1-0.3c1.4,0,2.4,0.3,3.1,0.9s1,1.6,1,3v7.9H588.5z M584.6,1555.2
				c1.1,0,2-0.3,2.6-0.9c0.6-0.6,0.9-1.4,0.9-2.5v-1l-1.8,0.1c-1.4,0-2.4,0.3-3,0.7c-0.6,0.4-0.9,1-0.9,1.8c0,0.6,0.2,1.1,0.6,1.5
				C583.3,1555,583.9,1555.2,584.6,1555.2z"/>
			<path class="st3" d="M601,1553.3c0,1.1-0.4,1.9-1.2,2.5s-1.9,0.9-3.4,0.9c-1.5,0-2.7-0.2-3.6-0.7v-1.6c0.6,0.3,1.2,0.5,1.8,0.7
				c0.6,0.2,1.3,0.2,1.9,0.2c0.9,0,1.6-0.1,2.1-0.4c0.5-0.3,0.7-0.7,0.7-1.3c0-0.5-0.2-0.8-0.6-1.2c-0.4-0.3-1.2-0.7-2.3-1.1
				c-1.1-0.4-1.9-0.8-2.3-1.1c-0.5-0.3-0.8-0.6-1-1c-0.2-0.4-0.3-0.8-0.3-1.4c0-0.9,0.4-1.7,1.2-2.2c0.8-0.5,1.8-0.8,3.2-0.8
				c1.3,0,2.5,0.3,3.7,0.8l-0.6,1.4c-1.2-0.5-2.2-0.7-3.2-0.7c-0.8,0-1.5,0.1-1.9,0.4c-0.4,0.3-0.6,0.6-0.6,1.1
				c0,0.3,0.1,0.6,0.2,0.8c0.2,0.2,0.4,0.4,0.8,0.6s1,0.5,2,0.9c1.4,0.5,2.3,1,2.8,1.5C600.7,1551.9,601,1552.5,601,1553.3z"/>
		</g>
		<g class="st2">
			<path class="st3" d="M459,1271.5h-1.8l3.3-15.5h7.8l-0.3,1.6h-6l-1.2,5.7h5.6l-0.3,1.6h-5.6L459,1271.5z"/>
			<path class="st3" d="M474.5,1259.7c0.5,0,0.9,0,1.3,0.1l-0.4,1.6c-0.4-0.1-0.7-0.1-1.1-0.1c-0.6,0-1.2,0.2-1.8,0.6
				c-0.6,0.4-1.1,1-1.5,1.8c-0.4,0.8-0.7,1.6-0.9,2.5l-1.1,5.3h-1.8l2.5-11.6h1.5l-0.2,2.2h0.1c0.5-0.7,0.9-1.2,1.3-1.4
				c0.3-0.3,0.7-0.5,1-0.7S474.1,1259.7,474.5,1259.7z"/>
			<path class="st3" d="M479.9,1259.9l-1.6,7.4c-0.1,0.6-0.2,1.1-0.2,1.5c0,1,0.5,1.5,1.6,1.5c0.6,0,1.2-0.2,1.8-0.6
				c0.6-0.4,1.1-1,1.6-1.8c0.5-0.8,0.8-1.7,1.1-2.9l1.1-5h1.8l-2.5,11.6h-1.5l0.2-2.2h-0.1c-0.7,0.9-1.4,1.5-2,1.8s-1.3,0.5-2,0.5
				c-0.9,0-1.6-0.2-2.1-0.7c-0.5-0.5-0.8-1.2-0.8-2.1c0-0.4,0.1-1,0.2-1.8l1.5-7.2H479.9z"/>
			<path class="st3" d="M490.1,1271.5h-1.8l2.5-11.6h1.8L490.1,1271.5z M491.3,1256.9c0-0.4,0.1-0.7,0.3-1c0.2-0.3,0.5-0.4,0.9-0.4
				c0.6,0,0.9,0.3,0.9,1c0,0.4-0.1,0.7-0.4,1c-0.2,0.3-0.5,0.4-0.8,0.4c-0.3,0-0.5-0.1-0.7-0.3
				C491.4,1257.5,491.3,1257.2,491.3,1256.9z"/>
			<path class="st3" d="M497.4,1270.3c0.4,0,0.9-0.1,1.5-0.3v1.4c-0.2,0.1-0.5,0.2-0.9,0.3c-0.4,0.1-0.6,0.1-0.8,0.1
				c-0.9,0-1.6-0.2-2-0.6c-0.5-0.4-0.7-1-0.7-1.9c0-0.5,0.1-1,0.2-1.6l1.3-6.4h-1.8l0.1-0.8l2-0.8l1.3-2.4h1l-0.6,2.7h2.9l-0.3,1.3
				h-2.9l-1.4,6.4c-0.1,0.6-0.2,1.1-0.2,1.4c0,0.4,0.1,0.7,0.3,0.9S497,1270.3,497.4,1270.3z"/>
			<path class="st3" d="M511.2,1271.7c-1.4,0-2.4-0.4-3.2-1.1s-1.1-1.8-1.1-3.2c0-1.4,0.3-2.7,0.8-3.9c0.5-1.2,1.2-2.1,2.2-2.8
				s2-1,3.1-1c1,0,1.9,0.2,2.8,0.5l-0.5,1.5c-0.8-0.4-1.6-0.5-2.3-0.5c-0.8,0-1.5,0.3-2.2,0.8s-1.2,1.3-1.5,2.3s-0.6,2-0.6,3.1
				c0,0.9,0.2,1.6,0.7,2.1s1.1,0.8,1.9,0.8c0.5,0,1-0.1,1.4-0.2s0.9-0.3,1.3-0.5v1.5C513.3,1271.5,512.3,1271.7,511.2,1271.7z"/>
			<path class="st3" d="M522.5,1259.7c1.3,0,2.4,0.4,3.2,1.2c0.8,0.8,1.2,1.9,1.2,3.3c0,1.3-0.3,2.6-0.8,3.8
				c-0.5,1.2-1.2,2.1-2.1,2.7c-0.9,0.6-1.9,1-2.9,1c-1.4,0-2.4-0.4-3.2-1.2c-0.8-0.8-1.2-1.9-1.2-3.3c0-1.3,0.3-2.6,0.8-3.8
				s1.2-2.1,2.1-2.7C520.4,1260,521.4,1259.7,522.5,1259.7z M525,1264c0-0.8-0.2-1.5-0.7-2s-1-0.8-1.8-0.8c-0.8,0-1.5,0.3-2.1,0.8
				c-0.6,0.5-1.1,1.2-1.4,2.2c-0.3,0.9-0.5,2-0.5,3.1c0,0.9,0.2,1.6,0.7,2.1s1.1,0.8,1.9,0.8c0.7,0,1.4-0.3,2-0.8s1-1.2,1.4-2.2
				C524.8,1266.3,525,1265.2,525,1264z"/>
			<path class="st3" d="M535.6,1271.5l1.6-7.3c0.1-0.7,0.2-1.2,0.2-1.5c0-0.4-0.1-0.8-0.4-1.1c-0.3-0.3-0.7-0.4-1.2-0.4
				c-0.6,0-1.2,0.2-1.8,0.6c-0.6,0.4-1.1,1-1.6,1.8c-0.5,0.8-0.8,1.7-1,2.9l-1.1,5h-1.8l2.5-11.6h1.5l-0.2,2.2h0.1
				c0.7-0.9,1.3-1.5,2-1.8c0.6-0.4,1.3-0.5,2-0.5c0.9,0,1.6,0.2,2.1,0.7c0.5,0.5,0.8,1.2,0.8,2.1c0,0.6-0.1,1.2-0.2,1.9l-1.5,7.1
				H535.6z"/>
			<path class="st3" d="M548.2,1268.2c0,1.1-0.4,2-1.2,2.6c-0.8,0.6-1.9,0.9-3.3,0.9c-1.2,0-2.3-0.2-3.2-0.7v-1.7
				c0.5,0.3,1,0.5,1.6,0.7c0.6,0.2,1.1,0.2,1.6,0.2c0.9,0,1.6-0.2,2-0.5s0.7-0.8,0.7-1.4c0-0.4-0.1-0.7-0.4-1
				c-0.2-0.3-0.8-0.7-1.6-1.1c-0.9-0.5-1.6-1-2-1.5s-0.6-1.1-0.6-1.8c0-1,0.4-1.8,1.1-2.4s1.7-0.9,2.8-0.9c1.2,0,2.4,0.3,3.5,0.8
				l-0.6,1.5l-0.6-0.3c-0.7-0.3-1.5-0.5-2.3-0.5c-0.7,0-1.2,0.2-1.5,0.5c-0.4,0.3-0.6,0.7-0.6,1.2c0,0.4,0.1,0.7,0.4,1
				c0.3,0.3,0.8,0.6,1.6,1.1c0.8,0.4,1.3,0.8,1.6,1.1c0.3,0.3,0.6,0.6,0.7,1C548.1,1267.4,548.2,1267.8,548.2,1268.2z"/>
			<path class="st3" d="M554.5,1259.9l-1.6,7.4c-0.1,0.6-0.2,1.1-0.2,1.5c0,1,0.5,1.5,1.6,1.5c0.6,0,1.2-0.2,1.8-0.6
				c0.6-0.4,1.1-1,1.6-1.8c0.5-0.8,0.8-1.7,1.1-2.9l1.1-5h1.8l-2.5,11.6h-1.5l0.2-2.2h-0.1c-0.7,0.9-1.4,1.5-2,1.8s-1.3,0.5-2,0.5
				c-0.9,0-1.6-0.2-2.1-0.7c-0.5-0.5-0.8-1.2-0.8-2.1c0-0.4,0.1-1,0.2-1.8l1.5-7.2H554.5z"/>
			<path class="st3" d="M569.6,1271.5l1.6-7.3c0.1-0.7,0.2-1.1,0.2-1.4c0-0.5-0.1-0.9-0.3-1.2c-0.2-0.3-0.6-0.4-1.1-0.4
				c-0.6,0-1.2,0.2-1.7,0.6c-0.6,0.4-1.1,1-1.5,1.8c-0.4,0.8-0.8,1.7-1,2.8l-1.1,5h-1.8l2.5-11.6h1.5l-0.2,2.2h0.1
				c0.6-0.8,1.2-1.4,1.8-1.8c0.6-0.4,1.2-0.6,1.9-0.6c0.8,0,1.4,0.2,1.8,0.7c0.4,0.5,0.7,1.1,0.8,1.9h0.1c0.6-0.9,1.3-1.5,1.9-2
				c0.7-0.4,1.4-0.6,2.1-0.6c0.9,0,1.6,0.2,2.1,0.7c0.5,0.5,0.7,1.2,0.7,2.1c0,0.5-0.1,1.1-0.2,1.9l-1.5,7.1h-1.8l1.6-7.3
				c0.1-0.7,0.2-1.3,0.2-1.5c0-0.4-0.1-0.8-0.4-1.1c-0.2-0.3-0.6-0.4-1.2-0.4c-0.6,0-1.1,0.2-1.7,0.6s-1,1-1.5,1.7
				c-0.4,0.8-0.7,1.6-1,2.7l-1.1,5.3H569.6z"/>
			<path class="st3" d="M587,1271.7c-0.7,0-1.3-0.2-1.8-0.5c-0.5-0.4-0.9-0.8-1.2-1.5h-0.1l0,0.4c0,0.2-0.1,0.4-0.1,0.7
				c-0.1,0.3-0.5,2.3-1.2,5.9h-1.8l3.6-16.8h1.5l-0.3,2.2h0.1c1.3-1.6,2.6-2.4,3.9-2.4c1,0,1.7,0.3,2.3,1c0.6,0.7,0.8,1.7,0.8,2.9
				c0,1.5-0.2,2.9-0.7,4.1c-0.5,1.3-1.2,2.2-2,2.9C589,1271.4,588,1271.7,587,1271.7z M588.9,1261.2c-0.7,0-1.4,0.3-2.1,1
				c-0.7,0.7-1.3,1.5-1.7,2.5c-0.4,1-0.6,2.1-0.6,3.1c0,0.8,0.2,1.4,0.6,1.8c0.4,0.4,1,0.6,1.7,0.6c0.7,0,1.4-0.3,2-0.9
				c0.6-0.6,1.1-1.4,1.5-2.4c0.4-1.1,0.6-2.2,0.6-3.4C590.8,1262,590.2,1261.2,588.9,1261.2z"/>
			<path class="st3" d="M597.9,1270.3c0.4,0,0.9-0.1,1.5-0.3v1.4c-0.2,0.1-0.5,0.2-0.9,0.3c-0.4,0.1-0.6,0.1-0.8,0.1
				c-0.9,0-1.6-0.2-2-0.6c-0.5-0.4-0.7-1-0.7-1.9c0-0.5,0.1-1,0.2-1.6l1.3-6.4h-1.8l0.1-0.8l2-0.8l1.3-2.4h1l-0.6,2.7h2.9l-0.3,1.3
				h-2.9l-1.4,6.4c-0.1,0.6-0.2,1.1-0.2,1.4c0,0.4,0.1,0.7,0.3,0.9S597.5,1270.3,597.9,1270.3z"/>
			<path class="st3" d="M603.2,1271.5h-1.8l2.5-11.6h1.8L603.2,1271.5z M604.4,1256.9c0-0.4,0.1-0.7,0.3-1c0.2-0.3,0.5-0.4,0.9-0.4
				c0.6,0,0.9,0.3,0.9,1c0,0.4-0.1,0.7-0.4,1c-0.2,0.3-0.5,0.4-0.8,0.4c-0.3,0-0.5-0.1-0.7-0.3
				C604.5,1257.5,604.4,1257.2,604.4,1256.9z"/>
			<path class="st3" d="M613.1,1259.7c1.3,0,2.4,0.4,3.2,1.2c0.8,0.8,1.2,1.9,1.2,3.3c0,1.3-0.3,2.6-0.8,3.8
				c-0.5,1.2-1.2,2.1-2.1,2.7s-1.9,1-2.9,1c-1.4,0-2.4-0.4-3.2-1.2c-0.8-0.8-1.2-1.9-1.2-3.3c0-1.3,0.3-2.6,0.8-3.8
				c0.5-1.2,1.2-2.1,2.1-2.7S612,1259.7,613.1,1259.7z M615.6,1264c0-0.8-0.2-1.5-0.7-2s-1-0.8-1.8-0.8c-0.8,0-1.5,0.3-2.1,0.8
				c-0.6,0.5-1.1,1.2-1.4,2.2c-0.3,0.9-0.5,2-0.5,3.1c0,0.9,0.2,1.6,0.7,2.1s1.1,0.8,1.9,0.8c0.7,0,1.4-0.3,2-0.8s1-1.2,1.4-2.2
				S615.6,1265.2,615.6,1264z"/>
			<path class="st3" d="M626.2,1271.5l1.6-7.3c0.1-0.7,0.2-1.2,0.2-1.5c0-0.4-0.1-0.8-0.4-1.1s-0.7-0.4-1.2-0.4
				c-0.6,0-1.2,0.2-1.8,0.6c-0.6,0.4-1.1,1-1.6,1.8c-0.5,0.8-0.8,1.7-1,2.9l-1.1,5h-1.8l2.5-11.6h1.5l-0.2,2.2h0.1
				c0.7-0.9,1.3-1.5,2-1.8s1.3-0.5,2-0.5c0.9,0,1.6,0.2,2.1,0.7c0.5,0.5,0.8,1.2,0.8,2.1c0,0.6-0.1,1.2-0.2,1.9l-1.5,7.1H626.2z"/>
			<path class="st3" d="M639.1,1271.5h-1.8l2.5-11.6h1.8L639.1,1271.5z M640.3,1256.9c0-0.4,0.1-0.7,0.3-1s0.5-0.4,0.9-0.4
				c0.6,0,0.9,0.3,0.9,1c0,0.4-0.1,0.7-0.4,1c-0.2,0.3-0.5,0.4-0.8,0.4c-0.3,0-0.5-0.1-0.7-0.3
				C640.4,1257.5,640.3,1257.2,640.3,1256.9z"/>
			<path class="st3" d="M649.9,1271.5l1.6-7.3c0.1-0.7,0.2-1.2,0.2-1.5c0-0.4-0.1-0.8-0.4-1.1s-0.7-0.4-1.2-0.4
				c-0.6,0-1.2,0.2-1.8,0.6c-0.6,0.4-1.1,1-1.6,1.8c-0.5,0.8-0.8,1.7-1,2.9l-1.1,5h-1.8l2.5-11.6h1.5l-0.2,2.2h0.1
				c0.7-0.9,1.3-1.5,2-1.8s1.3-0.5,2-0.5c0.9,0,1.6,0.2,2.1,0.7c0.5,0.5,0.8,1.2,0.8,2.1c0,0.6-0.1,1.2-0.2,1.9l-1.5,7.1H649.9z"/>
			<path class="st3" d="M666.6,1271.5h-1.8l2.1-9.7c0.4-1.8,0.7-3.1,0.9-3.8c-0.4,0.4-0.8,0.8-1.5,1.2l-1.9,1.2l-0.8-1.3l4.8-3h1.6
				L666.6,1271.5z"/>
			<path class="st3" d="M683.6,1260.5c0,1.4-0.2,2.8-0.6,4.3s-0.9,2.8-1.6,3.8c-0.6,1-1.4,1.8-2.4,2.3c-0.9,0.5-2,0.7-3.2,0.7
				c-1,0-1.8-0.1-2.6-0.4v-1.7c0.9,0.3,1.8,0.5,2.6,0.5c1.4,0,2.6-0.5,3.5-1.5c0.9-1,1.6-2.6,2-4.7h-0.1c-0.4,0.5-0.8,0.9-1.4,1.3
				c-0.6,0.3-1.2,0.5-1.9,0.5c-1.2,0-2.1-0.3-2.8-1c-0.7-0.7-1-1.7-1-3.1c0-1.1,0.2-2.1,0.7-3c0.5-0.9,1.1-1.6,1.9-2.1
				s1.7-0.8,2.8-0.8c1.3,0,2.3,0.4,3,1.2C683.3,1257.8,683.6,1259,683.6,1260.5z M679.6,1257.3c-1.1,0-1.9,0.4-2.6,1.2
				c-0.6,0.8-1,1.8-1,3.1c0,0.9,0.2,1.5,0.6,2s1,0.7,1.7,0.7c0.5,0,1-0.1,1.5-0.3c0.5-0.2,0.8-0.5,1.2-0.9s0.5-0.8,0.7-1.2
				c0.1-0.4,0.2-1,0.2-1.6c0-0.9-0.2-1.7-0.6-2.2S680.3,1257.3,679.6,1257.3z"/>
			<path class="st3" d="M695.9,1260.7c0,2.1-0.3,4-0.8,5.7c-0.6,1.7-1.3,3-2.3,3.9c-1,0.9-2.1,1.3-3.3,1.3c-1.2,0-2.2-0.5-2.9-1.4
				c-0.7-0.9-1-2.2-1-3.9c0-1.9,0.3-3.7,0.9-5.5s1.3-3,2.3-3.9c1-0.9,2-1.3,3.3-1.3C694.6,1255.8,695.9,1257.4,695.9,1260.7z
				 M691.9,1257.3c-0.8,0-1.5,0.4-2.2,1.2c-0.7,0.8-1.2,2-1.7,3.4s-0.6,3-0.6,4.5c0,1.2,0.2,2.2,0.5,2.8c0.4,0.7,0.9,1,1.7,1
				c0.8,0,1.6-0.4,2.2-1.2c0.7-0.8,1.2-2,1.6-3.5c0.4-1.5,0.6-3.1,0.6-4.8C694,1258.4,693.3,1257.3,691.9,1257.3z"/>
			<path class="st3" d="M704.1,1255.8c1.2,0,2.2,0.3,2.9,0.9c0.7,0.6,1,1.4,1,2.5c0,0.9-0.3,1.7-0.8,2.4s-1.5,1.3-2.8,1.9
				c0.9,0.6,1.5,1.1,1.9,1.8c0.4,0.6,0.6,1.3,0.6,2.1c0,0.9-0.2,1.6-0.6,2.3c-0.4,0.7-1,1.2-1.8,1.6c-0.8,0.4-1.7,0.5-2.8,0.5
				c-1.3,0-2.4-0.3-3.2-1c-0.8-0.7-1.1-1.6-1.1-2.8c0-1,0.3-2,1-2.7s1.7-1.4,3.1-2c-0.7-0.5-1.2-1-1.4-1.5c-0.3-0.5-0.4-1.1-0.4-1.8
				c0-0.8,0.2-1.5,0.6-2.1c0.4-0.6,0.9-1.1,1.6-1.4C702.5,1255.9,703.2,1255.8,704.1,1255.8z M702.7,1264.1
				c-1.3,0.4-2.2,0.9-2.8,1.5c-0.5,0.6-0.8,1.3-0.8,2.1c0,0.8,0.2,1.4,0.7,1.8c0.5,0.4,1.1,0.7,1.9,0.7c1,0,1.8-0.3,2.4-0.8
				c0.6-0.5,0.9-1.2,0.9-2.1c0-0.7-0.2-1.3-0.6-1.8C704.1,1265,703.5,1264.5,702.7,1264.1z M704,1257.3c-0.8,0-1.4,0.2-1.9,0.7
				c-0.5,0.5-0.7,1.1-0.7,1.9c0,0.6,0.1,1.1,0.4,1.5c0.3,0.4,0.7,0.8,1.3,1.2c1.1-0.4,1.9-0.9,2.4-1.4s0.7-1.1,0.7-1.8
				c0-0.6-0.2-1.1-0.6-1.5C705.2,1257.5,704.7,1257.3,704,1257.3z"/>
		</g>
		<path id="Path_4498" class="st0" d="M773.4,1370.1l-18,22.2l0,0L773.4,1370.1z"/>
		<path id="Path_4499" class="st0" d="M684.9,1470.3l-55.9,55.9L684.9,1470.3z"/>
		<path id="Path_4500" class="st5" d="M774.9,1432.9c0,0.1,0,0.2,0,0.3h79c0.1-16.9-3.2-33.7-9.6-49.3l-73.2,29.6
			C773.6,1419.6,774.9,1426.2,774.9,1432.9z"/>
		<path id="Path_4501" class="st6" d="M755.4,1392.2c6.9,5.6,12.3,12.9,15.7,21.2l73.2-29.6c-8.2-20.8-21.7-39.1-39.2-53l-31.7,39.2
			L755.4,1392.2z"/>
		<path id="Path_4502" class="st7" d="M722.5,1485.8c-14.1,0.1-27.7-5.5-37.6-15.6l-55.9,55.9c24.7,24.8,58.2,38.7,93.2,38.7
			c4.5,0,9.1-0.2,13.6-0.7l-8.3-78.6C725.9,1485.7,724.2,1485.8,722.5,1485.8z"/>
		<path id="Path_4503" class="st8" d="M853.9,1433.2h-79c0,10.4-3.1,20.6-8.9,29.3l65,44.9C846,1485.5,854,1459.6,853.9,1433.2z"/>
		<path id="Path_4504" class="st9" d="M669.6,1433.4c-0.1-29.1,23.3-52.8,52.4-52.9c12.2-0.1,24,4.1,33.4,11.7l18-22.2l31.7-39.2
			l0,0c-24.9-20.1-50.9-29.3-82.9-29.3c-72.7,0-131.7,58.9-131.7,131.7c0,34.9,13.8,68.3,38.4,93l55.9-55.9
			C675.2,1460.5,669.7,1447.3,669.6,1433.4z"/>
		<path id="Path_4505" class="st10" d="M727.5,1485.6l8.3,78.6c38.6-4,73.4-24.8,95.2-56.8l-65-44.9
			C757.3,1475.5,743.2,1484,727.5,1485.6z"/>
		<path id="Path_4506" class="st11" d="M727.5,1485.6l8.3,78.6L727.5,1485.6z"/>
		<path id="Path_4507" class="st11" d="M766,1462.5l65,44.9L766,1462.5z"/>
	</g>
</g>
</svg>
